<?xml version="1.0" encoding="UTF-8" standalone="no"?><svg xmlns="http://www.w3.org/2000/svg" xmlns:xlink="http://www.w3.org/1999/xlink" clip-rule="evenodd" stroke-miterlimit="4.00" viewBox="0 0 1024 768"><desc>SVG generated by Keynote</desc><defs></defs><g transform="matrix(1.00, 0.00, -0.00, -1.00, 0.0, 768.0)"><g><clipPath id="clip-475"><path d="M 0.0 768.0 L 1024.0 768.0 L 1024.0 0.0 L 0.0 0.0 Z M 0.0 768.0 "></path></clipPath><g clip-path="url(#clip-475)"><image xlink:href="../../8F6754E5-F402-453C-8A28-A81B776A4759/assets/370422EB796A13E2672D714038217573.png" width="720.00" height="450.00" transform="matrix(1.42, 0.00, -0.00, -1.71, 0.0, 768.0)"></image></g></g><text xml:space="preserve" font-family="AvenirNext-Medium" font-size="60.0" fill="#000000" transform="matrix(1.00, 0.00, -0.00, -1.00, 426.0, 641.0)">S</text><text xml:space="preserve" font-family="AvenirNext-Medium" font-size="60.0" fill="#000000" transform="matrix(1.00, 0.00, -0.00, -1.00, 460.1, 641.0)">c</text><text xml:space="preserve" font-family="AvenirNext-Medium" font-size="60.0" fill="#000000" transform="matrix(1.00, 0.00, -0.00, -1.00, 489.8, 641.0)">o</text><text xml:space="preserve" font-family="AvenirNext-Medium" font-size="60.0" fill="#000000" transform="matrix(1.00, 0.00, -0.00, -1.00, 526.4, 641.0)">p</text><text xml:space="preserve" font-family="AvenirNext-Medium" font-size="60.0" fill="#000000" transform="matrix(1.00, 0.00, -0.00, -1.00, 564.4, 641.0)">e</text><image xlink:href="../../F3F71BDD-EE91-4A91-B992-DD259C0F60E4/assets/239356B44E8E70B4AB3C6746E06A4D60.png" width="579.00" height="434.00" transform="matrix(1.00, 0.00, -0.00, -1.00, 223.0, 601.0)"></image><text xml:space="preserve" font-family="AvenirNext-DemiBold" font-weight="bold" font-size="38.0" fill="#FEFFFE" transform="matrix(1.00, 0.00, -0.00, -1.00, 389.0, 182.0)">&amp;</text><text xml:space="preserve" font-family="AvenirNext-DemiBold" font-weight="bold" font-size="38.0" fill="#FEFFFE" transform="matrix(1.00, 0.00, -0.00, -1.00, 417.2, 182.0)"> </text><text xml:space="preserve" font-family="AvenirNext-DemiBold" font-weight="bold" font-size="38.0" fill="#FEFFFE" transform="matrix(1.00, 0.00, -0.00, -1.00, 426.7, 182.0)">N</text><text xml:space="preserve" font-family="AvenirNext-DemiBold" font-weight="bold" font-size="38.0" fill="#FEFFFE" transform="matrix(1.00, 0.00, -0.00, -1.00, 456.3, 182.0)">a</text><text xml:space="preserve" font-family="AvenirNext-DemiBold" font-weight="bold" font-size="38.0" fill="#FEFFFE" transform="matrix(1.00, 0.00, -0.00, -1.00, 477.2, 182.0)">m</text><text xml:space="preserve" font-family="AvenirNext-DemiBold" font-weight="bold" font-size="38.0" fill="#FEFFFE" transform="matrix(1.00, 0.00, -0.00, -1.00, 511.0, 182.0)">e</text><text xml:space="preserve" font-family="AvenirNext-DemiBold" font-weight="bold" font-size="38.0" fill="#FEFFFE" transform="matrix(1.00, 0.00, -0.00, -1.00, 532.8, 182.0)">s</text><text xml:space="preserve" font-family="AvenirNext-DemiBold" font-weight="bold" font-size="38.0" fill="#FEFFFE" transform="matrix(1.00, 0.00, -0.00, -1.00, 549.7, 182.0)">p</text><text xml:space="preserve" font-family="AvenirNext-DemiBold" font-weight="bold" font-size="38.0" fill="#FEFFFE" transform="matrix(1.00, 0.00, -0.00, -1.00, 573.8, 182.0)">a</text><text xml:space="preserve" font-family="AvenirNext-DemiBold" font-weight="bold" font-size="38.0" fill="#FEFFFE" transform="matrix(1.00, 0.00, -0.00, -1.00, 594.7, 182.0)">c</text><text xml:space="preserve" font-family="AvenirNext-DemiBold" font-weight="bold" font-size="38.0" fill="#FEFFFE" transform="matrix(1.00, 0.00, -0.00, -1.00, 613.2, 182.0)">e</text></g></svg>