<?xml version="1.0" encoding="UTF-8" standalone="no"?><svg xmlns="http://www.w3.org/2000/svg" xmlns:xlink="http://www.w3.org/1999/xlink" clip-rule="evenodd" stroke-miterlimit="4.00" viewBox="0 0 845 69"><desc>SVG generated by Keynote</desc><defs></defs><g transform="matrix(1.00, 0.00, -0.00, -1.00, 0.0, 69.0)"><text xml:space="preserve" font-family="AvenirNext-Regular" font-size="20.5" fill="#000000" transform="matrix(1.00, 0.00, -0.00, -1.00, 0.3, 47.3)">•</text><text xml:space="preserve" font-family="AvenirNext-Regular" font-size="27.4" fill="#000000" transform="matrix(1.00, 0.00, -0.00, -1.00, 27.0, 46.0)">Н</text><text xml:space="preserve" font-family="AvenirNext-Regular" font-size="27.4" fill="#000000" transform="matrix(1.00, 0.00, -0.00, -1.00, 46.6, 46.0)">а</text><text xml:space="preserve" font-family="AvenirNext-Regular" font-size="27.4" fill="#000000" transform="matrix(1.00, 0.00, -0.00, -1.00, 61.3, 46.0)">р</text><text xml:space="preserve" font-family="AvenirNext-Regular" font-size="27.4" fill="#000000" transform="matrix(1.00, 0.00, -0.00, -1.00, 78.6, 46.0)">и</text><text xml:space="preserve" font-family="AvenirNext-Regular" font-size="27.4" fill="#000000" transform="matrix(1.00, 0.00, -0.00, -1.00, 95.0, 46.0)">ч</text><text xml:space="preserve" font-family="AvenirNext-Regular" font-size="27.4" fill="#000000" transform="matrix(1.00, 0.00, -0.00, -1.00, 109.1, 46.0)">а</text><text xml:space="preserve" font-family="AvenirNext-Regular" font-size="27.4" fill="#000000" transform="matrix(1.00, 0.00, -0.00, -1.00, 123.7, 46.0)">м</text><text xml:space="preserve" font-family="AvenirNext-Regular" font-size="27.4" fill="#000000" transform="matrix(1.00, 0.00, -0.00, -1.00, 142.8, 46.0)">е</text><text xml:space="preserve" font-family="AvenirNext-Regular" font-size="27.4" fill="#000000" transform="matrix(1.00, 0.00, -0.00, -1.00, 158.4, 46.0)"> </text><text xml:space="preserve" font-family="AvenirNext-Regular" font-size="27.4" fill="#000000" transform="matrix(1.00, 0.00, -0.00, -1.00, 165.3, 46.0)">г</text><text xml:space="preserve" font-family="AvenirNext-Regular" font-size="27.4" fill="#000000" transform="matrix(1.00, 0.00, -0.00, -1.00, 175.9, 46.0)">и</text><text xml:space="preserve" font-family="AvenirNext-Regular" font-size="27.4" fill="#000000" transform="matrix(1.00, 0.00, -0.00, -1.00, 192.3, 46.0)"> </text><text xml:space="preserve" font-family="AvenirNext-Regular" font-size="27.4" fill="#000000" transform="matrix(1.00, 0.00, -0.00, -1.00, 199.1, 46.0)">о</text><text xml:space="preserve" font-family="AvenirNext-Regular" font-size="27.4" fill="#000000" transform="matrix(1.00, 0.00, -0.00, -1.00, 215.8, 46.0)">щ</text><text xml:space="preserve" font-family="AvenirNext-Regular" font-size="27.4" fill="#000000" transform="matrix(1.00, 0.00, -0.00, -1.00, 237.9, 46.0)">е</text><text xml:space="preserve" font-family="AvenirNext-Regular" font-size="27.4" fill="#000000" transform="matrix(1.00, 0.00, -0.00, -1.00, 253.6, 46.0)"> </text><text xml:space="preserve" font-family="AvenirNext-Regular" font-size="27.4" fill="#000000" transform="matrix(1.00, 0.00, -0.00, -1.00, 260.4, 46.0)">и</text><text xml:space="preserve" font-family="AvenirNext-Regular" font-size="27.4" fill="#000000" transform="matrix(1.00, 0.00, -0.00, -1.00, 276.8, 46.0)">з</text><text xml:space="preserve" font-family="AvenirNext-Regular" font-size="27.4" fill="#000000" transform="matrix(1.00, 0.00, -0.00, -1.00, 289.5, 46.0)">к</text><text xml:space="preserve" font-family="AvenirNext-Regular" font-size="27.4" fill="#000000" transform="matrix(1.00, 0.00, -0.00, -1.00, 304.3, 46.0)">л</text><text xml:space="preserve" font-family="AvenirNext-Regular" font-size="27.4" fill="#000000" transform="matrix(1.00, 0.00, -0.00, -1.00, 317.9, 46.0)">ю</text><text xml:space="preserve" font-family="AvenirNext-Regular" font-size="27.4" fill="#000000" transform="matrix(1.00, 0.00, -0.00, -1.00, 340.0, 46.0)">ч</text><text xml:space="preserve" font-family="AvenirNext-Regular" font-size="27.4" fill="#000000" transform="matrix(1.00, 0.00, -0.00, -1.00, 354.1, 46.0)">е</text><text xml:space="preserve" font-family="AvenirNext-Regular" font-size="27.4" fill="#000000" transform="matrix(1.00, 0.00, -0.00, -1.00, 369.8, 46.0)">н</text><text xml:space="preserve" font-family="AvenirNext-Regular" font-size="27.4" fill="#000000" transform="matrix(1.00, 0.00, -0.00, -1.00, 385.5, 46.0)">и</text><text xml:space="preserve" font-family="AvenirNext-Regular" font-size="27.4" fill="#000000" transform="matrix(1.00, 0.00, -0.00, -1.00, 401.9, 46.0)">я</text><text xml:space="preserve" font-family="AvenirNext-Regular" font-size="27.4" fill="#000000" transform="matrix(1.00, 0.00, -0.00, -1.00, 416.7, 46.0)"> </text><text xml:space="preserve" font-family="AvenirNext-Regular" font-size="27.4" fill="#000000" transform="matrix(1.00, 0.00, -0.00, -1.00, 423.5, 46.0)">(</text><text xml:space="preserve" font-family="AvenirNext-Regular" font-size="27.4" fill="#000000" transform="matrix(1.00, 0.00, -0.00, -1.00, 431.7, 46.0)">E</text><text xml:space="preserve" font-family="AvenirNext-Regular" font-size="27.4" fill="#000000" transform="matrix(1.00, 0.00, -0.00, -1.00, 447.9, 46.0)">x</text><text xml:space="preserve" font-family="AvenirNext-Regular" font-size="27.4" fill="#000000" transform="matrix(1.00, 0.00, -0.00, -1.00, 461.0, 46.0)">c</text><text xml:space="preserve" font-family="AvenirNext-Regular" font-size="27.4" fill="#000000" transform="matrix(1.00, 0.00, -0.00, -1.00, 474.7, 46.0)">e</text><text xml:space="preserve" font-family="AvenirNext-Regular" font-size="27.4" fill="#000000" transform="matrix(1.00, 0.00, -0.00, -1.00, 490.3, 46.0)">p</text><text xml:space="preserve" font-family="AvenirNext-Regular" font-size="27.4" fill="#000000" transform="matrix(1.00, 0.00, -0.00, -1.00, 507.7, 46.0)">t</text><text xml:space="preserve" font-family="AvenirNext-Regular" font-size="27.4" fill="#000000" transform="matrix(1.00, 0.00, -0.00, -1.00, 516.4, 46.0)">i</text><text xml:space="preserve" font-family="AvenirNext-Regular" font-size="27.4" fill="#000000" transform="matrix(1.00, 0.00, -0.00, -1.00, 523.2, 46.0)">o</text><text xml:space="preserve" font-family="AvenirNext-Regular" font-size="27.4" fill="#000000" transform="matrix(1.00, 0.00, -0.00, -1.00, 539.9, 46.0)">n</text><text xml:space="preserve" font-family="AvenirNext-Regular" font-size="27.4" fill="#000000" transform="matrix(1.00, 0.00, -0.00, -1.00, 555.8, 46.0)">s</text><text xml:space="preserve" font-family="AvenirNext-Regular" font-size="27.4" fill="#000000" transform="matrix(1.00, 0.00, -0.00, -1.00, 568.0, 46.0)">)</text><text xml:space="preserve" font-family="AvenirNext-Regular" font-size="27.4" fill="#000000" transform="matrix(1.00, 0.00, -0.00, -1.00, 576.2, 46.0)"> </text><text xml:space="preserve" font-family="AvenirNext-Regular" font-size="27.4" fill="#000000" transform="matrix(1.00, 0.00, -0.00, -1.00, 583.0, 46.0)">з</text><text xml:space="preserve" font-family="AvenirNext-Regular" font-size="27.4" fill="#000000" transform="matrix(1.00, 0.00, -0.00, -1.00, 595.7, 46.0)">а</text><text xml:space="preserve" font-family="AvenirNext-Regular" font-size="27.4" fill="#000000" transform="matrix(1.00, 0.00, -0.00, -1.00, 610.3, 46.0)">щ</text><text xml:space="preserve" font-family="AvenirNext-Regular" font-size="27.4" fill="#000000" transform="matrix(1.00, 0.00, -0.00, -1.00, 632.4, 46.0)">о</text><text xml:space="preserve" font-family="AvenirNext-Regular" font-size="27.4" fill="#000000" transform="matrix(1.00, 0.00, -0.00, -1.00, 649.1, 46.0)">т</text><text xml:space="preserve" font-family="AvenirNext-Regular" font-size="27.4" fill="#000000" transform="matrix(1.00, 0.00, -0.00, -1.00, 660.9, 46.0)">о</text><text xml:space="preserve" font-family="AvenirNext-Regular" font-size="27.4" fill="#000000" transform="matrix(1.00, 0.00, -0.00, -1.00, 677.6, 46.0)"> </text><text xml:space="preserve" font-family="AvenirNext-Regular" font-size="27.4" fill="#000000" transform="matrix(1.00, 0.00, -0.00, -1.00, 27.0, 9.0)">о</text><text xml:space="preserve" font-family="AvenirNext-Regular" font-size="27.4" fill="#000000" transform="matrix(1.00, 0.00, -0.00, -1.00, 43.7, 9.0)">б</text><text xml:space="preserve" font-family="AvenirNext-Regular" font-size="27.4" fill="#000000" transform="matrix(1.00, 0.00, -0.00, -1.00, 60.1, 9.0)">и</text><text xml:space="preserve" font-family="AvenirNext-Regular" font-size="27.4" fill="#000000" transform="matrix(1.00, 0.00, -0.00, -1.00, 76.5, 9.0)">к</text><text xml:space="preserve" font-family="AvenirNext-Regular" font-size="27.4" fill="#000000" transform="matrix(1.00, 0.00, -0.00, -1.00, 91.4, 9.0)">н</text><text xml:space="preserve" font-family="AvenirNext-Regular" font-size="27.4" fill="#000000" transform="matrix(1.00, 0.00, -0.00, -1.00, 107.1, 9.0)">о</text><text xml:space="preserve" font-family="AvenirNext-Regular" font-size="27.4" fill="#000000" transform="matrix(1.00, 0.00, -0.00, -1.00, 123.8, 9.0)">в</text><text xml:space="preserve" font-family="AvenirNext-Regular" font-size="27.4" fill="#000000" transform="matrix(1.00, 0.00, -0.00, -1.00, 138.6, 9.0)">е</text><text xml:space="preserve" font-family="AvenirNext-Regular" font-size="27.4" fill="#000000" transform="matrix(1.00, 0.00, -0.00, -1.00, 154.3, 9.0)">н</text><text xml:space="preserve" font-family="AvenirNext-Regular" font-size="27.4" fill="#000000" transform="matrix(1.00, 0.00, -0.00, -1.00, 170.0, 9.0)">н</text><text xml:space="preserve" font-family="AvenirNext-Regular" font-size="27.4" fill="#000000" transform="matrix(1.00, 0.00, -0.00, -1.00, 185.7, 9.0)">о</text><text xml:space="preserve" font-family="AvenirNext-Regular" font-size="27.4" fill="#000000" transform="matrix(1.00, 0.00, -0.00, -1.00, 202.4, 9.0)"> </text><text xml:space="preserve" font-family="AvenirNext-Regular" font-size="27.4" fill="#000000" transform="matrix(1.00, 0.00, -0.00, -1.00, 209.3, 9.0)">н</text><text xml:space="preserve" font-family="AvenirNext-Regular" font-size="27.4" fill="#000000" transform="matrix(1.00, 0.00, -0.00, -1.00, 225.0, 9.0)">е</text><text xml:space="preserve" font-family="AvenirNext-Regular" font-size="27.4" fill="#000000" transform="matrix(1.00, 0.00, -0.00, -1.00, 240.7, 9.0)"> </text><text xml:space="preserve" font-family="AvenirNext-Regular" font-size="27.4" fill="#000000" transform="matrix(1.00, 0.00, -0.00, -1.00, 247.5, 9.0)">с</text><text xml:space="preserve" font-family="AvenirNext-Regular" font-size="27.4" fill="#000000" transform="matrix(1.00, 0.00, -0.00, -1.00, 261.2, 9.0)">а</text><text xml:space="preserve" font-family="AvenirNext-Regular" font-size="27.4" fill="#000000" transform="matrix(1.00, 0.00, -0.00, -1.00, 275.8, 9.0)"> </text><text xml:space="preserve" font-family="AvenirNext-Regular" font-size="27.4" fill="#000000" transform="matrix(1.00, 0.00, -0.00, -1.00, 282.6, 9.0)">ч</text><text xml:space="preserve" font-family="AvenirNext-Regular" font-size="27.4" fill="#000000" transform="matrix(1.00, 0.00, -0.00, -1.00, 296.7, 9.0)">а</text><text xml:space="preserve" font-family="AvenirNext-Regular" font-size="27.4" fill="#000000" transform="matrix(1.00, 0.00, -0.00, -1.00, 311.4, 9.0)">с</text><text xml:space="preserve" font-family="AvenirNext-Regular" font-size="27.4" fill="#000000" transform="matrix(1.00, 0.00, -0.00, -1.00, 325.0, 9.0)">т</text><text xml:space="preserve" font-family="AvenirNext-Regular" font-size="27.4" fill="#000000" transform="matrix(1.00, 0.00, -0.00, -1.00, 336.8, 9.0)"> </text><text xml:space="preserve" font-family="AvenirNext-Regular" font-size="27.4" fill="#000000" transform="matrix(1.00, 0.00, -0.00, -1.00, 343.7, 9.0)">о</text><text xml:space="preserve" font-family="AvenirNext-Regular" font-size="27.4" fill="#000000" transform="matrix(1.00, 0.00, -0.00, -1.00, 360.4, 9.0)">т</text><text xml:space="preserve" font-family="AvenirNext-Regular" font-size="27.4" fill="#000000" transform="matrix(1.00, 0.00, -0.00, -1.00, 372.2, 9.0)"> </text><text xml:space="preserve" font-family="AvenirNext-Regular" font-size="27.4" fill="#000000" transform="matrix(1.00, 0.00, -0.00, -1.00, 379.0, 9.0)">н</text><text xml:space="preserve" font-family="AvenirNext-Regular" font-size="27.4" fill="#000000" transform="matrix(1.00, 0.00, -0.00, -1.00, 394.7, 9.0)">о</text><text xml:space="preserve" font-family="AvenirNext-Regular" font-size="27.4" fill="#000000" transform="matrix(1.00, 0.00, -0.00, -1.00, 411.5, 9.0)">р</text><text xml:space="preserve" font-family="AvenirNext-Regular" font-size="27.4" fill="#000000" transform="matrix(1.00, 0.00, -0.00, -1.00, 428.8, 9.0)">м</text><text xml:space="preserve" font-family="AvenirNext-Regular" font-size="27.4" fill="#000000" transform="matrix(1.00, 0.00, -0.00, -1.00, 447.9, 9.0)">а</text><text xml:space="preserve" font-family="AvenirNext-Regular" font-size="27.4" fill="#000000" transform="matrix(1.00, 0.00, -0.00, -1.00, 462.5, 9.0)">л</text><text xml:space="preserve" font-family="AvenirNext-Regular" font-size="27.4" fill="#000000" transform="matrix(1.00, 0.00, -0.00, -1.00, 476.1, 9.0)">н</text><text xml:space="preserve" font-family="AvenirNext-Regular" font-size="27.4" fill="#000000" transform="matrix(1.00, 0.00, -0.00, -1.00, 491.8, 9.0)">о</text><text xml:space="preserve" font-family="AvenirNext-Regular" font-size="27.4" fill="#000000" transform="matrix(1.00, 0.00, -0.00, -1.00, 508.5, 9.0)">т</text><text xml:space="preserve" font-family="AvenirNext-Regular" font-size="27.4" fill="#000000" transform="matrix(1.00, 0.00, -0.00, -1.00, 520.3, 9.0)">о</text><text xml:space="preserve" font-family="AvenirNext-Regular" font-size="27.4" fill="#000000" transform="matrix(1.00, 0.00, -0.00, -1.00, 537.0, 9.0)"> </text><text xml:space="preserve" font-family="AvenirNext-Regular" font-size="27.4" fill="#000000" transform="matrix(1.00, 0.00, -0.00, -1.00, 543.9, 9.0)">и</text><text xml:space="preserve" font-family="AvenirNext-Regular" font-size="27.4" fill="#000000" transform="matrix(1.00, 0.00, -0.00, -1.00, 560.2, 9.0)">з</text><text xml:space="preserve" font-family="AvenirNext-Regular" font-size="27.4" fill="#000000" transform="matrix(1.00, 0.00, -0.00, -1.00, 572.9, 9.0)">п</text><text xml:space="preserve" font-family="AvenirNext-Regular" font-size="27.4" fill="#000000" transform="matrix(1.00, 0.00, -0.00, -1.00, 588.4, 9.0)">ъ</text><text xml:space="preserve" font-family="AvenirNext-Regular" font-size="27.4" fill="#000000" transform="matrix(1.00, 0.00, -0.00, -1.00, 603.5, 9.0)">л</text><text xml:space="preserve" font-family="AvenirNext-Regular" font-size="27.4" fill="#000000" transform="matrix(1.00, 0.00, -0.00, -1.00, 617.1, 9.0)">н</text><text xml:space="preserve" font-family="AvenirNext-Regular" font-size="27.4" fill="#000000" transform="matrix(1.00, 0.00, -0.00, -1.00, 632.9, 9.0)">е</text><text xml:space="preserve" font-family="AvenirNext-Regular" font-size="27.4" fill="#000000" transform="matrix(1.00, 0.00, -0.00, -1.00, 648.5, 9.0)">н</text><text xml:space="preserve" font-family="AvenirNext-Regular" font-size="27.4" fill="#000000" transform="matrix(1.00, 0.00, -0.00, -1.00, 664.2, 9.0)">и</text><text xml:space="preserve" font-family="AvenirNext-Regular" font-size="27.4" fill="#000000" transform="matrix(1.00, 0.00, -0.00, -1.00, 680.6, 9.0)">е</text><text xml:space="preserve" font-family="AvenirNext-Regular" font-size="27.4" fill="#000000" transform="matrix(1.00, 0.00, -0.00, -1.00, 696.3, 9.0)"> </text><text xml:space="preserve" font-family="AvenirNext-Regular" font-size="27.4" fill="#000000" transform="matrix(1.00, 0.00, -0.00, -1.00, 703.1, 9.0)">н</text><text xml:space="preserve" font-family="AvenirNext-Regular" font-size="27.4" fill="#000000" transform="matrix(1.00, 0.00, -0.00, -1.00, 718.9, 9.0)">а</text><text xml:space="preserve" font-family="AvenirNext-Regular" font-size="27.4" fill="#000000" transform="matrix(1.00, 0.00, -0.00, -1.00, 733.5, 9.0)"> </text><text xml:space="preserve" font-family="AvenirNext-Regular" font-size="27.4" fill="#000000" transform="matrix(1.00, 0.00, -0.00, -1.00, 740.3, 9.0)">с</text><text xml:space="preserve" font-family="AvenirNext-Regular" font-size="27.4" fill="#000000" transform="matrix(1.00, 0.00, -0.00, -1.00, 754.0, 9.0)">к</text><text xml:space="preserve" font-family="AvenirNext-Regular" font-size="27.4" fill="#000000" transform="matrix(1.00, 0.00, -0.00, -1.00, 768.8, 9.0)">р</text><text xml:space="preserve" font-family="AvenirNext-Regular" font-size="27.4" fill="#000000" transform="matrix(1.00, 0.00, -0.00, -1.00, 786.2, 9.0)">и</text><text xml:space="preserve" font-family="AvenirNext-Regular" font-size="27.4" fill="#000000" transform="matrix(1.00, 0.00, -0.00, -1.00, 802.6, 9.0)">п</text><text xml:space="preserve" font-family="AvenirNext-Regular" font-size="27.4" fill="#000000" transform="matrix(1.00, 0.00, -0.00, -1.00, 818.1, 9.0)">т</text><text xml:space="preserve" font-family="AvenirNext-Regular" font-size="27.4" fill="#000000" transform="matrix(1.00, 0.00, -0.00, -1.00, 829.9, 9.0)">а</text></g></svg>