<?xml version="1.0" encoding="UTF-8" standalone="no"?><svg xmlns="http://www.w3.org/2000/svg" xmlns:xlink="http://www.w3.org/1999/xlink" clip-rule="evenodd" stroke-miterlimit="4.00" viewBox="0 0 499 61"><desc>SVG generated by Keynote</desc><defs></defs><g transform="matrix(1.00, 0.00, -0.00, -1.00, 0.0, 61.0)"><text xml:space="preserve" font-family="Helvetica-Light" font-size="60.0" fill="#000000" transform="matrix(1.00, 0.00, -0.00, -1.00, 1.0, 14.0)">J</text><text xml:space="preserve" font-family="Helvetica-Light" font-size="60.0" fill="#000000" transform="matrix(1.00, 0.00, -0.00, -1.00, 31.0, 14.0)">a</text><text xml:space="preserve" font-family="Helvetica-Light" font-size="60.0" fill="#000000" transform="matrix(1.00, 0.00, -0.00, -1.00, 64.4, 14.0)">v</text><text xml:space="preserve" font-family="Helvetica-Light" font-size="60.0" fill="#000000" transform="matrix(1.00, 0.00, -0.00, -1.00, 94.4, 14.0)">a</text><text xml:space="preserve" font-family="Helvetica-Light" font-size="60.0" fill="#000000" transform="matrix(1.00, 0.00, -0.00, -1.00, 127.7, 14.0)">S</text><text xml:space="preserve" font-family="Helvetica-Light" font-size="60.0" fill="#000000" transform="matrix(1.00, 0.00, -0.00, -1.00, 164.4, 14.0)">c</text><text xml:space="preserve" font-family="Helvetica-Light" font-size="60.0" fill="#000000" transform="matrix(1.00, 0.00, -0.00, -1.00, 197.7, 14.0)">r</text><text xml:space="preserve" font-family="Helvetica-Light" font-size="60.0" fill="#000000" transform="matrix(1.00, 0.00, -0.00, -1.00, 217.7, 14.0)">i</text><text xml:space="preserve" font-family="Helvetica-Light" font-size="60.0" fill="#000000" transform="matrix(1.00, 0.00, -0.00, -1.00, 231.0, 14.0)">p</text><text xml:space="preserve" font-family="Helvetica-Light" font-size="60.0" fill="#000000" transform="matrix(1.00, 0.00, -0.00, -1.00, 267.7, 14.0)">t</text><text xml:space="preserve" font-family="Helvetica-Light" font-size="60.0" fill="#000000" transform="matrix(1.00, 0.00, -0.00, -1.00, 284.4, 14.0)"> </text><text xml:space="preserve" font-family="Helvetica-Light" font-size="60.0" fill="#000000" transform="matrix(1.00, 0.00, -0.00, -1.00, 301.1, 14.0)">г</text><text xml:space="preserve" font-family="Helvetica-Light" font-size="60.0" fill="#000000" transform="matrix(1.00, 0.00, -0.00, -1.00, 325.1, 14.0)">р</text><text xml:space="preserve" font-family="Helvetica-Light" font-size="60.0" fill="#000000" transform="matrix(1.00, 0.00, -0.00, -1.00, 359.5, 14.0)">е</text><text xml:space="preserve" font-family="Helvetica-Light" font-size="60.0" fill="#000000" transform="matrix(1.00, 0.00, -0.00, -1.00, 390.6, 14.0)">ш</text><text xml:space="preserve" font-family="Helvetica-Light" font-size="60.0" fill="#000000" transform="matrix(1.00, 0.00, -0.00, -1.00, 437.6, 14.0)">к</text><text xml:space="preserve" font-family="Helvetica-Light" font-size="60.0" fill="#000000" transform="matrix(1.00, 0.00, -0.00, -1.00, 467.5, 14.0)">и</text></g></svg>