<?xml version="1.0" encoding="UTF-8" standalone="no"?><svg xmlns="http://www.w3.org/2000/svg" xmlns:xlink="http://www.w3.org/1999/xlink" clip-rule="evenodd" stroke-miterlimit="4.00" viewBox="0 0 644 55"><desc>SVG generated by Keynote</desc><defs></defs><g transform="matrix(1.00, 0.00, -0.00, -1.00, 0.0, 55.0)"><text xml:space="preserve" font-family="AvenirNext-Regular" font-size="54.0" fill="#000000" transform="matrix(1.00, 0.00, -0.00, -1.00, -3.0, 15.0)">К</text><text xml:space="preserve" font-family="AvenirNext-Regular" font-size="54.0" fill="#000000" transform="matrix(1.00, 0.00, -0.00, -1.00, 34.3, 15.0)">а</text><text xml:space="preserve" font-family="AvenirNext-Regular" font-size="54.0" fill="#000000" transform="matrix(1.00, 0.00, -0.00, -1.00, 63.2, 15.0)">к</text><text xml:space="preserve" font-family="AvenirNext-Regular" font-size="54.0" fill="#000000" transform="matrix(1.00, 0.00, -0.00, -1.00, 92.5, 15.0)">в</text><text xml:space="preserve" font-family="AvenirNext-Regular" font-size="54.0" fill="#000000" transform="matrix(1.00, 0.00, -0.00, -1.00, 121.7, 15.0)">о</text><text xml:space="preserve" font-family="AvenirNext-Regular" font-size="54.0" fill="#000000" transform="matrix(1.00, 0.00, -0.00, -1.00, 154.7, 15.0)"> </text><text xml:space="preserve" font-family="AvenirNext-Regular" font-size="54.0" fill="#000000" transform="matrix(1.00, 0.00, -0.00, -1.00, 168.2, 15.0)">е</text><text xml:space="preserve" font-family="AvenirNext-Regular" font-size="54.0" fill="#000000" transform="matrix(1.00, 0.00, -0.00, -1.00, 199.1, 15.0)"> </text><text xml:space="preserve" font-family="AvenirNext-Regular" font-size="54.0" fill="#000000" transform="matrix(1.00, 0.00, -0.00, -1.00, 212.6, 15.0)">п</text><text xml:space="preserve" font-family="AvenirNext-Regular" font-size="54.0" fill="#000000" transform="matrix(1.00, 0.00, -0.00, -1.00, 243.2, 15.0)">р</text><text xml:space="preserve" font-family="AvenirNext-Regular" font-size="54.0" fill="#000000" transform="matrix(1.00, 0.00, -0.00, -1.00, 277.5, 15.0)">о</text><text xml:space="preserve" font-family="AvenirNext-Regular" font-size="54.0" fill="#000000" transform="matrix(1.00, 0.00, -0.00, -1.00, 310.5, 15.0)">г</text><text xml:space="preserve" font-family="AvenirNext-Regular" font-size="54.0" fill="#000000" transform="matrix(1.00, 0.00, -0.00, -1.00, 331.4, 15.0)">р</text><text xml:space="preserve" font-family="AvenirNext-Regular" font-size="54.0" fill="#000000" transform="matrix(1.00, 0.00, -0.00, -1.00, 365.7, 15.0)">а</text><text xml:space="preserve" font-family="AvenirNext-Regular" font-size="54.0" fill="#000000" transform="matrix(1.00, 0.00, -0.00, -1.00, 394.5, 15.0)">м</text><text xml:space="preserve" font-family="AvenirNext-Regular" font-size="54.0" fill="#000000" transform="matrix(1.00, 0.00, -0.00, -1.00, 432.1, 15.0)">и</text><text xml:space="preserve" font-family="AvenirNext-Regular" font-size="54.0" fill="#000000" transform="matrix(1.00, 0.00, -0.00, -1.00, 464.4, 15.0)">р</text><text xml:space="preserve" font-family="AvenirNext-Regular" font-size="54.0" fill="#000000" transform="matrix(1.00, 0.00, -0.00, -1.00, 498.7, 15.0)">а</text><text xml:space="preserve" font-family="AvenirNext-Regular" font-size="54.0" fill="#000000" transform="matrix(1.00, 0.00, -0.00, -1.00, 527.6, 15.0)">н</text><text xml:space="preserve" font-family="AvenirNext-Regular" font-size="54.0" fill="#000000" transform="matrix(1.00, 0.00, -0.00, -1.00, 558.6, 15.0)">е</text><text xml:space="preserve" font-family="AvenirNext-Regular" font-size="54.0" fill="#000000" transform="matrix(1.00, 0.00, -0.00, -1.00, 589.5, 15.0)">т</text><text xml:space="preserve" font-family="AvenirNext-Regular" font-size="54.0" fill="#000000" transform="matrix(1.00, 0.00, -0.00, -1.00, 612.8, 15.0)">о</text></g></svg>