<?xml version="1.0" encoding="UTF-8" standalone="no"?><svg xmlns="http://www.w3.org/2000/svg" xmlns:xlink="http://www.w3.org/1999/xlink" clip-rule="evenodd" stroke-miterlimit="4.00" viewBox="0 0 818 121"><desc>SVG generated by Keynote</desc><defs></defs><g transform="matrix(1.00, 0.00, -0.00, -1.00, 0.0, 121.0)"><text xml:space="preserve" font-family="AvenirNext-Regular" font-size="30.0" fill="#000000" transform="matrix(1.00, 0.00, -0.00, -1.00, 0.0, 90.9)">•</text><text xml:space="preserve" font-family="AvenirNext-Regular" font-size="30.0" fill="#000000" transform="matrix(1.00, 0.00, -0.00, -1.00, 46.0, 91.0)">Е</text><text xml:space="preserve" font-family="AvenirNext-Regular" font-size="30.0" fill="#000000" transform="matrix(1.00, 0.00, -0.00, -1.00, 63.8, 91.0)">з</text><text xml:space="preserve" font-family="AvenirNext-Regular" font-size="30.0" fill="#000000" transform="matrix(1.00, 0.00, -0.00, -1.00, 77.7, 91.0)">и</text><text xml:space="preserve" font-family="AvenirNext-Regular" font-size="30.0" fill="#000000" transform="matrix(1.00, 0.00, -0.00, -1.00, 95.6, 91.0)">ц</text><text xml:space="preserve" font-family="AvenirNext-Regular" font-size="30.0" fill="#000000" transform="matrix(1.00, 0.00, -0.00, -1.00, 112.8, 91.0)">и</text><text xml:space="preserve" font-family="AvenirNext-Regular" font-size="30.0" fill="#000000" transform="matrix(1.00, 0.00, -0.00, -1.00, 130.7, 91.0)">т</text><text xml:space="preserve" font-family="AvenirNext-Regular" font-size="30.0" fill="#000000" transform="matrix(1.00, 0.00, -0.00, -1.00, 143.7, 91.0)">е</text><text xml:space="preserve" font-family="AvenirNext-Regular" font-size="30.0" fill="#000000" transform="matrix(1.00, 0.00, -0.00, -1.00, 160.8, 91.0)"> </text><text xml:space="preserve" font-family="AvenirNext-Regular" font-size="30.0" fill="#000000" transform="matrix(1.00, 0.00, -0.00, -1.00, 168.3, 91.0)">з</text><text xml:space="preserve" font-family="AvenirNext-Regular" font-size="30.0" fill="#000000" transform="matrix(1.00, 0.00, -0.00, -1.00, 182.2, 91.0)">а</text><text xml:space="preserve" font-family="AvenirNext-Regular" font-size="30.0" fill="#000000" transform="matrix(1.00, 0.00, -0.00, -1.00, 198.2, 91.0)"> </text><text xml:space="preserve" font-family="AvenirNext-Regular" font-size="30.0" fill="#000000" transform="matrix(1.00, 0.00, -0.00, -1.00, 205.7, 91.0)">п</text><text xml:space="preserve" font-family="AvenirNext-Regular" font-size="30.0" fill="#000000" transform="matrix(1.00, 0.00, -0.00, -1.00, 222.7, 91.0)">р</text><text xml:space="preserve" font-family="AvenirNext-Regular" font-size="30.0" fill="#000000" transform="matrix(1.00, 0.00, -0.00, -1.00, 241.8, 91.0)">о</text><text xml:space="preserve" font-family="AvenirNext-Regular" font-size="30.0" fill="#000000" transform="matrix(1.00, 0.00, -0.00, -1.00, 260.1, 91.0)">г</text><text xml:space="preserve" font-family="AvenirNext-Regular" font-size="30.0" fill="#000000" transform="matrix(1.00, 0.00, -0.00, -1.00, 271.8, 91.0)">р</text><text xml:space="preserve" font-family="AvenirNext-Regular" font-size="30.0" fill="#000000" transform="matrix(1.00, 0.00, -0.00, -1.00, 290.8, 91.0)">а</text><text xml:space="preserve" font-family="AvenirNext-Regular" font-size="30.0" fill="#000000" transform="matrix(1.00, 0.00, -0.00, -1.00, 306.8, 91.0)">м</text><text xml:space="preserve" font-family="AvenirNext-Regular" font-size="30.0" fill="#000000" transform="matrix(1.00, 0.00, -0.00, -1.00, 327.7, 91.0)">и</text><text xml:space="preserve" font-family="AvenirNext-Regular" font-size="30.0" fill="#000000" transform="matrix(1.00, 0.00, -0.00, -1.00, 345.6, 91.0)">р</text><text xml:space="preserve" font-family="AvenirNext-Regular" font-size="30.0" fill="#000000" transform="matrix(1.00, 0.00, -0.00, -1.00, 364.7, 91.0)">а</text><text xml:space="preserve" font-family="AvenirNext-Regular" font-size="30.0" fill="#000000" transform="matrix(1.00, 0.00, -0.00, -1.00, 380.7, 91.0)">н</text><text xml:space="preserve" font-family="AvenirNext-Regular" font-size="30.0" fill="#000000" transform="matrix(1.00, 0.00, -0.00, -1.00, 398.0, 91.0)">е</text><text xml:space="preserve" font-family="AvenirNext-Regular" font-size="30.0" fill="#000000" transform="matrix(1.00, 0.00, -0.00, -1.00, 415.1, 91.0)"> </text><text xml:space="preserve" font-family="AvenirNext-Regular" font-size="30.0" fill="#000000" transform="matrix(1.00, 0.00, -0.00, -1.00, 422.6, 91.0)">п</text><text xml:space="preserve" font-family="AvenirNext-Regular" font-size="30.0" fill="#000000" transform="matrix(1.00, 0.00, -0.00, -1.00, 439.6, 91.0)">р</text><text xml:space="preserve" font-family="AvenirNext-Regular" font-size="30.0" fill="#000000" transform="matrix(1.00, 0.00, -0.00, -1.00, 458.7, 91.0)">и</text><text xml:space="preserve" font-family="AvenirNext-Regular" font-size="30.0" fill="#000000" transform="matrix(1.00, 0.00, -0.00, -1.00, 476.6, 91.0)">л</text><text xml:space="preserve" font-family="AvenirNext-Regular" font-size="30.0" fill="#000000" transform="matrix(1.00, 0.00, -0.00, -1.00, 491.6, 91.0)">и</text><text xml:space="preserve" font-family="AvenirNext-Regular" font-size="30.0" fill="#000000" transform="matrix(1.00, 0.00, -0.00, -1.00, 509.5, 91.0)">ч</text><text xml:space="preserve" font-family="AvenirNext-Regular" font-size="30.0" fill="#000000" transform="matrix(1.00, 0.00, -0.00, -1.00, 525.0, 91.0)">а</text><text xml:space="preserve" font-family="AvenirNext-Regular" font-size="30.0" fill="#000000" transform="matrix(1.00, 0.00, -0.00, -1.00, 541.0, 91.0)">т</text><text xml:space="preserve" font-family="AvenirNext-Regular" font-size="30.0" fill="#000000" transform="matrix(1.00, 0.00, -0.00, -1.00, 554.0, 91.0)"> </text><text xml:space="preserve" font-family="AvenirNext-Regular" font-size="30.0" fill="#000000" transform="matrix(1.00, 0.00, -0.00, -1.00, 561.5, 91.0)">н</text><text xml:space="preserve" font-family="AvenirNext-Regular" font-size="30.0" fill="#000000" transform="matrix(1.00, 0.00, -0.00, -1.00, 578.7, 91.0)">а</text><text xml:space="preserve" font-family="AvenirNext-Regular" font-size="30.0" fill="#000000" transform="matrix(1.00, 0.00, -0.00, -1.00, 594.7, 91.0)"> </text><text xml:space="preserve" font-family="AvenirNext-Regular" font-size="30.0" fill="#000000" transform="matrix(1.00, 0.00, -0.00, -1.00, 602.2, 91.0)">ч</text><text xml:space="preserve" font-family="AvenirNext-Regular" font-size="30.0" fill="#000000" transform="matrix(1.00, 0.00, -0.00, -1.00, 617.7, 91.0)">о</text><text xml:space="preserve" font-family="AvenirNext-Regular" font-size="30.0" fill="#000000" transform="matrix(1.00, 0.00, -0.00, -1.00, 636.0, 91.0)">в</text><text xml:space="preserve" font-family="AvenirNext-Regular" font-size="30.0" fill="#000000" transform="matrix(1.00, 0.00, -0.00, -1.00, 652.3, 91.0)">е</text><text xml:space="preserve" font-family="AvenirNext-Regular" font-size="30.0" fill="#000000" transform="matrix(1.00, 0.00, -0.00, -1.00, 669.4, 91.0)">ш</text><text xml:space="preserve" font-family="AvenirNext-Regular" font-size="30.0" fill="#000000" transform="matrix(1.00, 0.00, -0.00, -1.00, 693.3, 91.0)">к</text><text xml:space="preserve" font-family="AvenirNext-Regular" font-size="30.0" fill="#000000" transform="matrix(1.00, 0.00, -0.00, -1.00, 709.6, 91.0)">и</text><text xml:space="preserve" font-family="AvenirNext-Regular" font-size="30.0" fill="#000000" transform="matrix(1.00, 0.00, -0.00, -1.00, 727.6, 91.0)">я</text><text xml:space="preserve" font-family="AvenirNext-Regular" font-size="30.0" fill="#000000" transform="matrix(1.00, 0.00, -0.00, -1.00, 743.8, 91.0)"> </text><text xml:space="preserve" font-family="AvenirNext-Regular" font-size="30.0" fill="#000000" transform="matrix(1.00, 0.00, -0.00, -1.00, 751.3, 91.0)">е</text><text xml:space="preserve" font-family="AvenirNext-Regular" font-size="30.0" fill="#000000" transform="matrix(1.00, 0.00, -0.00, -1.00, 768.4, 91.0)">з</text><text xml:space="preserve" font-family="AvenirNext-Regular" font-size="30.0" fill="#000000" transform="matrix(1.00, 0.00, -0.00, -1.00, 782.3, 91.0)">и</text><text xml:space="preserve" font-family="AvenirNext-Regular" font-size="30.0" fill="#000000" transform="matrix(1.00, 0.00, -0.00, -1.00, 800.3, 91.0)">к</text><text xml:space="preserve" font-family="AvenirNext-Regular" font-size="30.0" fill="#000000" transform="matrix(1.00, 0.00, -0.00, -1.00, 816.6, 91.0)"> </text><text xml:space="preserve" font-family="AvenirNext-Regular" font-size="30.0" fill="#000000" transform="matrix(1.00, 0.00, -0.00, -1.00, 46.0, 50.0)">-</text><text xml:space="preserve" font-family="AvenirNext-Regular" font-size="30.0" fill="#000000" transform="matrix(1.00, 0.00, -0.00, -1.00, 55.6, 50.0)"> </text><text xml:space="preserve" font-family="AvenirNext-Regular" font-size="30.0" fill="#000000" transform="matrix(1.00, 0.00, -0.00, -1.00, 63.1, 50.0)">и</text><text xml:space="preserve" font-family="AvenirNext-Regular" font-size="30.0" fill="#000000" transform="matrix(1.00, 0.00, -0.00, -1.00, 81.1, 50.0)">м</text><text xml:space="preserve" font-family="AvenirNext-Regular" font-size="30.0" fill="#000000" transform="matrix(1.00, 0.00, -0.00, -1.00, 101.9, 50.0)">а</text><text xml:space="preserve" font-family="AvenirNext-Regular" font-size="30.0" fill="#000000" transform="matrix(1.00, 0.00, -0.00, -1.00, 117.9, 50.0)">т</text><text xml:space="preserve" font-family="AvenirNext-Regular" font-size="30.0" fill="#000000" transform="matrix(1.00, 0.00, -0.00, -1.00, 130.9, 50.0)"> </text><text xml:space="preserve" font-family="AvenirNext-Regular" font-size="30.0" fill="#000000" transform="matrix(1.00, 0.00, -0.00, -1.00, 138.4, 50.0)">д</text><text xml:space="preserve" font-family="AvenirNext-Regular" font-size="30.0" fill="#000000" transform="matrix(1.00, 0.00, -0.00, -1.00, 154.7, 50.0)">у</text><text xml:space="preserve" font-family="AvenirNext-Regular" font-size="30.0" fill="#000000" transform="matrix(1.00, 0.00, -0.00, -1.00, 169.3, 50.0)">м</text><text xml:space="preserve" font-family="AvenirNext-Regular" font-size="30.0" fill="#000000" transform="matrix(1.00, 0.00, -0.00, -1.00, 190.2, 50.0)">и</text><text xml:space="preserve" font-family="AvenirNext-Regular" font-size="30.0" fill="#000000" transform="matrix(1.00, 0.00, -0.00, -1.00, 208.2, 50.0)">,</text><text xml:space="preserve" font-family="AvenirNext-Regular" font-size="30.0" fill="#000000" transform="matrix(1.00, 0.00, -0.00, -1.00, 215.1, 50.0)"> </text><text xml:space="preserve" font-family="AvenirNext-Regular" font-size="30.0" fill="#000000" transform="matrix(1.00, 0.00, -0.00, -1.00, 222.6, 50.0)">и</text><text xml:space="preserve" font-family="AvenirNext-Regular" font-size="30.0" fill="#000000" transform="matrix(1.00, 0.00, -0.00, -1.00, 240.5, 50.0)">з</text><text xml:space="preserve" font-family="AvenirNext-Regular" font-size="30.0" fill="#000000" transform="matrix(1.00, 0.00, -0.00, -1.00, 254.4, 50.0)">р</text><text xml:space="preserve" font-family="AvenirNext-Regular" font-size="30.0" fill="#000000" transform="matrix(1.00, 0.00, -0.00, -1.00, 273.5, 50.0)">а</text><text xml:space="preserve" font-family="AvenirNext-Regular" font-size="30.0" fill="#000000" transform="matrix(1.00, 0.00, -0.00, -1.00, 289.5, 50.0)">з</text><text xml:space="preserve" font-family="AvenirNext-Regular" font-size="30.0" fill="#000000" transform="matrix(1.00, 0.00, -0.00, -1.00, 303.4, 50.0)">и</text><text xml:space="preserve" font-family="AvenirNext-Regular" font-size="30.0" fill="#000000" transform="matrix(1.00, 0.00, -0.00, -1.00, 321.3, 50.0)">,</text><text xml:space="preserve" font-family="AvenirNext-Regular" font-size="30.0" fill="#000000" transform="matrix(1.00, 0.00, -0.00, -1.00, 328.2, 50.0)"> </text><text xml:space="preserve" font-family="AvenirNext-Regular" font-size="30.0" fill="#000000" transform="matrix(1.00, 0.00, -0.00, -1.00, 335.7, 50.0)">с</text><text xml:space="preserve" font-family="AvenirNext-Regular" font-size="30.0" fill="#000000" transform="matrix(1.00, 0.00, -0.00, -1.00, 350.7, 50.0)">и</text><text xml:space="preserve" font-family="AvenirNext-Regular" font-size="30.0" fill="#000000" transform="matrix(1.00, 0.00, -0.00, -1.00, 368.7, 50.0)">н</text><text xml:space="preserve" font-family="AvenirNext-Regular" font-size="30.0" fill="#000000" transform="matrix(1.00, 0.00, -0.00, -1.00, 386.0, 50.0)">т</text><text xml:space="preserve" font-family="AvenirNext-Regular" font-size="30.0" fill="#000000" transform="matrix(1.00, 0.00, -0.00, -1.00, 398.9, 50.0)">а</text><text xml:space="preserve" font-family="AvenirNext-Regular" font-size="30.0" fill="#000000" transform="matrix(1.00, 0.00, -0.00, -1.00, 414.9, 50.0)">к</text><text xml:space="preserve" font-family="AvenirNext-Regular" font-size="30.0" fill="#000000" transform="matrix(1.00, 0.00, -0.00, -1.00, 431.2, 50.0)">с</text><text xml:space="preserve" font-family="AvenirNext-Regular" font-size="30.0" fill="#000000" transform="matrix(1.00, 0.00, -0.00, -1.00, 446.2, 50.0)">и</text><text xml:space="preserve" font-family="AvenirNext-Regular" font-size="30.0" fill="#000000" transform="matrix(1.00, 0.00, -0.00, -1.00, 464.2, 50.0)">с</text><text xml:space="preserve" font-family="AvenirNext-Regular" font-size="30.0" fill="#000000" transform="matrix(1.00, 0.00, -0.00, -1.00, 479.2, 50.0)"> </text><text xml:space="preserve" font-family="AvenirNext-Regular" font-size="30.0" fill="#000000" transform="matrix(1.00, 0.00, -0.00, -1.00, 486.7, 50.0)">и</text><text xml:space="preserve" font-family="AvenirNext-Regular" font-size="30.0" fill="#000000" transform="matrix(1.00, 0.00, -0.00, -1.00, 504.6, 50.0)"> </text><text xml:space="preserve" font-family="AvenirNext-Regular" font-size="30.0" fill="#000000" transform="matrix(1.00, 0.00, -0.00, -1.00, 512.1, 50.0)">с</text><text xml:space="preserve" font-family="AvenirNext-Regular" font-size="30.0" fill="#000000" transform="matrix(1.00, 0.00, -0.00, -1.00, 527.1, 50.0)">е</text><text xml:space="preserve" font-family="AvenirNext-Regular" font-size="30.0" fill="#000000" transform="matrix(1.00, 0.00, -0.00, -1.00, 544.3, 50.0)">м</text><text xml:space="preserve" font-family="AvenirNext-Regular" font-size="30.0" fill="#000000" transform="matrix(1.00, 0.00, -0.00, -1.00, 565.2, 50.0)">а</text><text xml:space="preserve" font-family="AvenirNext-Regular" font-size="30.0" fill="#000000" transform="matrix(1.00, 0.00, -0.00, -1.00, 581.2, 50.0)">н</text><text xml:space="preserve" font-family="AvenirNext-Regular" font-size="30.0" fill="#000000" transform="matrix(1.00, 0.00, -0.00, -1.00, 598.4, 50.0)">т</text><text xml:space="preserve" font-family="AvenirNext-Regular" font-size="30.0" fill="#000000" transform="matrix(1.00, 0.00, -0.00, -1.00, 611.4, 50.0)">и</text><text xml:space="preserve" font-family="AvenirNext-Regular" font-size="30.0" fill="#000000" transform="matrix(1.00, 0.00, -0.00, -1.00, 629.3, 50.0)">к</text><text xml:space="preserve" font-family="AvenirNext-Regular" font-size="30.0" fill="#000000" transform="matrix(1.00, 0.00, -0.00, -1.00, 645.6, 50.0)">а</text><text xml:space="preserve" font-family="AvenirNext-Regular" font-size="30.0" fill="#000000" transform="matrix(1.00, 0.00, -0.00, -1.00, 661.6, 50.0)"> </text><text xml:space="preserve" font-family="AvenirNext-Regular" font-size="30.0" fill="#000000" transform="matrix(1.00, 0.00, -0.00, -1.00, 669.1, 50.0)">(</text><text xml:space="preserve" font-family="AvenirNext-Regular" font-size="30.0" fill="#000000" transform="matrix(1.00, 0.00, -0.00, -1.00, 678.1, 50.0)">н</text><text xml:space="preserve" font-family="AvenirNext-Regular" font-size="30.0" fill="#000000" transform="matrix(1.00, 0.00, -0.00, -1.00, 695.4, 50.0)">а</text><text xml:space="preserve" font-family="AvenirNext-Regular" font-size="30.0" fill="#000000" transform="matrix(1.00, 0.00, -0.00, -1.00, 711.4, 50.0)">ч</text><text xml:space="preserve" font-family="AvenirNext-Regular" font-size="30.0" fill="#000000" transform="matrix(1.00, 0.00, -0.00, -1.00, 726.9, 50.0)">и</text><text xml:space="preserve" font-family="AvenirNext-Regular" font-size="30.0" fill="#000000" transform="matrix(1.00, 0.00, -0.00, -1.00, 744.9, 50.0)">н</text><text xml:space="preserve" font-family="AvenirNext-Regular" font-size="30.0" fill="#000000" transform="matrix(1.00, 0.00, -0.00, -1.00, 762.1, 50.0)"> </text><text xml:space="preserve" font-family="AvenirNext-Regular" font-size="30.0" fill="#000000" transform="matrix(1.00, 0.00, -0.00, -1.00, 769.6, 50.0)">н</text><text xml:space="preserve" font-family="AvenirNext-Regular" font-size="30.0" fill="#000000" transform="matrix(1.00, 0.00, -0.00, -1.00, 786.9, 50.0)">а</text><text xml:space="preserve" font-family="AvenirNext-Regular" font-size="30.0" fill="#000000" transform="matrix(1.00, 0.00, -0.00, -1.00, 802.9, 50.0)"> </text><text xml:space="preserve" font-family="AvenirNext-Regular" font-size="30.0" fill="#000000" transform="matrix(1.00, 0.00, -0.00, -1.00, 46.0, 9.0)">п</text><text xml:space="preserve" font-family="AvenirNext-Regular" font-size="30.0" fill="#000000" transform="matrix(1.00, 0.00, -0.00, -1.00, 63.0, 9.0)">о</text><text xml:space="preserve" font-family="AvenirNext-Regular" font-size="30.0" fill="#000000" transform="matrix(1.00, 0.00, -0.00, -1.00, 81.3, 9.0)">д</text><text xml:space="preserve" font-family="AvenirNext-Regular" font-size="30.0" fill="#000000" transform="matrix(1.00, 0.00, -0.00, -1.00, 97.7, 9.0)">р</text><text xml:space="preserve" font-family="AvenirNext-Regular" font-size="30.0" fill="#000000" transform="matrix(1.00, 0.00, -0.00, -1.00, 116.7, 9.0)">е</text><text xml:space="preserve" font-family="AvenirNext-Regular" font-size="30.0" fill="#000000" transform="matrix(1.00, 0.00, -0.00, -1.00, 133.9, 9.0)">ж</text><text xml:space="preserve" font-family="AvenirNext-Regular" font-size="30.0" fill="#000000" transform="matrix(1.00, 0.00, -0.00, -1.00, 158.3, 9.0)">д</text><text xml:space="preserve" font-family="AvenirNext-Regular" font-size="30.0" fill="#000000" transform="matrix(1.00, 0.00, -0.00, -1.00, 174.7, 9.0)">а</text><text xml:space="preserve" font-family="AvenirNext-Regular" font-size="30.0" fill="#000000" transform="matrix(1.00, 0.00, -0.00, -1.00, 190.7, 9.0)">н</text><text xml:space="preserve" font-family="AvenirNext-Regular" font-size="30.0" fill="#000000" transform="matrix(1.00, 0.00, -0.00, -1.00, 207.9, 9.0)">е</text><text xml:space="preserve" font-family="AvenirNext-Regular" font-size="30.0" fill="#000000" transform="matrix(1.00, 0.00, -0.00, -1.00, 225.1, 9.0)"> </text><text xml:space="preserve" font-family="AvenirNext-Regular" font-size="30.0" fill="#000000" transform="matrix(1.00, 0.00, -0.00, -1.00, 232.6, 9.0)">и</text><text xml:space="preserve" font-family="AvenirNext-Regular" font-size="30.0" fill="#000000" transform="matrix(1.00, 0.00, -0.00, -1.00, 250.6, 9.0)"> </text><text xml:space="preserve" font-family="AvenirNext-Regular" font-size="30.0" fill="#000000" transform="matrix(1.00, 0.00, -0.00, -1.00, 258.1, 9.0)">и</text><text xml:space="preserve" font-family="AvenirNext-Regular" font-size="30.0" fill="#000000" transform="matrix(1.00, 0.00, -0.00, -1.00, 276.0, 9.0)">з</text><text xml:space="preserve" font-family="AvenirNext-Regular" font-size="30.0" fill="#000000" transform="matrix(1.00, 0.00, -0.00, -1.00, 289.9, 9.0)">п</text><text xml:space="preserve" font-family="AvenirNext-Regular" font-size="30.0" fill="#000000" transform="matrix(1.00, 0.00, -0.00, -1.00, 306.9, 9.0)">о</text><text xml:space="preserve" font-family="AvenirNext-Regular" font-size="30.0" fill="#000000" transform="matrix(1.00, 0.00, -0.00, -1.00, 325.3, 9.0)">л</text><text xml:space="preserve" font-family="AvenirNext-Regular" font-size="30.0" fill="#000000" transform="matrix(1.00, 0.00, -0.00, -1.00, 340.2, 9.0)">з</text><text xml:space="preserve" font-family="AvenirNext-Regular" font-size="30.0" fill="#000000" transform="matrix(1.00, 0.00, -0.00, -1.00, 354.1, 9.0)">в</text><text xml:space="preserve" font-family="AvenirNext-Regular" font-size="30.0" fill="#000000" transform="matrix(1.00, 0.00, -0.00, -1.00, 370.3, 9.0)">а</text><text xml:space="preserve" font-family="AvenirNext-Regular" font-size="30.0" fill="#000000" transform="matrix(1.00, 0.00, -0.00, -1.00, 386.3, 9.0)">н</text><text xml:space="preserve" font-family="AvenirNext-Regular" font-size="30.0" fill="#000000" transform="matrix(1.00, 0.00, -0.00, -1.00, 403.6, 9.0)">е</text><text xml:space="preserve" font-family="AvenirNext-Regular" font-size="30.0" fill="#000000" transform="matrix(1.00, 0.00, -0.00, -1.00, 420.7, 9.0)">)</text></g></svg>