<?xml version="1.0" encoding="UTF-8" standalone="no"?><svg xmlns="http://www.w3.org/2000/svg" xmlns:xlink="http://www.w3.org/1999/xlink" clip-rule="evenodd" stroke-miterlimit="4.00" viewBox="0 0 882 71"><desc>SVG generated by Keynote</desc><defs></defs><g transform="matrix(1.00, 0.00, -0.00, -1.00, 0.0, 71.0)"><text xml:space="preserve" font-family="AvenirNext-Regular" font-size="21.6" fill="#000000" transform="matrix(1.00, 0.00, -0.00, -1.00, 0.4, 48.8)">•</text><text xml:space="preserve" font-family="AvenirNext-Regular" font-size="28.8" fill="#000000" transform="matrix(1.00, 0.00, -0.00, -1.00, 25.0, 46.0)">С</text><text xml:space="preserve" font-family="AvenirNext-Regular" font-size="28.8" fill="#000000" transform="matrix(1.00, 0.00, -0.00, -1.00, 45.7, 46.0)">ъ</text><text xml:space="preserve" font-family="AvenirNext-Regular" font-size="28.8" fill="#000000" transform="matrix(1.00, 0.00, -0.00, -1.00, 61.6, 46.0)">с</text><text xml:space="preserve" font-family="AvenirNext-Regular" font-size="28.8" fill="#000000" transform="matrix(1.00, 0.00, -0.00, -1.00, 76.0, 46.0)">т</text><text xml:space="preserve" font-family="AvenirNext-Regular" font-size="28.8" fill="#000000" transform="matrix(1.00, 0.00, -0.00, -1.00, 88.4, 46.0)">о</text><text xml:space="preserve" font-family="AvenirNext-Regular" font-size="28.8" fill="#000000" transform="matrix(1.00, 0.00, -0.00, -1.00, 106.0, 46.0)">я</text><text xml:space="preserve" font-family="AvenirNext-Regular" font-size="28.8" fill="#000000" transform="matrix(1.00, 0.00, -0.00, -1.00, 121.6, 46.0)">н</text><text xml:space="preserve" font-family="AvenirNext-Regular" font-size="28.8" fill="#000000" transform="matrix(1.00, 0.00, -0.00, -1.00, 138.1, 46.0)">и</text><text xml:space="preserve" font-family="AvenirNext-Regular" font-size="28.8" fill="#000000" transform="matrix(1.00, 0.00, -0.00, -1.00, 155.4, 46.0)">я</text><text xml:space="preserve" font-family="AvenirNext-Regular" font-size="28.8" fill="#000000" transform="matrix(1.00, 0.00, -0.00, -1.00, 170.9, 46.0)">т</text><text xml:space="preserve" font-family="AvenirNext-Regular" font-size="28.8" fill="#000000" transform="matrix(1.00, 0.00, -0.00, -1.00, 183.3, 46.0)">а</text><text xml:space="preserve" font-family="AvenirNext-Regular" font-size="28.8" fill="#000000" transform="matrix(1.00, 0.00, -0.00, -1.00, 198.7, 46.0)"> </text><text xml:space="preserve" font-family="AvenirNext-Regular" font-size="28.8" fill="#000000" transform="matrix(1.00, 0.00, -0.00, -1.00, 205.9, 46.0)">с</text><text xml:space="preserve" font-family="AvenirNext-Regular" font-size="28.8" fill="#000000" transform="matrix(1.00, 0.00, -0.00, -1.00, 220.3, 46.0)">е</text><text xml:space="preserve" font-family="AvenirNext-Regular" font-size="28.8" fill="#000000" transform="matrix(1.00, 0.00, -0.00, -1.00, 236.8, 46.0)"> </text><text xml:space="preserve" font-family="AvenirNext-Regular" font-size="28.8" fill="#000000" transform="matrix(1.00, 0.00, -0.00, -1.00, 244.0, 46.0)">п</text><text xml:space="preserve" font-family="AvenirNext-Regular" font-size="28.8" fill="#000000" transform="matrix(1.00, 0.00, -0.00, -1.00, 260.3, 46.0)">р</text><text xml:space="preserve" font-family="AvenirNext-Regular" font-size="28.8" fill="#000000" transform="matrix(1.00, 0.00, -0.00, -1.00, 278.6, 46.0)">е</text><text xml:space="preserve" font-family="AvenirNext-Regular" font-size="28.8" fill="#000000" transform="matrix(1.00, 0.00, -0.00, -1.00, 295.1, 46.0)">в</text><text xml:space="preserve" font-family="AvenirNext-Regular" font-size="28.8" fill="#000000" transform="matrix(1.00, 0.00, -0.00, -1.00, 310.6, 46.0)">к</text><text xml:space="preserve" font-family="AvenirNext-Regular" font-size="28.8" fill="#000000" transform="matrix(1.00, 0.00, -0.00, -1.00, 326.3, 46.0)">л</text><text xml:space="preserve" font-family="AvenirNext-Regular" font-size="28.8" fill="#000000" transform="matrix(1.00, 0.00, -0.00, -1.00, 340.6, 46.0)">ю</text><text xml:space="preserve" font-family="AvenirNext-Regular" font-size="28.8" fill="#000000" transform="matrix(1.00, 0.00, -0.00, -1.00, 363.8, 46.0)">ч</text><text xml:space="preserve" font-family="AvenirNext-Regular" font-size="28.8" fill="#000000" transform="matrix(1.00, 0.00, -0.00, -1.00, 378.7, 46.0)">в</text><text xml:space="preserve" font-family="AvenirNext-Regular" font-size="28.8" fill="#000000" transform="matrix(1.00, 0.00, -0.00, -1.00, 394.3, 46.0)">а</text><text xml:space="preserve" font-family="AvenirNext-Regular" font-size="28.8" fill="#000000" transform="matrix(1.00, 0.00, -0.00, -1.00, 409.7, 46.0)">т</text><text xml:space="preserve" font-family="AvenirNext-Regular" font-size="28.8" fill="#000000" transform="matrix(1.00, 0.00, -0.00, -1.00, 422.1, 46.0)"> </text><text xml:space="preserve" font-family="AvenirNext-Regular" font-size="28.8" fill="#000000" transform="matrix(1.00, 0.00, -0.00, -1.00, 429.3, 46.0)">ч</text><text xml:space="preserve" font-family="AvenirNext-Regular" font-size="28.8" fill="#000000" transform="matrix(1.00, 0.00, -0.00, -1.00, 444.1, 46.0)">р</text><text xml:space="preserve" font-family="AvenirNext-Regular" font-size="28.8" fill="#000000" transform="matrix(1.00, 0.00, -0.00, -1.00, 462.4, 46.0)">е</text><text xml:space="preserve" font-family="AvenirNext-Regular" font-size="28.8" fill="#000000" transform="matrix(1.00, 0.00, -0.00, -1.00, 478.9, 46.0)">з</text><text xml:space="preserve" font-family="AvenirNext-Regular" font-size="28.8" fill="#000000" transform="matrix(1.00, 0.00, -0.00, -1.00, 492.2, 46.0)"> </text><text xml:space="preserve" font-family="AvenirNext-Regular" font-size="28.8" fill="#000000" transform="matrix(1.00, 0.00, -0.00, -1.00, 499.4, 46.0)">п</text><text xml:space="preserve" font-family="AvenirNext-Regular" font-size="28.8" fill="#000000" transform="matrix(1.00, 0.00, -0.00, -1.00, 515.8, 46.0)">р</text><text xml:space="preserve" font-family="AvenirNext-Regular" font-size="28.8" fill="#000000" transform="matrix(1.00, 0.00, -0.00, -1.00, 534.0, 46.0)">е</text><text xml:space="preserve" font-family="AvenirNext-Regular" font-size="28.8" fill="#000000" transform="matrix(1.00, 0.00, -0.00, -1.00, 550.5, 46.0)">в</text><text xml:space="preserve" font-family="AvenirNext-Regular" font-size="28.8" fill="#000000" transform="matrix(1.00, 0.00, -0.00, -1.00, 566.1, 46.0)">к</text><text xml:space="preserve" font-family="AvenirNext-Regular" font-size="28.8" fill="#000000" transform="matrix(1.00, 0.00, -0.00, -1.00, 581.7, 46.0)">л</text><text xml:space="preserve" font-family="AvenirNext-Regular" font-size="28.8" fill="#000000" transform="matrix(1.00, 0.00, -0.00, -1.00, 596.0, 46.0)">ю</text><text xml:space="preserve" font-family="AvenirNext-Regular" font-size="28.8" fill="#000000" transform="matrix(1.00, 0.00, -0.00, -1.00, 619.3, 46.0)">ч</text><text xml:space="preserve" font-family="AvenirNext-Regular" font-size="28.8" fill="#000000" transform="matrix(1.00, 0.00, -0.00, -1.00, 634.1, 46.0)">в</text><text xml:space="preserve" font-family="AvenirNext-Regular" font-size="28.8" fill="#000000" transform="matrix(1.00, 0.00, -0.00, -1.00, 649.7, 46.0)">а</text><text xml:space="preserve" font-family="AvenirNext-Regular" font-size="28.8" fill="#000000" transform="matrix(1.00, 0.00, -0.00, -1.00, 665.1, 46.0)">н</text><text xml:space="preserve" font-family="AvenirNext-Regular" font-size="28.8" fill="#000000" transform="matrix(1.00, 0.00, -0.00, -1.00, 681.7, 46.0)">е</text><text xml:space="preserve" font-family="AvenirNext-Regular" font-size="28.8" fill="#000000" transform="matrix(1.00, 0.00, -0.00, -1.00, 698.1, 46.0)"> </text><text xml:space="preserve" font-family="AvenirNext-Regular" font-size="28.8" fill="#000000" transform="matrix(1.00, 0.00, -0.00, -1.00, 705.3, 46.0)">н</text><text xml:space="preserve" font-family="AvenirNext-Regular" font-size="28.8" fill="#000000" transform="matrix(1.00, 0.00, -0.00, -1.00, 721.9, 46.0)">а</text><text xml:space="preserve" font-family="AvenirNext-Regular" font-size="28.8" fill="#000000" transform="matrix(1.00, 0.00, -0.00, -1.00, 737.3, 46.0)"> </text><text xml:space="preserve" font-family="AvenirNext-Regular" font-size="28.8" fill="#000000" transform="matrix(1.00, 0.00, -0.00, -1.00, 744.5, 46.0)">C</text><text xml:space="preserve" font-family="AvenirNext-Regular" font-size="28.8" fill="#000000" transform="matrix(1.00, 0.00, -0.00, -1.00, 765.2, 46.0)">S</text><text xml:space="preserve" font-family="AvenirNext-Regular" font-size="28.8" fill="#000000" transform="matrix(1.00, 0.00, -0.00, -1.00, 781.5, 46.0)">S</text><text xml:space="preserve" font-family="AvenirNext-Regular" font-size="28.8" fill="#000000" transform="matrix(1.00, 0.00, -0.00, -1.00, 797.7, 46.0)"> </text><text xml:space="preserve" font-family="AvenirNext-Regular" font-size="28.8" fill="#000000" transform="matrix(1.00, 0.00, -0.00, -1.00, 804.9, 46.0)">к</text><text xml:space="preserve" font-family="AvenirNext-Regular" font-size="28.8" fill="#000000" transform="matrix(1.00, 0.00, -0.00, -1.00, 820.5, 46.0)">л</text><text xml:space="preserve" font-family="AvenirNext-Regular" font-size="28.8" fill="#000000" transform="matrix(1.00, 0.00, -0.00, -1.00, 834.9, 46.0)">а</text><text xml:space="preserve" font-family="AvenirNext-Regular" font-size="28.8" fill="#000000" transform="matrix(1.00, 0.00, -0.00, -1.00, 850.2, 46.0)">с</text><text xml:space="preserve" font-family="AvenirNext-Regular" font-size="28.8" fill="#000000" transform="matrix(1.00, 0.00, -0.00, -1.00, 864.6, 46.0)">а</text><text xml:space="preserve" font-family="AvenirNext-Regular" font-size="28.8" fill="#000000" transform="matrix(1.00, 0.00, -0.00, -1.00, 880.0, 46.0)"> </text><text xml:space="preserve" font-family="AvenirNext-Regular" font-size="28.8" fill="#000000" transform="matrix(1.00, 0.00, -0.00, -1.00, 25.0, 6.0)">и</text><text xml:space="preserve" font-family="AvenirNext-Regular" font-size="28.8" fill="#000000" transform="matrix(1.00, 0.00, -0.00, -1.00, 42.3, 6.0)">л</text><text xml:space="preserve" font-family="AvenirNext-Regular" font-size="28.8" fill="#000000" transform="matrix(1.00, 0.00, -0.00, -1.00, 56.6, 6.0)">и</text><text xml:space="preserve" font-family="AvenirNext-Regular" font-size="28.8" fill="#000000" transform="matrix(1.00, 0.00, -0.00, -1.00, 73.8, 6.0)"> </text><text xml:space="preserve" font-family="AvenirNext-Regular" font-size="28.8" fill="#000000" transform="matrix(1.00, 0.00, -0.00, -1.00, 81.0, 6.0)">п</text><text xml:space="preserve" font-family="AvenirNext-Regular" font-size="28.8" fill="#000000" transform="matrix(1.00, 0.00, -0.00, -1.00, 97.3, 6.0)">с</text><text xml:space="preserve" font-family="AvenirNext-Regular" font-size="28.8" fill="#000000" transform="matrix(1.00, 0.00, -0.00, -1.00, 111.7, 6.0)">е</text><text xml:space="preserve" font-family="AvenirNext-Regular" font-size="28.8" fill="#000000" transform="matrix(1.00, 0.00, -0.00, -1.00, 128.2, 6.0)">в</text><text xml:space="preserve" font-family="AvenirNext-Regular" font-size="28.8" fill="#000000" transform="matrix(1.00, 0.00, -0.00, -1.00, 143.8, 6.0)">д</text><text xml:space="preserve" font-family="AvenirNext-Regular" font-size="28.8" fill="#000000" transform="matrix(1.00, 0.00, -0.00, -1.00, 159.5, 6.0)">о</text><text xml:space="preserve" font-family="AvenirNext-Regular" font-size="28.8" fill="#000000" transform="matrix(1.00, 0.00, -0.00, -1.00, 177.1, 6.0)">к</text><text xml:space="preserve" font-family="AvenirNext-Regular" font-size="28.8" fill="#000000" transform="matrix(1.00, 0.00, -0.00, -1.00, 192.7, 6.0)">л</text><text xml:space="preserve" font-family="AvenirNext-Regular" font-size="28.8" fill="#000000" transform="matrix(1.00, 0.00, -0.00, -1.00, 207.0, 6.0)">а</text><text xml:space="preserve" font-family="AvenirNext-Regular" font-size="28.8" fill="#000000" transform="matrix(1.00, 0.00, -0.00, -1.00, 222.4, 6.0)">с</text><text xml:space="preserve" font-family="AvenirNext-Regular" font-size="28.8" fill="#000000" transform="matrix(1.00, 0.00, -0.00, -1.00, 236.8, 6.0)">а</text><text xml:space="preserve" font-family="AvenirNext-Regular" font-size="28.8" fill="#000000" transform="matrix(1.00, 0.00, -0.00, -1.00, 252.2, 6.0)"> </text><text xml:space="preserve" font-family="AvenirNext-Regular" font-size="28.8" fill="#000000" transform="matrix(1.00, 0.00, -0.00, -1.00, 259.4, 6.0)">(</text><text xml:space="preserve" font-family="AvenirNext-Regular" font-size="28.8" fill="#000000" transform="matrix(1.00, 0.00, -0.00, -1.00, 268.0, 6.0)">h</text><text xml:space="preserve" font-family="AvenirNext-Regular" font-size="28.8" fill="#000000" transform="matrix(1.00, 0.00, -0.00, -1.00, 284.8, 6.0)">o</text><text xml:space="preserve" font-family="AvenirNext-Regular" font-size="28.8" fill="#000000" transform="matrix(1.00, 0.00, -0.00, -1.00, 302.4, 6.0)">v</text><text xml:space="preserve" font-family="AvenirNext-Regular" font-size="28.8" fill="#000000" transform="matrix(1.00, 0.00, -0.00, -1.00, 316.5, 6.0)">e</text><text xml:space="preserve" font-family="AvenirNext-Regular" font-size="28.8" fill="#000000" transform="matrix(1.00, 0.00, -0.00, -1.00, 332.9, 6.0)">r</text><text xml:space="preserve" font-family="AvenirNext-Regular" font-size="28.8" fill="#000000" transform="matrix(1.00, 0.00, -0.00, -1.00, 341.9, 6.0)">,</text><text xml:space="preserve" font-family="AvenirNext-Regular" font-size="28.8" fill="#000000" transform="matrix(1.00, 0.00, -0.00, -1.00, 348.5, 6.0)"> </text><text xml:space="preserve" font-family="AvenirNext-Regular" font-size="28.8" fill="#000000" transform="matrix(1.00, 0.00, -0.00, -1.00, 355.7, 6.0)">f</text><text xml:space="preserve" font-family="AvenirNext-Regular" font-size="28.8" fill="#000000" transform="matrix(1.00, 0.00, -0.00, -1.00, 364.2, 6.0)">o</text><text xml:space="preserve" font-family="AvenirNext-Regular" font-size="28.8" fill="#000000" transform="matrix(1.00, 0.00, -0.00, -1.00, 381.8, 6.0)">c</text><text xml:space="preserve" font-family="AvenirNext-Regular" font-size="28.8" fill="#000000" transform="matrix(1.00, 0.00, -0.00, -1.00, 396.2, 6.0)">u</text><text xml:space="preserve" font-family="AvenirNext-Regular" font-size="28.8" fill="#000000" transform="matrix(1.00, 0.00, -0.00, -1.00, 413.0, 6.0)">s</text><text xml:space="preserve" font-family="AvenirNext-Regular" font-size="28.8" fill="#000000" transform="matrix(1.00, 0.00, -0.00, -1.00, 425.8, 6.0)">)</text><text xml:space="preserve" font-family="AvenirNext-Regular" font-size="28.8" fill="#000000" transform="matrix(1.00, 0.00, -0.00, -1.00, 434.4, 6.0)"> </text><text xml:space="preserve" font-family="AvenirNext-Regular" font-size="28.8" fill="#000000" transform="matrix(1.00, 0.00, -0.00, -1.00, 441.6, 6.0)">н</text><text xml:space="preserve" font-family="AvenirNext-Regular" font-size="28.8" fill="#000000" transform="matrix(1.00, 0.00, -0.00, -1.00, 458.2, 6.0)">а</text><text xml:space="preserve" font-family="AvenirNext-Regular" font-size="28.8" fill="#000000" transform="matrix(1.00, 0.00, -0.00, -1.00, 473.5, 6.0)"> </text><text xml:space="preserve" font-family="AvenirNext-Regular" font-size="28.8" fill="#000000" transform="matrix(1.00, 0.00, -0.00, -1.00, 480.7, 6.0)">е</text><text xml:space="preserve" font-family="AvenirNext-Regular" font-size="28.8" fill="#000000" transform="matrix(1.00, 0.00, -0.00, -1.00, 497.2, 6.0)">л</text><text xml:space="preserve" font-family="AvenirNext-Regular" font-size="28.8" fill="#000000" transform="matrix(1.00, 0.00, -0.00, -1.00, 511.5, 6.0)">е</text><text xml:space="preserve" font-family="AvenirNext-Regular" font-size="28.8" fill="#000000" transform="matrix(1.00, 0.00, -0.00, -1.00, 528.0, 6.0)">м</text><text xml:space="preserve" font-family="AvenirNext-Regular" font-size="28.8" fill="#000000" transform="matrix(1.00, 0.00, -0.00, -1.00, 548.0, 6.0)">е</text><text xml:space="preserve" font-family="AvenirNext-Regular" font-size="28.8" fill="#000000" transform="matrix(1.00, 0.00, -0.00, -1.00, 564.5, 6.0)">н</text><text xml:space="preserve" font-family="AvenirNext-Regular" font-size="28.8" fill="#000000" transform="matrix(1.00, 0.00, -0.00, -1.00, 581.0, 6.0)">т</text><text xml:space="preserve" font-family="AvenirNext-Regular" font-size="28.8" fill="#000000" transform="matrix(1.00, 0.00, -0.00, -1.00, 593.5, 6.0)">а</text><text xml:space="preserve" font-family="AvenirNext-Regular" font-size="28.8" fill="#000000" transform="matrix(1.00, 0.00, -0.00, -1.00, 608.8, 6.0)">.</text></g></svg>