<?xml version="1.0" encoding="UTF-8" standalone="no"?><svg xmlns="http://www.w3.org/2000/svg" xmlns:xlink="http://www.w3.org/1999/xlink" clip-rule="evenodd" stroke-miterlimit="4.00" viewBox="0 0 850 98"><desc>SVG generated by Keynote</desc><defs></defs><g transform="matrix(1.00, 0.00, -0.00, -1.00, 0.0, 98.0)"><text xml:space="preserve" font-family="AvenirNext-Regular" font-size="19.1" fill="#000000" transform="matrix(1.00, 0.00, -0.00, -1.00, 0.0, 78.1)">•</text><text xml:space="preserve" font-family="AvenirNext-Regular" font-size="25.5" fill="#000000" transform="matrix(1.00, 0.00, -0.00, -1.00, 25.0, 76.0)">Т</text><text xml:space="preserve" font-family="AvenirNext-Regular" font-size="25.5" fill="#000000" transform="matrix(1.00, 0.00, -0.00, -1.00, 39.5, 76.0)">.</text><text xml:space="preserve" font-family="AvenirNext-Regular" font-size="25.5" fill="#000000" transform="matrix(1.00, 0.00, -0.00, -1.00, 46.1, 76.0)">е</text><text xml:space="preserve" font-family="AvenirNext-Regular" font-size="25.5" fill="#000000" transform="matrix(1.00, 0.00, -0.00, -1.00, 60.7, 76.0)">.</text><text xml:space="preserve" font-family="AvenirNext-Regular" font-size="25.5" fill="#000000" transform="matrix(1.00, 0.00, -0.00, -1.00, 66.6, 76.0)"> </text><text xml:space="preserve" font-family="AvenirNext-Regular" font-size="25.5" fill="#000000" transform="matrix(1.00, 0.00, -0.00, -1.00, 73.0, 76.0)">т</text><text xml:space="preserve" font-family="AvenirNext-Regular" font-size="25.5" fill="#000000" transform="matrix(1.00, 0.00, -0.00, -1.00, 83.9, 76.0)">а</text><text xml:space="preserve" font-family="AvenirNext-Regular" font-size="25.5" fill="#000000" transform="matrix(1.00, 0.00, -0.00, -1.00, 97.5, 76.0)">з</text><text xml:space="preserve" font-family="AvenirNext-Regular" font-size="25.5" fill="#000000" transform="matrix(1.00, 0.00, -0.00, -1.00, 109.3, 76.0)">и</text><text xml:space="preserve" font-family="AvenirNext-Regular" font-size="25.5" fill="#000000" transform="matrix(1.00, 0.00, -0.00, -1.00, 124.6, 76.0)"> </text><text xml:space="preserve" font-family="AvenirNext-Regular" font-size="25.5" fill="#000000" transform="matrix(1.00, 0.00, -0.00, -1.00, 131.0, 76.0)">з</text><text xml:space="preserve" font-family="AvenirNext-Regular" font-size="25.5" fill="#000000" transform="matrix(1.00, 0.00, -0.00, -1.00, 142.8, 76.0)">о</text><text xml:space="preserve" font-family="AvenirNext-Regular" font-size="25.5" fill="#000000" transform="matrix(1.00, 0.00, -0.00, -1.00, 158.3, 76.0)">н</text><text xml:space="preserve" font-family="AvenirNext-Regular" font-size="25.5" fill="#000000" transform="matrix(1.00, 0.00, -0.00, -1.00, 173.0, 76.0)">а</text><text xml:space="preserve" font-family="AvenirNext-Regular" font-size="25.5" fill="#000000" transform="matrix(1.00, 0.00, -0.00, -1.00, 186.6, 76.0)"> </text><text xml:space="preserve" font-family="AvenirNext-Regular" font-size="25.5" fill="#000000" transform="matrix(1.00, 0.00, -0.00, -1.00, 193.0, 76.0)">з</text><text xml:space="preserve" font-family="AvenirNext-Regular" font-size="25.5" fill="#000000" transform="matrix(1.00, 0.00, -0.00, -1.00, 204.8, 76.0)">а</text><text xml:space="preserve" font-family="AvenirNext-Regular" font-size="25.5" fill="#000000" transform="matrix(1.00, 0.00, -0.00, -1.00, 218.4, 76.0)">п</text><text xml:space="preserve" font-family="AvenirNext-Regular" font-size="25.5" fill="#000000" transform="matrix(1.00, 0.00, -0.00, -1.00, 232.8, 76.0)">о</text><text xml:space="preserve" font-family="AvenirNext-Regular" font-size="25.5" fill="#000000" transform="matrix(1.00, 0.00, -0.00, -1.00, 248.4, 76.0)">ч</text><text xml:space="preserve" font-family="AvenirNext-Regular" font-size="25.5" fill="#000000" transform="matrix(1.00, 0.00, -0.00, -1.00, 261.5, 76.0)">в</text><text xml:space="preserve" font-family="AvenirNext-Regular" font-size="25.5" fill="#000000" transform="matrix(1.00, 0.00, -0.00, -1.00, 275.3, 76.0)">а</text><text xml:space="preserve" font-family="AvenirNext-Regular" font-size="25.5" fill="#000000" transform="matrix(1.00, 0.00, -0.00, -1.00, 288.9, 76.0)"> </text><text xml:space="preserve" font-family="AvenirNext-Regular" font-size="25.5" fill="#000000" transform="matrix(1.00, 0.00, -0.00, -1.00, 295.3, 76.0)">т</text><text xml:space="preserve" font-family="AvenirNext-Regular" font-size="25.5" fill="#000000" transform="matrix(1.00, 0.00, -0.00, -1.00, 306.3, 76.0)">а</text><text xml:space="preserve" font-family="AvenirNext-Regular" font-size="25.5" fill="#000000" transform="matrix(1.00, 0.00, -0.00, -1.00, 319.9, 76.0)">м</text><text xml:space="preserve" font-family="AvenirNext-Regular" font-size="25.5" fill="#000000" transform="matrix(1.00, 0.00, -0.00, -1.00, 337.6, 76.0)"> </text><text xml:space="preserve" font-family="AvenirNext-Regular" font-size="25.5" fill="#000000" transform="matrix(1.00, 0.00, -0.00, -1.00, 344.0, 76.0)">к</text><text xml:space="preserve" font-family="AvenirNext-Regular" font-size="25.5" fill="#000000" transform="matrix(1.00, 0.00, -0.00, -1.00, 357.8, 76.0)">ъ</text><text xml:space="preserve" font-family="AvenirNext-Regular" font-size="25.5" fill="#000000" transform="matrix(1.00, 0.00, -0.00, -1.00, 371.9, 76.0)">д</text><text xml:space="preserve" font-family="AvenirNext-Regular" font-size="25.5" fill="#000000" transform="matrix(1.00, 0.00, -0.00, -1.00, 385.7, 76.0)">е</text><text xml:space="preserve" font-family="AvenirNext-Regular" font-size="25.5" fill="#000000" transform="matrix(1.00, 0.00, -0.00, -1.00, 400.3, 76.0)">т</text><text xml:space="preserve" font-family="AvenirNext-Regular" font-size="25.5" fill="#000000" transform="matrix(1.00, 0.00, -0.00, -1.00, 411.3, 76.0)">о</text><text xml:space="preserve" font-family="AvenirNext-Regular" font-size="25.5" fill="#000000" transform="matrix(1.00, 0.00, -0.00, -1.00, 426.8, 76.0)"> </text><text xml:space="preserve" font-family="AvenirNext-Regular" font-size="25.5" fill="#000000" transform="matrix(1.00, 0.00, -0.00, -1.00, 433.2, 76.0)">е</text><text xml:space="preserve" font-family="AvenirNext-Regular" font-size="25.5" fill="#000000" transform="matrix(1.00, 0.00, -0.00, -1.00, 447.8, 76.0)"> </text><text xml:space="preserve" font-family="AvenirNext-Regular" font-size="25.5" fill="#000000" transform="matrix(1.00, 0.00, -0.00, -1.00, 454.2, 76.0)">о</text><text xml:space="preserve" font-family="AvenirNext-Regular" font-size="25.5" fill="#000000" transform="matrix(1.00, 0.00, -0.00, -1.00, 469.7, 76.0)">т</text><text xml:space="preserve" font-family="AvenirNext-Regular" font-size="25.5" fill="#000000" transform="matrix(1.00, 0.00, -0.00, -1.00, 480.7, 76.0)">в</text><text xml:space="preserve" font-family="AvenirNext-Regular" font-size="25.5" fill="#000000" transform="matrix(1.00, 0.00, -0.00, -1.00, 494.5, 76.0)">а</text><text xml:space="preserve" font-family="AvenirNext-Regular" font-size="25.5" fill="#000000" transform="matrix(1.00, 0.00, -0.00, -1.00, 508.1, 76.0)">р</text><text xml:space="preserve" font-family="AvenirNext-Regular" font-size="25.5" fill="#000000" transform="matrix(1.00, 0.00, -0.00, -1.00, 524.3, 76.0)">я</text><text xml:space="preserve" font-family="AvenirNext-Regular" font-size="25.5" fill="#000000" transform="matrix(1.00, 0.00, -0.00, -1.00, 538.0, 76.0)">щ</text><text xml:space="preserve" font-family="AvenirNext-Regular" font-size="25.5" fill="#000000" transform="matrix(1.00, 0.00, -0.00, -1.00, 558.6, 76.0)">а</text><text xml:space="preserve" font-family="AvenirNext-Regular" font-size="25.5" fill="#000000" transform="matrix(1.00, 0.00, -0.00, -1.00, 572.2, 76.0)">т</text><text xml:space="preserve" font-family="AvenirNext-Regular" font-size="25.5" fill="#000000" transform="matrix(1.00, 0.00, -0.00, -1.00, 583.2, 76.0)">а</text><text xml:space="preserve" font-family="AvenirNext-Regular" font-size="25.5" fill="#000000" transform="matrix(1.00, 0.00, -0.00, -1.00, 596.8, 76.0)"> </text><text xml:space="preserve" font-family="AvenirNext-Regular" font-size="25.5" fill="#000000" transform="matrix(1.00, 0.00, -0.00, -1.00, 603.2, 76.0)">с</text><text xml:space="preserve" font-family="AvenirNext-Regular" font-size="25.5" fill="#000000" transform="matrix(1.00, 0.00, -0.00, -1.00, 615.9, 76.0)">к</text><text xml:space="preserve" font-family="AvenirNext-Regular" font-size="25.5" fill="#000000" transform="matrix(1.00, 0.00, -0.00, -1.00, 629.8, 76.0)">о</text><text xml:space="preserve" font-family="AvenirNext-Regular" font-size="25.5" fill="#000000" transform="matrix(1.00, 0.00, -0.00, -1.00, 645.3, 76.0)">б</text><text xml:space="preserve" font-family="AvenirNext-Regular" font-size="25.5" fill="#000000" transform="matrix(1.00, 0.00, -0.00, -1.00, 660.6, 76.0)">а</text><text xml:space="preserve" font-family="AvenirNext-Regular" font-size="25.5" fill="#000000" transform="matrix(1.00, 0.00, -0.00, -1.00, 674.2, 76.0)"> </text><text xml:space="preserve" font-family="AvenirNext-Regular" font-size="25.5" fill="#000000" transform="matrix(1.00, 0.00, -0.00, -1.00, 680.6, 76.0)">н</text><text xml:space="preserve" font-family="AvenirNext-Regular" font-size="25.5" fill="#000000" transform="matrix(1.00, 0.00, -0.00, -1.00, 695.2, 76.0)">а</text><text xml:space="preserve" font-family="AvenirNext-Regular" font-size="25.5" fill="#000000" transform="matrix(1.00, 0.00, -0.00, -1.00, 708.8, 76.0)"> </text><text xml:space="preserve" font-family="AvenirNext-Regular" font-size="25.5" fill="#000000" transform="matrix(1.00, 0.00, -0.00, -1.00, 25.0, 42.0)">о</text><text xml:space="preserve" font-family="AvenirNext-Regular" font-size="25.5" fill="#000000" transform="matrix(1.00, 0.00, -0.00, -1.00, 40.6, 42.0)">б</text><text xml:space="preserve" font-family="AvenirNext-Regular" font-size="25.5" fill="#000000" transform="matrix(1.00, 0.00, -0.00, -1.00, 55.8, 42.0)">г</text><text xml:space="preserve" font-family="AvenirNext-Regular" font-size="25.5" fill="#000000" transform="matrix(1.00, 0.00, -0.00, -1.00, 65.7, 42.0)">р</text><text xml:space="preserve" font-family="AvenirNext-Regular" font-size="25.5" fill="#000000" transform="matrix(1.00, 0.00, -0.00, -1.00, 81.9, 42.0)">а</text><text xml:space="preserve" font-family="AvenirNext-Regular" font-size="25.5" fill="#000000" transform="matrix(1.00, 0.00, -0.00, -1.00, 95.5, 42.0)">ж</text><text xml:space="preserve" font-family="AvenirNext-Regular" font-size="25.5" fill="#000000" transform="matrix(1.00, 0.00, -0.00, -1.00, 116.3, 42.0)">д</text><text xml:space="preserve" font-family="AvenirNext-Regular" font-size="25.5" fill="#000000" transform="matrix(1.00, 0.00, -0.00, -1.00, 130.2, 42.0)">а</text><text xml:space="preserve" font-family="AvenirNext-Regular" font-size="25.5" fill="#000000" transform="matrix(1.00, 0.00, -0.00, -1.00, 143.8, 42.0)">щ</text><text xml:space="preserve" font-family="AvenirNext-Regular" font-size="25.5" fill="#000000" transform="matrix(1.00, 0.00, -0.00, -1.00, 164.4, 42.0)">а</text><text xml:space="preserve" font-family="AvenirNext-Regular" font-size="25.5" fill="#000000" transform="matrix(1.00, 0.00, -0.00, -1.00, 178.0, 42.0)">т</text><text xml:space="preserve" font-family="AvenirNext-Regular" font-size="25.5" fill="#000000" transform="matrix(1.00, 0.00, -0.00, -1.00, 189.0, 42.0)">а</text><text xml:space="preserve" font-family="AvenirNext-Regular" font-size="25.5" fill="#000000" transform="matrix(1.00, 0.00, -0.00, -1.00, 202.6, 42.0)"> </text><text xml:space="preserve" font-family="AvenirNext-Regular" font-size="25.5" fill="#000000" transform="matrix(1.00, 0.00, -0.00, -1.00, 208.9, 42.0)">ф</text><text xml:space="preserve" font-family="AvenirNext-Regular" font-size="25.5" fill="#000000" transform="matrix(1.00, 0.00, -0.00, -1.00, 225.9, 42.0)">у</text><text xml:space="preserve" font-family="AvenirNext-Regular" font-size="25.5" fill="#000000" transform="matrix(1.00, 0.00, -0.00, -1.00, 238.4, 42.0)">н</text><text xml:space="preserve" font-family="AvenirNext-Regular" font-size="25.5" fill="#000000" transform="matrix(1.00, 0.00, -0.00, -1.00, 253.0, 42.0)">к</text><text xml:space="preserve" font-family="AvenirNext-Regular" font-size="25.5" fill="#000000" transform="matrix(1.00, 0.00, -0.00, -1.00, 266.9, 42.0)">ц</text><text xml:space="preserve" font-family="AvenirNext-Regular" font-size="25.5" fill="#000000" transform="matrix(1.00, 0.00, -0.00, -1.00, 281.4, 42.0)">и</text><text xml:space="preserve" font-family="AvenirNext-Regular" font-size="25.5" fill="#000000" transform="matrix(1.00, 0.00, -0.00, -1.00, 296.7, 42.0)">я</text><text xml:space="preserve" font-family="AvenirNext-Regular" font-size="25.5" fill="#000000" transform="matrix(1.00, 0.00, -0.00, -1.00, 310.4, 42.0)"> </text><text xml:space="preserve" font-family="AvenirNext-Regular" font-size="25.5" fill="#000000" transform="matrix(1.00, 0.00, -0.00, -1.00, 316.8, 42.0)">(</text><text xml:space="preserve" font-family="AvenirNext-Regular" font-size="25.5" fill="#000000" transform="matrix(1.00, 0.00, -0.00, -1.00, 324.4, 42.0)"> </text><text xml:space="preserve" font-family="AvenirNext-Regular" font-size="25.5" fill="#000000" transform="matrix(1.00, 0.00, -0.00, -1.00, 330.8, 42.0)">“</text><text xml:space="preserve" font-family="AvenirNext-Regular" font-size="25.5" fill="#000000" transform="matrix(1.00, 0.00, -0.00, -1.00, 340.6, 42.0)">{</text><text xml:space="preserve" font-family="AvenirNext-Regular" font-size="25.5" fill="#000000" transform="matrix(1.00, 0.00, -0.00, -1.00, 348.3, 42.0)">“</text><text xml:space="preserve" font-family="AvenirNext-Regular" font-size="25.5" fill="#000000" transform="matrix(1.00, 0.00, -0.00, -1.00, 358.2, 42.0)"> </text><text xml:space="preserve" font-family="AvenirNext-Regular" font-size="25.5" fill="#000000" transform="matrix(1.00, 0.00, -0.00, -1.00, 364.5, 42.0)">)</text><text xml:space="preserve" font-family="AvenirNext-Regular" font-size="25.5" fill="#000000" transform="matrix(1.00, 0.00, -0.00, -1.00, 372.2, 42.0)"> </text><text xml:space="preserve" font-family="AvenirNext-Regular" font-size="25.5" fill="#000000" transform="matrix(1.00, 0.00, -0.00, -1.00, 378.5, 42.0)">и</text><text xml:space="preserve" font-family="AvenirNext-Regular" font-size="25.5" fill="#000000" transform="matrix(1.00, 0.00, -0.00, -1.00, 393.8, 42.0)"> </text><text xml:space="preserve" font-family="AvenirNext-Regular" font-size="25.5" fill="#000000" transform="matrix(1.00, 0.00, -0.00, -1.00, 400.2, 42.0)">с</text><text xml:space="preserve" font-family="AvenirNext-Regular" font-size="25.5" fill="#000000" transform="matrix(1.00, 0.00, -0.00, -1.00, 412.9, 42.0)">в</text><text xml:space="preserve" font-family="AvenirNext-Regular" font-size="25.5" fill="#000000" transform="matrix(1.00, 0.00, -0.00, -1.00, 426.7, 42.0)">ъ</text><text xml:space="preserve" font-family="AvenirNext-Regular" font-size="25.5" fill="#000000" transform="matrix(1.00, 0.00, -0.00, -1.00, 440.8, 42.0)">р</text><text xml:space="preserve" font-family="AvenirNext-Regular" font-size="25.5" fill="#000000" transform="matrix(1.00, 0.00, -0.00, -1.00, 456.9, 42.0)">ш</text><text xml:space="preserve" font-family="AvenirNext-Regular" font-size="25.5" fill="#000000" transform="matrix(1.00, 0.00, -0.00, -1.00, 477.2, 42.0)">в</text><text xml:space="preserve" font-family="AvenirNext-Regular" font-size="25.5" fill="#000000" transform="matrix(1.00, 0.00, -0.00, -1.00, 491.0, 42.0)">а</text><text xml:space="preserve" font-family="AvenirNext-Regular" font-size="25.5" fill="#000000" transform="matrix(1.00, 0.00, -0.00, -1.00, 504.6, 42.0)"> </text><text xml:space="preserve" font-family="AvenirNext-Regular" font-size="25.5" fill="#000000" transform="matrix(1.00, 0.00, -0.00, -1.00, 511.0, 42.0)">с</text><text xml:space="preserve" font-family="AvenirNext-Regular" font-size="25.5" fill="#000000" transform="matrix(1.00, 0.00, -0.00, -1.00, 523.7, 42.0)">ъ</text><text xml:space="preserve" font-family="AvenirNext-Regular" font-size="25.5" fill="#000000" transform="matrix(1.00, 0.00, -0.00, -1.00, 537.8, 42.0)">с</text><text xml:space="preserve" font-family="AvenirNext-Regular" font-size="25.5" fill="#000000" transform="matrix(1.00, 0.00, -0.00, -1.00, 550.6, 42.0)"> </text><text xml:space="preserve" font-family="AvenirNext-Regular" font-size="25.5" fill="#000000" transform="matrix(1.00, 0.00, -0.00, -1.00, 556.9, 42.0)">з</text><text xml:space="preserve" font-family="AvenirNext-Regular" font-size="25.5" fill="#000000" transform="matrix(1.00, 0.00, -0.00, -1.00, 568.7, 42.0)">а</text><text xml:space="preserve" font-family="AvenirNext-Regular" font-size="25.5" fill="#000000" transform="matrix(1.00, 0.00, -0.00, -1.00, 582.3, 42.0)">т</text><text xml:space="preserve" font-family="AvenirNext-Regular" font-size="25.5" fill="#000000" transform="matrix(1.00, 0.00, -0.00, -1.00, 593.3, 42.0)">в</text><text xml:space="preserve" font-family="AvenirNext-Regular" font-size="25.5" fill="#000000" transform="matrix(1.00, 0.00, -0.00, -1.00, 607.1, 42.0)">а</text><text xml:space="preserve" font-family="AvenirNext-Regular" font-size="25.5" fill="#000000" transform="matrix(1.00, 0.00, -0.00, -1.00, 620.7, 42.0)">р</text><text xml:space="preserve" font-family="AvenirNext-Regular" font-size="25.5" fill="#000000" transform="matrix(1.00, 0.00, -0.00, -1.00, 636.9, 42.0)">я</text><text xml:space="preserve" font-family="AvenirNext-Regular" font-size="25.5" fill="#000000" transform="matrix(1.00, 0.00, -0.00, -1.00, 650.6, 42.0)">щ</text><text xml:space="preserve" font-family="AvenirNext-Regular" font-size="25.5" fill="#000000" transform="matrix(1.00, 0.00, -0.00, -1.00, 671.2, 42.0)">а</text><text xml:space="preserve" font-family="AvenirNext-Regular" font-size="25.5" fill="#000000" transform="matrix(1.00, 0.00, -0.00, -1.00, 684.8, 42.0)">т</text><text xml:space="preserve" font-family="AvenirNext-Regular" font-size="25.5" fill="#000000" transform="matrix(1.00, 0.00, -0.00, -1.00, 695.8, 42.0)">а</text><text xml:space="preserve" font-family="AvenirNext-Regular" font-size="25.5" fill="#000000" transform="matrix(1.00, 0.00, -0.00, -1.00, 709.4, 42.0)"> </text><text xml:space="preserve" font-family="AvenirNext-Regular" font-size="25.5" fill="#000000" transform="matrix(1.00, 0.00, -0.00, -1.00, 715.8, 42.0)">с</text><text xml:space="preserve" font-family="AvenirNext-Regular" font-size="25.5" fill="#000000" transform="matrix(1.00, 0.00, -0.00, -1.00, 728.5, 42.0)">к</text><text xml:space="preserve" font-family="AvenirNext-Regular" font-size="25.5" fill="#000000" transform="matrix(1.00, 0.00, -0.00, -1.00, 742.4, 42.0)">о</text><text xml:space="preserve" font-family="AvenirNext-Regular" font-size="25.5" fill="#000000" transform="matrix(1.00, 0.00, -0.00, -1.00, 757.9, 42.0)">б</text><text xml:space="preserve" font-family="AvenirNext-Regular" font-size="25.5" fill="#000000" transform="matrix(1.00, 0.00, -0.00, -1.00, 773.2, 42.0)">а</text><text xml:space="preserve" font-family="AvenirNext-Regular" font-size="25.5" fill="#000000" transform="matrix(1.00, 0.00, -0.00, -1.00, 786.8, 42.0)"> </text><text xml:space="preserve" font-family="AvenirNext-Regular" font-size="25.5" fill="#000000" transform="matrix(1.00, 0.00, -0.00, -1.00, 793.2, 42.0)">(</text><text xml:space="preserve" font-family="AvenirNext-Regular" font-size="25.5" fill="#000000" transform="matrix(1.00, 0.00, -0.00, -1.00, 800.8, 42.0)"> </text><text xml:space="preserve" font-family="AvenirNext-Regular" font-size="25.5" fill="#000000" transform="matrix(1.00, 0.00, -0.00, -1.00, 807.2, 42.0)">“</text><text xml:space="preserve" font-family="AvenirNext-Regular" font-size="25.5" fill="#000000" transform="matrix(1.00, 0.00, -0.00, -1.00, 817.0, 42.0)">}</text><text xml:space="preserve" font-family="AvenirNext-Regular" font-size="25.5" fill="#000000" transform="matrix(1.00, 0.00, -0.00, -1.00, 824.7, 42.0)">”</text><text xml:space="preserve" font-family="AvenirNext-Regular" font-size="25.5" fill="#000000" transform="matrix(1.00, 0.00, -0.00, -1.00, 834.6, 42.0)"> </text><text xml:space="preserve" font-family="AvenirNext-Regular" font-size="25.5" fill="#000000" transform="matrix(1.00, 0.00, -0.00, -1.00, 840.9, 42.0)">)</text><text xml:space="preserve" font-family="AvenirNext-Regular" font-size="25.5" fill="#000000" transform="matrix(1.00, 0.00, -0.00, -1.00, 848.6, 42.0)"> </text><text xml:space="preserve" font-family="AvenirNext-Regular" font-size="25.5" fill="#000000" transform="matrix(1.00, 0.00, -0.00, -1.00, 25.0, 8.0)">и</text><text xml:space="preserve" font-family="AvenirNext-Regular" font-size="25.5" fill="#000000" transform="matrix(1.00, 0.00, -0.00, -1.00, 40.3, 8.0)">л</text><text xml:space="preserve" font-family="AvenirNext-Regular" font-size="25.5" fill="#000000" transform="matrix(1.00, 0.00, -0.00, -1.00, 52.9, 8.0)">и</text><text xml:space="preserve" font-family="AvenirNext-Regular" font-size="25.5" fill="#000000" transform="matrix(1.00, 0.00, -0.00, -1.00, 68.2, 8.0)"> </text><text xml:space="preserve" font-family="AvenirNext-Regular" font-size="25.5" fill="#000000" transform="matrix(1.00, 0.00, -0.00, -1.00, 74.6, 8.0)">п</text><text xml:space="preserve" font-family="AvenirNext-Regular" font-size="25.5" fill="#000000" transform="matrix(1.00, 0.00, -0.00, -1.00, 89.0, 8.0)">р</text><text xml:space="preserve" font-family="AvenirNext-Regular" font-size="25.5" fill="#000000" transform="matrix(1.00, 0.00, -0.00, -1.00, 105.2, 8.0)">и</text><text xml:space="preserve" font-family="AvenirNext-Regular" font-size="25.5" fill="#000000" transform="matrix(1.00, 0.00, -0.00, -1.00, 120.4, 8.0)"> </text><text xml:space="preserve" font-family="AvenirNext-Regular" font-size="25.5" fill="#000000" transform="matrix(1.00, 0.00, -0.00, -1.00, 126.8, 8.0)">п</text><text xml:space="preserve" font-family="AvenirNext-Regular" font-size="25.5" fill="#000000" transform="matrix(1.00, 0.00, -0.00, -1.00, 141.3, 8.0)">ъ</text><text xml:space="preserve" font-family="AvenirNext-Regular" font-size="25.5" fill="#000000" transform="matrix(1.00, 0.00, -0.00, -1.00, 155.3, 8.0)">р</text><text xml:space="preserve" font-family="AvenirNext-Regular" font-size="25.5" fill="#000000" transform="matrix(1.00, 0.00, -0.00, -1.00, 171.5, 8.0)">в</text><text xml:space="preserve" font-family="AvenirNext-Regular" font-size="25.5" fill="#000000" transform="matrix(1.00, 0.00, -0.00, -1.00, 185.3, 8.0)">и</text><text xml:space="preserve" font-family="AvenirNext-Regular" font-size="25.5" fill="#000000" transform="matrix(1.00, 0.00, -0.00, -1.00, 200.6, 8.0)">я</text><text xml:space="preserve" font-family="AvenirNext-Regular" font-size="25.5" fill="#000000" transform="matrix(1.00, 0.00, -0.00, -1.00, 214.3, 8.0)"> </text><text xml:space="preserve" font-family="AvenirNext-Medium" font-size="25.5" fill="#000000" transform="matrix(1.00, 0.00, -0.00, -1.00, 220.7, 8.0)">r</text><text xml:space="preserve" font-family="AvenirNext-Medium" font-size="25.5" fill="#000000" transform="matrix(1.00, 0.00, -0.00, -1.00, 229.4, 8.0)">e</text><text xml:space="preserve" font-family="AvenirNext-Medium" font-size="25.5" fill="#000000" transform="matrix(1.00, 0.00, -0.00, -1.00, 244.0, 8.0)">t</text><text xml:space="preserve" font-family="AvenirNext-Medium" font-size="25.5" fill="#000000" transform="matrix(1.00, 0.00, -0.00, -1.00, 252.4, 8.0)">u</text><text xml:space="preserve" font-family="AvenirNext-Medium" font-size="25.5" fill="#000000" transform="matrix(1.00, 0.00, -0.00, -1.00, 267.2, 8.0)">r</text><text xml:space="preserve" font-family="AvenirNext-Medium" font-size="25.5" fill="#000000" transform="matrix(1.00, 0.00, -0.00, -1.00, 276.5, 8.0)">n</text><text xml:space="preserve" font-family="AvenirNext-Regular" font-size="25.5" fill="#000000" transform="matrix(1.00, 0.00, -0.00, -1.00, 291.3, 8.0)">,</text><text xml:space="preserve" font-family="AvenirNext-Regular" font-size="25.5" fill="#000000" transform="matrix(1.00, 0.00, -0.00, -1.00, 297.2, 8.0)"> </text><text xml:space="preserve" font-family="AvenirNext-Regular" font-size="25.5" fill="#000000" transform="matrix(1.00, 0.00, -0.00, -1.00, 303.5, 8.0)">к</text><text xml:space="preserve" font-family="AvenirNext-Regular" font-size="25.5" fill="#000000" transform="matrix(1.00, 0.00, -0.00, -1.00, 317.4, 8.0)">о</text><text xml:space="preserve" font-family="AvenirNext-Regular" font-size="25.5" fill="#000000" transform="matrix(1.00, 0.00, -0.00, -1.00, 332.9, 8.0)">й</text><text xml:space="preserve" font-family="AvenirNext-Regular" font-size="25.5" fill="#000000" transform="matrix(1.00, 0.00, -0.00, -1.00, 348.2, 8.0)">т</text><text xml:space="preserve" font-family="AvenirNext-Regular" font-size="25.5" fill="#000000" transform="matrix(1.00, 0.00, -0.00, -1.00, 359.2, 8.0)">о</text><text xml:space="preserve" font-family="AvenirNext-Regular" font-size="25.5" fill="#000000" transform="matrix(1.00, 0.00, -0.00, -1.00, 374.7, 8.0)"> </text><text xml:space="preserve" font-family="AvenirNext-Regular" font-size="25.5" fill="#000000" transform="matrix(1.00, 0.00, -0.00, -1.00, 381.1, 8.0)">щ</text><text xml:space="preserve" font-family="AvenirNext-Regular" font-size="25.5" fill="#000000" transform="matrix(1.00, 0.00, -0.00, -1.00, 401.7, 8.0)">е</text><text xml:space="preserve" font-family="AvenirNext-Regular" font-size="25.5" fill="#000000" transform="matrix(1.00, 0.00, -0.00, -1.00, 416.3, 8.0)"> </text><text xml:space="preserve" font-family="AvenirNext-Regular" font-size="25.5" fill="#000000" transform="matrix(1.00, 0.00, -0.00, -1.00, 422.7, 8.0)">б</text><text xml:space="preserve" font-family="AvenirNext-Regular" font-size="25.5" fill="#000000" transform="matrix(1.00, 0.00, -0.00, -1.00, 437.9, 8.0)">ъ</text><text xml:space="preserve" font-family="AvenirNext-Regular" font-size="25.5" fill="#000000" transform="matrix(1.00, 0.00, -0.00, -1.00, 452.0, 8.0)">д</text><text xml:space="preserve" font-family="AvenirNext-Regular" font-size="25.5" fill="#000000" transform="matrix(1.00, 0.00, -0.00, -1.00, 465.9, 8.0)">е</text><text xml:space="preserve" font-family="AvenirNext-Regular" font-size="25.5" fill="#000000" transform="matrix(1.00, 0.00, -0.00, -1.00, 480.4, 8.0)"> </text><text xml:space="preserve" font-family="AvenirNext-Regular" font-size="25.5" fill="#000000" transform="matrix(1.00, 0.00, -0.00, -1.00, 486.8, 8.0)">и</text><text xml:space="preserve" font-family="AvenirNext-Regular" font-size="25.5" fill="#000000" transform="matrix(1.00, 0.00, -0.00, -1.00, 502.1, 8.0)">з</text><text xml:space="preserve" font-family="AvenirNext-Regular" font-size="25.5" fill="#000000" transform="matrix(1.00, 0.00, -0.00, -1.00, 513.9, 8.0)">п</text><text xml:space="preserve" font-family="AvenirNext-Regular" font-size="25.5" fill="#000000" transform="matrix(1.00, 0.00, -0.00, -1.00, 528.3, 8.0)">ъ</text><text xml:space="preserve" font-family="AvenirNext-Regular" font-size="25.5" fill="#000000" transform="matrix(1.00, 0.00, -0.00, -1.00, 542.4, 8.0)">л</text><text xml:space="preserve" font-family="AvenirNext-Regular" font-size="25.5" fill="#000000" transform="matrix(1.00, 0.00, -0.00, -1.00, 555.0, 8.0)">н</text><text xml:space="preserve" font-family="AvenirNext-Regular" font-size="25.5" fill="#000000" transform="matrix(1.00, 0.00, -0.00, -1.00, 569.7, 8.0)">е</text><text xml:space="preserve" font-family="AvenirNext-Regular" font-size="25.5" fill="#000000" transform="matrix(1.00, 0.00, -0.00, -1.00, 584.3, 8.0)">н</text></g></svg>