<?xml version="1.0" encoding="UTF-8" standalone="no"?><svg xmlns="http://www.w3.org/2000/svg" xmlns:xlink="http://www.w3.org/1999/xlink" clip-rule="evenodd" stroke-miterlimit="4.00" viewBox="0 0 761 64"><desc>SVG generated by Keynote</desc><defs></defs><g transform="matrix(1.00, 0.00, -0.00, -1.00, 0.0, 64.0)"><text xml:space="preserve" font-family="AvenirNext-Regular" font-size="19.1" fill="#000000" transform="matrix(1.00, 0.00, -0.00, -1.00, 0.0, 44.4)">•</text><text xml:space="preserve" font-family="AvenirNext-Regular" font-size="25.5" fill="#000000" transform="matrix(1.00, 0.00, -0.00, -1.00, 25.0, 43.0)">S</text><text xml:space="preserve" font-family="AvenirNext-Regular" font-size="25.5" fill="#000000" transform="matrix(1.00, 0.00, -0.00, -1.00, 39.4, 43.0)">c</text><text xml:space="preserve" font-family="AvenirNext-Regular" font-size="25.5" fill="#000000" transform="matrix(1.00, 0.00, -0.00, -1.00, 52.1, 43.0)">o</text><text xml:space="preserve" font-family="AvenirNext-Regular" font-size="25.5" fill="#000000" transform="matrix(1.00, 0.00, -0.00, -1.00, 67.7, 43.0)">p</text><text xml:space="preserve" font-family="AvenirNext-Regular" font-size="25.5" fill="#000000" transform="matrix(1.00, 0.00, -0.00, -1.00, 83.9, 43.0)">e</text><text xml:space="preserve" font-family="AvenirNext-Regular" font-size="25.5" fill="#000000" transform="matrix(1.00, 0.00, -0.00, -1.00, 98.4, 43.0)"> </text><text xml:space="preserve" font-family="AvenirNext-Regular" font-size="25.5" fill="#000000" transform="matrix(1.00, 0.00, -0.00, -1.00, 104.8, 43.0)">е</text><text xml:space="preserve" font-family="AvenirNext-Regular" font-size="25.5" fill="#000000" transform="matrix(1.00, 0.00, -0.00, -1.00, 119.4, 43.0)"> </text><text xml:space="preserve" font-family="AvenirNext-Regular" font-size="25.5" fill="#000000" transform="matrix(1.00, 0.00, -0.00, -1.00, 125.7, 43.0)">з</text><text xml:space="preserve" font-family="AvenirNext-Regular" font-size="25.5" fill="#000000" transform="matrix(1.00, 0.00, -0.00, -1.00, 137.5, 43.0)">о</text><text xml:space="preserve" font-family="AvenirNext-Regular" font-size="25.5" fill="#000000" transform="matrix(1.00, 0.00, -0.00, -1.00, 153.1, 43.0)">н</text><text xml:space="preserve" font-family="AvenirNext-Regular" font-size="25.5" fill="#000000" transform="matrix(1.00, 0.00, -0.00, -1.00, 167.8, 43.0)">а</text><text xml:space="preserve" font-family="AvenirNext-Regular" font-size="25.5" fill="#000000" transform="matrix(1.00, 0.00, -0.00, -1.00, 181.4, 43.0)">т</text><text xml:space="preserve" font-family="AvenirNext-Regular" font-size="25.5" fill="#000000" transform="matrix(1.00, 0.00, -0.00, -1.00, 192.4, 43.0)">а</text><text xml:space="preserve" font-family="AvenirNext-Regular" font-size="25.5" fill="#000000" transform="matrix(1.00, 0.00, -0.00, -1.00, 206.0, 43.0)"> </text><text xml:space="preserve" font-family="AvenirNext-Regular" font-size="25.5" fill="#000000" transform="matrix(1.00, 0.00, -0.00, -1.00, 212.3, 43.0)">н</text><text xml:space="preserve" font-family="AvenirNext-Regular" font-size="25.5" fill="#000000" transform="matrix(1.00, 0.00, -0.00, -1.00, 227.0, 43.0)">а</text><text xml:space="preserve" font-family="AvenirNext-Regular" font-size="25.5" fill="#000000" transform="matrix(1.00, 0.00, -0.00, -1.00, 240.6, 43.0)"> </text><text xml:space="preserve" font-family="AvenirNext-Regular" font-size="25.5" fill="#000000" transform="matrix(1.00, 0.00, -0.00, -1.00, 247.0, 43.0)">д</text><text xml:space="preserve" font-family="AvenirNext-Regular" font-size="25.5" fill="#000000" transform="matrix(1.00, 0.00, -0.00, -1.00, 260.8, 43.0)">е</text><text xml:space="preserve" font-family="AvenirNext-Regular" font-size="25.5" fill="#000000" transform="matrix(1.00, 0.00, -0.00, -1.00, 275.4, 43.0)">й</text><text xml:space="preserve" font-family="AvenirNext-Regular" font-size="25.5" fill="#000000" transform="matrix(1.00, 0.00, -0.00, -1.00, 290.7, 43.0)">с</text><text xml:space="preserve" font-family="AvenirNext-Regular" font-size="25.5" fill="#000000" transform="matrix(1.00, 0.00, -0.00, -1.00, 303.4, 43.0)">т</text><text xml:space="preserve" font-family="AvenirNext-Regular" font-size="25.5" fill="#000000" transform="matrix(1.00, 0.00, -0.00, -1.00, 314.4, 43.0)">в</text><text xml:space="preserve" font-family="AvenirNext-Regular" font-size="25.5" fill="#000000" transform="matrix(1.00, 0.00, -0.00, -1.00, 328.2, 43.0)">и</text><text xml:space="preserve" font-family="AvenirNext-Regular" font-size="25.5" fill="#000000" transform="matrix(1.00, 0.00, -0.00, -1.00, 343.4, 43.0)">е</text><text xml:space="preserve" font-family="AvenirNext-Regular" font-size="25.5" fill="#000000" transform="matrix(1.00, 0.00, -0.00, -1.00, 358.0, 43.0)"> </text><text xml:space="preserve" font-family="AvenirNext-Regular" font-size="25.5" fill="#000000" transform="matrix(1.00, 0.00, -0.00, -1.00, 364.4, 43.0)">н</text><text xml:space="preserve" font-family="AvenirNext-Regular" font-size="25.5" fill="#000000" transform="matrix(1.00, 0.00, -0.00, -1.00, 379.0, 43.0)">а</text><text xml:space="preserve" font-family="AvenirNext-Regular" font-size="25.5" fill="#000000" transform="matrix(1.00, 0.00, -0.00, -1.00, 392.6, 43.0)"> </text><text xml:space="preserve" font-family="AvenirNext-Regular" font-size="25.5" fill="#000000" transform="matrix(1.00, 0.00, -0.00, -1.00, 399.0, 43.0)">п</text><text xml:space="preserve" font-family="AvenirNext-Regular" font-size="25.5" fill="#000000" transform="matrix(1.00, 0.00, -0.00, -1.00, 413.4, 43.0)">р</text><text xml:space="preserve" font-family="AvenirNext-Regular" font-size="25.5" fill="#000000" transform="matrix(1.00, 0.00, -0.00, -1.00, 429.6, 43.0)">о</text><text xml:space="preserve" font-family="AvenirNext-Regular" font-size="25.5" fill="#000000" transform="matrix(1.00, 0.00, -0.00, -1.00, 445.2, 43.0)">м</text><text xml:space="preserve" font-family="AvenirNext-Regular" font-size="25.5" fill="#000000" transform="matrix(1.00, 0.00, -0.00, -1.00, 462.9, 43.0)">е</text><text xml:space="preserve" font-family="AvenirNext-Regular" font-size="25.5" fill="#000000" transform="matrix(1.00, 0.00, -0.00, -1.00, 477.5, 43.0)">н</text><text xml:space="preserve" font-family="AvenirNext-Regular" font-size="25.5" fill="#000000" transform="matrix(1.00, 0.00, -0.00, -1.00, 492.1, 43.0)">л</text><text xml:space="preserve" font-family="AvenirNext-Regular" font-size="25.5" fill="#000000" transform="matrix(1.00, 0.00, -0.00, -1.00, 504.8, 43.0)">и</text><text xml:space="preserve" font-family="AvenirNext-Regular" font-size="25.5" fill="#000000" transform="matrix(1.00, 0.00, -0.00, -1.00, 520.1, 43.0)">в</text><text xml:space="preserve" font-family="AvenirNext-Regular" font-size="25.5" fill="#000000" transform="matrix(1.00, 0.00, -0.00, -1.00, 533.8, 43.0)">и</text><text xml:space="preserve" font-family="AvenirNext-Regular" font-size="25.5" fill="#000000" transform="matrix(1.00, 0.00, -0.00, -1.00, 549.1, 43.0)">т</text><text xml:space="preserve" font-family="AvenirNext-Regular" font-size="25.5" fill="#000000" transform="matrix(1.00, 0.00, -0.00, -1.00, 560.1, 43.0)">е</text><text xml:space="preserve" font-family="AvenirNext-Regular" font-size="25.5" fill="#000000" transform="matrix(1.00, 0.00, -0.00, -1.00, 574.7, 43.0)"> </text><text xml:space="preserve" font-family="AvenirNext-Regular" font-size="25.5" fill="#000000" transform="matrix(1.00, 0.00, -0.00, -1.00, 581.0, 43.0)">и</text><text xml:space="preserve" font-family="AvenirNext-Regular" font-size="25.5" fill="#000000" transform="matrix(1.00, 0.00, -0.00, -1.00, 596.3, 43.0)"> </text><text xml:space="preserve" font-family="AvenirNext-Regular" font-size="25.5" fill="#000000" transform="matrix(1.00, 0.00, -0.00, -1.00, 602.7, 43.0)">и</text><text xml:space="preserve" font-family="AvenirNext-Regular" font-size="25.5" fill="#000000" transform="matrix(1.00, 0.00, -0.00, -1.00, 617.9, 43.0)">м</text><text xml:space="preserve" font-family="AvenirNext-Regular" font-size="25.5" fill="#000000" transform="matrix(1.00, 0.00, -0.00, -1.00, 635.6, 43.0)">е</text><text xml:space="preserve" font-family="AvenirNext-Regular" font-size="25.5" fill="#000000" transform="matrix(1.00, 0.00, -0.00, -1.00, 650.2, 43.0)">н</text><text xml:space="preserve" font-family="AvenirNext-Regular" font-size="25.5" fill="#000000" transform="matrix(1.00, 0.00, -0.00, -1.00, 664.9, 43.0)">у</text><text xml:space="preserve" font-family="AvenirNext-Regular" font-size="25.5" fill="#000000" transform="matrix(1.00, 0.00, -0.00, -1.00, 677.3, 43.0)">в</text><text xml:space="preserve" font-family="AvenirNext-Regular" font-size="25.5" fill="#000000" transform="matrix(1.00, 0.00, -0.00, -1.00, 691.1, 43.0)">а</text><text xml:space="preserve" font-family="AvenirNext-Regular" font-size="25.5" fill="#000000" transform="matrix(1.00, 0.00, -0.00, -1.00, 704.7, 43.0)">н</text><text xml:space="preserve" font-family="AvenirNext-Regular" font-size="25.5" fill="#000000" transform="matrix(1.00, 0.00, -0.00, -1.00, 719.3, 43.0)">и</text><text xml:space="preserve" font-family="AvenirNext-Regular" font-size="25.5" fill="#000000" transform="matrix(1.00, 0.00, -0.00, -1.00, 734.6, 43.0)">т</text><text xml:space="preserve" font-family="AvenirNext-Regular" font-size="25.5" fill="#000000" transform="matrix(1.00, 0.00, -0.00, -1.00, 745.6, 43.0)">е</text><text xml:space="preserve" font-family="AvenirNext-Regular" font-size="25.5" fill="#000000" transform="matrix(1.00, 0.00, -0.00, -1.00, 760.1, 43.0)"> </text><text xml:space="preserve" font-family="AvenirNext-Regular" font-size="25.5" fill="#000000" transform="matrix(1.00, 0.00, -0.00, -1.00, 25.0, 9.0)">ф</text><text xml:space="preserve" font-family="AvenirNext-Regular" font-size="25.5" fill="#000000" transform="matrix(1.00, 0.00, -0.00, -1.00, 42.0, 9.0)">у</text><text xml:space="preserve" font-family="AvenirNext-Regular" font-size="25.5" fill="#000000" transform="matrix(1.00, 0.00, -0.00, -1.00, 54.4, 9.0)">н</text><text xml:space="preserve" font-family="AvenirNext-Regular" font-size="25.5" fill="#000000" transform="matrix(1.00, 0.00, -0.00, -1.00, 69.1, 9.0)">к</text><text xml:space="preserve" font-family="AvenirNext-Regular" font-size="25.5" fill="#000000" transform="matrix(1.00, 0.00, -0.00, -1.00, 82.9, 9.0)">ц</text><text xml:space="preserve" font-family="AvenirNext-Regular" font-size="25.5" fill="#000000" transform="matrix(1.00, 0.00, -0.00, -1.00, 97.5, 9.0)">и</text><text xml:space="preserve" font-family="AvenirNext-Regular" font-size="25.5" fill="#000000" transform="matrix(1.00, 0.00, -0.00, -1.00, 112.7, 9.0)">и</text><text xml:space="preserve" font-family="AvenirNext-Regular" font-size="25.5" fill="#000000" transform="matrix(1.00, 0.00, -0.00, -1.00, 128.0, 9.0)">.</text><text xml:space="preserve" font-family="AvenirNext-Regular" font-size="25.5" fill="#000000" transform="matrix(1.00, 0.00, -0.00, -1.00, 133.9, 9.0)"> </text><text xml:space="preserve" font-family="AvenirNext-Regular" font-size="25.5" fill="#000000" transform="matrix(1.00, 0.00, -0.00, -1.00, 140.2, 9.0)">И</text><text xml:space="preserve" font-family="AvenirNext-Regular" font-size="25.5" fill="#000000" transform="matrix(1.00, 0.00, -0.00, -1.00, 159.7, 9.0)">з</text><text xml:space="preserve" font-family="AvenirNext-Regular" font-size="25.5" fill="#000000" transform="matrix(1.00, 0.00, -0.00, -1.00, 171.5, 9.0)">в</text><text xml:space="preserve" font-family="AvenirNext-Regular" font-size="25.5" fill="#000000" transform="matrix(1.00, 0.00, -0.00, -1.00, 185.3, 9.0)">ъ</text><text xml:space="preserve" font-family="AvenirNext-Regular" font-size="25.5" fill="#000000" transform="matrix(1.00, 0.00, -0.00, -1.00, 199.3, 9.0)">н</text><text xml:space="preserve" font-family="AvenirNext-Regular" font-size="25.5" fill="#000000" transform="matrix(1.00, 0.00, -0.00, -1.00, 214.0, 9.0)"> </text><text xml:space="preserve" font-family="AvenirNext-Regular" font-size="25.5" fill="#000000" transform="matrix(1.00, 0.00, -0.00, -1.00, 220.4, 9.0)">т</text><text xml:space="preserve" font-family="AvenirNext-Regular" font-size="25.5" fill="#000000" transform="matrix(1.00, 0.00, -0.00, -1.00, 231.3, 9.0)">а</text><text xml:space="preserve" font-family="AvenirNext-Regular" font-size="25.5" fill="#000000" transform="matrix(1.00, 0.00, -0.00, -1.00, 244.9, 9.0)">з</text><text xml:space="preserve" font-family="AvenirNext-Regular" font-size="25.5" fill="#000000" transform="matrix(1.00, 0.00, -0.00, -1.00, 256.7, 9.0)">и</text><text xml:space="preserve" font-family="AvenirNext-Regular" font-size="25.5" fill="#000000" transform="matrix(1.00, 0.00, -0.00, -1.00, 272.0, 9.0)"> </text><text xml:space="preserve" font-family="AvenirNext-Regular" font-size="25.5" fill="#000000" transform="matrix(1.00, 0.00, -0.00, -1.00, 278.4, 9.0)">з</text><text xml:space="preserve" font-family="AvenirNext-Regular" font-size="25.5" fill="#000000" transform="matrix(1.00, 0.00, -0.00, -1.00, 290.2, 9.0)">о</text><text xml:space="preserve" font-family="AvenirNext-Regular" font-size="25.5" fill="#000000" transform="matrix(1.00, 0.00, -0.00, -1.00, 305.7, 9.0)">н</text><text xml:space="preserve" font-family="AvenirNext-Regular" font-size="25.5" fill="#000000" transform="matrix(1.00, 0.00, -0.00, -1.00, 320.4, 9.0)">а</text><text xml:space="preserve" font-family="AvenirNext-Regular" font-size="25.5" fill="#000000" transform="matrix(1.00, 0.00, -0.00, -1.00, 334.0, 9.0)"> </text><text xml:space="preserve" font-family="AvenirNext-Regular" font-size="25.5" fill="#000000" transform="matrix(1.00, 0.00, -0.00, -1.00, 340.4, 9.0)">т</text><text xml:space="preserve" font-family="AvenirNext-Regular" font-size="25.5" fill="#000000" transform="matrix(1.00, 0.00, -0.00, -1.00, 351.3, 9.0)">е</text><text xml:space="preserve" font-family="AvenirNext-Regular" font-size="25.5" fill="#000000" transform="matrix(1.00, 0.00, -0.00, -1.00, 365.9, 9.0)"> </text><text xml:space="preserve" font-family="AvenirNext-Regular" font-size="25.5" fill="#000000" transform="matrix(1.00, 0.00, -0.00, -1.00, 372.3, 9.0)">н</text><text xml:space="preserve" font-family="AvenirNext-Regular" font-size="25.5" fill="#000000" transform="matrix(1.00, 0.00, -0.00, -1.00, 386.9, 9.0)">я</text><text xml:space="preserve" font-family="AvenirNext-Regular" font-size="25.5" fill="#000000" transform="matrix(1.00, 0.00, -0.00, -1.00, 400.7, 9.0)">м</text><text xml:space="preserve" font-family="AvenirNext-Regular" font-size="25.5" fill="#000000" transform="matrix(1.00, 0.00, -0.00, -1.00, 418.4, 9.0)">а</text><text xml:space="preserve" font-family="AvenirNext-Regular" font-size="25.5" fill="#000000" transform="matrix(1.00, 0.00, -0.00, -1.00, 432.0, 9.0)">т</text><text xml:space="preserve" font-family="AvenirNext-Regular" font-size="25.5" fill="#000000" transform="matrix(1.00, 0.00, -0.00, -1.00, 443.0, 9.0)"> </text><text xml:space="preserve" font-family="AvenirNext-Regular" font-size="25.5" fill="#000000" transform="matrix(1.00, 0.00, -0.00, -1.00, 449.3, 9.0)">с</text><text xml:space="preserve" font-family="AvenirNext-Regular" font-size="25.5" fill="#000000" transform="matrix(1.00, 0.00, -0.00, -1.00, 462.1, 9.0)">м</text><text xml:space="preserve" font-family="AvenirNext-Regular" font-size="25.5" fill="#000000" transform="matrix(1.00, 0.00, -0.00, -1.00, 479.8, 9.0)">и</text><text xml:space="preserve" font-family="AvenirNext-Regular" font-size="25.5" fill="#000000" transform="matrix(1.00, 0.00, -0.00, -1.00, 495.1, 9.0)">с</text><text xml:space="preserve" font-family="AvenirNext-Regular" font-size="25.5" fill="#000000" transform="matrix(1.00, 0.00, -0.00, -1.00, 507.8, 9.0)">ъ</text><text xml:space="preserve" font-family="AvenirNext-Regular" font-size="25.5" fill="#000000" transform="matrix(1.00, 0.00, -0.00, -1.00, 521.9, 9.0)">л</text><text xml:space="preserve" font-family="AvenirNext-Regular" font-size="25.5" fill="#000000" transform="matrix(1.00, 0.00, -0.00, -1.00, 534.5, 9.0)"> </text><text xml:space="preserve" font-family="AvenirNext-Regular" font-size="25.5" fill="#000000" transform="matrix(1.00, 0.00, -0.00, -1.00, 540.9, 9.0)">(</text><text xml:space="preserve" font-family="AvenirNext-Regular" font-size="25.5" fill="#000000" transform="matrix(1.00, 0.00, -0.00, -1.00, 548.5, 9.0)">н</text><text xml:space="preserve" font-family="AvenirNext-Regular" font-size="25.5" fill="#000000" transform="matrix(1.00, 0.00, -0.00, -1.00, 563.2, 9.0)">е</text><text xml:space="preserve" font-family="AvenirNext-Regular" font-size="25.5" fill="#000000" transform="matrix(1.00, 0.00, -0.00, -1.00, 577.8, 9.0)"> </text><text xml:space="preserve" font-family="AvenirNext-Regular" font-size="25.5" fill="#000000" transform="matrix(1.00, 0.00, -0.00, -1.00, 584.1, 9.0)">с</text><text xml:space="preserve" font-family="AvenirNext-Regular" font-size="25.5" fill="#000000" transform="matrix(1.00, 0.00, -0.00, -1.00, 596.9, 9.0)">ъ</text><text xml:space="preserve" font-family="AvenirNext-Regular" font-size="25.5" fill="#000000" transform="matrix(1.00, 0.00, -0.00, -1.00, 610.9, 9.0)">щ</text><text xml:space="preserve" font-family="AvenirNext-Regular" font-size="25.5" fill="#000000" transform="matrix(1.00, 0.00, -0.00, -1.00, 631.6, 9.0)">е</text><text xml:space="preserve" font-family="AvenirNext-Regular" font-size="25.5" fill="#000000" transform="matrix(1.00, 0.00, -0.00, -1.00, 646.1, 9.0)">с</text><text xml:space="preserve" font-family="AvenirNext-Regular" font-size="25.5" fill="#000000" transform="matrix(1.00, 0.00, -0.00, -1.00, 658.9, 9.0)">т</text><text xml:space="preserve" font-family="AvenirNext-Regular" font-size="25.5" fill="#000000" transform="matrix(1.00, 0.00, -0.00, -1.00, 669.8, 9.0)">в</text><text xml:space="preserve" font-family="AvenirNext-Regular" font-size="25.5" fill="#000000" transform="matrix(1.00, 0.00, -0.00, -1.00, 683.6, 9.0)">у</text><text xml:space="preserve" font-family="AvenirNext-Regular" font-size="25.5" fill="#000000" transform="matrix(1.00, 0.00, -0.00, -1.00, 696.1, 9.0)">в</text><text xml:space="preserve" font-family="AvenirNext-Regular" font-size="25.5" fill="#000000" transform="matrix(1.00, 0.00, -0.00, -1.00, 709.9, 9.0)">а</text><text xml:space="preserve" font-family="AvenirNext-Regular" font-size="25.5" fill="#000000" transform="matrix(1.00, 0.00, -0.00, -1.00, 723.5, 9.0)">т</text><text xml:space="preserve" font-family="AvenirNext-Regular" font-size="25.5" fill="#000000" transform="matrix(1.00, 0.00, -0.00, -1.00, 734.4, 9.0)">)</text></g></svg>