<?xml version="1.0" encoding="UTF-8" standalone="no"?><svg xmlns="http://www.w3.org/2000/svg" xmlns:xlink="http://www.w3.org/1999/xlink" clip-rule="evenodd" stroke-miterlimit="4.00" viewBox="0 0 1024 768"><desc>SVG generated by Keynote</desc><defs></defs><g transform="matrix(1.00, 0.00, -0.00, -1.00, 0.0, 768.0)"><g><clipPath id="clip-666"><path d="M 0.0 768.0 L 1024.0 768.0 L 1024.0 0.0 L 0.0 0.0 Z M 0.0 768.0 "></path></clipPath><g clip-path="url(#clip-666)"><image xlink:href="../../B2BC8137-38A5-4DC6-87DA-439CBAAECBE9/assets/5FD2C8C17B3555204A9907DE7B832C51.jpeg" width="1024.00" height="640.00" transform="matrix(1.00, 0.00, -0.00, -1.20, 0.0, 768.0)"></image></g></g><text xml:space="preserve" font-family="AvenirNext-Regular" font-size="38.0" fill="#000000" transform="matrix(1.00, 0.00, -0.00, -1.00, 89.0, 398.0)">н</text><text xml:space="preserve" font-family="AvenirNext-Regular" font-size="38.0" fill="#000000" transform="matrix(1.00, 0.00, -0.00, -1.00, 110.8, 398.0)">а</text><text xml:space="preserve" font-family="AvenirNext-Regular" font-size="38.0" fill="#000000" transform="matrix(1.00, 0.00, -0.00, -1.00, 131.1, 398.0)">р</text><text xml:space="preserve" font-family="AvenirNext-Regular" font-size="38.0" fill="#000000" transform="matrix(1.00, 0.00, -0.00, -1.00, 155.3, 398.0)">и</text><text xml:space="preserve" font-family="AvenirNext-Regular" font-size="38.0" fill="#000000" transform="matrix(1.00, 0.00, -0.00, -1.00, 178.0, 398.0)">ч</text><text xml:space="preserve" font-family="AvenirNext-Regular" font-size="38.0" fill="#000000" transform="matrix(1.00, 0.00, -0.00, -1.00, 197.6, 398.0)">а</text><text xml:space="preserve" font-family="AvenirNext-Regular" font-size="38.0" fill="#000000" transform="matrix(1.00, 0.00, -0.00, -1.00, 217.9, 398.0)">м</text><text xml:space="preserve" font-family="AvenirNext-Regular" font-size="38.0" fill="#000000" transform="matrix(1.00, 0.00, -0.00, -1.00, 244.3, 398.0)">е</text><text xml:space="preserve" font-family="AvenirNext-Regular" font-size="38.0" fill="#000000" transform="matrix(1.00, 0.00, -0.00, -1.00, 266.1, 398.0)"> </text><text xml:space="preserve" font-family="AvenirNext-Regular" font-size="38.0" fill="#000000" transform="matrix(1.00, 0.00, -0.00, -1.00, 275.6, 398.0)">п</text><text xml:space="preserve" font-family="AvenirNext-Regular" font-size="38.0" fill="#000000" transform="matrix(1.00, 0.00, -0.00, -1.00, 297.1, 398.0)">р</text><text xml:space="preserve" font-family="AvenirNext-Regular" font-size="38.0" fill="#000000" transform="matrix(1.00, 0.00, -0.00, -1.00, 321.3, 398.0)">е</text><text xml:space="preserve" font-family="AvenirNext-Regular" font-size="38.0" fill="#000000" transform="matrix(1.00, 0.00, -0.00, -1.00, 343.0, 398.0)">м</text><text xml:space="preserve" font-family="AvenirNext-Regular" font-size="38.0" fill="#000000" transform="matrix(1.00, 0.00, -0.00, -1.00, 369.4, 398.0)">и</text><text xml:space="preserve" font-family="AvenirNext-Regular" font-size="38.0" fill="#000000" transform="matrix(1.00, 0.00, -0.00, -1.00, 392.2, 398.0)">н</text><text xml:space="preserve" font-family="AvenirNext-Regular" font-size="38.0" fill="#000000" transform="matrix(1.00, 0.00, -0.00, -1.00, 414.0, 398.0)">а</text><text xml:space="preserve" font-family="AvenirNext-Regular" font-size="38.0" fill="#000000" transform="matrix(1.00, 0.00, -0.00, -1.00, 434.3, 398.0)">в</text><text xml:space="preserve" font-family="AvenirNext-Regular" font-size="38.0" fill="#000000" transform="matrix(1.00, 0.00, -0.00, -1.00, 454.9, 398.0)">а</text><text xml:space="preserve" font-family="AvenirNext-Regular" font-size="38.0" fill="#000000" transform="matrix(1.00, 0.00, -0.00, -1.00, 475.2, 398.0)">н</text><text xml:space="preserve" font-family="AvenirNext-Regular" font-size="38.0" fill="#000000" transform="matrix(1.00, 0.00, -0.00, -1.00, 497.0, 398.0)">е</text><text xml:space="preserve" font-family="AvenirNext-Regular" font-size="38.0" fill="#000000" transform="matrix(1.00, 0.00, -0.00, -1.00, 518.7, 398.0)">т</text><text xml:space="preserve" font-family="AvenirNext-Regular" font-size="38.0" fill="#000000" transform="matrix(1.00, 0.00, -0.00, -1.00, 535.1, 398.0)">о</text><text xml:space="preserve" font-family="AvenirNext-Regular" font-size="38.0" fill="#000000" transform="matrix(1.00, 0.00, -0.00, -1.00, 558.3, 398.0)"> </text><text xml:space="preserve" font-family="AvenirNext-Regular" font-size="38.0" fill="#000000" transform="matrix(1.00, 0.00, -0.00, -1.00, 567.8, 398.0)">н</text><text xml:space="preserve" font-family="AvenirNext-Regular" font-size="38.0" fill="#000000" transform="matrix(1.00, 0.00, -0.00, -1.00, 589.7, 398.0)">а</text><text xml:space="preserve" font-family="AvenirNext-Regular" font-size="38.0" fill="#000000" transform="matrix(1.00, 0.00, -0.00, -1.00, 610.0, 398.0)"> </text><text xml:space="preserve" font-family="AvenirNext-Regular" font-size="38.0" fill="#000000" transform="matrix(1.00, 0.00, -0.00, -1.00, 619.5, 398.0)">C</text><text xml:space="preserve" font-family="AvenirNext-Regular" font-size="38.0" fill="#000000" transform="matrix(1.00, 0.00, -0.00, -1.00, 646.8, 398.0)">S</text><text xml:space="preserve" font-family="AvenirNext-Regular" font-size="38.0" fill="#000000" transform="matrix(1.00, 0.00, -0.00, -1.00, 668.3, 398.0)">S</text><text xml:space="preserve" font-family="AvenirNext-Regular" font-size="38.0" fill="#000000" transform="matrix(1.00, 0.00, -0.00, -1.00, 689.7, 398.0)"> </text><text xml:space="preserve" font-family="AvenirNext-Regular" font-size="38.0" fill="#000000" transform="matrix(1.00, 0.00, -0.00, -1.00, 699.2, 398.0)">p</text><text xml:space="preserve" font-family="AvenirNext-Regular" font-size="38.0" fill="#000000" transform="matrix(1.00, 0.00, -0.00, -1.00, 723.3, 398.0)">r</text><text xml:space="preserve" font-family="AvenirNext-Regular" font-size="38.0" fill="#000000" transform="matrix(1.00, 0.00, -0.00, -1.00, 736.3, 398.0)">o</text><text xml:space="preserve" font-family="AvenirNext-Regular" font-size="38.0" fill="#000000" transform="matrix(1.00, 0.00, -0.00, -1.00, 759.5, 398.0)">p</text><text xml:space="preserve" font-family="AvenirNext-Regular" font-size="38.0" fill="#000000" transform="matrix(1.00, 0.00, -0.00, -1.00, 783.7, 398.0)">e</text><text xml:space="preserve" font-family="AvenirNext-Regular" font-size="38.0" fill="#000000" transform="matrix(1.00, 0.00, -0.00, -1.00, 805.4, 398.0)">r</text><text xml:space="preserve" font-family="AvenirNext-Regular" font-size="38.0" fill="#000000" transform="matrix(1.00, 0.00, -0.00, -1.00, 818.6, 398.0)">t</text><text xml:space="preserve" font-family="AvenirNext-Regular" font-size="38.0" fill="#000000" transform="matrix(1.00, 0.00, -0.00, -1.00, 830.7, 398.0)">y</text><text xml:space="preserve" font-family="AvenirNext-Regular" font-size="38.0" fill="#000000" transform="matrix(1.00, 0.00, -0.00, -1.00, 849.2, 398.0)">-</text><text xml:space="preserve" font-family="AvenirNext-Regular" font-size="38.0" fill="#000000" transform="matrix(1.00, 0.00, -0.00, -1.00, 861.4, 398.0)">т</text><text xml:space="preserve" font-family="AvenirNext-Regular" font-size="38.0" fill="#000000" transform="matrix(1.00, 0.00, -0.00, -1.00, 877.8, 398.0)">а</text><text xml:space="preserve" font-family="AvenirNext-Regular" font-size="38.0" fill="#000000" transform="matrix(1.00, 0.00, -0.00, -1.00, 898.1, 398.0)">т</text><text xml:space="preserve" font-family="AvenirNext-Regular" font-size="38.0" fill="#000000" transform="matrix(1.00, 0.00, -0.00, -1.00, 914.4, 398.0)">а</text><text xml:space="preserve" font-family="AvenirNext-Regular" font-size="38.0" fill="#000000" transform="matrix(1.00, 0.00, -0.00, -1.00, 934.7, 398.0)"> </text><text xml:space="preserve" font-family="AvenirNext-Regular" font-size="38.0" fill="#000000" transform="matrix(1.00, 0.00, -0.00, -1.00, 126.0, 346.0)">н</text><text xml:space="preserve" font-family="AvenirNext-Regular" font-size="38.0" fill="#000000" transform="matrix(1.00, 0.00, -0.00, -1.00, 147.8, 346.0)">а</text><text xml:space="preserve" font-family="AvenirNext-Regular" font-size="38.0" fill="#000000" transform="matrix(1.00, 0.00, -0.00, -1.00, 168.1, 346.0)"> </text><text xml:space="preserve" font-family="AvenirNext-Regular" font-size="38.0" fill="#000000" transform="matrix(1.00, 0.00, -0.00, -1.00, 177.6, 346.0)">д</text><text xml:space="preserve" font-family="AvenirNext-Regular" font-size="38.0" fill="#000000" transform="matrix(1.00, 0.00, -0.00, -1.00, 198.3, 346.0)">а</text><text xml:space="preserve" font-family="AvenirNext-Regular" font-size="38.0" fill="#000000" transform="matrix(1.00, 0.00, -0.00, -1.00, 218.6, 346.0)">д</text><text xml:space="preserve" font-family="AvenirNext-Regular" font-size="38.0" fill="#000000" transform="matrix(1.00, 0.00, -0.00, -1.00, 239.3, 346.0)">е</text><text xml:space="preserve" font-family="AvenirNext-Regular" font-size="38.0" fill="#000000" transform="matrix(1.00, 0.00, -0.00, -1.00, 261.0, 346.0)">н</text><text xml:space="preserve" font-family="AvenirNext-Regular" font-size="38.0" fill="#000000" transform="matrix(1.00, 0.00, -0.00, -1.00, 282.9, 346.0)"> </text><text xml:space="preserve" font-family="AvenirNext-Regular" font-size="38.0" fill="#000000" transform="matrix(1.00, 0.00, -0.00, -1.00, 292.4, 346.0)">е</text><text xml:space="preserve" font-family="AvenirNext-Regular" font-size="38.0" fill="#000000" transform="matrix(1.00, 0.00, -0.00, -1.00, 314.1, 346.0)">л</text><text xml:space="preserve" font-family="AvenirNext-Regular" font-size="38.0" fill="#000000" transform="matrix(1.00, 0.00, -0.00, -1.00, 333.0, 346.0)">е</text><text xml:space="preserve" font-family="AvenirNext-Regular" font-size="38.0" fill="#000000" transform="matrix(1.00, 0.00, -0.00, -1.00, 354.7, 346.0)">м</text><text xml:space="preserve" font-family="AvenirNext-Regular" font-size="38.0" fill="#000000" transform="matrix(1.00, 0.00, -0.00, -1.00, 381.1, 346.0)">е</text><text xml:space="preserve" font-family="AvenirNext-Regular" font-size="38.0" fill="#000000" transform="matrix(1.00, 0.00, -0.00, -1.00, 402.9, 346.0)">н</text><text xml:space="preserve" font-family="AvenirNext-Regular" font-size="38.0" fill="#000000" transform="matrix(1.00, 0.00, -0.00, -1.00, 424.7, 346.0)">т</text><text xml:space="preserve" font-family="AvenirNext-Regular" font-size="38.0" fill="#000000" transform="matrix(1.00, 0.00, -0.00, -1.00, 441.1, 346.0)"> </text><text xml:space="preserve" font-family="AvenirNext-Regular" font-size="38.0" fill="#000000" transform="matrix(1.00, 0.00, -0.00, -1.00, 450.6, 346.0)">о</text><text xml:space="preserve" font-family="AvenirNext-Regular" font-size="38.0" fill="#000000" transform="matrix(1.00, 0.00, -0.00, -1.00, 473.8, 346.0)">т</text><text xml:space="preserve" font-family="AvenirNext-Regular" font-size="38.0" fill="#000000" transform="matrix(1.00, 0.00, -0.00, -1.00, 490.2, 346.0)"> </text><text xml:space="preserve" font-family="AvenirNext-Regular" font-size="38.0" fill="#000000" transform="matrix(1.00, 0.00, -0.00, -1.00, 499.7, 346.0)">е</text><text xml:space="preserve" font-family="AvenirNext-Regular" font-size="38.0" fill="#000000" transform="matrix(1.00, 0.00, -0.00, -1.00, 521.4, 346.0)">д</text><text xml:space="preserve" font-family="AvenirNext-Regular" font-size="38.0" fill="#000000" transform="matrix(1.00, 0.00, -0.00, -1.00, 542.1, 346.0)">н</text><text xml:space="preserve" font-family="AvenirNext-Regular" font-size="38.0" fill="#000000" transform="matrix(1.00, 0.00, -0.00, -1.00, 564.0, 346.0)">о</text><text xml:space="preserve" font-family="AvenirNext-Regular" font-size="38.0" fill="#000000" transform="matrix(1.00, 0.00, -0.00, -1.00, 587.2, 346.0)"> </text><text xml:space="preserve" font-family="AvenirNext-Regular" font-size="38.0" fill="#000000" transform="matrix(1.00, 0.00, -0.00, -1.00, 596.7, 346.0)">с</text><text xml:space="preserve" font-family="AvenirNext-Regular" font-size="38.0" fill="#000000" transform="matrix(1.00, 0.00, -0.00, -1.00, 615.7, 346.0)">ъ</text><text xml:space="preserve" font-family="AvenirNext-Regular" font-size="38.0" fill="#000000" transform="matrix(1.00, 0.00, -0.00, -1.00, 636.6, 346.0)">с</text><text xml:space="preserve" font-family="AvenirNext-Regular" font-size="38.0" fill="#000000" transform="matrix(1.00, 0.00, -0.00, -1.00, 655.6, 346.0)">т</text><text xml:space="preserve" font-family="AvenirNext-Regular" font-size="38.0" fill="#000000" transform="matrix(1.00, 0.00, -0.00, -1.00, 672.0, 346.0)">о</text><text xml:space="preserve" font-family="AvenirNext-Regular" font-size="38.0" fill="#000000" transform="matrix(1.00, 0.00, -0.00, -1.00, 695.2, 346.0)">я</text><text xml:space="preserve" font-family="AvenirNext-Regular" font-size="38.0" fill="#000000" transform="matrix(1.00, 0.00, -0.00, -1.00, 715.7, 346.0)">н</text><text xml:space="preserve" font-family="AvenirNext-Regular" font-size="38.0" fill="#000000" transform="matrix(1.00, 0.00, -0.00, -1.00, 737.6, 346.0)">и</text><text xml:space="preserve" font-family="AvenirNext-Regular" font-size="38.0" fill="#000000" transform="matrix(1.00, 0.00, -0.00, -1.00, 760.3, 346.0)">е</text><text xml:space="preserve" font-family="AvenirNext-Regular" font-size="38.0" fill="#000000" transform="matrix(1.00, 0.00, -0.00, -1.00, 782.1, 346.0)"> </text><text xml:space="preserve" font-family="AvenirNext-Regular" font-size="38.0" fill="#000000" transform="matrix(1.00, 0.00, -0.00, -1.00, 791.6, 346.0)">в</text><text xml:space="preserve" font-family="AvenirNext-Regular" font-size="38.0" fill="#000000" transform="matrix(1.00, 0.00, -0.00, -1.00, 812.1, 346.0)"> </text><text xml:space="preserve" font-family="AvenirNext-Regular" font-size="38.0" fill="#000000" transform="matrix(1.00, 0.00, -0.00, -1.00, 821.6, 346.0)">д</text><text xml:space="preserve" font-family="AvenirNext-Regular" font-size="38.0" fill="#000000" transform="matrix(1.00, 0.00, -0.00, -1.00, 842.3, 346.0)">у</text><text xml:space="preserve" font-family="AvenirNext-Regular" font-size="38.0" fill="#000000" transform="matrix(1.00, 0.00, -0.00, -1.00, 860.8, 346.0)">г</text><text xml:space="preserve" font-family="AvenirNext-Regular" font-size="38.0" fill="#000000" transform="matrix(1.00, 0.00, -0.00, -1.00, 875.6, 346.0)">о</text><text xml:space="preserve" font-family="AvenirNext-Regular" font-size="48.0" fill="#000000" transform="matrix(1.00, 0.00, -0.00, -1.00, 406.0, 494.0)">T</text><text xml:space="preserve" font-family="AvenirNext-Regular" font-size="48.0" fill="#000000" transform="matrix(1.00, 0.00, -0.00, -1.00, 429.0, 494.0)">r</text><text xml:space="preserve" font-family="AvenirNext-Regular" font-size="48.0" fill="#000000" transform="matrix(1.00, 0.00, -0.00, -1.00, 445.7, 494.0)">a</text><text xml:space="preserve" font-family="AvenirNext-Regular" font-size="48.0" fill="#000000" transform="matrix(1.00, 0.00, -0.00, -1.00, 471.4, 494.0)">n</text><text xml:space="preserve" font-family="AvenirNext-Regular" font-size="48.0" fill="#000000" transform="matrix(1.00, 0.00, -0.00, -1.00, 499.3, 494.0)">s</text><text xml:space="preserve" font-family="AvenirNext-Regular" font-size="48.0" fill="#000000" transform="matrix(1.00, 0.00, -0.00, -1.00, 520.6, 494.0)">i</text><text xml:space="preserve" font-family="AvenirNext-Regular" font-size="48.0" fill="#000000" transform="matrix(1.00, 0.00, -0.00, -1.00, 532.6, 494.0)">t</text><text xml:space="preserve" font-family="AvenirNext-Regular" font-size="48.0" fill="#000000" transform="matrix(1.00, 0.00, -0.00, -1.00, 547.8, 494.0)">i</text><text xml:space="preserve" font-family="AvenirNext-Regular" font-size="48.0" fill="#000000" transform="matrix(1.00, 0.00, -0.00, -1.00, 559.8, 494.0)">o</text><text xml:space="preserve" font-family="AvenirNext-Regular" font-size="48.0" fill="#000000" transform="matrix(1.00, 0.00, -0.00, -1.00, 589.1, 494.0)">n</text></g></svg>