<?xml version="1.0" encoding="UTF-8" standalone="no"?><svg xmlns="http://www.w3.org/2000/svg" xmlns:xlink="http://www.w3.org/1999/xlink" clip-rule="evenodd" stroke-miterlimit="4.00" viewBox="0 0 345 32"><desc>SVG generated by Keynote</desc><defs></defs><g transform="matrix(1.00, 0.00, -0.00, -1.00, 0.0, 32.0)"><text xml:space="preserve" font-family="AvenirNext-Regular" font-size="21.0" fill="#000000" transform="matrix(1.00, 0.00, -0.00, -1.00, 0.0, 10.6)">•</text><text xml:space="preserve" font-family="AvenirNext-Regular" font-size="28.0" fill="#000000" transform="matrix(1.00, 0.00, -0.00, -1.00, 27.0, 9.0)">ф</text><text xml:space="preserve" font-family="AvenirNext-Regular" font-size="28.0" fill="#000000" transform="matrix(1.00, 0.00, -0.00, -1.00, 45.7, 9.0)">о</text><text xml:space="preserve" font-family="AvenirNext-Regular" font-size="28.0" fill="#000000" transform="matrix(1.00, 0.00, -0.00, -1.00, 62.8, 9.0)">р</text><text xml:space="preserve" font-family="AvenirNext-Regular" font-size="28.0" fill="#000000" transform="matrix(1.00, 0.00, -0.00, -1.00, 80.6, 9.0)">м</text><text xml:space="preserve" font-family="AvenirNext-Regular" font-size="28.0" fill="#000000" transform="matrix(1.00, 0.00, -0.00, -1.00, 100.0, 9.0)">у</text><text xml:space="preserve" font-family="AvenirNext-Regular" font-size="28.0" fill="#000000" transform="matrix(1.00, 0.00, -0.00, -1.00, 113.7, 9.0)">л</text><text xml:space="preserve" font-family="AvenirNext-Regular" font-size="28.0" fill="#000000" transform="matrix(1.00, 0.00, -0.00, -1.00, 127.6, 9.0)">я</text><text xml:space="preserve" font-family="AvenirNext-Regular" font-size="28.0" fill="#000000" transform="matrix(1.00, 0.00, -0.00, -1.00, 142.7, 9.0)">р</text><text xml:space="preserve" font-family="AvenirNext-Regular" font-size="28.0" fill="#000000" transform="matrix(1.00, 0.00, -0.00, -1.00, 160.5, 9.0)">и</text><text xml:space="preserve" font-family="AvenirNext-Regular" font-size="28.0" fill="#000000" transform="matrix(1.00, 0.00, -0.00, -1.00, 177.2, 9.0)"> </text><text xml:space="preserve" font-family="AvenirNext-Regular" font-size="28.0" fill="#000000" transform="matrix(1.00, 0.00, -0.00, -1.00, 184.2, 9.0)">(</text><text xml:space="preserve" font-family="AvenirNext-Regular" font-size="28.0" fill="#000000" transform="matrix(1.00, 0.00, -0.00, -1.00, 192.6, 9.0)">у</text><text xml:space="preserve" font-family="AvenirNext-Regular" font-size="28.0" fill="#000000" transform="matrix(1.00, 0.00, -0.00, -1.00, 206.3, 9.0)">е</text><text xml:space="preserve" font-family="AvenirNext-Regular" font-size="28.0" fill="#000000" transform="matrix(1.00, 0.00, -0.00, -1.00, 222.3, 9.0)">б</text><text xml:space="preserve" font-family="AvenirNext-Regular" font-size="28.0" fill="#000000" transform="matrix(1.00, 0.00, -0.00, -1.00, 239.1, 9.0)"> </text><text xml:space="preserve" font-family="AvenirNext-Regular" font-size="28.0" fill="#000000" transform="matrix(1.00, 0.00, -0.00, -1.00, 246.1, 9.0)">ф</text><text xml:space="preserve" font-family="AvenirNext-Regular" font-size="28.0" fill="#000000" transform="matrix(1.00, 0.00, -0.00, -1.00, 264.8, 9.0)">о</text><text xml:space="preserve" font-family="AvenirNext-Regular" font-size="28.0" fill="#000000" transform="matrix(1.00, 0.00, -0.00, -1.00, 281.9, 9.0)">р</text><text xml:space="preserve" font-family="AvenirNext-Regular" font-size="28.0" fill="#000000" transform="matrix(1.00, 0.00, -0.00, -1.00, 299.7, 9.0)">м</text><text xml:space="preserve" font-family="AvenirNext-Regular" font-size="28.0" fill="#000000" transform="matrix(1.00, 0.00, -0.00, -1.00, 319.1, 9.0)">и</text><text xml:space="preserve" font-family="AvenirNext-Regular" font-size="28.0" fill="#000000" transform="matrix(1.00, 0.00, -0.00, -1.00, 335.9, 9.0)">)</text></g></svg>