<?xml version="1.0" encoding="UTF-8" standalone="no"?><svg xmlns="http://www.w3.org/2000/svg" xmlns:xlink="http://www.w3.org/1999/xlink" clip-rule="evenodd" stroke-miterlimit="4.00" viewBox="0 0 500 32"><desc>SVG generated by Keynote</desc><defs></defs><g transform="matrix(1.00, 0.00, -0.00, -1.00, 0.0, 32.0)"><text xml:space="preserve" font-family="AvenirNext-Regular" font-size="21.0" fill="#000000" transform="matrix(1.00, 0.00, -0.00, -1.00, 0.0, 10.6)">•</text><text xml:space="preserve" font-family="AvenirNext-Regular" font-size="28.0" fill="#000000" transform="matrix(1.00, 0.00, -0.00, -1.00, 27.0, 9.0)">к</text><text xml:space="preserve" font-family="AvenirNext-Regular" font-size="28.0" fill="#000000" transform="matrix(1.00, 0.00, -0.00, -1.00, 42.2, 9.0)">ъ</text><text xml:space="preserve" font-family="AvenirNext-Regular" font-size="28.0" fill="#000000" transform="matrix(1.00, 0.00, -0.00, -1.00, 57.7, 9.0)">м</text><text xml:space="preserve" font-family="AvenirNext-Regular" font-size="28.0" fill="#000000" transform="matrix(1.00, 0.00, -0.00, -1.00, 77.1, 9.0)"> </text><text xml:space="preserve" font-family="AvenirNext-Regular" font-size="28.0" fill="#000000" transform="matrix(1.00, 0.00, -0.00, -1.00, 84.1, 9.0)">к</text><text xml:space="preserve" font-family="AvenirNext-Regular" font-size="28.0" fill="#000000" transform="matrix(1.00, 0.00, -0.00, -1.00, 99.3, 9.0)">о</text><text xml:space="preserve" font-family="AvenirNext-Regular" font-size="28.0" fill="#000000" transform="matrix(1.00, 0.00, -0.00, -1.00, 116.4, 9.0)">г</text><text xml:space="preserve" font-family="AvenirNext-Regular" font-size="28.0" fill="#000000" transform="matrix(1.00, 0.00, -0.00, -1.00, 127.3, 9.0)">о</text><text xml:space="preserve" font-family="AvenirNext-Regular" font-size="28.0" fill="#000000" transform="matrix(1.00, 0.00, -0.00, -1.00, 144.4, 9.0)"> </text><text xml:space="preserve" font-family="AvenirNext-Regular" font-size="28.0" fill="#000000" transform="matrix(1.00, 0.00, -0.00, -1.00, 151.4, 9.0)">е</text><text xml:space="preserve" font-family="AvenirNext-Regular" font-size="28.0" fill="#000000" transform="matrix(1.00, 0.00, -0.00, -1.00, 167.4, 9.0)"> </text><text xml:space="preserve" font-family="AvenirNext-Regular" font-size="28.0" fill="#000000" transform="matrix(1.00, 0.00, -0.00, -1.00, 174.4, 9.0)">н</text><text xml:space="preserve" font-family="AvenirNext-Regular" font-size="28.0" fill="#000000" transform="matrix(1.00, 0.00, -0.00, -1.00, 190.5, 9.0)">а</text><text xml:space="preserve" font-family="AvenirNext-Regular" font-size="28.0" fill="#000000" transform="matrix(1.00, 0.00, -0.00, -1.00, 205.5, 9.0)">с</text><text xml:space="preserve" font-family="AvenirNext-Regular" font-size="28.0" fill="#000000" transform="matrix(1.00, 0.00, -0.00, -1.00, 219.5, 9.0)">о</text><text xml:space="preserve" font-family="AvenirNext-Regular" font-size="28.0" fill="#000000" transform="matrix(1.00, 0.00, -0.00, -1.00, 236.6, 9.0)">ч</text><text xml:space="preserve" font-family="AvenirNext-Regular" font-size="28.0" fill="#000000" transform="matrix(1.00, 0.00, -0.00, -1.00, 251.0, 9.0)">е</text><text xml:space="preserve" font-family="AvenirNext-Regular" font-size="28.0" fill="#000000" transform="matrix(1.00, 0.00, -0.00, -1.00, 267.0, 9.0)">н</text><text xml:space="preserve" font-family="AvenirNext-Regular" font-size="28.0" fill="#000000" transform="matrix(1.00, 0.00, -0.00, -1.00, 283.1, 9.0)">а</text><text xml:space="preserve" font-family="AvenirNext-Regular" font-size="28.0" fill="#000000" transform="matrix(1.00, 0.00, -0.00, -1.00, 298.1, 9.0)"> </text><text xml:space="preserve" font-family="AvenirNext-Regular" font-size="28.0" fill="#000000" transform="matrix(1.00, 0.00, -0.00, -1.00, 305.1, 9.0)">и</text><text xml:space="preserve" font-family="AvenirNext-Regular" font-size="28.0" fill="#000000" transform="matrix(1.00, 0.00, -0.00, -1.00, 321.9, 9.0)">н</text><text xml:space="preserve" font-family="AvenirNext-Regular" font-size="28.0" fill="#000000" transform="matrix(1.00, 0.00, -0.00, -1.00, 338.0, 9.0)">ф</text><text xml:space="preserve" font-family="AvenirNext-Regular" font-size="28.0" fill="#000000" transform="matrix(1.00, 0.00, -0.00, -1.00, 356.6, 9.0)">о</text><text xml:space="preserve" font-family="AvenirNext-Regular" font-size="28.0" fill="#000000" transform="matrix(1.00, 0.00, -0.00, -1.00, 373.8, 9.0)">р</text><text xml:space="preserve" font-family="AvenirNext-Regular" font-size="28.0" fill="#000000" transform="matrix(1.00, 0.00, -0.00, -1.00, 391.5, 9.0)">м</text><text xml:space="preserve" font-family="AvenirNext-Regular" font-size="28.0" fill="#000000" transform="matrix(1.00, 0.00, -0.00, -1.00, 411.0, 9.0)">а</text><text xml:space="preserve" font-family="AvenirNext-Regular" font-size="28.0" fill="#000000" transform="matrix(1.00, 0.00, -0.00, -1.00, 425.9, 9.0)">ц</text><text xml:space="preserve" font-family="AvenirNext-Regular" font-size="28.0" fill="#000000" transform="matrix(1.00, 0.00, -0.00, -1.00, 441.9, 9.0)">и</text><text xml:space="preserve" font-family="AvenirNext-Regular" font-size="28.0" fill="#000000" transform="matrix(1.00, 0.00, -0.00, -1.00, 458.7, 9.0)">я</text><text xml:space="preserve" font-family="AvenirNext-Regular" font-size="28.0" fill="#000000" transform="matrix(1.00, 0.00, -0.00, -1.00, 473.8, 9.0)">т</text><text xml:space="preserve" font-family="AvenirNext-Regular" font-size="28.0" fill="#000000" transform="matrix(1.00, 0.00, -0.00, -1.00, 485.9, 9.0)">а</text></g></svg>