<?xml version="1.0" encoding="UTF-8" standalone="no"?><svg xmlns="http://www.w3.org/2000/svg" xmlns:xlink="http://www.w3.org/1999/xlink" clip-rule="evenodd" stroke-miterlimit="4.00" viewBox="0 0 464 39"><desc>SVG generated by Keynote</desc><defs></defs><g transform="matrix(1.00, 0.00, -0.00, -1.00, 0.0, 39.0)"><text xml:space="preserve" font-family="AvenirNext-Regular" font-size="27.4" fill="#000000" transform="matrix(1.00, 0.00, -0.00, -1.00, 0.0, 10.8)">1</text><text xml:space="preserve" font-family="AvenirNext-Regular" font-size="27.4" fill="#000000" transform="matrix(1.00, 0.00, -0.00, -1.00, 15.9, 10.8)">.</text><text xml:space="preserve" font-family="AvenirNext-Regular" font-size="27.4" fill="#000000" transform="matrix(1.00, 0.00, -0.00, -1.00, 38.0, 11.0)">T</text><text xml:space="preserve" font-family="AvenirNext-Regular" font-size="27.4" fill="#000000" transform="matrix(1.00, 0.00, -0.00, -1.00, 53.3, 11.0)">i</text><text xml:space="preserve" font-family="AvenirNext-Regular" font-size="27.4" fill="#000000" transform="matrix(1.00, 0.00, -0.00, -1.00, 60.1, 11.0)">t</text><text xml:space="preserve" font-family="AvenirNext-Regular" font-size="27.4" fill="#000000" transform="matrix(1.00, 0.00, -0.00, -1.00, 68.8, 11.0)">l</text><text xml:space="preserve" font-family="AvenirNext-Regular" font-size="27.4" fill="#000000" transform="matrix(1.00, 0.00, -0.00, -1.00, 75.7, 11.0)">e</text><text xml:space="preserve" font-family="AvenirNext-Regular" font-size="27.4" fill="#000000" transform="matrix(1.00, 0.00, -0.00, -1.00, 91.3, 11.0)"> </text><text xml:space="preserve" font-family="AvenirNext-Regular" font-size="27.4" fill="#000000" transform="matrix(1.00, 0.00, -0.00, -1.00, 98.2, 11.0)">E</text><text xml:space="preserve" font-family="AvenirNext-Regular" font-size="27.4" fill="#000000" transform="matrix(1.00, 0.00, -0.00, -1.00, 114.4, 11.0)">l</text><text xml:space="preserve" font-family="AvenirNext-Regular" font-size="27.4" fill="#000000" transform="matrix(1.00, 0.00, -0.00, -1.00, 121.3, 11.0)">e</text><text xml:space="preserve" font-family="AvenirNext-Regular" font-size="27.4" fill="#000000" transform="matrix(1.00, 0.00, -0.00, -1.00, 136.9, 11.0)">m</text><text xml:space="preserve" font-family="AvenirNext-Regular" font-size="27.4" fill="#000000" transform="matrix(1.00, 0.00, -0.00, -1.00, 161.1, 11.0)">e</text><text xml:space="preserve" font-family="AvenirNext-Regular" font-size="27.4" fill="#000000" transform="matrix(1.00, 0.00, -0.00, -1.00, 176.7, 11.0)">n</text><text xml:space="preserve" font-family="AvenirNext-Regular" font-size="27.4" fill="#000000" transform="matrix(1.00, 0.00, -0.00, -1.00, 192.6, 11.0)">t</text><text xml:space="preserve" font-family="AvenirNext-Regular" font-size="27.4" fill="#000000" transform="matrix(1.00, 0.00, -0.00, -1.00, 201.3, 11.0)"> </text><text xml:space="preserve" font-family="AvenirNext-Regular" font-size="27.4" fill="#000000" transform="matrix(1.00, 0.00, -0.00, -1.00, 208.1, 11.0)">–</text><text xml:space="preserve" font-family="AvenirNext-Regular" font-size="27.4" fill="#000000" transform="matrix(1.00, 0.00, -0.00, -1.00, 219.1, 11.0)"> </text><text xml:space="preserve" font-family="AvenirNext-Regular" font-size="27.4" fill="#000000" transform="matrix(1.00, 0.00, -0.00, -1.00, 225.9, 11.0)">I</text><text xml:space="preserve" font-family="AvenirNext-Regular" font-size="27.4" fill="#000000" transform="matrix(1.00, 0.00, -0.00, -1.00, 233.0, 11.0)">m</text><text xml:space="preserve" font-family="AvenirNext-Regular" font-size="27.4" fill="#000000" transform="matrix(1.00, 0.00, -0.00, -1.00, 257.2, 11.0)">p</text><text xml:space="preserve" font-family="AvenirNext-Regular" font-size="27.4" fill="#000000" transform="matrix(1.00, 0.00, -0.00, -1.00, 274.6, 11.0)">o</text><text xml:space="preserve" font-family="AvenirNext-Regular" font-size="27.4" fill="#000000" transform="matrix(1.00, 0.00, -0.00, -1.00, 291.3, 11.0)">r</text><text xml:space="preserve" font-family="AvenirNext-Regular" font-size="27.4" fill="#000000" transform="matrix(1.00, 0.00, -0.00, -1.00, 300.8, 11.0)">t</text><text xml:space="preserve" font-family="AvenirNext-Regular" font-size="27.4" fill="#000000" transform="matrix(1.00, 0.00, -0.00, -1.00, 309.5, 11.0)">a</text><text xml:space="preserve" font-family="AvenirNext-Regular" font-size="27.4" fill="#000000" transform="matrix(1.00, 0.00, -0.00, -1.00, 324.1, 11.0)">n</text><text xml:space="preserve" font-family="AvenirNext-Regular" font-size="27.4" fill="#000000" transform="matrix(1.00, 0.00, -0.00, -1.00, 340.0, 11.0)">t</text><text xml:space="preserve" font-family="AvenirNext-Regular" font-size="27.4" fill="#000000" transform="matrix(1.00, 0.00, -0.00, -1.00, 348.6, 11.0)"> </text><text xml:space="preserve" font-family="AvenirNext-Regular" font-size="27.4" fill="#000000" transform="matrix(1.00, 0.00, -0.00, -1.00, 355.5, 11.0)">–</text><text xml:space="preserve" font-family="AvenirNext-Regular" font-size="27.4" fill="#000000" transform="matrix(1.00, 0.00, -0.00, -1.00, 366.4, 11.0)"> </text><text xml:space="preserve" font-family="AvenirNext-Regular" font-size="27.4" fill="#000000" transform="matrix(1.00, 0.00, -0.00, -1.00, 373.3, 11.0)">U</text><text xml:space="preserve" font-family="AvenirNext-Regular" font-size="27.4" fill="#000000" transform="matrix(1.00, 0.00, -0.00, -1.00, 392.7, 11.0)">n</text><text xml:space="preserve" font-family="AvenirNext-Regular" font-size="27.4" fill="#000000" transform="matrix(1.00, 0.00, -0.00, -1.00, 408.6, 11.0)">i</text><text xml:space="preserve" font-family="AvenirNext-Regular" font-size="27.4" fill="#000000" transform="matrix(1.00, 0.00, -0.00, -1.00, 415.4, 11.0)">q</text><text xml:space="preserve" font-family="AvenirNext-Regular" font-size="27.4" fill="#000000" transform="matrix(1.00, 0.00, -0.00, -1.00, 432.8, 11.0)">u</text><text xml:space="preserve" font-family="AvenirNext-Regular" font-size="27.4" fill="#000000" transform="matrix(1.00, 0.00, -0.00, -1.00, 448.7, 11.0)">e</text></g></svg>