<?xml version="1.0" encoding="UTF-8" standalone="no"?><svg xmlns="http://www.w3.org/2000/svg" xmlns:xlink="http://www.w3.org/1999/xlink" clip-rule="evenodd" stroke-miterlimit="4.00" viewBox="0 0 406 38"><desc>SVG generated by Keynote</desc><defs></defs><g transform="matrix(1.00, 0.00, -0.00, -1.00, 0.0, 38.0)"><text xml:space="preserve" font-family="AvenirNext-Regular" font-size="27.4" fill="#000000" transform="matrix(1.00, 0.00, -0.00, -1.00, 0.0, 10.1)">3</text><text xml:space="preserve" font-family="AvenirNext-Regular" font-size="27.4" fill="#000000" transform="matrix(1.00, 0.00, -0.00, -1.00, 15.9, 10.1)">.</text><text xml:space="preserve" font-family="AvenirNext-Regular" font-size="27.4" fill="#000000" transform="matrix(1.00, 0.00, -0.00, -1.00, 38.0, 10.0)">R</text><text xml:space="preserve" font-family="AvenirNext-Regular" font-size="27.4" fill="#000000" transform="matrix(1.00, 0.00, -0.00, -1.00, 54.1, 10.0)">o</text><text xml:space="preserve" font-family="AvenirNext-Regular" font-size="27.4" fill="#000000" transform="matrix(1.00, 0.00, -0.00, -1.00, 70.8, 10.0)">b</text><text xml:space="preserve" font-family="AvenirNext-Regular" font-size="27.4" fill="#000000" transform="matrix(1.00, 0.00, -0.00, -1.00, 88.2, 10.0)">o</text><text xml:space="preserve" font-family="AvenirNext-Regular" font-size="27.4" fill="#000000" transform="matrix(1.00, 0.00, -0.00, -1.00, 104.9, 10.0)">t</text><text xml:space="preserve" font-family="AvenirNext-Regular" font-size="27.4" fill="#000000" transform="matrix(1.00, 0.00, -0.00, -1.00, 113.6, 10.0)">s</text><text xml:space="preserve" font-family="AvenirNext-Regular" font-size="27.4" fill="#000000" transform="matrix(1.00, 0.00, -0.00, -1.00, 125.7, 10.0)"> </text><text xml:space="preserve" font-family="AvenirNext-Regular" font-size="27.4" fill="#000000" transform="matrix(1.00, 0.00, -0.00, -1.00, 132.6, 10.0)">(</text><text xml:space="preserve" font-family="AvenirNext-Regular" font-size="27.4" fill="#000000" transform="matrix(1.00, 0.00, -0.00, -1.00, 140.8, 10.0)">o</text><text xml:space="preserve" font-family="AvenirNext-Regular" font-size="27.4" fill="#000000" transform="matrix(1.00, 0.00, -0.00, -1.00, 157.5, 10.0)">p</text><text xml:space="preserve" font-family="AvenirNext-Regular" font-size="27.4" fill="#000000" transform="matrix(1.00, 0.00, -0.00, -1.00, 174.9, 10.0)">t</text><text xml:space="preserve" font-family="AvenirNext-Regular" font-size="27.4" fill="#000000" transform="matrix(1.00, 0.00, -0.00, -1.00, 183.6, 10.0)">i</text><text xml:space="preserve" font-family="AvenirNext-Regular" font-size="27.4" fill="#000000" transform="matrix(1.00, 0.00, -0.00, -1.00, 190.4, 10.0)">o</text><text xml:space="preserve" font-family="AvenirNext-Regular" font-size="27.4" fill="#000000" transform="matrix(1.00, 0.00, -0.00, -1.00, 207.1, 10.0)">n</text><text xml:space="preserve" font-family="AvenirNext-Regular" font-size="27.4" fill="#000000" transform="matrix(1.00, 0.00, -0.00, -1.00, 223.0, 10.0)">a</text><text xml:space="preserve" font-family="AvenirNext-Regular" font-size="27.4" fill="#000000" transform="matrix(1.00, 0.00, -0.00, -1.00, 237.6, 10.0)">l</text><text xml:space="preserve" font-family="AvenirNext-Regular" font-size="27.4" fill="#000000" transform="matrix(1.00, 0.00, -0.00, -1.00, 244.5, 10.0)">)</text><text xml:space="preserve" font-family="AvenirNext-Regular" font-size="27.4" fill="#000000" transform="matrix(1.00, 0.00, -0.00, -1.00, 252.7, 10.0)"> </text><text xml:space="preserve" font-family="AvenirNext-Regular" font-size="27.4" fill="#000000" transform="matrix(1.00, 0.00, -0.00, -1.00, 259.6, 10.0)">–</text><text xml:space="preserve" font-family="AvenirNext-Regular" font-size="27.4" fill="#000000" transform="matrix(1.00, 0.00, -0.00, -1.00, 270.5, 10.0)"> </text><text xml:space="preserve" font-family="AvenirNext-Regular" font-size="27.4" fill="#000000" transform="matrix(1.00, 0.00, -0.00, -1.00, 277.3, 10.0)">B</text><text xml:space="preserve" font-family="AvenirNext-Regular" font-size="27.4" fill="#000000" transform="matrix(1.00, 0.00, -0.00, -1.00, 294.7, 10.0)">e</text><text xml:space="preserve" font-family="AvenirNext-Regular" font-size="27.4" fill="#000000" transform="matrix(1.00, 0.00, -0.00, -1.00, 310.4, 10.0)"> </text><text xml:space="preserve" font-family="AvenirNext-Regular" font-size="27.4" fill="#000000" transform="matrix(1.00, 0.00, -0.00, -1.00, 317.2, 10.0)">C</text><text xml:space="preserve" font-family="AvenirNext-Regular" font-size="27.4" fill="#000000" transform="matrix(1.00, 0.00, -0.00, -1.00, 336.4, 10.0)">a</text><text xml:space="preserve" font-family="AvenirNext-Regular" font-size="27.4" fill="#000000" transform="matrix(1.00, 0.00, -0.00, -1.00, 351.1, 10.0)">r</text><text xml:space="preserve" font-family="AvenirNext-Regular" font-size="27.4" fill="#000000" transform="matrix(1.00, 0.00, -0.00, -1.00, 360.4, 10.0)">e</text><text xml:space="preserve" font-family="AvenirNext-Regular" font-size="27.4" fill="#000000" transform="matrix(1.00, 0.00, -0.00, -1.00, 376.1, 10.0)">f</text><text xml:space="preserve" font-family="AvenirNext-Regular" font-size="27.4" fill="#000000" transform="matrix(1.00, 0.00, -0.00, -1.00, 384.1, 10.0)">u</text><text xml:space="preserve" font-family="AvenirNext-Regular" font-size="27.4" fill="#000000" transform="matrix(1.00, 0.00, -0.00, -1.00, 400.0, 10.0)">l</text></g></svg>