<?xml version="1.0" encoding="UTF-8" standalone="no"?><svg xmlns="http://www.w3.org/2000/svg" xmlns:xlink="http://www.w3.org/1999/xlink" clip-rule="evenodd" stroke-miterlimit="4.00" viewBox="0 0 149 39"><desc>SVG generated by Keynote</desc><defs></defs><g transform="matrix(1.00, 0.00, -0.00, -1.00, 0.0, 39.0)"><text xml:space="preserve" font-family="AvenirNext-Regular" font-size="27.4" fill="#000000" transform="matrix(1.00, 0.00, -0.00, -1.00, 0.0, 10.8)">4</text><text xml:space="preserve" font-family="AvenirNext-Regular" font-size="27.4" fill="#000000" transform="matrix(1.00, 0.00, -0.00, -1.00, 15.9, 10.8)">.</text><text xml:space="preserve" font-family="AvenirNext-Regular" font-size="27.4" fill="#000000" transform="matrix(1.00, 0.00, -0.00, -1.00, 38.0, 11.0)">C</text><text xml:space="preserve" font-family="AvenirNext-Regular" font-size="27.4" fill="#000000" transform="matrix(1.00, 0.00, -0.00, -1.00, 57.4, 11.0)">o</text><text xml:space="preserve" font-family="AvenirNext-Regular" font-size="27.4" fill="#000000" transform="matrix(1.00, 0.00, -0.00, -1.00, 74.1, 11.0)">n</text><text xml:space="preserve" font-family="AvenirNext-Regular" font-size="27.4" fill="#000000" transform="matrix(1.00, 0.00, -0.00, -1.00, 90.0, 11.0)">t</text><text xml:space="preserve" font-family="AvenirNext-Regular" font-size="27.4" fill="#000000" transform="matrix(1.00, 0.00, -0.00, -1.00, 98.7, 11.0)">e</text><text xml:space="preserve" font-family="AvenirNext-Regular" font-size="27.4" fill="#000000" transform="matrix(1.00, 0.00, -0.00, -1.00, 114.3, 11.0)">n</text><text xml:space="preserve" font-family="AvenirNext-Regular" font-size="27.4" fill="#000000" transform="matrix(1.00, 0.00, -0.00, -1.00, 130.2, 11.0)">t</text><text xml:space="preserve" font-family="AvenirNext-Regular" font-size="27.4" fill="#000000" transform="matrix(1.00, 0.00, -0.00, -1.00, 138.9, 11.0)">!</text><text xml:space="preserve" font-family="LucidaGrande" font-size="27.4" fill="#000000" transform="matrix(1.00, 0.00, -0.00, -1.00, 147.9, 11.0)"> </text></g></svg>