<?xml version="1.0" encoding="UTF-8" standalone="no"?><svg xmlns="http://www.w3.org/2000/svg" xmlns:xlink="http://www.w3.org/1999/xlink" clip-rule="evenodd" stroke-miterlimit="4.00" viewBox="0 0 1024 768"><desc>SVG generated by Keynote</desc><defs></defs><g transform="matrix(1.00, 0.00, -0.00, -1.00, 0.0, 768.0)"><g><clipPath id="clip-409"><path d="M 0.0 768.0 L 1024.0 768.0 L 1024.0 0.0 L 0.0 0.0 Z M 0.0 768.0 "></path></clipPath><g clip-path="url(#clip-409)"><image xlink:href="../../F3A67573-A2F2-4CB0-9E39-F1DCDA2903A2/assets/AC39DDDA7F4B68AA81B60DCA4AD5F611.png" width="864.00" height="540.00" transform="matrix(1.19, 0.00, -0.00, -1.42, 0.0, 768.0)"></image></g></g><text xml:space="preserve" font-family="CourierNewPS-BoldMT" font-weight="bold" font-size="64.8" fill="#000000" transform="matrix(1.00, 0.00, -0.00, -1.00, 463.0, 481.0)">C</text><text xml:space="preserve" font-family="CourierNewPS-BoldMT" font-weight="bold" font-size="64.8" fill="#000000" transform="matrix(1.00, 0.00, -0.00, -1.00, 501.9, 481.0)">S</text><text xml:space="preserve" font-family="CourierNewPS-BoldMT" font-weight="bold" font-size="64.8" fill="#000000" transform="matrix(1.00, 0.00, -0.00, -1.00, 540.8, 481.0)">S</text><text xml:space="preserve" font-family="CourierNewPS-BoldMT" font-weight="bold" font-size="29.0" fill="#000000" transform="matrix(1.00, 0.00, -0.00, -1.00, 164.0, 376.0)">&lt;</text><text xml:space="preserve" font-family="CourierNewPS-BoldMT" font-weight="bold" font-size="29.0" fill="#000000" transform="matrix(1.00, 0.00, -0.00, -1.00, 181.4, 376.0)">l</text><text xml:space="preserve" font-family="CourierNewPS-BoldMT" font-weight="bold" font-size="29.0" fill="#000000" transform="matrix(1.00, 0.00, -0.00, -1.00, 198.8, 376.0)">i</text><text xml:space="preserve" font-family="CourierNewPS-BoldMT" font-weight="bold" font-size="29.0" fill="#000000" transform="matrix(1.00, 0.00, -0.00, -1.00, 216.2, 376.0)">n</text><text xml:space="preserve" font-family="CourierNewPS-BoldMT" font-weight="bold" font-size="29.0" fill="#000000" transform="matrix(1.00, 0.00, -0.00, -1.00, 233.6, 376.0)">k</text><text xml:space="preserve" font-family="CourierNewPS-BoldMT" font-weight="bold" font-size="29.0" fill="#000000" transform="matrix(1.00, 0.00, -0.00, -1.00, 251.0, 376.0)"> </text><text xml:space="preserve" font-family="CourierNewPS-BoldMT" font-weight="bold" font-size="29.0" fill="#000000" transform="matrix(1.00, 0.00, -0.00, -1.00, 268.4, 376.0)">r</text><text xml:space="preserve" font-family="CourierNewPS-BoldMT" font-weight="bold" font-size="29.0" fill="#000000" transform="matrix(1.00, 0.00, -0.00, -1.00, 285.8, 376.0)">e</text><text xml:space="preserve" font-family="CourierNewPS-BoldMT" font-weight="bold" font-size="29.0" fill="#000000" transform="matrix(1.00, 0.00, -0.00, -1.00, 303.2, 376.0)">l</text><text xml:space="preserve" font-family="CourierNewPS-BoldMT" font-weight="bold" font-size="29.0" fill="#000000" transform="matrix(1.00, 0.00, -0.00, -1.00, 320.7, 376.0)">=</text><text xml:space="preserve" font-family="CourierNewPS-BoldMT" font-weight="bold" font-size="29.0" fill="#000000" transform="matrix(1.00, 0.00, -0.00, -1.00, 338.1, 376.0)">"</text><text xml:space="preserve" font-family="CourierNewPS-BoldMT" font-weight="bold" font-size="29.0" fill="#000000" transform="matrix(1.00, 0.00, -0.00, -1.00, 355.5, 376.0)">s</text><text xml:space="preserve" font-family="CourierNewPS-BoldMT" font-weight="bold" font-size="29.0" fill="#000000" transform="matrix(1.00, 0.00, -0.00, -1.00, 372.9, 376.0)">t</text><text xml:space="preserve" font-family="CourierNewPS-BoldMT" font-weight="bold" font-size="29.0" fill="#000000" transform="matrix(1.00, 0.00, -0.00, -1.00, 390.3, 376.0)">y</text><text xml:space="preserve" font-family="CourierNewPS-BoldMT" font-weight="bold" font-size="29.0" fill="#000000" transform="matrix(1.00, 0.00, -0.00, -1.00, 407.7, 376.0)">l</text><text xml:space="preserve" font-family="CourierNewPS-BoldMT" font-weight="bold" font-size="29.0" fill="#000000" transform="matrix(1.00, 0.00, -0.00, -1.00, 425.1, 376.0)">e</text><text xml:space="preserve" font-family="CourierNewPS-BoldMT" font-weight="bold" font-size="29.0" fill="#000000" transform="matrix(1.00, 0.00, -0.00, -1.00, 442.5, 376.0)">s</text><text xml:space="preserve" font-family="CourierNewPS-BoldMT" font-weight="bold" font-size="29.0" fill="#000000" transform="matrix(1.00, 0.00, -0.00, -1.00, 459.9, 376.0)">h</text><text xml:space="preserve" font-family="CourierNewPS-BoldMT" font-weight="bold" font-size="29.0" fill="#000000" transform="matrix(1.00, 0.00, -0.00, -1.00, 477.3, 376.0)">e</text><text xml:space="preserve" font-family="CourierNewPS-BoldMT" font-weight="bold" font-size="29.0" fill="#000000" transform="matrix(1.00, 0.00, -0.00, -1.00, 494.7, 376.0)">e</text><text xml:space="preserve" font-family="CourierNewPS-BoldMT" font-weight="bold" font-size="29.0" fill="#000000" transform="matrix(1.00, 0.00, -0.00, -1.00, 512.1, 376.0)">t</text><text xml:space="preserve" font-family="CourierNewPS-BoldMT" font-weight="bold" font-size="29.0" fill="#000000" transform="matrix(1.00, 0.00, -0.00, -1.00, 529.5, 376.0)">"</text><text xml:space="preserve" font-family="CourierNewPS-BoldMT" font-weight="bold" font-size="29.0" fill="#000000" transform="matrix(1.00, 0.00, -0.00, -1.00, 546.9, 376.0)"> </text><text xml:space="preserve" font-family="CourierNewPS-BoldMT" font-weight="bold" font-size="29.0" fill="#000000" transform="matrix(1.00, 0.00, -0.00, -1.00, 564.3, 376.0)">h</text><text xml:space="preserve" font-family="CourierNewPS-BoldMT" font-weight="bold" font-size="29.0" fill="#000000" transform="matrix(1.00, 0.00, -0.00, -1.00, 581.7, 376.0)">r</text><text xml:space="preserve" font-family="CourierNewPS-BoldMT" font-weight="bold" font-size="29.0" fill="#000000" transform="matrix(1.00, 0.00, -0.00, -1.00, 599.1, 376.0)">e</text><text xml:space="preserve" font-family="CourierNewPS-BoldMT" font-weight="bold" font-size="29.0" fill="#000000" transform="matrix(1.00, 0.00, -0.00, -1.00, 616.5, 376.0)">f</text><text xml:space="preserve" font-family="CourierNewPS-BoldMT" font-weight="bold" font-size="29.0" fill="#000000" transform="matrix(1.00, 0.00, -0.00, -1.00, 634.0, 376.0)">=</text><text xml:space="preserve" font-family="CourierNewPS-BoldMT" font-weight="bold" font-size="29.0" fill="#000000" transform="matrix(1.00, 0.00, -0.00, -1.00, 651.4, 376.0)">"</text><text xml:space="preserve" font-family="CourierNewPS-BoldMT" font-weight="bold" font-size="29.0" fill="#000000" transform="matrix(1.00, 0.00, -0.00, -1.00, 668.8, 376.0)">s</text><text xml:space="preserve" font-family="CourierNewPS-BoldMT" font-weight="bold" font-size="29.0" fill="#000000" transform="matrix(1.00, 0.00, -0.00, -1.00, 686.2, 376.0)">t</text><text xml:space="preserve" font-family="CourierNewPS-BoldMT" font-weight="bold" font-size="29.0" fill="#000000" transform="matrix(1.00, 0.00, -0.00, -1.00, 703.6, 376.0)">y</text><text xml:space="preserve" font-family="CourierNewPS-BoldMT" font-weight="bold" font-size="29.0" fill="#000000" transform="matrix(1.00, 0.00, -0.00, -1.00, 721.0, 376.0)">l</text><text xml:space="preserve" font-family="CourierNewPS-BoldMT" font-weight="bold" font-size="29.0" fill="#000000" transform="matrix(1.00, 0.00, -0.00, -1.00, 738.4, 376.0)">e</text><text xml:space="preserve" font-family="CourierNewPS-BoldMT" font-weight="bold" font-size="29.0" fill="#000000" transform="matrix(1.00, 0.00, -0.00, -1.00, 755.8, 376.0)">.</text><text xml:space="preserve" font-family="CourierNewPS-BoldMT" font-weight="bold" font-size="29.0" fill="#000000" transform="matrix(1.00, 0.00, -0.00, -1.00, 773.2, 376.0)">c</text><text xml:space="preserve" font-family="CourierNewPS-BoldMT" font-weight="bold" font-size="29.0" fill="#000000" transform="matrix(1.00, 0.00, -0.00, -1.00, 790.6, 376.0)">s</text><text xml:space="preserve" font-family="CourierNewPS-BoldMT" font-weight="bold" font-size="29.0" fill="#000000" transform="matrix(1.00, 0.00, -0.00, -1.00, 808.0, 376.0)">s</text><text xml:space="preserve" font-family="CourierNewPS-BoldMT" font-weight="bold" font-size="29.0" fill="#000000" transform="matrix(1.00, 0.00, -0.00, -1.00, 825.4, 376.0)">"</text><text xml:space="preserve" font-family="CourierNewPS-BoldMT" font-weight="bold" font-size="29.0" fill="#000000" transform="matrix(1.00, 0.00, -0.00, -1.00, 842.8, 376.0)">&gt;</text></g></svg>