<?xml version="1.0" encoding="UTF-8" standalone="no"?><svg xmlns="http://www.w3.org/2000/svg" xmlns:xlink="http://www.w3.org/1999/xlink" clip-rule="evenodd" stroke-miterlimit="4.00" viewBox="0 0 324 30"><desc>SVG generated by Keynote</desc><defs></defs><g transform="matrix(1.00, 0.00, -0.00, -1.00, 0.0, 30.0)"><text xml:space="preserve" font-family="AvenirNext-Regular" font-size="19.7" fill="#000000" transform="matrix(1.00, 0.00, -0.00, -1.00, 0.0, 10.2)">•</text><text xml:space="preserve" font-family="AvenirNext-Regular" font-size="26.2" fill="#000000" transform="matrix(1.00, 0.00, -0.00, -1.00, 22.0, 8.0)">r</text><text xml:space="preserve" font-family="AvenirNext-Regular" font-size="26.2" fill="#000000" transform="matrix(1.00, 0.00, -0.00, -1.00, 31.0, 8.0)">o</text><text xml:space="preserve" font-family="AvenirNext-Regular" font-size="26.2" fill="#000000" transform="matrix(1.00, 0.00, -0.00, -1.00, 47.0, 8.0)">t</text><text xml:space="preserve" font-family="AvenirNext-Regular" font-size="26.2" fill="#000000" transform="matrix(1.00, 0.00, -0.00, -1.00, 55.3, 8.0)">a</text><text xml:space="preserve" font-family="AvenirNext-Regular" font-size="26.2" fill="#000000" transform="matrix(1.00, 0.00, -0.00, -1.00, 69.1, 8.0)">t</text><text xml:space="preserve" font-family="AvenirNext-Regular" font-size="26.2" fill="#000000" transform="matrix(1.00, 0.00, -0.00, -1.00, 77.4, 8.0)">e</text><text xml:space="preserve" font-family="AvenirNext-Regular" font-size="26.2" fill="#000000" transform="matrix(1.00, 0.00, -0.00, -1.00, 92.4, 8.0)">(</text><text xml:space="preserve" font-family="AvenirNext-Regular" font-size="26.2" fill="#000000" transform="matrix(1.00, 0.00, -0.00, -1.00, 100.3, 8.0)">a</text><text xml:space="preserve" font-family="AvenirNext-Regular" font-size="26.2" fill="#000000" transform="matrix(1.00, 0.00, -0.00, -1.00, 114.3, 8.0)">n</text><text xml:space="preserve" font-family="AvenirNext-Regular" font-size="26.2" fill="#000000" transform="matrix(1.00, 0.00, -0.00, -1.00, 129.5, 8.0)">g</text><text xml:space="preserve" font-family="AvenirNext-Regular" font-size="26.2" fill="#000000" transform="matrix(1.00, 0.00, -0.00, -1.00, 146.1, 8.0)">l</text><text xml:space="preserve" font-family="AvenirNext-Regular" font-size="26.2" fill="#000000" transform="matrix(1.00, 0.00, -0.00, -1.00, 152.7, 8.0)">e</text><text xml:space="preserve" font-family="AvenirNext-Regular" font-size="26.2" fill="#000000" transform="matrix(1.00, 0.00, -0.00, -1.00, 167.7, 8.0)">)</text><text xml:space="preserve" font-family="AvenirNext-Regular" font-size="26.2" fill="#000000" transform="matrix(1.00, 0.00, -0.00, -1.00, 175.6, 8.0)"> </text><text xml:space="preserve" font-family="AvenirNext-Regular" font-size="26.2" fill="#000000" transform="matrix(1.00, 0.00, -0.00, -1.00, 182.2, 8.0)">-</text><text xml:space="preserve" font-family="AvenirNext-Regular" font-size="26.2" fill="#000000" transform="matrix(1.00, 0.00, -0.00, -1.00, 190.6, 8.0)"> </text><text xml:space="preserve" font-family="AvenirNext-Regular" font-size="26.2" fill="#000000" transform="matrix(1.00, 0.00, -0.00, -1.00, 197.1, 8.0)">з</text><text xml:space="preserve" font-family="AvenirNext-Regular" font-size="26.2" fill="#000000" transform="matrix(1.00, 0.00, -0.00, -1.00, 209.3, 8.0)">а</text><text xml:space="preserve" font-family="AvenirNext-Regular" font-size="26.2" fill="#000000" transform="matrix(1.00, 0.00, -0.00, -1.00, 223.3, 8.0)">в</text><text xml:space="preserve" font-family="AvenirNext-Regular" font-size="26.2" fill="#000000" transform="matrix(1.00, 0.00, -0.00, -1.00, 237.5, 8.0)">ъ</text><text xml:space="preserve" font-family="AvenirNext-Regular" font-size="26.2" fill="#000000" transform="matrix(1.00, 0.00, -0.00, -1.00, 252.0, 8.0)">р</text><text xml:space="preserve" font-family="AvenirNext-Regular" font-size="26.2" fill="#000000" transform="matrix(1.00, 0.00, -0.00, -1.00, 268.6, 8.0)">т</text><text xml:space="preserve" font-family="AvenirNext-Regular" font-size="26.2" fill="#000000" transform="matrix(1.00, 0.00, -0.00, -1.00, 279.9, 8.0)">а</text><text xml:space="preserve" font-family="AvenirNext-Regular" font-size="26.2" fill="#000000" transform="matrix(1.00, 0.00, -0.00, -1.00, 294.0, 8.0)">н</text><text xml:space="preserve" font-family="AvenirNext-Regular" font-size="26.2" fill="#000000" transform="matrix(1.00, 0.00, -0.00, -1.00, 309.0, 8.0)">е</text></g></svg>