<?xml version="1.0" encoding="UTF-8" standalone="no"?><svg xmlns="http://www.w3.org/2000/svg" xmlns:xlink="http://www.w3.org/1999/xlink" clip-rule="evenodd" stroke-miterlimit="4.00" viewBox="0 0 432 30"><desc>SVG generated by Keynote</desc><defs></defs><g transform="matrix(1.00, 0.00, -0.00, -1.00, 0.0, 30.0)"><text xml:space="preserve" font-family="AvenirNext-Regular" font-size="19.7" fill="#000000" transform="matrix(1.00, 0.00, -0.00, -1.00, 0.0, 9.9)">•</text><text xml:space="preserve" font-family="AvenirNext-Regular" font-size="26.2" fill="#000000" transform="matrix(1.00, 0.00, -0.00, -1.00, 22.0, 8.0)">s</text><text xml:space="preserve" font-family="AvenirNext-Regular" font-size="26.2" fill="#000000" transform="matrix(1.00, 0.00, -0.00, -1.00, 33.7, 8.0)">k</text><text xml:space="preserve" font-family="AvenirNext-Regular" font-size="26.2" fill="#000000" transform="matrix(1.00, 0.00, -0.00, -1.00, 46.6, 8.0)">e</text><text xml:space="preserve" font-family="AvenirNext-Regular" font-size="26.2" fill="#000000" transform="matrix(1.00, 0.00, -0.00, -1.00, 61.6, 8.0)">w</text><text xml:space="preserve" font-family="AvenirNext-Regular" font-size="26.2" fill="#000000" transform="matrix(1.00, 0.00, -0.00, -1.00, 81.1, 8.0)">(</text><text xml:space="preserve" font-family="AvenirNext-Regular" font-size="26.2" fill="#000000" transform="matrix(1.00, 0.00, -0.00, -1.00, 89.0, 8.0)">x</text><text xml:space="preserve" font-family="AvenirNext-Regular" font-size="26.2" fill="#000000" transform="matrix(1.00, 0.00, -0.00, -1.00, 101.4, 8.0)">-</text><text xml:space="preserve" font-family="AvenirNext-Regular" font-size="26.2" fill="#000000" transform="matrix(1.00, 0.00, -0.00, -1.00, 109.8, 8.0)">a</text><text xml:space="preserve" font-family="AvenirNext-Regular" font-size="26.2" fill="#000000" transform="matrix(1.00, 0.00, -0.00, -1.00, 123.8, 8.0)">n</text><text xml:space="preserve" font-family="AvenirNext-Regular" font-size="26.2" fill="#000000" transform="matrix(1.00, 0.00, -0.00, -1.00, 139.1, 8.0)">g</text><text xml:space="preserve" font-family="AvenirNext-Regular" font-size="26.2" fill="#000000" transform="matrix(1.00, 0.00, -0.00, -1.00, 155.6, 8.0)">l</text><text xml:space="preserve" font-family="AvenirNext-Regular" font-size="26.2" fill="#000000" transform="matrix(1.00, 0.00, -0.00, -1.00, 162.3, 8.0)">e</text><text xml:space="preserve" font-family="AvenirNext-Regular" font-size="26.2" fill="#000000" transform="matrix(1.00, 0.00, -0.00, -1.00, 177.3, 8.0)">,</text><text xml:space="preserve" font-family="AvenirNext-Regular" font-size="26.2" fill="#000000" transform="matrix(1.00, 0.00, -0.00, -1.00, 184.1, 8.0)">y</text><text xml:space="preserve" font-family="AvenirNext-Regular" font-size="26.2" fill="#000000" transform="matrix(1.00, 0.00, -0.00, -1.00, 196.9, 8.0)">-</text><text xml:space="preserve" font-family="AvenirNext-Regular" font-size="26.2" fill="#000000" transform="matrix(1.00, 0.00, -0.00, -1.00, 205.3, 8.0)">a</text><text xml:space="preserve" font-family="AvenirNext-Regular" font-size="26.2" fill="#000000" transform="matrix(1.00, 0.00, -0.00, -1.00, 219.3, 8.0)">n</text><text xml:space="preserve" font-family="AvenirNext-Regular" font-size="26.2" fill="#000000" transform="matrix(1.00, 0.00, -0.00, -1.00, 234.5, 8.0)">g</text><text xml:space="preserve" font-family="AvenirNext-Regular" font-size="26.2" fill="#000000" transform="matrix(1.00, 0.00, -0.00, -1.00, 251.1, 8.0)">l</text><text xml:space="preserve" font-family="AvenirNext-Regular" font-size="26.2" fill="#000000" transform="matrix(1.00, 0.00, -0.00, -1.00, 257.7, 8.0)">e</text><text xml:space="preserve" font-family="AvenirNext-Regular" font-size="26.2" fill="#000000" transform="matrix(1.00, 0.00, -0.00, -1.00, 272.7, 8.0)">)</text><text xml:space="preserve" font-family="AvenirNext-Regular" font-size="26.2" fill="#000000" transform="matrix(1.00, 0.00, -0.00, -1.00, 280.6, 8.0)"> </text><text xml:space="preserve" font-family="AvenirNext-Regular" font-size="26.2" fill="#000000" transform="matrix(1.00, 0.00, -0.00, -1.00, 287.2, 8.0)">-</text><text xml:space="preserve" font-family="AvenirNext-Regular" font-size="26.2" fill="#000000" transform="matrix(1.00, 0.00, -0.00, -1.00, 295.6, 8.0)"> </text><text xml:space="preserve" font-family="AvenirNext-Regular" font-size="26.2" fill="#000000" transform="matrix(1.00, 0.00, -0.00, -1.00, 302.1, 8.0)">н</text><text xml:space="preserve" font-family="AvenirNext-Regular" font-size="26.2" fill="#000000" transform="matrix(1.00, 0.00, -0.00, -1.00, 317.2, 8.0)">а</text><text xml:space="preserve" font-family="AvenirNext-Regular" font-size="26.2" fill="#000000" transform="matrix(1.00, 0.00, -0.00, -1.00, 331.2, 8.0)">к</text><text xml:space="preserve" font-family="AvenirNext-Regular" font-size="26.2" fill="#000000" transform="matrix(1.00, 0.00, -0.00, -1.00, 345.5, 8.0)">л</text><text xml:space="preserve" font-family="AvenirNext-Regular" font-size="26.2" fill="#000000" transform="matrix(1.00, 0.00, -0.00, -1.00, 358.5, 8.0)">а</text><text xml:space="preserve" font-family="AvenirNext-Regular" font-size="26.2" fill="#000000" transform="matrix(1.00, 0.00, -0.00, -1.00, 372.5, 8.0)">н</text><text xml:space="preserve" font-family="AvenirNext-Regular" font-size="26.2" fill="#000000" transform="matrix(1.00, 0.00, -0.00, -1.00, 387.6, 8.0)">я</text><text xml:space="preserve" font-family="AvenirNext-Regular" font-size="26.2" fill="#000000" transform="matrix(1.00, 0.00, -0.00, -1.00, 401.8, 8.0)">н</text><text xml:space="preserve" font-family="AvenirNext-Regular" font-size="26.2" fill="#000000" transform="matrix(1.00, 0.00, -0.00, -1.00, 416.9, 8.0)">е</text></g></svg>