<?xml version="1.0" encoding="UTF-8" standalone="no"?><svg xmlns="http://www.w3.org/2000/svg" xmlns:xlink="http://www.w3.org/1999/xlink" clip-rule="evenodd" stroke-miterlimit="4.00" viewBox="0 0 859 67"><desc>SVG generated by Keynote</desc><defs></defs><g transform="matrix(1.00, 0.00, -0.00, -1.00, 0.0, 67.0)"><text xml:space="preserve" font-family="AvenirNext-MediumItalic" font-style="italic" font-size="19.7" fill="#000000" transform="matrix(1.00, 0.00, -0.00, -1.00, 0.0, 46.4)">•</text><text xml:space="preserve" font-family="AvenirNext-MediumItalic" font-style="italic" font-size="26.2" fill="#000000" transform="matrix(1.00, 0.00, -0.00, -1.00, 22.0, 44.0)">В</text><text xml:space="preserve" font-family="AvenirNext-MediumItalic" font-style="italic" font-size="26.2" fill="#000000" transform="matrix(1.00, 0.00, -0.00, -1.00, 38.9, 44.0)">а</text><text xml:space="preserve" font-family="AvenirNext-MediumItalic" font-style="italic" font-size="26.2" fill="#000000" transform="matrix(1.00, 0.00, -0.00, -1.00, 53.1, 44.0)">ж</text><text xml:space="preserve" font-family="AvenirNext-MediumItalic" font-style="italic" font-size="26.2" fill="#000000" transform="matrix(1.00, 0.00, -0.00, -1.00, 74.4, 44.0)">н</text><text xml:space="preserve" font-family="AvenirNext-MediumItalic" font-style="italic" font-size="26.2" fill="#000000" transform="matrix(1.00, 0.00, -0.00, -1.00, 90.2, 44.0)">о</text><text xml:space="preserve" font-family="AvenirNext-MediumItalic" font-style="italic" font-size="26.2" fill="#000000" transform="matrix(1.00, 0.00, -0.00, -1.00, 106.4, 44.0)">:</text><text xml:space="preserve" font-family="AvenirNext-MediumItalic" font-style="italic" font-size="26.2" fill="#000000" transform="matrix(1.00, 0.00, -0.00, -1.00, 114.3, 44.0)"> </text><text xml:space="preserve" font-family="AvenirNext-MediumItalic" font-style="italic" font-size="26.2" fill="#000000" transform="matrix(1.00, 0.00, -0.00, -1.00, 120.8, 44.0)">т</text><text xml:space="preserve" font-family="AvenirNext-MediumItalic" font-style="italic" font-size="26.2" fill="#000000" transform="matrix(1.00, 0.00, -0.00, -1.00, 132.8, 44.0)">р</text><text xml:space="preserve" font-family="AvenirNext-MediumItalic" font-style="italic" font-size="26.2" fill="#000000" transform="matrix(1.00, 0.00, -0.00, -1.00, 149.6, 44.0)">а</text><text xml:space="preserve" font-family="AvenirNext-MediumItalic" font-style="italic" font-size="26.2" fill="#000000" transform="matrix(1.00, 0.00, -0.00, -1.00, 163.8, 44.0)">н</text><text xml:space="preserve" font-family="AvenirNext-MediumItalic" font-style="italic" font-size="26.2" fill="#000000" transform="matrix(1.00, 0.00, -0.00, -1.00, 179.6, 44.0)">с</text><text xml:space="preserve" font-family="AvenirNext-MediumItalic" font-style="italic" font-size="26.2" fill="#000000" transform="matrix(1.00, 0.00, -0.00, -1.00, 192.7, 44.0)">ф</text><text xml:space="preserve" font-family="AvenirNext-MediumItalic" font-style="italic" font-size="26.2" fill="#000000" transform="matrix(1.00, 0.00, -0.00, -1.00, 211.0, 44.0)">о</text><text xml:space="preserve" font-family="AvenirNext-MediumItalic" font-style="italic" font-size="26.2" fill="#000000" transform="matrix(1.00, 0.00, -0.00, -1.00, 227.2, 44.0)">р</text><text xml:space="preserve" font-family="AvenirNext-MediumItalic" font-style="italic" font-size="26.2" fill="#000000" transform="matrix(1.00, 0.00, -0.00, -1.00, 244.0, 44.0)">м</text><text xml:space="preserve" font-family="AvenirNext-MediumItalic" font-style="italic" font-size="26.2" fill="#000000" transform="matrix(1.00, 0.00, -0.00, -1.00, 262.9, 44.0)">а</text><text xml:space="preserve" font-family="AvenirNext-MediumItalic" font-style="italic" font-size="26.2" fill="#000000" transform="matrix(1.00, 0.00, -0.00, -1.00, 277.2, 44.0)">ц</text><text xml:space="preserve" font-family="AvenirNext-MediumItalic" font-style="italic" font-size="26.2" fill="#000000" transform="matrix(1.00, 0.00, -0.00, -1.00, 293.2, 44.0)">и</text><text xml:space="preserve" font-family="AvenirNext-MediumItalic" font-style="italic" font-size="26.2" fill="#000000" transform="matrix(1.00, 0.00, -0.00, -1.00, 309.7, 44.0)">и</text><text xml:space="preserve" font-family="AvenirNext-MediumItalic" font-style="italic" font-size="26.2" fill="#000000" transform="matrix(1.00, 0.00, -0.00, -1.00, 326.3, 44.0)">т</text><text xml:space="preserve" font-family="AvenirNext-MediumItalic" font-style="italic" font-size="26.2" fill="#000000" transform="matrix(1.00, 0.00, -0.00, -1.00, 338.3, 44.0)">е</text><text xml:space="preserve" font-family="AvenirNext-MediumItalic" font-style="italic" font-size="26.2" fill="#000000" transform="matrix(1.00, 0.00, -0.00, -1.00, 353.5, 44.0)"> </text><text xml:space="preserve" font-family="AvenirNext-MediumItalic" font-style="italic" font-size="26.2" fill="#000000" transform="matrix(1.00, 0.00, -0.00, -1.00, 360.0, 44.0)">н</text><text xml:space="preserve" font-family="AvenirNext-MediumItalic" font-style="italic" font-size="26.2" fill="#000000" transform="matrix(1.00, 0.00, -0.00, -1.00, 375.8, 44.0)">е</text><text xml:space="preserve" font-family="AvenirNext-MediumItalic" font-style="italic" font-size="26.2" fill="#000000" transform="matrix(1.00, 0.00, -0.00, -1.00, 391.0, 44.0)"> </text><text xml:space="preserve" font-family="AvenirNext-MediumItalic" font-style="italic" font-size="26.2" fill="#000000" transform="matrix(1.00, 0.00, -0.00, -1.00, 397.5, 44.0)">с</text><text xml:space="preserve" font-family="AvenirNext-MediumItalic" font-style="italic" font-size="26.2" fill="#000000" transform="matrix(1.00, 0.00, -0.00, -1.00, 410.7, 44.0)">е</text><text xml:space="preserve" font-family="AvenirNext-MediumItalic" font-style="italic" font-size="26.2" fill="#000000" transform="matrix(1.00, 0.00, -0.00, -1.00, 425.8, 44.0)"> </text><text xml:space="preserve" font-family="AvenirNext-MediumItalic" font-style="italic" font-size="26.2" fill="#000000" transform="matrix(1.00, 0.00, -0.00, -1.00, 432.4, 44.0)">п</text><text xml:space="preserve" font-family="AvenirNext-MediumItalic" font-style="italic" font-size="26.2" fill="#000000" transform="matrix(1.00, 0.00, -0.00, -1.00, 448.0, 44.0)">о</text><text xml:space="preserve" font-family="AvenirNext-MediumItalic" font-style="italic" font-size="26.2" fill="#000000" transform="matrix(1.00, 0.00, -0.00, -1.00, 464.1, 44.0)">д</text><text xml:space="preserve" font-family="AvenirNext-MediumItalic" font-style="italic" font-size="26.2" fill="#000000" transform="matrix(1.00, 0.00, -0.00, -1.00, 479.6, 44.0)">д</text><text xml:space="preserve" font-family="AvenirNext-MediumItalic" font-style="italic" font-size="26.2" fill="#000000" transform="matrix(1.00, 0.00, -0.00, -1.00, 495.1, 44.0)">ъ</text><text xml:space="preserve" font-family="AvenirNext-MediumItalic" font-style="italic" font-size="26.2" fill="#000000" transform="matrix(1.00, 0.00, -0.00, -1.00, 510.2, 44.0)">р</text><text xml:space="preserve" font-family="AvenirNext-MediumItalic" font-style="italic" font-size="26.2" fill="#000000" transform="matrix(1.00, 0.00, -0.00, -1.00, 527.0, 44.0)">ж</text><text xml:space="preserve" font-family="AvenirNext-MediumItalic" font-style="italic" font-size="26.2" fill="#000000" transform="matrix(1.00, 0.00, -0.00, -1.00, 548.3, 44.0)">а</text><text xml:space="preserve" font-family="AvenirNext-MediumItalic" font-style="italic" font-size="26.2" fill="#000000" transform="matrix(1.00, 0.00, -0.00, -1.00, 562.5, 44.0)">т</text><text xml:space="preserve" font-family="AvenirNext-MediumItalic" font-style="italic" font-size="26.2" fill="#000000" transform="matrix(1.00, 0.00, -0.00, -1.00, 574.5, 44.0)"> </text><text xml:space="preserve" font-family="AvenirNext-MediumItalic" font-style="italic" font-size="26.2" fill="#000000" transform="matrix(1.00, 0.00, -0.00, -1.00, 581.1, 44.0)">о</text><text xml:space="preserve" font-family="AvenirNext-MediumItalic" font-style="italic" font-size="26.2" fill="#000000" transform="matrix(1.00, 0.00, -0.00, -1.00, 597.3, 44.0)">т</text><text xml:space="preserve" font-family="AvenirNext-MediumItalic" font-style="italic" font-size="26.2" fill="#000000" transform="matrix(1.00, 0.00, -0.00, -1.00, 609.2, 44.0)"> </text><text xml:space="preserve" font-family="AvenirNext-MediumItalic" font-style="italic" font-size="26.2" fill="#000000" transform="matrix(1.00, 0.00, -0.00, -1.00, 615.8, 44.0)">в</text><text xml:space="preserve" font-family="AvenirNext-MediumItalic" font-style="italic" font-size="26.2" fill="#000000" transform="matrix(1.00, 0.00, -0.00, -1.00, 630.7, 44.0)">с</text><text xml:space="preserve" font-family="AvenirNext-MediumItalic" font-style="italic" font-size="26.2" fill="#000000" transform="matrix(1.00, 0.00, -0.00, -1.00, 643.9, 44.0)">и</text><text xml:space="preserve" font-family="AvenirNext-MediumItalic" font-style="italic" font-size="26.2" fill="#000000" transform="matrix(1.00, 0.00, -0.00, -1.00, 660.4, 44.0)">ч</text><text xml:space="preserve" font-family="AvenirNext-MediumItalic" font-style="italic" font-size="26.2" fill="#000000" transform="matrix(1.00, 0.00, -0.00, -1.00, 674.9, 44.0)">к</text><text xml:space="preserve" font-family="AvenirNext-MediumItalic" font-style="italic" font-size="26.2" fill="#000000" transform="matrix(1.00, 0.00, -0.00, -1.00, 689.4, 44.0)">и</text><text xml:space="preserve" font-family="AvenirNext-MediumItalic" font-style="italic" font-size="26.2" fill="#000000" transform="matrix(1.00, 0.00, -0.00, -1.00, 706.0, 44.0)"> </text><text xml:space="preserve" font-family="AvenirNext-MediumItalic" font-style="italic" font-size="26.2" fill="#000000" transform="matrix(1.00, 0.00, -0.00, -1.00, 712.6, 44.0)">б</text><text xml:space="preserve" font-family="AvenirNext-MediumItalic" font-style="italic" font-size="26.2" fill="#000000" transform="matrix(1.00, 0.00, -0.00, -1.00, 728.4, 44.0)">р</text><text xml:space="preserve" font-family="AvenirNext-MediumItalic" font-style="italic" font-size="26.2" fill="#000000" transform="matrix(1.00, 0.00, -0.00, -1.00, 745.2, 44.0)">а</text><text xml:space="preserve" font-family="AvenirNext-MediumItalic" font-style="italic" font-size="26.2" fill="#000000" transform="matrix(1.00, 0.00, -0.00, -1.00, 759.4, 44.0)">у</text><text xml:space="preserve" font-family="AvenirNext-MediumItalic" font-style="italic" font-size="26.2" fill="#000000" transform="matrix(1.00, 0.00, -0.00, -1.00, 772.7, 44.0)">з</text><text xml:space="preserve" font-family="AvenirNext-MediumItalic" font-style="italic" font-size="26.2" fill="#000000" transform="matrix(1.00, 0.00, -0.00, -1.00, 785.1, 44.0)">ъ</text><text xml:space="preserve" font-family="AvenirNext-MediumItalic" font-style="italic" font-size="26.2" fill="#000000" transform="matrix(1.00, 0.00, -0.00, -1.00, 800.2, 44.0)">р</text><text xml:space="preserve" font-family="AvenirNext-MediumItalic" font-style="italic" font-size="26.2" fill="#000000" transform="matrix(1.00, 0.00, -0.00, -1.00, 817.0, 44.0)">и</text><text xml:space="preserve" font-family="AvenirNext-MediumItalic" font-style="italic" font-size="26.2" fill="#000000" transform="matrix(1.00, 0.00, -0.00, -1.00, 833.6, 44.0)"> </text><text xml:space="preserve" font-family="AvenirNext-MediumItalic" font-style="italic" font-size="26.2" fill="#000000" transform="matrix(1.00, 0.00, -0.00, -1.00, 840.1, 44.0)">и</text><text xml:space="preserve" font-family="AvenirNext-MediumItalic" font-style="italic" font-size="26.2" fill="#000000" transform="matrix(1.00, 0.00, -0.00, -1.00, 856.7, 44.0)"> </text><text xml:space="preserve" font-family="AvenirNext-MediumItalic" font-style="italic" font-size="26.2" fill="#000000" transform="matrix(1.00, 0.00, -0.00, -1.00, 22.0, 8.0)">о</text><text xml:space="preserve" font-family="AvenirNext-MediumItalic" font-style="italic" font-size="26.2" fill="#000000" transform="matrix(1.00, 0.00, -0.00, -1.00, 38.2, 8.0)">с</text><text xml:space="preserve" font-family="AvenirNext-MediumItalic" font-style="italic" font-size="26.2" fill="#000000" transform="matrix(1.00, 0.00, -0.00, -1.00, 51.3, 8.0)">в</text><text xml:space="preserve" font-family="AvenirNext-MediumItalic" font-style="italic" font-size="26.2" fill="#000000" transform="matrix(1.00, 0.00, -0.00, -1.00, 66.3, 8.0)">е</text><text xml:space="preserve" font-family="AvenirNext-MediumItalic" font-style="italic" font-size="26.2" fill="#000000" transform="matrix(1.00, 0.00, -0.00, -1.00, 81.4, 8.0)">н</text><text xml:space="preserve" font-family="AvenirNext-MediumItalic" font-style="italic" font-size="26.2" fill="#000000" transform="matrix(1.00, 0.00, -0.00, -1.00, 97.2, 8.0)"> </text><text xml:space="preserve" font-family="AvenirNext-MediumItalic" font-style="italic" font-size="26.2" fill="#000000" transform="matrix(1.00, 0.00, -0.00, -1.00, 103.8, 8.0)">т</text><text xml:space="preserve" font-family="AvenirNext-MediumItalic" font-style="italic" font-size="26.2" fill="#000000" transform="matrix(1.00, 0.00, -0.00, -1.00, 115.7, 8.0)">о</text><text xml:space="preserve" font-family="AvenirNext-MediumItalic" font-style="italic" font-size="26.2" fill="#000000" transform="matrix(1.00, 0.00, -0.00, -1.00, 131.9, 8.0)">в</text><text xml:space="preserve" font-family="AvenirNext-MediumItalic" font-style="italic" font-size="26.2" fill="#000000" transform="matrix(1.00, 0.00, -0.00, -1.00, 146.8, 8.0)">а</text><text xml:space="preserve" font-family="AvenirNext-MediumItalic" font-style="italic" font-size="26.2" fill="#000000" transform="matrix(1.00, 0.00, -0.00, -1.00, 161.1, 8.0)"> </text><text xml:space="preserve" font-family="AvenirNext-MediumItalic" font-style="italic" font-size="26.2" fill="#000000" transform="matrix(1.00, 0.00, -0.00, -1.00, 167.6, 8.0)">п</text><text xml:space="preserve" font-family="AvenirNext-MediumItalic" font-style="italic" font-size="26.2" fill="#000000" transform="matrix(1.00, 0.00, -0.00, -1.00, 183.2, 8.0)">о</text><text xml:space="preserve" font-family="AvenirNext-MediumItalic" font-style="italic" font-size="26.2" fill="#000000" transform="matrix(1.00, 0.00, -0.00, -1.00, 199.4, 8.0)">н</text><text xml:space="preserve" font-family="AvenirNext-MediumItalic" font-style="italic" font-size="26.2" fill="#000000" transform="matrix(1.00, 0.00, -0.00, -1.00, 215.2, 8.0)">я</text><text xml:space="preserve" font-family="AvenirNext-MediumItalic" font-style="italic" font-size="26.2" fill="#000000" transform="matrix(1.00, 0.00, -0.00, -1.00, 229.7, 8.0)">к</text><text xml:space="preserve" font-family="AvenirNext-MediumItalic" font-style="italic" font-size="26.2" fill="#000000" transform="matrix(1.00, 0.00, -0.00, -1.00, 244.2, 8.0)">о</text><text xml:space="preserve" font-family="AvenirNext-MediumItalic" font-style="italic" font-size="26.2" fill="#000000" transform="matrix(1.00, 0.00, -0.00, -1.00, 260.4, 8.0)">г</text><text xml:space="preserve" font-family="AvenirNext-MediumItalic" font-style="italic" font-size="26.2" fill="#000000" transform="matrix(1.00, 0.00, -0.00, -1.00, 271.1, 8.0)">а</text><text xml:space="preserve" font-family="AvenirNext-MediumItalic" font-style="italic" font-size="26.2" fill="#000000" transform="matrix(1.00, 0.00, -0.00, -1.00, 285.3, 8.0)"> </text><text xml:space="preserve" font-family="AvenirNext-MediumItalic" font-style="italic" font-size="26.2" fill="#000000" transform="matrix(1.00, 0.00, -0.00, -1.00, 291.9, 8.0)">и</text><text xml:space="preserve" font-family="AvenirNext-MediumItalic" font-style="italic" font-size="26.2" fill="#000000" transform="matrix(1.00, 0.00, -0.00, -1.00, 308.4, 8.0)">з</text><text xml:space="preserve" font-family="AvenirNext-MediumItalic" font-style="italic" font-size="26.2" fill="#000000" transform="matrix(1.00, 0.00, -0.00, -1.00, 320.8, 8.0)">и</text><text xml:space="preserve" font-family="AvenirNext-MediumItalic" font-style="italic" font-size="26.2" fill="#000000" transform="matrix(1.00, 0.00, -0.00, -1.00, 337.4, 8.0)">с</text><text xml:space="preserve" font-family="AvenirNext-MediumItalic" font-style="italic" font-size="26.2" fill="#000000" transform="matrix(1.00, 0.00, -0.00, -1.00, 350.5, 8.0)">к</text><text xml:space="preserve" font-family="AvenirNext-MediumItalic" font-style="italic" font-size="26.2" fill="#000000" transform="matrix(1.00, 0.00, -0.00, -1.00, 365.0, 8.0)">в</text><text xml:space="preserve" font-family="AvenirNext-MediumItalic" font-style="italic" font-size="26.2" fill="#000000" transform="matrix(1.00, 0.00, -0.00, -1.00, 379.9, 8.0)">а</text><text xml:space="preserve" font-family="AvenirNext-MediumItalic" font-style="italic" font-size="26.2" fill="#000000" transform="matrix(1.00, 0.00, -0.00, -1.00, 394.2, 8.0)">т</text><text xml:space="preserve" font-family="AvenirNext-MediumItalic" font-style="italic" font-size="26.2" fill="#000000" transform="matrix(1.00, 0.00, -0.00, -1.00, 406.1, 8.0)"> </text><text xml:space="preserve" font-family="AvenirNext-MediumItalic" font-style="italic" font-size="26.2" fill="#000000" transform="matrix(1.00, 0.00, -0.00, -1.00, 412.7, 8.0)">п</text><text xml:space="preserve" font-family="AvenirNext-MediumItalic" font-style="italic" font-size="26.2" fill="#000000" transform="matrix(1.00, 0.00, -0.00, -1.00, 428.2, 8.0)">р</text><text xml:space="preserve" font-family="AvenirNext-MediumItalic" font-style="italic" font-size="26.2" fill="#000000" transform="matrix(1.00, 0.00, -0.00, -1.00, 445.1, 8.0)">е</text><text xml:space="preserve" font-family="AvenirNext-MediumItalic" font-style="italic" font-size="26.2" fill="#000000" transform="matrix(1.00, 0.00, -0.00, -1.00, 460.2, 8.0)">ф</text><text xml:space="preserve" font-family="AvenirNext-MediumItalic" font-style="italic" font-size="26.2" fill="#000000" transform="matrix(1.00, 0.00, -0.00, -1.00, 478.5, 8.0)">и</text><text xml:space="preserve" font-family="AvenirNext-MediumItalic" font-style="italic" font-size="26.2" fill="#000000" transform="matrix(1.00, 0.00, -0.00, -1.00, 495.1, 8.0)">к</text><text xml:space="preserve" font-family="AvenirNext-MediumItalic" font-style="italic" font-size="26.2" fill="#000000" transform="matrix(1.00, 0.00, -0.00, -1.00, 509.6, 8.0)">с</text><text xml:space="preserve" font-family="AvenirNext-MediumItalic" font-style="italic" font-size="26.2" fill="#000000" transform="matrix(1.00, 0.00, -0.00, -1.00, 522.7, 8.0)">!</text><text xml:space="preserve" font-family="AvenirNext-MediumItalic" font-style="italic" font-size="26.2" fill="#000000" transform="matrix(1.00, 0.00, -0.00, -1.00, 530.3, 8.0)">!</text></g></svg>