<?xml version="1.0" encoding="UTF-8" standalone="no"?><svg xmlns="http://www.w3.org/2000/svg" xmlns:xlink="http://www.w3.org/1999/xlink" clip-rule="evenodd" stroke-miterlimit="4.00" viewBox="0 0 259 30"><desc>SVG generated by Keynote</desc><defs></defs><g transform="matrix(1.00, 0.00, -0.00, -1.00, 0.0, 30.0)"><text xml:space="preserve" font-family="AvenirNext-Regular" font-size="19.7" fill="#000000" transform="matrix(1.00, 0.00, -0.00, -1.00, 0.0, 9.9)">•</text><text xml:space="preserve" font-family="AvenirNext-Regular" font-size="26.2" fill="#000000" transform="matrix(1.00, 0.00, -0.00, -1.00, 22.0, 8.0)">2</text><text xml:space="preserve" font-family="AvenirNext-Regular" font-size="26.2" fill="#000000" transform="matrix(1.00, 0.00, -0.00, -1.00, 37.2, 8.0)">d</text><text xml:space="preserve" font-family="AvenirNext-Regular" font-size="26.2" fill="#000000" transform="matrix(1.00, 0.00, -0.00, -1.00, 53.9, 8.0)"> </text><text xml:space="preserve" font-family="AvenirNext-Regular" font-size="26.2" fill="#000000" transform="matrix(1.00, 0.00, -0.00, -1.00, 60.5, 8.0)">т</text><text xml:space="preserve" font-family="AvenirNext-Regular" font-size="26.2" fill="#000000" transform="matrix(1.00, 0.00, -0.00, -1.00, 71.8, 8.0)">р</text><text xml:space="preserve" font-family="AvenirNext-Regular" font-size="26.2" fill="#000000" transform="matrix(1.00, 0.00, -0.00, -1.00, 88.5, 8.0)">а</text><text xml:space="preserve" font-family="AvenirNext-Regular" font-size="26.2" fill="#000000" transform="matrix(1.00, 0.00, -0.00, -1.00, 102.5, 8.0)">н</text><text xml:space="preserve" font-family="AvenirNext-Regular" font-size="26.2" fill="#000000" transform="matrix(1.00, 0.00, -0.00, -1.00, 117.6, 8.0)">с</text><text xml:space="preserve" font-family="AvenirNext-Regular" font-size="26.2" fill="#000000" transform="matrix(1.00, 0.00, -0.00, -1.00, 130.7, 8.0)">ф</text><text xml:space="preserve" font-family="AvenirNext-Regular" font-size="26.2" fill="#000000" transform="matrix(1.00, 0.00, -0.00, -1.00, 148.2, 8.0)">о</text><text xml:space="preserve" font-family="AvenirNext-Regular" font-size="26.2" fill="#000000" transform="matrix(1.00, 0.00, -0.00, -1.00, 164.2, 8.0)">р</text><text xml:space="preserve" font-family="AvenirNext-Regular" font-size="26.2" fill="#000000" transform="matrix(1.00, 0.00, -0.00, -1.00, 180.9, 8.0)">м</text><text xml:space="preserve" font-family="AvenirNext-Regular" font-size="26.2" fill="#000000" transform="matrix(1.00, 0.00, -0.00, -1.00, 199.1, 8.0)">а</text><text xml:space="preserve" font-family="AvenirNext-Regular" font-size="26.2" fill="#000000" transform="matrix(1.00, 0.00, -0.00, -1.00, 213.1, 8.0)">ц</text><text xml:space="preserve" font-family="AvenirNext-Regular" font-size="26.2" fill="#000000" transform="matrix(1.00, 0.00, -0.00, -1.00, 228.1, 8.0)">и</text><text xml:space="preserve" font-family="AvenirNext-Regular" font-size="26.2" fill="#000000" transform="matrix(1.00, 0.00, -0.00, -1.00, 243.8, 8.0)">и</text></g></svg>