<?xml version="1.0" encoding="UTF-8" standalone="no"?><svg xmlns="http://www.w3.org/2000/svg" xmlns:xlink="http://www.w3.org/1999/xlink" clip-rule="evenodd" stroke-miterlimit="4.00" viewBox="0 0 448 62"><desc>SVG generated by Keynote</desc><defs></defs><g transform="matrix(1.00, 0.00, -0.00, -1.00, 0.0, 62.0)"><text xml:space="preserve" font-family="AvenirNext-Regular" font-size="58.4" fill="#000000" transform="matrix(1.00, 0.00, -0.00, -1.00, 0.0, 16.0)">Т</text><text xml:space="preserve" font-family="AvenirNext-Regular" font-size="58.4" fill="#000000" transform="matrix(1.00, 0.00, -0.00, -1.00, 33.3, 16.0)">р</text><text xml:space="preserve" font-family="AvenirNext-Regular" font-size="58.4" fill="#000000" transform="matrix(1.00, 0.00, -0.00, -1.00, 70.4, 16.0)">а</text><text xml:space="preserve" font-family="AvenirNext-Regular" font-size="58.4" fill="#000000" transform="matrix(1.00, 0.00, -0.00, -1.00, 101.6, 16.0)">н</text><text xml:space="preserve" font-family="AvenirNext-Regular" font-size="58.4" fill="#000000" transform="matrix(1.00, 0.00, -0.00, -1.00, 135.1, 16.0)">с</text><text xml:space="preserve" font-family="AvenirNext-Regular" font-size="58.4" fill="#000000" transform="matrix(1.00, 0.00, -0.00, -1.00, 164.3, 16.0)">ф</text><text xml:space="preserve" font-family="AvenirNext-Regular" font-size="58.4" fill="#000000" transform="matrix(1.00, 0.00, -0.00, -1.00, 203.3, 16.0)">о</text><text xml:space="preserve" font-family="AvenirNext-Regular" font-size="58.4" fill="#000000" transform="matrix(1.00, 0.00, -0.00, -1.00, 239.0, 16.0)">р</text><text xml:space="preserve" font-family="AvenirNext-Regular" font-size="58.4" fill="#000000" transform="matrix(1.00, 0.00, -0.00, -1.00, 276.1, 16.0)">м</text><text xml:space="preserve" font-family="AvenirNext-Regular" font-size="58.4" fill="#000000" transform="matrix(1.00, 0.00, -0.00, -1.00, 316.6, 16.0)">а</text><text xml:space="preserve" font-family="AvenirNext-Regular" font-size="58.4" fill="#000000" transform="matrix(1.00, 0.00, -0.00, -1.00, 347.8, 16.0)">ц</text><text xml:space="preserve" font-family="AvenirNext-Regular" font-size="58.4" fill="#000000" transform="matrix(1.00, 0.00, -0.00, -1.00, 381.2, 16.0)">и</text><text xml:space="preserve" font-family="AvenirNext-Regular" font-size="58.4" fill="#000000" transform="matrix(1.00, 0.00, -0.00, -1.00, 416.2, 16.0)">и</text></g></svg>