<?xml version="1.0" encoding="UTF-8" standalone="no"?><svg xmlns="http://www.w3.org/2000/svg" xmlns:xlink="http://www.w3.org/1999/xlink" clip-rule="evenodd" stroke-miterlimit="4.00" viewBox="0 0 875 236"><desc>SVG generated by Keynote</desc><defs></defs><g transform="matrix(1.00, 0.00, -0.00, -1.00, 0.0, 236.0)"><text xml:space="preserve" font-family="AvenirNext-Regular" font-size="36.0" fill="#000000" transform="matrix(1.00, 0.00, -0.00, -1.00, 1.0, 207.0)">t</text><text xml:space="preserve" font-family="AvenirNext-Regular" font-size="36.0" fill="#000000" transform="matrix(1.00, 0.00, -0.00, -1.00, 12.4, 207.0)">r</text><text xml:space="preserve" font-family="AvenirNext-Regular" font-size="36.0" fill="#000000" transform="matrix(1.00, 0.00, -0.00, -1.00, 25.4, 207.0)">y</text><text xml:space="preserve" font-family="AvenirNext-Regular" font-size="36.0" fill="#000000" transform="matrix(1.00, 0.00, -0.00, -1.00, 42.9, 207.0)">-</text><text xml:space="preserve" font-family="AvenirNext-Regular" font-size="36.0" fill="#000000" transform="matrix(1.00, 0.00, -0.00, -1.00, 54.5, 207.0)">c</text><text xml:space="preserve" font-family="AvenirNext-Regular" font-size="36.0" fill="#000000" transform="matrix(1.00, 0.00, -0.00, -1.00, 72.5, 207.0)">a</text><text xml:space="preserve" font-family="AvenirNext-Regular" font-size="36.0" fill="#000000" transform="matrix(1.00, 0.00, -0.00, -1.00, 91.3, 207.0)">t</text><text xml:space="preserve" font-family="AvenirNext-Regular" font-size="36.0" fill="#000000" transform="matrix(1.00, 0.00, -0.00, -1.00, 102.7, 207.0)">c</text><text xml:space="preserve" font-family="AvenirNext-Regular" font-size="36.0" fill="#000000" transform="matrix(1.00, 0.00, -0.00, -1.00, 120.7, 207.0)">h</text><text xml:space="preserve" font-family="AvenirNext-Regular" font-size="36.0" fill="#000000" transform="matrix(1.00, 0.00, -0.00, -1.00, 141.7, 207.0)"> </text><text xml:space="preserve" font-family="AvenirNext-Regular" font-size="36.0" fill="#000000" transform="matrix(1.00, 0.00, -0.00, -1.00, 153.0, 207.0)">б</text><text xml:space="preserve" font-family="AvenirNext-Regular" font-size="36.0" fill="#000000" transform="matrix(1.00, 0.00, -0.00, -1.00, 174.6, 207.0)">л</text><text xml:space="preserve" font-family="AvenirNext-Regular" font-size="36.0" fill="#000000" transform="matrix(1.00, 0.00, -0.00, -1.00, 192.5, 207.0)">о</text><text xml:space="preserve" font-family="AvenirNext-Regular" font-size="36.0" fill="#000000" transform="matrix(1.00, 0.00, -0.00, -1.00, 214.4, 207.0)">к</text><text xml:space="preserve" font-family="AvenirNext-Regular" font-size="36.0" fill="#000000" transform="matrix(1.00, 0.00, -0.00, -1.00, 234.0, 207.0)">а</text><text xml:space="preserve" font-family="AvenirNext-Regular" font-size="36.0" fill="#000000" transform="matrix(1.00, 0.00, -0.00, -1.00, 253.2, 207.0)">,</text><text xml:space="preserve" font-family="AvenirNext-Regular" font-size="36.0" fill="#000000" transform="matrix(1.00, 0.00, -0.00, -1.00, 261.5, 207.0)"> </text><text xml:space="preserve" font-family="AvenirNext-Regular" font-size="36.0" fill="#000000" transform="matrix(1.00, 0.00, -0.00, -1.00, 272.8, 207.0)">и</text><text xml:space="preserve" font-family="AvenirNext-Regular" font-size="36.0" fill="#000000" transform="matrix(1.00, 0.00, -0.00, -1.00, 294.3, 207.0)">м</text><text xml:space="preserve" font-family="AvenirNext-Regular" font-size="36.0" fill="#000000" transform="matrix(1.00, 0.00, -0.00, -1.00, 319.4, 207.0)">а</text><text xml:space="preserve" font-family="AvenirNext-Regular" font-size="36.0" fill="#000000" transform="matrix(1.00, 0.00, -0.00, -1.00, 338.6, 207.0)"> </text><text xml:space="preserve" font-family="AvenirNext-Regular" font-size="36.0" fill="#000000" transform="matrix(1.00, 0.00, -0.00, -1.00, 349.9, 207.0)">и</text><text xml:space="preserve" font-family="AvenirNext-Regular" font-size="36.0" fill="#000000" transform="matrix(1.00, 0.00, -0.00, -1.00, 371.4, 207.0)"> </text><text xml:space="preserve" font-family="AvenirNext-Regular" font-size="36.0" fill="#000000" transform="matrix(1.00, 0.00, -0.00, -1.00, 382.7, 207.0)">о</text><text xml:space="preserve" font-family="AvenirNext-Regular" font-size="36.0" fill="#000000" transform="matrix(1.00, 0.00, -0.00, -1.00, 404.7, 207.0)">щ</text><text xml:space="preserve" font-family="AvenirNext-Regular" font-size="36.0" fill="#000000" transform="matrix(1.00, 0.00, -0.00, -1.00, 433.8, 207.0)">е</text><text xml:space="preserve" font-family="AvenirNext-Regular" font-size="36.0" fill="#000000" transform="matrix(1.00, 0.00, -0.00, -1.00, 454.4, 207.0)"> </text><text xml:space="preserve" font-family="AvenirNext-Regular" font-size="36.0" fill="#000000" transform="matrix(1.00, 0.00, -0.00, -1.00, 465.7, 207.0)">е</text><text xml:space="preserve" font-family="AvenirNext-Regular" font-size="36.0" fill="#000000" transform="matrix(1.00, 0.00, -0.00, -1.00, 486.3, 207.0)">д</text><text xml:space="preserve" font-family="AvenirNext-Regular" font-size="36.0" fill="#000000" transform="matrix(1.00, 0.00, -0.00, -1.00, 505.8, 207.0)">н</text><text xml:space="preserve" font-family="AvenirNext-Regular" font-size="36.0" fill="#000000" transform="matrix(1.00, 0.00, -0.00, -1.00, 526.5, 207.0)">а</text><text xml:space="preserve" font-family="AvenirNext-Regular" font-size="36.0" fill="#000000" transform="matrix(1.00, 0.00, -0.00, -1.00, 545.8, 207.0)"> </text><text xml:space="preserve" font-family="AvenirNext-Regular" font-size="36.0" fill="#000000" transform="matrix(1.00, 0.00, -0.00, -1.00, 557.0, 207.0)">и</text><text xml:space="preserve" font-family="AvenirNext-Regular" font-size="36.0" fill="#000000" transform="matrix(1.00, 0.00, -0.00, -1.00, 578.6, 207.0)">н</text><text xml:space="preserve" font-family="AvenirNext-Regular" font-size="36.0" fill="#000000" transform="matrix(1.00, 0.00, -0.00, -1.00, 599.3, 207.0)">с</text><text xml:space="preserve" font-family="AvenirNext-Regular" font-size="36.0" fill="#000000" transform="matrix(1.00, 0.00, -0.00, -1.00, 617.3, 207.0)">т</text><text xml:space="preserve" font-family="AvenirNext-Regular" font-size="36.0" fill="#000000" transform="matrix(1.00, 0.00, -0.00, -1.00, 632.8, 207.0)">р</text><text xml:space="preserve" font-family="AvenirNext-Regular" font-size="36.0" fill="#000000" transform="matrix(1.00, 0.00, -0.00, -1.00, 655.7, 207.0)">у</text><text xml:space="preserve" font-family="AvenirNext-Regular" font-size="36.0" fill="#000000" transform="matrix(1.00, 0.00, -0.00, -1.00, 673.2, 207.0)">к</text><text xml:space="preserve" font-family="AvenirNext-Regular" font-size="36.0" fill="#000000" transform="matrix(1.00, 0.00, -0.00, -1.00, 692.8, 207.0)">ц</text><text xml:space="preserve" font-family="AvenirNext-Regular" font-size="36.0" fill="#000000" transform="matrix(1.00, 0.00, -0.00, -1.00, 713.4, 207.0)">и</text><text xml:space="preserve" font-family="AvenirNext-Regular" font-size="36.0" fill="#000000" transform="matrix(1.00, 0.00, -0.00, -1.00, 734.9, 207.0)">я</text><text xml:space="preserve" font-family="AvenirNext-Regular" font-size="36.0" fill="#000000" transform="matrix(1.00, 0.00, -0.00, -1.00, 754.3, 207.0)">,</text><text xml:space="preserve" font-family="AvenirNext-Regular" font-size="36.0" fill="#000000" transform="matrix(1.00, 0.00, -0.00, -1.00, 762.6, 207.0)"> </text><text xml:space="preserve" font-family="AvenirNext-Regular" font-size="36.0" fill="#000000" transform="matrix(1.00, 0.00, -0.00, -1.00, 773.9, 207.0)">к</text><text xml:space="preserve" font-family="AvenirNext-Regular" font-size="36.0" fill="#000000" transform="matrix(1.00, 0.00, -0.00, -1.00, 793.4, 207.0)">о</text><text xml:space="preserve" font-family="AvenirNext-Regular" font-size="36.0" fill="#000000" transform="matrix(1.00, 0.00, -0.00, -1.00, 815.4, 207.0)">я</text><text xml:space="preserve" font-family="AvenirNext-Regular" font-size="36.0" fill="#000000" transform="matrix(1.00, 0.00, -0.00, -1.00, 834.8, 207.0)">т</text><text xml:space="preserve" font-family="AvenirNext-Regular" font-size="36.0" fill="#000000" transform="matrix(1.00, 0.00, -0.00, -1.00, 850.3, 207.0)">о</text><text xml:space="preserve" font-family="AvenirNext-Regular" font-size="36.0" fill="#000000" transform="matrix(1.00, 0.00, -0.00, -1.00, 872.3, 207.0)"> </text><text xml:space="preserve" font-family="AvenirNext-Regular" font-size="36.0" fill="#000000" transform="matrix(1.00, 0.00, -0.00, -1.00, 1.0, 158.0)">с</text><text xml:space="preserve" font-family="AvenirNext-Regular" font-size="36.0" fill="#000000" transform="matrix(1.00, 0.00, -0.00, -1.00, 19.0, 158.0)">е</text><text xml:space="preserve" font-family="AvenirNext-Regular" font-size="36.0" fill="#000000" transform="matrix(1.00, 0.00, -0.00, -1.00, 39.6, 158.0)"> </text><text xml:space="preserve" font-family="AvenirNext-Regular" font-size="36.0" fill="#000000" transform="matrix(1.00, 0.00, -0.00, -1.00, 53.2, 158.0)">к</text><text xml:space="preserve" font-family="AvenirNext-Regular" font-size="36.0" fill="#000000" transform="matrix(1.00, 0.00, -0.00, -1.00, 72.8, 158.0)">а</text><text xml:space="preserve" font-family="AvenirNext-Regular" font-size="36.0" fill="#000000" transform="matrix(1.00, 0.00, -0.00, -1.00, 92.0, 158.0)">з</text><text xml:space="preserve" font-family="AvenirNext-Regular" font-size="36.0" fill="#000000" transform="matrix(1.00, 0.00, -0.00, -1.00, 108.7, 158.0)">в</text><text xml:space="preserve" font-family="AvenirNext-Regular" font-size="36.0" fill="#000000" transform="matrix(1.00, 0.00, -0.00, -1.00, 128.1, 158.0)">а</text><text xml:space="preserve" font-family="AvenirNext-Regular" font-size="36.0" fill="#000000" transform="matrix(1.00, 0.00, -0.00, -1.00, 147.4, 158.0)"> </text><text xml:space="preserve" font-family="AvenirNext-Regular" font-size="36.0" fill="#000000" transform="matrix(1.00, 0.00, -0.00, -1.00, 161.0, 158.0)">ﬁ</text><text xml:space="preserve" font-family="AvenirNext-Regular" font-size="36.0" fill="#000000" transform="matrix(1.00, 0.00, -0.00, -1.00, 180.6, 158.0)">n</text><text xml:space="preserve" font-family="AvenirNext-Regular" font-size="36.0" fill="#000000" transform="matrix(1.00, 0.00, -0.00, -1.00, 201.5, 158.0)">a</text><text xml:space="preserve" font-family="AvenirNext-Regular" font-size="36.0" fill="#000000" transform="matrix(1.00, 0.00, -0.00, -1.00, 220.7, 158.0)">l</text><text xml:space="preserve" font-family="AvenirNext-Regular" font-size="36.0" fill="#000000" transform="matrix(1.00, 0.00, -0.00, -1.00, 229.8, 158.0)">l</text><text xml:space="preserve" font-family="AvenirNext-Regular" font-size="36.0" fill="#000000" transform="matrix(1.00, 0.00, -0.00, -1.00, 238.8, 158.0)">y</text><text xml:space="preserve" font-family="AvenirNext-Regular" font-size="36.0" fill="#000000" transform="matrix(1.00, 0.00, -0.00, -1.00, 256.4, 158.0)"> </text><text xml:space="preserve" font-family="AvenirNext-Regular" font-size="36.0" fill="#000000" transform="matrix(1.00, 0.00, -0.00, -1.00, 270.0, 158.0)">и</text><text xml:space="preserve" font-family="AvenirNext-Regular" font-size="36.0" fill="#000000" transform="matrix(1.00, 0.00, -0.00, -1.00, 291.6, 158.0)"> </text><text xml:space="preserve" font-family="AvenirNext-Regular" font-size="36.0" fill="#000000" transform="matrix(1.00, 0.00, -0.00, -1.00, 305.2, 158.0)">и</text><text xml:space="preserve" font-family="AvenirNext-Regular" font-size="36.0" fill="#000000" transform="matrix(1.00, 0.00, -0.00, -1.00, 326.8, 158.0)"> </text><text xml:space="preserve" font-family="AvenirNext-Regular" font-size="36.0" fill="#000000" transform="matrix(1.00, 0.00, -0.00, -1.00, 340.4, 158.0)">с</text><text xml:space="preserve" font-family="AvenirNext-Regular" font-size="36.0" fill="#000000" transform="matrix(1.00, 0.00, -0.00, -1.00, 358.4, 158.0)">е</text><text xml:space="preserve" font-family="AvenirNext-Regular" font-size="36.0" fill="#000000" transform="matrix(1.00, 0.00, -0.00, -1.00, 379.0, 158.0)"> </text><text xml:space="preserve" font-family="AvenirNext-Regular" font-size="36.0" fill="#000000" transform="matrix(1.00, 0.00, -0.00, -1.00, 392.6, 158.0)">и</text><text xml:space="preserve" font-family="AvenirNext-Regular" font-size="36.0" fill="#000000" transform="matrix(1.00, 0.00, -0.00, -1.00, 414.2, 158.0)">з</text><text xml:space="preserve" font-family="AvenirNext-Regular" font-size="36.0" fill="#000000" transform="matrix(1.00, 0.00, -0.00, -1.00, 430.9, 158.0)">п</text><text xml:space="preserve" font-family="AvenirNext-Regular" font-size="36.0" fill="#000000" transform="matrix(1.00, 0.00, -0.00, -1.00, 451.3, 158.0)">о</text><text xml:space="preserve" font-family="AvenirNext-Regular" font-size="36.0" fill="#000000" transform="matrix(1.00, 0.00, -0.00, -1.00, 473.3, 158.0)">л</text><text xml:space="preserve" font-family="AvenirNext-Regular" font-size="36.0" fill="#000000" transform="matrix(1.00, 0.00, -0.00, -1.00, 491.2, 158.0)">з</text><text xml:space="preserve" font-family="AvenirNext-Regular" font-size="36.0" fill="#000000" transform="matrix(1.00, 0.00, -0.00, -1.00, 507.8, 158.0)">в</text><text xml:space="preserve" font-family="AvenirNext-Regular" font-size="36.0" fill="#000000" transform="matrix(1.00, 0.00, -0.00, -1.00, 527.3, 158.0)">а</text><text xml:space="preserve" font-family="AvenirNext-Regular" font-size="36.0" fill="#000000" transform="matrix(1.00, 0.00, -0.00, -1.00, 546.5, 158.0)"> </text><text xml:space="preserve" font-family="AvenirNext-Regular" font-size="36.0" fill="#000000" transform="matrix(1.00, 0.00, -0.00, -1.00, 560.1, 158.0)">з</text><text xml:space="preserve" font-family="AvenirNext-Regular" font-size="36.0" fill="#000000" transform="matrix(1.00, 0.00, -0.00, -1.00, 576.8, 158.0)">а</text><text xml:space="preserve" font-family="AvenirNext-Regular" font-size="36.0" fill="#000000" transform="matrix(1.00, 0.00, -0.00, -1.00, 596.0, 158.0)"> </text><text xml:space="preserve" font-family="AvenirNext-Regular" font-size="36.0" fill="#000000" transform="matrix(1.00, 0.00, -0.00, -1.00, 609.7, 158.0)">и</text><text xml:space="preserve" font-family="AvenirNext-Regular" font-size="36.0" fill="#000000" transform="matrix(1.00, 0.00, -0.00, -1.00, 631.2, 158.0)">з</text><text xml:space="preserve" font-family="AvenirNext-Regular" font-size="36.0" fill="#000000" transform="matrix(1.00, 0.00, -0.00, -1.00, 647.9, 158.0)">в</text><text xml:space="preserve" font-family="AvenirNext-Regular" font-size="36.0" fill="#000000" transform="matrix(1.00, 0.00, -0.00, -1.00, 667.4, 158.0)">ъ</text><text xml:space="preserve" font-family="AvenirNext-Regular" font-size="36.0" fill="#000000" transform="matrix(1.00, 0.00, -0.00, -1.00, 687.2, 158.0)">р</text><text xml:space="preserve" font-family="AvenirNext-Regular" font-size="36.0" fill="#000000" transform="matrix(1.00, 0.00, -0.00, -1.00, 710.1, 158.0)">ш</text><text xml:space="preserve" font-family="AvenirNext-Regular" font-size="36.0" fill="#000000" transform="matrix(1.00, 0.00, -0.00, -1.00, 738.8, 158.0)">в</text><text xml:space="preserve" font-family="AvenirNext-Regular" font-size="36.0" fill="#000000" transform="matrix(1.00, 0.00, -0.00, -1.00, 758.3, 158.0)">а</text><text xml:space="preserve" font-family="AvenirNext-Regular" font-size="36.0" fill="#000000" transform="matrix(1.00, 0.00, -0.00, -1.00, 777.5, 158.0)">н</text><text xml:space="preserve" font-family="AvenirNext-Regular" font-size="36.0" fill="#000000" transform="matrix(1.00, 0.00, -0.00, -1.00, 798.2, 158.0)">е</text><text xml:space="preserve" font-family="AvenirNext-Regular" font-size="36.0" fill="#000000" transform="matrix(1.00, 0.00, -0.00, -1.00, 818.8, 158.0)"> </text><text xml:space="preserve" font-family="AvenirNext-Regular" font-size="36.0" fill="#000000" transform="matrix(1.00, 0.00, -0.00, -1.00, 832.4, 158.0)">н</text><text xml:space="preserve" font-family="AvenirNext-Regular" font-size="36.0" fill="#000000" transform="matrix(1.00, 0.00, -0.00, -1.00, 853.1, 158.0)">а</text><text xml:space="preserve" font-family="AvenirNext-Regular" font-size="36.0" fill="#000000" transform="matrix(1.00, 0.00, -0.00, -1.00, 872.3, 158.0)"> </text><text xml:space="preserve" font-family="AvenirNext-Regular" font-size="36.0" fill="#000000" transform="matrix(1.00, 0.00, -0.00, -1.00, 1.0, 109.0)">д</text><text xml:space="preserve" font-family="AvenirNext-Regular" font-size="36.0" fill="#000000" transform="matrix(1.00, 0.00, -0.00, -1.00, 20.6, 109.0)">е</text><text xml:space="preserve" font-family="AvenirNext-Regular" font-size="36.0" fill="#000000" transform="matrix(1.00, 0.00, -0.00, -1.00, 41.2, 109.0)">й</text><text xml:space="preserve" font-family="AvenirNext-Regular" font-size="36.0" fill="#000000" transform="matrix(1.00, 0.00, -0.00, -1.00, 62.7, 109.0)">с</text><text xml:space="preserve" font-family="AvenirNext-Regular" font-size="36.0" fill="#000000" transform="matrix(1.00, 0.00, -0.00, -1.00, 80.7, 109.0)">т</text><text xml:space="preserve" font-family="AvenirNext-Regular" font-size="36.0" fill="#000000" transform="matrix(1.00, 0.00, -0.00, -1.00, 96.3, 109.0)">в</text><text xml:space="preserve" font-family="AvenirNext-Regular" font-size="36.0" fill="#000000" transform="matrix(1.00, 0.00, -0.00, -1.00, 115.7, 109.0)">и</text><text xml:space="preserve" font-family="AvenirNext-Regular" font-size="36.0" fill="#000000" transform="matrix(1.00, 0.00, -0.00, -1.00, 137.3, 109.0)">я</text><text xml:space="preserve" font-family="AvenirNext-Regular" font-size="36.0" fill="#000000" transform="matrix(1.00, 0.00, -0.00, -1.00, 156.7, 109.0)"> </text><text xml:space="preserve" font-family="AvenirNext-Regular" font-size="36.0" fill="#000000" transform="matrix(1.00, 0.00, -0.00, -1.00, 170.6, 109.0)">к</text><text xml:space="preserve" font-family="AvenirNext-Regular" font-size="36.0" fill="#000000" transform="matrix(1.00, 0.00, -0.00, -1.00, 190.2, 109.0)">а</text><text xml:space="preserve" font-family="AvenirNext-Regular" font-size="36.0" fill="#000000" transform="matrix(1.00, 0.00, -0.00, -1.00, 209.4, 109.0)">т</text><text xml:space="preserve" font-family="AvenirNext-Regular" font-size="36.0" fill="#000000" transform="matrix(1.00, 0.00, -0.00, -1.00, 224.9, 109.0)">о</text><text xml:space="preserve" font-family="AvenirNext-Regular" font-size="36.0" fill="#000000" transform="matrix(1.00, 0.00, -0.00, -1.00, 246.9, 109.0)"> </text><text xml:space="preserve" font-family="AvenirNext-Regular" font-size="36.0" fill="#000000" transform="matrix(1.00, 0.00, -0.00, -1.00, 260.8, 109.0)">р</text><text xml:space="preserve" font-family="AvenirNext-Regular" font-size="36.0" fill="#000000" transform="matrix(1.00, 0.00, -0.00, -1.00, 283.7, 109.0)">а</text><text xml:space="preserve" font-family="AvenirNext-Regular" font-size="36.0" fill="#000000" transform="matrix(1.00, 0.00, -0.00, -1.00, 302.9, 109.0)">з</text><text xml:space="preserve" font-family="AvenirNext-Regular" font-size="36.0" fill="#000000" transform="matrix(1.00, 0.00, -0.00, -1.00, 319.6, 109.0)">р</text><text xml:space="preserve" font-family="AvenirNext-Regular" font-size="36.0" fill="#000000" transform="matrix(1.00, 0.00, -0.00, -1.00, 342.4, 109.0)">у</text><text xml:space="preserve" font-family="AvenirNext-Regular" font-size="36.0" fill="#000000" transform="matrix(1.00, 0.00, -0.00, -1.00, 360.0, 109.0)">ш</text><text xml:space="preserve" font-family="AvenirNext-Regular" font-size="36.0" fill="#000000" transform="matrix(1.00, 0.00, -0.00, -1.00, 388.7, 109.0)">а</text><text xml:space="preserve" font-family="AvenirNext-Regular" font-size="36.0" fill="#000000" transform="matrix(1.00, 0.00, -0.00, -1.00, 407.9, 109.0)">в</text><text xml:space="preserve" font-family="AvenirNext-Regular" font-size="36.0" fill="#000000" transform="matrix(1.00, 0.00, -0.00, -1.00, 427.4, 109.0)">а</text><text xml:space="preserve" font-family="AvenirNext-Regular" font-size="36.0" fill="#000000" transform="matrix(1.00, 0.00, -0.00, -1.00, 446.6, 109.0)">н</text><text xml:space="preserve" font-family="AvenirNext-Regular" font-size="36.0" fill="#000000" transform="matrix(1.00, 0.00, -0.00, -1.00, 467.3, 109.0)">е</text><text xml:space="preserve" font-family="AvenirNext-Regular" font-size="36.0" fill="#000000" transform="matrix(1.00, 0.00, -0.00, -1.00, 487.9, 109.0)"> </text><text xml:space="preserve" font-family="AvenirNext-Regular" font-size="36.0" fill="#000000" transform="matrix(1.00, 0.00, -0.00, -1.00, 501.8, 109.0)">н</text><text xml:space="preserve" font-family="AvenirNext-Regular" font-size="36.0" fill="#000000" transform="matrix(1.00, 0.00, -0.00, -1.00, 522.5, 109.0)">а</text><text xml:space="preserve" font-family="AvenirNext-Regular" font-size="36.0" fill="#000000" transform="matrix(1.00, 0.00, -0.00, -1.00, 541.8, 109.0)"> </text><text xml:space="preserve" font-family="AvenirNext-Regular" font-size="36.0" fill="#000000" transform="matrix(1.00, 0.00, -0.00, -1.00, 555.7, 109.0)">о</text><text xml:space="preserve" font-family="AvenirNext-Regular" font-size="36.0" fill="#000000" transform="matrix(1.00, 0.00, -0.00, -1.00, 577.7, 109.0)">б</text><text xml:space="preserve" font-family="AvenirNext-Regular" font-size="36.0" fill="#000000" transform="matrix(1.00, 0.00, -0.00, -1.00, 599.2, 109.0)">е</text><text xml:space="preserve" font-family="AvenirNext-Regular" font-size="36.0" fill="#000000" transform="matrix(1.00, 0.00, -0.00, -1.00, 619.8, 109.0)">к</text><text xml:space="preserve" font-family="AvenirNext-Regular" font-size="36.0" fill="#000000" transform="matrix(1.00, 0.00, -0.00, -1.00, 639.4, 109.0)">т</text><text xml:space="preserve" font-family="AvenirNext-Regular" font-size="36.0" fill="#000000" transform="matrix(1.00, 0.00, -0.00, -1.00, 654.9, 109.0)">и</text><text xml:space="preserve" font-family="AvenirNext-Regular" font-size="36.0" fill="#000000" transform="matrix(1.00, 0.00, -0.00, -1.00, 676.5, 109.0)">,</text><text xml:space="preserve" font-family="AvenirNext-Regular" font-size="36.0" fill="#000000" transform="matrix(1.00, 0.00, -0.00, -1.00, 684.7, 109.0)"> </text><text xml:space="preserve" font-family="AvenirNext-Regular" font-size="36.0" fill="#000000" transform="matrix(1.00, 0.00, -0.00, -1.00, 698.7, 109.0)">з</text><text xml:space="preserve" font-family="AvenirNext-Regular" font-size="36.0" fill="#000000" transform="matrix(1.00, 0.00, -0.00, -1.00, 715.3, 109.0)">а</text><text xml:space="preserve" font-family="AvenirNext-Regular" font-size="36.0" fill="#000000" transform="matrix(1.00, 0.00, -0.00, -1.00, 734.6, 109.0)">т</text><text xml:space="preserve" font-family="AvenirNext-Regular" font-size="36.0" fill="#000000" transform="matrix(1.00, 0.00, -0.00, -1.00, 750.1, 109.0)">в</text><text xml:space="preserve" font-family="AvenirNext-Regular" font-size="36.0" fill="#000000" transform="matrix(1.00, 0.00, -0.00, -1.00, 769.5, 109.0)">а</text><text xml:space="preserve" font-family="AvenirNext-Regular" font-size="36.0" fill="#000000" transform="matrix(1.00, 0.00, -0.00, -1.00, 788.8, 109.0)">р</text><text xml:space="preserve" font-family="AvenirNext-Regular" font-size="36.0" fill="#000000" transform="matrix(1.00, 0.00, -0.00, -1.00, 811.6, 109.0)">я</text><text xml:space="preserve" font-family="AvenirNext-Regular" font-size="36.0" fill="#000000" transform="matrix(1.00, 0.00, -0.00, -1.00, 831.0, 109.0)">н</text><text xml:space="preserve" font-family="AvenirNext-Regular" font-size="36.0" fill="#000000" transform="matrix(1.00, 0.00, -0.00, -1.00, 851.7, 109.0)">е</text><text xml:space="preserve" font-family="AvenirNext-Regular" font-size="36.0" fill="#000000" transform="matrix(1.00, 0.00, -0.00, -1.00, 872.3, 109.0)"> </text><text xml:space="preserve" font-family="AvenirNext-Regular" font-size="36.0" fill="#000000" transform="matrix(1.00, 0.00, -0.00, -1.00, 1.0, 60.0)">н</text><text xml:space="preserve" font-family="AvenirNext-Regular" font-size="36.0" fill="#000000" transform="matrix(1.00, 0.00, -0.00, -1.00, 21.7, 60.0)">а</text><text xml:space="preserve" font-family="AvenirNext-Regular" font-size="36.0" fill="#000000" transform="matrix(1.00, 0.00, -0.00, -1.00, 40.9, 60.0)"> </text><text xml:space="preserve" font-family="AvenirNext-Regular" font-size="36.0" fill="#000000" transform="matrix(1.00, 0.00, -0.00, -1.00, 52.7, 60.0)">ф</text><text xml:space="preserve" font-family="AvenirNext-Regular" font-size="36.0" fill="#000000" transform="matrix(1.00, 0.00, -0.00, -1.00, 76.7, 60.0)">а</text><text xml:space="preserve" font-family="AvenirNext-Regular" font-size="36.0" fill="#000000" transform="matrix(1.00, 0.00, -0.00, -1.00, 95.9, 60.0)">й</text><text xml:space="preserve" font-family="AvenirNext-Regular" font-size="36.0" fill="#000000" transform="matrix(1.00, 0.00, -0.00, -1.00, 117.5, 60.0)">л</text><text xml:space="preserve" font-family="AvenirNext-Regular" font-size="36.0" fill="#000000" transform="matrix(1.00, 0.00, -0.00, -1.00, 135.4, 60.0)">о</text><text xml:space="preserve" font-family="AvenirNext-Regular" font-size="36.0" fill="#000000" transform="matrix(1.00, 0.00, -0.00, -1.00, 157.4, 60.0)">в</text><text xml:space="preserve" font-family="AvenirNext-Regular" font-size="36.0" fill="#000000" transform="matrix(1.00, 0.00, -0.00, -1.00, 176.8, 60.0)">е</text><text xml:space="preserve" font-family="AvenirNext-Regular" font-size="36.0" fill="#000000" transform="matrix(1.00, 0.00, -0.00, -1.00, 197.4, 60.0)"> </text><text xml:space="preserve" font-family="AvenirNext-Regular" font-size="36.0" fill="#000000" transform="matrix(1.00, 0.00, -0.00, -1.00, 209.2, 60.0)">и</text><text xml:space="preserve" font-family="AvenirNext-Regular" font-size="36.0" fill="#000000" transform="matrix(1.00, 0.00, -0.00, -1.00, 230.8, 60.0)"> </text><text xml:space="preserve" font-family="AvenirNext-Regular" font-size="36.0" fill="#000000" transform="matrix(1.00, 0.00, -0.00, -1.00, 242.5, 60.0)">т</text><text xml:space="preserve" font-family="AvenirNext-Regular" font-size="36.0" fill="#000000" transform="matrix(1.00, 0.00, -0.00, -1.00, 258.0, 60.0)">.</text><text xml:space="preserve" font-family="AvenirNext-Regular" font-size="36.0" fill="#000000" transform="matrix(1.00, 0.00, -0.00, -1.00, 267.4, 60.0)">н</text><text xml:space="preserve" font-family="AvenirNext-Regular" font-size="36.0" fill="#000000" transform="matrix(1.00, 0.00, -0.00, -1.00, 288.1, 60.0)">.</text><text xml:space="preserve" font-family="AvenirNext-Regular" font-size="36.0" fill="#000000" transform="matrix(1.00, 0.00, -0.00, -1.00, 296.4, 60.0)"> </text><text xml:space="preserve" font-family="AvenirNext-Regular" font-size="36.0" fill="#000000" transform="matrix(1.00, 0.00, -0.00, -1.00, 308.1, 60.0)">-</text><text xml:space="preserve" font-family="AvenirNext-Regular" font-size="36.0" fill="#000000" transform="matrix(1.00, 0.00, -0.00, -1.00, 319.6, 60.0)"> </text><text xml:space="preserve" font-family="AvenirNext-Regular" font-size="36.0" fill="#000000" transform="matrix(1.00, 0.00, -0.00, -1.00, 331.4, 60.0)">н</text><text xml:space="preserve" font-family="AvenirNext-Regular" font-size="36.0" fill="#000000" transform="matrix(1.00, 0.00, -0.00, -1.00, 352.1, 60.0)">е</text><text xml:space="preserve" font-family="AvenirNext-Regular" font-size="36.0" fill="#000000" transform="matrix(1.00, 0.00, -0.00, -1.00, 372.7, 60.0)">щ</text><text xml:space="preserve" font-family="AvenirNext-Regular" font-size="36.0" fill="#000000" transform="matrix(1.00, 0.00, -0.00, -1.00, 401.8, 60.0)">а</text><text xml:space="preserve" font-family="AvenirNext-Regular" font-size="36.0" fill="#000000" transform="matrix(1.00, 0.00, -0.00, -1.00, 421.0, 60.0)"> </text><text xml:space="preserve" font-family="AvenirNext-Regular" font-size="36.0" fill="#000000" transform="matrix(1.00, 0.00, -0.00, -1.00, 432.8, 60.0)">к</text><text xml:space="preserve" font-family="AvenirNext-Regular" font-size="36.0" fill="#000000" transform="matrix(1.00, 0.00, -0.00, -1.00, 452.3, 60.0)">о</text><text xml:space="preserve" font-family="AvenirNext-Regular" font-size="36.0" fill="#000000" transform="matrix(1.00, 0.00, -0.00, -1.00, 474.3, 60.0)">и</text><text xml:space="preserve" font-family="AvenirNext-Regular" font-size="36.0" fill="#000000" transform="matrix(1.00, 0.00, -0.00, -1.00, 495.9, 60.0)">т</text><text xml:space="preserve" font-family="AvenirNext-Regular" font-size="36.0" fill="#000000" transform="matrix(1.00, 0.00, -0.00, -1.00, 511.4, 60.0)">о</text><text xml:space="preserve" font-family="AvenirNext-Regular" font-size="36.0" fill="#000000" transform="matrix(1.00, 0.00, -0.00, -1.00, 533.4, 60.0)"> </text><text xml:space="preserve" font-family="AvenirNext-Regular" font-size="36.0" fill="#000000" transform="matrix(1.00, 0.00, -0.00, -1.00, 545.2, 60.0)">н</text><text xml:space="preserve" font-family="AvenirNext-Regular" font-size="36.0" fill="#000000" transform="matrix(1.00, 0.00, -0.00, -1.00, 565.9, 60.0)">е</text><text xml:space="preserve" font-family="AvenirNext-Regular" font-size="36.0" fill="#000000" transform="matrix(1.00, 0.00, -0.00, -1.00, 586.5, 60.0)">з</text><text xml:space="preserve" font-family="AvenirNext-Regular" font-size="36.0" fill="#000000" transform="matrix(1.00, 0.00, -0.00, -1.00, 603.1, 60.0)">а</text><text xml:space="preserve" font-family="AvenirNext-Regular" font-size="36.0" fill="#000000" transform="matrix(1.00, 0.00, -0.00, -1.00, 622.3, 60.0)">в</text><text xml:space="preserve" font-family="AvenirNext-Regular" font-size="36.0" fill="#000000" transform="matrix(1.00, 0.00, -0.00, -1.00, 641.8, 60.0)">и</text><text xml:space="preserve" font-family="AvenirNext-Regular" font-size="36.0" fill="#000000" transform="matrix(1.00, 0.00, -0.00, -1.00, 663.4, 60.0)">с</text><text xml:space="preserve" font-family="AvenirNext-Regular" font-size="36.0" fill="#000000" transform="matrix(1.00, 0.00, -0.00, -1.00, 681.4, 60.0)">и</text><text xml:space="preserve" font-family="AvenirNext-Regular" font-size="36.0" fill="#000000" transform="matrix(1.00, 0.00, -0.00, -1.00, 702.9, 60.0)">м</text><text xml:space="preserve" font-family="AvenirNext-Regular" font-size="36.0" fill="#000000" transform="matrix(1.00, 0.00, -0.00, -1.00, 728.0, 60.0)">о</text><text xml:space="preserve" font-family="AvenirNext-Regular" font-size="36.0" fill="#000000" transform="matrix(1.00, 0.00, -0.00, -1.00, 750.0, 60.0)"> </text><text xml:space="preserve" font-family="AvenirNext-Regular" font-size="36.0" fill="#000000" transform="matrix(1.00, 0.00, -0.00, -1.00, 761.7, 60.0)">д</text><text xml:space="preserve" font-family="AvenirNext-Regular" font-size="36.0" fill="#000000" transform="matrix(1.00, 0.00, -0.00, -1.00, 781.3, 60.0)">а</text><text xml:space="preserve" font-family="AvenirNext-Regular" font-size="36.0" fill="#000000" transform="matrix(1.00, 0.00, -0.00, -1.00, 800.5, 60.0)">л</text><text xml:space="preserve" font-family="AvenirNext-Regular" font-size="36.0" fill="#000000" transform="matrix(1.00, 0.00, -0.00, -1.00, 818.4, 60.0)">и</text><text xml:space="preserve" font-family="AvenirNext-Regular" font-size="36.0" fill="#000000" transform="matrix(1.00, 0.00, -0.00, -1.00, 840.0, 60.0)"> </text><text xml:space="preserve" font-family="AvenirNext-Regular" font-size="36.0" fill="#000000" transform="matrix(1.00, 0.00, -0.00, -1.00, 851.7, 60.0)">е</text><text xml:space="preserve" font-family="AvenirNext-Regular" font-size="36.0" fill="#000000" transform="matrix(1.00, 0.00, -0.00, -1.00, 872.3, 60.0)"> </text><text xml:space="preserve" font-family="AvenirNext-Regular" font-size="36.0" fill="#000000" transform="matrix(1.00, 0.00, -0.00, -1.00, 1.0, 11.0)">и</text><text xml:space="preserve" font-family="AvenirNext-Regular" font-size="36.0" fill="#000000" transform="matrix(1.00, 0.00, -0.00, -1.00, 22.6, 11.0)">м</text><text xml:space="preserve" font-family="AvenirNext-Regular" font-size="36.0" fill="#000000" transform="matrix(1.00, 0.00, -0.00, -1.00, 47.6, 11.0)">а</text><text xml:space="preserve" font-family="AvenirNext-Regular" font-size="36.0" fill="#000000" transform="matrix(1.00, 0.00, -0.00, -1.00, 66.8, 11.0)">л</text><text xml:space="preserve" font-family="AvenirNext-Regular" font-size="36.0" fill="#000000" transform="matrix(1.00, 0.00, -0.00, -1.00, 84.7, 11.0)">о</text><text xml:space="preserve" font-family="AvenirNext-Regular" font-size="36.0" fill="#000000" transform="matrix(1.00, 0.00, -0.00, -1.00, 106.7, 11.0)"> </text><text xml:space="preserve" font-family="AvenirNext-Regular" font-size="36.0" fill="#000000" transform="matrix(1.00, 0.00, -0.00, -1.00, 115.7, 11.0)">г</text><text xml:space="preserve" font-family="AvenirNext-Regular" font-size="36.0" fill="#000000" transform="matrix(1.00, 0.00, -0.00, -1.00, 129.7, 11.0)">р</text><text xml:space="preserve" font-family="AvenirNext-Regular" font-size="36.0" fill="#000000" transform="matrix(1.00, 0.00, -0.00, -1.00, 152.5, 11.0)">е</text><text xml:space="preserve" font-family="AvenirNext-Regular" font-size="36.0" fill="#000000" transform="matrix(1.00, 0.00, -0.00, -1.00, 173.1, 11.0)">ш</text><text xml:space="preserve" font-family="AvenirNext-Regular" font-size="36.0" fill="#000000" transform="matrix(1.00, 0.00, -0.00, -1.00, 201.8, 11.0)">к</text><text xml:space="preserve" font-family="AvenirNext-Regular" font-size="36.0" fill="#000000" transform="matrix(1.00, 0.00, -0.00, -1.00, 221.4, 11.0)">а</text><text xml:space="preserve" font-family="AvenirNext-Regular" font-size="36.0" fill="#000000" transform="matrix(1.00, 0.00, -0.00, -1.00, 240.6, 11.0)"> </text><text xml:space="preserve" font-family="AvenirNext-Regular" font-size="36.0" fill="#000000" transform="matrix(1.00, 0.00, -0.00, -1.00, 249.6, 11.0)">и</text><text xml:space="preserve" font-family="AvenirNext-Regular" font-size="36.0" fill="#000000" transform="matrix(1.00, 0.00, -0.00, -1.00, 271.1, 11.0)">л</text><text xml:space="preserve" font-family="AvenirNext-Regular" font-size="36.0" fill="#000000" transform="matrix(1.00, 0.00, -0.00, -1.00, 289.0, 11.0)">и</text><text xml:space="preserve" font-family="AvenirNext-Regular" font-size="36.0" fill="#000000" transform="matrix(1.00, 0.00, -0.00, -1.00, 310.6, 11.0)"> </text><text xml:space="preserve" font-family="AvenirNext-Regular" font-size="36.0" fill="#000000" transform="matrix(1.00, 0.00, -0.00, -1.00, 319.6, 11.0)">н</text><text xml:space="preserve" font-family="AvenirNext-Regular" font-size="36.0" fill="#000000" transform="matrix(1.00, 0.00, -0.00, -1.00, 340.3, 11.0)">е</text><text xml:space="preserve" font-family="AvenirNext-Regular" font-size="36.0" fill="#000000" transform="matrix(1.00, 0.00, -0.00, -1.00, 360.9, 11.0)">,</text><text xml:space="preserve" font-family="AvenirNext-Regular" font-size="36.0" fill="#000000" transform="matrix(1.00, 0.00, -0.00, -1.00, 369.2, 11.0)"> </text><text xml:space="preserve" font-family="AvenirNext-Regular" font-size="36.0" fill="#000000" transform="matrix(1.00, 0.00, -0.00, -1.00, 378.2, 11.0)">т</text><text xml:space="preserve" font-family="AvenirNext-Regular" font-size="36.0" fill="#000000" transform="matrix(1.00, 0.00, -0.00, -1.00, 393.7, 11.0)">р</text><text xml:space="preserve" font-family="AvenirNext-Regular" font-size="36.0" fill="#000000" transform="matrix(1.00, 0.00, -0.00, -1.00, 416.5, 11.0)">я</text><text xml:space="preserve" font-family="AvenirNext-Regular" font-size="36.0" fill="#000000" transform="matrix(1.00, 0.00, -0.00, -1.00, 436.0, 11.0)">б</text><text xml:space="preserve" font-family="AvenirNext-Regular" font-size="36.0" fill="#000000" transform="matrix(1.00, 0.00, -0.00, -1.00, 457.5, 11.0)">в</text><text xml:space="preserve" font-family="AvenirNext-Regular" font-size="36.0" fill="#000000" transform="matrix(1.00, 0.00, -0.00, -1.00, 477.0, 11.0)">а</text><text xml:space="preserve" font-family="AvenirNext-Regular" font-size="36.0" fill="#000000" transform="matrix(1.00, 0.00, -0.00, -1.00, 496.2, 11.0)"> </text><text xml:space="preserve" font-family="AvenirNext-Regular" font-size="36.0" fill="#000000" transform="matrix(1.00, 0.00, -0.00, -1.00, 505.2, 11.0)">д</text><text xml:space="preserve" font-family="AvenirNext-Regular" font-size="36.0" fill="#000000" transform="matrix(1.00, 0.00, -0.00, -1.00, 524.8, 11.0)">а</text><text xml:space="preserve" font-family="AvenirNext-Regular" font-size="36.0" fill="#000000" transform="matrix(1.00, 0.00, -0.00, -1.00, 544.0, 11.0)"> </text><text xml:space="preserve" font-family="AvenirNext-Regular" font-size="36.0" fill="#000000" transform="matrix(1.00, 0.00, -0.00, -1.00, 553.0, 11.0)">с</text><text xml:space="preserve" font-family="AvenirNext-Regular" font-size="36.0" fill="#000000" transform="matrix(1.00, 0.00, -0.00, -1.00, 571.0, 11.0)">е</text><text xml:space="preserve" font-family="AvenirNext-Regular" font-size="36.0" fill="#000000" transform="matrix(1.00, 0.00, -0.00, -1.00, 591.6, 11.0)"> </text><text xml:space="preserve" font-family="AvenirNext-Regular" font-size="36.0" fill="#000000" transform="matrix(1.00, 0.00, -0.00, -1.00, 600.6, 11.0)">и</text><text xml:space="preserve" font-family="AvenirNext-Regular" font-size="36.0" fill="#000000" transform="matrix(1.00, 0.00, -0.00, -1.00, 622.2, 11.0)">з</text><text xml:space="preserve" font-family="AvenirNext-Regular" font-size="36.0" fill="#000000" transform="matrix(1.00, 0.00, -0.00, -1.00, 638.8, 11.0)">п</text><text xml:space="preserve" font-family="AvenirNext-Regular" font-size="36.0" fill="#000000" transform="matrix(1.00, 0.00, -0.00, -1.00, 659.3, 11.0)">ъ</text><text xml:space="preserve" font-family="AvenirNext-Regular" font-size="36.0" fill="#000000" transform="matrix(1.00, 0.00, -0.00, -1.00, 679.1, 11.0)">л</text><text xml:space="preserve" font-family="AvenirNext-Regular" font-size="36.0" fill="#000000" transform="matrix(1.00, 0.00, -0.00, -1.00, 697.0, 11.0)">н</text><text xml:space="preserve" font-family="AvenirNext-Regular" font-size="36.0" fill="#000000" transform="matrix(1.00, 0.00, -0.00, -1.00, 717.7, 11.0)">я</text><text xml:space="preserve" font-family="AvenirNext-Regular" font-size="36.0" fill="#000000" transform="matrix(1.00, 0.00, -0.00, -1.00, 737.1, 11.0)">т</text><text xml:space="preserve" font-family="AvenirNext-Regular" font-size="36.0" fill="#000000" transform="matrix(1.00, 0.00, -0.00, -1.00, 752.6, 11.0)">.</text></g></svg>