<?xml version="1.0" encoding="UTF-8" standalone="no"?><svg xmlns="http://www.w3.org/2000/svg" xmlns:xlink="http://www.w3.org/1999/xlink" clip-rule="evenodd" stroke-miterlimit="4.00" viewBox="0 0 1024 768"><desc>SVG generated by Keynote</desc><defs></defs><g transform="matrix(1.00, 0.00, -0.00, -1.00, 0.0, 768.0)"><g><clipPath id="clip-354"><path d="M 0.0 768.0 L 1024.0 768.0 L 1024.0 0.0 L 0.0 0.0 Z M 0.0 768.0 "></path></clipPath><g clip-path="url(#clip-354)"><image xlink:href="../../8F6754E5-F402-453C-8A28-A81B776A4759/assets/370422EB796A13E2672D714038217573.png" width="720.00" height="450.00" transform="matrix(1.42, 0.00, -0.00, -1.71, 0.0, 768.0)"></image></g></g><text xml:space="preserve" font-family="AvenirNext-Regular" font-size="80.0" fill="#000000" transform="matrix(1.00, 0.00, -0.00, -1.00, 465.0, 521.0)">Т</text><text xml:space="preserve" font-family="AvenirNext-Regular" font-size="80.0" fill="#000000" transform="matrix(1.00, 0.00, -0.00, -1.00, 510.6, 521.0)">о</text><text xml:space="preserve" font-family="AvenirNext-Regular" font-size="80.0" fill="#000000" transform="matrix(1.00, 0.00, -0.00, -1.00, 559.5, 521.0)"> </text><text xml:space="preserve" font-family="AvenirNext-Regular" font-size="50.4" fill="#000000" transform="matrix(1.00, 0.00, -0.00, -1.00, 121.0, 414.0)">с</text><text xml:space="preserve" font-family="AvenirNext-Regular" font-size="50.4" fill="#000000" transform="matrix(1.00, 0.00, -0.00, -1.00, 146.2, 414.0)">л</text><text xml:space="preserve" font-family="AvenirNext-Regular" font-size="50.4" fill="#000000" transform="matrix(1.00, 0.00, -0.00, -1.00, 171.2, 414.0)">е</text><text xml:space="preserve" font-family="AvenirNext-Regular" font-size="50.4" fill="#000000" transform="matrix(1.00, 0.00, -0.00, -1.00, 200.1, 414.0)">д</text><text xml:space="preserve" font-family="AvenirNext-Regular" font-size="50.4" fill="#000000" transform="matrix(1.00, 0.00, -0.00, -1.00, 227.5, 414.0)"> </text><text xml:space="preserve" font-family="AvenirNext-Regular" font-size="50.4" fill="#000000" transform="matrix(1.00, 0.00, -0.00, -1.00, 240.1, 414.0)">к</text><text xml:space="preserve" font-family="AvenirNext-Regular" font-size="50.4" fill="#000000" transform="matrix(1.00, 0.00, -0.00, -1.00, 267.5, 414.0)">р</text><text xml:space="preserve" font-family="AvenirNext-Regular" font-size="50.4" fill="#000000" transform="matrix(1.00, 0.00, -0.00, -1.00, 299.5, 414.0)">а</text><text xml:space="preserve" font-family="AvenirNext-Regular" font-size="50.4" fill="#000000" transform="matrix(1.00, 0.00, -0.00, -1.00, 326.4, 414.0)">я</text><text xml:space="preserve" font-family="AvenirNext-Regular" font-size="50.4" fill="#000000" transform="matrix(1.00, 0.00, -0.00, -1.00, 353.5, 414.0)"> </text><text xml:space="preserve" font-family="AvenirNext-Regular" font-size="50.4" fill="#000000" transform="matrix(1.00, 0.00, -0.00, -1.00, 366.1, 414.0)">н</text><text xml:space="preserve" font-family="AvenirNext-Regular" font-size="50.4" fill="#000000" transform="matrix(1.00, 0.00, -0.00, -1.00, 395.1, 414.0)">а</text><text xml:space="preserve" font-family="AvenirNext-Regular" font-size="50.4" fill="#000000" transform="matrix(1.00, 0.00, -0.00, -1.00, 422.0, 414.0)"> </text><text xml:space="preserve" font-family="AvenirNext-Regular" font-size="50.4" fill="#000000" transform="matrix(1.00, 0.00, -0.00, -1.00, 434.6, 414.0)">к</text><text xml:space="preserve" font-family="AvenirNext-Regular" font-size="50.4" fill="#000000" transform="matrix(1.00, 0.00, -0.00, -1.00, 462.0, 414.0)">у</text><text xml:space="preserve" font-family="AvenirNext-Regular" font-size="50.4" fill="#000000" transform="matrix(1.00, 0.00, -0.00, -1.00, 486.6, 414.0)">р</text><text xml:space="preserve" font-family="AvenirNext-Regular" font-size="50.4" fill="#000000" transform="matrix(1.00, 0.00, -0.00, -1.00, 518.6, 414.0)">с</text><text xml:space="preserve" font-family="AvenirNext-Regular" font-size="50.4" fill="#000000" transform="matrix(1.00, 0.00, -0.00, -1.00, 543.8, 414.0)">а</text><text xml:space="preserve" font-family="AvenirNext-Regular" font-size="50.4" fill="#000000" transform="matrix(1.00, 0.00, -0.00, -1.00, 570.7, 414.0)"> </text><text xml:space="preserve" font-family="AvenirNext-Regular" font-size="50.4" fill="#000000" transform="matrix(1.00, 0.00, -0.00, -1.00, 583.3, 414.0)">д</text><text xml:space="preserve" font-family="AvenirNext-Regular" font-size="50.4" fill="#000000" transform="matrix(1.00, 0.00, -0.00, -1.00, 610.7, 414.0)">а</text><text xml:space="preserve" font-family="AvenirNext-Regular" font-size="50.4" fill="#000000" transform="matrix(1.00, 0.00, -0.00, -1.00, 637.7, 414.0)"> </text><text xml:space="preserve" font-family="AvenirNext-Regular" font-size="50.4" fill="#000000" transform="matrix(1.00, 0.00, -0.00, -1.00, 650.3, 414.0)">м</text><text xml:space="preserve" font-family="AvenirNext-Regular" font-size="50.4" fill="#000000" transform="matrix(1.00, 0.00, -0.00, -1.00, 685.3, 414.0)">о</text><text xml:space="preserve" font-family="AvenirNext-Regular" font-size="50.4" fill="#000000" transform="matrix(1.00, 0.00, -0.00, -1.00, 716.1, 414.0)">ж</text><text xml:space="preserve" font-family="AvenirNext-Regular" font-size="50.4" fill="#000000" transform="matrix(1.00, 0.00, -0.00, -1.00, 757.2, 414.0)">е</text><text xml:space="preserve" font-family="AvenirNext-Regular" font-size="50.4" fill="#000000" transform="matrix(1.00, 0.00, -0.00, -1.00, 786.0, 414.0)">т</text><text xml:space="preserve" font-family="AvenirNext-Regular" font-size="50.4" fill="#000000" transform="matrix(1.00, 0.00, -0.00, -1.00, 807.8, 414.0)">е</text><text xml:space="preserve" font-family="AvenirNext-Regular" font-size="50.4" fill="#000000" transform="matrix(1.00, 0.00, -0.00, -1.00, 836.6, 414.0)"> </text><text xml:space="preserve" font-family="AvenirNext-Regular" font-size="50.4" fill="#000000" transform="matrix(1.00, 0.00, -0.00, -1.00, 849.2, 414.0)">д</text><text xml:space="preserve" font-family="AvenirNext-Regular" font-size="50.4" fill="#000000" transform="matrix(1.00, 0.00, -0.00, -1.00, 876.6, 414.0)">а</text><text xml:space="preserve" font-family="AvenirNext-Regular" font-size="50.4" fill="#000000" transform="matrix(1.00, 0.00, -0.00, -1.00, 903.5, 414.0)"> </text><text xml:space="preserve" font-family="AvenirNext-Regular" font-size="50.4" fill="#000000" transform="matrix(1.00, 0.00, -0.00, -1.00, 297.0, 346.0)">с</text><text xml:space="preserve" font-family="AvenirNext-Regular" font-size="50.4" fill="#000000" transform="matrix(1.00, 0.00, -0.00, -1.00, 322.2, 346.0)">и</text><text xml:space="preserve" font-family="AvenirNext-Regular" font-size="50.4" fill="#000000" transform="matrix(1.00, 0.00, -0.00, -1.00, 352.4, 346.0)"> </text><text xml:space="preserve" font-family="AvenirNext-Regular" font-size="50.4" fill="#000000" transform="matrix(1.00, 0.00, -0.00, -1.00, 365.0, 346.0)">г</text><text xml:space="preserve" font-family="AvenirNext-Regular" font-size="50.4" fill="#000000" transform="matrix(1.00, 0.00, -0.00, -1.00, 384.5, 346.0)">о</text><text xml:space="preserve" font-family="AvenirNext-Regular" font-size="50.4" fill="#000000" transform="matrix(1.00, 0.00, -0.00, -1.00, 415.3, 346.0)"> </text><text xml:space="preserve" font-family="AvenirNext-Regular" font-size="50.4" fill="#000000" transform="matrix(1.00, 0.00, -0.00, -1.00, 427.9, 346.0)">п</text><text xml:space="preserve" font-family="AvenirNext-Regular" font-size="50.4" fill="#000000" transform="matrix(1.00, 0.00, -0.00, -1.00, 456.5, 346.0)">р</text><text xml:space="preserve" font-family="AvenirNext-Regular" font-size="50.4" fill="#000000" transform="matrix(1.00, 0.00, -0.00, -1.00, 488.5, 346.0)">е</text><text xml:space="preserve" font-family="AvenirNext-Regular" font-size="50.4" fill="#000000" transform="matrix(1.00, 0.00, -0.00, -1.00, 517.3, 346.0)">д</text><text xml:space="preserve" font-family="AvenirNext-Regular" font-size="50.4" fill="#000000" transform="matrix(1.00, 0.00, -0.00, -1.00, 544.8, 346.0)">с</text><text xml:space="preserve" font-family="AvenirNext-Regular" font-size="50.4" fill="#000000" transform="matrix(1.00, 0.00, -0.00, -1.00, 570.0, 346.0)">т</text><text xml:space="preserve" font-family="AvenirNext-Regular" font-size="50.4" fill="#000000" transform="matrix(1.00, 0.00, -0.00, -1.00, 591.7, 346.0)">а</text><text xml:space="preserve" font-family="AvenirNext-Regular" font-size="50.4" fill="#000000" transform="matrix(1.00, 0.00, -0.00, -1.00, 618.6, 346.0)">в</text><text xml:space="preserve" font-family="AvenirNext-Regular" font-size="50.4" fill="#000000" transform="matrix(1.00, 0.00, -0.00, -1.00, 645.9, 346.0)">и</text><text xml:space="preserve" font-family="AvenirNext-Regular" font-size="50.4" fill="#000000" transform="matrix(1.00, 0.00, -0.00, -1.00, 676.1, 346.0)">т</text><text xml:space="preserve" font-family="AvenirNext-Regular" font-size="50.4" fill="#000000" transform="matrix(1.00, 0.00, -0.00, -1.00, 697.8, 346.0)">е</text></g></svg>