<?xml version="1.0" encoding="UTF-8" standalone="no"?><svg xmlns="http://www.w3.org/2000/svg" xmlns:xlink="http://www.w3.org/1999/xlink" clip-rule="evenodd" stroke-miterlimit="4.00" viewBox="0 0 1024 768"><desc>SVG generated by Keynote</desc><defs></defs><g transform="matrix(1.00, 0.00, -0.00, -1.00, 0.0, 768.0)"><g><clipPath id="clip-353"><path d="M 0.0 768.0 L 1024.0 768.0 L 1024.0 0.0 L 0.0 0.0 Z M 0.0 768.0 "></path></clipPath><g clip-path="url(#clip-353)"><image xlink:href="../../8F6754E5-F402-453C-8A28-A81B776A4759/assets/370422EB796A13E2672D714038217573.png" width="720.00" height="450.00" transform="matrix(1.42, 0.00, -0.00, -1.71, 0.0, 768.0)"></image></g></g><image xlink:href="../../9BDFAD8F-0516-452D-B201-D1BBB9F607AC/assets/881E138B5F5A53ED643B13330BC00A10.png" width="720.00" height="540.00" transform="matrix(1.33, 0.00, -0.00, -1.33, 32.0, 744.0)"></image><image xlink:href="../../9BDFAD8F-0516-452D-B201-D1BBB9F607AC/assets/DA6B42849FC952BC522A8AA639F513DC.png" width="263.00" height="104.00" transform="matrix(1.00, 0.00, -0.00, -1.00, 378.0, 683.0)"></image><text xml:space="preserve" font-family="AvenirNext-Regular" font-size="80.0" fill="#FEFFFE" transform="matrix(1.00, 0.00, -0.00, -1.00, 410.0, 622.0)">т</text><text xml:space="preserve" font-family="AvenirNext-Regular" font-size="80.0" fill="#FEFFFE" transform="matrix(1.00, 0.00, -0.00, -1.00, 444.5, 622.0)">а</text><text xml:space="preserve" font-family="AvenirNext-Regular" font-size="80.0" fill="#FEFFFE" transform="matrix(1.00, 0.00, -0.00, -1.00, 487.2, 622.0)">к</text><text xml:space="preserve" font-family="AvenirNext-Regular" font-size="80.0" fill="#FEFFFE" transform="matrix(1.00, 0.00, -0.00, -1.00, 530.6, 622.0)">а</text><text xml:space="preserve" font-family="AvenirNext-Regular" font-size="80.0" fill="#FEFFFE" transform="matrix(1.00, 0.00, -0.00, -1.00, 573.4, 622.0)">.</text><text xml:space="preserve" font-family="AvenirNext-Regular" font-size="80.0" fill="#FEFFFE" transform="matrix(1.00, 0.00, -0.00, -1.00, 594.2, 622.0)">.</text></g></svg>