<?xml version="1.0" encoding="UTF-8" standalone="no"?><svg xmlns="http://www.w3.org/2000/svg" xmlns:xlink="http://www.w3.org/1999/xlink" clip-rule="evenodd" stroke-miterlimit="4.00" viewBox="0 0 1024 768"><desc>SVG generated by Keynote</desc><defs></defs><g transform="matrix(1.00, 0.00, -0.00, -1.00, 0.0, 768.0)"><g><clipPath id="clip-581"><path d="M 0.0 768.0 L 1024.0 768.0 L 1024.0 0.0 L 0.0 0.0 Z M 0.0 768.0 "></path></clipPath><g clip-path="url(#clip-581)"><image xlink:href="../../8F6754E5-F402-453C-8A28-A81B776A4759/assets/370422EB796A13E2672D714038217573.png" width="720.00" height="450.00" transform="matrix(1.42, 0.00, -0.00, -1.71, 0.0, 768.0)"></image></g></g><text xml:space="preserve" font-family="CourierNewPS-BoldMT" font-weight="bold" font-size="74.0" fill="#000000" transform="matrix(1.00, 0.00, -0.00, -1.00, 135.0, 604.0)">H</text><text xml:space="preserve" font-family="CourierNewPS-BoldMT" font-weight="bold" font-size="74.0" fill="#000000" transform="matrix(1.00, 0.00, -0.00, -1.00, 179.4, 604.0)">T</text><text xml:space="preserve" font-family="CourierNewPS-BoldMT" font-weight="bold" font-size="74.0" fill="#000000" transform="matrix(1.00, 0.00, -0.00, -1.00, 223.8, 604.0)">M</text><text xml:space="preserve" font-family="CourierNewPS-BoldMT" font-weight="bold" font-size="74.0" fill="#000000" transform="matrix(1.00, 0.00, -0.00, -1.00, 268.2, 604.0)">L</text><text xml:space="preserve" font-family="CourierNewPS-BoldMT" font-weight="bold" font-size="74.0" fill="#000000" transform="matrix(1.00, 0.00, -0.00, -1.00, 312.7, 604.0)"> </text><text xml:space="preserve" font-family="CourierNewPS-BoldMT" font-weight="bold" font-size="74.0" fill="#000000" transform="matrix(1.00, 0.00, -0.00, -1.00, 357.1, 604.0)">m</text><text xml:space="preserve" font-family="CourierNewPS-BoldMT" font-weight="bold" font-size="74.0" fill="#000000" transform="matrix(1.00, 0.00, -0.00, -1.00, 401.5, 604.0)">e</text><text xml:space="preserve" font-family="CourierNewPS-BoldMT" font-weight="bold" font-size="74.0" fill="#000000" transform="matrix(1.00, 0.00, -0.00, -1.00, 445.9, 604.0)">t</text><text xml:space="preserve" font-family="CourierNewPS-BoldMT" font-weight="bold" font-size="74.0" fill="#000000" transform="matrix(1.00, 0.00, -0.00, -1.00, 490.3, 604.0)">a</text><text xml:space="preserve" font-family="CourierNewPS-BoldMT" font-weight="bold" font-size="74.0" fill="#000000" transform="matrix(1.00, 0.00, -0.00, -1.00, 534.7, 604.0)"> </text><text xml:space="preserve" font-family="CourierNewPS-BoldMT" font-weight="bold" font-size="74.0" fill="#000000" transform="matrix(1.00, 0.00, -0.00, -1.00, 579.1, 604.0)">c</text><text xml:space="preserve" font-family="CourierNewPS-BoldMT" font-weight="bold" font-size="74.0" fill="#000000" transform="matrix(1.00, 0.00, -0.00, -1.00, 623.6, 604.0)">o</text><text xml:space="preserve" font-family="CourierNewPS-BoldMT" font-weight="bold" font-size="74.0" fill="#000000" transform="matrix(1.00, 0.00, -0.00, -1.00, 668.0, 604.0)">n</text><text xml:space="preserve" font-family="CourierNewPS-BoldMT" font-weight="bold" font-size="74.0" fill="#000000" transform="matrix(1.00, 0.00, -0.00, -1.00, 712.4, 604.0)">t</text><text xml:space="preserve" font-family="CourierNewPS-BoldMT" font-weight="bold" font-size="74.0" fill="#000000" transform="matrix(1.00, 0.00, -0.00, -1.00, 756.8, 604.0)">e</text><text xml:space="preserve" font-family="CourierNewPS-BoldMT" font-weight="bold" font-size="74.0" fill="#000000" transform="matrix(1.00, 0.00, -0.00, -1.00, 801.2, 604.0)">n</text><text xml:space="preserve" font-family="CourierNewPS-BoldMT" font-weight="bold" font-size="74.0" fill="#000000" transform="matrix(1.00, 0.00, -0.00, -1.00, 845.6, 604.0)">t</text><image xlink:href="../../8F6754E5-F402-453C-8A28-A81B776A4759/assets/A19CA51ABE0CC7C430FB2D517821A158.png" width="320.00" height="212.00" transform="matrix(1.00, 0.00, -0.00, -1.00, 352.0, 490.0)"></image></g></svg>