<?xml version="1.0" encoding="UTF-8" standalone="no"?><svg xmlns="http://www.w3.org/2000/svg" xmlns:xlink="http://www.w3.org/1999/xlink" clip-rule="evenodd" stroke-miterlimit="4.00" viewBox="0 0 493 31"><desc>SVG generated by Keynote</desc><defs></defs><g transform="matrix(1.00, 0.00, -0.00, -1.00, 0.0, 31.0)"><text xml:space="preserve" font-family="AvenirNext-Regular" font-size="19.7" fill="#000000" transform="matrix(1.00, 0.00, -0.00, -1.00, 0.3, 11.2)">•</text><text xml:space="preserve" font-family="AvenirNext-Regular" font-size="26.3" fill="#000000" transform="matrix(1.00, 0.00, -0.00, -1.00, 26.0, 9.0)">К</text><text xml:space="preserve" font-family="AvenirNext-Regular" font-size="26.3" fill="#000000" transform="matrix(1.00, 0.00, -0.00, -1.00, 44.2, 9.0)">о</text><text xml:space="preserve" font-family="AvenirNext-Regular" font-size="26.3" fill="#000000" transform="matrix(1.00, 0.00, -0.00, -1.00, 60.2, 9.0)">и</text><text xml:space="preserve" font-family="AvenirNext-Regular" font-size="26.3" fill="#000000" transform="matrix(1.00, 0.00, -0.00, -1.00, 76.0, 9.0)"> </text><text xml:space="preserve" font-family="AvenirNext-Regular" font-size="26.3" fill="#000000" transform="matrix(1.00, 0.00, -0.00, -1.00, 82.5, 9.0)">г</text><text xml:space="preserve" font-family="AvenirNext-Regular" font-size="26.3" fill="#000000" transform="matrix(1.00, 0.00, -0.00, -1.00, 92.7, 9.0)">р</text><text xml:space="preserve" font-family="AvenirNext-Regular" font-size="26.3" fill="#000000" transform="matrix(1.00, 0.00, -0.00, -1.00, 109.4, 9.0)">е</text><text xml:space="preserve" font-family="AvenirNext-Regular" font-size="26.3" fill="#000000" transform="matrix(1.00, 0.00, -0.00, -1.00, 124.4, 9.0)">ш</text><text xml:space="preserve" font-family="AvenirNext-Regular" font-size="26.3" fill="#000000" transform="matrix(1.00, 0.00, -0.00, -1.00, 145.4, 9.0)">к</text><text xml:space="preserve" font-family="AvenirNext-Regular" font-size="26.3" fill="#000000" transform="matrix(1.00, 0.00, -0.00, -1.00, 159.7, 9.0)">и</text><text xml:space="preserve" font-family="AvenirNext-Regular" font-size="26.3" fill="#000000" transform="matrix(1.00, 0.00, -0.00, -1.00, 175.4, 9.0)"> </text><text xml:space="preserve" font-family="AvenirNext-Regular" font-size="26.3" fill="#000000" transform="matrix(1.00, 0.00, -0.00, -1.00, 182.0, 9.0)">т</text><text xml:space="preserve" font-family="AvenirNext-Regular" font-size="26.3" fill="#000000" transform="matrix(1.00, 0.00, -0.00, -1.00, 193.3, 9.0)">р</text><text xml:space="preserve" font-family="AvenirNext-Regular" font-size="26.3" fill="#000000" transform="matrix(1.00, 0.00, -0.00, -1.00, 210.0, 9.0)">я</text><text xml:space="preserve" font-family="AvenirNext-Regular" font-size="26.3" fill="#000000" transform="matrix(1.00, 0.00, -0.00, -1.00, 224.2, 9.0)">б</text><text xml:space="preserve" font-family="AvenirNext-Regular" font-size="26.3" fill="#000000" transform="matrix(1.00, 0.00, -0.00, -1.00, 239.9, 9.0)">в</text><text xml:space="preserve" font-family="AvenirNext-Regular" font-size="26.3" fill="#000000" transform="matrix(1.00, 0.00, -0.00, -1.00, 254.1, 9.0)">а</text><text xml:space="preserve" font-family="AvenirNext-Regular" font-size="26.3" fill="#000000" transform="matrix(1.00, 0.00, -0.00, -1.00, 268.1, 9.0)"> </text><text xml:space="preserve" font-family="AvenirNext-Regular" font-size="26.3" fill="#000000" transform="matrix(1.00, 0.00, -0.00, -1.00, 274.7, 9.0)">д</text><text xml:space="preserve" font-family="AvenirNext-Regular" font-size="26.3" fill="#000000" transform="matrix(1.00, 0.00, -0.00, -1.00, 289.0, 9.0)">а</text><text xml:space="preserve" font-family="AvenirNext-Regular" font-size="26.3" fill="#000000" transform="matrix(1.00, 0.00, -0.00, -1.00, 303.0, 9.0)"> </text><text xml:space="preserve" font-family="AvenirNext-Regular" font-size="26.3" fill="#000000" transform="matrix(1.00, 0.00, -0.00, -1.00, 309.6, 9.0)">с</text><text xml:space="preserve" font-family="AvenirNext-Regular" font-size="26.3" fill="#000000" transform="matrix(1.00, 0.00, -0.00, -1.00, 322.8, 9.0)">е</text><text xml:space="preserve" font-family="AvenirNext-Regular" font-size="26.3" fill="#000000" transform="matrix(1.00, 0.00, -0.00, -1.00, 337.8, 9.0)"> </text><text xml:space="preserve" font-family="AvenirNext-Regular" font-size="26.3" fill="#000000" transform="matrix(1.00, 0.00, -0.00, -1.00, 344.4, 9.0)">п</text><text xml:space="preserve" font-family="AvenirNext-Regular" font-size="26.3" fill="#000000" transform="matrix(1.00, 0.00, -0.00, -1.00, 359.3, 9.0)">р</text><text xml:space="preserve" font-family="AvenirNext-Regular" font-size="26.3" fill="#000000" transform="matrix(1.00, 0.00, -0.00, -1.00, 375.9, 9.0)">и</text><text xml:space="preserve" font-family="AvenirNext-Regular" font-size="26.3" fill="#000000" transform="matrix(1.00, 0.00, -0.00, -1.00, 391.7, 9.0)">х</text><text xml:space="preserve" font-family="AvenirNext-Regular" font-size="26.3" fill="#000000" transform="matrix(1.00, 0.00, -0.00, -1.00, 404.4, 9.0)">в</text><text xml:space="preserve" font-family="AvenirNext-Regular" font-size="26.3" fill="#000000" transform="matrix(1.00, 0.00, -0.00, -1.00, 418.6, 9.0)">а</text><text xml:space="preserve" font-family="AvenirNext-Regular" font-size="26.3" fill="#000000" transform="matrix(1.00, 0.00, -0.00, -1.00, 432.7, 9.0)">щ</text><text xml:space="preserve" font-family="AvenirNext-Regular" font-size="26.3" fill="#000000" transform="matrix(1.00, 0.00, -0.00, -1.00, 453.9, 9.0)">а</text><text xml:space="preserve" font-family="AvenirNext-Regular" font-size="26.3" fill="#000000" transform="matrix(1.00, 0.00, -0.00, -1.00, 468.0, 9.0)">т</text><text xml:space="preserve" font-family="AvenirNext-Regular" font-size="26.3" fill="#000000" transform="matrix(1.00, 0.00, -0.00, -1.00, 479.3, 9.0)">?</text></g></svg>