<?xml version="1.0" encoding="UTF-8" standalone="no"?><svg xmlns="http://www.w3.org/2000/svg" xmlns:xlink="http://www.w3.org/1999/xlink" clip-rule="evenodd" stroke-miterlimit="4.00" viewBox="0 0 785 103"><desc>SVG generated by Keynote</desc><defs></defs><g transform="matrix(1.00, 0.00, -0.00, -1.00, 0.0, 103.0)"><text xml:space="preserve" font-family="AvenirNext-Regular" font-size="19.7" fill="#000000" transform="matrix(1.00, 0.00, -0.00, -1.00, 0.3, 82.9)">•</text><text xml:space="preserve" font-family="AvenirNext-Regular" font-size="26.3" fill="#000000" transform="matrix(1.00, 0.00, -0.00, -1.00, 26.0, 81.0)">"</text><text xml:space="preserve" font-family="AvenirNext-Regular" font-size="26.3" fill="#000000" transform="matrix(1.00, 0.00, -0.00, -1.00, 36.6, 81.0)">с</text><text xml:space="preserve" font-family="AvenirNext-Regular" font-size="26.3" fill="#000000" transform="matrix(1.00, 0.00, -0.00, -1.00, 49.8, 81.0)">о</text><text xml:space="preserve" font-family="AvenirNext-Regular" font-size="26.3" fill="#000000" transform="matrix(1.00, 0.00, -0.00, -1.00, 65.8, 81.0)">б</text><text xml:space="preserve" font-family="AvenirNext-Regular" font-size="26.3" fill="#000000" transform="matrix(1.00, 0.00, -0.00, -1.00, 81.6, 81.0)">с</text><text xml:space="preserve" font-family="AvenirNext-Regular" font-size="26.3" fill="#000000" transform="matrix(1.00, 0.00, -0.00, -1.00, 94.7, 81.0)">т</text><text xml:space="preserve" font-family="AvenirNext-Regular" font-size="26.3" fill="#000000" transform="matrix(1.00, 0.00, -0.00, -1.00, 106.0, 81.0)">в</text><text xml:space="preserve" font-family="AvenirNext-Regular" font-size="26.3" fill="#000000" transform="matrix(1.00, 0.00, -0.00, -1.00, 120.3, 81.0)">е</text><text xml:space="preserve" font-family="AvenirNext-Regular" font-size="26.3" fill="#000000" transform="matrix(1.00, 0.00, -0.00, -1.00, 135.3, 81.0)">н</text><text xml:space="preserve" font-family="AvenirNext-Regular" font-size="26.3" fill="#000000" transform="matrix(1.00, 0.00, -0.00, -1.00, 150.4, 81.0)">и</text><text xml:space="preserve" font-family="AvenirNext-Regular" font-size="26.3" fill="#000000" transform="matrix(1.00, 0.00, -0.00, -1.00, 166.2, 81.0)">"</text><text xml:space="preserve" font-family="AvenirNext-Regular" font-size="26.3" fill="#000000" transform="matrix(1.00, 0.00, -0.00, -1.00, 176.8, 81.0)"> </text><text xml:space="preserve" font-family="AvenirNext-Regular" font-size="26.3" fill="#000000" transform="matrix(1.00, 0.00, -0.00, -1.00, 183.4, 81.0)">г</text><text xml:space="preserve" font-family="AvenirNext-Regular" font-size="26.3" fill="#000000" transform="matrix(1.00, 0.00, -0.00, -1.00, 193.6, 81.0)">р</text><text xml:space="preserve" font-family="AvenirNext-Regular" font-size="26.3" fill="#000000" transform="matrix(1.00, 0.00, -0.00, -1.00, 210.2, 81.0)">е</text><text xml:space="preserve" font-family="AvenirNext-Regular" font-size="26.3" fill="#000000" transform="matrix(1.00, 0.00, -0.00, -1.00, 225.3, 81.0)">ш</text><text xml:space="preserve" font-family="AvenirNext-Regular" font-size="26.3" fill="#000000" transform="matrix(1.00, 0.00, -0.00, -1.00, 246.2, 81.0)">к</text><text xml:space="preserve" font-family="AvenirNext-Regular" font-size="26.3" fill="#000000" transform="matrix(1.00, 0.00, -0.00, -1.00, 260.5, 81.0)">и</text><text xml:space="preserve" font-family="AvenirNext-Regular" font-size="26.3" fill="#000000" transform="matrix(1.00, 0.00, -0.00, -1.00, 276.2, 81.0)"> </text><text xml:space="preserve" font-family="AvenirNext-Regular" font-size="26.3" fill="#000000" transform="matrix(1.00, 0.00, -0.00, -1.00, 282.8, 81.0)">-</text><text xml:space="preserve" font-family="AvenirNext-Regular" font-size="26.3" fill="#000000" transform="matrix(1.00, 0.00, -0.00, -1.00, 291.2, 81.0)"> </text><text xml:space="preserve" font-family="AvenirNext-Regular" font-size="26.3" fill="#000000" transform="matrix(1.00, 0.00, -0.00, -1.00, 297.8, 81.0)">т</text><text xml:space="preserve" font-family="AvenirNext-Regular" font-size="26.3" fill="#000000" transform="matrix(1.00, 0.00, -0.00, -1.00, 309.1, 81.0)">е</text><text xml:space="preserve" font-family="AvenirNext-Regular" font-size="26.3" fill="#000000" transform="matrix(1.00, 0.00, -0.00, -1.00, 324.1, 81.0)">з</text><text xml:space="preserve" font-family="AvenirNext-Regular" font-size="26.3" fill="#000000" transform="matrix(1.00, 0.00, -0.00, -1.00, 336.3, 81.0)">и</text><text xml:space="preserve" font-family="AvenirNext-Regular" font-size="26.3" fill="#000000" transform="matrix(1.00, 0.00, -0.00, -1.00, 352.1, 81.0)"> </text><text xml:space="preserve" font-family="AvenirNext-Regular" font-size="26.3" fill="#000000" transform="matrix(1.00, 0.00, -0.00, -1.00, 358.6, 81.0)">к</text><text xml:space="preserve" font-family="AvenirNext-Regular" font-size="26.3" fill="#000000" transform="matrix(1.00, 0.00, -0.00, -1.00, 372.9, 81.0)">о</text><text xml:space="preserve" font-family="AvenirNext-Regular" font-size="26.3" fill="#000000" transform="matrix(1.00, 0.00, -0.00, -1.00, 389.0, 81.0)">и</text><text xml:space="preserve" font-family="AvenirNext-Regular" font-size="26.3" fill="#000000" transform="matrix(1.00, 0.00, -0.00, -1.00, 404.7, 81.0)">т</text><text xml:space="preserve" font-family="AvenirNext-Regular" font-size="26.3" fill="#000000" transform="matrix(1.00, 0.00, -0.00, -1.00, 416.0, 81.0)">о</text><text xml:space="preserve" font-family="AvenirNext-Regular" font-size="26.3" fill="#000000" transform="matrix(1.00, 0.00, -0.00, -1.00, 432.1, 81.0)"> </text><text xml:space="preserve" font-family="AvenirNext-Regular" font-size="26.3" fill="#000000" transform="matrix(1.00, 0.00, -0.00, -1.00, 438.6, 81.0)">с</text><text xml:space="preserve" font-family="AvenirNext-Regular" font-size="26.3" fill="#000000" transform="matrix(1.00, 0.00, -0.00, -1.00, 451.8, 81.0)">а</text><text xml:space="preserve" font-family="AvenirNext-Regular" font-size="26.3" fill="#000000" transform="matrix(1.00, 0.00, -0.00, -1.00, 465.8, 81.0)">м</text><text xml:space="preserve" font-family="AvenirNext-Regular" font-size="26.3" fill="#000000" transform="matrix(1.00, 0.00, -0.00, -1.00, 484.1, 81.0)">и</text><text xml:space="preserve" font-family="AvenirNext-Regular" font-size="26.3" fill="#000000" transform="matrix(1.00, 0.00, -0.00, -1.00, 499.8, 81.0)"> </text><text xml:space="preserve" font-family="AvenirNext-Regular" font-size="26.3" fill="#000000" transform="matrix(1.00, 0.00, -0.00, -1.00, 506.4, 81.0)">с</text><text xml:space="preserve" font-family="AvenirNext-Regular" font-size="26.3" fill="#000000" transform="matrix(1.00, 0.00, -0.00, -1.00, 519.5, 81.0)">м</text><text xml:space="preserve" font-family="AvenirNext-Regular" font-size="26.3" fill="#000000" transform="matrix(1.00, 0.00, -0.00, -1.00, 537.8, 81.0)">е</text><text xml:space="preserve" font-family="AvenirNext-Regular" font-size="26.3" fill="#000000" transform="matrix(1.00, 0.00, -0.00, -1.00, 552.8, 81.0)"> </text><text xml:space="preserve" font-family="AvenirNext-Regular" font-size="26.3" fill="#000000" transform="matrix(1.00, 0.00, -0.00, -1.00, 559.4, 81.0)">н</text><text xml:space="preserve" font-family="AvenirNext-Regular" font-size="26.3" fill="#000000" transform="matrix(1.00, 0.00, -0.00, -1.00, 574.5, 81.0)">а</text><text xml:space="preserve" font-family="AvenirNext-Regular" font-size="26.3" fill="#000000" transform="matrix(1.00, 0.00, -0.00, -1.00, 588.5, 81.0)">п</text><text xml:space="preserve" font-family="AvenirNext-Regular" font-size="26.3" fill="#000000" transform="matrix(1.00, 0.00, -0.00, -1.00, 603.5, 81.0)">р</text><text xml:space="preserve" font-family="AvenirNext-Regular" font-size="26.3" fill="#000000" transform="matrix(1.00, 0.00, -0.00, -1.00, 620.1, 81.0)">а</text><text xml:space="preserve" font-family="AvenirNext-Regular" font-size="26.3" fill="#000000" transform="matrix(1.00, 0.00, -0.00, -1.00, 634.2, 81.0)">в</text><text xml:space="preserve" font-family="AvenirNext-Regular" font-size="26.3" fill="#000000" transform="matrix(1.00, 0.00, -0.00, -1.00, 648.4, 81.0)">и</text><text xml:space="preserve" font-family="AvenirNext-Regular" font-size="26.3" fill="#000000" transform="matrix(1.00, 0.00, -0.00, -1.00, 664.1, 81.0)">л</text><text xml:space="preserve" font-family="AvenirNext-Regular" font-size="26.3" fill="#000000" transform="matrix(1.00, 0.00, -0.00, -1.00, 677.2, 81.0)">и</text><text xml:space="preserve" font-family="AvenirNext-Regular" font-size="26.3" fill="#000000" transform="matrix(1.00, 0.00, -0.00, -1.00, 692.9, 81.0)">,</text><text xml:space="preserve" font-family="AvenirNext-Regular" font-size="26.3" fill="#000000" transform="matrix(1.00, 0.00, -0.00, -1.00, 699.0, 81.0)"> </text><text xml:space="preserve" font-family="AvenirNext-Regular" font-size="26.3" fill="#000000" transform="matrix(1.00, 0.00, -0.00, -1.00, 705.5, 81.0)">з</text><text xml:space="preserve" font-family="AvenirNext-Regular" font-size="26.3" fill="#000000" transform="matrix(1.00, 0.00, -0.00, -1.00, 717.7, 81.0)">а</text><text xml:space="preserve" font-family="AvenirNext-Regular" font-size="26.3" fill="#000000" transform="matrix(1.00, 0.00, -0.00, -1.00, 731.7, 81.0)"> </text><text xml:space="preserve" font-family="AvenirNext-Regular" font-size="26.3" fill="#000000" transform="matrix(1.00, 0.00, -0.00, -1.00, 738.3, 81.0)">д</text><text xml:space="preserve" font-family="AvenirNext-Regular" font-size="26.3" fill="#000000" transform="matrix(1.00, 0.00, -0.00, -1.00, 752.6, 81.0)">а</text><text xml:space="preserve" font-family="AvenirNext-Regular" font-size="26.3" fill="#000000" transform="matrix(1.00, 0.00, -0.00, -1.00, 766.6, 81.0)"> </text><text xml:space="preserve" font-family="AvenirNext-Regular" font-size="26.3" fill="#000000" transform="matrix(1.00, 0.00, -0.00, -1.00, 26.0, 45.0)">и</text><text xml:space="preserve" font-family="AvenirNext-Regular" font-size="26.3" fill="#000000" transform="matrix(1.00, 0.00, -0.00, -1.00, 41.7, 45.0)">з</text><text xml:space="preserve" font-family="AvenirNext-Regular" font-size="26.3" fill="#000000" transform="matrix(1.00, 0.00, -0.00, -1.00, 53.9, 45.0)">п</text><text xml:space="preserve" font-family="AvenirNext-Regular" font-size="26.3" fill="#000000" transform="matrix(1.00, 0.00, -0.00, -1.00, 68.8, 45.0)">о</text><text xml:space="preserve" font-family="AvenirNext-Regular" font-size="26.3" fill="#000000" transform="matrix(1.00, 0.00, -0.00, -1.00, 84.9, 45.0)">л</text><text xml:space="preserve" font-family="AvenirNext-Regular" font-size="26.3" fill="#000000" transform="matrix(1.00, 0.00, -0.00, -1.00, 97.9, 45.0)">з</text><text xml:space="preserve" font-family="AvenirNext-Regular" font-size="26.3" fill="#000000" transform="matrix(1.00, 0.00, -0.00, -1.00, 110.1, 45.0)">в</text><text xml:space="preserve" font-family="AvenirNext-Regular" font-size="26.3" fill="#000000" transform="matrix(1.00, 0.00, -0.00, -1.00, 124.3, 45.0)">а</text><text xml:space="preserve" font-family="AvenirNext-Regular" font-size="26.3" fill="#000000" transform="matrix(1.00, 0.00, -0.00, -1.00, 138.3, 45.0)">м</text><text xml:space="preserve" font-family="AvenirNext-Regular" font-size="26.3" fill="#000000" transform="matrix(1.00, 0.00, -0.00, -1.00, 156.6, 45.0)">е</text><text xml:space="preserve" font-family="AvenirNext-Regular" font-size="26.3" fill="#000000" transform="matrix(1.00, 0.00, -0.00, -1.00, 171.6, 45.0)"> </text><text xml:space="preserve" font-family="AvenirNext-Regular" font-size="26.3" fill="#000000" transform="matrix(1.00, 0.00, -0.00, -1.00, 178.2, 45.0)">з</text><text xml:space="preserve" font-family="AvenirNext-Regular" font-size="26.3" fill="#000000" transform="matrix(1.00, 0.00, -0.00, -1.00, 190.4, 45.0)">а</text><text xml:space="preserve" font-family="AvenirNext-Regular" font-size="26.3" fill="#000000" transform="matrix(1.00, 0.00, -0.00, -1.00, 204.4, 45.0)"> </text><text xml:space="preserve" font-family="AvenirNext-Regular" font-size="26.3" fill="#000000" transform="matrix(1.00, 0.00, -0.00, -1.00, 211.0, 45.0)">к</text><text xml:space="preserve" font-family="AvenirNext-Regular" font-size="26.3" fill="#000000" transform="matrix(1.00, 0.00, -0.00, -1.00, 225.3, 45.0)">о</text><text xml:space="preserve" font-family="AvenirNext-Regular" font-size="26.3" fill="#000000" transform="matrix(1.00, 0.00, -0.00, -1.00, 241.3, 45.0)">н</text><text xml:space="preserve" font-family="AvenirNext-Regular" font-size="26.3" fill="#000000" transform="matrix(1.00, 0.00, -0.00, -1.00, 256.4, 45.0)">т</text><text xml:space="preserve" font-family="AvenirNext-Regular" font-size="26.3" fill="#000000" transform="matrix(1.00, 0.00, -0.00, -1.00, 267.7, 45.0)">р</text><text xml:space="preserve" font-family="AvenirNext-Regular" font-size="26.3" fill="#000000" transform="matrix(1.00, 0.00, -0.00, -1.00, 284.4, 45.0)">о</text><text xml:space="preserve" font-family="AvenirNext-Regular" font-size="26.3" fill="#000000" transform="matrix(1.00, 0.00, -0.00, -1.00, 300.5, 45.0)">л</text><text xml:space="preserve" font-family="AvenirNext-Regular" font-size="26.3" fill="#000000" transform="matrix(1.00, 0.00, -0.00, -1.00, 313.6, 45.0)"> </text><text xml:space="preserve" font-family="AvenirNext-Regular" font-size="26.3" fill="#000000" transform="matrix(1.00, 0.00, -0.00, -1.00, 320.1, 45.0)">н</text><text xml:space="preserve" font-family="AvenirNext-Regular" font-size="26.3" fill="#000000" transform="matrix(1.00, 0.00, -0.00, -1.00, 335.2, 45.0)">а</text><text xml:space="preserve" font-family="AvenirNext-Regular" font-size="26.3" fill="#000000" transform="matrix(1.00, 0.00, -0.00, -1.00, 349.3, 45.0)"> </text><text xml:space="preserve" font-family="AvenirNext-Regular" font-size="26.3" fill="#000000" transform="matrix(1.00, 0.00, -0.00, -1.00, 355.8, 45.0)">и</text><text xml:space="preserve" font-family="AvenirNext-Regular" font-size="26.3" fill="#000000" transform="matrix(1.00, 0.00, -0.00, -1.00, 371.6, 45.0)">з</text><text xml:space="preserve" font-family="AvenirNext-Regular" font-size="26.3" fill="#000000" transform="matrix(1.00, 0.00, -0.00, -1.00, 383.7, 45.0)">п</text><text xml:space="preserve" font-family="AvenirNext-Regular" font-size="26.3" fill="#000000" transform="matrix(1.00, 0.00, -0.00, -1.00, 398.7, 45.0)">ъ</text><text xml:space="preserve" font-family="AvenirNext-Regular" font-size="26.3" fill="#000000" transform="matrix(1.00, 0.00, -0.00, -1.00, 413.2, 45.0)">л</text><text xml:space="preserve" font-family="AvenirNext-Regular" font-size="26.3" fill="#000000" transform="matrix(1.00, 0.00, -0.00, -1.00, 426.2, 45.0)">н</text><text xml:space="preserve" font-family="AvenirNext-Regular" font-size="26.3" fill="#000000" transform="matrix(1.00, 0.00, -0.00, -1.00, 441.3, 45.0)">е</text><text xml:space="preserve" font-family="AvenirNext-Regular" font-size="26.3" fill="#000000" transform="matrix(1.00, 0.00, -0.00, -1.00, 456.4, 45.0)">н</text><text xml:space="preserve" font-family="AvenirNext-Regular" font-size="26.3" fill="#000000" transform="matrix(1.00, 0.00, -0.00, -1.00, 471.5, 45.0)">и</text><text xml:space="preserve" font-family="AvenirNext-Regular" font-size="26.3" fill="#000000" transform="matrix(1.00, 0.00, -0.00, -1.00, 487.2, 45.0)">е</text><text xml:space="preserve" font-family="AvenirNext-Regular" font-size="26.3" fill="#000000" transform="matrix(1.00, 0.00, -0.00, -1.00, 502.2, 45.0)">т</text><text xml:space="preserve" font-family="AvenirNext-Regular" font-size="26.3" fill="#000000" transform="matrix(1.00, 0.00, -0.00, -1.00, 513.6, 45.0)">о</text><text xml:space="preserve" font-family="AvenirNext-Regular" font-size="26.3" fill="#000000" transform="matrix(1.00, 0.00, -0.00, -1.00, 529.6, 45.0)"> </text><text xml:space="preserve" font-family="AvenirNext-Regular" font-size="26.3" fill="#000000" transform="matrix(1.00, 0.00, -0.00, -1.00, 536.2, 45.0)">н</text><text xml:space="preserve" font-family="AvenirNext-Regular" font-size="26.3" fill="#000000" transform="matrix(1.00, 0.00, -0.00, -1.00, 551.3, 45.0)">а</text><text xml:space="preserve" font-family="AvenirNext-Regular" font-size="26.3" fill="#000000" transform="matrix(1.00, 0.00, -0.00, -1.00, 565.3, 45.0)"> </text><text xml:space="preserve" font-family="AvenirNext-Regular" font-size="26.3" fill="#000000" transform="matrix(1.00, 0.00, -0.00, -1.00, 571.9, 45.0)">п</text><text xml:space="preserve" font-family="AvenirNext-Regular" font-size="26.3" fill="#000000" transform="matrix(1.00, 0.00, -0.00, -1.00, 586.8, 45.0)">р</text><text xml:space="preserve" font-family="AvenirNext-Regular" font-size="26.3" fill="#000000" transform="matrix(1.00, 0.00, -0.00, -1.00, 603.5, 45.0)">о</text><text xml:space="preserve" font-family="AvenirNext-Regular" font-size="26.3" fill="#000000" transform="matrix(1.00, 0.00, -0.00, -1.00, 619.6, 45.0)">г</text><text xml:space="preserve" font-family="AvenirNext-Regular" font-size="26.3" fill="#000000" transform="matrix(1.00, 0.00, -0.00, -1.00, 629.8, 45.0)">р</text><text xml:space="preserve" font-family="AvenirNext-Regular" font-size="26.3" fill="#000000" transform="matrix(1.00, 0.00, -0.00, -1.00, 646.4, 45.0)">а</text><text xml:space="preserve" font-family="AvenirNext-Regular" font-size="26.3" fill="#000000" transform="matrix(1.00, 0.00, -0.00, -1.00, 660.5, 45.0)">м</text><text xml:space="preserve" font-family="AvenirNext-Regular" font-size="26.3" fill="#000000" transform="matrix(1.00, 0.00, -0.00, -1.00, 678.7, 45.0)">а</text><text xml:space="preserve" font-family="AvenirNext-Regular" font-size="26.3" fill="#000000" transform="matrix(1.00, 0.00, -0.00, -1.00, 692.8, 45.0)">т</text><text xml:space="preserve" font-family="AvenirNext-Regular" font-size="26.3" fill="#000000" transform="matrix(1.00, 0.00, -0.00, -1.00, 704.1, 45.0)">а</text><text xml:space="preserve" font-family="AvenirNext-Regular" font-size="26.3" fill="#000000" transform="matrix(1.00, 0.00, -0.00, -1.00, 718.1, 45.0)"> </text><text xml:space="preserve" font-family="AvenirNext-Regular" font-size="26.3" fill="#000000" transform="matrix(1.00, 0.00, -0.00, -1.00, 724.7, 45.0)">(</text><text xml:space="preserve" font-family="AvenirNext-Regular" font-size="26.3" fill="#000000" transform="matrix(1.00, 0.00, -0.00, -1.00, 732.6, 45.0)">ﬂ</text><text xml:space="preserve" font-family="AvenirNext-Regular" font-size="26.3" fill="#000000" transform="matrix(1.00, 0.00, -0.00, -1.00, 746.9, 45.0)">o</text><text xml:space="preserve" font-family="AvenirNext-Regular" font-size="26.3" fill="#000000" transform="matrix(1.00, 0.00, -0.00, -1.00, 762.9, 45.0)">w</text><text xml:space="preserve" font-family="AvenirNext-Regular" font-size="26.3" fill="#000000" transform="matrix(1.00, 0.00, -0.00, -1.00, 782.5, 45.0)"> </text><text xml:space="preserve" font-family="AvenirNext-Regular" font-size="26.3" fill="#000000" transform="matrix(1.00, 0.00, -0.00, -1.00, 26.0, 9.0)">c</text><text xml:space="preserve" font-family="AvenirNext-Regular" font-size="26.3" fill="#000000" transform="matrix(1.00, 0.00, -0.00, -1.00, 39.1, 9.0)">o</text><text xml:space="preserve" font-family="AvenirNext-Regular" font-size="26.3" fill="#000000" transform="matrix(1.00, 0.00, -0.00, -1.00, 55.2, 9.0)">n</text><text xml:space="preserve" font-family="AvenirNext-Regular" font-size="26.3" fill="#000000" transform="matrix(1.00, 0.00, -0.00, -1.00, 70.5, 9.0)">t</text><text xml:space="preserve" font-family="AvenirNext-Regular" font-size="26.3" fill="#000000" transform="matrix(1.00, 0.00, -0.00, -1.00, 78.8, 9.0)">r</text><text xml:space="preserve" font-family="AvenirNext-Regular" font-size="26.3" fill="#000000" transform="matrix(1.00, 0.00, -0.00, -1.00, 87.8, 9.0)">o</text><text xml:space="preserve" font-family="AvenirNext-Regular" font-size="26.3" fill="#000000" transform="matrix(1.00, 0.00, -0.00, -1.00, 103.8, 9.0)">l</text><text xml:space="preserve" font-family="AvenirNext-Regular" font-size="26.3" fill="#000000" transform="matrix(1.00, 0.00, -0.00, -1.00, 110.5, 9.0)">)</text><text xml:space="preserve" font-family="AvenirNext-Regular" font-size="26.3" fill="#000000" transform="matrix(1.00, 0.00, -0.00, -1.00, 118.3, 9.0)">,</text><text xml:space="preserve" font-family="AvenirNext-Regular" font-size="26.3" fill="#000000" transform="matrix(1.00, 0.00, -0.00, -1.00, 124.4, 9.0)"> </text><text xml:space="preserve" font-family="AvenirNext-Regular" font-size="26.3" fill="#000000" transform="matrix(1.00, 0.00, -0.00, -1.00, 131.0, 9.0)">н</text><text xml:space="preserve" font-family="AvenirNext-Regular" font-size="26.3" fill="#000000" transform="matrix(1.00, 0.00, -0.00, -1.00, 146.1, 9.0)">а</text><text xml:space="preserve" font-family="AvenirNext-Regular" font-size="26.3" fill="#000000" transform="matrix(1.00, 0.00, -0.00, -1.00, 160.1, 9.0)">п</text><text xml:space="preserve" font-family="AvenirNext-Regular" font-size="26.3" fill="#000000" transform="matrix(1.00, 0.00, -0.00, -1.00, 175.0, 9.0)">р</text><text xml:space="preserve" font-family="AvenirNext-Regular" font-size="26.3" fill="#000000" transform="matrix(1.00, 0.00, -0.00, -1.00, 191.7, 9.0)">и</text><text xml:space="preserve" font-family="AvenirNext-Regular" font-size="26.3" fill="#000000" transform="matrix(1.00, 0.00, -0.00, -1.00, 207.4, 9.0)">м</text><text xml:space="preserve" font-family="AvenirNext-Regular" font-size="26.3" fill="#000000" transform="matrix(1.00, 0.00, -0.00, -1.00, 225.7, 9.0)">е</text><text xml:space="preserve" font-family="AvenirNext-Regular" font-size="26.3" fill="#000000" transform="matrix(1.00, 0.00, -0.00, -1.00, 240.7, 9.0)">р</text><text xml:space="preserve" font-family="AvenirNext-Regular" font-size="26.3" fill="#000000" transform="matrix(1.00, 0.00, -0.00, -1.00, 257.4, 9.0)"> </text><text xml:space="preserve" font-family="AvenirNext-Regular" font-size="26.3" fill="#000000" transform="matrix(1.00, 0.00, -0.00, -1.00, 264.0, 9.0)">п</text><text xml:space="preserve" font-family="AvenirNext-Regular" font-size="26.3" fill="#000000" transform="matrix(1.00, 0.00, -0.00, -1.00, 278.9, 9.0)">р</text><text xml:space="preserve" font-family="AvenirNext-Regular" font-size="26.3" fill="#000000" transform="matrix(1.00, 0.00, -0.00, -1.00, 295.6, 9.0)">и</text><text xml:space="preserve" font-family="AvenirNext-Regular" font-size="26.3" fill="#000000" transform="matrix(1.00, 0.00, -0.00, -1.00, 311.3, 9.0)"> </text><text xml:space="preserve" font-family="AvenirNext-Regular" font-size="26.3" fill="#000000" transform="matrix(1.00, 0.00, -0.00, -1.00, 317.9, 9.0)">в</text><text xml:space="preserve" font-family="AvenirNext-Regular" font-size="26.3" fill="#000000" transform="matrix(1.00, 0.00, -0.00, -1.00, 332.1, 9.0)">а</text><text xml:space="preserve" font-family="AvenirNext-Regular" font-size="26.3" fill="#000000" transform="matrix(1.00, 0.00, -0.00, -1.00, 346.1, 9.0)">л</text><text xml:space="preserve" font-family="AvenirNext-Regular" font-size="26.3" fill="#000000" transform="matrix(1.00, 0.00, -0.00, -1.00, 359.2, 9.0)">и</text><text xml:space="preserve" font-family="AvenirNext-Regular" font-size="26.3" fill="#000000" transform="matrix(1.00, 0.00, -0.00, -1.00, 374.9, 9.0)">д</text><text xml:space="preserve" font-family="AvenirNext-Regular" font-size="26.3" fill="#000000" transform="matrix(1.00, 0.00, -0.00, -1.00, 389.2, 9.0)">а</text><text xml:space="preserve" font-family="AvenirNext-Regular" font-size="26.3" fill="#000000" transform="matrix(1.00, 0.00, -0.00, -1.00, 403.3, 9.0)">ц</text><text xml:space="preserve" font-family="AvenirNext-Regular" font-size="26.3" fill="#000000" transform="matrix(1.00, 0.00, -0.00, -1.00, 418.3, 9.0)">и</text><text xml:space="preserve" font-family="AvenirNext-Regular" font-size="26.3" fill="#000000" transform="matrix(1.00, 0.00, -0.00, -1.00, 434.0, 9.0)">я</text><text xml:space="preserve" font-family="AvenirNext-Regular" font-size="26.3" fill="#000000" transform="matrix(1.00, 0.00, -0.00, -1.00, 448.2, 9.0)"> </text><text xml:space="preserve" font-family="AvenirNext-Regular" font-size="26.3" fill="#000000" transform="matrix(1.00, 0.00, -0.00, -1.00, 454.8, 9.0)">н</text><text xml:space="preserve" font-family="AvenirNext-Regular" font-size="26.3" fill="#000000" transform="matrix(1.00, 0.00, -0.00, -1.00, 469.9, 9.0)">а</text><text xml:space="preserve" font-family="AvenirNext-Regular" font-size="26.3" fill="#000000" transform="matrix(1.00, 0.00, -0.00, -1.00, 483.9, 9.0)"> </text><text xml:space="preserve" font-family="AvenirNext-Regular" font-size="26.3" fill="#000000" transform="matrix(1.00, 0.00, -0.00, -1.00, 490.5, 9.0)">и</text><text xml:space="preserve" font-family="AvenirNext-Regular" font-size="26.3" fill="#000000" transform="matrix(1.00, 0.00, -0.00, -1.00, 506.2, 9.0)">н</text><text xml:space="preserve" font-family="AvenirNext-Regular" font-size="26.3" fill="#000000" transform="matrix(1.00, 0.00, -0.00, -1.00, 521.3, 9.0)">п</text><text xml:space="preserve" font-family="AvenirNext-Regular" font-size="26.3" fill="#000000" transform="matrix(1.00, 0.00, -0.00, -1.00, 536.2, 9.0)">у</text><text xml:space="preserve" font-family="AvenirNext-Regular" font-size="26.3" fill="#000000" transform="matrix(1.00, 0.00, -0.00, -1.00, 549.1, 9.0)">т</text><text xml:space="preserve" font-family="AvenirNext-Regular" font-size="26.3" fill="#000000" transform="matrix(1.00, 0.00, -0.00, -1.00, 560.4, 9.0)"> </text><text xml:space="preserve" font-family="AvenirNext-Regular" font-size="26.3" fill="#000000" transform="matrix(1.00, 0.00, -0.00, -1.00, 566.9, 9.0)">ф</text><text xml:space="preserve" font-family="AvenirNext-Regular" font-size="26.3" fill="#000000" transform="matrix(1.00, 0.00, -0.00, -1.00, 584.5, 9.0)">о</text><text xml:space="preserve" font-family="AvenirNext-Regular" font-size="26.3" fill="#000000" transform="matrix(1.00, 0.00, -0.00, -1.00, 600.5, 9.0)">р</text><text xml:space="preserve" font-family="AvenirNext-Regular" font-size="26.3" fill="#000000" transform="matrix(1.00, 0.00, -0.00, -1.00, 617.2, 9.0)">м</text><text xml:space="preserve" font-family="AvenirNext-Regular" font-size="26.3" fill="#000000" transform="matrix(1.00, 0.00, -0.00, -1.00, 635.5, 9.0)">а</text></g></svg>