<?xml version="1.0" encoding="UTF-8" standalone="no"?><svg xmlns="http://www.w3.org/2000/svg" xmlns:xlink="http://www.w3.org/1999/xlink" clip-rule="evenodd" stroke-miterlimit="4.00" viewBox="0 0 883 67"><desc>SVG generated by Keynote</desc><defs></defs><g transform="matrix(1.00, 0.00, -0.00, -1.00, 0.0, 67.0)"><text xml:space="preserve" font-family="AvenirNext-Regular" font-size="19.7" fill="#000000" transform="matrix(1.00, 0.00, -0.00, -1.00, 0.3, 46.5)">•</text><text xml:space="preserve" font-family="AvenirNext-Regular" font-size="26.3" fill="#000000" transform="matrix(1.00, 0.00, -0.00, -1.00, 26.0, 44.0)">"</text><text xml:space="preserve" font-family="AvenirNext-Regular" font-size="26.3" fill="#000000" transform="matrix(1.00, 0.00, -0.00, -1.00, 36.6, 44.0)">Х</text><text xml:space="preserve" font-family="AvenirNext-Regular" font-size="26.3" fill="#000000" transform="matrix(1.00, 0.00, -0.00, -1.00, 53.7, 44.0)">в</text><text xml:space="preserve" font-family="AvenirNext-Regular" font-size="26.3" fill="#000000" transform="matrix(1.00, 0.00, -0.00, -1.00, 67.9, 44.0)">а</text><text xml:space="preserve" font-family="AvenirNext-Regular" font-size="26.3" fill="#000000" transform="matrix(1.00, 0.00, -0.00, -1.00, 82.0, 44.0)">щ</text><text xml:space="preserve" font-family="AvenirNext-Regular" font-size="26.3" fill="#000000" transform="matrix(1.00, 0.00, -0.00, -1.00, 103.2, 44.0)">а</text><text xml:space="preserve" font-family="AvenirNext-Regular" font-size="26.3" fill="#000000" transform="matrix(1.00, 0.00, -0.00, -1.00, 117.2, 44.0)">м</text><text xml:space="preserve" font-family="AvenirNext-Regular" font-size="26.3" fill="#000000" transform="matrix(1.00, 0.00, -0.00, -1.00, 135.5, 44.0)">е</text><text xml:space="preserve" font-family="AvenirNext-Regular" font-size="26.3" fill="#000000" transform="matrix(1.00, 0.00, -0.00, -1.00, 150.5, 44.0)">"</text><text xml:space="preserve" font-family="AvenirNext-Regular" font-size="26.3" fill="#000000" transform="matrix(1.00, 0.00, -0.00, -1.00, 161.2, 44.0)"> </text><text xml:space="preserve" font-family="AvenirNext-Regular" font-size="26.3" fill="#000000" transform="matrix(1.00, 0.00, -0.00, -1.00, 167.8, 44.0)">г</text><text xml:space="preserve" font-family="AvenirNext-Regular" font-size="26.3" fill="#000000" transform="matrix(1.00, 0.00, -0.00, -1.00, 178.0, 44.0)">р</text><text xml:space="preserve" font-family="AvenirNext-Regular" font-size="26.3" fill="#000000" transform="matrix(1.00, 0.00, -0.00, -1.00, 194.6, 44.0)">е</text><text xml:space="preserve" font-family="AvenirNext-Regular" font-size="26.3" fill="#000000" transform="matrix(1.00, 0.00, -0.00, -1.00, 209.7, 44.0)">ш</text><text xml:space="preserve" font-family="AvenirNext-Regular" font-size="26.3" fill="#000000" transform="matrix(1.00, 0.00, -0.00, -1.00, 230.6, 44.0)">к</text><text xml:space="preserve" font-family="AvenirNext-Regular" font-size="26.3" fill="#000000" transform="matrix(1.00, 0.00, -0.00, -1.00, 244.9, 44.0)">и</text><text xml:space="preserve" font-family="AvenirNext-Regular" font-size="26.3" fill="#000000" transform="matrix(1.00, 0.00, -0.00, -1.00, 260.6, 44.0)">т</text><text xml:space="preserve" font-family="AvenirNext-Regular" font-size="26.3" fill="#000000" transform="matrix(1.00, 0.00, -0.00, -1.00, 272.0, 44.0)">е</text><text xml:space="preserve" font-family="AvenirNext-Regular" font-size="26.3" fill="#000000" transform="matrix(1.00, 0.00, -0.00, -1.00, 287.0, 44.0)"> </text><text xml:space="preserve" font-family="AvenirNext-Regular" font-size="26.3" fill="#000000" transform="matrix(1.00, 0.00, -0.00, -1.00, 293.6, 44.0)">с</text><text xml:space="preserve" font-family="AvenirNext-Regular" font-size="26.3" fill="#000000" transform="matrix(1.00, 0.00, -0.00, -1.00, 306.7, 44.0)"> </text><text xml:space="preserve" font-family="AvenirNext-Regular" font-size="26.3" fill="#000000" transform="matrix(1.00, 0.00, -0.00, -1.00, 313.3, 44.0)">c</text><text xml:space="preserve" font-family="AvenirNext-Regular" font-size="26.3" fill="#000000" transform="matrix(1.00, 0.00, -0.00, -1.00, 326.4, 44.0)">a</text><text xml:space="preserve" font-family="AvenirNext-Regular" font-size="26.3" fill="#000000" transform="matrix(1.00, 0.00, -0.00, -1.00, 340.2, 44.0)">t</text><text xml:space="preserve" font-family="AvenirNext-Regular" font-size="26.3" fill="#000000" transform="matrix(1.00, 0.00, -0.00, -1.00, 348.5, 44.0)">c</text><text xml:space="preserve" font-family="AvenirNext-Regular" font-size="26.3" fill="#000000" transform="matrix(1.00, 0.00, -0.00, -1.00, 361.6, 44.0)">h</text><text xml:space="preserve" font-family="AvenirNext-Regular" font-size="26.3" fill="#000000" transform="matrix(1.00, 0.00, -0.00, -1.00, 377.0, 44.0)">,</text><text xml:space="preserve" font-family="AvenirNext-Regular" font-size="26.3" fill="#000000" transform="matrix(1.00, 0.00, -0.00, -1.00, 383.0, 44.0)"> </text><text xml:space="preserve" font-family="AvenirNext-Regular" font-size="26.3" fill="#000000" transform="matrix(1.00, 0.00, -0.00, -1.00, 389.6, 44.0)">а</text><text xml:space="preserve" font-family="AvenirNext-Regular" font-size="26.3" fill="#000000" transform="matrix(1.00, 0.00, -0.00, -1.00, 403.6, 44.0)">к</text><text xml:space="preserve" font-family="AvenirNext-Regular" font-size="26.3" fill="#000000" transform="matrix(1.00, 0.00, -0.00, -1.00, 417.9, 44.0)">о</text><text xml:space="preserve" font-family="AvenirNext-Regular" font-size="26.3" fill="#000000" transform="matrix(1.00, 0.00, -0.00, -1.00, 433.9, 44.0)"> </text><text xml:space="preserve" font-family="AvenirNext-Regular" font-size="26.3" fill="#000000" transform="matrix(1.00, 0.00, -0.00, -1.00, 440.5, 44.0)">с</text><text xml:space="preserve" font-family="AvenirNext-Regular" font-size="26.3" fill="#000000" transform="matrix(1.00, 0.00, -0.00, -1.00, 453.7, 44.0)">л</text><text xml:space="preserve" font-family="AvenirNext-Regular" font-size="26.3" fill="#000000" transform="matrix(1.00, 0.00, -0.00, -1.00, 466.7, 44.0)">е</text><text xml:space="preserve" font-family="AvenirNext-Regular" font-size="26.3" fill="#000000" transform="matrix(1.00, 0.00, -0.00, -1.00, 481.7, 44.0)">д</text><text xml:space="preserve" font-family="AvenirNext-Regular" font-size="26.3" fill="#000000" transform="matrix(1.00, 0.00, -0.00, -1.00, 496.0, 44.0)"> </text><text xml:space="preserve" font-family="AvenirNext-Regular" font-size="26.3" fill="#000000" transform="matrix(1.00, 0.00, -0.00, -1.00, 502.6, 44.0)">т</text><text xml:space="preserve" font-family="AvenirNext-Regular" font-size="26.3" fill="#000000" transform="matrix(1.00, 0.00, -0.00, -1.00, 513.9, 44.0)">о</text><text xml:space="preserve" font-family="AvenirNext-Regular" font-size="26.3" fill="#000000" transform="matrix(1.00, 0.00, -0.00, -1.00, 530.0, 44.0)">в</text><text xml:space="preserve" font-family="AvenirNext-Regular" font-size="26.3" fill="#000000" transform="matrix(1.00, 0.00, -0.00, -1.00, 544.2, 44.0)">а</text><text xml:space="preserve" font-family="AvenirNext-Regular" font-size="26.3" fill="#000000" transform="matrix(1.00, 0.00, -0.00, -1.00, 558.2, 44.0)"> </text><text xml:space="preserve" font-family="AvenirNext-Regular" font-size="26.3" fill="#000000" transform="matrix(1.00, 0.00, -0.00, -1.00, 564.8, 44.0)">з</text><text xml:space="preserve" font-family="AvenirNext-Regular" font-size="26.3" fill="#000000" transform="matrix(1.00, 0.00, -0.00, -1.00, 577.0, 44.0)">а</text><text xml:space="preserve" font-family="AvenirNext-Regular" font-size="26.3" fill="#000000" transform="matrix(1.00, 0.00, -0.00, -1.00, 591.0, 44.0)">д</text><text xml:space="preserve" font-family="AvenirNext-Regular" font-size="26.3" fill="#000000" transform="matrix(1.00, 0.00, -0.00, -1.00, 605.3, 44.0)">а</text><text xml:space="preserve" font-family="AvenirNext-Regular" font-size="26.3" fill="#000000" transform="matrix(1.00, 0.00, -0.00, -1.00, 619.3, 44.0)">д</text><text xml:space="preserve" font-family="AvenirNext-Regular" font-size="26.3" fill="#000000" transform="matrix(1.00, 0.00, -0.00, -1.00, 633.6, 44.0)">е</text><text xml:space="preserve" font-family="AvenirNext-Regular" font-size="26.3" fill="#000000" transform="matrix(1.00, 0.00, -0.00, -1.00, 648.7, 44.0)">м</text><text xml:space="preserve" font-family="AvenirNext-Regular" font-size="26.3" fill="#000000" transform="matrix(1.00, 0.00, -0.00, -1.00, 666.9, 44.0)"> </text><text xml:space="preserve" font-family="AvenirNext-Regular" font-size="26.3" fill="#000000" transform="matrix(1.00, 0.00, -0.00, -1.00, 673.5, 44.0)">п</text><text xml:space="preserve" font-family="AvenirNext-Regular" font-size="26.3" fill="#000000" transform="matrix(1.00, 0.00, -0.00, -1.00, 688.4, 44.0)">р</text><text xml:space="preserve" font-family="AvenirNext-Regular" font-size="26.3" fill="#000000" transform="matrix(1.00, 0.00, -0.00, -1.00, 705.1, 44.0)">о</text><text xml:space="preserve" font-family="AvenirNext-Regular" font-size="26.3" fill="#000000" transform="matrix(1.00, 0.00, -0.00, -1.00, 721.2, 44.0)">д</text><text xml:space="preserve" font-family="AvenirNext-Regular" font-size="26.3" fill="#000000" transform="matrix(1.00, 0.00, -0.00, -1.00, 735.5, 44.0)">ъ</text><text xml:space="preserve" font-family="AvenirNext-Regular" font-size="26.3" fill="#000000" transform="matrix(1.00, 0.00, -0.00, -1.00, 750.0, 44.0)">л</text><text xml:space="preserve" font-family="AvenirNext-Regular" font-size="26.3" fill="#000000" transform="matrix(1.00, 0.00, -0.00, -1.00, 763.0, 44.0)">ж</text><text xml:space="preserve" font-family="AvenirNext-Regular" font-size="26.3" fill="#000000" transform="matrix(1.00, 0.00, -0.00, -1.00, 784.5, 44.0)">е</text><text xml:space="preserve" font-family="AvenirNext-Regular" font-size="26.3" fill="#000000" transform="matrix(1.00, 0.00, -0.00, -1.00, 799.5, 44.0)">н</text><text xml:space="preserve" font-family="AvenirNext-Regular" font-size="26.3" fill="#000000" transform="matrix(1.00, 0.00, -0.00, -1.00, 814.6, 44.0)">и</text><text xml:space="preserve" font-family="AvenirNext-Regular" font-size="26.3" fill="#000000" transform="matrix(1.00, 0.00, -0.00, -1.00, 830.4, 44.0)">е</text><text xml:space="preserve" font-family="AvenirNext-Regular" font-size="26.3" fill="#000000" transform="matrix(1.00, 0.00, -0.00, -1.00, 845.4, 44.0)"> </text><text xml:space="preserve" font-family="AvenirNext-Regular" font-size="26.3" fill="#000000" transform="matrix(1.00, 0.00, -0.00, -1.00, 852.0, 44.0)">н</text><text xml:space="preserve" font-family="AvenirNext-Regular" font-size="26.3" fill="#000000" transform="matrix(1.00, 0.00, -0.00, -1.00, 867.1, 44.0)">а</text><text xml:space="preserve" font-family="AvenirNext-Regular" font-size="26.3" fill="#000000" transform="matrix(1.00, 0.00, -0.00, -1.00, 881.1, 44.0)"> </text><text xml:space="preserve" font-family="AvenirNext-Regular" font-size="26.3" fill="#000000" transform="matrix(1.00, 0.00, -0.00, -1.00, 26.0, 8.0)">и</text><text xml:space="preserve" font-family="AvenirNext-Regular" font-size="26.3" fill="#000000" transform="matrix(1.00, 0.00, -0.00, -1.00, 41.7, 8.0)">з</text><text xml:space="preserve" font-family="AvenirNext-Regular" font-size="26.3" fill="#000000" transform="matrix(1.00, 0.00, -0.00, -1.00, 53.9, 8.0)">п</text><text xml:space="preserve" font-family="AvenirNext-Regular" font-size="26.3" fill="#000000" transform="matrix(1.00, 0.00, -0.00, -1.00, 68.8, 8.0)">ъ</text><text xml:space="preserve" font-family="AvenirNext-Regular" font-size="26.3" fill="#000000" transform="matrix(1.00, 0.00, -0.00, -1.00, 83.3, 8.0)">л</text><text xml:space="preserve" font-family="AvenirNext-Regular" font-size="26.3" fill="#000000" transform="matrix(1.00, 0.00, -0.00, -1.00, 96.4, 8.0)">н</text><text xml:space="preserve" font-family="AvenirNext-Regular" font-size="26.3" fill="#000000" transform="matrix(1.00, 0.00, -0.00, -1.00, 111.5, 8.0)">е</text><text xml:space="preserve" font-family="AvenirNext-Regular" font-size="26.3" fill="#000000" transform="matrix(1.00, 0.00, -0.00, -1.00, 126.5, 8.0)">н</text><text xml:space="preserve" font-family="AvenirNext-Regular" font-size="26.3" fill="#000000" transform="matrix(1.00, 0.00, -0.00, -1.00, 141.6, 8.0)">и</text><text xml:space="preserve" font-family="AvenirNext-Regular" font-size="26.3" fill="#000000" transform="matrix(1.00, 0.00, -0.00, -1.00, 157.4, 8.0)">е</text><text xml:space="preserve" font-family="AvenirNext-Regular" font-size="26.3" fill="#000000" transform="matrix(1.00, 0.00, -0.00, -1.00, 172.4, 8.0)">т</text><text xml:space="preserve" font-family="AvenirNext-Regular" font-size="26.3" fill="#000000" transform="matrix(1.00, 0.00, -0.00, -1.00, 183.7, 8.0)">о</text><text xml:space="preserve" font-family="AvenirNext-Regular" font-size="26.3" fill="#000000" transform="matrix(1.00, 0.00, -0.00, -1.00, 199.8, 8.0)"> </text><text xml:space="preserve" font-family="AvenirNext-Regular" font-size="26.3" fill="#000000" transform="matrix(1.00, 0.00, -0.00, -1.00, 206.4, 8.0)">н</text><text xml:space="preserve" font-family="AvenirNext-Regular" font-size="26.3" fill="#000000" transform="matrix(1.00, 0.00, -0.00, -1.00, 221.5, 8.0)">а</text><text xml:space="preserve" font-family="AvenirNext-Regular" font-size="26.3" fill="#000000" transform="matrix(1.00, 0.00, -0.00, -1.00, 235.5, 8.0)"> </text><text xml:space="preserve" font-family="AvenirNext-Regular" font-size="26.3" fill="#000000" transform="matrix(1.00, 0.00, -0.00, -1.00, 242.1, 8.0)">п</text><text xml:space="preserve" font-family="AvenirNext-Regular" font-size="26.3" fill="#000000" transform="matrix(1.00, 0.00, -0.00, -1.00, 257.0, 8.0)">р</text><text xml:space="preserve" font-family="AvenirNext-Regular" font-size="26.3" fill="#000000" transform="matrix(1.00, 0.00, -0.00, -1.00, 273.7, 8.0)">о</text><text xml:space="preserve" font-family="AvenirNext-Regular" font-size="26.3" fill="#000000" transform="matrix(1.00, 0.00, -0.00, -1.00, 289.7, 8.0)">г</text><text xml:space="preserve" font-family="AvenirNext-Regular" font-size="26.3" fill="#000000" transform="matrix(1.00, 0.00, -0.00, -1.00, 299.9, 8.0)">р</text><text xml:space="preserve" font-family="AvenirNext-Regular" font-size="26.3" fill="#000000" transform="matrix(1.00, 0.00, -0.00, -1.00, 316.6, 8.0)">а</text><text xml:space="preserve" font-family="AvenirNext-Regular" font-size="26.3" fill="#000000" transform="matrix(1.00, 0.00, -0.00, -1.00, 330.6, 8.0)">м</text><text xml:space="preserve" font-family="AvenirNext-Regular" font-size="26.3" fill="#000000" transform="matrix(1.00, 0.00, -0.00, -1.00, 348.9, 8.0)">а</text><text xml:space="preserve" font-family="AvenirNext-Regular" font-size="26.3" fill="#000000" transform="matrix(1.00, 0.00, -0.00, -1.00, 362.9, 8.0)">т</text><text xml:space="preserve" font-family="AvenirNext-Regular" font-size="26.3" fill="#000000" transform="matrix(1.00, 0.00, -0.00, -1.00, 374.3, 8.0)">а</text><text xml:space="preserve" font-family="AvenirNext-Regular" font-size="26.3" fill="#000000" transform="matrix(1.00, 0.00, -0.00, -1.00, 388.3, 8.0)">,</text><text xml:space="preserve" font-family="AvenirNext-Regular" font-size="26.3" fill="#000000" transform="matrix(1.00, 0.00, -0.00, -1.00, 394.3, 8.0)"> </text><text xml:space="preserve" font-family="AvenirNext-Regular" font-size="26.3" fill="#000000" transform="matrix(1.00, 0.00, -0.00, -1.00, 400.9, 8.0)">к</text><text xml:space="preserve" font-family="AvenirNext-Regular" font-size="26.3" fill="#000000" transform="matrix(1.00, 0.00, -0.00, -1.00, 415.2, 8.0)">а</text><text xml:space="preserve" font-family="AvenirNext-Regular" font-size="26.3" fill="#000000" transform="matrix(1.00, 0.00, -0.00, -1.00, 429.2, 8.0)">з</text><text xml:space="preserve" font-family="AvenirNext-Regular" font-size="26.3" fill="#000000" transform="matrix(1.00, 0.00, -0.00, -1.00, 441.4, 8.0)">в</text><text xml:space="preserve" font-family="AvenirNext-Regular" font-size="26.3" fill="#000000" transform="matrix(1.00, 0.00, -0.00, -1.00, 455.6, 8.0)">а</text><text xml:space="preserve" font-family="AvenirNext-Regular" font-size="26.3" fill="#000000" transform="matrix(1.00, 0.00, -0.00, -1.00, 469.6, 8.0)">м</text><text xml:space="preserve" font-family="AvenirNext-Regular" font-size="26.3" fill="#000000" transform="matrix(1.00, 0.00, -0.00, -1.00, 487.9, 8.0)">е</text><text xml:space="preserve" font-family="AvenirNext-Regular" font-size="26.3" fill="#000000" transform="matrix(1.00, 0.00, -0.00, -1.00, 502.9, 8.0)"> </text><text xml:space="preserve" font-family="AvenirNext-Regular" font-size="26.3" fill="#000000" transform="matrix(1.00, 0.00, -0.00, -1.00, 509.5, 8.0)">ч</text><text xml:space="preserve" font-family="AvenirNext-Regular" font-size="26.3" fill="#000000" transform="matrix(1.00, 0.00, -0.00, -1.00, 523.1, 8.0)">е</text><text xml:space="preserve" font-family="AvenirNext-Regular" font-size="26.3" fill="#000000" transform="matrix(1.00, 0.00, -0.00, -1.00, 538.1, 8.0)"> </text><text xml:space="preserve" font-family="AvenirNext-Regular" font-size="26.3" fill="#000000" transform="matrix(1.00, 0.00, -0.00, -1.00, 544.7, 8.0)">г</text><text xml:space="preserve" font-family="AvenirNext-Regular" font-size="26.3" fill="#000000" transform="matrix(1.00, 0.00, -0.00, -1.00, 554.9, 8.0)">р</text><text xml:space="preserve" font-family="AvenirNext-Regular" font-size="26.3" fill="#000000" transform="matrix(1.00, 0.00, -0.00, -1.00, 571.5, 8.0)">е</text><text xml:space="preserve" font-family="AvenirNext-Regular" font-size="26.3" fill="#000000" transform="matrix(1.00, 0.00, -0.00, -1.00, 586.6, 8.0)">ш</text><text xml:space="preserve" font-family="AvenirNext-Regular" font-size="26.3" fill="#000000" transform="matrix(1.00, 0.00, -0.00, -1.00, 607.5, 8.0)">к</text><text xml:space="preserve" font-family="AvenirNext-Regular" font-size="26.3" fill="#000000" transform="matrix(1.00, 0.00, -0.00, -1.00, 621.8, 8.0)">а</text><text xml:space="preserve" font-family="AvenirNext-Regular" font-size="26.3" fill="#000000" transform="matrix(1.00, 0.00, -0.00, -1.00, 635.8, 8.0)">т</text><text xml:space="preserve" font-family="AvenirNext-Regular" font-size="26.3" fill="#000000" transform="matrix(1.00, 0.00, -0.00, -1.00, 647.2, 8.0)">а</text><text xml:space="preserve" font-family="AvenirNext-Regular" font-size="26.3" fill="#000000" transform="matrix(1.00, 0.00, -0.00, -1.00, 661.2, 8.0)"> </text><text xml:space="preserve" font-family="AvenirNext-Regular" font-size="26.3" fill="#000000" transform="matrix(1.00, 0.00, -0.00, -1.00, 667.8, 8.0)">е</text><text xml:space="preserve" font-family="AvenirNext-Regular" font-size="26.3" fill="#000000" transform="matrix(1.00, 0.00, -0.00, -1.00, 682.8, 8.0)"> </text><text xml:space="preserve" font-family="AvenirNext-Regular" font-size="26.3" fill="#000000" transform="matrix(1.00, 0.00, -0.00, -1.00, 689.4, 8.0)">"</text><text xml:space="preserve" font-family="AvenirNext-Regular" font-size="26.3" fill="#000000" transform="matrix(1.00, 0.00, -0.00, -1.00, 700.0, 8.0)">о</text><text xml:space="preserve" font-family="AvenirNext-Regular" font-size="26.3" fill="#000000" transform="matrix(1.00, 0.00, -0.00, -1.00, 716.1, 8.0)">б</text><text xml:space="preserve" font-family="AvenirNext-Regular" font-size="26.3" fill="#000000" transform="matrix(1.00, 0.00, -0.00, -1.00, 731.8, 8.0)">р</text><text xml:space="preserve" font-family="AvenirNext-Regular" font-size="26.3" fill="#000000" transform="matrix(1.00, 0.00, -0.00, -1.00, 748.5, 8.0)">а</text><text xml:space="preserve" font-family="AvenirNext-Regular" font-size="26.3" fill="#000000" transform="matrix(1.00, 0.00, -0.00, -1.00, 762.5, 8.0)">б</text><text xml:space="preserve" font-family="AvenirNext-Regular" font-size="26.3" fill="#000000" transform="matrix(1.00, 0.00, -0.00, -1.00, 778.3, 8.0)">о</text><text xml:space="preserve" font-family="AvenirNext-Regular" font-size="26.3" fill="#000000" transform="matrix(1.00, 0.00, -0.00, -1.00, 794.3, 8.0)">т</text><text xml:space="preserve" font-family="AvenirNext-Regular" font-size="26.3" fill="#000000" transform="matrix(1.00, 0.00, -0.00, -1.00, 805.6, 8.0)">е</text><text xml:space="preserve" font-family="AvenirNext-Regular" font-size="26.3" fill="#000000" transform="matrix(1.00, 0.00, -0.00, -1.00, 820.7, 8.0)">н</text><text xml:space="preserve" font-family="AvenirNext-Regular" font-size="26.3" fill="#000000" transform="matrix(1.00, 0.00, -0.00, -1.00, 835.8, 8.0)">а</text><text xml:space="preserve" font-family="AvenirNext-Regular" font-size="26.3" fill="#000000" transform="matrix(1.00, 0.00, -0.00, -1.00, 849.8, 8.0)">"</text></g></svg>