<?xml version="1.0" encoding="UTF-8" standalone="no"?><svg xmlns="http://www.w3.org/2000/svg" xmlns:xlink="http://www.w3.org/1999/xlink" clip-rule="evenodd" stroke-miterlimit="4.00" viewBox="0 0 395 93"><desc>SVG generated by Keynote</desc><defs></defs><g transform="matrix(1.00, 0.00, -0.00, -1.00, 0.0, 93.0)"><text xml:space="preserve" font-family="AvenirNext-Regular" font-size="21.4" fill="#000000" transform="matrix(1.00, 0.00, -0.00, -1.00, 0.0, 71.1)">•</text><text xml:space="preserve" font-family="AvenirNext-Regular" font-size="28.5" fill="#000000" transform="matrix(1.00, 0.00, -0.00, -1.00, 24.0, 69.0)">П</text><text xml:space="preserve" font-family="AvenirNext-Regular" font-size="28.5" fill="#000000" transform="matrix(1.00, 0.00, -0.00, -1.00, 43.9, 69.0)">р</text><text xml:space="preserve" font-family="AvenirNext-Regular" font-size="28.5" fill="#000000" transform="matrix(1.00, 0.00, -0.00, -1.00, 62.0, 69.0)">е</text><text xml:space="preserve" font-family="AvenirNext-Regular" font-size="28.5" fill="#000000" transform="matrix(1.00, 0.00, -0.00, -1.00, 78.3, 69.0)">п</text><text xml:space="preserve" font-family="AvenirNext-Regular" font-size="28.5" fill="#000000" transform="matrix(1.00, 0.00, -0.00, -1.00, 94.4, 69.0)">о</text><text xml:space="preserve" font-family="AvenirNext-Regular" font-size="28.5" fill="#000000" transform="matrix(1.00, 0.00, -0.00, -1.00, 111.8, 69.0)">д</text><text xml:space="preserve" font-family="AvenirNext-Regular" font-size="28.5" fill="#000000" transform="matrix(1.00, 0.00, -0.00, -1.00, 127.3, 69.0)">а</text><text xml:space="preserve" font-family="AvenirNext-Regular" font-size="28.5" fill="#000000" transform="matrix(1.00, 0.00, -0.00, -1.00, 142.5, 69.0)">в</text><text xml:space="preserve" font-family="AvenirNext-Regular" font-size="28.5" fill="#000000" transform="matrix(1.00, 0.00, -0.00, -1.00, 157.9, 69.0)">а</text><text xml:space="preserve" font-family="AvenirNext-Regular" font-size="28.5" fill="#000000" transform="matrix(1.00, 0.00, -0.00, -1.00, 173.1, 69.0)">т</text><text xml:space="preserve" font-family="AvenirNext-Regular" font-size="28.5" fill="#000000" transform="matrix(1.00, 0.00, -0.00, -1.00, 185.4, 69.0)">е</text><text xml:space="preserve" font-family="AvenirNext-Regular" font-size="28.5" fill="#000000" transform="matrix(1.00, 0.00, -0.00, -1.00, 201.7, 69.0)">л</text><text xml:space="preserve" font-family="AvenirNext-Regular" font-size="28.5" fill="#000000" transform="matrix(1.00, 0.00, -0.00, -1.00, 215.8, 69.0)"> </text><text xml:space="preserve" font-family="AvenirNext-Regular" font-size="28.5" fill="#000000" transform="matrix(1.00, 0.00, -0.00, -1.00, 36.0, 3.0)">Ж</text><text xml:space="preserve" font-family="AvenirNext-Regular" font-size="28.5" fill="#000000" transform="matrix(1.00, 0.00, -0.00, -1.00, 63.9, 3.0)">е</text><text xml:space="preserve" font-family="AvenirNext-Regular" font-size="28.5" fill="#000000" transform="matrix(1.00, 0.00, -0.00, -1.00, 80.2, 3.0)">н</text><text xml:space="preserve" font-family="AvenirNext-Regular" font-size="28.5" fill="#000000" transform="matrix(1.00, 0.00, -0.00, -1.00, 96.6, 3.0)">и</text><text xml:space="preserve" font-family="AvenirNext-Regular" font-size="28.5" fill="#000000" transform="matrix(1.00, 0.00, -0.00, -1.00, 113.6, 3.0)"> </text><text xml:space="preserve" font-family="AvenirNext-Regular" font-size="28.5" fill="#000000" transform="matrix(1.00, 0.00, -0.00, -1.00, 120.8, 3.0)">/</text><text xml:space="preserve" font-family="AvenirNext-Regular" font-size="28.5" fill="#000000" transform="matrix(1.00, 0.00, -0.00, -1.00, 131.3, 3.0)">Е</text><text xml:space="preserve" font-family="AvenirNext-Regular" font-size="28.5" fill="#000000" transform="matrix(1.00, 0.00, -0.00, -1.00, 148.2, 3.0)">в</text><text xml:space="preserve" font-family="AvenirNext-Regular" font-size="28.5" fill="#000000" transform="matrix(1.00, 0.00, -0.00, -1.00, 163.6, 3.0)">г</text><text xml:space="preserve" font-family="AvenirNext-Regular" font-size="28.5" fill="#000000" transform="matrix(1.00, 0.00, -0.00, -1.00, 174.6, 3.0)">е</text><text xml:space="preserve" font-family="AvenirNext-Regular" font-size="28.5" fill="#000000" transform="matrix(1.00, 0.00, -0.00, -1.00, 190.9, 3.0)">н</text><text xml:space="preserve" font-family="AvenirNext-Regular" font-size="28.5" fill="#000000" transform="matrix(1.00, 0.00, -0.00, -1.00, 207.3, 3.0)">и</text><text xml:space="preserve" font-family="AvenirNext-Regular" font-size="28.5" fill="#000000" transform="matrix(1.00, 0.00, -0.00, -1.00, 224.3, 3.0)">я</text><text xml:space="preserve" font-family="AvenirNext-Regular" font-size="28.5" fill="#000000" transform="matrix(1.00, 0.00, -0.00, -1.00, 239.7, 3.0)"> </text><text xml:space="preserve" font-family="AvenirNext-Regular" font-size="28.5" fill="#000000" transform="matrix(1.00, 0.00, -0.00, -1.00, 246.8, 3.0)">М</text><text xml:space="preserve" font-family="AvenirNext-Regular" font-size="28.5" fill="#000000" transform="matrix(1.00, 0.00, -0.00, -1.00, 272.0, 3.0)">а</text><text xml:space="preserve" font-family="AvenirNext-Regular" font-size="28.5" fill="#000000" transform="matrix(1.00, 0.00, -0.00, -1.00, 287.3, 3.0)">н</text><text xml:space="preserve" font-family="AvenirNext-Regular" font-size="28.5" fill="#000000" transform="matrix(1.00, 0.00, -0.00, -1.00, 303.6, 3.0)">о</text><text xml:space="preserve" font-family="AvenirNext-Regular" font-size="28.5" fill="#000000" transform="matrix(1.00, 0.00, -0.00, -1.00, 321.0, 3.0)">л</text><text xml:space="preserve" font-family="AvenirNext-Regular" font-size="28.5" fill="#000000" transform="matrix(1.00, 0.00, -0.00, -1.00, 335.2, 3.0)">о</text><text xml:space="preserve" font-family="AvenirNext-Regular" font-size="28.5" fill="#000000" transform="matrix(1.00, 0.00, -0.00, -1.00, 352.6, 3.0)">в</text><text xml:space="preserve" font-family="AvenirNext-Regular" font-size="28.5" fill="#000000" transform="matrix(1.00, 0.00, -0.00, -1.00, 368.0, 3.0)">а</text><text xml:space="preserve" font-family="AvenirNext-Regular" font-size="28.5" fill="#000000" transform="matrix(1.00, 0.00, -0.00, -1.00, 383.2, 3.0)">/</text></g></svg>