<?xml version="1.0" encoding="UTF-8" standalone="no"?><svg xmlns="http://www.w3.org/2000/svg" xmlns:xlink="http://www.w3.org/1999/xlink" clip-rule="evenodd" stroke-miterlimit="4.00" viewBox="0 0 279 365"><desc>SVG generated by Keynote</desc><defs></defs><g transform="matrix(1.00, 0.00, -0.00, -1.00, 0.0, 365.0)"><text xml:space="preserve" font-family="AvenirNext-Regular" font-size="21.4" fill="#000000" transform="matrix(1.00, 0.00, -0.00, -1.00, 0.0, 343.1)">•</text><text xml:space="preserve" font-family="AvenirNext-Regular" font-size="28.5" fill="#000000" transform="matrix(1.00, 0.00, -0.00, -1.00, 24.0, 341.0)">П</text><text xml:space="preserve" font-family="AvenirNext-Regular" font-size="28.5" fill="#000000" transform="matrix(1.00, 0.00, -0.00, -1.00, 43.9, 341.0)">р</text><text xml:space="preserve" font-family="AvenirNext-Regular" font-size="28.5" fill="#000000" transform="matrix(1.00, 0.00, -0.00, -1.00, 62.0, 341.0)">е</text><text xml:space="preserve" font-family="AvenirNext-Regular" font-size="28.5" fill="#000000" transform="matrix(1.00, 0.00, -0.00, -1.00, 78.3, 341.0)">п</text><text xml:space="preserve" font-family="AvenirNext-Regular" font-size="28.5" fill="#000000" transform="matrix(1.00, 0.00, -0.00, -1.00, 94.4, 341.0)">о</text><text xml:space="preserve" font-family="AvenirNext-Regular" font-size="28.5" fill="#000000" transform="matrix(1.00, 0.00, -0.00, -1.00, 111.8, 341.0)">д</text><text xml:space="preserve" font-family="AvenirNext-Regular" font-size="28.5" fill="#000000" transform="matrix(1.00, 0.00, -0.00, -1.00, 127.3, 341.0)">а</text><text xml:space="preserve" font-family="AvenirNext-Regular" font-size="28.5" fill="#000000" transform="matrix(1.00, 0.00, -0.00, -1.00, 142.5, 341.0)">в</text><text xml:space="preserve" font-family="AvenirNext-Regular" font-size="28.5" fill="#000000" transform="matrix(1.00, 0.00, -0.00, -1.00, 157.9, 341.0)">а</text><text xml:space="preserve" font-family="AvenirNext-Regular" font-size="28.5" fill="#000000" transform="matrix(1.00, 0.00, -0.00, -1.00, 173.1, 341.0)">т</text><text xml:space="preserve" font-family="AvenirNext-Regular" font-size="28.5" fill="#000000" transform="matrix(1.00, 0.00, -0.00, -1.00, 185.4, 341.0)">е</text><text xml:space="preserve" font-family="AvenirNext-Regular" font-size="28.5" fill="#000000" transform="matrix(1.00, 0.00, -0.00, -1.00, 201.7, 341.0)">л</text><text xml:space="preserve" font-family="AvenirNext-Regular" font-size="28.5" fill="#000000" transform="matrix(1.00, 0.00, -0.00, -1.00, 215.8, 341.0)"> </text><text xml:space="preserve" font-family="AvenirNext-Regular" font-size="21.4" fill="#000000" transform="matrix(1.00, 0.00, -0.00, -1.00, 0.0, 210.1)">•</text><text xml:space="preserve" font-family="AvenirNext-Regular" font-size="28.5" fill="#000000" transform="matrix(1.00, 0.00, -0.00, -1.00, 24.0, 208.0)">К</text><text xml:space="preserve" font-family="AvenirNext-Regular" font-size="28.5" fill="#000000" transform="matrix(1.00, 0.00, -0.00, -1.00, 43.7, 208.0)">о</text><text xml:space="preserve" font-family="AvenirNext-Regular" font-size="28.5" fill="#000000" transform="matrix(1.00, 0.00, -0.00, -1.00, 61.1, 208.0)">н</text><text xml:space="preserve" font-family="AvenirNext-Regular" font-size="28.5" fill="#000000" transform="matrix(1.00, 0.00, -0.00, -1.00, 77.5, 208.0)">т</text><text xml:space="preserve" font-family="AvenirNext-Regular" font-size="28.5" fill="#000000" transform="matrix(1.00, 0.00, -0.00, -1.00, 89.7, 208.0)">а</text><text xml:space="preserve" font-family="AvenirNext-Regular" font-size="28.5" fill="#000000" transform="matrix(1.00, 0.00, -0.00, -1.00, 104.9, 208.0)">к</text><text xml:space="preserve" font-family="AvenirNext-Regular" font-size="28.5" fill="#000000" transform="matrix(1.00, 0.00, -0.00, -1.00, 120.4, 208.0)">т</text><text xml:space="preserve" font-family="AvenirNext-Regular" font-size="28.5" fill="#000000" transform="matrix(1.00, 0.00, -0.00, -1.00, 132.7, 208.0)">и</text><text xml:space="preserve" font-family="AvenirNext-Regular" font-size="28.5" fill="#000000" transform="matrix(1.00, 0.00, -0.00, -1.00, 149.7, 208.0)"> </text><text xml:space="preserve" font-family="AvenirNext-Regular" font-size="21.4" fill="#000000" transform="matrix(1.00, 0.00, -0.00, -1.00, 0.0, 10.7)">•</text><text xml:space="preserve" font-family="AvenirNext-Regular" font-size="28.5" fill="#000000" transform="matrix(1.00, 0.00, -0.00, -1.00, 24.0, 9.0)">С</text><text xml:space="preserve" font-family="AvenirNext-Regular" font-size="28.5" fill="#000000" transform="matrix(1.00, 0.00, -0.00, -1.00, 44.5, 9.0)">т</text><text xml:space="preserve" font-family="AvenirNext-Regular" font-size="28.5" fill="#000000" transform="matrix(1.00, 0.00, -0.00, -1.00, 56.8, 9.0)">р</text><text xml:space="preserve" font-family="AvenirNext-Regular" font-size="28.5" fill="#000000" transform="matrix(1.00, 0.00, -0.00, -1.00, 74.9, 9.0)">а</text><text xml:space="preserve" font-family="AvenirNext-Regular" font-size="28.5" fill="#000000" transform="matrix(1.00, 0.00, -0.00, -1.00, 90.1, 9.0)">н</text><text xml:space="preserve" font-family="AvenirNext-Regular" font-size="28.5" fill="#000000" transform="matrix(1.00, 0.00, -0.00, -1.00, 106.4, 9.0)">и</text><text xml:space="preserve" font-family="AvenirNext-Regular" font-size="28.5" fill="#000000" transform="matrix(1.00, 0.00, -0.00, -1.00, 123.5, 9.0)">ц</text><text xml:space="preserve" font-family="AvenirNext-Regular" font-size="28.5" fill="#000000" transform="matrix(1.00, 0.00, -0.00, -1.00, 139.8, 9.0)">а</text><text xml:space="preserve" font-family="AvenirNext-Regular" font-size="28.5" fill="#000000" transform="matrix(1.00, 0.00, -0.00, -1.00, 155.0, 9.0)"> </text><text xml:space="preserve" font-family="AvenirNext-Regular" font-size="28.5" fill="#000000" transform="matrix(1.00, 0.00, -0.00, -1.00, 162.1, 9.0)">н</text><text xml:space="preserve" font-family="AvenirNext-Regular" font-size="28.5" fill="#000000" transform="matrix(1.00, 0.00, -0.00, -1.00, 178.5, 9.0)">а</text><text xml:space="preserve" font-family="AvenirNext-Regular" font-size="28.5" fill="#000000" transform="matrix(1.00, 0.00, -0.00, -1.00, 193.7, 9.0)"> </text><text xml:space="preserve" font-family="AvenirNext-Regular" font-size="28.5" fill="#000000" transform="matrix(1.00, 0.00, -0.00, -1.00, 200.8, 9.0)">к</text><text xml:space="preserve" font-family="AvenirNext-Regular" font-size="28.5" fill="#000000" transform="matrix(1.00, 0.00, -0.00, -1.00, 216.3, 9.0)">у</text><text xml:space="preserve" font-family="AvenirNext-Regular" font-size="28.5" fill="#000000" transform="matrix(1.00, 0.00, -0.00, -1.00, 230.2, 9.0)">р</text><text xml:space="preserve" font-family="AvenirNext-Regular" font-size="28.5" fill="#000000" transform="matrix(1.00, 0.00, -0.00, -1.00, 248.3, 9.0)">с</text><text xml:space="preserve" font-family="AvenirNext-Regular" font-size="28.5" fill="#000000" transform="matrix(1.00, 0.00, -0.00, -1.00, 262.5, 9.0)">а</text><text xml:space="preserve" font-family="AvenirNext-Regular" font-size="28.5" fill="#000000" transform="matrix(1.00, 0.00, -0.00, -1.00, 277.7, 9.0)"> </text></g></svg>