<?xml version="1.0" encoding="UTF-8" standalone="no"?><svg xmlns="http://www.w3.org/2000/svg" xmlns:xlink="http://www.w3.org/1999/xlink" clip-rule="evenodd" stroke-miterlimit="4.00" viewBox="0 0 900 62"><desc>SVG generated by Keynote</desc><defs></defs><g transform="matrix(1.00, 0.00, -0.00, -1.00, 0.0, 62.0)"><text xml:space="preserve" font-family="AvenirNext-Regular" font-size="18.4" fill="#000000" transform="matrix(1.00, 0.00, -0.00, -1.00, 0.2, 42.7)">•</text><text xml:space="preserve" font-family="AvenirNext-Regular" font-size="24.5" fill="#000000" transform="matrix(1.00, 0.00, -0.00, -1.00, 19.0, 41.0)">К</text><text xml:space="preserve" font-family="AvenirNext-Regular" font-size="24.5" fill="#000000" transform="matrix(1.00, 0.00, -0.00, -1.00, 35.9, 41.0)">о</text><text xml:space="preserve" font-family="AvenirNext-Regular" font-size="24.5" fill="#000000" transform="matrix(1.00, 0.00, -0.00, -1.00, 50.9, 41.0)">г</text><text xml:space="preserve" font-family="AvenirNext-Regular" font-size="24.5" fill="#000000" transform="matrix(1.00, 0.00, -0.00, -1.00, 60.4, 41.0)">а</text><text xml:space="preserve" font-family="AvenirNext-Regular" font-size="24.5" fill="#000000" transform="matrix(1.00, 0.00, -0.00, -1.00, 73.4, 41.0)">т</text><text xml:space="preserve" font-family="AvenirNext-Regular" font-size="24.5" fill="#000000" transform="matrix(1.00, 0.00, -0.00, -1.00, 84.0, 41.0)">о</text><text xml:space="preserve" font-family="AvenirNext-Regular" font-size="24.5" fill="#000000" transform="matrix(1.00, 0.00, -0.00, -1.00, 99.0, 41.0)"> </text><text xml:space="preserve" font-family="AvenirNext-Regular" font-size="24.5" fill="#000000" transform="matrix(1.00, 0.00, -0.00, -1.00, 105.1, 41.0)">и</text><text xml:space="preserve" font-family="AvenirNext-Regular" font-size="24.5" fill="#000000" transform="matrix(1.00, 0.00, -0.00, -1.00, 119.7, 41.0)">з</text><text xml:space="preserve" font-family="AvenirNext-Regular" font-size="24.5" fill="#000000" transform="matrix(1.00, 0.00, -0.00, -1.00, 131.1, 41.0)">п</text><text xml:space="preserve" font-family="AvenirNext-Regular" font-size="24.5" fill="#000000" transform="matrix(1.00, 0.00, -0.00, -1.00, 144.9, 41.0)">о</text><text xml:space="preserve" font-family="AvenirNext-Regular" font-size="24.5" fill="#000000" transform="matrix(1.00, 0.00, -0.00, -1.00, 159.9, 41.0)">л</text><text xml:space="preserve" font-family="AvenirNext-Regular" font-size="24.5" fill="#000000" transform="matrix(1.00, 0.00, -0.00, -1.00, 172.1, 41.0)">з</text><text xml:space="preserve" font-family="AvenirNext-Regular" font-size="24.5" fill="#000000" transform="matrix(1.00, 0.00, -0.00, -1.00, 183.4, 41.0)">в</text><text xml:space="preserve" font-family="AvenirNext-Regular" font-size="24.5" fill="#000000" transform="matrix(1.00, 0.00, -0.00, -1.00, 196.7, 41.0)">а</text><text xml:space="preserve" font-family="AvenirNext-Regular" font-size="24.5" fill="#000000" transform="matrix(1.00, 0.00, -0.00, -1.00, 209.7, 41.0)">м</text><text xml:space="preserve" font-family="AvenirNext-Regular" font-size="24.5" fill="#000000" transform="matrix(1.00, 0.00, -0.00, -1.00, 226.7, 41.0)">е</text><text xml:space="preserve" font-family="AvenirNext-Regular" font-size="24.5" fill="#000000" transform="matrix(1.00, 0.00, -0.00, -1.00, 240.7, 41.0)"> </text><text xml:space="preserve" font-family="AvenirNext-Regular" font-size="24.5" fill="#000000" transform="matrix(1.00, 0.00, -0.00, -1.00, 246.9, 41.0)">м</text><text xml:space="preserve" font-family="AvenirNext-Regular" font-size="24.5" fill="#000000" transform="matrix(1.00, 0.00, -0.00, -1.00, 263.9, 41.0)">е</text><text xml:space="preserve" font-family="AvenirNext-Regular" font-size="24.5" fill="#000000" transform="matrix(1.00, 0.00, -0.00, -1.00, 277.9, 41.0)">т</text><text xml:space="preserve" font-family="AvenirNext-Regular" font-size="24.5" fill="#000000" transform="matrix(1.00, 0.00, -0.00, -1.00, 288.4, 41.0)">а</text><text xml:space="preserve" font-family="AvenirNext-Regular" font-size="24.5" fill="#000000" transform="matrix(1.00, 0.00, -0.00, -1.00, 301.5, 41.0)">-</text><text xml:space="preserve" font-family="AvenirNext-Regular" font-size="24.5" fill="#000000" transform="matrix(1.00, 0.00, -0.00, -1.00, 309.3, 41.0)">т</text><text xml:space="preserve" font-family="AvenirNext-Regular" font-size="24.5" fill="#000000" transform="matrix(1.00, 0.00, -0.00, -1.00, 319.9, 41.0)">ъ</text><text xml:space="preserve" font-family="AvenirNext-Regular" font-size="24.5" fill="#000000" transform="matrix(1.00, 0.00, -0.00, -1.00, 333.4, 41.0)">р</text><text xml:space="preserve" font-family="AvenirNext-Regular" font-size="24.5" fill="#000000" transform="matrix(1.00, 0.00, -0.00, -1.00, 348.9, 41.0)">с</text><text xml:space="preserve" font-family="AvenirNext-Regular" font-size="24.5" fill="#000000" transform="matrix(1.00, 0.00, -0.00, -1.00, 361.2, 41.0)">а</text><text xml:space="preserve" font-family="AvenirNext-Regular" font-size="24.5" fill="#000000" transform="matrix(1.00, 0.00, -0.00, -1.00, 374.3, 41.0)">ч</text><text xml:space="preserve" font-family="AvenirNext-Regular" font-size="24.5" fill="#000000" transform="matrix(1.00, 0.00, -0.00, -1.00, 386.9, 41.0)">к</text><text xml:space="preserve" font-family="AvenirNext-Regular" font-size="24.5" fill="#000000" transform="matrix(1.00, 0.00, -0.00, -1.00, 400.2, 41.0)">и</text><text xml:space="preserve" font-family="AvenirNext-Regular" font-size="24.5" fill="#000000" transform="matrix(1.00, 0.00, -0.00, -1.00, 414.8, 41.0)"> </text><text xml:space="preserve" font-family="AvenirNext-Regular" font-size="24.5" fill="#000000" transform="matrix(1.00, 0.00, -0.00, -1.00, 421.0, 41.0)">к</text><text xml:space="preserve" font-family="AvenirNext-Regular" font-size="24.5" fill="#000000" transform="matrix(1.00, 0.00, -0.00, -1.00, 434.3, 41.0)">а</text><text xml:space="preserve" font-family="AvenirNext-Regular" font-size="24.5" fill="#000000" transform="matrix(1.00, 0.00, -0.00, -1.00, 447.3, 41.0)">т</text><text xml:space="preserve" font-family="AvenirNext-Regular" font-size="24.5" fill="#000000" transform="matrix(1.00, 0.00, -0.00, -1.00, 457.9, 41.0)">о</text><text xml:space="preserve" font-family="AvenirNext-Regular" font-size="24.5" fill="#000000" transform="matrix(1.00, 0.00, -0.00, -1.00, 472.8, 41.0)"> </text><text xml:space="preserve" font-family="AvenirNext-Regular" font-size="24.5" fill="#000000" transform="matrix(1.00, 0.00, -0.00, -1.00, 479.0, 41.0)">g</text><text xml:space="preserve" font-family="AvenirNext-Regular" font-size="24.5" fill="#000000" transform="matrix(1.00, 0.00, -0.00, -1.00, 494.4, 41.0)">o</text><text xml:space="preserve" font-family="AvenirNext-Regular" font-size="24.5" fill="#000000" transform="matrix(1.00, 0.00, -0.00, -1.00, 509.4, 41.0)">o</text><text xml:space="preserve" font-family="AvenirNext-Regular" font-size="24.5" fill="#000000" transform="matrix(1.00, 0.00, -0.00, -1.00, 524.3, 41.0)">g</text><text xml:space="preserve" font-family="AvenirNext-Regular" font-size="24.5" fill="#000000" transform="matrix(1.00, 0.00, -0.00, -1.00, 539.8, 41.0)">l</text><text xml:space="preserve" font-family="AvenirNext-Regular" font-size="24.5" fill="#000000" transform="matrix(1.00, 0.00, -0.00, -1.00, 546.0, 41.0)">e</text><text xml:space="preserve" font-family="AvenirNext-Regular" font-size="24.5" fill="#000000" transform="matrix(1.00, 0.00, -0.00, -1.00, 560.0, 41.0)">,</text><text xml:space="preserve" font-family="AvenirNext-Regular" font-size="24.5" fill="#000000" transform="matrix(1.00, 0.00, -0.00, -1.00, 565.6, 41.0)"> </text><text xml:space="preserve" font-family="AvenirNext-Regular" font-size="24.5" fill="#000000" transform="matrix(1.00, 0.00, -0.00, -1.00, 571.7, 41.0)">y</text><text xml:space="preserve" font-family="AvenirNext-Regular" font-size="24.5" fill="#000000" transform="matrix(1.00, 0.00, -0.00, -1.00, 583.7, 41.0)">a</text><text xml:space="preserve" font-family="AvenirNext-Regular" font-size="24.5" fill="#000000" transform="matrix(1.00, 0.00, -0.00, -1.00, 596.8, 41.0)">h</text><text xml:space="preserve" font-family="AvenirNext-Regular" font-size="24.5" fill="#000000" transform="matrix(1.00, 0.00, -0.00, -1.00, 611.0, 41.0)">o</text><text xml:space="preserve" font-family="AvenirNext-Regular" font-size="24.5" fill="#000000" transform="matrix(1.00, 0.00, -0.00, -1.00, 626.0, 41.0)">o</text><text xml:space="preserve" font-family="AvenirNext-Regular" font-size="24.5" fill="#000000" transform="matrix(1.00, 0.00, -0.00, -1.00, 640.6, 41.0)">,</text><text xml:space="preserve" font-family="AvenirNext-Regular" font-size="24.5" fill="#000000" transform="matrix(1.00, 0.00, -0.00, -1.00, 646.3, 41.0)"> </text><text xml:space="preserve" font-family="AvenirNext-Regular" font-size="24.5" fill="#000000" transform="matrix(1.00, 0.00, -0.00, -1.00, 652.4, 41.0)">b</text><text xml:space="preserve" font-family="AvenirNext-Regular" font-size="24.5" fill="#000000" transform="matrix(1.00, 0.00, -0.00, -1.00, 668.0, 41.0)">i</text><text xml:space="preserve" font-family="AvenirNext-Regular" font-size="24.5" fill="#000000" transform="matrix(1.00, 0.00, -0.00, -1.00, 674.1, 41.0)">n</text><text xml:space="preserve" font-family="AvenirNext-Regular" font-size="24.5" fill="#000000" transform="matrix(1.00, 0.00, -0.00, -1.00, 688.3, 41.0)">g</text><text xml:space="preserve" font-family="AvenirNext-Regular" font-size="24.5" fill="#000000" transform="matrix(1.00, 0.00, -0.00, -1.00, 703.8, 41.0)">,</text><text xml:space="preserve" font-family="AvenirNext-Regular" font-size="24.5" fill="#000000" transform="matrix(1.00, 0.00, -0.00, -1.00, 709.4, 41.0)"> </text><text xml:space="preserve" font-family="AvenirNext-Regular" font-size="24.5" fill="#000000" transform="matrix(1.00, 0.00, -0.00, -1.00, 715.6, 41.0)">e</text><text xml:space="preserve" font-family="AvenirNext-Regular" font-size="24.5" fill="#000000" transform="matrix(1.00, 0.00, -0.00, -1.00, 729.6, 41.0)">t</text><text xml:space="preserve" font-family="AvenirNext-Regular" font-size="24.5" fill="#000000" transform="matrix(1.00, 0.00, -0.00, -1.00, 737.3, 41.0)">c</text><text xml:space="preserve" font-family="AvenirNext-Regular" font-size="24.5" fill="#000000" transform="matrix(1.00, 0.00, -0.00, -1.00, 749.6, 41.0)">.</text><text xml:space="preserve" font-family="AvenirNext-Regular" font-size="24.5" fill="#000000" transform="matrix(1.00, 0.00, -0.00, -1.00, 755.9, 41.0)">.</text><text xml:space="preserve" font-family="AvenirNext-Regular" font-size="24.5" fill="#000000" transform="matrix(1.00, 0.00, -0.00, -1.00, 762.3, 41.0)">,</text><text xml:space="preserve" font-family="AvenirNext-Regular" font-size="24.5" fill="#000000" transform="matrix(1.00, 0.00, -0.00, -1.00, 767.9, 41.0)"> </text><text xml:space="preserve" font-family="AvenirNext-Regular" font-size="24.5" fill="#000000" transform="matrix(1.00, 0.00, -0.00, -1.00, 774.0, 41.0)">и</text><text xml:space="preserve" font-family="AvenirNext-Regular" font-size="24.5" fill="#000000" transform="matrix(1.00, 0.00, -0.00, -1.00, 788.7, 41.0)">з</text><text xml:space="preserve" font-family="AvenirNext-Regular" font-size="24.5" fill="#000000" transform="matrix(1.00, 0.00, -0.00, -1.00, 800.0, 41.0)">п</text><text xml:space="preserve" font-family="AvenirNext-Regular" font-size="24.5" fill="#000000" transform="matrix(1.00, 0.00, -0.00, -1.00, 813.9, 41.0)">и</text><text xml:space="preserve" font-family="AvenirNext-Regular" font-size="24.5" fill="#000000" transform="matrix(1.00, 0.00, -0.00, -1.00, 828.6, 41.0)">с</text><text xml:space="preserve" font-family="AvenirNext-Regular" font-size="24.5" fill="#000000" transform="matrix(1.00, 0.00, -0.00, -1.00, 840.8, 41.0)">в</text><text xml:space="preserve" font-family="AvenirNext-Regular" font-size="24.5" fill="#000000" transform="matrix(1.00, 0.00, -0.00, -1.00, 854.1, 41.0)">а</text><text xml:space="preserve" font-family="AvenirNext-Regular" font-size="24.5" fill="#000000" transform="matrix(1.00, 0.00, -0.00, -1.00, 867.1, 41.0)">м</text><text xml:space="preserve" font-family="AvenirNext-Regular" font-size="24.5" fill="#000000" transform="matrix(1.00, 0.00, -0.00, -1.00, 884.1, 41.0)">е</text><text xml:space="preserve" font-family="AvenirNext-Regular" font-size="24.5" fill="#000000" transform="matrix(1.00, 0.00, -0.00, -1.00, 898.2, 41.0)"> </text><text xml:space="preserve" font-family="AvenirNext-Regular" font-size="24.5" fill="#000000" transform="matrix(1.00, 0.00, -0.00, -1.00, 19.0, 8.0)">п</text><text xml:space="preserve" font-family="AvenirNext-Regular" font-size="24.5" fill="#000000" transform="matrix(1.00, 0.00, -0.00, -1.00, 32.9, 8.0)">о</text><text xml:space="preserve" font-family="AvenirNext-Regular" font-size="24.5" fill="#000000" transform="matrix(1.00, 0.00, -0.00, -1.00, 47.8, 8.0)">р</text><text xml:space="preserve" font-family="AvenirNext-Regular" font-size="24.5" fill="#000000" transform="matrix(1.00, 0.00, -0.00, -1.00, 63.4, 8.0)">е</text><text xml:space="preserve" font-family="AvenirNext-Regular" font-size="24.5" fill="#000000" transform="matrix(1.00, 0.00, -0.00, -1.00, 77.4, 8.0)">д</text><text xml:space="preserve" font-family="AvenirNext-Regular" font-size="24.5" fill="#000000" transform="matrix(1.00, 0.00, -0.00, -1.00, 90.7, 8.0)">и</text><text xml:space="preserve" font-family="AvenirNext-Regular" font-size="24.5" fill="#000000" transform="matrix(1.00, 0.00, -0.00, -1.00, 105.4, 8.0)">ц</text><text xml:space="preserve" font-family="AvenirNext-Regular" font-size="24.5" fill="#000000" transform="matrix(1.00, 0.00, -0.00, -1.00, 119.3, 8.0)">а</text><text xml:space="preserve" font-family="AvenirNext-Regular" font-size="24.5" fill="#000000" transform="matrix(1.00, 0.00, -0.00, -1.00, 132.4, 8.0)"> </text><text xml:space="preserve" font-family="AvenirNext-Regular" font-size="24.5" fill="#000000" transform="matrix(1.00, 0.00, -0.00, -1.00, 138.5, 8.0)">о</text><text xml:space="preserve" font-family="AvenirNext-Regular" font-size="24.5" fill="#000000" transform="matrix(1.00, 0.00, -0.00, -1.00, 153.5, 8.0)">т</text><text xml:space="preserve" font-family="AvenirNext-Regular" font-size="24.5" fill="#000000" transform="matrix(1.00, 0.00, -0.00, -1.00, 164.0, 8.0)"> </text><text xml:space="preserve" font-family="AvenirNext-Regular" font-size="24.5" fill="#000000" transform="matrix(1.00, 0.00, -0.00, -1.00, 170.2, 8.0)">д</text><text xml:space="preserve" font-family="AvenirNext-Regular" font-size="24.5" fill="#000000" transform="matrix(1.00, 0.00, -0.00, -1.00, 183.5, 8.0)">у</text><text xml:space="preserve" font-family="AvenirNext-Regular" font-size="24.5" fill="#000000" transform="matrix(1.00, 0.00, -0.00, -1.00, 195.4, 8.0)">м</text><text xml:space="preserve" font-family="AvenirNext-Regular" font-size="24.5" fill="#000000" transform="matrix(1.00, 0.00, -0.00, -1.00, 212.4, 8.0)">и</text><text xml:space="preserve" font-family="AvenirNext-Regular" font-size="24.5" fill="#000000" transform="matrix(1.00, 0.00, -0.00, -1.00, 227.1, 8.0)"> </text><text xml:space="preserve" font-family="AvenirNext-Regular" font-size="24.5" fill="#000000" transform="matrix(1.00, 0.00, -0.00, -1.00, 233.2, 8.0)">в</text><text xml:space="preserve" font-family="AvenirNext-Regular" font-size="24.5" fill="#000000" transform="matrix(1.00, 0.00, -0.00, -1.00, 246.5, 8.0)"> </text><text xml:space="preserve" font-family="AvenirNext-Regular" font-size="24.5" fill="#000000" transform="matrix(1.00, 0.00, -0.00, -1.00, 252.6, 8.0)">s</text><text xml:space="preserve" font-family="AvenirNext-Regular" font-size="24.5" fill="#000000" transform="matrix(1.00, 0.00, -0.00, -1.00, 263.5, 8.0)">e</text><text xml:space="preserve" font-family="AvenirNext-Regular" font-size="24.5" fill="#000000" transform="matrix(1.00, 0.00, -0.00, -1.00, 277.3, 8.0)">a</text><text xml:space="preserve" font-family="AvenirNext-Regular" font-size="24.5" fill="#000000" transform="matrix(1.00, 0.00, -0.00, -1.00, 290.4, 8.0)">r</text><text xml:space="preserve" font-family="AvenirNext-Regular" font-size="24.5" fill="#000000" transform="matrix(1.00, 0.00, -0.00, -1.00, 298.8, 8.0)">c</text><text xml:space="preserve" font-family="AvenirNext-Regular" font-size="24.5" fill="#000000" transform="matrix(1.00, 0.00, -0.00, -1.00, 311.0, 8.0)">h</text><text xml:space="preserve" font-family="AvenirNext-Regular" font-size="24.5" fill="#000000" transform="matrix(1.00, 0.00, -0.00, -1.00, 325.3, 8.0)"> </text><text xml:space="preserve" font-family="AvenirNext-Regular" font-size="24.5" fill="#000000" transform="matrix(1.00, 0.00, -0.00, -1.00, 331.4, 8.0)">п</text><text xml:space="preserve" font-family="AvenirNext-Regular" font-size="24.5" fill="#000000" transform="matrix(1.00, 0.00, -0.00, -1.00, 345.3, 8.0)">о</text><text xml:space="preserve" font-family="AvenirNext-Regular" font-size="24.5" fill="#000000" transform="matrix(1.00, 0.00, -0.00, -1.00, 360.2, 8.0)">л</text><text xml:space="preserve" font-family="AvenirNext-Regular" font-size="24.5" fill="#000000" transform="matrix(1.00, 0.00, -0.00, -1.00, 372.4, 8.0)">е</text><text xml:space="preserve" font-family="AvenirNext-Regular" font-size="24.5" fill="#000000" transform="matrix(1.00, 0.00, -0.00, -1.00, 386.4, 8.0)">т</text><text xml:space="preserve" font-family="AvenirNext-Regular" font-size="24.5" fill="#000000" transform="matrix(1.00, 0.00, -0.00, -1.00, 396.9, 8.0)">о</text><text xml:space="preserve" font-family="AvenirNext-Regular" font-size="24.5" fill="#000000" transform="matrix(1.00, 0.00, -0.00, -1.00, 411.9, 8.0)">.</text><text xml:space="preserve" font-family="AvenirNext-Regular" font-size="24.5" fill="#000000" transform="matrix(1.00, 0.00, -0.00, -1.00, 417.5, 8.0)"> </text><text xml:space="preserve" font-family="AvenirNext-Regular" font-size="24.5" fill="#000000" transform="matrix(1.00, 0.00, -0.00, -1.00, 423.7, 8.0)">Т</text><text xml:space="preserve" font-family="AvenirNext-Regular" font-size="24.5" fill="#000000" transform="matrix(1.00, 0.00, -0.00, -1.00, 437.6, 8.0)">е</text><text xml:space="preserve" font-family="AvenirNext-Regular" font-size="24.5" fill="#000000" transform="matrix(1.00, 0.00, -0.00, -1.00, 451.6, 8.0)">з</text><text xml:space="preserve" font-family="AvenirNext-Regular" font-size="24.5" fill="#000000" transform="matrix(1.00, 0.00, -0.00, -1.00, 462.9, 8.0)">и</text><text xml:space="preserve" font-family="AvenirNext-Regular" font-size="24.5" fill="#000000" transform="matrix(1.00, 0.00, -0.00, -1.00, 477.6, 8.0)"> </text><text xml:space="preserve" font-family="AvenirNext-Regular" font-size="24.5" fill="#000000" transform="matrix(1.00, 0.00, -0.00, -1.00, 483.7, 8.0)">д</text><text xml:space="preserve" font-family="AvenirNext-Regular" font-size="24.5" fill="#000000" transform="matrix(1.00, 0.00, -0.00, -1.00, 497.0, 8.0)">у</text><text xml:space="preserve" font-family="AvenirNext-Regular" font-size="24.5" fill="#000000" transform="matrix(1.00, 0.00, -0.00, -1.00, 509.0, 8.0)">м</text><text xml:space="preserve" font-family="AvenirNext-Regular" font-size="24.5" fill="#000000" transform="matrix(1.00, 0.00, -0.00, -1.00, 526.0, 8.0)">и</text><text xml:space="preserve" font-family="AvenirNext-Regular" font-size="24.5" fill="#000000" transform="matrix(1.00, 0.00, -0.00, -1.00, 540.7, 8.0)"> </text><text xml:space="preserve" font-family="AvenirNext-Regular" font-size="24.5" fill="#000000" transform="matrix(1.00, 0.00, -0.00, -1.00, 546.8, 8.0)">с</text><text xml:space="preserve" font-family="AvenirNext-Regular" font-size="24.5" fill="#000000" transform="matrix(1.00, 0.00, -0.00, -1.00, 559.0, 8.0)">е</text><text xml:space="preserve" font-family="AvenirNext-Regular" font-size="24.5" fill="#000000" transform="matrix(1.00, 0.00, -0.00, -1.00, 573.0, 8.0)"> </text><text xml:space="preserve" font-family="AvenirNext-Regular" font-size="24.5" fill="#000000" transform="matrix(1.00, 0.00, -0.00, -1.00, 579.2, 8.0)">н</text><text xml:space="preserve" font-family="AvenirNext-Regular" font-size="24.5" fill="#000000" transform="matrix(1.00, 0.00, -0.00, -1.00, 593.2, 8.0)">а</text><text xml:space="preserve" font-family="AvenirNext-Regular" font-size="24.5" fill="#000000" transform="matrix(1.00, 0.00, -0.00, -1.00, 606.3, 8.0)">р</text><text xml:space="preserve" font-family="AvenirNext-Regular" font-size="24.5" fill="#000000" transform="matrix(1.00, 0.00, -0.00, -1.00, 621.8, 8.0)">и</text><text xml:space="preserve" font-family="AvenirNext-Regular" font-size="24.5" fill="#000000" transform="matrix(1.00, 0.00, -0.00, -1.00, 636.5, 8.0)">ч</text><text xml:space="preserve" font-family="AvenirNext-Regular" font-size="24.5" fill="#000000" transform="matrix(1.00, 0.00, -0.00, -1.00, 649.1, 8.0)">а</text><text xml:space="preserve" font-family="AvenirNext-Regular" font-size="24.5" fill="#000000" transform="matrix(1.00, 0.00, -0.00, -1.00, 662.2, 8.0)">т</text><text xml:space="preserve" font-family="AvenirNext-Regular" font-size="24.5" fill="#000000" transform="matrix(1.00, 0.00, -0.00, -1.00, 672.8, 8.0)"> </text><text xml:space="preserve" font-family="AvenirNext-Italic" font-style="italic" font-size="24.5" fill="#000000" transform="matrix(1.00, 0.00, -0.00, -1.00, 678.9, 8.0)">k</text><text xml:space="preserve" font-family="AvenirNext-Italic" font-style="italic" font-size="24.5" fill="#000000" transform="matrix(1.00, 0.00, -0.00, -1.00, 690.4, 8.0)">e</text><text xml:space="preserve" font-family="AvenirNext-Italic" font-style="italic" font-size="24.5" fill="#000000" transform="matrix(1.00, 0.00, -0.00, -1.00, 704.2, 8.0)">y</text><text xml:space="preserve" font-family="AvenirNext-Italic" font-style="italic" font-size="24.5" fill="#000000" transform="matrix(1.00, 0.00, -0.00, -1.00, 716.0, 8.0)">w</text><text xml:space="preserve" font-family="AvenirNext-Italic" font-style="italic" font-size="24.5" fill="#000000" transform="matrix(1.00, 0.00, -0.00, -1.00, 734.0, 8.0)">o</text><text xml:space="preserve" font-family="AvenirNext-Italic" font-style="italic" font-size="24.5" fill="#000000" transform="matrix(1.00, 0.00, -0.00, -1.00, 748.6, 8.0)">r</text><text xml:space="preserve" font-family="AvenirNext-Italic" font-style="italic" font-size="24.5" fill="#000000" transform="matrix(1.00, 0.00, -0.00, -1.00, 756.8, 8.0)">d</text><text xml:space="preserve" font-family="AvenirNext-Italic" font-style="italic" font-size="24.5" fill="#000000" transform="matrix(1.00, 0.00, -0.00, -1.00, 772.0, 8.0)">s</text></g></svg>