<?xml version="1.0" encoding="UTF-8" standalone="no"?><svg xmlns="http://www.w3.org/2000/svg" xmlns:xlink="http://www.w3.org/1999/xlink" clip-rule="evenodd" stroke-miterlimit="4.00" viewBox="0 0 1024 768"><desc>SVG generated by Keynote</desc><defs></defs><g transform="matrix(1.00, 0.00, -0.00, -1.00, 0.0, 768.0)"><g><clipPath id="clip-600"><path d="M 0.0 768.0 L 1024.0 768.0 L 1024.0 0.0 L 0.0 0.0 Z M 0.0 768.0 "></path></clipPath><g clip-path="url(#clip-600)"><image xlink:href="../../8F6754E5-F402-453C-8A28-A81B776A4759/assets/370422EB796A13E2672D714038217573.png" width="720.00" height="450.00" transform="matrix(1.42, 0.00, -0.00, -1.71, 0.0, 768.0)"></image></g></g><text xml:space="preserve" font-family="AvenirNext-Regular" font-size="44.8" fill="#000000" transform="matrix(1.00, 0.00, -0.00, -1.00, 100.0, 619.0)">К</text><text xml:space="preserve" font-family="AvenirNext-Regular" font-size="44.8" fill="#000000" transform="matrix(1.00, 0.00, -0.00, -1.00, 131.0, 619.0)">а</text><text xml:space="preserve" font-family="AvenirNext-Regular" font-size="44.8" fill="#000000" transform="matrix(1.00, 0.00, -0.00, -1.00, 154.9, 619.0)">к</text><text xml:space="preserve" font-family="AvenirNext-Regular" font-size="44.8" fill="#000000" transform="matrix(1.00, 0.00, -0.00, -1.00, 179.2, 619.0)">в</text><text xml:space="preserve" font-family="AvenirNext-Regular" font-size="44.8" fill="#000000" transform="matrix(1.00, 0.00, -0.00, -1.00, 203.4, 619.0)">о</text><text xml:space="preserve" font-family="AvenirNext-Regular" font-size="44.8" fill="#000000" transform="matrix(1.00, 0.00, -0.00, -1.00, 230.8, 619.0)"> </text><text xml:space="preserve" font-family="AvenirNext-Regular" font-size="44.8" fill="#000000" transform="matrix(1.00, 0.00, -0.00, -1.00, 242.0, 619.0)">т</text><text xml:space="preserve" font-family="AvenirNext-Regular" font-size="44.8" fill="#000000" transform="matrix(1.00, 0.00, -0.00, -1.00, 261.3, 619.0)">р</text><text xml:space="preserve" font-family="AvenirNext-Regular" font-size="44.8" fill="#000000" transform="matrix(1.00, 0.00, -0.00, -1.00, 289.8, 619.0)">я</text><text xml:space="preserve" font-family="AvenirNext-Regular" font-size="44.8" fill="#000000" transform="matrix(1.00, 0.00, -0.00, -1.00, 313.9, 619.0)">б</text><text xml:space="preserve" font-family="AvenirNext-Regular" font-size="44.8" fill="#000000" transform="matrix(1.00, 0.00, -0.00, -1.00, 340.8, 619.0)">в</text><text xml:space="preserve" font-family="AvenirNext-Regular" font-size="44.8" fill="#000000" transform="matrix(1.00, 0.00, -0.00, -1.00, 365.0, 619.0)">а</text><text xml:space="preserve" font-family="AvenirNext-Regular" font-size="44.8" fill="#000000" transform="matrix(1.00, 0.00, -0.00, -1.00, 388.9, 619.0)"> </text><text xml:space="preserve" font-family="AvenirNext-Regular" font-size="44.8" fill="#000000" transform="matrix(1.00, 0.00, -0.00, -1.00, 400.1, 619.0)">д</text><text xml:space="preserve" font-family="AvenirNext-Regular" font-size="44.8" fill="#000000" transform="matrix(1.00, 0.00, -0.00, -1.00, 424.5, 619.0)">а</text><text xml:space="preserve" font-family="AvenirNext-Regular" font-size="44.8" fill="#000000" transform="matrix(1.00, 0.00, -0.00, -1.00, 448.4, 619.0)"> </text><text xml:space="preserve" font-family="AvenirNext-Regular" font-size="44.8" fill="#000000" transform="matrix(1.00, 0.00, -0.00, -1.00, 459.6, 619.0)">з</text><text xml:space="preserve" font-family="AvenirNext-Regular" font-size="44.8" fill="#000000" transform="matrix(1.00, 0.00, -0.00, -1.00, 480.4, 619.0)">н</text><text xml:space="preserve" font-family="AvenirNext-Regular" font-size="44.8" fill="#000000" transform="matrix(1.00, 0.00, -0.00, -1.00, 506.1, 619.0)">а</text><text xml:space="preserve" font-family="AvenirNext-Regular" font-size="44.8" fill="#000000" transform="matrix(1.00, 0.00, -0.00, -1.00, 530.0, 619.0)">е</text><text xml:space="preserve" font-family="AvenirNext-Regular" font-size="44.8" fill="#000000" transform="matrix(1.00, 0.00, -0.00, -1.00, 555.7, 619.0)">м</text><text xml:space="preserve" font-family="AvenirNext-Regular" font-size="44.8" fill="#000000" transform="matrix(1.00, 0.00, -0.00, -1.00, 586.8, 619.0)"> </text><text xml:space="preserve" font-family="AvenirNext-Regular" font-size="44.8" fill="#000000" transform="matrix(1.00, 0.00, -0.00, -1.00, 598.0, 619.0)">з</text><text xml:space="preserve" font-family="AvenirNext-Regular" font-size="44.8" fill="#000000" transform="matrix(1.00, 0.00, -0.00, -1.00, 618.7, 619.0)">а</text><text xml:space="preserve" font-family="AvenirNext-Regular" font-size="44.8" fill="#000000" transform="matrix(1.00, 0.00, -0.00, -1.00, 642.7, 619.0)"> </text><text xml:space="preserve" font-family="AvenirNext-Regular" font-size="44.8" fill="#000000" transform="matrix(1.00, 0.00, -0.00, -1.00, 653.9, 619.0)">S</text><text xml:space="preserve" font-family="AvenirNext-Regular" font-size="44.8" fill="#000000" transform="matrix(1.00, 0.00, -0.00, -1.00, 679.1, 619.0)">E</text><text xml:space="preserve" font-family="AvenirNext-Regular" font-size="44.8" fill="#000000" transform="matrix(1.00, 0.00, -0.00, -1.00, 705.7, 619.0)">O</text><text xml:space="preserve" font-family="AvenirNext-Regular" font-size="44.8" fill="#000000" transform="matrix(1.00, 0.00, -0.00, -1.00, 743.7, 619.0)"> </text><text xml:space="preserve" font-family="AvenirNext-Regular" font-size="44.8" fill="#000000" transform="matrix(1.00, 0.00, -0.00, -1.00, 754.9, 619.0)">и</text><text xml:space="preserve" font-family="AvenirNext-Regular" font-size="44.8" fill="#000000" transform="matrix(1.00, 0.00, -0.00, -1.00, 781.8, 619.0)"> </text><text xml:space="preserve" font-family="AvenirNext-Regular" font-size="44.8" fill="#000000" transform="matrix(1.00, 0.00, -0.00, -1.00, 793.0, 619.0)">g</text><text xml:space="preserve" font-family="AvenirNext-Regular" font-size="44.8" fill="#000000" transform="matrix(1.00, 0.00, -0.00, -1.00, 821.3, 619.0)">o</text><text xml:space="preserve" font-family="AvenirNext-Regular" font-size="44.8" fill="#000000" transform="matrix(1.00, 0.00, -0.00, -1.00, 848.7, 619.0)">o</text><text xml:space="preserve" font-family="AvenirNext-Regular" font-size="44.8" fill="#000000" transform="matrix(1.00, 0.00, -0.00, -1.00, 876.0, 619.0)">g</text><text xml:space="preserve" font-family="AvenirNext-Regular" font-size="44.8" fill="#000000" transform="matrix(1.00, 0.00, -0.00, -1.00, 904.3, 619.0)">l</text><text xml:space="preserve" font-family="AvenirNext-Regular" font-size="44.8" fill="#000000" transform="matrix(1.00, 0.00, -0.00, -1.00, 915.6, 619.0)">e</text></g></svg>