<?xml version="1.0" encoding="UTF-8" standalone="no"?><svg xmlns="http://www.w3.org/2000/svg" xmlns:xlink="http://www.w3.org/1999/xlink" clip-rule="evenodd" stroke-miterlimit="4.00" viewBox="0 0 822 59"><desc>SVG generated by Keynote</desc><defs></defs><g transform="matrix(1.00, 0.00, -0.00, -1.00, 0.0, 59.0)"><text xml:space="preserve" font-family="AvenirNext-Regular" font-size="17.3" fill="#000000" transform="matrix(1.00, 0.00, -0.00, -1.00, 0.0, 40.9)">•</text><text xml:space="preserve" font-family="AvenirNext-Regular" font-size="23.0" fill="#000000" transform="matrix(1.00, 0.00, -0.00, -1.00, 17.0, 39.0)">d</text><text xml:space="preserve" font-family="AvenirNext-Regular" font-size="23.0" fill="#000000" transform="matrix(1.00, 0.00, -0.00, -1.00, 31.7, 39.0)">e</text><text xml:space="preserve" font-family="AvenirNext-Regular" font-size="23.0" fill="#000000" transform="matrix(1.00, 0.00, -0.00, -1.00, 44.9, 39.0)">s</text><text xml:space="preserve" font-family="AvenirNext-Regular" font-size="23.0" fill="#000000" transform="matrix(1.00, 0.00, -0.00, -1.00, 55.1, 39.0)">c</text><text xml:space="preserve" font-family="AvenirNext-Regular" font-size="23.0" fill="#000000" transform="matrix(1.00, 0.00, -0.00, -1.00, 66.6, 39.0)">r</text><text xml:space="preserve" font-family="AvenirNext-Regular" font-size="23.0" fill="#000000" transform="matrix(1.00, 0.00, -0.00, -1.00, 74.9, 39.0)">i</text><text xml:space="preserve" font-family="AvenirNext-Regular" font-size="23.0" fill="#000000" transform="matrix(1.00, 0.00, -0.00, -1.00, 80.7, 39.0)">p</text><text xml:space="preserve" font-family="AvenirNext-Regular" font-size="23.0" fill="#000000" transform="matrix(1.00, 0.00, -0.00, -1.00, 95.3, 39.0)">t</text><text xml:space="preserve" font-family="AvenirNext-Regular" font-size="23.0" fill="#000000" transform="matrix(1.00, 0.00, -0.00, -1.00, 102.6, 39.0)">i</text><text xml:space="preserve" font-family="AvenirNext-Regular" font-size="23.0" fill="#000000" transform="matrix(1.00, 0.00, -0.00, -1.00, 108.4, 39.0)">o</text><text xml:space="preserve" font-family="AvenirNext-Regular" font-size="23.0" fill="#000000" transform="matrix(1.00, 0.00, -0.00, -1.00, 122.4, 39.0)">n</text><text xml:space="preserve" font-family="AvenirNext-Regular" font-size="23.0" fill="#000000" transform="matrix(1.00, 0.00, -0.00, -1.00, 135.8, 39.0)">-</text><text xml:space="preserve" font-family="AvenirNext-Regular" font-size="23.0" fill="#000000" transform="matrix(1.00, 0.00, -0.00, -1.00, 143.2, 39.0)">a</text><text xml:space="preserve" font-family="AvenirNext-Regular" font-size="23.0" fill="#000000" transform="matrix(1.00, 0.00, -0.00, -1.00, 155.5, 39.0)"> </text><text xml:space="preserve" font-family="AvenirNext-Regular" font-size="23.0" fill="#000000" transform="matrix(1.00, 0.00, -0.00, -1.00, 161.3, 39.0)">с</text><text xml:space="preserve" font-family="AvenirNext-Regular" font-size="23.0" fill="#000000" transform="matrix(1.00, 0.00, -0.00, -1.00, 172.8, 39.0)">ъ</text><text xml:space="preserve" font-family="AvenirNext-Regular" font-size="23.0" fill="#000000" transform="matrix(1.00, 0.00, -0.00, -1.00, 185.5, 39.0)">щ</text><text xml:space="preserve" font-family="AvenirNext-Regular" font-size="23.0" fill="#000000" transform="matrix(1.00, 0.00, -0.00, -1.00, 204.1, 39.0)">о</text><text xml:space="preserve" font-family="AvenirNext-Regular" font-size="23.0" fill="#000000" transform="matrix(1.00, 0.00, -0.00, -1.00, 218.2, 39.0)"> </text><text xml:space="preserve" font-family="AvenirNext-Regular" font-size="23.0" fill="#000000" transform="matrix(1.00, 0.00, -0.00, -1.00, 224.0, 39.0)">т</text><text xml:space="preserve" font-family="AvenirNext-Regular" font-size="23.0" fill="#000000" transform="matrix(1.00, 0.00, -0.00, -1.00, 233.9, 39.0)">а</text><text xml:space="preserve" font-family="AvenirNext-Regular" font-size="23.0" fill="#000000" transform="matrix(1.00, 0.00, -0.00, -1.00, 246.2, 39.0)">к</text><text xml:space="preserve" font-family="AvenirNext-Regular" font-size="23.0" fill="#000000" transform="matrix(1.00, 0.00, -0.00, -1.00, 258.7, 39.0)">а</text><text xml:space="preserve" font-family="AvenirNext-Regular" font-size="23.0" fill="#000000" transform="matrix(1.00, 0.00, -0.00, -1.00, 271.0, 39.0)"> </text><text xml:space="preserve" font-family="AvenirNext-Regular" font-size="23.0" fill="#000000" transform="matrix(1.00, 0.00, -0.00, -1.00, 276.8, 39.0)">с</text><text xml:space="preserve" font-family="AvenirNext-Regular" font-size="23.0" fill="#000000" transform="matrix(1.00, 0.00, -0.00, -1.00, 288.3, 39.0)">е</text><text xml:space="preserve" font-family="AvenirNext-Regular" font-size="23.0" fill="#000000" transform="matrix(1.00, 0.00, -0.00, -1.00, 301.5, 39.0)"> </text><text xml:space="preserve" font-family="AvenirNext-Regular" font-size="23.0" fill="#000000" transform="matrix(1.00, 0.00, -0.00, -1.00, 307.2, 39.0)">п</text><text xml:space="preserve" font-family="AvenirNext-Regular" font-size="23.0" fill="#000000" transform="matrix(1.00, 0.00, -0.00, -1.00, 320.3, 39.0)">о</text><text xml:space="preserve" font-family="AvenirNext-Regular" font-size="23.0" fill="#000000" transform="matrix(1.00, 0.00, -0.00, -1.00, 334.4, 39.0)">л</text><text xml:space="preserve" font-family="AvenirNext-Regular" font-size="23.0" fill="#000000" transform="matrix(1.00, 0.00, -0.00, -1.00, 345.8, 39.0)">з</text><text xml:space="preserve" font-family="AvenirNext-Regular" font-size="23.0" fill="#000000" transform="matrix(1.00, 0.00, -0.00, -1.00, 356.5, 39.0)">в</text><text xml:space="preserve" font-family="AvenirNext-Regular" font-size="23.0" fill="#000000" transform="matrix(1.00, 0.00, -0.00, -1.00, 369.0, 39.0)">а</text><text xml:space="preserve" font-family="AvenirNext-Regular" font-size="23.0" fill="#000000" transform="matrix(1.00, 0.00, -0.00, -1.00, 381.3, 39.0)"> </text><text xml:space="preserve" font-family="AvenirNext-Regular" font-size="23.0" fill="#000000" transform="matrix(1.00, 0.00, -0.00, -1.00, 387.0, 39.0)">(</text><text xml:space="preserve" font-family="AvenirNext-Regular" font-size="23.0" fill="#000000" transform="matrix(1.00, 0.00, -0.00, -1.00, 393.9, 39.0)">ч</text><text xml:space="preserve" font-family="AvenirNext-Regular" font-size="23.0" fill="#000000" transform="matrix(1.00, 0.00, -0.00, -1.00, 405.8, 39.0)">а</text><text xml:space="preserve" font-family="AvenirNext-Regular" font-size="23.0" fill="#000000" transform="matrix(1.00, 0.00, -0.00, -1.00, 418.1, 39.0)">с</text><text xml:space="preserve" font-family="AvenirNext-Regular" font-size="23.0" fill="#000000" transform="matrix(1.00, 0.00, -0.00, -1.00, 429.6, 39.0)">т</text><text xml:space="preserve" font-family="AvenirNext-Regular" font-size="23.0" fill="#000000" transform="matrix(1.00, 0.00, -0.00, -1.00, 439.6, 39.0)">и</text><text xml:space="preserve" font-family="AvenirNext-Regular" font-size="23.0" fill="#000000" transform="matrix(1.00, 0.00, -0.00, -1.00, 453.4, 39.0)">ч</text><text xml:space="preserve" font-family="AvenirNext-Regular" font-size="23.0" fill="#000000" transform="matrix(1.00, 0.00, -0.00, -1.00, 465.3, 39.0)">н</text><text xml:space="preserve" font-family="AvenirNext-Regular" font-size="23.0" fill="#000000" transform="matrix(1.00, 0.00, -0.00, -1.00, 478.5, 39.0)">о</text><text xml:space="preserve" font-family="AvenirNext-Regular" font-size="23.0" fill="#000000" transform="matrix(1.00, 0.00, -0.00, -1.00, 492.6, 39.0)"> </text><text xml:space="preserve" font-family="AvenirNext-Regular" font-size="23.0" fill="#000000" transform="matrix(1.00, 0.00, -0.00, -1.00, 498.4, 39.0)">и</text><text xml:space="preserve" font-family="AvenirNext-Regular" font-size="23.0" fill="#000000" transform="matrix(1.00, 0.00, -0.00, -1.00, 512.2, 39.0)">л</text><text xml:space="preserve" font-family="AvenirNext-Regular" font-size="23.0" fill="#000000" transform="matrix(1.00, 0.00, -0.00, -1.00, 523.6, 39.0)">и</text><text xml:space="preserve" font-family="AvenirNext-Regular" font-size="23.0" fill="#000000" transform="matrix(1.00, 0.00, -0.00, -1.00, 537.4, 39.0)"> </text><text xml:space="preserve" font-family="AvenirNext-Regular" font-size="23.0" fill="#000000" transform="matrix(1.00, 0.00, -0.00, -1.00, 543.2, 39.0)">и</text><text xml:space="preserve" font-family="AvenirNext-Regular" font-size="23.0" fill="#000000" transform="matrix(1.00, 0.00, -0.00, -1.00, 557.0, 39.0)">з</text><text xml:space="preserve" font-family="AvenirNext-Regular" font-size="23.0" fill="#000000" transform="matrix(1.00, 0.00, -0.00, -1.00, 567.6, 39.0)">ц</text><text xml:space="preserve" font-family="AvenirNext-Regular" font-size="23.0" fill="#000000" transform="matrix(1.00, 0.00, -0.00, -1.00, 580.8, 39.0)">я</text><text xml:space="preserve" font-family="AvenirNext-Regular" font-size="23.0" fill="#000000" transform="matrix(1.00, 0.00, -0.00, -1.00, 593.2, 39.0)">л</text><text xml:space="preserve" font-family="AvenirNext-Regular" font-size="23.0" fill="#000000" transform="matrix(1.00, 0.00, -0.00, -1.00, 604.7, 39.0)">о</text><text xml:space="preserve" font-family="AvenirNext-Regular" font-size="23.0" fill="#000000" transform="matrix(1.00, 0.00, -0.00, -1.00, 618.7, 39.0)">)</text><text xml:space="preserve" font-family="AvenirNext-Regular" font-size="23.0" fill="#000000" transform="matrix(1.00, 0.00, -0.00, -1.00, 625.6, 39.0)"> </text><text xml:space="preserve" font-family="AvenirNext-Regular" font-size="23.0" fill="#000000" transform="matrix(1.00, 0.00, -0.00, -1.00, 631.4, 39.0)">з</text><text xml:space="preserve" font-family="AvenirNext-Regular" font-size="23.0" fill="#000000" transform="matrix(1.00, 0.00, -0.00, -1.00, 642.1, 39.0)">а</text><text xml:space="preserve" font-family="AvenirNext-Regular" font-size="23.0" fill="#000000" transform="matrix(1.00, 0.00, -0.00, -1.00, 654.4, 39.0)"> </text><text xml:space="preserve" font-family="AvenirNext-Regular" font-size="23.0" fill="#000000" transform="matrix(1.00, 0.00, -0.00, -1.00, 660.1, 39.0)">о</text><text xml:space="preserve" font-family="AvenirNext-Regular" font-size="23.0" fill="#000000" transform="matrix(1.00, 0.00, -0.00, -1.00, 674.2, 39.0)">п</text><text xml:space="preserve" font-family="AvenirNext-Regular" font-size="23.0" fill="#000000" transform="matrix(1.00, 0.00, -0.00, -1.00, 687.3, 39.0)">и</text><text xml:space="preserve" font-family="AvenirNext-Regular" font-size="23.0" fill="#000000" transform="matrix(1.00, 0.00, -0.00, -1.00, 701.1, 39.0)">с</text><text xml:space="preserve" font-family="AvenirNext-Regular" font-size="23.0" fill="#000000" transform="matrix(1.00, 0.00, -0.00, -1.00, 712.6, 39.0)">а</text><text xml:space="preserve" font-family="AvenirNext-Regular" font-size="23.0" fill="#000000" transform="matrix(1.00, 0.00, -0.00, -1.00, 724.9, 39.0)">н</text><text xml:space="preserve" font-family="AvenirNext-Regular" font-size="23.0" fill="#000000" transform="matrix(1.00, 0.00, -0.00, -1.00, 738.2, 39.0)">и</text><text xml:space="preserve" font-family="AvenirNext-Regular" font-size="23.0" fill="#000000" transform="matrix(1.00, 0.00, -0.00, -1.00, 752.0, 39.0)">е</text><text xml:space="preserve" font-family="AvenirNext-Regular" font-size="23.0" fill="#000000" transform="matrix(1.00, 0.00, -0.00, -1.00, 765.1, 39.0)">т</text><text xml:space="preserve" font-family="AvenirNext-Regular" font-size="23.0" fill="#000000" transform="matrix(1.00, 0.00, -0.00, -1.00, 775.1, 39.0)">о</text><text xml:space="preserve" font-family="AvenirNext-Regular" font-size="23.0" fill="#000000" transform="matrix(1.00, 0.00, -0.00, -1.00, 789.1, 39.0)"> </text><text xml:space="preserve" font-family="AvenirNext-Regular" font-size="23.0" fill="#000000" transform="matrix(1.00, 0.00, -0.00, -1.00, 794.9, 39.0)">н</text><text xml:space="preserve" font-family="AvenirNext-Regular" font-size="23.0" fill="#000000" transform="matrix(1.00, 0.00, -0.00, -1.00, 808.1, 39.0)">а</text><text xml:space="preserve" font-family="AvenirNext-Regular" font-size="23.0" fill="#000000" transform="matrix(1.00, 0.00, -0.00, -1.00, 820.5, 39.0)"> </text><text xml:space="preserve" font-family="AvenirNext-Regular" font-size="23.0" fill="#000000" transform="matrix(1.00, 0.00, -0.00, -1.00, 17.0, 8.0)">с</text><text xml:space="preserve" font-family="AvenirNext-Regular" font-size="23.0" fill="#000000" transform="matrix(1.00, 0.00, -0.00, -1.00, 28.5, 8.0)">т</text><text xml:space="preserve" font-family="AvenirNext-Regular" font-size="23.0" fill="#000000" transform="matrix(1.00, 0.00, -0.00, -1.00, 38.5, 8.0)">р</text><text xml:space="preserve" font-family="AvenirNext-Regular" font-size="23.0" fill="#000000" transform="matrix(1.00, 0.00, -0.00, -1.00, 53.1, 8.0)">а</text><text xml:space="preserve" font-family="AvenirNext-Regular" font-size="23.0" fill="#000000" transform="matrix(1.00, 0.00, -0.00, -1.00, 65.4, 8.0)">н</text><text xml:space="preserve" font-family="AvenirNext-Regular" font-size="23.0" fill="#000000" transform="matrix(1.00, 0.00, -0.00, -1.00, 78.6, 8.0)">и</text><text xml:space="preserve" font-family="AvenirNext-Regular" font-size="23.0" fill="#000000" transform="matrix(1.00, 0.00, -0.00, -1.00, 92.4, 8.0)">ц</text><text xml:space="preserve" font-family="AvenirNext-Regular" font-size="23.0" fill="#000000" transform="matrix(1.00, 0.00, -0.00, -1.00, 105.6, 8.0)">а</text><text xml:space="preserve" font-family="AvenirNext-Regular" font-size="23.0" fill="#000000" transform="matrix(1.00, 0.00, -0.00, -1.00, 117.9, 8.0)">т</text><text xml:space="preserve" font-family="AvenirNext-Regular" font-size="23.0" fill="#000000" transform="matrix(1.00, 0.00, -0.00, -1.00, 127.8, 8.0)">а</text><text xml:space="preserve" font-family="AvenirNext-Regular" font-size="23.0" fill="#000000" transform="matrix(1.00, 0.00, -0.00, -1.00, 140.1, 8.0)"> </text><text xml:space="preserve" font-family="AvenirNext-Regular" font-size="23.0" fill="#000000" transform="matrix(1.00, 0.00, -0.00, -1.00, 145.9, 8.0)">в</text><text xml:space="preserve" font-family="AvenirNext-Regular" font-size="23.0" fill="#000000" transform="matrix(1.00, 0.00, -0.00, -1.00, 158.4, 8.0)"> </text><text xml:space="preserve" font-family="AvenirNext-Regular" font-size="23.0" fill="#000000" transform="matrix(1.00, 0.00, -0.00, -1.00, 164.1, 8.0)">S</text><text xml:space="preserve" font-family="AvenirNext-Regular" font-size="23.0" fill="#000000" transform="matrix(1.00, 0.00, -0.00, -1.00, 177.1, 8.0)">E</text><text xml:space="preserve" font-family="AvenirNext-Regular" font-size="23.0" fill="#000000" transform="matrix(1.00, 0.00, -0.00, -1.00, 190.7, 8.0)">R</text><text xml:space="preserve" font-family="AvenirNext-Regular" font-size="23.0" fill="#000000" transform="matrix(1.00, 0.00, -0.00, -1.00, 204.5, 8.0)">P</text><text xml:space="preserve" font-family="AvenirNext-Regular" font-size="23.0" fill="#000000" transform="matrix(1.00, 0.00, -0.00, -1.00, 216.8, 8.0)">s</text></g></svg>