<?xml version="1.0" encoding="UTF-8" standalone="no"?><svg xmlns="http://www.w3.org/2000/svg" xmlns:xlink="http://www.w3.org/1999/xlink" clip-rule="evenodd" stroke-miterlimit="4.00" viewBox="0 0 838 49"><desc>SVG generated by Keynote</desc><defs></defs><g transform="matrix(1.00, 0.00, -0.00, -1.00, 0.0, 49.0)"><text xml:space="preserve" font-family="AvenirNext-Regular" font-size="44.8" fill="#000000" transform="matrix(1.00, 0.00, -0.00, -1.00, -3.0, 13.0)">К</text><text xml:space="preserve" font-family="AvenirNext-Regular" font-size="44.8" fill="#000000" transform="matrix(1.00, 0.00, -0.00, -1.00, 28.0, 13.0)">а</text><text xml:space="preserve" font-family="AvenirNext-Regular" font-size="44.8" fill="#000000" transform="matrix(1.00, 0.00, -0.00, -1.00, 51.9, 13.0)">к</text><text xml:space="preserve" font-family="AvenirNext-Regular" font-size="44.8" fill="#000000" transform="matrix(1.00, 0.00, -0.00, -1.00, 76.2, 13.0)">в</text><text xml:space="preserve" font-family="AvenirNext-Regular" font-size="44.8" fill="#000000" transform="matrix(1.00, 0.00, -0.00, -1.00, 100.4, 13.0)">о</text><text xml:space="preserve" font-family="AvenirNext-Regular" font-size="44.8" fill="#000000" transform="matrix(1.00, 0.00, -0.00, -1.00, 127.8, 13.0)"> </text><text xml:space="preserve" font-family="AvenirNext-Regular" font-size="44.8" fill="#000000" transform="matrix(1.00, 0.00, -0.00, -1.00, 139.0, 13.0)">т</text><text xml:space="preserve" font-family="AvenirNext-Regular" font-size="44.8" fill="#000000" transform="matrix(1.00, 0.00, -0.00, -1.00, 158.3, 13.0)">р</text><text xml:space="preserve" font-family="AvenirNext-Regular" font-size="44.8" fill="#000000" transform="matrix(1.00, 0.00, -0.00, -1.00, 186.8, 13.0)">я</text><text xml:space="preserve" font-family="AvenirNext-Regular" font-size="44.8" fill="#000000" transform="matrix(1.00, 0.00, -0.00, -1.00, 210.9, 13.0)">б</text><text xml:space="preserve" font-family="AvenirNext-Regular" font-size="44.8" fill="#000000" transform="matrix(1.00, 0.00, -0.00, -1.00, 237.8, 13.0)">в</text><text xml:space="preserve" font-family="AvenirNext-Regular" font-size="44.8" fill="#000000" transform="matrix(1.00, 0.00, -0.00, -1.00, 262.0, 13.0)">а</text><text xml:space="preserve" font-family="AvenirNext-Regular" font-size="44.8" fill="#000000" transform="matrix(1.00, 0.00, -0.00, -1.00, 285.9, 13.0)"> </text><text xml:space="preserve" font-family="AvenirNext-Regular" font-size="44.8" fill="#000000" transform="matrix(1.00, 0.00, -0.00, -1.00, 297.1, 13.0)">д</text><text xml:space="preserve" font-family="AvenirNext-Regular" font-size="44.8" fill="#000000" transform="matrix(1.00, 0.00, -0.00, -1.00, 321.5, 13.0)">а</text><text xml:space="preserve" font-family="AvenirNext-Regular" font-size="44.8" fill="#000000" transform="matrix(1.00, 0.00, -0.00, -1.00, 345.4, 13.0)"> </text><text xml:space="preserve" font-family="AvenirNext-Regular" font-size="44.8" fill="#000000" transform="matrix(1.00, 0.00, -0.00, -1.00, 356.6, 13.0)">з</text><text xml:space="preserve" font-family="AvenirNext-Regular" font-size="44.8" fill="#000000" transform="matrix(1.00, 0.00, -0.00, -1.00, 377.4, 13.0)">н</text><text xml:space="preserve" font-family="AvenirNext-Regular" font-size="44.8" fill="#000000" transform="matrix(1.00, 0.00, -0.00, -1.00, 403.1, 13.0)">а</text><text xml:space="preserve" font-family="AvenirNext-Regular" font-size="44.8" fill="#000000" transform="matrix(1.00, 0.00, -0.00, -1.00, 427.0, 13.0)">е</text><text xml:space="preserve" font-family="AvenirNext-Regular" font-size="44.8" fill="#000000" transform="matrix(1.00, 0.00, -0.00, -1.00, 452.7, 13.0)">м</text><text xml:space="preserve" font-family="AvenirNext-Regular" font-size="44.8" fill="#000000" transform="matrix(1.00, 0.00, -0.00, -1.00, 483.8, 13.0)"> </text><text xml:space="preserve" font-family="AvenirNext-Regular" font-size="44.8" fill="#000000" transform="matrix(1.00, 0.00, -0.00, -1.00, 495.0, 13.0)">з</text><text xml:space="preserve" font-family="AvenirNext-Regular" font-size="44.8" fill="#000000" transform="matrix(1.00, 0.00, -0.00, -1.00, 515.7, 13.0)">а</text><text xml:space="preserve" font-family="AvenirNext-Regular" font-size="44.8" fill="#000000" transform="matrix(1.00, 0.00, -0.00, -1.00, 539.7, 13.0)"> </text><text xml:space="preserve" font-family="AvenirNext-Regular" font-size="44.8" fill="#000000" transform="matrix(1.00, 0.00, -0.00, -1.00, 550.9, 13.0)">S</text><text xml:space="preserve" font-family="AvenirNext-Regular" font-size="44.8" fill="#000000" transform="matrix(1.00, 0.00, -0.00, -1.00, 576.1, 13.0)">E</text><text xml:space="preserve" font-family="AvenirNext-Regular" font-size="44.8" fill="#000000" transform="matrix(1.00, 0.00, -0.00, -1.00, 602.7, 13.0)">O</text><text xml:space="preserve" font-family="AvenirNext-Regular" font-size="44.8" fill="#000000" transform="matrix(1.00, 0.00, -0.00, -1.00, 640.7, 13.0)"> </text><text xml:space="preserve" font-family="AvenirNext-Regular" font-size="44.8" fill="#000000" transform="matrix(1.00, 0.00, -0.00, -1.00, 651.9, 13.0)">и</text><text xml:space="preserve" font-family="AvenirNext-Regular" font-size="44.8" fill="#000000" transform="matrix(1.00, 0.00, -0.00, -1.00, 678.8, 13.0)"> </text><text xml:space="preserve" font-family="AvenirNext-Regular" font-size="44.8" fill="#000000" transform="matrix(1.00, 0.00, -0.00, -1.00, 690.0, 13.0)">g</text><text xml:space="preserve" font-family="AvenirNext-Regular" font-size="44.8" fill="#000000" transform="matrix(1.00, 0.00, -0.00, -1.00, 718.3, 13.0)">o</text><text xml:space="preserve" font-family="AvenirNext-Regular" font-size="44.8" fill="#000000" transform="matrix(1.00, 0.00, -0.00, -1.00, 745.7, 13.0)">o</text><text xml:space="preserve" font-family="AvenirNext-Regular" font-size="44.8" fill="#000000" transform="matrix(1.00, 0.00, -0.00, -1.00, 773.0, 13.0)">g</text><text xml:space="preserve" font-family="AvenirNext-Regular" font-size="44.8" fill="#000000" transform="matrix(1.00, 0.00, -0.00, -1.00, 801.3, 13.0)">l</text><text xml:space="preserve" font-family="AvenirNext-Regular" font-size="44.8" fill="#000000" transform="matrix(1.00, 0.00, -0.00, -1.00, 812.6, 13.0)">e</text></g></svg>