<?xml version="1.0" encoding="UTF-8" standalone="no"?><svg xmlns="http://www.w3.org/2000/svg" xmlns:xlink="http://www.w3.org/1999/xlink" clip-rule="evenodd" stroke-miterlimit="4.00" viewBox="0 0 866 89"><desc>SVG generated by Keynote</desc><defs></defs><g transform="matrix(1.00, 0.00, -0.00, -1.00, 0.0, 89.0)"><text xml:space="preserve" font-family="AvenirNext-Regular" font-size="17.3" fill="#000000" transform="matrix(1.00, 0.00, -0.00, -1.00, 0.0, 71.4)">•</text><text xml:space="preserve" font-family="AvenirNext-Regular" font-size="23.0" fill="#000000" transform="matrix(1.00, 0.00, -0.00, -1.00, 17.0, 70.0)">С</text><text xml:space="preserve" font-family="AvenirNext-Regular" font-size="23.0" fill="#000000" transform="matrix(1.00, 0.00, -0.00, -1.00, 33.6, 70.0)"> </text><text xml:space="preserve" font-family="AvenirNext-Regular" font-size="23.0" fill="#000000" transform="matrix(1.00, 0.00, -0.00, -1.00, 39.3, 70.0)">п</text><text xml:space="preserve" font-family="AvenirNext-Regular" font-size="23.0" fill="#000000" transform="matrix(1.00, 0.00, -0.00, -1.00, 52.4, 70.0)">о</text><text xml:space="preserve" font-family="AvenirNext-Regular" font-size="23.0" fill="#000000" transform="matrix(1.00, 0.00, -0.00, -1.00, 66.5, 70.0)">-</text><text xml:space="preserve" font-family="AvenirNext-Regular" font-size="23.0" fill="#000000" transform="matrix(1.00, 0.00, -0.00, -1.00, 73.9, 70.0)">м</text><text xml:space="preserve" font-family="AvenirNext-Regular" font-size="23.0" fill="#000000" transform="matrix(1.00, 0.00, -0.00, -1.00, 89.9, 70.0)">а</text><text xml:space="preserve" font-family="AvenirNext-Regular" font-size="23.0" fill="#000000" transform="matrix(1.00, 0.00, -0.00, -1.00, 102.2, 70.0)">л</text><text xml:space="preserve" font-family="AvenirNext-Regular" font-size="23.0" fill="#000000" transform="matrix(1.00, 0.00, -0.00, -1.00, 113.6, 70.0)">к</text><text xml:space="preserve" font-family="AvenirNext-Regular" font-size="23.0" fill="#000000" transform="matrix(1.00, 0.00, -0.00, -1.00, 126.1, 70.0)">о</text><text xml:space="preserve" font-family="AvenirNext-Regular" font-size="23.0" fill="#000000" transform="matrix(1.00, 0.00, -0.00, -1.00, 140.2, 70.0)"> </text><text xml:space="preserve" font-family="AvenirNext-Regular" font-size="23.0" fill="#000000" transform="matrix(1.00, 0.00, -0.00, -1.00, 146.0, 70.0)">т</text><text xml:space="preserve" font-family="AvenirNext-Regular" font-size="23.0" fill="#000000" transform="matrix(1.00, 0.00, -0.00, -1.00, 155.9, 70.0)">е</text><text xml:space="preserve" font-family="AvenirNext-Regular" font-size="23.0" fill="#000000" transform="matrix(1.00, 0.00, -0.00, -1.00, 169.1, 70.0)">ж</text><text xml:space="preserve" font-family="AvenirNext-Regular" font-size="23.0" fill="#000000" transform="matrix(1.00, 0.00, -0.00, -1.00, 187.9, 70.0)">е</text><text xml:space="preserve" font-family="AvenirNext-Regular" font-size="23.0" fill="#000000" transform="matrix(1.00, 0.00, -0.00, -1.00, 201.1, 70.0)">с</text><text xml:space="preserve" font-family="AvenirNext-Regular" font-size="23.0" fill="#000000" transform="matrix(1.00, 0.00, -0.00, -1.00, 212.6, 70.0)">т</text><text xml:space="preserve" font-family="AvenirNext-Regular" font-size="23.0" fill="#000000" transform="matrix(1.00, 0.00, -0.00, -1.00, 222.5, 70.0)"> </text><text xml:space="preserve" font-family="AvenirNext-Regular" font-size="23.0" fill="#000000" transform="matrix(1.00, 0.00, -0.00, -1.00, 228.3, 70.0)">е</text><text xml:space="preserve" font-family="AvenirNext-Regular" font-size="23.0" fill="#000000" transform="matrix(1.00, 0.00, -0.00, -1.00, 241.5, 70.0)"> </text><text xml:space="preserve" font-family="AvenirNext-Regular" font-size="23.0" fill="#000000" transform="matrix(1.00, 0.00, -0.00, -1.00, 247.2, 70.0)">d</text><text xml:space="preserve" font-family="AvenirNext-Regular" font-size="23.0" fill="#000000" transform="matrix(1.00, 0.00, -0.00, -1.00, 261.9, 70.0)">e</text><text xml:space="preserve" font-family="AvenirNext-Regular" font-size="23.0" fill="#000000" transform="matrix(1.00, 0.00, -0.00, -1.00, 275.1, 70.0)">s</text><text xml:space="preserve" font-family="AvenirNext-Regular" font-size="23.0" fill="#000000" transform="matrix(1.00, 0.00, -0.00, -1.00, 285.3, 70.0)">c</text><text xml:space="preserve" font-family="AvenirNext-Regular" font-size="23.0" fill="#000000" transform="matrix(1.00, 0.00, -0.00, -1.00, 296.8, 70.0)">r</text><text xml:space="preserve" font-family="AvenirNext-Regular" font-size="23.0" fill="#000000" transform="matrix(1.00, 0.00, -0.00, -1.00, 305.1, 70.0)">i</text><text xml:space="preserve" font-family="AvenirNext-Regular" font-size="23.0" fill="#000000" transform="matrix(1.00, 0.00, -0.00, -1.00, 310.9, 70.0)">p</text><text xml:space="preserve" font-family="AvenirNext-Regular" font-size="23.0" fill="#000000" transform="matrix(1.00, 0.00, -0.00, -1.00, 325.5, 70.0)">t</text><text xml:space="preserve" font-family="AvenirNext-Regular" font-size="23.0" fill="#000000" transform="matrix(1.00, 0.00, -0.00, -1.00, 332.8, 70.0)">i</text><text xml:space="preserve" font-family="AvenirNext-Regular" font-size="23.0" fill="#000000" transform="matrix(1.00, 0.00, -0.00, -1.00, 338.6, 70.0)">o</text><text xml:space="preserve" font-family="AvenirNext-Regular" font-size="23.0" fill="#000000" transform="matrix(1.00, 0.00, -0.00, -1.00, 352.6, 70.0)">n</text><text xml:space="preserve" font-family="AvenirNext-Regular" font-size="23.0" fill="#000000" transform="matrix(1.00, 0.00, -0.00, -1.00, 366.0, 70.0)"> </text><text xml:space="preserve" font-family="AvenirNext-Regular" font-size="23.0" fill="#000000" transform="matrix(1.00, 0.00, -0.00, -1.00, 371.8, 70.0)">м</text><text xml:space="preserve" font-family="AvenirNext-Regular" font-size="23.0" fill="#000000" transform="matrix(1.00, 0.00, -0.00, -1.00, 387.8, 70.0)">е</text><text xml:space="preserve" font-family="AvenirNext-Regular" font-size="23.0" fill="#000000" transform="matrix(1.00, 0.00, -0.00, -1.00, 401.0, 70.0)">т</text><text xml:space="preserve" font-family="AvenirNext-Regular" font-size="23.0" fill="#000000" transform="matrix(1.00, 0.00, -0.00, -1.00, 410.9, 70.0)">а</text><text xml:space="preserve" font-family="AvenirNext-Regular" font-size="23.0" fill="#000000" transform="matrix(1.00, 0.00, -0.00, -1.00, 423.2, 70.0)"> </text><text xml:space="preserve" font-family="AvenirNext-Regular" font-size="23.0" fill="#000000" transform="matrix(1.00, 0.00, -0.00, -1.00, 429.0, 70.0)">т</text><text xml:space="preserve" font-family="AvenirNext-Regular" font-size="23.0" fill="#000000" transform="matrix(1.00, 0.00, -0.00, -1.00, 438.9, 70.0)">а</text><text xml:space="preserve" font-family="AvenirNext-Regular" font-size="23.0" fill="#000000" transform="matrix(1.00, 0.00, -0.00, -1.00, 451.2, 70.0)">г</text><text xml:space="preserve" font-family="AvenirNext-Regular" font-size="23.0" fill="#000000" transform="matrix(1.00, 0.00, -0.00, -1.00, 460.2, 70.0)">а</text><text xml:space="preserve" font-family="AvenirNext-Regular" font-size="23.0" fill="#000000" transform="matrix(1.00, 0.00, -0.00, -1.00, 472.5, 70.0)">,</text><text xml:space="preserve" font-family="AvenirNext-Regular" font-size="23.0" fill="#000000" transform="matrix(1.00, 0.00, -0.00, -1.00, 477.8, 70.0)"> </text><text xml:space="preserve" font-family="AvenirNext-Regular" font-size="23.0" fill="#000000" transform="matrix(1.00, 0.00, -0.00, -1.00, 483.5, 70.0)">н</text><text xml:space="preserve" font-family="AvenirNext-Regular" font-size="23.0" fill="#000000" transform="matrix(1.00, 0.00, -0.00, -1.00, 496.8, 70.0)">о</text><text xml:space="preserve" font-family="AvenirNext-Regular" font-size="23.0" fill="#000000" transform="matrix(1.00, 0.00, -0.00, -1.00, 510.8, 70.0)"> </text><text xml:space="preserve" font-family="AvenirNext-Regular" font-size="23.0" fill="#000000" transform="matrix(1.00, 0.00, -0.00, -1.00, 516.6, 70.0)">п</text><text xml:space="preserve" font-family="AvenirNext-Regular" font-size="23.0" fill="#000000" transform="matrix(1.00, 0.00, -0.00, -1.00, 529.7, 70.0)">р</text><text xml:space="preserve" font-family="AvenirNext-Regular" font-size="23.0" fill="#000000" transform="matrix(1.00, 0.00, -0.00, -1.00, 544.3, 70.0)">и</text><text xml:space="preserve" font-family="AvenirNext-Regular" font-size="23.0" fill="#000000" transform="matrix(1.00, 0.00, -0.00, -1.00, 558.1, 70.0)"> </text><text xml:space="preserve" font-family="AvenirNext-Regular" font-size="23.0" fill="#000000" transform="matrix(1.00, 0.00, -0.00, -1.00, 563.9, 70.0)">в</text><text xml:space="preserve" font-family="AvenirNext-Regular" font-size="23.0" fill="#000000" transform="matrix(1.00, 0.00, -0.00, -1.00, 576.3, 70.0)">с</text><text xml:space="preserve" font-family="AvenirNext-Regular" font-size="23.0" fill="#000000" transform="matrix(1.00, 0.00, -0.00, -1.00, 587.8, 70.0)">и</text><text xml:space="preserve" font-family="AvenirNext-Regular" font-size="23.0" fill="#000000" transform="matrix(1.00, 0.00, -0.00, -1.00, 601.6, 70.0)">ч</text><text xml:space="preserve" font-family="AvenirNext-Regular" font-size="23.0" fill="#000000" transform="matrix(1.00, 0.00, -0.00, -1.00, 613.5, 70.0)">к</text><text xml:space="preserve" font-family="AvenirNext-Regular" font-size="23.0" fill="#000000" transform="matrix(1.00, 0.00, -0.00, -1.00, 626.0, 70.0)">и</text><text xml:space="preserve" font-family="AvenirNext-Regular" font-size="23.0" fill="#000000" transform="matrix(1.00, 0.00, -0.00, -1.00, 639.8, 70.0)"> </text><text xml:space="preserve" font-family="AvenirNext-Regular" font-size="23.0" fill="#000000" transform="matrix(1.00, 0.00, -0.00, -1.00, 645.6, 70.0)">п</text><text xml:space="preserve" font-family="AvenirNext-Regular" font-size="23.0" fill="#000000" transform="matrix(1.00, 0.00, -0.00, -1.00, 658.7, 70.0)">о</text><text xml:space="preserve" font-family="AvenirNext-Regular" font-size="23.0" fill="#000000" transform="matrix(1.00, 0.00, -0.00, -1.00, 672.7, 70.0)">л</text><text xml:space="preserve" font-family="AvenirNext-Regular" font-size="23.0" fill="#000000" transform="matrix(1.00, 0.00, -0.00, -1.00, 684.2, 70.0)">о</text><text xml:space="preserve" font-family="AvenirNext-Regular" font-size="23.0" fill="#000000" transform="matrix(1.00, 0.00, -0.00, -1.00, 698.3, 70.0)">ж</text><text xml:space="preserve" font-family="AvenirNext-Regular" font-size="23.0" fill="#000000" transform="matrix(1.00, 0.00, -0.00, -1.00, 717.1, 70.0)">е</text><text xml:space="preserve" font-family="AvenirNext-Regular" font-size="23.0" fill="#000000" transform="matrix(1.00, 0.00, -0.00, -1.00, 730.2, 70.0)">н</text><text xml:space="preserve" font-family="AvenirNext-Regular" font-size="23.0" fill="#000000" transform="matrix(1.00, 0.00, -0.00, -1.00, 743.5, 70.0)">и</text><text xml:space="preserve" font-family="AvenirNext-Regular" font-size="23.0" fill="#000000" transform="matrix(1.00, 0.00, -0.00, -1.00, 757.3, 70.0)">я</text><text xml:space="preserve" font-family="AvenirNext-Regular" font-size="23.0" fill="#000000" transform="matrix(1.00, 0.00, -0.00, -1.00, 769.7, 70.0)"> </text><text xml:space="preserve" font-family="AvenirNext-Regular" font-size="23.0" fill="#000000" transform="matrix(1.00, 0.00, -0.00, -1.00, 775.5, 70.0)">е</text><text xml:space="preserve" font-family="AvenirNext-Regular" font-size="23.0" fill="#000000" transform="matrix(1.00, 0.00, -0.00, -1.00, 788.7, 70.0)"> </text><text xml:space="preserve" font-family="AvenirNext-Regular" font-size="23.0" fill="#000000" transform="matrix(1.00, 0.00, -0.00, -1.00, 794.4, 70.0)">в</text><text xml:space="preserve" font-family="AvenirNext-Regular" font-size="23.0" fill="#000000" transform="matrix(1.00, 0.00, -0.00, -1.00, 806.9, 70.0)">а</text><text xml:space="preserve" font-family="AvenirNext-Regular" font-size="23.0" fill="#000000" transform="matrix(1.00, 0.00, -0.00, -1.00, 819.2, 70.0)">ж</text><text xml:space="preserve" font-family="AvenirNext-Regular" font-size="23.0" fill="#000000" transform="matrix(1.00, 0.00, -0.00, -1.00, 838.0, 70.0)">е</text><text xml:space="preserve" font-family="AvenirNext-Regular" font-size="23.0" fill="#000000" transform="matrix(1.00, 0.00, -0.00, -1.00, 851.2, 70.0)">н</text><text xml:space="preserve" font-family="AvenirNext-Regular" font-size="23.0" fill="#000000" transform="matrix(1.00, 0.00, -0.00, -1.00, 864.4, 70.0)"> </text><text xml:space="preserve" font-family="AvenirNext-Regular" font-size="23.0" fill="#000000" transform="matrix(1.00, 0.00, -0.00, -1.00, 17.0, 39.0)">и</text><text xml:space="preserve" font-family="AvenirNext-Regular" font-size="23.0" fill="#000000" transform="matrix(1.00, 0.00, -0.00, -1.00, 30.8, 39.0)"> </text><text xml:space="preserve" font-family="AvenirNext-Regular" font-size="23.0" fill="#000000" transform="matrix(1.00, 0.00, -0.00, -1.00, 36.6, 39.0)">о</text><text xml:space="preserve" font-family="AvenirNext-Regular" font-size="23.0" fill="#000000" transform="matrix(1.00, 0.00, -0.00, -1.00, 50.6, 39.0)">т</text><text xml:space="preserve" font-family="AvenirNext-Regular" font-size="23.0" fill="#000000" transform="matrix(1.00, 0.00, -0.00, -1.00, 60.6, 39.0)"> </text><text xml:space="preserve" font-family="AvenirNext-Regular" font-size="23.0" fill="#000000" transform="matrix(1.00, 0.00, -0.00, -1.00, 66.3, 39.0)">G</text><text xml:space="preserve" font-family="AvenirNext-Regular" font-size="23.0" fill="#000000" transform="matrix(1.00, 0.00, -0.00, -1.00, 84.3, 39.0)">o</text><text xml:space="preserve" font-family="AvenirNext-Regular" font-size="23.0" fill="#000000" transform="matrix(1.00, 0.00, -0.00, -1.00, 98.4, 39.0)">o</text><text xml:space="preserve" font-family="AvenirNext-Regular" font-size="23.0" fill="#000000" transform="matrix(1.00, 0.00, -0.00, -1.00, 112.4, 39.0)">g</text><text xml:space="preserve" font-family="AvenirNext-Regular" font-size="23.0" fill="#000000" transform="matrix(1.00, 0.00, -0.00, -1.00, 127.0, 39.0)">l</text><text xml:space="preserve" font-family="AvenirNext-Regular" font-size="23.0" fill="#000000" transform="matrix(1.00, 0.00, -0.00, -1.00, 132.8, 39.0)">e</text><text xml:space="preserve" font-family="AvenirNext-Regular" font-size="23.0" fill="#000000" transform="matrix(1.00, 0.00, -0.00, -1.00, 146.0, 39.0)"> </text><text xml:space="preserve" font-family="AvenirNext-Regular" font-size="23.0" fill="#000000" transform="matrix(1.00, 0.00, -0.00, -1.00, 151.7, 39.0)">с</text><text xml:space="preserve" font-family="AvenirNext-Regular" font-size="23.0" fill="#000000" transform="matrix(1.00, 0.00, -0.00, -1.00, 163.3, 39.0)">и</text><text xml:space="preserve" font-family="AvenirNext-Regular" font-size="23.0" fill="#000000" transform="matrix(1.00, 0.00, -0.00, -1.00, 177.1, 39.0)">л</text><text xml:space="preserve" font-family="AvenirNext-Regular" font-size="23.0" fill="#000000" transform="matrix(1.00, 0.00, -0.00, -1.00, 188.5, 39.0)">н</text><text xml:space="preserve" font-family="AvenirNext-Regular" font-size="23.0" fill="#000000" transform="matrix(1.00, 0.00, -0.00, -1.00, 201.8, 39.0)">о</text><text xml:space="preserve" font-family="AvenirNext-Regular" font-size="23.0" fill="#000000" transform="matrix(1.00, 0.00, -0.00, -1.00, 215.8, 39.0)"> </text><text xml:space="preserve" font-family="AvenirNext-Regular" font-size="23.0" fill="#000000" transform="matrix(1.00, 0.00, -0.00, -1.00, 221.6, 39.0)">п</text><text xml:space="preserve" font-family="AvenirNext-Regular" font-size="23.0" fill="#000000" transform="matrix(1.00, 0.00, -0.00, -1.00, 234.7, 39.0)">р</text><text xml:space="preserve" font-family="AvenirNext-Regular" font-size="23.0" fill="#000000" transform="matrix(1.00, 0.00, -0.00, -1.00, 249.3, 39.0)">е</text><text xml:space="preserve" font-family="AvenirNext-Regular" font-size="23.0" fill="#000000" transform="matrix(1.00, 0.00, -0.00, -1.00, 262.5, 39.0)">п</text><text xml:space="preserve" font-family="AvenirNext-Regular" font-size="23.0" fill="#000000" transform="matrix(1.00, 0.00, -0.00, -1.00, 275.5, 39.0)">о</text><text xml:space="preserve" font-family="AvenirNext-Regular" font-size="23.0" fill="#000000" transform="matrix(1.00, 0.00, -0.00, -1.00, 289.6, 39.0)">р</text><text xml:space="preserve" font-family="AvenirNext-Regular" font-size="23.0" fill="#000000" transform="matrix(1.00, 0.00, -0.00, -1.00, 304.2, 39.0)">ъ</text><text xml:space="preserve" font-family="AvenirNext-Regular" font-size="23.0" fill="#000000" transform="matrix(1.00, 0.00, -0.00, -1.00, 317.0, 39.0)">ч</text><text xml:space="preserve" font-family="AvenirNext-Regular" font-size="23.0" fill="#000000" transform="matrix(1.00, 0.00, -0.00, -1.00, 328.8, 39.0)">в</text><text xml:space="preserve" font-family="AvenirNext-Regular" font-size="23.0" fill="#000000" transform="matrix(1.00, 0.00, -0.00, -1.00, 341.3, 39.0)">а</text><text xml:space="preserve" font-family="AvenirNext-Regular" font-size="23.0" fill="#000000" transform="matrix(1.00, 0.00, -0.00, -1.00, 353.6, 39.0)">т</text><text xml:space="preserve" font-family="AvenirNext-Regular" font-size="23.0" fill="#000000" transform="matrix(1.00, 0.00, -0.00, -1.00, 363.5, 39.0)"> </text><text xml:space="preserve" font-family="AvenirNext-Regular" font-size="23.0" fill="#000000" transform="matrix(1.00, 0.00, -0.00, -1.00, 369.3, 39.0)">д</text><text xml:space="preserve" font-family="AvenirNext-Regular" font-size="23.0" fill="#000000" transform="matrix(1.00, 0.00, -0.00, -1.00, 381.8, 39.0)">а</text><text xml:space="preserve" font-family="AvenirNext-Regular" font-size="23.0" fill="#000000" transform="matrix(1.00, 0.00, -0.00, -1.00, 394.1, 39.0)"> </text><text xml:space="preserve" font-family="AvenirNext-Regular" font-size="23.0" fill="#000000" transform="matrix(1.00, 0.00, -0.00, -1.00, 399.9, 39.0)">с</text><text xml:space="preserve" font-family="AvenirNext-Regular" font-size="23.0" fill="#000000" transform="matrix(1.00, 0.00, -0.00, -1.00, 411.4, 39.0)">е</text><text xml:space="preserve" font-family="AvenirNext-Regular" font-size="23.0" fill="#000000" transform="matrix(1.00, 0.00, -0.00, -1.00, 424.6, 39.0)"> </text><text xml:space="preserve" font-family="AvenirNext-Regular" font-size="23.0" fill="#000000" transform="matrix(1.00, 0.00, -0.00, -1.00, 430.4, 39.0)">и</text><text xml:space="preserve" font-family="AvenirNext-Regular" font-size="23.0" fill="#000000" transform="matrix(1.00, 0.00, -0.00, -1.00, 444.2, 39.0)">з</text><text xml:space="preserve" font-family="AvenirNext-Regular" font-size="23.0" fill="#000000" transform="matrix(1.00, 0.00, -0.00, -1.00, 454.8, 39.0)">п</text><text xml:space="preserve" font-family="AvenirNext-Regular" font-size="23.0" fill="#000000" transform="matrix(1.00, 0.00, -0.00, -1.00, 467.9, 39.0)">о</text><text xml:space="preserve" font-family="AvenirNext-Regular" font-size="23.0" fill="#000000" transform="matrix(1.00, 0.00, -0.00, -1.00, 482.0, 39.0)">л</text><text xml:space="preserve" font-family="AvenirNext-Regular" font-size="23.0" fill="#000000" transform="matrix(1.00, 0.00, -0.00, -1.00, 493.4, 39.0)">з</text><text xml:space="preserve" font-family="AvenirNext-Regular" font-size="23.0" fill="#000000" transform="matrix(1.00, 0.00, -0.00, -1.00, 504.1, 39.0)">в</text><text xml:space="preserve" font-family="AvenirNext-Regular" font-size="23.0" fill="#000000" transform="matrix(1.00, 0.00, -0.00, -1.00, 516.6, 39.0)">а</text><text xml:space="preserve" font-family="AvenirNext-Regular" font-size="23.0" fill="#000000" transform="matrix(1.00, 0.00, -0.00, -1.00, 528.9, 39.0)"> </text><text xml:space="preserve" font-family="AvenirNext-Regular" font-size="23.0" fill="#000000" transform="matrix(1.00, 0.00, -0.00, -1.00, 534.6, 39.0)">р</text><text xml:space="preserve" font-family="AvenirNext-Regular" font-size="23.0" fill="#000000" transform="matrix(1.00, 0.00, -0.00, -1.00, 549.2, 39.0)">а</text><text xml:space="preserve" font-family="AvenirNext-Regular" font-size="23.0" fill="#000000" transform="matrix(1.00, 0.00, -0.00, -1.00, 561.6, 39.0)">з</text><text xml:space="preserve" font-family="AvenirNext-Regular" font-size="23.0" fill="#000000" transform="matrix(1.00, 0.00, -0.00, -1.00, 572.2, 39.0)">л</text><text xml:space="preserve" font-family="AvenirNext-Regular" font-size="23.0" fill="#000000" transform="matrix(1.00, 0.00, -0.00, -1.00, 583.7, 39.0)">и</text><text xml:space="preserve" font-family="AvenirNext-Regular" font-size="23.0" fill="#000000" transform="matrix(1.00, 0.00, -0.00, -1.00, 597.5, 39.0)">ч</text><text xml:space="preserve" font-family="AvenirNext-Regular" font-size="23.0" fill="#000000" transform="matrix(1.00, 0.00, -0.00, -1.00, 609.4, 39.0)">е</text><text xml:space="preserve" font-family="AvenirNext-Regular" font-size="23.0" fill="#000000" transform="matrix(1.00, 0.00, -0.00, -1.00, 622.5, 39.0)">н</text><text xml:space="preserve" font-family="AvenirNext-Regular" font-size="23.0" fill="#000000" transform="matrix(1.00, 0.00, -0.00, -1.00, 635.8, 39.0)"> </text><text xml:space="preserve" font-family="AvenirNext-Regular" font-size="23.0" fill="#000000" transform="matrix(1.00, 0.00, -0.00, -1.00, 641.5, 39.0)">и</text><text xml:space="preserve" font-family="AvenirNext-Regular" font-size="23.0" fill="#000000" transform="matrix(1.00, 0.00, -0.00, -1.00, 655.3, 39.0)"> </text><text xml:space="preserve" font-family="AvenirNext-Regular" font-size="23.0" fill="#000000" transform="matrix(1.00, 0.00, -0.00, -1.00, 661.1, 39.0)">к</text><text xml:space="preserve" font-family="AvenirNext-Regular" font-size="23.0" fill="#000000" transform="matrix(1.00, 0.00, -0.00, -1.00, 673.6, 39.0)">о</text><text xml:space="preserve" font-family="AvenirNext-Regular" font-size="23.0" fill="#000000" transform="matrix(1.00, 0.00, -0.00, -1.00, 687.7, 39.0)">р</text><text xml:space="preserve" font-family="AvenirNext-Regular" font-size="23.0" fill="#000000" transform="matrix(1.00, 0.00, -0.00, -1.00, 702.3, 39.0)">е</text><text xml:space="preserve" font-family="AvenirNext-Regular" font-size="23.0" fill="#000000" transform="matrix(1.00, 0.00, -0.00, -1.00, 715.5, 39.0)">к</text><text xml:space="preserve" font-family="AvenirNext-Regular" font-size="23.0" fill="#000000" transform="matrix(1.00, 0.00, -0.00, -1.00, 728.0, 39.0)">т</text><text xml:space="preserve" font-family="AvenirNext-Regular" font-size="23.0" fill="#000000" transform="matrix(1.00, 0.00, -0.00, -1.00, 737.9, 39.0)">е</text><text xml:space="preserve" font-family="AvenirNext-Regular" font-size="23.0" fill="#000000" transform="matrix(1.00, 0.00, -0.00, -1.00, 751.1, 39.0)">н</text><text xml:space="preserve" font-family="AvenirNext-Regular" font-size="23.0" fill="#000000" transform="matrix(1.00, 0.00, -0.00, -1.00, 764.4, 39.0)"> </text><text xml:space="preserve" font-family="AvenirNext-Regular" font-size="23.0" fill="#000000" transform="matrix(1.00, 0.00, -0.00, -1.00, 17.0, 8.0)">d</text><text xml:space="preserve" font-family="AvenirNext-Regular" font-size="23.0" fill="#000000" transform="matrix(1.00, 0.00, -0.00, -1.00, 31.7, 8.0)">e</text><text xml:space="preserve" font-family="AvenirNext-Regular" font-size="23.0" fill="#000000" transform="matrix(1.00, 0.00, -0.00, -1.00, 44.9, 8.0)">s</text><text xml:space="preserve" font-family="AvenirNext-Regular" font-size="23.0" fill="#000000" transform="matrix(1.00, 0.00, -0.00, -1.00, 55.1, 8.0)">c</text><text xml:space="preserve" font-family="AvenirNext-Regular" font-size="23.0" fill="#000000" transform="matrix(1.00, 0.00, -0.00, -1.00, 66.6, 8.0)">r</text><text xml:space="preserve" font-family="AvenirNext-Regular" font-size="23.0" fill="#000000" transform="matrix(1.00, 0.00, -0.00, -1.00, 74.9, 8.0)">i</text><text xml:space="preserve" font-family="AvenirNext-Regular" font-size="23.0" fill="#000000" transform="matrix(1.00, 0.00, -0.00, -1.00, 80.7, 8.0)">p</text><text xml:space="preserve" font-family="AvenirNext-Regular" font-size="23.0" fill="#000000" transform="matrix(1.00, 0.00, -0.00, -1.00, 95.3, 8.0)">t</text><text xml:space="preserve" font-family="AvenirNext-Regular" font-size="23.0" fill="#000000" transform="matrix(1.00, 0.00, -0.00, -1.00, 102.6, 8.0)">i</text><text xml:space="preserve" font-family="AvenirNext-Regular" font-size="23.0" fill="#000000" transform="matrix(1.00, 0.00, -0.00, -1.00, 108.4, 8.0)">o</text><text xml:space="preserve" font-family="AvenirNext-Regular" font-size="23.0" fill="#000000" transform="matrix(1.00, 0.00, -0.00, -1.00, 122.4, 8.0)">n</text><text xml:space="preserve" font-family="AvenirNext-Regular" font-size="23.0" fill="#000000" transform="matrix(1.00, 0.00, -0.00, -1.00, 135.8, 8.0)"> </text><text xml:space="preserve" font-family="AvenirNext-Regular" font-size="23.0" fill="#000000" transform="matrix(1.00, 0.00, -0.00, -1.00, 141.6, 8.0)">з</text><text xml:space="preserve" font-family="AvenirNext-Regular" font-size="23.0" fill="#000000" transform="matrix(1.00, 0.00, -0.00, -1.00, 152.2, 8.0)">а</text><text xml:space="preserve" font-family="AvenirNext-Regular" font-size="23.0" fill="#000000" transform="matrix(1.00, 0.00, -0.00, -1.00, 164.5, 8.0)"> </text><text xml:space="preserve" font-family="AvenirNext-Regular" font-size="23.0" fill="#000000" transform="matrix(1.00, 0.00, -0.00, -1.00, 170.3, 8.0)">в</text><text xml:space="preserve" font-family="AvenirNext-Regular" font-size="23.0" fill="#000000" transform="matrix(1.00, 0.00, -0.00, -1.00, 182.8, 8.0)">с</text><text xml:space="preserve" font-family="AvenirNext-Regular" font-size="23.0" fill="#000000" transform="matrix(1.00, 0.00, -0.00, -1.00, 194.3, 8.0)">я</text><text xml:space="preserve" font-family="AvenirNext-Regular" font-size="23.0" fill="#000000" transform="matrix(1.00, 0.00, -0.00, -1.00, 206.7, 8.0)">к</text><text xml:space="preserve" font-family="AvenirNext-Regular" font-size="23.0" fill="#000000" transform="matrix(1.00, 0.00, -0.00, -1.00, 219.2, 8.0)">а</text><text xml:space="preserve" font-family="AvenirNext-Regular" font-size="23.0" fill="#000000" transform="matrix(1.00, 0.00, -0.00, -1.00, 231.5, 8.0)"> </text><text xml:space="preserve" font-family="AvenirNext-Regular" font-size="23.0" fill="#000000" transform="matrix(1.00, 0.00, -0.00, -1.00, 237.3, 8.0)">с</text><text xml:space="preserve" font-family="AvenirNext-Regular" font-size="23.0" fill="#000000" transform="matrix(1.00, 0.00, -0.00, -1.00, 248.8, 8.0)">т</text><text xml:space="preserve" font-family="AvenirNext-Regular" font-size="23.0" fill="#000000" transform="matrix(1.00, 0.00, -0.00, -1.00, 258.7, 8.0)">р</text><text xml:space="preserve" font-family="AvenirNext-Regular" font-size="23.0" fill="#000000" transform="matrix(1.00, 0.00, -0.00, -1.00, 273.4, 8.0)">а</text><text xml:space="preserve" font-family="AvenirNext-Regular" font-size="23.0" fill="#000000" transform="matrix(1.00, 0.00, -0.00, -1.00, 285.7, 8.0)">н</text><text xml:space="preserve" font-family="AvenirNext-Regular" font-size="23.0" fill="#000000" transform="matrix(1.00, 0.00, -0.00, -1.00, 298.9, 8.0)">и</text><text xml:space="preserve" font-family="AvenirNext-Regular" font-size="23.0" fill="#000000" transform="matrix(1.00, 0.00, -0.00, -1.00, 312.7, 8.0)">ц</text><text xml:space="preserve" font-family="AvenirNext-Regular" font-size="23.0" fill="#000000" transform="matrix(1.00, 0.00, -0.00, -1.00, 325.9, 8.0)">а</text><text xml:space="preserve" font-family="AvenirNext-Regular" font-size="23.0" fill="#000000" transform="matrix(1.00, 0.00, -0.00, -1.00, 338.2, 8.0)"> </text><text xml:space="preserve" font-family="AvenirNext-Regular" font-size="23.0" fill="#000000" transform="matrix(1.00, 0.00, -0.00, -1.00, 343.9, 8.0)">о</text><text xml:space="preserve" font-family="AvenirNext-Regular" font-size="23.0" fill="#000000" transform="matrix(1.00, 0.00, -0.00, -1.00, 358.0, 8.0)">т</text><text xml:space="preserve" font-family="AvenirNext-Regular" font-size="23.0" fill="#000000" transform="matrix(1.00, 0.00, -0.00, -1.00, 367.9, 8.0)"> </text><text xml:space="preserve" font-family="AvenirNext-Regular" font-size="23.0" fill="#000000" transform="matrix(1.00, 0.00, -0.00, -1.00, 373.7, 8.0)">д</text><text xml:space="preserve" font-family="AvenirNext-Regular" font-size="23.0" fill="#000000" transform="matrix(1.00, 0.00, -0.00, -1.00, 386.2, 8.0)">а</text><text xml:space="preserve" font-family="AvenirNext-Regular" font-size="23.0" fill="#000000" transform="matrix(1.00, 0.00, -0.00, -1.00, 398.5, 8.0)">д</text><text xml:space="preserve" font-family="AvenirNext-Regular" font-size="23.0" fill="#000000" transform="matrix(1.00, 0.00, -0.00, -1.00, 411.1, 8.0)">е</text><text xml:space="preserve" font-family="AvenirNext-Regular" font-size="23.0" fill="#000000" transform="matrix(1.00, 0.00, -0.00, -1.00, 424.3, 8.0)">н</text><text xml:space="preserve" font-family="AvenirNext-Regular" font-size="23.0" fill="#000000" transform="matrix(1.00, 0.00, -0.00, -1.00, 437.5, 8.0)"> </text><text xml:space="preserve" font-family="AvenirNext-Regular" font-size="23.0" fill="#000000" transform="matrix(1.00, 0.00, -0.00, -1.00, 443.3, 8.0)">у</text><text xml:space="preserve" font-family="AvenirNext-Regular" font-size="23.0" fill="#000000" transform="matrix(1.00, 0.00, -0.00, -1.00, 454.5, 8.0)">е</text><text xml:space="preserve" font-family="AvenirNext-Regular" font-size="23.0" fill="#000000" transform="matrix(1.00, 0.00, -0.00, -1.00, 467.7, 8.0)">б</text><text xml:space="preserve" font-family="AvenirNext-Regular" font-size="23.0" fill="#000000" transform="matrix(1.00, 0.00, -0.00, -1.00, 481.5, 8.0)">с</text><text xml:space="preserve" font-family="AvenirNext-Regular" font-size="23.0" fill="#000000" transform="matrix(1.00, 0.00, -0.00, -1.00, 493.0, 8.0)">а</text><text xml:space="preserve" font-family="AvenirNext-Regular" font-size="23.0" fill="#000000" transform="matrix(1.00, 0.00, -0.00, -1.00, 505.3, 8.0)">й</text><text xml:space="preserve" font-family="AvenirNext-Regular" font-size="23.0" fill="#000000" transform="matrix(1.00, 0.00, -0.00, -1.00, 519.1, 8.0)">т</text></g></svg>