<?xml version="1.0" encoding="UTF-8" standalone="no"?><svg xmlns="http://www.w3.org/2000/svg" xmlns:xlink="http://www.w3.org/1999/xlink" clip-rule="evenodd" stroke-miterlimit="4.00" viewBox="0 0 857 58"><desc>SVG generated by Keynote</desc><defs></defs><g transform="matrix(1.00, 0.00, -0.00, -1.00, 0.0, 58.0)"><text xml:space="preserve" font-family="AvenirNext-Regular" font-size="17.3" fill="#000000" transform="matrix(1.00, 0.00, -0.00, -1.00, 0.0, 40.4)">•</text><text xml:space="preserve" font-family="AvenirNext-Regular" font-size="23.0" fill="#000000" transform="matrix(1.00, 0.00, -0.00, -1.00, 17.0, 39.0)">G</text><text xml:space="preserve" font-family="AvenirNext-Regular" font-size="23.0" fill="#000000" transform="matrix(1.00, 0.00, -0.00, -1.00, 34.9, 39.0)">o</text><text xml:space="preserve" font-family="AvenirNext-Regular" font-size="23.0" fill="#000000" transform="matrix(1.00, 0.00, -0.00, -1.00, 49.0, 39.0)">o</text><text xml:space="preserve" font-family="AvenirNext-Regular" font-size="23.0" fill="#000000" transform="matrix(1.00, 0.00, -0.00, -1.00, 63.1, 39.0)">g</text><text xml:space="preserve" font-family="AvenirNext-Regular" font-size="23.0" fill="#000000" transform="matrix(1.00, 0.00, -0.00, -1.00, 77.7, 39.0)">l</text><text xml:space="preserve" font-family="AvenirNext-Regular" font-size="23.0" fill="#000000" transform="matrix(1.00, 0.00, -0.00, -1.00, 83.5, 39.0)">e</text><text xml:space="preserve" font-family="AvenirNext-Regular" font-size="23.0" fill="#000000" transform="matrix(1.00, 0.00, -0.00, -1.00, 96.6, 39.0)"> </text><text xml:space="preserve" font-family="AvenirNext-Regular" font-size="23.0" fill="#000000" transform="matrix(1.00, 0.00, -0.00, -1.00, 102.4, 39.0)">i</text><text xml:space="preserve" font-family="AvenirNext-Regular" font-size="23.0" fill="#000000" transform="matrix(1.00, 0.00, -0.00, -1.00, 108.2, 39.0)">s</text><text xml:space="preserve" font-family="AvenirNext-Regular" font-size="23.0" fill="#000000" transform="matrix(1.00, 0.00, -0.00, -1.00, 118.4, 39.0)"> </text><text xml:space="preserve" font-family="AvenirNext-Regular" font-size="23.0" fill="#000000" transform="matrix(1.00, 0.00, -0.00, -1.00, 124.2, 39.0)">v</text><text xml:space="preserve" font-family="AvenirNext-Regular" font-size="23.0" fill="#000000" transform="matrix(1.00, 0.00, -0.00, -1.00, 135.4, 39.0)">e</text><text xml:space="preserve" font-family="AvenirNext-Regular" font-size="23.0" fill="#000000" transform="matrix(1.00, 0.00, -0.00, -1.00, 148.6, 39.0)">r</text><text xml:space="preserve" font-family="AvenirNext-Regular" font-size="23.0" fill="#000000" transform="matrix(1.00, 0.00, -0.00, -1.00, 156.9, 39.0)">y</text><text xml:space="preserve" font-family="AvenirNext-Regular" font-size="23.0" fill="#000000" transform="matrix(1.00, 0.00, -0.00, -1.00, 168.1, 39.0)"> </text><text xml:space="preserve" font-family="AvenirNext-Regular" font-size="23.0" fill="#000000" transform="matrix(1.00, 0.00, -0.00, -1.00, 173.9, 39.0)">c</text><text xml:space="preserve" font-family="AvenirNext-Regular" font-size="23.0" fill="#000000" transform="matrix(1.00, 0.00, -0.00, -1.00, 185.4, 39.0)">l</text><text xml:space="preserve" font-family="AvenirNext-Regular" font-size="23.0" fill="#000000" transform="matrix(1.00, 0.00, -0.00, -1.00, 191.2, 39.0)">e</text><text xml:space="preserve" font-family="AvenirNext-Regular" font-size="23.0" fill="#000000" transform="matrix(1.00, 0.00, -0.00, -1.00, 204.2, 39.0)">a</text><text xml:space="preserve" font-family="AvenirNext-Regular" font-size="23.0" fill="#000000" transform="matrix(1.00, 0.00, -0.00, -1.00, 216.5, 39.0)">r</text><text xml:space="preserve" font-family="AvenirNext-Regular" font-size="23.0" fill="#000000" transform="matrix(1.00, 0.00, -0.00, -1.00, 224.8, 39.0)"> </text><text xml:space="preserve" font-family="AvenirNext-Regular" font-size="23.0" fill="#000000" transform="matrix(1.00, 0.00, -0.00, -1.00, 230.6, 39.0)">a</text><text xml:space="preserve" font-family="AvenirNext-Regular" font-size="23.0" fill="#000000" transform="matrix(1.00, 0.00, -0.00, -1.00, 242.9, 39.0)">b</text><text xml:space="preserve" font-family="AvenirNext-Regular" font-size="23.0" fill="#000000" transform="matrix(1.00, 0.00, -0.00, -1.00, 257.6, 39.0)">o</text><text xml:space="preserve" font-family="AvenirNext-Regular" font-size="23.0" fill="#000000" transform="matrix(1.00, 0.00, -0.00, -1.00, 271.7, 39.0)">u</text><text xml:space="preserve" font-family="AvenirNext-Regular" font-size="23.0" fill="#000000" transform="matrix(1.00, 0.00, -0.00, -1.00, 285.0, 39.0)">t</text><text xml:space="preserve" font-family="AvenirNext-Regular" font-size="23.0" fill="#000000" transform="matrix(1.00, 0.00, -0.00, -1.00, 292.4, 39.0)"> </text><text xml:space="preserve" font-family="AvenirNext-Regular" font-size="23.0" fill="#000000" transform="matrix(1.00, 0.00, -0.00, -1.00, 298.1, 39.0)">m</text><text xml:space="preserve" font-family="AvenirNext-Regular" font-size="23.0" fill="#000000" transform="matrix(1.00, 0.00, -0.00, -1.00, 318.5, 39.0)">e</text><text xml:space="preserve" font-family="AvenirNext-Regular" font-size="23.0" fill="#000000" transform="matrix(1.00, 0.00, -0.00, -1.00, 331.6, 39.0)">t</text><text xml:space="preserve" font-family="AvenirNext-Regular" font-size="23.0" fill="#000000" transform="matrix(1.00, 0.00, -0.00, -1.00, 338.9, 39.0)">a</text><text xml:space="preserve" font-family="AvenirNext-Regular" font-size="23.0" fill="#000000" transform="matrix(1.00, 0.00, -0.00, -1.00, 351.2, 39.0)"> </text><text xml:space="preserve" font-family="AvenirNext-Regular" font-size="23.0" fill="#000000" transform="matrix(1.00, 0.00, -0.00, -1.00, 357.0, 39.0)">k</text><text xml:space="preserve" font-family="AvenirNext-Regular" font-size="23.0" fill="#000000" transform="matrix(1.00, 0.00, -0.00, -1.00, 368.3, 39.0)">e</text><text xml:space="preserve" font-family="AvenirNext-Regular" font-size="23.0" fill="#000000" transform="matrix(1.00, 0.00, -0.00, -1.00, 381.5, 39.0)">y</text><text xml:space="preserve" font-family="AvenirNext-Regular" font-size="23.0" fill="#000000" transform="matrix(1.00, 0.00, -0.00, -1.00, 392.8, 39.0)">w</text><text xml:space="preserve" font-family="AvenirNext-Regular" font-size="23.0" fill="#000000" transform="matrix(1.00, 0.00, -0.00, -1.00, 409.9, 39.0)">o</text><text xml:space="preserve" font-family="AvenirNext-Regular" font-size="23.0" fill="#000000" transform="matrix(1.00, 0.00, -0.00, -1.00, 424.0, 39.0)">r</text><text xml:space="preserve" font-family="AvenirNext-Regular" font-size="23.0" fill="#000000" transform="matrix(1.00, 0.00, -0.00, -1.00, 431.9, 39.0)">d</text><text xml:space="preserve" font-family="AvenirNext-Regular" font-size="23.0" fill="#000000" transform="matrix(1.00, 0.00, -0.00, -1.00, 446.6, 39.0)">s</text><text xml:space="preserve" font-family="AvenirNext-Regular" font-size="23.0" fill="#000000" transform="matrix(1.00, 0.00, -0.00, -1.00, 456.8, 39.0)"> </text><text xml:space="preserve" font-family="AvenirNext-Regular" font-size="23.0" fill="#000000" transform="matrix(1.00, 0.00, -0.00, -1.00, 462.6, 39.0)">(</text><text xml:space="preserve" font-family="AvenirNext-Regular" font-size="23.0" fill="#000000" transform="matrix(1.00, 0.00, -0.00, -1.00, 469.5, 39.0)">o</text><text xml:space="preserve" font-family="AvenirNext-Regular" font-size="23.0" fill="#000000" transform="matrix(1.00, 0.00, -0.00, -1.00, 483.6, 39.0)">r</text><text xml:space="preserve" font-family="AvenirNext-Regular" font-size="23.0" fill="#000000" transform="matrix(1.00, 0.00, -0.00, -1.00, 491.9, 39.0)"> </text><text xml:space="preserve" font-family="AvenirNext-Regular" font-size="23.0" fill="#000000" transform="matrix(1.00, 0.00, -0.00, -1.00, 497.6, 39.0)">k</text><text xml:space="preserve" font-family="AvenirNext-Regular" font-size="23.0" fill="#000000" transform="matrix(1.00, 0.00, -0.00, -1.00, 509.0, 39.0)">e</text><text xml:space="preserve" font-family="AvenirNext-Regular" font-size="23.0" fill="#000000" transform="matrix(1.00, 0.00, -0.00, -1.00, 522.1, 39.0)">y</text><text xml:space="preserve" font-family="AvenirNext-Regular" font-size="23.0" fill="#000000" transform="matrix(1.00, 0.00, -0.00, -1.00, 533.4, 39.0)">w</text><text xml:space="preserve" font-family="AvenirNext-Regular" font-size="23.0" fill="#000000" transform="matrix(1.00, 0.00, -0.00, -1.00, 550.6, 39.0)">o</text><text xml:space="preserve" font-family="AvenirNext-Regular" font-size="23.0" fill="#000000" transform="matrix(1.00, 0.00, -0.00, -1.00, 564.6, 39.0)">r</text><text xml:space="preserve" font-family="AvenirNext-Regular" font-size="23.0" fill="#000000" transform="matrix(1.00, 0.00, -0.00, -1.00, 572.5, 39.0)">d</text><text xml:space="preserve" font-family="AvenirNext-Regular" font-size="23.0" fill="#000000" transform="matrix(1.00, 0.00, -0.00, -1.00, 587.2, 39.0)"> </text><text xml:space="preserve" font-family="AvenirNext-Regular" font-size="23.0" fill="#000000" transform="matrix(1.00, 0.00, -0.00, -1.00, 593.0, 39.0)">m</text><text xml:space="preserve" font-family="AvenirNext-Regular" font-size="23.0" fill="#000000" transform="matrix(1.00, 0.00, -0.00, -1.00, 613.3, 39.0)">e</text><text xml:space="preserve" font-family="AvenirNext-Regular" font-size="23.0" fill="#000000" transform="matrix(1.00, 0.00, -0.00, -1.00, 626.5, 39.0)">t</text><text xml:space="preserve" font-family="AvenirNext-Regular" font-size="23.0" fill="#000000" transform="matrix(1.00, 0.00, -0.00, -1.00, 633.8, 39.0)">a</text><text xml:space="preserve" font-family="AvenirNext-Regular" font-size="23.0" fill="#000000" transform="matrix(1.00, 0.00, -0.00, -1.00, 646.1, 39.0)"> </text><text xml:space="preserve" font-family="AvenirNext-Regular" font-size="23.0" fill="#000000" transform="matrix(1.00, 0.00, -0.00, -1.00, 651.8, 39.0)">t</text><text xml:space="preserve" font-family="AvenirNext-Regular" font-size="23.0" fill="#000000" transform="matrix(1.00, 0.00, -0.00, -1.00, 659.1, 39.0)">a</text><text xml:space="preserve" font-family="AvenirNext-Regular" font-size="23.0" fill="#000000" transform="matrix(1.00, 0.00, -0.00, -1.00, 671.5, 39.0)">g</text><text xml:space="preserve" font-family="AvenirNext-Regular" font-size="23.0" fill="#000000" transform="matrix(1.00, 0.00, -0.00, -1.00, 686.0, 39.0)">s</text><text xml:space="preserve" font-family="AvenirNext-Regular" font-size="23.0" fill="#000000" transform="matrix(1.00, 0.00, -0.00, -1.00, 696.2, 39.0)">)</text><text xml:space="preserve" font-family="AvenirNext-Regular" font-size="23.0" fill="#000000" transform="matrix(1.00, 0.00, -0.00, -1.00, 703.2, 39.0)"> </text><text xml:space="preserve" font-family="AvenirNext-Regular" font-size="23.0" fill="#000000" transform="matrix(1.00, 0.00, -0.00, -1.00, 708.9, 39.0)">–</text><text xml:space="preserve" font-family="AvenirNext-Regular" font-size="23.0" fill="#000000" transform="matrix(1.00, 0.00, -0.00, -1.00, 718.1, 39.0)"> </text><text xml:space="preserve" font-family="AvenirNext-Medium" font-size="23.0" fill="#000000" transform="matrix(1.00, 0.00, -0.00, -1.00, 723.9, 39.0)">t</text><text xml:space="preserve" font-family="AvenirNext-Medium" font-size="23.0" fill="#000000" transform="matrix(1.00, 0.00, -0.00, -1.00, 731.5, 39.0)">h</text><text xml:space="preserve" font-family="AvenirNext-Medium" font-size="23.0" fill="#000000" transform="matrix(1.00, 0.00, -0.00, -1.00, 744.9, 39.0)">e</text><text xml:space="preserve" font-family="AvenirNext-Medium" font-size="23.0" fill="#000000" transform="matrix(1.00, 0.00, -0.00, -1.00, 758.1, 39.0)">y</text><text xml:space="preserve" font-family="AvenirNext-Medium" font-size="23.0" fill="#000000" transform="matrix(1.00, 0.00, -0.00, -1.00, 769.7, 39.0)"> </text><text xml:space="preserve" font-family="AvenirNext-Medium" font-size="23.0" fill="#000000" transform="matrix(1.00, 0.00, -0.00, -1.00, 775.5, 39.0)">d</text><text xml:space="preserve" font-family="AvenirNext-Medium" font-size="23.0" fill="#000000" transform="matrix(1.00, 0.00, -0.00, -1.00, 790.1, 39.0)">o</text><text xml:space="preserve" font-family="AvenirNext-Medium" font-size="23.0" fill="#000000" transform="matrix(1.00, 0.00, -0.00, -1.00, 804.2, 39.0)">n</text><text xml:space="preserve" font-family="AvenirNext-Medium" font-size="23.0" fill="#000000" transform="matrix(1.00, 0.00, -0.00, -1.00, 817.6, 39.0)">’</text><text xml:space="preserve" font-family="AvenirNext-Medium" font-size="23.0" fill="#000000" transform="matrix(1.00, 0.00, -0.00, -1.00, 823.3, 39.0)">t</text><text xml:space="preserve" font-family="AvenirNext-Medium" font-size="23.0" fill="#000000" transform="matrix(1.00, 0.00, -0.00, -1.00, 830.8, 39.0)"> </text><text xml:space="preserve" font-family="AvenirNext-Medium" font-size="23.0" fill="#000000" transform="matrix(1.00, 0.00, -0.00, -1.00, 17.0, 8.0)">u</text><text xml:space="preserve" font-family="AvenirNext-Medium" font-size="23.0" fill="#000000" transform="matrix(1.00, 0.00, -0.00, -1.00, 30.4, 8.0)">s</text><text xml:space="preserve" font-family="AvenirNext-Medium" font-size="23.0" fill="#000000" transform="matrix(1.00, 0.00, -0.00, -1.00, 40.6, 8.0)">e</text><text xml:space="preserve" font-family="AvenirNext-Medium" font-size="23.0" fill="#000000" transform="matrix(1.00, 0.00, -0.00, -1.00, 53.8, 8.0)"> </text><text xml:space="preserve" font-family="AvenirNext-Medium" font-size="23.0" fill="#000000" transform="matrix(1.00, 0.00, -0.00, -1.00, 59.6, 8.0)">t</text><text xml:space="preserve" font-family="AvenirNext-Medium" font-size="23.0" fill="#000000" transform="matrix(1.00, 0.00, -0.00, -1.00, 67.2, 8.0)">h</text><text xml:space="preserve" font-family="AvenirNext-Medium" font-size="23.0" fill="#000000" transform="matrix(1.00, 0.00, -0.00, -1.00, 80.6, 8.0)">e</text><text xml:space="preserve" font-family="AvenirNext-Medium" font-size="23.0" fill="#000000" transform="matrix(1.00, 0.00, -0.00, -1.00, 93.8, 8.0)">m</text><text xml:space="preserve" font-family="AvenirNext-Regular" font-size="23.0" fill="#000000" transform="matrix(1.00, 0.00, -0.00, -1.00, 114.3, 8.0)"> </text><text xml:space="preserve" font-family="AvenirNext-Regular" font-size="23.0" fill="#000000" transform="matrix(1.00, 0.00, -0.00, -1.00, 120.0, 8.0)">(</text><text xml:space="preserve" font-family="AvenirNext-Regular" font-size="23.0" fill="#000000" transform="matrix(1.00, 0.00, -0.00, -1.00, 126.9, 8.0)">h</text><text xml:space="preserve" font-family="AvenirNext-Regular" font-size="23.0" fill="#000000" transform="matrix(1.00, 0.00, -0.00, -1.00, 140.4, 8.0)">t</text><text xml:space="preserve" font-family="AvenirNext-Regular" font-size="23.0" fill="#000000" transform="matrix(1.00, 0.00, -0.00, -1.00, 147.4, 8.0)">t</text><text xml:space="preserve" font-family="AvenirNext-Regular" font-size="23.0" fill="#000000" transform="matrix(1.00, 0.00, -0.00, -1.00, 154.7, 8.0)">p</text><text xml:space="preserve" font-family="AvenirNext-Regular" font-size="23.0" fill="#000000" transform="matrix(1.00, 0.00, -0.00, -1.00, 169.3, 8.0)">s</text><text xml:space="preserve" font-family="AvenirNext-Regular" font-size="23.0" fill="#000000" transform="matrix(1.00, 0.00, -0.00, -1.00, 179.6, 8.0)">:</text><text xml:space="preserve" font-family="AvenirNext-Regular" font-size="23.0" fill="#000000" transform="matrix(1.00, 0.00, -0.00, -1.00, 186.5, 8.0)">/</text><text xml:space="preserve" font-family="AvenirNext-Regular" font-size="23.0" fill="#000000" transform="matrix(1.00, 0.00, -0.00, -1.00, 195.0, 8.0)">/</text><text xml:space="preserve" font-family="AvenirNext-Regular" font-size="23.0" fill="#000000" transform="matrix(1.00, 0.00, -0.00, -1.00, 203.5, 8.0)">w</text><text xml:space="preserve" font-family="AvenirNext-Regular" font-size="23.0" fill="#000000" transform="matrix(1.00, 0.00, -0.00, -1.00, 220.7, 8.0)">w</text><text xml:space="preserve" font-family="AvenirNext-Regular" font-size="23.0" fill="#000000" transform="matrix(1.00, 0.00, -0.00, -1.00, 237.9, 8.0)">w</text><text xml:space="preserve" font-family="AvenirNext-Regular" font-size="23.0" fill="#000000" transform="matrix(1.00, 0.00, -0.00, -1.00, 254.3, 8.0)">.</text><text xml:space="preserve" font-family="AvenirNext-Regular" font-size="23.0" fill="#000000" transform="matrix(1.00, 0.00, -0.00, -1.00, 260.3, 8.0)">y</text><text xml:space="preserve" font-family="AvenirNext-Regular" font-size="23.0" fill="#000000" transform="matrix(1.00, 0.00, -0.00, -1.00, 271.5, 8.0)">o</text><text xml:space="preserve" font-family="AvenirNext-Regular" font-size="23.0" fill="#000000" transform="matrix(1.00, 0.00, -0.00, -1.00, 285.6, 8.0)">u</text><text xml:space="preserve" font-family="AvenirNext-Regular" font-size="23.0" fill="#000000" transform="matrix(1.00, 0.00, -0.00, -1.00, 299.0, 8.0)">t</text><text xml:space="preserve" font-family="AvenirNext-Regular" font-size="23.0" fill="#000000" transform="matrix(1.00, 0.00, -0.00, -1.00, 306.3, 8.0)">u</text><text xml:space="preserve" font-family="AvenirNext-Regular" font-size="23.0" fill="#000000" transform="matrix(1.00, 0.00, -0.00, -1.00, 319.7, 8.0)">b</text><text xml:space="preserve" font-family="AvenirNext-Regular" font-size="23.0" fill="#000000" transform="matrix(1.00, 0.00, -0.00, -1.00, 334.3, 8.0)">e</text><text xml:space="preserve" font-family="AvenirNext-Regular" font-size="23.0" fill="#000000" transform="matrix(1.00, 0.00, -0.00, -1.00, 347.5, 8.0)">.</text><text xml:space="preserve" font-family="AvenirNext-Regular" font-size="23.0" fill="#000000" transform="matrix(1.00, 0.00, -0.00, -1.00, 353.5, 8.0)">c</text><text xml:space="preserve" font-family="AvenirNext-Regular" font-size="23.0" fill="#000000" transform="matrix(1.00, 0.00, -0.00, -1.00, 365.0, 8.0)">o</text><text xml:space="preserve" font-family="AvenirNext-Regular" font-size="23.0" fill="#000000" transform="matrix(1.00, 0.00, -0.00, -1.00, 379.1, 8.0)">m</text><text xml:space="preserve" font-family="AvenirNext-Regular" font-size="23.0" fill="#000000" transform="matrix(1.00, 0.00, -0.00, -1.00, 399.4, 8.0)">/</text><text xml:space="preserve" font-family="AvenirNext-Regular" font-size="23.0" fill="#000000" transform="matrix(1.00, 0.00, -0.00, -1.00, 408.0, 8.0)">w</text><text xml:space="preserve" font-family="AvenirNext-Regular" font-size="23.0" fill="#000000" transform="matrix(1.00, 0.00, -0.00, -1.00, 425.2, 8.0)">a</text><text xml:space="preserve" font-family="AvenirNext-Regular" font-size="23.0" fill="#000000" transform="matrix(1.00, 0.00, -0.00, -1.00, 437.2, 8.0)">t</text><text xml:space="preserve" font-family="AvenirNext-Regular" font-size="23.0" fill="#000000" transform="matrix(1.00, 0.00, -0.00, -1.00, 444.5, 8.0)">c</text><text xml:space="preserve" font-family="AvenirNext-Regular" font-size="23.0" fill="#000000" transform="matrix(1.00, 0.00, -0.00, -1.00, 456.1, 8.0)">h</text><text xml:space="preserve" font-family="AvenirNext-Regular" font-size="23.0" fill="#000000" transform="matrix(1.00, 0.00, -0.00, -1.00, 469.5, 8.0)">?</text><text xml:space="preserve" font-family="AvenirNext-Regular" font-size="23.0" fill="#000000" transform="matrix(1.00, 0.00, -0.00, -1.00, 480.6, 8.0)">v</text><text xml:space="preserve" font-family="AvenirNext-Regular" font-size="23.0" fill="#000000" transform="matrix(1.00, 0.00, -0.00, -1.00, 491.8, 8.0)">=</text><text xml:space="preserve" font-family="AvenirNext-Regular" font-size="23.0" fill="#000000" transform="matrix(1.00, 0.00, -0.00, -1.00, 507.2, 8.0)">j</text><text xml:space="preserve" font-family="AvenirNext-Regular" font-size="23.0" fill="#000000" transform="matrix(1.00, 0.00, -0.00, -1.00, 513.0, 8.0)">K</text><text xml:space="preserve" font-family="AvenirNext-Regular" font-size="23.0" fill="#000000" transform="matrix(1.00, 0.00, -0.00, -1.00, 527.4, 8.0)">7</text><text xml:space="preserve" font-family="AvenirNext-Regular" font-size="23.0" fill="#000000" transform="matrix(1.00, 0.00, -0.00, -1.00, 540.8, 8.0)">I</text><text xml:space="preserve" font-family="AvenirNext-Regular" font-size="23.0" fill="#000000" transform="matrix(1.00, 0.00, -0.00, -1.00, 546.8, 8.0)">P</text><text xml:space="preserve" font-family="AvenirNext-Regular" font-size="23.0" fill="#000000" transform="matrix(1.00, 0.00, -0.00, -1.00, 560.1, 8.0)">b</text><text xml:space="preserve" font-family="AvenirNext-Regular" font-size="23.0" fill="#000000" transform="matrix(1.00, 0.00, -0.00, -1.00, 574.8, 8.0)">n</text><text xml:space="preserve" font-family="AvenirNext-Regular" font-size="23.0" fill="#000000" transform="matrix(1.00, 0.00, -0.00, -1.00, 588.2, 8.0)">m</text><text xml:space="preserve" font-family="AvenirNext-Regular" font-size="23.0" fill="#000000" transform="matrix(1.00, 0.00, -0.00, -1.00, 608.6, 8.0)">v</text><text xml:space="preserve" font-family="AvenirNext-Regular" font-size="23.0" fill="#000000" transform="matrix(1.00, 0.00, -0.00, -1.00, 619.8, 8.0)">V</text><text xml:space="preserve" font-family="AvenirNext-Regular" font-size="23.0" fill="#000000" transform="matrix(1.00, 0.00, -0.00, -1.00, 634.1, 8.0)">U</text><text xml:space="preserve" font-family="AvenirNext-Regular" font-size="23.0" fill="#000000" transform="matrix(1.00, 0.00, -0.00, -1.00, 650.5, 8.0)">&amp;</text><text xml:space="preserve" font-family="AvenirNext-Regular" font-size="23.0" fill="#000000" transform="matrix(1.00, 0.00, -0.00, -1.00, 666.7, 8.0)">f</text><text xml:space="preserve" font-family="AvenirNext-Regular" font-size="23.0" fill="#000000" transform="matrix(1.00, 0.00, -0.00, -1.00, 673.5, 8.0)">e</text><text xml:space="preserve" font-family="AvenirNext-Regular" font-size="23.0" fill="#000000" transform="matrix(1.00, 0.00, -0.00, -1.00, 686.6, 8.0)">a</text><text xml:space="preserve" font-family="AvenirNext-Regular" font-size="23.0" fill="#000000" transform="matrix(1.00, 0.00, -0.00, -1.00, 698.6, 8.0)">t</text><text xml:space="preserve" font-family="AvenirNext-Regular" font-size="23.0" fill="#000000" transform="matrix(1.00, 0.00, -0.00, -1.00, 705.9, 8.0)">u</text><text xml:space="preserve" font-family="AvenirNext-Regular" font-size="23.0" fill="#000000" transform="matrix(1.00, 0.00, -0.00, -1.00, 719.3, 8.0)">r</text><text xml:space="preserve" font-family="AvenirNext-Regular" font-size="23.0" fill="#000000" transform="matrix(1.00, 0.00, -0.00, -1.00, 727.2, 8.0)">e</text><text xml:space="preserve" font-family="AvenirNext-Regular" font-size="23.0" fill="#000000" transform="matrix(1.00, 0.00, -0.00, -1.00, 740.4, 8.0)">=</text><text xml:space="preserve" font-family="AvenirNext-Regular" font-size="23.0" fill="#000000" transform="matrix(1.00, 0.00, -0.00, -1.00, 755.7, 8.0)">y</text><text xml:space="preserve" font-family="AvenirNext-Regular" font-size="23.0" fill="#000000" transform="matrix(1.00, 0.00, -0.00, -1.00, 767.0, 8.0)">o</text><text xml:space="preserve" font-family="AvenirNext-Regular" font-size="23.0" fill="#000000" transform="matrix(1.00, 0.00, -0.00, -1.00, 781.1, 8.0)">u</text><text xml:space="preserve" font-family="AvenirNext-Regular" font-size="23.0" fill="#000000" transform="matrix(1.00, 0.00, -0.00, -1.00, 794.4, 8.0)">t</text><text xml:space="preserve" font-family="AvenirNext-Regular" font-size="23.0" fill="#000000" transform="matrix(1.00, 0.00, -0.00, -1.00, 801.7, 8.0)">u</text><text xml:space="preserve" font-family="AvenirNext-Regular" font-size="23.0" fill="#000000" transform="matrix(1.00, 0.00, -0.00, -1.00, 815.1, 8.0)">.</text><text xml:space="preserve" font-family="AvenirNext-Regular" font-size="23.0" fill="#000000" transform="matrix(1.00, 0.00, -0.00, -1.00, 821.1, 8.0)">b</text><text xml:space="preserve" font-family="AvenirNext-Regular" font-size="23.0" fill="#000000" transform="matrix(1.00, 0.00, -0.00, -1.00, 835.8, 8.0)">e</text><text xml:space="preserve" font-family="AvenirNext-Regular" font-size="23.0" fill="#000000" transform="matrix(1.00, 0.00, -0.00, -1.00, 849.0, 8.0)">)</text></g></svg>