<?xml version="1.0" encoding="UTF-8" standalone="no"?><svg xmlns="http://www.w3.org/2000/svg" xmlns:xlink="http://www.w3.org/1999/xlink" clip-rule="evenodd" stroke-miterlimit="4.00" viewBox="0 0 320 60"><desc>SVG generated by Keynote</desc><defs></defs><g transform="matrix(1.00, 0.00, -0.00, -1.00, 0.0, 60.0)"><text xml:space="preserve" font-family="AvenirNext-Regular" font-size="60.0" fill="#000000" transform="matrix(1.00, 0.00, -0.00, -1.00, -4.0, 16.0)">N</text><text xml:space="preserve" font-family="AvenirNext-Regular" font-size="60.0" fill="#000000" transform="matrix(1.00, 0.00, -0.00, -1.00, 41.8, 16.0)">a</text><text xml:space="preserve" font-family="AvenirNext-Regular" font-size="60.0" fill="#000000" transform="matrix(1.00, 0.00, -0.00, -1.00, 73.9, 16.0)">m</text><text xml:space="preserve" font-family="AvenirNext-Regular" font-size="60.0" fill="#000000" transform="matrix(1.00, 0.00, -0.00, -1.00, 126.9, 16.0)">e</text><text xml:space="preserve" font-family="AvenirNext-Regular" font-size="60.0" fill="#000000" transform="matrix(1.00, 0.00, -0.00, -1.00, 161.2, 16.0)">s</text><text xml:space="preserve" font-family="AvenirNext-Regular" font-size="60.0" fill="#000000" transform="matrix(1.00, 0.00, -0.00, -1.00, 187.8, 16.0)">p</text><text xml:space="preserve" font-family="AvenirNext-Regular" font-size="60.0" fill="#000000" transform="matrix(1.00, 0.00, -0.00, -1.00, 225.9, 16.0)">a</text><text xml:space="preserve" font-family="AvenirNext-Regular" font-size="60.0" fill="#000000" transform="matrix(1.00, 0.00, -0.00, -1.00, 258.0, 16.0)">c</text><text xml:space="preserve" font-family="AvenirNext-Regular" font-size="60.0" fill="#000000" transform="matrix(1.00, 0.00, -0.00, -1.00, 288.0, 16.0)">e</text></g></svg>