<?xml version="1.0" encoding="UTF-8" standalone="no"?><svg xmlns="http://www.w3.org/2000/svg" xmlns:xlink="http://www.w3.org/1999/xlink" clip-rule="evenodd" stroke-miterlimit="4.00" viewBox="0 0 825 55"><desc>SVG generated by Keynote</desc><defs></defs><g transform="matrix(1.00, 0.00, -0.00, -1.00, 0.0, 55.0)"><text xml:space="preserve" font-family="AvenirNext-Regular" font-size="21.0" fill="#000000" transform="matrix(1.00, 0.00, -0.00, -1.00, 0.3, 12.6)">•</text><text xml:space="preserve" font-family="AvenirNext-Regular" font-size="28.0" fill="#000000" transform="matrix(1.00, 0.00, -0.00, -1.00, 28.0, 11.0)">с</text><text xml:space="preserve" font-family="AvenirNext-Regular" font-size="28.0" fill="#000000" transform="matrix(1.00, 0.00, -0.00, -1.00, 42.0, 11.0)"> </text><text xml:space="preserve" font-family="AvenirNext-Regular" font-size="28.0" fill="#000000" transform="matrix(1.00, 0.00, -0.00, -1.00, 49.0, 11.0)">J</text><text xml:space="preserve" font-family="AvenirNext-Regular" font-size="28.0" fill="#000000" transform="matrix(1.00, 0.00, -0.00, -1.00, 62.6, 11.0)">a</text><text xml:space="preserve" font-family="AvenirNext-Regular" font-size="28.0" fill="#000000" transform="matrix(1.00, 0.00, -0.00, -1.00, 77.6, 11.0)">v</text><text xml:space="preserve" font-family="AvenirNext-Regular" font-size="28.0" fill="#000000" transform="matrix(1.00, 0.00, -0.00, -1.00, 91.2, 11.0)">a</text><text xml:space="preserve" font-family="AvenirNext-Regular" font-size="28.0" fill="#000000" transform="matrix(1.00, 0.00, -0.00, -1.00, 106.2, 11.0)">S</text><text xml:space="preserve" font-family="AvenirNext-Regular" font-size="28.0" fill="#000000" transform="matrix(1.00, 0.00, -0.00, -1.00, 122.0, 11.0)">c</text><text xml:space="preserve" font-family="AvenirNext-Regular" font-size="28.0" fill="#000000" transform="matrix(1.00, 0.00, -0.00, -1.00, 136.0, 11.0)">r</text><text xml:space="preserve" font-family="AvenirNext-Regular" font-size="28.0" fill="#000000" transform="matrix(1.00, 0.00, -0.00, -1.00, 146.0, 11.0)">i</text><text xml:space="preserve" font-family="AvenirNext-Regular" font-size="28.0" fill="#000000" transform="matrix(1.00, 0.00, -0.00, -1.00, 153.0, 11.0)">p</text><text xml:space="preserve" font-family="AvenirNext-Regular" font-size="28.0" fill="#000000" transform="matrix(1.00, 0.00, -0.00, -1.00, 170.8, 11.0)">t</text><text xml:space="preserve" font-family="AvenirNext-Regular" font-size="28.0" fill="#000000" transform="matrix(1.00, 0.00, -0.00, -1.00, 179.7, 11.0)"> </text><text xml:space="preserve" font-family="AvenirNext-Regular" font-size="28.0" fill="#000000" transform="matrix(1.00, 0.00, -0.00, -1.00, 186.7, 11.0)">к</text><text xml:space="preserve" font-family="AvenirNext-Regular" font-size="28.0" fill="#000000" transform="matrix(1.00, 0.00, -0.00, -1.00, 201.9, 11.0)">о</text><text xml:space="preserve" font-family="AvenirNext-Regular" font-size="28.0" fill="#000000" transform="matrix(1.00, 0.00, -0.00, -1.00, 219.0, 11.0)">м</text><text xml:space="preserve" font-family="AvenirNext-Regular" font-size="28.0" fill="#000000" transform="matrix(1.00, 0.00, -0.00, -1.00, 238.5, 11.0)">п</text><text xml:space="preserve" font-family="AvenirNext-Regular" font-size="28.0" fill="#000000" transform="matrix(1.00, 0.00, -0.00, -1.00, 254.4, 11.0)">и</text><text xml:space="preserve" font-family="AvenirNext-Regular" font-size="28.0" fill="#000000" transform="matrix(1.00, 0.00, -0.00, -1.00, 271.1, 11.0)">л</text><text xml:space="preserve" font-family="AvenirNext-Regular" font-size="28.0" fill="#000000" transform="matrix(1.00, 0.00, -0.00, -1.00, 285.0, 11.0)">а</text><text xml:space="preserve" font-family="AvenirNext-Regular" font-size="28.0" fill="#000000" transform="matrix(1.00, 0.00, -0.00, -1.00, 300.0, 11.0)">т</text><text xml:space="preserve" font-family="AvenirNext-Regular" font-size="28.0" fill="#000000" transform="matrix(1.00, 0.00, -0.00, -1.00, 312.1, 11.0)">о</text><text xml:space="preserve" font-family="AvenirNext-Regular" font-size="28.0" fill="#000000" transform="matrix(1.00, 0.00, -0.00, -1.00, 329.2, 11.0)">р</text><text xml:space="preserve" font-family="AvenirNext-Regular" font-size="28.0" fill="#000000" transform="matrix(1.00, 0.00, -0.00, -1.00, 346.9, 11.0)">:</text><text xml:space="preserve" font-family="AvenirNext-Regular" font-size="28.0" fill="#000000" transform="matrix(1.00, 0.00, -0.00, -1.00, 355.3, 11.0)"> </text><text xml:space="preserve" font-family="AvenirNext-Regular" font-size="28.0" fill="#000000" transform="matrix(1.00, 0.00, -0.00, -1.00, 362.3, 11.0)">h</text><text xml:space="preserve" font-family="AvenirNext-Regular" font-size="28.0" fill="#000000" transform="matrix(1.00, 0.00, -0.00, -1.00, 378.7, 11.0)">t</text><text xml:space="preserve" font-family="AvenirNext-Regular" font-size="28.0" fill="#000000" transform="matrix(1.00, 0.00, -0.00, -1.00, 387.2, 11.0)">t</text><text xml:space="preserve" font-family="AvenirNext-Regular" font-size="28.0" fill="#000000" transform="matrix(1.00, 0.00, -0.00, -1.00, 396.1, 11.0)">p</text><text xml:space="preserve" font-family="AvenirNext-Regular" font-size="28.0" fill="#000000" transform="matrix(1.00, 0.00, -0.00, -1.00, 413.9, 11.0)">:</text><text xml:space="preserve" font-family="AvenirNext-Regular" font-size="28.0" fill="#000000" transform="matrix(1.00, 0.00, -0.00, -1.00, 422.3, 11.0)">/</text><text xml:space="preserve" font-family="AvenirNext-Regular" font-size="28.0" fill="#000000" transform="matrix(1.00, 0.00, -0.00, -1.00, 432.6, 11.0)">/</text><text xml:space="preserve" font-family="AvenirNext-Regular" font-size="28.0" fill="#000000" transform="matrix(1.00, 0.00, -0.00, -1.00, 443.0, 11.0)">l</text><text xml:space="preserve" font-family="AvenirNext-Regular" font-size="28.0" fill="#000000" transform="matrix(1.00, 0.00, -0.00, -1.00, 450.0, 11.0)">e</text><text xml:space="preserve" font-family="AvenirNext-Regular" font-size="28.0" fill="#000000" transform="matrix(1.00, 0.00, -0.00, -1.00, 466.1, 11.0)">s</text><text xml:space="preserve" font-family="AvenirNext-Regular" font-size="28.0" fill="#000000" transform="matrix(1.00, 0.00, -0.00, -1.00, 478.5, 11.0)">s</text><text xml:space="preserve" font-family="AvenirNext-Regular" font-size="28.0" fill="#000000" transform="matrix(1.00, 0.00, -0.00, -1.00, 490.9, 11.0)">c</text><text xml:space="preserve" font-family="AvenirNext-Regular" font-size="28.0" fill="#000000" transform="matrix(1.00, 0.00, -0.00, -1.00, 504.9, 11.0)">s</text><text xml:space="preserve" font-family="AvenirNext-Regular" font-size="28.0" fill="#000000" transform="matrix(1.00, 0.00, -0.00, -1.00, 517.4, 11.0)">s</text><text xml:space="preserve" font-family="AvenirNext-Regular" font-size="28.0" fill="#000000" transform="matrix(1.00, 0.00, -0.00, -1.00, 529.8, 11.0)">.</text><text xml:space="preserve" font-family="AvenirNext-Regular" font-size="28.0" fill="#000000" transform="matrix(1.00, 0.00, -0.00, -1.00, 537.1, 11.0)">o</text><text xml:space="preserve" font-family="AvenirNext-Regular" font-size="28.0" fill="#000000" transform="matrix(1.00, 0.00, -0.00, -1.00, 554.2, 11.0)">r</text><text xml:space="preserve" font-family="AvenirNext-Regular" font-size="28.0" fill="#000000" transform="matrix(1.00, 0.00, -0.00, -1.00, 563.8, 11.0)">g</text><text xml:space="preserve" font-family="AvenirNext-Regular" font-size="28.0" fill="#000000" transform="matrix(1.00, 0.00, -0.00, -1.00, 581.4, 11.0)">/</text><text xml:space="preserve" font-family="AvenirNext-Regular" font-size="28.0" fill="#000000" transform="matrix(1.00, 0.00, -0.00, -1.00, 591.8, 11.0)">#</text><text xml:space="preserve" font-family="AvenirNext-Regular" font-size="28.0" fill="#000000" transform="matrix(1.00, 0.00, -0.00, -1.00, 607.4, 11.0)">c</text><text xml:space="preserve" font-family="AvenirNext-Regular" font-size="28.0" fill="#000000" transform="matrix(1.00, 0.00, -0.00, -1.00, 621.4, 11.0)">l</text><text xml:space="preserve" font-family="AvenirNext-Regular" font-size="28.0" fill="#000000" transform="matrix(1.00, 0.00, -0.00, -1.00, 628.4, 11.0)">i</text><text xml:space="preserve" font-family="AvenirNext-Regular" font-size="28.0" fill="#000000" transform="matrix(1.00, 0.00, -0.00, -1.00, 635.4, 11.0)">e</text><text xml:space="preserve" font-family="AvenirNext-Regular" font-size="28.0" fill="#000000" transform="matrix(1.00, 0.00, -0.00, -1.00, 651.4, 11.0)">n</text><text xml:space="preserve" font-family="AvenirNext-Regular" font-size="28.0" fill="#000000" transform="matrix(1.00, 0.00, -0.00, -1.00, 667.7, 11.0)">t</text><text xml:space="preserve" font-family="AvenirNext-Regular" font-size="28.0" fill="#000000" transform="matrix(1.00, 0.00, -0.00, -1.00, 676.6, 11.0)">-</text><text xml:space="preserve" font-family="AvenirNext-Regular" font-size="28.0" fill="#000000" transform="matrix(1.00, 0.00, -0.00, -1.00, 685.6, 11.0)">s</text><text xml:space="preserve" font-family="AvenirNext-Regular" font-size="28.0" fill="#000000" transform="matrix(1.00, 0.00, -0.00, -1.00, 698.0, 11.0)">i</text><text xml:space="preserve" font-family="AvenirNext-Regular" font-size="28.0" fill="#000000" transform="matrix(1.00, 0.00, -0.00, -1.00, 705.0, 11.0)">d</text><text xml:space="preserve" font-family="AvenirNext-Regular" font-size="28.0" fill="#000000" transform="matrix(1.00, 0.00, -0.00, -1.00, 722.8, 11.0)">e</text><text xml:space="preserve" font-family="AvenirNext-Regular" font-size="28.0" fill="#000000" transform="matrix(1.00, 0.00, -0.00, -1.00, 738.8, 11.0)">-</text><text xml:space="preserve" font-family="AvenirNext-Regular" font-size="28.0" fill="#000000" transform="matrix(1.00, 0.00, -0.00, -1.00, 747.8, 11.0)">u</text><text xml:space="preserve" font-family="AvenirNext-Regular" font-size="28.0" fill="#000000" transform="matrix(1.00, 0.00, -0.00, -1.00, 764.1, 11.0)">s</text><text xml:space="preserve" font-family="AvenirNext-Regular" font-size="28.0" fill="#000000" transform="matrix(1.00, 0.00, -0.00, -1.00, 776.5, 11.0)">a</text><text xml:space="preserve" font-family="AvenirNext-Regular" font-size="28.0" fill="#000000" transform="matrix(1.00, 0.00, -0.00, -1.00, 791.4, 11.0)">g</text><text xml:space="preserve" font-family="AvenirNext-Regular" font-size="28.0" fill="#000000" transform="matrix(1.00, 0.00, -0.00, -1.00, 809.1, 11.0)">e</text><g><clipPath id="clip-695"><path d="M 360.9 6.8 L 824.7 6.8 L 824.7 10.2 L 360.9 10.2 Z M 360.9 6.8 "></path></clipPath><g clip-path="url(#clip-695)"><path d="M 400.6 445.9 L 863.4 445.9 " fill="none" stroke="#000000" stroke-width="1.40" stroke-miterlimit="0.00" transform="matrix(1.00, 0.00, 0.00, -1.00, -38.7, 454.4)"></path></g></g></g></svg>