<?xml version="1.0" encoding="UTF-8" standalone="no"?><svg xmlns="http://www.w3.org/2000/svg" xmlns:xlink="http://www.w3.org/1999/xlink" clip-rule="evenodd" stroke-miterlimit="4.00" viewBox="0 0 853 40"><desc>SVG generated by Keynote</desc><defs></defs><g transform="matrix(1.00, 0.00, -0.00, -1.00, 0.0, 40.0)"><text xml:space="preserve" font-family="AvenirNext-Regular" font-size="36.0" fill="#000000" transform="matrix(1.00, 0.00, -0.00, -1.00, -2.0, 10.0)">…</text><text xml:space="preserve" font-family="AvenirNext-Regular" font-size="36.0" fill="#000000" transform="matrix(1.00, 0.00, -0.00, -1.00, 32.9, 10.0)"> </text><text xml:space="preserve" font-family="AvenirNext-Regular" font-size="36.0" fill="#000000" transform="matrix(1.00, 0.00, -0.00, -1.00, 41.9, 10.0)">o</text><text xml:space="preserve" font-family="AvenirNext-Regular" font-size="36.0" fill="#000000" transform="matrix(1.00, 0.00, -0.00, -1.00, 63.9, 10.0)">r</text><text xml:space="preserve" font-family="AvenirNext-Regular" font-size="36.0" fill="#000000" transform="matrix(1.00, 0.00, -0.00, -1.00, 76.9, 10.0)"> </text><text xml:space="preserve" font-family="AvenirNext-Regular" font-size="36.0" fill="#000000" transform="matrix(1.00, 0.00, -0.00, -1.00, 85.9, 10.0)">t</text><text xml:space="preserve" font-family="AvenirNext-Regular" font-size="36.0" fill="#000000" transform="matrix(1.00, 0.00, -0.00, -1.00, 97.3, 10.0)">h</text><text xml:space="preserve" font-family="AvenirNext-Regular" font-size="36.0" fill="#000000" transform="matrix(1.00, 0.00, -0.00, -1.00, 118.3, 10.0)">e</text><text xml:space="preserve" font-family="AvenirNext-Regular" font-size="36.0" fill="#000000" transform="matrix(1.00, 0.00, -0.00, -1.00, 138.9, 10.0)"> </text><text xml:space="preserve" font-family="AvenirNext-Regular" font-size="36.0" fill="#000000" transform="matrix(1.00, 0.00, -0.00, -1.00, 147.9, 10.0)">H</text><text xml:space="preserve" font-family="AvenirNext-Regular" font-size="36.0" fill="#000000" transform="matrix(1.00, 0.00, -0.00, -1.00, 173.7, 10.0)">o</text><text xml:space="preserve" font-family="AvenirNext-Regular" font-size="36.0" fill="#000000" transform="matrix(1.00, 0.00, -0.00, -1.00, 195.7, 10.0)">l</text><text xml:space="preserve" font-family="AvenirNext-Regular" font-size="36.0" fill="#000000" transform="matrix(1.00, 0.00, -0.00, -1.00, 204.8, 10.0)">y</text><text xml:space="preserve" font-family="AvenirNext-Regular" font-size="36.0" fill="#000000" transform="matrix(1.00, 0.00, -0.00, -1.00, 222.4, 10.0)"> </text><text xml:space="preserve" font-family="AvenirNext-Regular" font-size="36.0" fill="#000000" transform="matrix(1.00, 0.00, -0.00, -1.00, 231.4, 10.0)">G</text><text xml:space="preserve" font-family="AvenirNext-Regular" font-size="36.0" fill="#000000" transform="matrix(1.00, 0.00, -0.00, -1.00, 259.4, 10.0)">r</text><text xml:space="preserve" font-family="AvenirNext-Regular" font-size="36.0" fill="#000000" transform="matrix(1.00, 0.00, -0.00, -1.00, 271.9, 10.0)">a</text><text xml:space="preserve" font-family="AvenirNext-Regular" font-size="36.0" fill="#000000" transform="matrix(1.00, 0.00, -0.00, -1.00, 291.1, 10.0)">i</text><text xml:space="preserve" font-family="AvenirNext-Regular" font-size="36.0" fill="#000000" transform="matrix(1.00, 0.00, -0.00, -1.00, 300.1, 10.0)">l</text><text xml:space="preserve" font-family="AvenirNext-Regular" font-size="36.0" fill="#000000" transform="matrix(1.00, 0.00, -0.00, -1.00, 309.2, 10.0)"> </text><text xml:space="preserve" font-family="AvenirNext-Regular" font-size="36.0" fill="#000000" transform="matrix(1.00, 0.00, -0.00, -1.00, 318.2, 10.0)">o</text><text xml:space="preserve" font-family="AvenirNext-Regular" font-size="36.0" fill="#000000" transform="matrix(1.00, 0.00, -0.00, -1.00, 340.2, 10.0)">f</text><text xml:space="preserve" font-family="AvenirNext-Regular" font-size="36.0" fill="#000000" transform="matrix(1.00, 0.00, -0.00, -1.00, 351.7, 10.0)"> </text><text xml:space="preserve" font-family="AvenirNext-Regular" font-size="36.0" fill="#000000" transform="matrix(1.00, 0.00, -0.00, -1.00, 360.7, 10.0)">t</text><text xml:space="preserve" font-family="AvenirNext-Regular" font-size="36.0" fill="#000000" transform="matrix(1.00, 0.00, -0.00, -1.00, 372.1, 10.0)">h</text><text xml:space="preserve" font-family="AvenirNext-Regular" font-size="36.0" fill="#000000" transform="matrix(1.00, 0.00, -0.00, -1.00, 393.1, 10.0)">e</text><text xml:space="preserve" font-family="AvenirNext-Regular" font-size="36.0" fill="#000000" transform="matrix(1.00, 0.00, -0.00, -1.00, 413.7, 10.0)"> </text><text xml:space="preserve" font-family="AvenirNext-Regular" font-size="36.0" fill="#000000" transform="matrix(1.00, 0.00, -0.00, -1.00, 422.7, 10.0)">s</text><text xml:space="preserve" font-family="AvenirNext-Regular" font-size="36.0" fill="#000000" transform="matrix(1.00, 0.00, -0.00, -1.00, 438.7, 10.0)">u</text><text xml:space="preserve" font-family="AvenirNext-Regular" font-size="36.0" fill="#000000" transform="matrix(1.00, 0.00, -0.00, -1.00, 459.6, 10.0)">c</text><text xml:space="preserve" font-family="AvenirNext-Regular" font-size="36.0" fill="#000000" transform="matrix(1.00, 0.00, -0.00, -1.00, 477.6, 10.0)">c</text><text xml:space="preserve" font-family="AvenirNext-Regular" font-size="36.0" fill="#000000" transform="matrix(1.00, 0.00, -0.00, -1.00, 495.6, 10.0)">e</text><text xml:space="preserve" font-family="AvenirNext-Regular" font-size="36.0" fill="#000000" transform="matrix(1.00, 0.00, -0.00, -1.00, 516.2, 10.0)">s</text><text xml:space="preserve" font-family="AvenirNext-Regular" font-size="36.0" fill="#000000" transform="matrix(1.00, 0.00, -0.00, -1.00, 532.2, 10.0)">s</text><text xml:space="preserve" font-family="AvenirNext-Regular" font-size="36.0" fill="#000000" transform="matrix(1.00, 0.00, -0.00, -1.00, 548.2, 10.0)">f</text><text xml:space="preserve" font-family="AvenirNext-Regular" font-size="36.0" fill="#000000" transform="matrix(1.00, 0.00, -0.00, -1.00, 558.8, 10.0)">u</text><text xml:space="preserve" font-family="AvenirNext-Regular" font-size="36.0" fill="#000000" transform="matrix(1.00, 0.00, -0.00, -1.00, 579.7, 10.0)">l</text><text xml:space="preserve" font-family="AvenirNext-Regular" font-size="36.0" fill="#000000" transform="matrix(1.00, 0.00, -0.00, -1.00, 588.8, 10.0)"> </text><text xml:space="preserve" font-family="AvenirNext-Regular" font-size="36.0" fill="#000000" transform="matrix(1.00, 0.00, -0.00, -1.00, 597.8, 10.0)">o</text><text xml:space="preserve" font-family="AvenirNext-Regular" font-size="36.0" fill="#000000" transform="matrix(1.00, 0.00, -0.00, -1.00, 619.8, 10.0)">n</text><text xml:space="preserve" font-family="AvenirNext-Regular" font-size="36.0" fill="#000000" transform="matrix(1.00, 0.00, -0.00, -1.00, 640.7, 10.0)">l</text><text xml:space="preserve" font-family="AvenirNext-Regular" font-size="36.0" fill="#000000" transform="matrix(1.00, 0.00, -0.00, -1.00, 649.7, 10.0)">i</text><text xml:space="preserve" font-family="AvenirNext-Regular" font-size="36.0" fill="#000000" transform="matrix(1.00, 0.00, -0.00, -1.00, 658.7, 10.0)">n</text><text xml:space="preserve" font-family="AvenirNext-Regular" font-size="36.0" fill="#000000" transform="matrix(1.00, 0.00, -0.00, -1.00, 679.7, 10.0)">e</text><text xml:space="preserve" font-family="AvenirNext-Regular" font-size="36.0" fill="#000000" transform="matrix(1.00, 0.00, -0.00, -1.00, 700.3, 10.0)"> </text><text xml:space="preserve" font-family="AvenirNext-Regular" font-size="36.0" fill="#000000" transform="matrix(1.00, 0.00, -0.00, -1.00, 709.3, 10.0)">b</text><text xml:space="preserve" font-family="AvenirNext-Regular" font-size="36.0" fill="#000000" transform="matrix(1.00, 0.00, -0.00, -1.00, 732.2, 10.0)">u</text><text xml:space="preserve" font-family="AvenirNext-Regular" font-size="36.0" fill="#000000" transform="matrix(1.00, 0.00, -0.00, -1.00, 753.1, 10.0)">s</text><text xml:space="preserve" font-family="AvenirNext-Regular" font-size="36.0" fill="#000000" transform="matrix(1.00, 0.00, -0.00, -1.00, 769.1, 10.0)">i</text><text xml:space="preserve" font-family="AvenirNext-Regular" font-size="36.0" fill="#000000" transform="matrix(1.00, 0.00, -0.00, -1.00, 778.1, 10.0)">n</text><text xml:space="preserve" font-family="AvenirNext-Regular" font-size="36.0" fill="#000000" transform="matrix(1.00, 0.00, -0.00, -1.00, 799.0, 10.0)">e</text><text xml:space="preserve" font-family="AvenirNext-Regular" font-size="36.0" fill="#000000" transform="matrix(1.00, 0.00, -0.00, -1.00, 819.6, 10.0)">s</text><text xml:space="preserve" font-family="AvenirNext-Regular" font-size="36.0" fill="#000000" transform="matrix(1.00, 0.00, -0.00, -1.00, 835.6, 10.0)">s</text></g></svg>