<?xml version="1.0" encoding="UTF-8" standalone="no"?><svg xmlns="http://www.w3.org/2000/svg" xmlns:xlink="http://www.w3.org/1999/xlink" clip-rule="evenodd" stroke-miterlimit="4.00" viewBox="0 0 328 33"><desc>SVG generated by Keynote</desc><defs></defs><g transform="matrix(1.00, 0.00, -0.00, -1.00, 0.0, 33.0)"><text xml:space="preserve" font-family="AvenirNext-Regular" font-size="21.0" fill="#000000" transform="matrix(1.00, 0.00, -0.00, -1.00, 0.2, 10.7)">•</text><text xml:space="preserve" font-family="AvenirNext-Regular" font-size="28.0" fill="#000000" transform="matrix(1.00, 0.00, -0.00, -1.00, 27.0, 9.0)">р</text><text xml:space="preserve" font-family="AvenirNext-Regular" font-size="28.0" fill="#000000" transform="matrix(1.00, 0.00, -0.00, -1.00, 44.8, 9.0)">а</text><text xml:space="preserve" font-family="AvenirNext-Regular" font-size="28.0" fill="#000000" transform="matrix(1.00, 0.00, -0.00, -1.00, 59.7, 9.0)">з</text><text xml:space="preserve" font-family="AvenirNext-Regular" font-size="28.0" fill="#000000" transform="matrix(1.00, 0.00, -0.00, -1.00, 72.7, 9.0)">п</text><text xml:space="preserve" font-family="AvenirNext-Regular" font-size="28.0" fill="#000000" transform="matrix(1.00, 0.00, -0.00, -1.00, 88.6, 9.0)">о</text><text xml:space="preserve" font-family="AvenirNext-Regular" font-size="28.0" fill="#000000" transform="matrix(1.00, 0.00, -0.00, -1.00, 105.7, 9.0)">л</text><text xml:space="preserve" font-family="AvenirNext-Regular" font-size="28.0" fill="#000000" transform="matrix(1.00, 0.00, -0.00, -1.00, 119.6, 9.0)">о</text><text xml:space="preserve" font-family="AvenirNext-Regular" font-size="28.0" fill="#000000" transform="matrix(1.00, 0.00, -0.00, -1.00, 136.7, 9.0)">ж</text><text xml:space="preserve" font-family="AvenirNext-Regular" font-size="28.0" fill="#000000" transform="matrix(1.00, 0.00, -0.00, -1.00, 159.6, 9.0)">е</text><text xml:space="preserve" font-family="AvenirNext-Regular" font-size="28.0" fill="#000000" transform="matrix(1.00, 0.00, -0.00, -1.00, 175.6, 9.0)">н</text><text xml:space="preserve" font-family="AvenirNext-Regular" font-size="28.0" fill="#000000" transform="matrix(1.00, 0.00, -0.00, -1.00, 191.7, 9.0)">и</text><text xml:space="preserve" font-family="AvenirNext-Regular" font-size="28.0" fill="#000000" transform="matrix(1.00, 0.00, -0.00, -1.00, 208.4, 9.0)">е</text><text xml:space="preserve" font-family="AvenirNext-Regular" font-size="28.0" fill="#000000" transform="matrix(1.00, 0.00, -0.00, -1.00, 224.5, 9.0)"> </text><text xml:space="preserve" font-family="AvenirNext-Regular" font-size="28.0" fill="#000000" transform="matrix(1.00, 0.00, -0.00, -1.00, 231.5, 9.0)">(</text><text xml:space="preserve" font-family="AvenirNext-Regular" font-size="28.0" fill="#000000" transform="matrix(1.00, 0.00, -0.00, -1.00, 239.9, 9.0)">l</text><text xml:space="preserve" font-family="AvenirNext-Regular" font-size="28.0" fill="#000000" transform="matrix(1.00, 0.00, -0.00, -1.00, 246.9, 9.0)">a</text><text xml:space="preserve" font-family="AvenirNext-Regular" font-size="28.0" fill="#000000" transform="matrix(1.00, 0.00, -0.00, -1.00, 261.9, 9.0)">y</text><text xml:space="preserve" font-family="AvenirNext-Regular" font-size="28.0" fill="#000000" transform="matrix(1.00, 0.00, -0.00, -1.00, 275.5, 9.0)">o</text><text xml:space="preserve" font-family="AvenirNext-Regular" font-size="28.0" fill="#000000" transform="matrix(1.00, 0.00, -0.00, -1.00, 292.6, 9.0)">u</text><text xml:space="preserve" font-family="AvenirNext-Regular" font-size="28.0" fill="#000000" transform="matrix(1.00, 0.00, -0.00, -1.00, 308.9, 9.0)">t</text><text xml:space="preserve" font-family="AvenirNext-Regular" font-size="28.0" fill="#000000" transform="matrix(1.00, 0.00, -0.00, -1.00, 317.8, 9.0)">)</text></g></svg>