<?xml version="1.0" encoding="UTF-8" standalone="no"?><svg xmlns="http://www.w3.org/2000/svg" xmlns:xlink="http://www.w3.org/1999/xlink" clip-rule="evenodd" stroke-miterlimit="4.00" viewBox="0 0 676 31"><desc>SVG generated by Keynote</desc><defs></defs><g transform="matrix(1.00, 0.00, -0.00, -1.00, 0.0, 31.0)"><text xml:space="preserve" font-family="AvenirNext-Regular" font-size="19.9" fill="#000000" transform="matrix(1.00, 0.00, -0.00, -1.00, 0.2, 10.8)">•</text><text xml:space="preserve" font-family="Courier" font-size="26.6" fill="#000000" transform="matrix(1.00, 0.00, -0.00, -1.00, 23.0, 8.0)">P</text><text xml:space="preserve" font-family="Courier" font-size="26.6" fill="#000000" transform="matrix(1.00, 0.00, -0.00, -1.00, 38.9, 8.0)">R</text><text xml:space="preserve" font-family="Courier" font-size="26.6" fill="#000000" transform="matrix(1.00, 0.00, -0.00, -1.00, 54.9, 8.0)">O</text><text xml:space="preserve" font-family="Courier" font-size="26.6" fill="#000000" transform="matrix(1.00, 0.00, -0.00, -1.00, 70.8, 8.0)">P</text><text xml:space="preserve" font-family="Courier" font-size="26.6" fill="#000000" transform="matrix(1.00, 0.00, -0.00, -1.00, 86.8, 8.0)">E</text><text xml:space="preserve" font-family="Courier" font-size="26.6" fill="#000000" transform="matrix(1.00, 0.00, -0.00, -1.00, 102.7, 8.0)">R</text><text xml:space="preserve" font-family="Courier" font-size="26.6" fill="#000000" transform="matrix(1.00, 0.00, -0.00, -1.00, 118.6, 8.0)">T</text><text xml:space="preserve" font-family="Courier" font-size="26.6" fill="#000000" transform="matrix(1.00, 0.00, -0.00, -1.00, 134.6, 8.0)">Y</text><text xml:space="preserve" font-family="Courier" font-size="26.6" fill="#000000" transform="matrix(1.00, 0.00, -0.00, -1.00, 150.5, 8.0)"> </text><text xml:space="preserve" font-family="AvenirNext-Regular" font-size="26.6" fill="#000000" transform="matrix(1.00, 0.00, -0.00, -1.00, 166.4, 8.0)">е</text><text xml:space="preserve" font-family="AvenirNext-Regular" font-size="26.6" fill="#000000" transform="matrix(1.00, 0.00, -0.00, -1.00, 181.6, 8.0)"> </text><text xml:space="preserve" font-family="AvenirNext-Regular" font-size="26.6" fill="#000000" transform="matrix(1.00, 0.00, -0.00, -1.00, 188.3, 8.0)">C</text><text xml:space="preserve" font-family="AvenirNext-Regular" font-size="26.6" fill="#000000" transform="matrix(1.00, 0.00, -0.00, -1.00, 207.4, 8.0)">S</text><text xml:space="preserve" font-family="AvenirNext-Regular" font-size="26.6" fill="#000000" transform="matrix(1.00, 0.00, -0.00, -1.00, 222.4, 8.0)">S</text><text xml:space="preserve" font-family="AvenirNext-Regular" font-size="26.6" fill="#000000" transform="matrix(1.00, 0.00, -0.00, -1.00, 237.4, 8.0)"> </text><text xml:space="preserve" font-family="AvenirNext-Regular" font-size="26.6" fill="#000000" transform="matrix(1.00, 0.00, -0.00, -1.00, 244.0, 8.0)">п</text><text xml:space="preserve" font-family="AvenirNext-Regular" font-size="26.6" fill="#000000" transform="matrix(1.00, 0.00, -0.00, -1.00, 259.1, 8.0)">р</text><text xml:space="preserve" font-family="AvenirNext-Regular" font-size="26.6" fill="#000000" transform="matrix(1.00, 0.00, -0.00, -1.00, 275.9, 8.0)">о</text><text xml:space="preserve" font-family="AvenirNext-Regular" font-size="26.6" fill="#000000" transform="matrix(1.00, 0.00, -0.00, -1.00, 292.2, 8.0)">п</text><text xml:space="preserve" font-family="AvenirNext-Regular" font-size="26.6" fill="#000000" transform="matrix(1.00, 0.00, -0.00, -1.00, 307.2, 8.0)">ъ</text><text xml:space="preserve" font-family="AvenirNext-Regular" font-size="26.6" fill="#000000" transform="matrix(1.00, 0.00, -0.00, -1.00, 321.9, 8.0)">р</text><text xml:space="preserve" font-family="AvenirNext-Regular" font-size="26.6" fill="#000000" transform="matrix(1.00, 0.00, -0.00, -1.00, 338.7, 8.0)">т</text><text xml:space="preserve" font-family="AvenirNext-Regular" font-size="26.6" fill="#000000" transform="matrix(1.00, 0.00, -0.00, -1.00, 350.2, 8.0)">и</text><text xml:space="preserve" font-family="AvenirNext-Regular" font-size="26.6" fill="#000000" transform="matrix(1.00, 0.00, -0.00, -1.00, 366.1, 8.0)">т</text><text xml:space="preserve" font-family="AvenirNext-Regular" font-size="26.6" fill="#000000" transform="matrix(1.00, 0.00, -0.00, -1.00, 377.5, 8.0)">о</text><text xml:space="preserve" font-family="AvenirNext-Regular" font-size="26.6" fill="#000000" transform="matrix(1.00, 0.00, -0.00, -1.00, 393.8, 8.0)">,</text><text xml:space="preserve" font-family="AvenirNext-Regular" font-size="26.6" fill="#000000" transform="matrix(1.00, 0.00, -0.00, -1.00, 399.9, 8.0)"> </text><text xml:space="preserve" font-family="AvenirNext-Regular" font-size="26.6" fill="#000000" transform="matrix(1.00, 0.00, -0.00, -1.00, 406.5, 8.0)">к</text><text xml:space="preserve" font-family="AvenirNext-Regular" font-size="26.6" fill="#000000" transform="matrix(1.00, 0.00, -0.00, -1.00, 420.9, 8.0)">о</text><text xml:space="preserve" font-family="AvenirNext-Regular" font-size="26.6" fill="#000000" transform="matrix(1.00, 0.00, -0.00, -1.00, 437.2, 8.0)">е</text><text xml:space="preserve" font-family="AvenirNext-Regular" font-size="26.6" fill="#000000" transform="matrix(1.00, 0.00, -0.00, -1.00, 452.4, 8.0)">т</text><text xml:space="preserve" font-family="AvenirNext-Regular" font-size="26.6" fill="#000000" transform="matrix(1.00, 0.00, -0.00, -1.00, 463.8, 8.0)">о</text><text xml:space="preserve" font-family="AvenirNext-Regular" font-size="26.6" fill="#000000" transform="matrix(1.00, 0.00, -0.00, -1.00, 480.0, 8.0)"> </text><text xml:space="preserve" font-family="AvenirNext-Regular" font-size="26.6" fill="#000000" transform="matrix(1.00, 0.00, -0.00, -1.00, 486.7, 8.0)">щ</text><text xml:space="preserve" font-family="AvenirNext-Regular" font-size="26.6" fill="#000000" transform="matrix(1.00, 0.00, -0.00, -1.00, 508.2, 8.0)">е</text><text xml:space="preserve" font-family="AvenirNext-Regular" font-size="26.6" fill="#000000" transform="matrix(1.00, 0.00, -0.00, -1.00, 523.4, 8.0)"> </text><text xml:space="preserve" font-family="AvenirNext-Regular" font-size="26.6" fill="#000000" transform="matrix(1.00, 0.00, -0.00, -1.00, 530.0, 8.0)">с</text><text xml:space="preserve" font-family="AvenirNext-Regular" font-size="26.6" fill="#000000" transform="matrix(1.00, 0.00, -0.00, -1.00, 543.3, 8.0)">е</text><text xml:space="preserve" font-family="AvenirNext-Regular" font-size="26.6" fill="#000000" transform="matrix(1.00, 0.00, -0.00, -1.00, 558.5, 8.0)"> </text><text xml:space="preserve" font-family="AvenirNext-Regular" font-size="26.6" fill="#000000" transform="matrix(1.00, 0.00, -0.00, -1.00, 565.1, 8.0)">п</text><text xml:space="preserve" font-family="AvenirNext-Regular" font-size="26.6" fill="#000000" transform="matrix(1.00, 0.00, -0.00, -1.00, 580.2, 8.0)">р</text><text xml:space="preserve" font-family="AvenirNext-Regular" font-size="26.6" fill="#000000" transform="matrix(1.00, 0.00, -0.00, -1.00, 597.0, 8.0)">о</text><text xml:space="preserve" font-family="AvenirNext-Regular" font-size="26.6" fill="#000000" transform="matrix(1.00, 0.00, -0.00, -1.00, 613.3, 8.0)">м</text><text xml:space="preserve" font-family="AvenirNext-Regular" font-size="26.6" fill="#000000" transform="matrix(1.00, 0.00, -0.00, -1.00, 631.7, 8.0)">е</text><text xml:space="preserve" font-family="AvenirNext-Regular" font-size="26.6" fill="#000000" transform="matrix(1.00, 0.00, -0.00, -1.00, 646.9, 8.0)">н</text><text xml:space="preserve" font-family="AvenirNext-Regular" font-size="26.6" fill="#000000" transform="matrix(1.00, 0.00, -0.00, -1.00, 662.2, 8.0)">я</text></g></svg>