<?xml version="1.0" encoding="UTF-8" standalone="no"?><svg xmlns="http://www.w3.org/2000/svg" xmlns:xlink="http://www.w3.org/1999/xlink" clip-rule="evenodd" stroke-miterlimit="4.00" viewBox="0 0 526 31"><desc>SVG generated by Keynote</desc><defs></defs><g transform="matrix(1.00, 0.00, -0.00, -1.00, 0.0, 31.0)"><text xml:space="preserve" font-family="AvenirNext-Regular" font-size="19.9" fill="#000000" transform="matrix(1.00, 0.00, -0.00, -1.00, 0.2, 11.2)">•</text><text xml:space="preserve" font-family="Courier" font-size="26.6" fill="#000000" transform="matrix(1.00, 0.00, -0.00, -1.00, 23.0, 9.0)">T</text><text xml:space="preserve" font-family="Courier" font-size="26.6" fill="#000000" transform="matrix(1.00, 0.00, -0.00, -1.00, 38.9, 9.0)">I</text><text xml:space="preserve" font-family="Courier" font-size="26.6" fill="#000000" transform="matrix(1.00, 0.00, -0.00, -1.00, 54.9, 9.0)">M</text><text xml:space="preserve" font-family="Courier" font-size="26.6" fill="#000000" transform="matrix(1.00, 0.00, -0.00, -1.00, 70.8, 9.0)">E</text><text xml:space="preserve" font-family="Courier" font-size="26.6" fill="#000000" transform="matrix(1.00, 0.00, -0.00, -1.00, 86.8, 9.0)"> </text><text xml:space="preserve" font-family="AvenirNext-Regular" font-size="26.6" fill="#000000" transform="matrix(1.00, 0.00, -0.00, -1.00, 102.7, 9.0)">е</text><text xml:space="preserve" font-family="AvenirNext-Regular" font-size="26.6" fill="#000000" transform="matrix(1.00, 0.00, -0.00, -1.00, 117.9, 9.0)"> </text><text xml:space="preserve" font-family="AvenirNext-Regular" font-size="26.6" fill="#000000" transform="matrix(1.00, 0.00, -0.00, -1.00, 124.5, 9.0)">к</text><text xml:space="preserve" font-family="AvenirNext-Regular" font-size="26.6" fill="#000000" transform="matrix(1.00, 0.00, -0.00, -1.00, 138.9, 9.0)">о</text><text xml:space="preserve" font-family="AvenirNext-Regular" font-size="26.6" fill="#000000" transform="matrix(1.00, 0.00, -0.00, -1.00, 155.2, 9.0)">л</text><text xml:space="preserve" font-family="AvenirNext-Regular" font-size="26.6" fill="#000000" transform="matrix(1.00, 0.00, -0.00, -1.00, 168.4, 9.0)">к</text><text xml:space="preserve" font-family="AvenirNext-Regular" font-size="26.6" fill="#000000" transform="matrix(1.00, 0.00, -0.00, -1.00, 182.8, 9.0)">о</text><text xml:space="preserve" font-family="AvenirNext-Regular" font-size="26.6" fill="#000000" transform="matrix(1.00, 0.00, -0.00, -1.00, 199.0, 9.0)"> </text><text xml:space="preserve" font-family="AvenirNext-Regular" font-size="26.6" fill="#000000" transform="matrix(1.00, 0.00, -0.00, -1.00, 205.7, 9.0)">с</text><text xml:space="preserve" font-family="AvenirNext-Regular" font-size="26.6" fill="#000000" transform="matrix(1.00, 0.00, -0.00, -1.00, 218.9, 9.0)">е</text><text xml:space="preserve" font-family="AvenirNext-Regular" font-size="26.6" fill="#000000" transform="matrix(1.00, 0.00, -0.00, -1.00, 234.1, 9.0)">к</text><text xml:space="preserve" font-family="AvenirNext-Regular" font-size="26.6" fill="#000000" transform="matrix(1.00, 0.00, -0.00, -1.00, 248.6, 9.0)">у</text><text xml:space="preserve" font-family="AvenirNext-Regular" font-size="26.6" fill="#000000" transform="matrix(1.00, 0.00, -0.00, -1.00, 261.5, 9.0)">н</text><text xml:space="preserve" font-family="AvenirNext-Regular" font-size="26.6" fill="#000000" transform="matrix(1.00, 0.00, -0.00, -1.00, 276.8, 9.0)">д</text><text xml:space="preserve" font-family="AvenirNext-Regular" font-size="26.6" fill="#000000" transform="matrix(1.00, 0.00, -0.00, -1.00, 291.2, 9.0)">и</text><text xml:space="preserve" font-family="AvenirNext-Regular" font-size="26.6" fill="#000000" transform="matrix(1.00, 0.00, -0.00, -1.00, 307.2, 9.0)"> </text><text xml:space="preserve" font-family="AvenirNext-Regular" font-size="26.6" fill="#000000" transform="matrix(1.00, 0.00, -0.00, -1.00, 313.8, 9.0)">щ</text><text xml:space="preserve" font-family="AvenirNext-Regular" font-size="26.6" fill="#000000" transform="matrix(1.00, 0.00, -0.00, -1.00, 335.3, 9.0)">е</text><text xml:space="preserve" font-family="AvenirNext-Regular" font-size="26.6" fill="#000000" transform="matrix(1.00, 0.00, -0.00, -1.00, 350.5, 9.0)"> </text><text xml:space="preserve" font-family="AvenirNext-Regular" font-size="26.6" fill="#000000" transform="matrix(1.00, 0.00, -0.00, -1.00, 357.1, 9.0)">т</text><text xml:space="preserve" font-family="AvenirNext-Regular" font-size="26.6" fill="#000000" transform="matrix(1.00, 0.00, -0.00, -1.00, 368.6, 9.0)">р</text><text xml:space="preserve" font-family="AvenirNext-Regular" font-size="26.6" fill="#000000" transform="matrix(1.00, 0.00, -0.00, -1.00, 385.4, 9.0)">а</text><text xml:space="preserve" font-family="AvenirNext-Regular" font-size="26.6" fill="#000000" transform="matrix(1.00, 0.00, -0.00, -1.00, 399.6, 9.0)">е</text><text xml:space="preserve" font-family="AvenirNext-Regular" font-size="26.6" fill="#000000" transform="matrix(1.00, 0.00, -0.00, -1.00, 414.8, 9.0)"> </text><text xml:space="preserve" font-family="AvenirNext-Regular" font-size="26.6" fill="#000000" transform="matrix(1.00, 0.00, -0.00, -1.00, 421.4, 9.0)">п</text><text xml:space="preserve" font-family="AvenirNext-Regular" font-size="26.6" fill="#000000" transform="matrix(1.00, 0.00, -0.00, -1.00, 436.5, 9.0)">р</text><text xml:space="preserve" font-family="AvenirNext-Regular" font-size="26.6" fill="#000000" transform="matrix(1.00, 0.00, -0.00, -1.00, 453.4, 9.0)">е</text><text xml:space="preserve" font-family="AvenirNext-Regular" font-size="26.6" fill="#000000" transform="matrix(1.00, 0.00, -0.00, -1.00, 468.6, 9.0)">х</text><text xml:space="preserve" font-family="AvenirNext-Regular" font-size="26.6" fill="#000000" transform="matrix(1.00, 0.00, -0.00, -1.00, 481.4, 9.0)">о</text><text xml:space="preserve" font-family="AvenirNext-Regular" font-size="26.6" fill="#000000" transform="matrix(1.00, 0.00, -0.00, -1.00, 497.6, 9.0)">д</text><text xml:space="preserve" font-family="AvenirNext-Regular" font-size="26.6" fill="#000000" transform="matrix(1.00, 0.00, -0.00, -1.00, 512.1, 9.0)">а</text></g></svg>