<?xml version="1.0" encoding="UTF-8" standalone="no"?><svg xmlns="http://www.w3.org/2000/svg" xmlns:xlink="http://www.w3.org/1999/xlink" clip-rule="evenodd" stroke-miterlimit="4.00" viewBox="0 0 844 68"><desc>SVG generated by Keynote</desc><defs></defs><g transform="matrix(1.00, 0.00, -0.00, -1.00, 0.0, 68.0)"><text xml:space="preserve" font-family="AvenirNext-Regular" font-size="19.9" fill="#000000" transform="matrix(1.00, 0.00, -0.00, -1.00, 0.2, 47.6)">•</text><text xml:space="preserve" font-family="Courier" font-size="26.6" fill="#000000" transform="matrix(1.00, 0.00, -0.00, -1.00, 23.0, 45.0)">M</text><text xml:space="preserve" font-family="Courier" font-size="26.6" fill="#000000" transform="matrix(1.00, 0.00, -0.00, -1.00, 38.9, 45.0)">E</text><text xml:space="preserve" font-family="Courier" font-size="26.6" fill="#000000" transform="matrix(1.00, 0.00, -0.00, -1.00, 54.9, 45.0)">T</text><text xml:space="preserve" font-family="Courier" font-size="26.6" fill="#000000" transform="matrix(1.00, 0.00, -0.00, -1.00, 70.8, 45.0)">H</text><text xml:space="preserve" font-family="Courier" font-size="26.6" fill="#000000" transform="matrix(1.00, 0.00, -0.00, -1.00, 86.8, 45.0)">O</text><text xml:space="preserve" font-family="Courier" font-size="26.6" fill="#000000" transform="matrix(1.00, 0.00, -0.00, -1.00, 102.7, 45.0)">D</text><text xml:space="preserve" font-family="Courier" font-size="26.6" fill="#000000" transform="matrix(1.00, 0.00, -0.00, -1.00, 118.6, 45.0)"> </text><text xml:space="preserve" font-family="AvenirNext-Regular" font-size="26.6" fill="#000000" transform="matrix(1.00, 0.00, -0.00, -1.00, 134.6, 45.0)">е</text><text xml:space="preserve" font-family="AvenirNext-Regular" font-size="26.6" fill="#000000" transform="matrix(1.00, 0.00, -0.00, -1.00, 149.8, 45.0)"> </text><text xml:space="preserve" font-family="AvenirNext-Regular" font-size="26.6" fill="#000000" transform="matrix(1.00, 0.00, -0.00, -1.00, 156.4, 45.0)">ф</text><text xml:space="preserve" font-family="AvenirNext-Regular" font-size="26.6" fill="#000000" transform="matrix(1.00, 0.00, -0.00, -1.00, 174.1, 45.0)">у</text><text xml:space="preserve" font-family="AvenirNext-Regular" font-size="26.6" fill="#000000" transform="matrix(1.00, 0.00, -0.00, -1.00, 187.1, 45.0)">н</text><text xml:space="preserve" font-family="AvenirNext-Regular" font-size="26.6" fill="#000000" transform="matrix(1.00, 0.00, -0.00, -1.00, 202.4, 45.0)">к</text><text xml:space="preserve" font-family="AvenirNext-Regular" font-size="26.6" fill="#000000" transform="matrix(1.00, 0.00, -0.00, -1.00, 216.8, 45.0)">ц</text><text xml:space="preserve" font-family="AvenirNext-Regular" font-size="26.6" fill="#000000" transform="matrix(1.00, 0.00, -0.00, -1.00, 231.9, 45.0)">и</text><text xml:space="preserve" font-family="AvenirNext-Regular" font-size="26.6" fill="#000000" transform="matrix(1.00, 0.00, -0.00, -1.00, 247.8, 45.0)">я</text><text xml:space="preserve" font-family="AvenirNext-Regular" font-size="26.6" fill="#000000" transform="matrix(1.00, 0.00, -0.00, -1.00, 262.2, 45.0)"> </text><text xml:space="preserve" font-family="AvenirNext-Regular" font-size="26.6" fill="#000000" transform="matrix(1.00, 0.00, -0.00, -1.00, 268.8, 45.0)">(</text><text xml:space="preserve" font-family="AvenirNext-Regular" font-size="26.6" fill="#000000" transform="matrix(1.00, 0.00, -0.00, -1.00, 276.8, 45.0)">а</text><text xml:space="preserve" font-family="AvenirNext-Regular" font-size="26.6" fill="#000000" transform="matrix(1.00, 0.00, -0.00, -1.00, 291.0, 45.0)">л</text><text xml:space="preserve" font-family="AvenirNext-Regular" font-size="26.6" fill="#000000" transform="matrix(1.00, 0.00, -0.00, -1.00, 304.2, 45.0)">г</text><text xml:space="preserve" font-family="AvenirNext-Regular" font-size="26.6" fill="#000000" transform="matrix(1.00, 0.00, -0.00, -1.00, 314.5, 45.0)">о</text><text xml:space="preserve" font-family="AvenirNext-Regular" font-size="26.6" fill="#000000" transform="matrix(1.00, 0.00, -0.00, -1.00, 330.7, 45.0)">р</text><text xml:space="preserve" font-family="AvenirNext-Regular" font-size="26.6" fill="#000000" transform="matrix(1.00, 0.00, -0.00, -1.00, 347.6, 45.0)">и</text><text xml:space="preserve" font-family="AvenirNext-Regular" font-size="26.6" fill="#000000" transform="matrix(1.00, 0.00, -0.00, -1.00, 363.5, 45.0)">т</text><text xml:space="preserve" font-family="AvenirNext-Regular" font-size="26.6" fill="#000000" transform="matrix(1.00, 0.00, -0.00, -1.00, 374.9, 45.0)">ъ</text><text xml:space="preserve" font-family="AvenirNext-Regular" font-size="26.6" fill="#000000" transform="matrix(1.00, 0.00, -0.00, -1.00, 389.6, 45.0)">м</text><text xml:space="preserve" font-family="AvenirNext-Regular" font-size="26.6" fill="#000000" transform="matrix(1.00, 0.00, -0.00, -1.00, 408.0, 45.0)">)</text><text xml:space="preserve" font-family="AvenirNext-Regular" font-size="26.6" fill="#000000" transform="matrix(1.00, 0.00, -0.00, -1.00, 416.0, 45.0)"> </text><text xml:space="preserve" font-family="AvenirNext-Regular" font-size="26.6" fill="#000000" transform="matrix(1.00, 0.00, -0.00, -1.00, 422.6, 45.0)">н</text><text xml:space="preserve" font-family="AvenirNext-Regular" font-size="26.6" fill="#000000" transform="matrix(1.00, 0.00, -0.00, -1.00, 437.9, 45.0)">а</text><text xml:space="preserve" font-family="AvenirNext-Regular" font-size="26.6" fill="#000000" transform="matrix(1.00, 0.00, -0.00, -1.00, 452.1, 45.0)"> </text><text xml:space="preserve" font-family="AvenirNext-Regular" font-size="26.6" fill="#000000" transform="matrix(1.00, 0.00, -0.00, -1.00, 458.7, 45.0)">п</text><text xml:space="preserve" font-family="AvenirNext-Regular" font-size="26.6" fill="#000000" transform="matrix(1.00, 0.00, -0.00, -1.00, 473.8, 45.0)">р</text><text xml:space="preserve" font-family="AvenirNext-Regular" font-size="26.6" fill="#000000" transform="matrix(1.00, 0.00, -0.00, -1.00, 490.7, 45.0)">е</text><text xml:space="preserve" font-family="AvenirNext-Regular" font-size="26.6" fill="#000000" transform="matrix(1.00, 0.00, -0.00, -1.00, 505.9, 45.0)">х</text><text xml:space="preserve" font-family="AvenirNext-Regular" font-size="26.6" fill="#000000" transform="matrix(1.00, 0.00, -0.00, -1.00, 518.7, 45.0)">о</text><text xml:space="preserve" font-family="AvenirNext-Regular" font-size="26.6" fill="#000000" transform="matrix(1.00, 0.00, -0.00, -1.00, 534.9, 45.0)">д</text><text xml:space="preserve" font-family="AvenirNext-Regular" font-size="26.6" fill="#000000" transform="matrix(1.00, 0.00, -0.00, -1.00, 549.4, 45.0)">а</text><text xml:space="preserve" font-family="AvenirNext-Regular" font-size="26.6" fill="#000000" transform="matrix(1.00, 0.00, -0.00, -1.00, 563.6, 45.0)"> </text><text xml:space="preserve" font-family="AvenirNext-Regular" font-size="26.6" fill="#000000" transform="matrix(1.00, 0.00, -0.00, -1.00, 570.2, 45.0)">-</text><text xml:space="preserve" font-family="AvenirNext-Regular" font-size="26.6" fill="#000000" transform="matrix(1.00, 0.00, -0.00, -1.00, 578.7, 45.0)"> </text><text xml:space="preserve" font-family="AvenirNext-Regular" font-size="26.6" fill="#000000" transform="matrix(1.00, 0.00, -0.00, -1.00, 585.3, 45.0)">д</text><text xml:space="preserve" font-family="AvenirNext-Regular" font-size="26.6" fill="#000000" transform="matrix(1.00, 0.00, -0.00, -1.00, 599.8, 45.0)">а</text><text xml:space="preserve" font-family="AvenirNext-Regular" font-size="26.6" fill="#000000" transform="matrix(1.00, 0.00, -0.00, -1.00, 614.0, 45.0)">л</text><text xml:space="preserve" font-family="AvenirNext-Regular" font-size="26.6" fill="#000000" transform="matrix(1.00, 0.00, -0.00, -1.00, 627.2, 45.0)">и</text><text xml:space="preserve" font-family="AvenirNext-Regular" font-size="26.6" fill="#000000" transform="matrix(1.00, 0.00, -0.00, -1.00, 643.1, 45.0)"> </text><text xml:space="preserve" font-family="AvenirNext-Regular" font-size="26.6" fill="#000000" transform="matrix(1.00, 0.00, -0.00, -1.00, 649.7, 45.0)">п</text><text xml:space="preserve" font-family="AvenirNext-Regular" font-size="26.6" fill="#000000" transform="matrix(1.00, 0.00, -0.00, -1.00, 664.8, 45.0)">о</text><text xml:space="preserve" font-family="AvenirNext-Regular" font-size="26.6" fill="#000000" transform="matrix(1.00, 0.00, -0.00, -1.00, 681.0, 45.0)">с</text><text xml:space="preserve" font-family="AvenirNext-Regular" font-size="26.6" fill="#000000" transform="matrix(1.00, 0.00, -0.00, -1.00, 694.3, 45.0)">т</text><text xml:space="preserve" font-family="AvenirNext-Regular" font-size="26.6" fill="#000000" transform="matrix(1.00, 0.00, -0.00, -1.00, 705.7, 45.0)">е</text><text xml:space="preserve" font-family="AvenirNext-Regular" font-size="26.6" fill="#000000" transform="matrix(1.00, 0.00, -0.00, -1.00, 720.9, 45.0)">п</text><text xml:space="preserve" font-family="AvenirNext-Regular" font-size="26.6" fill="#000000" transform="matrix(1.00, 0.00, -0.00, -1.00, 736.0, 45.0)">е</text><text xml:space="preserve" font-family="AvenirNext-Regular" font-size="26.6" fill="#000000" transform="matrix(1.00, 0.00, -0.00, -1.00, 751.2, 45.0)">н</text><text xml:space="preserve" font-family="AvenirNext-Regular" font-size="26.6" fill="#000000" transform="matrix(1.00, 0.00, -0.00, -1.00, 766.5, 45.0)">н</text><text xml:space="preserve" font-family="AvenirNext-Regular" font-size="26.6" fill="#000000" transform="matrix(1.00, 0.00, -0.00, -1.00, 781.7, 45.0)">о</text><text xml:space="preserve" font-family="AvenirNext-Regular" font-size="26.6" fill="#000000" transform="matrix(1.00, 0.00, -0.00, -1.00, 798.0, 45.0)"> </text><text xml:space="preserve" font-family="AvenirNext-Regular" font-size="26.6" fill="#000000" transform="matrix(1.00, 0.00, -0.00, -1.00, 804.6, 45.0)">щ</text><text xml:space="preserve" font-family="AvenirNext-Regular" font-size="26.6" fill="#000000" transform="matrix(1.00, 0.00, -0.00, -1.00, 826.1, 45.0)">е</text><text xml:space="preserve" font-family="AvenirNext-Regular" font-size="26.6" fill="#000000" transform="matrix(1.00, 0.00, -0.00, -1.00, 841.3, 45.0)"> </text><text xml:space="preserve" font-family="AvenirNext-Regular" font-size="26.6" fill="#000000" transform="matrix(1.00, 0.00, -0.00, -1.00, 23.0, 8.0)">с</text><text xml:space="preserve" font-family="AvenirNext-Regular" font-size="26.6" fill="#000000" transform="matrix(1.00, 0.00, -0.00, -1.00, 36.3, 8.0)">е</text><text xml:space="preserve" font-family="AvenirNext-Regular" font-size="26.6" fill="#000000" transform="matrix(1.00, 0.00, -0.00, -1.00, 51.5, 8.0)"> </text><text xml:space="preserve" font-family="AvenirNext-Regular" font-size="26.6" fill="#000000" transform="matrix(1.00, 0.00, -0.00, -1.00, 58.1, 8.0)">с</text><text xml:space="preserve" font-family="AvenirNext-Regular" font-size="26.6" fill="#000000" transform="matrix(1.00, 0.00, -0.00, -1.00, 71.4, 8.0)">л</text><text xml:space="preserve" font-family="AvenirNext-Regular" font-size="26.6" fill="#000000" transform="matrix(1.00, 0.00, -0.00, -1.00, 84.6, 8.0)">у</text><text xml:space="preserve" font-family="AvenirNext-Regular" font-size="26.6" fill="#000000" transform="matrix(1.00, 0.00, -0.00, -1.00, 97.6, 8.0)">ч</text><text xml:space="preserve" font-family="AvenirNext-Regular" font-size="26.6" fill="#000000" transform="matrix(1.00, 0.00, -0.00, -1.00, 111.3, 8.0)">в</text><text xml:space="preserve" font-family="AvenirNext-Regular" font-size="26.6" fill="#000000" transform="matrix(1.00, 0.00, -0.00, -1.00, 125.6, 8.0)">а</text><text xml:space="preserve" font-family="AvenirNext-Regular" font-size="26.6" fill="#000000" transform="matrix(1.00, 0.00, -0.00, -1.00, 139.8, 8.0)"> </text><text xml:space="preserve" font-family="AvenirNext-Regular" font-size="26.6" fill="#000000" transform="matrix(1.00, 0.00, -0.00, -1.00, 146.5, 8.0)">(</text><text xml:space="preserve" font-family="AvenirNext-Regular" font-size="26.6" fill="#000000" transform="matrix(1.00, 0.00, -0.00, -1.00, 154.4, 8.0)">l</text><text xml:space="preserve" font-family="AvenirNext-Regular" font-size="26.6" fill="#000000" transform="matrix(1.00, 0.00, -0.00, -1.00, 161.1, 8.0)">i</text><text xml:space="preserve" font-family="AvenirNext-Regular" font-size="26.6" fill="#000000" transform="matrix(1.00, 0.00, -0.00, -1.00, 167.8, 8.0)">n</text><text xml:space="preserve" font-family="AvenirNext-Regular" font-size="26.6" fill="#000000" transform="matrix(1.00, 0.00, -0.00, -1.00, 183.2, 8.0)">e</text><text xml:space="preserve" font-family="AvenirNext-Regular" font-size="26.6" fill="#000000" transform="matrix(1.00, 0.00, -0.00, -1.00, 198.2, 8.0)">a</text><text xml:space="preserve" font-family="AvenirNext-Regular" font-size="26.6" fill="#000000" transform="matrix(1.00, 0.00, -0.00, -1.00, 212.4, 8.0)">r</text><text xml:space="preserve" font-family="AvenirNext-Regular" font-size="26.6" fill="#000000" transform="matrix(1.00, 0.00, -0.00, -1.00, 222.0, 8.0)">)</text><text xml:space="preserve" font-family="AvenirNext-Regular" font-size="26.6" fill="#000000" transform="matrix(1.00, 0.00, -0.00, -1.00, 229.9, 8.0)"> </text><text xml:space="preserve" font-family="AvenirNext-Regular" font-size="26.6" fill="#000000" transform="matrix(1.00, 0.00, -0.00, -1.00, 236.6, 8.0)">и</text><text xml:space="preserve" font-family="AvenirNext-Regular" font-size="26.6" fill="#000000" transform="matrix(1.00, 0.00, -0.00, -1.00, 252.5, 8.0)">л</text><text xml:space="preserve" font-family="AvenirNext-Regular" font-size="26.6" fill="#000000" transform="matrix(1.00, 0.00, -0.00, -1.00, 265.7, 8.0)">и</text><text xml:space="preserve" font-family="AvenirNext-Regular" font-size="26.6" fill="#000000" transform="matrix(1.00, 0.00, -0.00, -1.00, 281.6, 8.0)"> </text><text xml:space="preserve" font-family="AvenirNext-Regular" font-size="26.6" fill="#000000" transform="matrix(1.00, 0.00, -0.00, -1.00, 288.2, 8.0)">щ</text><text xml:space="preserve" font-family="AvenirNext-Regular" font-size="26.6" fill="#000000" transform="matrix(1.00, 0.00, -0.00, -1.00, 309.7, 8.0)">е</text><text xml:space="preserve" font-family="AvenirNext-Regular" font-size="26.6" fill="#000000" transform="matrix(1.00, 0.00, -0.00, -1.00, 324.9, 8.0)"> </text><text xml:space="preserve" font-family="AvenirNext-Regular" font-size="26.6" fill="#000000" transform="matrix(1.00, 0.00, -0.00, -1.00, 331.5, 8.0)">з</text><text xml:space="preserve" font-family="AvenirNext-Regular" font-size="26.6" fill="#000000" transform="matrix(1.00, 0.00, -0.00, -1.00, 343.8, 8.0)">а</text><text xml:space="preserve" font-family="AvenirNext-Regular" font-size="26.6" fill="#000000" transform="matrix(1.00, 0.00, -0.00, -1.00, 358.0, 8.0)">б</text><text xml:space="preserve" font-family="AvenirNext-Regular" font-size="26.6" fill="#000000" transform="matrix(1.00, 0.00, -0.00, -1.00, 373.9, 8.0)">а</text><text xml:space="preserve" font-family="AvenirNext-Regular" font-size="26.6" fill="#000000" transform="matrix(1.00, 0.00, -0.00, -1.00, 388.1, 8.0)">в</text><text xml:space="preserve" font-family="AvenirNext-Regular" font-size="26.6" fill="#000000" transform="matrix(1.00, 0.00, -0.00, -1.00, 402.5, 8.0)">я</text><text xml:space="preserve" font-family="AvenirNext-Regular" font-size="26.6" fill="#000000" transform="matrix(1.00, 0.00, -0.00, -1.00, 416.8, 8.0)"> </text><text xml:space="preserve" font-family="AvenirNext-Regular" font-size="26.6" fill="#000000" transform="matrix(1.00, 0.00, -0.00, -1.00, 423.4, 8.0)">в</text><text xml:space="preserve" font-family="AvenirNext-Regular" font-size="26.6" fill="#000000" transform="matrix(1.00, 0.00, -0.00, -1.00, 437.8, 8.0)"> </text><text xml:space="preserve" font-family="AvenirNext-Regular" font-size="26.6" fill="#000000" transform="matrix(1.00, 0.00, -0.00, -1.00, 444.5, 8.0)">н</text><text xml:space="preserve" font-family="AvenirNext-Regular" font-size="26.6" fill="#000000" transform="matrix(1.00, 0.00, -0.00, -1.00, 459.7, 8.0)">а</text><text xml:space="preserve" font-family="AvenirNext-Regular" font-size="26.6" fill="#000000" transform="matrix(1.00, 0.00, -0.00, -1.00, 473.9, 8.0)">ч</text><text xml:space="preserve" font-family="AvenirNext-Regular" font-size="26.6" fill="#000000" transform="matrix(1.00, 0.00, -0.00, -1.00, 487.6, 8.0)">а</text><text xml:space="preserve" font-family="AvenirNext-Regular" font-size="26.6" fill="#000000" transform="matrix(1.00, 0.00, -0.00, -1.00, 501.8, 8.0)">л</text><text xml:space="preserve" font-family="AvenirNext-Regular" font-size="26.6" fill="#000000" transform="matrix(1.00, 0.00, -0.00, -1.00, 515.0, 8.0)">о</text><text xml:space="preserve" font-family="AvenirNext-Regular" font-size="26.6" fill="#000000" transform="matrix(1.00, 0.00, -0.00, -1.00, 531.2, 8.0)">т</text><text xml:space="preserve" font-family="AvenirNext-Regular" font-size="26.6" fill="#000000" transform="matrix(1.00, 0.00, -0.00, -1.00, 542.7, 8.0)">о</text><text xml:space="preserve" font-family="AvenirNext-Regular" font-size="26.6" fill="#000000" transform="matrix(1.00, 0.00, -0.00, -1.00, 558.9, 8.0)"> </text><text xml:space="preserve" font-family="AvenirNext-Regular" font-size="26.6" fill="#000000" transform="matrix(1.00, 0.00, -0.00, -1.00, 565.5, 8.0)">и</text><text xml:space="preserve" font-family="AvenirNext-Regular" font-size="26.6" fill="#000000" transform="matrix(1.00, 0.00, -0.00, -1.00, 581.5, 8.0)"> </text><text xml:space="preserve" font-family="AvenirNext-Regular" font-size="26.6" fill="#000000" transform="matrix(1.00, 0.00, -0.00, -1.00, 588.1, 8.0)">к</text><text xml:space="preserve" font-family="AvenirNext-Regular" font-size="26.6" fill="#000000" transform="matrix(1.00, 0.00, -0.00, -1.00, 602.5, 8.0)">р</text><text xml:space="preserve" font-family="AvenirNext-Regular" font-size="26.6" fill="#000000" transform="matrix(1.00, 0.00, -0.00, -1.00, 619.4, 8.0)">а</text><text xml:space="preserve" font-family="AvenirNext-Regular" font-size="26.6" fill="#000000" transform="matrix(1.00, 0.00, -0.00, -1.00, 633.6, 8.0)">я</text><text xml:space="preserve" font-family="AvenirNext-Regular" font-size="26.6" fill="#000000" transform="matrix(1.00, 0.00, -0.00, -1.00, 647.9, 8.0)"> </text><text xml:space="preserve" font-family="AvenirNext-Regular" font-size="26.6" fill="#000000" transform="matrix(1.00, 0.00, -0.00, -1.00, 654.5, 8.0)">(</text><text xml:space="preserve" font-family="AvenirNext-Regular" font-size="26.6" fill="#000000" transform="matrix(1.00, 0.00, -0.00, -1.00, 662.5, 8.0)">e</text><text xml:space="preserve" font-family="AvenirNext-Regular" font-size="26.6" fill="#000000" transform="matrix(1.00, 0.00, -0.00, -1.00, 677.5, 8.0)">a</text><text xml:space="preserve" font-family="AvenirNext-Regular" font-size="26.6" fill="#000000" transform="matrix(1.00, 0.00, -0.00, -1.00, 691.7, 8.0)">s</text><text xml:space="preserve" font-family="AvenirNext-Regular" font-size="26.6" fill="#000000" transform="matrix(1.00, 0.00, -0.00, -1.00, 703.5, 8.0)">e</text><text xml:space="preserve" font-family="AvenirNext-Regular" font-size="26.6" fill="#000000" transform="matrix(1.00, 0.00, -0.00, -1.00, 718.7, 8.0)">-</text><text xml:space="preserve" font-family="AvenirNext-Regular" font-size="26.6" fill="#000000" transform="matrix(1.00, 0.00, -0.00, -1.00, 727.2, 8.0)">i</text><text xml:space="preserve" font-family="AvenirNext-Regular" font-size="26.6" fill="#000000" transform="matrix(1.00, 0.00, -0.00, -1.00, 733.8, 8.0)">n</text><text xml:space="preserve" font-family="AvenirNext-Regular" font-size="26.6" fill="#000000" transform="matrix(1.00, 0.00, -0.00, -1.00, 749.3, 8.0)">-</text><text xml:space="preserve" font-family="AvenirNext-Regular" font-size="26.6" fill="#000000" transform="matrix(1.00, 0.00, -0.00, -1.00, 757.8, 8.0)">o</text><text xml:space="preserve" font-family="AvenirNext-Regular" font-size="26.6" fill="#000000" transform="matrix(1.00, 0.00, -0.00, -1.00, 774.0, 8.0)">u</text><text xml:space="preserve" font-family="AvenirNext-Regular" font-size="26.6" fill="#000000" transform="matrix(1.00, 0.00, -0.00, -1.00, 789.4, 8.0)">t</text><text xml:space="preserve" font-family="AvenirNext-Regular" font-size="26.6" fill="#000000" transform="matrix(1.00, 0.00, -0.00, -1.00, 797.8, 8.0)">)</text></g></svg>