<?xml version="1.0" encoding="UTF-8" standalone="no"?><svg xmlns="http://www.w3.org/2000/svg" xmlns:xlink="http://www.w3.org/1999/xlink" clip-rule="evenodd" stroke-miterlimit="4.00" viewBox="0 0 625 28"><desc>SVG generated by Keynote</desc><defs></defs><g transform="matrix(1.00, 0.00, -0.00, -1.00, 0.0, 28.0)"><text xml:space="preserve" font-family="AvenirNext-Regular" font-size="19.9" fill="#000000" transform="matrix(1.00, 0.00, -0.00, -1.00, 0.2, 10.4)">•</text><text xml:space="preserve" font-family="Courier" font-size="26.6" fill="#000000" transform="matrix(1.00, 0.00, -0.00, -1.00, 23.0, 7.0)">t</text><text xml:space="preserve" font-family="Courier" font-size="26.6" fill="#000000" transform="matrix(1.00, 0.00, -0.00, -1.00, 38.9, 7.0)">r</text><text xml:space="preserve" font-family="Courier" font-size="26.6" fill="#000000" transform="matrix(1.00, 0.00, -0.00, -1.00, 54.9, 7.0)">a</text><text xml:space="preserve" font-family="Courier" font-size="26.6" fill="#000000" transform="matrix(1.00, 0.00, -0.00, -1.00, 70.8, 7.0)">n</text><text xml:space="preserve" font-family="Courier" font-size="26.6" fill="#000000" transform="matrix(1.00, 0.00, -0.00, -1.00, 86.8, 7.0)">s</text><text xml:space="preserve" font-family="Courier" font-size="26.6" fill="#000000" transform="matrix(1.00, 0.00, -0.00, -1.00, 102.7, 7.0)">i</text><text xml:space="preserve" font-family="Courier" font-size="26.6" fill="#000000" transform="matrix(1.00, 0.00, -0.00, -1.00, 118.6, 7.0)">t</text><text xml:space="preserve" font-family="Courier" font-size="26.6" fill="#000000" transform="matrix(1.00, 0.00, -0.00, -1.00, 134.6, 7.0)">i</text><text xml:space="preserve" font-family="Courier" font-size="26.6" fill="#000000" transform="matrix(1.00, 0.00, -0.00, -1.00, 150.5, 7.0)">o</text><text xml:space="preserve" font-family="Courier" font-size="26.6" fill="#000000" transform="matrix(1.00, 0.00, -0.00, -1.00, 166.5, 7.0)">n</text><text xml:space="preserve" font-family="Courier" font-size="26.6" fill="#000000" transform="matrix(1.00, 0.00, -0.00, -1.00, 182.4, 7.0)"> </text><text xml:space="preserve" font-family="Courier" font-size="26.6" fill="#000000" transform="matrix(1.00, 0.00, -0.00, -1.00, 198.4, 7.0)">&lt;</text><text xml:space="preserve" font-family="Courier" font-size="26.6" fill="#000000" transform="matrix(1.00, 0.00, -0.00, -1.00, 214.3, 7.0)">P</text><text xml:space="preserve" font-family="Courier" font-size="26.6" fill="#000000" transform="matrix(1.00, 0.00, -0.00, -1.00, 230.2, 7.0)">R</text><text xml:space="preserve" font-family="Courier" font-size="26.6" fill="#000000" transform="matrix(1.00, 0.00, -0.00, -1.00, 246.2, 7.0)">O</text><text xml:space="preserve" font-family="Courier" font-size="26.6" fill="#000000" transform="matrix(1.00, 0.00, -0.00, -1.00, 262.1, 7.0)">P</text><text xml:space="preserve" font-family="Courier" font-size="26.6" fill="#000000" transform="matrix(1.00, 0.00, -0.00, -1.00, 278.1, 7.0)">E</text><text xml:space="preserve" font-family="Courier" font-size="26.6" fill="#000000" transform="matrix(1.00, 0.00, -0.00, -1.00, 294.0, 7.0)">R</text><text xml:space="preserve" font-family="Courier" font-size="26.6" fill="#000000" transform="matrix(1.00, 0.00, -0.00, -1.00, 309.9, 7.0)">T</text><text xml:space="preserve" font-family="Courier" font-size="26.6" fill="#000000" transform="matrix(1.00, 0.00, -0.00, -1.00, 325.9, 7.0)">Y</text><text xml:space="preserve" font-family="Courier" font-size="26.6" fill="#000000" transform="matrix(1.00, 0.00, -0.00, -1.00, 341.8, 7.0)">&gt;</text><text xml:space="preserve" font-family="Courier" font-size="26.6" fill="#000000" transform="matrix(1.00, 0.00, -0.00, -1.00, 357.8, 7.0)"> </text><text xml:space="preserve" font-family="Courier" font-size="26.6" fill="#000000" transform="matrix(1.00, 0.00, -0.00, -1.00, 373.7, 7.0)">&lt;</text><text xml:space="preserve" font-family="Courier" font-size="26.6" fill="#000000" transform="matrix(1.00, 0.00, -0.00, -1.00, 389.6, 7.0)">T</text><text xml:space="preserve" font-family="Courier" font-size="26.6" fill="#000000" transform="matrix(1.00, 0.00, -0.00, -1.00, 405.6, 7.0)">I</text><text xml:space="preserve" font-family="Courier" font-size="26.6" fill="#000000" transform="matrix(1.00, 0.00, -0.00, -1.00, 421.5, 7.0)">M</text><text xml:space="preserve" font-family="Courier" font-size="26.6" fill="#000000" transform="matrix(1.00, 0.00, -0.00, -1.00, 437.5, 7.0)">E</text><text xml:space="preserve" font-family="Courier" font-size="26.6" fill="#000000" transform="matrix(1.00, 0.00, -0.00, -1.00, 453.4, 7.0)">&gt;</text><text xml:space="preserve" font-family="Courier" font-size="26.6" fill="#000000" transform="matrix(1.00, 0.00, -0.00, -1.00, 469.4, 7.0)"> </text><text xml:space="preserve" font-family="Courier" font-size="26.6" fill="#000000" transform="matrix(1.00, 0.00, -0.00, -1.00, 485.3, 7.0)">&lt;</text><text xml:space="preserve" font-family="Courier" font-size="26.6" fill="#000000" transform="matrix(1.00, 0.00, -0.00, -1.00, 501.2, 7.0)">M</text><text xml:space="preserve" font-family="Courier" font-size="26.6" fill="#000000" transform="matrix(1.00, 0.00, -0.00, -1.00, 517.2, 7.0)">E</text><text xml:space="preserve" font-family="Courier" font-size="26.6" fill="#000000" transform="matrix(1.00, 0.00, -0.00, -1.00, 533.1, 7.0)">T</text><text xml:space="preserve" font-family="Courier" font-size="26.6" fill="#000000" transform="matrix(1.00, 0.00, -0.00, -1.00, 549.1, 7.0)">H</text><text xml:space="preserve" font-family="Courier" font-size="26.6" fill="#000000" transform="matrix(1.00, 0.00, -0.00, -1.00, 565.0, 7.0)">O</text><text xml:space="preserve" font-family="Courier" font-size="26.6" fill="#000000" transform="matrix(1.00, 0.00, -0.00, -1.00, 580.9, 7.0)">D</text><text xml:space="preserve" font-family="Courier" font-size="26.6" fill="#000000" transform="matrix(1.00, 0.00, -0.00, -1.00, 596.9, 7.0)">&gt;</text><text xml:space="preserve" font-family="Courier" font-size="26.6" fill="#000000" transform="matrix(1.00, 0.00, -0.00, -1.00, 612.8, 7.0)">;</text></g></svg>