<?xml version="1.0" encoding="UTF-8" standalone="no"?><svg xmlns="http://www.w3.org/2000/svg" xmlns:xlink="http://www.w3.org/1999/xlink" clip-rule="evenodd" stroke-miterlimit="4.00" viewBox="0 0 1024 768"><desc>SVG generated by Keynote</desc><defs></defs><g transform="matrix(1.00, 0.00, -0.00, -1.00, 0.0, 768.0)"><g><clipPath id="clip-450"><path d="M 0.0 768.0 L 1024.0 768.0 L 1024.0 0.0 L 0.0 0.0 Z M 0.0 768.0 "></path></clipPath><g clip-path="url(#clip-450)"><image xlink:href="../../F3A67573-A2F2-4CB0-9E39-F1DCDA2903A2/assets/AC39DDDA7F4B68AA81B60DCA4AD5F611.png" width="864.00" height="540.00" transform="matrix(1.19, 0.00, -0.00, -1.42, 0.0, 768.0)"></image></g></g><text xml:space="preserve" font-family="AvenirNext-Regular" font-size="60.0" fill="#000000" transform="matrix(1.00, 0.00, -0.00, -1.00, 293.0, 629.0)">П</text><text xml:space="preserve" font-family="AvenirNext-Regular" font-size="60.0" fill="#000000" transform="matrix(1.00, 0.00, -0.00, -1.00, 334.9, 629.0)">о</text><text xml:space="preserve" font-family="AvenirNext-Regular" font-size="60.0" fill="#000000" transform="matrix(1.00, 0.00, -0.00, -1.00, 371.5, 629.0)">л</text><text xml:space="preserve" font-family="AvenirNext-Regular" font-size="60.0" fill="#000000" transform="matrix(1.00, 0.00, -0.00, -1.00, 401.4, 629.0)">е</text><text xml:space="preserve" font-family="AvenirNext-Regular" font-size="60.0" fill="#000000" transform="matrix(1.00, 0.00, -0.00, -1.00, 435.7, 629.0)">з</text><text xml:space="preserve" font-family="AvenirNext-Regular" font-size="60.0" fill="#000000" transform="matrix(1.00, 0.00, -0.00, -1.00, 463.5, 629.0)">н</text><text xml:space="preserve" font-family="AvenirNext-Regular" font-size="60.0" fill="#000000" transform="matrix(1.00, 0.00, -0.00, -1.00, 498.0, 629.0)">и</text><text xml:space="preserve" font-family="AvenirNext-Regular" font-size="60.0" fill="#000000" transform="matrix(1.00, 0.00, -0.00, -1.00, 533.9, 629.0)"> </text><text xml:space="preserve" font-family="AvenirNext-Regular" font-size="60.0" fill="#000000" transform="matrix(1.00, 0.00, -0.00, -1.00, 548.9, 629.0)">в</text><text xml:space="preserve" font-family="AvenirNext-Regular" font-size="60.0" fill="#000000" transform="matrix(1.00, 0.00, -0.00, -1.00, 581.4, 629.0)">р</text><text xml:space="preserve" font-family="AvenirNext-Regular" font-size="60.0" fill="#000000" transform="matrix(1.00, 0.00, -0.00, -1.00, 619.5, 629.0)">ъ</text><text xml:space="preserve" font-family="AvenirNext-Regular" font-size="60.0" fill="#000000" transform="matrix(1.00, 0.00, -0.00, -1.00, 652.6, 629.0)">з</text><text xml:space="preserve" font-family="AvenirNext-Regular" font-size="60.0" fill="#000000" transform="matrix(1.00, 0.00, -0.00, -1.00, 680.4, 629.0)">к</text><text xml:space="preserve" font-family="AvenirNext-Regular" font-size="60.0" fill="#000000" transform="matrix(1.00, 0.00, -0.00, -1.00, 712.9, 629.0)">и</text><text xml:space="preserve" font-family="AvenirNext-Regular" font-size="28.8" fill="#000000" transform="matrix(1.00, 0.00, -0.00, -1.00, 79.0, 528.5)">•</text><text xml:space="preserve" font-family="AvenirNext-Regular" font-size="28.8" fill="#000000" transform="matrix(1.00, 0.00, -0.00, -1.00, 126.0, 529.0)">W</text><text xml:space="preserve" font-family="AvenirNext-Regular" font-size="28.8" fill="#000000" transform="matrix(1.00, 0.00, -0.00, -1.00, 154.0, 529.0)">3</text><text xml:space="preserve" font-family="AvenirNext-Regular" font-size="28.8" fill="#000000" transform="matrix(1.00, 0.00, -0.00, -1.00, 170.7, 529.0)">S</text><text xml:space="preserve" font-family="AvenirNext-Regular" font-size="28.8" fill="#000000" transform="matrix(1.00, 0.00, -0.00, -1.00, 186.9, 529.0)">c</text><text xml:space="preserve" font-family="AvenirNext-Regular" font-size="28.8" fill="#000000" transform="matrix(1.00, 0.00, -0.00, -1.00, 201.3, 529.0)">h</text><text xml:space="preserve" font-family="AvenirNext-Regular" font-size="28.8" fill="#000000" transform="matrix(1.00, 0.00, -0.00, -1.00, 218.1, 529.0)">o</text><text xml:space="preserve" font-family="AvenirNext-Regular" font-size="28.8" fill="#000000" transform="matrix(1.00, 0.00, -0.00, -1.00, 235.7, 529.0)">o</text><text xml:space="preserve" font-family="AvenirNext-Regular" font-size="28.8" fill="#000000" transform="matrix(1.00, 0.00, -0.00, -1.00, 253.3, 529.0)">l</text><text xml:space="preserve" font-family="AvenirNext-Regular" font-size="28.8" fill="#000000" transform="matrix(1.00, 0.00, -0.00, -1.00, 260.6, 529.0)">s</text><text xml:space="preserve" font-family="AvenirNext-Regular" font-size="28.8" fill="#000000" transform="matrix(1.00, 0.00, -0.00, -1.00, 273.4, 529.0)"> </text><text xml:space="preserve" font-family="AvenirNext-Regular" font-size="28.8" fill="#000000" transform="matrix(1.00, 0.00, -0.00, -1.00, 139.0, 458.0)">–</text><text xml:space="preserve" font-family="AvenirNext-Regular" font-size="28.8" fill="#000000" transform="matrix(1.00, 0.00, -0.00, -1.00, 150.5, 458.0)"> </text><text xml:space="preserve" font-family="AvenirNext-Regular" font-size="28.8" fill="#000000" transform="matrix(1.00, 0.00, -0.00, -1.00, 157.7, 458.0)">h</text><text xml:space="preserve" font-family="AvenirNext-Regular" font-size="28.8" fill="#000000" transform="matrix(1.00, 0.00, -0.00, -1.00, 174.5, 458.0)">t</text><text xml:space="preserve" font-family="AvenirNext-Regular" font-size="28.8" fill="#000000" transform="matrix(1.00, 0.00, -0.00, -1.00, 183.3, 458.0)">t</text><text xml:space="preserve" font-family="AvenirNext-Regular" font-size="28.8" fill="#000000" transform="matrix(1.00, 0.00, -0.00, -1.00, 192.4, 458.0)">p</text><text xml:space="preserve" font-family="AvenirNext-Regular" font-size="28.8" fill="#000000" transform="matrix(1.00, 0.00, -0.00, -1.00, 210.7, 458.0)">:</text><text xml:space="preserve" font-family="AvenirNext-Regular" font-size="28.8" fill="#000000" transform="matrix(1.00, 0.00, -0.00, -1.00, 219.4, 458.0)">/</text><text xml:space="preserve" font-family="AvenirNext-Regular" font-size="28.8" fill="#000000" transform="matrix(1.00, 0.00, -0.00, -1.00, 230.0, 458.0)">/</text><text xml:space="preserve" font-family="AvenirNext-Regular" font-size="28.8" fill="#000000" transform="matrix(1.00, 0.00, -0.00, -1.00, 240.7, 458.0)">w</text><text xml:space="preserve" font-family="AvenirNext-Regular" font-size="28.8" fill="#000000" transform="matrix(1.00, 0.00, -0.00, -1.00, 262.1, 458.0)">w</text><text xml:space="preserve" font-family="AvenirNext-Regular" font-size="28.8" fill="#000000" transform="matrix(1.00, 0.00, -0.00, -1.00, 283.6, 458.0)">w</text><text xml:space="preserve" font-family="AvenirNext-Regular" font-size="28.8" fill="#000000" transform="matrix(1.00, 0.00, -0.00, -1.00, 304.1, 458.0)">.</text><text xml:space="preserve" font-family="AvenirNext-Regular" font-size="28.8" fill="#000000" transform="matrix(1.00, 0.00, -0.00, -1.00, 311.6, 458.0)">w</text><text xml:space="preserve" font-family="AvenirNext-Regular" font-size="28.8" fill="#000000" transform="matrix(1.00, 0.00, -0.00, -1.00, 333.1, 458.0)">3</text><text xml:space="preserve" font-family="AvenirNext-Regular" font-size="28.8" fill="#000000" transform="matrix(1.00, 0.00, -0.00, -1.00, 349.8, 458.0)">s</text><text xml:space="preserve" font-family="AvenirNext-Regular" font-size="28.8" fill="#000000" transform="matrix(1.00, 0.00, -0.00, -1.00, 362.5, 458.0)">c</text><text xml:space="preserve" font-family="AvenirNext-Regular" font-size="28.8" fill="#000000" transform="matrix(1.00, 0.00, -0.00, -1.00, 376.9, 458.0)">h</text><text xml:space="preserve" font-family="AvenirNext-Regular" font-size="28.8" fill="#000000" transform="matrix(1.00, 0.00, -0.00, -1.00, 393.7, 458.0)">o</text><text xml:space="preserve" font-family="AvenirNext-Regular" font-size="28.8" fill="#000000" transform="matrix(1.00, 0.00, -0.00, -1.00, 411.3, 458.0)">o</text><text xml:space="preserve" font-family="AvenirNext-Regular" font-size="28.8" fill="#000000" transform="matrix(1.00, 0.00, -0.00, -1.00, 428.9, 458.0)">l</text><text xml:space="preserve" font-family="AvenirNext-Regular" font-size="28.8" fill="#000000" transform="matrix(1.00, 0.00, -0.00, -1.00, 436.2, 458.0)">s</text><text xml:space="preserve" font-family="AvenirNext-Regular" font-size="28.8" fill="#000000" transform="matrix(1.00, 0.00, -0.00, -1.00, 449.0, 458.0)">.</text><text xml:space="preserve" font-family="AvenirNext-Regular" font-size="28.8" fill="#000000" transform="matrix(1.00, 0.00, -0.00, -1.00, 456.5, 458.0)">c</text><text xml:space="preserve" font-family="AvenirNext-Regular" font-size="28.8" fill="#000000" transform="matrix(1.00, 0.00, -0.00, -1.00, 470.9, 458.0)">o</text><text xml:space="preserve" font-family="AvenirNext-Regular" font-size="28.8" fill="#000000" transform="matrix(1.00, 0.00, -0.00, -1.00, 488.5, 458.0)">m</text><text xml:space="preserve" font-family="AvenirNext-Regular" font-size="28.8" fill="#000000" transform="matrix(1.00, 0.00, -0.00, -1.00, 513.9, 458.0)">/</text><text xml:space="preserve" font-family="AvenirNext-Regular" font-size="28.8" fill="#000000" transform="matrix(1.00, 0.00, -0.00, -1.00, 524.5, 458.0)"> </text><g><clipPath id="clip-451"><path d="M 156.9 454.4 L 524.7 454.4 L 524.7 457.9 L 156.9 457.9 Z M 156.9 454.4 "></path></clipPath><g clip-path="url(#clip-451)"><path d="M 82.9 106.9 L 449.7 106.9 " fill="none" stroke="#000000" stroke-width="1.44" stroke-miterlimit="0.00" transform="matrix(1.00, 0.00, 0.00, -1.00, 75.0, 563.0)"></path></g></g><text xml:space="preserve" font-family="AvenirNext-Regular" font-size="28.8" fill="#000000" transform="matrix(1.00, 0.00, -0.00, -1.00, 79.0, 388.1)">•</text><text xml:space="preserve" font-family="AvenirNext-Regular" font-size="28.8" fill="#000000" transform="matrix(1.00, 0.00, -0.00, -1.00, 126.0, 388.0)">C</text><text xml:space="preserve" font-family="AvenirNext-Regular" font-size="28.8" fill="#000000" transform="matrix(1.00, 0.00, -0.00, -1.00, 146.4, 388.0)">o</text><text xml:space="preserve" font-family="AvenirNext-Regular" font-size="28.8" fill="#000000" transform="matrix(1.00, 0.00, -0.00, -1.00, 164.0, 388.0)">d</text><text xml:space="preserve" font-family="AvenirNext-Regular" font-size="28.8" fill="#000000" transform="matrix(1.00, 0.00, -0.00, -1.00, 182.3, 388.0)">e</text><text xml:space="preserve" font-family="AvenirNext-Regular" font-size="28.8" fill="#000000" transform="matrix(1.00, 0.00, -0.00, -1.00, 198.8, 388.0)">P</text><text xml:space="preserve" font-family="AvenirNext-Regular" font-size="28.8" fill="#000000" transform="matrix(1.00, 0.00, -0.00, -1.00, 213.4, 388.0)">e</text><text xml:space="preserve" font-family="AvenirNext-Regular" font-size="28.8" fill="#000000" transform="matrix(1.00, 0.00, -0.00, -1.00, 229.9, 388.0)">n</text><text xml:space="preserve" font-family="AvenirNext-Regular" font-size="28.8" fill="#000000" transform="matrix(1.00, 0.00, -0.00, -1.00, 246.6, 388.0)"> </text><text xml:space="preserve" font-family="AvenirNext-Regular" font-size="28.8" fill="#000000" transform="matrix(1.00, 0.00, -0.00, -1.00, 139.0, 318.0)">–</text><text xml:space="preserve" font-family="AvenirNext-Regular" font-size="28.8" fill="#000000" transform="matrix(1.00, 0.00, -0.00, -1.00, 150.5, 318.0)"> </text><text xml:space="preserve" font-family="AvenirNext-Regular" font-size="28.8" fill="#000000" transform="matrix(1.00, 0.00, -0.00, -1.00, 157.7, 318.0)">h</text><text xml:space="preserve" font-family="AvenirNext-Regular" font-size="28.8" fill="#000000" transform="matrix(1.00, 0.00, -0.00, -1.00, 174.5, 318.0)">t</text><text xml:space="preserve" font-family="AvenirNext-Regular" font-size="28.8" fill="#000000" transform="matrix(1.00, 0.00, -0.00, -1.00, 183.3, 318.0)">t</text><text xml:space="preserve" font-family="AvenirNext-Regular" font-size="28.8" fill="#000000" transform="matrix(1.00, 0.00, -0.00, -1.00, 192.4, 318.0)">p</text><text xml:space="preserve" font-family="AvenirNext-Regular" font-size="28.8" fill="#000000" transform="matrix(1.00, 0.00, -0.00, -1.00, 210.7, 318.0)">:</text><text xml:space="preserve" font-family="AvenirNext-Regular" font-size="28.8" fill="#000000" transform="matrix(1.00, 0.00, -0.00, -1.00, 219.4, 318.0)">/</text><text xml:space="preserve" font-family="AvenirNext-Regular" font-size="28.8" fill="#000000" transform="matrix(1.00, 0.00, -0.00, -1.00, 230.0, 318.0)">/</text><text xml:space="preserve" font-family="AvenirNext-Regular" font-size="28.8" fill="#000000" transform="matrix(1.00, 0.00, -0.00, -1.00, 240.7, 318.0)">c</text><text xml:space="preserve" font-family="AvenirNext-Regular" font-size="28.8" fill="#000000" transform="matrix(1.00, 0.00, -0.00, -1.00, 255.1, 318.0)">o</text><text xml:space="preserve" font-family="AvenirNext-Regular" font-size="28.8" fill="#000000" transform="matrix(1.00, 0.00, -0.00, -1.00, 272.7, 318.0)">d</text><text xml:space="preserve" font-family="AvenirNext-Regular" font-size="28.8" fill="#000000" transform="matrix(1.00, 0.00, -0.00, -1.00, 291.0, 318.0)">e</text><text xml:space="preserve" font-family="AvenirNext-Regular" font-size="28.8" fill="#000000" transform="matrix(1.00, 0.00, -0.00, -1.00, 307.5, 318.0)">p</text><text xml:space="preserve" font-family="AvenirNext-Regular" font-size="28.8" fill="#000000" transform="matrix(1.00, 0.00, -0.00, -1.00, 325.8, 318.0)">e</text><text xml:space="preserve" font-family="AvenirNext-Regular" font-size="28.8" fill="#000000" transform="matrix(1.00, 0.00, -0.00, -1.00, 342.2, 318.0)">n</text><text xml:space="preserve" font-family="AvenirNext-Regular" font-size="28.8" fill="#000000" transform="matrix(1.00, 0.00, -0.00, -1.00, 359.0, 318.0)">.</text><text xml:space="preserve" font-family="AvenirNext-Regular" font-size="28.8" fill="#000000" transform="matrix(1.00, 0.00, -0.00, -1.00, 366.5, 318.0)">i</text><text xml:space="preserve" font-family="AvenirNext-Regular" font-size="28.8" fill="#000000" transform="matrix(1.00, 0.00, -0.00, -1.00, 373.7, 318.0)">o</text><text xml:space="preserve" font-family="AvenirNext-Regular" font-size="28.8" fill="#000000" transform="matrix(1.00, 0.00, -0.00, -1.00, 391.3, 318.0)">/</text><text xml:space="preserve" font-family="AvenirNext-Regular" font-size="28.8" fill="#000000" transform="matrix(1.00, 0.00, -0.00, -1.00, 401.9, 318.0)"> </text><g><clipPath id="clip-452"><path d="M 156.9 313.9 L 402.1 313.9 L 402.1 317.4 L 156.9 317.4 Z M 156.9 313.9 "></path></clipPath><g clip-path="url(#clip-452)"><path d="M 82.9 247.3 L 327.1 247.3 " fill="none" stroke="#000000" stroke-width="1.44" stroke-miterlimit="0.00" transform="matrix(1.00, 0.00, 0.00, -1.00, 75.0, 563.0)"></path></g></g><text xml:space="preserve" font-family="AvenirNext-Regular" font-size="28.8" fill="#000000" transform="matrix(1.00, 0.00, -0.00, -1.00, 79.0, 247.6)">•</text><text xml:space="preserve" font-family="AvenirNext-Regular" font-size="28.8" fill="#000000" transform="matrix(1.00, 0.00, -0.00, -1.00, 126.0, 248.0)">B</text><text xml:space="preserve" font-family="AvenirNext-Regular" font-size="28.8" fill="#000000" transform="matrix(1.00, 0.00, -0.00, -1.00, 144.3, 248.0)">r</text><text xml:space="preserve" font-family="AvenirNext-Regular" font-size="28.8" fill="#000000" transform="matrix(1.00, 0.00, -0.00, -1.00, 154.3, 248.0)">a</text><text xml:space="preserve" font-family="AvenirNext-Regular" font-size="28.8" fill="#000000" transform="matrix(1.00, 0.00, -0.00, -1.00, 169.7, 248.0)">c</text><text xml:space="preserve" font-family="AvenirNext-Regular" font-size="28.8" fill="#000000" transform="matrix(1.00, 0.00, -0.00, -1.00, 184.1, 248.0)">k</text><text xml:space="preserve" font-family="AvenirNext-Regular" font-size="28.8" fill="#000000" transform="matrix(1.00, 0.00, -0.00, -1.00, 198.3, 248.0)">e</text><text xml:space="preserve" font-family="AvenirNext-Regular" font-size="28.8" fill="#000000" transform="matrix(1.00, 0.00, -0.00, -1.00, 214.8, 248.0)">t</text><text xml:space="preserve" font-family="AvenirNext-Regular" font-size="28.8" fill="#000000" transform="matrix(1.00, 0.00, -0.00, -1.00, 223.9, 248.0)">s</text><text xml:space="preserve" font-family="AvenirNext-Regular" font-size="28.8" fill="#000000" transform="matrix(1.00, 0.00, -0.00, -1.00, 236.7, 248.0)"> </text><text xml:space="preserve" font-family="AvenirNext-Regular" font-size="28.8" fill="#000000" transform="matrix(1.00, 0.00, -0.00, -1.00, 139.0, 177.0)">–</text><text xml:space="preserve" font-family="AvenirNext-Regular" font-size="28.8" fill="#000000" transform="matrix(1.00, 0.00, -0.00, -1.00, 150.5, 177.0)"> </text><text xml:space="preserve" font-family="AvenirNext-Regular" font-size="28.8" fill="#000000" transform="matrix(1.00, 0.00, -0.00, -1.00, 157.7, 177.0)">h</text><text xml:space="preserve" font-family="AvenirNext-Regular" font-size="28.8" fill="#000000" transform="matrix(1.00, 0.00, -0.00, -1.00, 174.5, 177.0)">t</text><text xml:space="preserve" font-family="AvenirNext-Regular" font-size="28.8" fill="#000000" transform="matrix(1.00, 0.00, -0.00, -1.00, 183.3, 177.0)">t</text><text xml:space="preserve" font-family="AvenirNext-Regular" font-size="28.8" fill="#000000" transform="matrix(1.00, 0.00, -0.00, -1.00, 192.4, 177.0)">p</text><text xml:space="preserve" font-family="AvenirNext-Regular" font-size="28.8" fill="#000000" transform="matrix(1.00, 0.00, -0.00, -1.00, 210.7, 177.0)">:</text><text xml:space="preserve" font-family="AvenirNext-Regular" font-size="28.8" fill="#000000" transform="matrix(1.00, 0.00, -0.00, -1.00, 219.4, 177.0)">/</text><text xml:space="preserve" font-family="AvenirNext-Regular" font-size="28.8" fill="#000000" transform="matrix(1.00, 0.00, -0.00, -1.00, 230.0, 177.0)">/</text><text xml:space="preserve" font-family="AvenirNext-Regular" font-size="28.8" fill="#000000" transform="matrix(1.00, 0.00, -0.00, -1.00, 240.7, 177.0)">b</text><text xml:space="preserve" font-family="AvenirNext-Regular" font-size="28.8" fill="#000000" transform="matrix(1.00, 0.00, -0.00, -1.00, 259.0, 177.0)">r</text><text xml:space="preserve" font-family="AvenirNext-Regular" font-size="28.8" fill="#000000" transform="matrix(1.00, 0.00, -0.00, -1.00, 269.0, 177.0)">a</text><text xml:space="preserve" font-family="AvenirNext-Regular" font-size="28.8" fill="#000000" transform="matrix(1.00, 0.00, -0.00, -1.00, 284.4, 177.0)">c</text><text xml:space="preserve" font-family="AvenirNext-Regular" font-size="28.8" fill="#000000" transform="matrix(1.00, 0.00, -0.00, -1.00, 298.8, 177.0)">k</text><text xml:space="preserve" font-family="AvenirNext-Regular" font-size="28.8" fill="#000000" transform="matrix(1.00, 0.00, -0.00, -1.00, 313.0, 177.0)">e</text><text xml:space="preserve" font-family="AvenirNext-Regular" font-size="28.8" fill="#000000" transform="matrix(1.00, 0.00, -0.00, -1.00, 329.5, 177.0)">t</text><text xml:space="preserve" font-family="AvenirNext-Regular" font-size="28.8" fill="#000000" transform="matrix(1.00, 0.00, -0.00, -1.00, 338.6, 177.0)">s</text><text xml:space="preserve" font-family="AvenirNext-Regular" font-size="28.8" fill="#000000" transform="matrix(1.00, 0.00, -0.00, -1.00, 351.4, 177.0)">.</text><text xml:space="preserve" font-family="AvenirNext-Regular" font-size="28.8" fill="#000000" transform="matrix(1.00, 0.00, -0.00, -1.00, 358.9, 177.0)">i</text><text xml:space="preserve" font-family="AvenirNext-Regular" font-size="28.8" fill="#000000" transform="matrix(1.00, 0.00, -0.00, -1.00, 366.1, 177.0)">o</text><text xml:space="preserve" font-family="AvenirNext-Regular" font-size="28.8" fill="#000000" transform="matrix(1.00, 0.00, -0.00, -1.00, 383.7, 177.0)">/</text><g><clipPath id="clip-453"><path d="M 156.9 173.5 L 394.5 173.5 L 394.5 176.9 L 156.9 176.9 Z M 156.9 173.5 "></path></clipPath><g clip-path="url(#clip-453)"><path d="M 82.9 387.8 L 319.5 387.8 " fill="none" stroke="#000000" stroke-width="1.44" stroke-miterlimit="0.00" transform="matrix(1.00, 0.00, 0.00, -1.00, 75.0, 563.0)"></path></g></g></g></svg>