<?xml version="1.0" encoding="UTF-8" standalone="no"?><svg xmlns="http://www.w3.org/2000/svg" xmlns:xlink="http://www.w3.org/1999/xlink" clip-rule="evenodd" stroke-miterlimit="4.00" viewBox="0 0 1024 768"><desc>SVG generated by Keynote</desc><defs><pattern id="4569800F-5AEF-4674-93DB-A753CFD89D64" patternUnits="userSpaceOnUse" width="473" height="473" viewBox="0 0 473 473" patternTransform="matrix(0.634250, 0.000000, 0.000000, -0.634250, 121.820000, 534.941400)"><image xlink:href="../../5DE19C8F-94A2-4FD7-93C3-DDAECC7D5432/assets/91728B9CD100BAF592649110EA0BADB2.jpeg" width="473.00" height="473.00"></image></pattern></defs><g transform="matrix(1.00, 0.00, -0.00, -1.00, 0.0, 768.0)"><g><clipPath id="clip-537"><path d="M 0.0 768.0 L 1024.0 768.0 L 1024.0 0.0 L 0.0 0.0 Z M 0.0 768.0 "></path></clipPath><g clip-path="url(#clip-537)"><image xlink:href="../../8F6754E5-F402-453C-8A28-A81B776A4759/assets/370422EB796A13E2672D714038217573.png" width="720.00" height="450.00" transform="matrix(1.42, 0.00, -0.00, -1.71, 0.0, 768.0)"></image></g></g><image xlink:href="../../5DE19C8F-94A2-4FD7-93C3-DDAECC7D5432/assets/9D430BEDFF26C3A356F2593AD1BE7EE7.png" width="786.00" height="406.00" transform="matrix(1.00, 0.00, -0.00, -1.00, 118.8, 535.9)" opacity="0.50"></image><g><clipPath id="clip-538"><path d="M 121.8 534.9 L 902.2 534.9 L 902.2 135.0 L 121.8 135.0 Z M 121.8 534.9 "></path></clipPath><g clip-path="url(#clip-538)"><path d="M 121.8 135.0 L 902.2 135.0 L 902.2 534.9 L 121.8 534.9 Z M 121.8 135.0 " fill="url(#4569800F-5AEF-4674-93DB-A753CFD89D64)"></path><path d="M 121.8 534.9 L 902.2 534.9 L 902.2 135.0 L 121.8 135.0 Z M 121.8 534.9 " fill="#009BFC" fill-opacity="0.50"></path></g></g><text xml:space="preserve" font-family="AvenirNext-Regular" font-size="34.0" fill="#FEFFFE" transform="matrix(1.00, 0.00, -0.00, -1.00, 139.0, 440.0)">К</text><text xml:space="preserve" font-family="AvenirNext-Regular" font-size="34.0" fill="#FEFFFE" transform="matrix(1.00, 0.00, -0.00, -1.00, 162.5, 440.0)">о</text><text xml:space="preserve" font-family="AvenirNext-Regular" font-size="34.0" fill="#FEFFFE" transform="matrix(1.00, 0.00, -0.00, -1.00, 183.3, 440.0)">г</text><text xml:space="preserve" font-family="AvenirNext-Regular" font-size="34.0" fill="#FEFFFE" transform="matrix(1.00, 0.00, -0.00, -1.00, 196.5, 440.0)">а</text><text xml:space="preserve" font-family="AvenirNext-Regular" font-size="34.0" fill="#FEFFFE" transform="matrix(1.00, 0.00, -0.00, -1.00, 214.6, 440.0)">т</text><text xml:space="preserve" font-family="AvenirNext-Regular" font-size="34.0" fill="#FEFFFE" transform="matrix(1.00, 0.00, -0.00, -1.00, 229.3, 440.0)">о</text><text xml:space="preserve" font-family="AvenirNext-Regular" font-size="34.0" fill="#FEFFFE" transform="matrix(1.00, 0.00, -0.00, -1.00, 250.0, 440.0)"> </text><text xml:space="preserve" font-family="AvenirNext-Regular" font-size="34.0" fill="#FEFFFE" transform="matrix(1.00, 0.00, -0.00, -1.00, 258.5, 440.0)">н</text><text xml:space="preserve" font-family="AvenirNext-Regular" font-size="34.0" fill="#FEFFFE" transform="matrix(1.00, 0.00, -0.00, -1.00, 278.1, 440.0)">е</text><text xml:space="preserve" font-family="AvenirNext-Regular" font-size="34.0" fill="#FEFFFE" transform="matrix(1.00, 0.00, -0.00, -1.00, 297.5, 440.0)"> </text><text xml:space="preserve" font-family="AvenirNext-Regular" font-size="34.0" fill="#FEFFFE" transform="matrix(1.00, 0.00, -0.00, -1.00, 306.0, 440.0)">с</text><text xml:space="preserve" font-family="AvenirNext-Regular" font-size="34.0" fill="#FEFFFE" transform="matrix(1.00, 0.00, -0.00, -1.00, 323.0, 440.0)">м</text><text xml:space="preserve" font-family="AvenirNext-Regular" font-size="34.0" fill="#FEFFFE" transform="matrix(1.00, 0.00, -0.00, -1.00, 346.7, 440.0)">е</text><text xml:space="preserve" font-family="AvenirNext-Regular" font-size="34.0" fill="#FEFFFE" transform="matrix(1.00, 0.00, -0.00, -1.00, 366.1, 440.0)"> </text><text xml:space="preserve" font-family="AvenirNext-Regular" font-size="34.0" fill="#FEFFFE" transform="matrix(1.00, 0.00, -0.00, -1.00, 374.6, 440.0)">с</text><text xml:space="preserve" font-family="AvenirNext-Regular" font-size="34.0" fill="#FEFFFE" transform="matrix(1.00, 0.00, -0.00, -1.00, 391.6, 440.0)">и</text><text xml:space="preserve" font-family="AvenirNext-Regular" font-size="34.0" fill="#FEFFFE" transform="matrix(1.00, 0.00, -0.00, -1.00, 412.0, 440.0)">г</text><text xml:space="preserve" font-family="AvenirNext-Regular" font-size="34.0" fill="#FEFFFE" transform="matrix(1.00, 0.00, -0.00, -1.00, 425.2, 440.0)">у</text><text xml:space="preserve" font-family="AvenirNext-Regular" font-size="34.0" fill="#FEFFFE" transform="matrix(1.00, 0.00, -0.00, -1.00, 441.8, 440.0)">р</text><text xml:space="preserve" font-family="AvenirNext-Regular" font-size="34.0" fill="#FEFFFE" transform="matrix(1.00, 0.00, -0.00, -1.00, 463.4, 440.0)">н</text><text xml:space="preserve" font-family="AvenirNext-Regular" font-size="34.0" fill="#FEFFFE" transform="matrix(1.00, 0.00, -0.00, -1.00, 482.9, 440.0)">и</text><text xml:space="preserve" font-family="AvenirNext-Regular" font-size="34.0" fill="#FEFFFE" transform="matrix(1.00, 0.00, -0.00, -1.00, 503.3, 440.0)"> </text><text xml:space="preserve" font-family="AvenirNext-Regular" font-size="34.0" fill="#FEFFFE" transform="matrix(1.00, 0.00, -0.00, -1.00, 511.8, 440.0)">к</text><text xml:space="preserve" font-family="AvenirNext-Regular" font-size="34.0" fill="#FEFFFE" transform="matrix(1.00, 0.00, -0.00, -1.00, 530.2, 440.0)">а</text><text xml:space="preserve" font-family="AvenirNext-Regular" font-size="34.0" fill="#FEFFFE" transform="matrix(1.00, 0.00, -0.00, -1.00, 548.4, 440.0)">к</text><text xml:space="preserve" font-family="AvenirNext-Regular" font-size="34.0" fill="#FEFFFE" transform="matrix(1.00, 0.00, -0.00, -1.00, 566.9, 440.0)">в</text><text xml:space="preserve" font-family="AvenirNext-Regular" font-size="34.0" fill="#FEFFFE" transform="matrix(1.00, 0.00, -0.00, -1.00, 585.2, 440.0)">о</text><text xml:space="preserve" font-family="AvenirNext-Regular" font-size="34.0" fill="#FEFFFE" transform="matrix(1.00, 0.00, -0.00, -1.00, 606.0, 440.0)"> </text><text xml:space="preserve" font-family="AvenirNext-Regular" font-size="34.0" fill="#FEFFFE" transform="matrix(1.00, 0.00, -0.00, -1.00, 614.5, 440.0)">щ</text><text xml:space="preserve" font-family="AvenirNext-Regular" font-size="34.0" fill="#FEFFFE" transform="matrix(1.00, 0.00, -0.00, -1.00, 642.0, 440.0)">е</text><text xml:space="preserve" font-family="AvenirNext-Regular" font-size="34.0" fill="#FEFFFE" transform="matrix(1.00, 0.00, -0.00, -1.00, 661.5, 440.0)"> </text><text xml:space="preserve" font-family="AvenirNext-Regular" font-size="34.0" fill="#FEFFFE" transform="matrix(1.00, 0.00, -0.00, -1.00, 670.0, 440.0)">п</text><text xml:space="preserve" font-family="AvenirNext-Regular" font-size="34.0" fill="#FEFFFE" transform="matrix(1.00, 0.00, -0.00, -1.00, 689.3, 440.0)">р</text><text xml:space="preserve" font-family="AvenirNext-Regular" font-size="34.0" fill="#FEFFFE" transform="matrix(1.00, 0.00, -0.00, -1.00, 710.8, 440.0)">и</text><text xml:space="preserve" font-family="AvenirNext-Regular" font-size="34.0" fill="#FEFFFE" transform="matrix(1.00, 0.00, -0.00, -1.00, 731.2, 440.0)">ч</text><text xml:space="preserve" font-family="AvenirNext-Regular" font-size="34.0" fill="#FEFFFE" transform="matrix(1.00, 0.00, -0.00, -1.00, 748.8, 440.0)">и</text><text xml:space="preserve" font-family="AvenirNext-Regular" font-size="34.0" fill="#FEFFFE" transform="matrix(1.00, 0.00, -0.00, -1.00, 769.1, 440.0)">н</text><text xml:space="preserve" font-family="AvenirNext-Regular" font-size="34.0" fill="#FEFFFE" transform="matrix(1.00, 0.00, -0.00, -1.00, 788.7, 440.0)">и</text><text xml:space="preserve" font-family="AvenirNext-Regular" font-size="34.0" fill="#FEFFFE" transform="matrix(1.00, 0.00, -0.00, -1.00, 809.0, 440.0)"> </text><text xml:space="preserve" font-family="AvenirNext-Regular" font-size="34.0" fill="#FEFFFE" transform="matrix(1.00, 0.00, -0.00, -1.00, 139.0, 394.0)">г</text><text xml:space="preserve" font-family="AvenirNext-Regular" font-size="34.0" fill="#FEFFFE" transform="matrix(1.00, 0.00, -0.00, -1.00, 152.2, 394.0)">р</text><text xml:space="preserve" font-family="AvenirNext-Regular" font-size="34.0" fill="#FEFFFE" transform="matrix(1.00, 0.00, -0.00, -1.00, 173.8, 394.0)">е</text><text xml:space="preserve" font-family="AvenirNext-Regular" font-size="34.0" fill="#FEFFFE" transform="matrix(1.00, 0.00, -0.00, -1.00, 193.2, 394.0)">ш</text><text xml:space="preserve" font-family="AvenirNext-Regular" font-size="34.0" fill="#FEFFFE" transform="matrix(1.00, 0.00, -0.00, -1.00, 220.3, 394.0)">к</text><text xml:space="preserve" font-family="AvenirNext-Regular" font-size="34.0" fill="#FEFFFE" transform="matrix(1.00, 0.00, -0.00, -1.00, 238.8, 394.0)">а</text><text xml:space="preserve" font-family="AvenirNext-Regular" font-size="34.0" fill="#FEFFFE" transform="matrix(1.00, 0.00, -0.00, -1.00, 256.9, 394.0)">т</text><text xml:space="preserve" font-family="AvenirNext-Regular" font-size="34.0" fill="#FEFFFE" transform="matrix(1.00, 0.00, -0.00, -1.00, 271.6, 394.0)">а</text><text xml:space="preserve" font-family="AvenirNext-Regular" font-size="34.0" fill="#FEFFFE" transform="matrix(1.00, 0.00, -0.00, -1.00, 289.8, 394.0)"> </text><text xml:space="preserve" font-family="AvenirNext-Regular" font-size="34.0" fill="#FEFFFE" transform="matrix(1.00, 0.00, -0.00, -1.00, 298.3, 394.0)">и</text><text xml:space="preserve" font-family="AvenirNext-Regular" font-size="34.0" fill="#FEFFFE" transform="matrix(1.00, 0.00, -0.00, -1.00, 318.6, 394.0)">л</text><text xml:space="preserve" font-family="AvenirNext-Regular" font-size="34.0" fill="#FEFFFE" transform="matrix(1.00, 0.00, -0.00, -1.00, 335.5, 394.0)">и</text><text xml:space="preserve" font-family="AvenirNext-Regular" font-size="34.0" fill="#FEFFFE" transform="matrix(1.00, 0.00, -0.00, -1.00, 355.9, 394.0)"> </text><text xml:space="preserve" font-family="AvenirNext-Regular" font-size="34.0" fill="#FEFFFE" transform="matrix(1.00, 0.00, -0.00, -1.00, 364.4, 394.0)">т</text><text xml:space="preserve" font-family="AvenirNext-Regular" font-size="34.0" fill="#FEFFFE" transform="matrix(1.00, 0.00, -0.00, -1.00, 379.0, 394.0)">я</text><text xml:space="preserve" font-family="AvenirNext-Regular" font-size="34.0" fill="#FEFFFE" transform="matrix(1.00, 0.00, -0.00, -1.00, 397.4, 394.0)"> </text><text xml:space="preserve" font-family="AvenirNext-Regular" font-size="34.0" fill="#FEFFFE" transform="matrix(1.00, 0.00, -0.00, -1.00, 405.9, 394.0)">н</text><text xml:space="preserve" font-family="AvenirNext-Regular" font-size="34.0" fill="#FEFFFE" transform="matrix(1.00, 0.00, -0.00, -1.00, 425.4, 394.0)">е</text><text xml:space="preserve" font-family="AvenirNext-Regular" font-size="34.0" fill="#FEFFFE" transform="matrix(1.00, 0.00, -0.00, -1.00, 444.9, 394.0)"> </text><text xml:space="preserve" font-family="AvenirNext-Regular" font-size="34.0" fill="#FEFFFE" transform="matrix(1.00, 0.00, -0.00, -1.00, 453.4, 394.0)">з</text><text xml:space="preserve" font-family="AvenirNext-Regular" font-size="34.0" fill="#FEFFFE" transform="matrix(1.00, 0.00, -0.00, -1.00, 469.1, 394.0)">а</text><text xml:space="preserve" font-family="AvenirNext-Regular" font-size="34.0" fill="#FEFFFE" transform="matrix(1.00, 0.00, -0.00, -1.00, 487.3, 394.0)">в</text><text xml:space="preserve" font-family="AvenirNext-Regular" font-size="34.0" fill="#FEFFFE" transform="matrix(1.00, 0.00, -0.00, -1.00, 505.7, 394.0)">и</text><text xml:space="preserve" font-family="AvenirNext-Regular" font-size="34.0" fill="#FEFFFE" transform="matrix(1.00, 0.00, -0.00, -1.00, 526.0, 394.0)">с</text><text xml:space="preserve" font-family="AvenirNext-Regular" font-size="34.0" fill="#FEFFFE" transform="matrix(1.00, 0.00, -0.00, -1.00, 543.0, 394.0)">и</text><text xml:space="preserve" font-family="AvenirNext-Regular" font-size="34.0" fill="#FEFFFE" transform="matrix(1.00, 0.00, -0.00, -1.00, 563.4, 394.0)"> </text><text xml:space="preserve" font-family="AvenirNext-Regular" font-size="34.0" fill="#FEFFFE" transform="matrix(1.00, 0.00, -0.00, -1.00, 571.9, 394.0)">о</text><text xml:space="preserve" font-family="AvenirNext-Regular" font-size="34.0" fill="#FEFFFE" transform="matrix(1.00, 0.00, -0.00, -1.00, 592.7, 394.0)">т</text><text xml:space="preserve" font-family="AvenirNext-Regular" font-size="34.0" fill="#FEFFFE" transform="matrix(1.00, 0.00, -0.00, -1.00, 607.3, 394.0)"> </text><text xml:space="preserve" font-family="AvenirNext-Regular" font-size="34.0" fill="#FEFFFE" transform="matrix(1.00, 0.00, -0.00, -1.00, 615.8, 394.0)">н</text><text xml:space="preserve" font-family="AvenirNext-Regular" font-size="34.0" fill="#FEFFFE" transform="matrix(1.00, 0.00, -0.00, -1.00, 635.4, 394.0)">а</text><text xml:space="preserve" font-family="AvenirNext-Regular" font-size="34.0" fill="#FEFFFE" transform="matrix(1.00, 0.00, -0.00, -1.00, 653.5, 394.0)">с</text><text xml:space="preserve" font-family="AvenirNext-Regular" font-size="34.0" fill="#FEFFFE" transform="matrix(1.00, 0.00, -0.00, -1.00, 670.5, 394.0)"> </text><text xml:space="preserve" font-family="AvenirNext-Regular" font-size="34.0" fill="#FEFFFE" transform="matrix(1.00, 0.00, -0.00, -1.00, 679.0, 394.0)">.</text><text xml:space="preserve" font-family="AvenirNext-Regular" font-size="34.0" fill="#FEFFFE" transform="matrix(1.00, 0.00, -0.00, -1.00, 687.9, 394.0)">.</text><text xml:space="preserve" font-family="AvenirNext-Regular" font-size="34.0" fill="#FEFFFE" transform="matrix(1.00, 0.00, -0.00, -1.00, 695.7, 394.0)"> </text><text xml:space="preserve" font-family="AvenirNext-Regular" font-size="34.0" fill="#FEFFFE" transform="matrix(1.00, 0.00, -0.00, -1.00, 139.0, 324.0)">(</text><text xml:space="preserve" font-family="AvenirNext-Regular" font-size="34.0" fill="#FEFFFE" transform="matrix(1.00, 0.00, -0.00, -1.00, 149.2, 324.0)">н</text><text xml:space="preserve" font-family="AvenirNext-Regular" font-size="34.0" fill="#FEFFFE" transform="matrix(1.00, 0.00, -0.00, -1.00, 168.8, 324.0)">а</text><text xml:space="preserve" font-family="AvenirNext-Regular" font-size="34.0" fill="#FEFFFE" transform="matrix(1.00, 0.00, -0.00, -1.00, 186.9, 324.0)">п</text><text xml:space="preserve" font-family="AvenirNext-Regular" font-size="34.0" fill="#FEFFFE" transform="matrix(1.00, 0.00, -0.00, -1.00, 206.2, 324.0)">р</text><text xml:space="preserve" font-family="AvenirNext-Regular" font-size="34.0" fill="#FEFFFE" transform="matrix(1.00, 0.00, -0.00, -1.00, 227.8, 324.0)">и</text><text xml:space="preserve" font-family="AvenirNext-Regular" font-size="34.0" fill="#FEFFFE" transform="matrix(1.00, 0.00, -0.00, -1.00, 248.1, 324.0)">м</text><text xml:space="preserve" font-family="AvenirNext-Regular" font-size="34.0" fill="#FEFFFE" transform="matrix(1.00, 0.00, -0.00, -1.00, 271.8, 324.0)">е</text><text xml:space="preserve" font-family="AvenirNext-Regular" font-size="34.0" fill="#FEFFFE" transform="matrix(1.00, 0.00, -0.00, -1.00, 291.2, 324.0)">р</text><text xml:space="preserve" font-family="AvenirNext-Regular" font-size="34.0" fill="#FEFFFE" transform="matrix(1.00, 0.00, -0.00, -1.00, 312.8, 324.0)">:</text><text xml:space="preserve" font-family="AvenirNext-Regular" font-size="34.0" fill="#FEFFFE" transform="matrix(1.00, 0.00, -0.00, -1.00, 323.0, 324.0)"> </text><text xml:space="preserve" font-family="AvenirNext-Regular" font-size="34.0" fill="#FEFFFE" transform="matrix(1.00, 0.00, -0.00, -1.00, 331.5, 324.0)">п</text><text xml:space="preserve" font-family="AvenirNext-Regular" font-size="34.0" fill="#FEFFFE" transform="matrix(1.00, 0.00, -0.00, -1.00, 350.8, 324.0)">о</text><text xml:space="preserve" font-family="AvenirNext-Regular" font-size="34.0" fill="#FEFFFE" transform="matrix(1.00, 0.00, -0.00, -1.00, 371.6, 324.0)">л</text><text xml:space="preserve" font-family="AvenirNext-Regular" font-size="34.0" fill="#FEFFFE" transform="matrix(1.00, 0.00, -0.00, -1.00, 388.5, 324.0)">з</text><text xml:space="preserve" font-family="AvenirNext-Regular" font-size="34.0" fill="#FEFFFE" transform="matrix(1.00, 0.00, -0.00, -1.00, 404.2, 324.0)">в</text><text xml:space="preserve" font-family="AvenirNext-Regular" font-size="34.0" fill="#FEFFFE" transform="matrix(1.00, 0.00, -0.00, -1.00, 422.6, 324.0)">а</text><text xml:space="preserve" font-family="AvenirNext-Regular" font-size="34.0" fill="#FEFFFE" transform="matrix(1.00, 0.00, -0.00, -1.00, 440.8, 324.0)">м</text><text xml:space="preserve" font-family="AvenirNext-Regular" font-size="34.0" fill="#FEFFFE" transform="matrix(1.00, 0.00, -0.00, -1.00, 464.4, 324.0)">е</text><text xml:space="preserve" font-family="AvenirNext-Regular" font-size="34.0" fill="#FEFFFE" transform="matrix(1.00, 0.00, -0.00, -1.00, 483.8, 324.0)"> </text><text xml:space="preserve" font-family="AvenirNext-Regular" font-size="34.0" fill="#FEFFFE" transform="matrix(1.00, 0.00, -0.00, -1.00, 492.3, 324.0)">j</text><text xml:space="preserve" font-family="AvenirNext-Regular" font-size="34.0" fill="#FEFFFE" transform="matrix(1.00, 0.00, -0.00, -1.00, 500.9, 324.0)">a</text><text xml:space="preserve" font-family="AvenirNext-Regular" font-size="34.0" fill="#FEFFFE" transform="matrix(1.00, 0.00, -0.00, -1.00, 519.0, 324.0)">v</text><text xml:space="preserve" font-family="AvenirNext-Regular" font-size="34.0" fill="#FEFFFE" transform="matrix(1.00, 0.00, -0.00, -1.00, 535.6, 324.0)">a</text><text xml:space="preserve" font-family="AvenirNext-Regular" font-size="34.0" fill="#FEFFFE" transform="matrix(1.00, 0.00, -0.00, -1.00, 553.8, 324.0)">s</text><text xml:space="preserve" font-family="AvenirNext-Regular" font-size="34.0" fill="#FEFFFE" transform="matrix(1.00, 0.00, -0.00, -1.00, 568.9, 324.0)">c</text><text xml:space="preserve" font-family="AvenirNext-Regular" font-size="34.0" fill="#FEFFFE" transform="matrix(1.00, 0.00, -0.00, -1.00, 585.9, 324.0)">r</text><text xml:space="preserve" font-family="AvenirNext-Regular" font-size="34.0" fill="#FEFFFE" transform="matrix(1.00, 0.00, -0.00, -1.00, 598.1, 324.0)">i</text><text xml:space="preserve" font-family="AvenirNext-Regular" font-size="34.0" fill="#FEFFFE" transform="matrix(1.00, 0.00, -0.00, -1.00, 606.6, 324.0)">p</text><text xml:space="preserve" font-family="AvenirNext-Regular" font-size="34.0" fill="#FEFFFE" transform="matrix(1.00, 0.00, -0.00, -1.00, 628.2, 324.0)">t</text><text xml:space="preserve" font-family="AvenirNext-Regular" font-size="34.0" fill="#FEFFFE" transform="matrix(1.00, 0.00, -0.00, -1.00, 639.0, 324.0)"> </text><text xml:space="preserve" font-family="AvenirNext-Regular" font-size="34.0" fill="#FEFFFE" transform="matrix(1.00, 0.00, -0.00, -1.00, 646.9, 324.0)">A</text><text xml:space="preserve" font-family="AvenirNext-Regular" font-size="34.0" fill="#FEFFFE" transform="matrix(1.00, 0.00, -0.00, -1.00, 670.7, 324.0)">P</text><text xml:space="preserve" font-family="AvenirNext-Regular" font-size="34.0" fill="#FEFFFE" transform="matrix(1.00, 0.00, -0.00, -1.00, 690.4, 324.0)">I</text><text xml:space="preserve" font-family="AvenirNext-Regular" font-size="34.0" fill="#FEFFFE" transform="matrix(1.00, 0.00, -0.00, -1.00, 699.2, 324.0)">-</text><text xml:space="preserve" font-family="AvenirNext-Regular" font-size="34.0" fill="#FEFFFE" transform="matrix(1.00, 0.00, -0.00, -1.00, 710.1, 324.0)">a</text><text xml:space="preserve" font-family="AvenirNext-Regular" font-size="34.0" fill="#FEFFFE" transform="matrix(1.00, 0.00, -0.00, -1.00, 728.3, 324.0)"> </text><text xml:space="preserve" font-family="AvenirNext-Regular" font-size="34.0" fill="#FEFFFE" transform="matrix(1.00, 0.00, -0.00, -1.00, 736.8, 324.0)">н</text><text xml:space="preserve" font-family="AvenirNext-Regular" font-size="34.0" fill="#FEFFFE" transform="matrix(1.00, 0.00, -0.00, -1.00, 756.3, 324.0)">а</text><text xml:space="preserve" font-family="AvenirNext-Regular" font-size="34.0" fill="#FEFFFE" transform="matrix(1.00, 0.00, -0.00, -1.00, 774.5, 324.0)"> </text><text xml:space="preserve" font-family="AvenirNext-Regular" font-size="34.0" fill="#FEFFFE" transform="matrix(1.00, 0.00, -0.00, -1.00, 139.0, 278.0)">F</text><text xml:space="preserve" font-family="AvenirNext-Regular" font-size="34.0" fill="#FEFFFE" transform="matrix(1.00, 0.00, -0.00, -1.00, 156.5, 278.0)">a</text><text xml:space="preserve" font-family="AvenirNext-Regular" font-size="34.0" fill="#FEFFFE" transform="matrix(1.00, 0.00, -0.00, -1.00, 174.6, 278.0)">c</text><text xml:space="preserve" font-family="AvenirNext-Regular" font-size="34.0" fill="#FEFFFE" transform="matrix(1.00, 0.00, -0.00, -1.00, 191.6, 278.0)">e</text><text xml:space="preserve" font-family="AvenirNext-Regular" font-size="34.0" fill="#FEFFFE" transform="matrix(1.00, 0.00, -0.00, -1.00, 211.1, 278.0)">b</text><text xml:space="preserve" font-family="AvenirNext-Regular" font-size="34.0" fill="#FEFFFE" transform="matrix(1.00, 0.00, -0.00, -1.00, 232.7, 278.0)">o</text><text xml:space="preserve" font-family="AvenirNext-Regular" font-size="34.0" fill="#FEFFFE" transform="matrix(1.00, 0.00, -0.00, -1.00, 253.5, 278.0)">o</text><text xml:space="preserve" font-family="AvenirNext-Regular" font-size="34.0" fill="#FEFFFE" transform="matrix(1.00, 0.00, -0.00, -1.00, 274.3, 278.0)">k</text><text xml:space="preserve" font-family="AvenirNext-Regular" font-size="34.0" fill="#FEFFFE" transform="matrix(1.00, 0.00, -0.00, -1.00, 291.6, 278.0)">)</text><text xml:space="preserve" font-family="AvenirNext-Regular" font-size="34.0" fill="#FEFFFE" transform="matrix(1.00, 0.00, -0.00, -1.00, 301.8, 278.0)"> </text><text xml:space="preserve" font-family="AvenirNext-Regular" font-size="34.0" fill="#FEFFFE" transform="matrix(1.00, 0.00, -0.00, -1.00, 139.0, 208.0)">В</text><text xml:space="preserve" font-family="AvenirNext-Regular" font-size="34.0" fill="#FEFFFE" transform="matrix(1.00, 0.00, -0.00, -1.00, 160.6, 208.0)"> </text><text xml:space="preserve" font-family="AvenirNext-Regular" font-size="34.0" fill="#FEFFFE" transform="matrix(1.00, 0.00, -0.00, -1.00, 169.1, 208.0)">т</text><text xml:space="preserve" font-family="AvenirNext-Regular" font-size="34.0" fill="#FEFFFE" transform="matrix(1.00, 0.00, -0.00, -1.00, 183.8, 208.0)">е</text><text xml:space="preserve" font-family="AvenirNext-Regular" font-size="34.0" fill="#FEFFFE" transform="matrix(1.00, 0.00, -0.00, -1.00, 203.2, 208.0)">з</text><text xml:space="preserve" font-family="AvenirNext-Regular" font-size="34.0" fill="#FEFFFE" transform="matrix(1.00, 0.00, -0.00, -1.00, 219.0, 208.0)">и</text><text xml:space="preserve" font-family="AvenirNext-Regular" font-size="34.0" fill="#FEFFFE" transform="matrix(1.00, 0.00, -0.00, -1.00, 239.3, 208.0)"> </text><text xml:space="preserve" font-family="AvenirNext-Regular" font-size="34.0" fill="#FEFFFE" transform="matrix(1.00, 0.00, -0.00, -1.00, 247.8, 208.0)">с</text><text xml:space="preserve" font-family="AvenirNext-Regular" font-size="34.0" fill="#FEFFFE" transform="matrix(1.00, 0.00, -0.00, -1.00, 264.8, 208.0)">л</text><text xml:space="preserve" font-family="AvenirNext-Regular" font-size="34.0" fill="#FEFFFE" transform="matrix(1.00, 0.00, -0.00, -1.00, 281.7, 208.0)">у</text><text xml:space="preserve" font-family="AvenirNext-Regular" font-size="34.0" fill="#FEFFFE" transform="matrix(1.00, 0.00, -0.00, -1.00, 298.3, 208.0)">ч</text><text xml:space="preserve" font-family="AvenirNext-Regular" font-size="34.0" fill="#FEFFFE" transform="matrix(1.00, 0.00, -0.00, -1.00, 315.9, 208.0)">а</text><text xml:space="preserve" font-family="AvenirNext-Regular" font-size="34.0" fill="#FEFFFE" transform="matrix(1.00, 0.00, -0.00, -1.00, 334.0, 208.0)">и</text><text xml:space="preserve" font-family="AvenirNext-Regular" font-size="34.0" fill="#FEFFFE" transform="matrix(1.00, 0.00, -0.00, -1.00, 354.4, 208.0)"> </text><text xml:space="preserve" font-family="AvenirNext-Regular" font-size="34.0" fill="#FEFFFE" transform="matrix(1.00, 0.00, -0.00, -1.00, 362.9, 208.0)">и</text><text xml:space="preserve" font-family="AvenirNext-Regular" font-size="34.0" fill="#FEFFFE" transform="matrix(1.00, 0.00, -0.00, -1.00, 383.3, 208.0)">з</text><text xml:space="preserve" font-family="AvenirNext-Regular" font-size="34.0" fill="#FEFFFE" transform="matrix(1.00, 0.00, -0.00, -1.00, 399.0, 208.0)">п</text><text xml:space="preserve" font-family="AvenirNext-Regular" font-size="34.0" fill="#FEFFFE" transform="matrix(1.00, 0.00, -0.00, -1.00, 418.3, 208.0)">о</text><text xml:space="preserve" font-family="AvenirNext-Regular" font-size="34.0" fill="#FEFFFE" transform="matrix(1.00, 0.00, -0.00, -1.00, 439.1, 208.0)">л</text><text xml:space="preserve" font-family="AvenirNext-Regular" font-size="34.0" fill="#FEFFFE" transform="matrix(1.00, 0.00, -0.00, -1.00, 455.9, 208.0)">з</text><text xml:space="preserve" font-family="AvenirNext-Regular" font-size="34.0" fill="#FEFFFE" transform="matrix(1.00, 0.00, -0.00, -1.00, 471.7, 208.0)">в</text><text xml:space="preserve" font-family="AvenirNext-Regular" font-size="34.0" fill="#FEFFFE" transform="matrix(1.00, 0.00, -0.00, -1.00, 490.1, 208.0)">а</text><text xml:space="preserve" font-family="AvenirNext-Regular" font-size="34.0" fill="#FEFFFE" transform="matrix(1.00, 0.00, -0.00, -1.00, 508.2, 208.0)">м</text><text xml:space="preserve" font-family="AvenirNext-Regular" font-size="34.0" fill="#FEFFFE" transform="matrix(1.00, 0.00, -0.00, -1.00, 531.9, 208.0)">е</text><text xml:space="preserve" font-family="AvenirNext-Regular" font-size="34.0" fill="#FEFFFE" transform="matrix(1.00, 0.00, -0.00, -1.00, 551.3, 208.0)"> </text><text xml:space="preserve" font-family="AvenirNext-Medium" font-size="34.0" fill="#FEFFFE" transform="matrix(1.00, 0.00, -0.00, -1.00, 559.8, 208.0)">t</text><text xml:space="preserve" font-family="AvenirNext-Medium" font-size="34.0" fill="#FEFFFE" transform="matrix(1.00, 0.00, -0.00, -1.00, 571.0, 208.0)">r</text><text xml:space="preserve" font-family="AvenirNext-Medium" font-size="34.0" fill="#FEFFFE" transform="matrix(1.00, 0.00, -0.00, -1.00, 583.3, 208.0)">y</text><text xml:space="preserve" font-family="AvenirNext-Medium" font-size="34.0" fill="#FEFFFE" transform="matrix(1.00, 0.00, -0.00, -1.00, 600.4, 208.0)">-</text><text xml:space="preserve" font-family="AvenirNext-Medium" font-size="34.0" fill="#FEFFFE" transform="matrix(1.00, 0.00, -0.00, -1.00, 611.3, 208.0)">c</text><text xml:space="preserve" font-family="AvenirNext-Medium" font-size="34.0" fill="#FEFFFE" transform="matrix(1.00, 0.00, -0.00, -1.00, 628.1, 208.0)">a</text><text xml:space="preserve" font-family="AvenirNext-Medium" font-size="34.0" fill="#FEFFFE" transform="matrix(1.00, 0.00, -0.00, -1.00, 646.2, 208.0)">t</text><text xml:space="preserve" font-family="AvenirNext-Medium" font-size="34.0" fill="#FEFFFE" transform="matrix(1.00, 0.00, -0.00, -1.00, 657.4, 208.0)">c</text><text xml:space="preserve" font-family="AvenirNext-Medium" font-size="34.0" fill="#FEFFFE" transform="matrix(1.00, 0.00, -0.00, -1.00, 674.2, 208.0)">h</text><text xml:space="preserve" font-family="AvenirNext-Regular" font-size="34.0" fill="#FEFFFE" transform="matrix(1.00, 0.00, -0.00, -1.00, 694.1, 208.0)"> </text><text xml:space="preserve" font-family="AvenirNext-Regular" font-size="34.0" fill="#FEFFFE" transform="matrix(1.00, 0.00, -0.00, -1.00, 702.6, 208.0)">м</text><text xml:space="preserve" font-family="AvenirNext-Regular" font-size="34.0" fill="#FEFFFE" transform="matrix(1.00, 0.00, -0.00, -1.00, 726.2, 208.0)">е</text><text xml:space="preserve" font-family="AvenirNext-Regular" font-size="34.0" fill="#FEFFFE" transform="matrix(1.00, 0.00, -0.00, -1.00, 745.6, 208.0)">х</text><text xml:space="preserve" font-family="AvenirNext-Regular" font-size="34.0" fill="#FEFFFE" transform="matrix(1.00, 0.00, -0.00, -1.00, 762.1, 208.0)">а</text><text xml:space="preserve" font-family="AvenirNext-Regular" font-size="34.0" fill="#FEFFFE" transform="matrix(1.00, 0.00, -0.00, -1.00, 780.2, 208.0)">н</text><text xml:space="preserve" font-family="AvenirNext-Regular" font-size="34.0" fill="#FEFFFE" transform="matrix(1.00, 0.00, -0.00, -1.00, 799.8, 208.0)">и</text><text xml:space="preserve" font-family="AvenirNext-Regular" font-size="34.0" fill="#FEFFFE" transform="matrix(1.00, 0.00, -0.00, -1.00, 820.2, 208.0)">з</text><text xml:space="preserve" font-family="AvenirNext-Regular" font-size="34.0" fill="#FEFFFE" transform="matrix(1.00, 0.00, -0.00, -1.00, 835.9, 208.0)">м</text><text xml:space="preserve" font-family="AvenirNext-Regular" font-size="34.0" fill="#FEFFFE" transform="matrix(1.00, 0.00, -0.00, -1.00, 859.5, 208.0)">а</text><text xml:space="preserve" font-family="AvenirNext-Medium" font-size="36.0" fill="#000000" transform="matrix(1.00, 0.00, -0.00, -1.00, 310.0, 637.0)">Н</text><text xml:space="preserve" font-family="AvenirNext-Medium" font-size="36.0" fill="#000000" transform="matrix(1.00, 0.00, -0.00, -1.00, 336.3, 637.0)">е</text><text xml:space="preserve" font-family="AvenirNext-Medium" font-size="36.0" fill="#000000" transform="matrix(1.00, 0.00, -0.00, -1.00, 357.1, 637.0)">п</text><text xml:space="preserve" font-family="AvenirNext-Medium" font-size="36.0" fill="#000000" transform="matrix(1.00, 0.00, -0.00, -1.00, 377.9, 637.0)">р</text><text xml:space="preserve" font-family="AvenirNext-Medium" font-size="36.0" fill="#000000" transform="matrix(1.00, 0.00, -0.00, -1.00, 401.0, 637.0)">е</text><text xml:space="preserve" font-family="AvenirNext-Medium" font-size="36.0" fill="#000000" transform="matrix(1.00, 0.00, -0.00, -1.00, 421.8, 637.0)">д</text><text xml:space="preserve" font-family="AvenirNext-Medium" font-size="36.0" fill="#000000" transform="matrix(1.00, 0.00, -0.00, -1.00, 442.4, 637.0)">в</text><text xml:space="preserve" font-family="AvenirNext-Medium" font-size="36.0" fill="#000000" transform="matrix(1.00, 0.00, -0.00, -1.00, 462.2, 637.0)">и</text><text xml:space="preserve" font-family="AvenirNext-Medium" font-size="36.0" fill="#000000" transform="matrix(1.00, 0.00, -0.00, -1.00, 484.5, 637.0)">д</text><text xml:space="preserve" font-family="AvenirNext-Medium" font-size="36.0" fill="#000000" transform="matrix(1.00, 0.00, -0.00, -1.00, 505.0, 637.0)">и</text><text xml:space="preserve" font-family="AvenirNext-Medium" font-size="36.0" fill="#000000" transform="matrix(1.00, 0.00, -0.00, -1.00, 527.3, 637.0)">м</text><text xml:space="preserve" font-family="AvenirNext-Medium" font-size="36.0" fill="#000000" transform="matrix(1.00, 0.00, -0.00, -1.00, 552.7, 637.0)">и</text><text xml:space="preserve" font-family="AvenirNext-Medium" font-size="36.0" fill="#000000" transform="matrix(1.00, 0.00, -0.00, -1.00, 575.0, 637.0)"> </text><text xml:space="preserve" font-family="AvenirNext-Medium" font-size="36.0" fill="#000000" transform="matrix(1.00, 0.00, -0.00, -1.00, 584.0, 637.0)">г</text><text xml:space="preserve" font-family="AvenirNext-Medium" font-size="36.0" fill="#000000" transform="matrix(1.00, 0.00, -0.00, -1.00, 598.4, 637.0)">р</text><text xml:space="preserve" font-family="AvenirNext-Medium" font-size="36.0" fill="#000000" transform="matrix(1.00, 0.00, -0.00, -1.00, 621.4, 637.0)">е</text><text xml:space="preserve" font-family="AvenirNext-Medium" font-size="36.0" fill="#000000" transform="matrix(1.00, 0.00, -0.00, -1.00, 642.2, 637.0)">ш</text><text xml:space="preserve" font-family="AvenirNext-Medium" font-size="36.0" fill="#000000" transform="matrix(1.00, 0.00, -0.00, -1.00, 671.8, 637.0)">к</text><text xml:space="preserve" font-family="AvenirNext-Medium" font-size="36.0" fill="#000000" transform="matrix(1.00, 0.00, -0.00, -1.00, 691.8, 637.0)">и</text><text xml:space="preserve" font-family="Helvetica-Light" font-size="32.0" fill="#000000" transform="matrix(1.00, 0.00, -0.00, -1.00, 232.0, 585.0)">(</text><text xml:space="preserve" font-family="Helvetica-Light" font-size="32.0" fill="#000000" transform="matrix(1.00, 0.00, -0.00, -1.00, 242.7, 585.0)">т</text><text xml:space="preserve" font-family="Helvetica-Light" font-size="32.0" fill="#000000" transform="matrix(1.00, 0.00, -0.00, -1.00, 256.8, 585.0)">а</text><text xml:space="preserve" font-family="Helvetica-Light" font-size="32.0" fill="#000000" transform="matrix(1.00, 0.00, -0.00, -1.00, 273.4, 585.0)">к</text><text xml:space="preserve" font-family="Helvetica-Light" font-size="32.0" fill="#000000" transform="matrix(1.00, 0.00, -0.00, -1.00, 289.4, 585.0)">и</text><text xml:space="preserve" font-family="Helvetica-Light" font-size="32.0" fill="#000000" transform="matrix(1.00, 0.00, -0.00, -1.00, 306.8, 585.0)">в</text><text xml:space="preserve" font-family="Helvetica-Light" font-size="32.0" fill="#000000" transform="matrix(1.00, 0.00, -0.00, -1.00, 323.3, 585.0)">а</text><text xml:space="preserve" font-family="Helvetica-Light" font-size="32.0" fill="#000000" transform="matrix(1.00, 0.00, -0.00, -1.00, 339.9, 585.0)">,</text><text xml:space="preserve" font-family="Helvetica-Light" font-size="32.0" fill="#000000" transform="matrix(1.00, 0.00, -0.00, -1.00, 348.8, 585.0)"> </text><text xml:space="preserve" font-family="Helvetica-Light" font-size="32.0" fill="#000000" transform="matrix(1.00, 0.00, -0.00, -1.00, 357.7, 585.0)">к</text><text xml:space="preserve" font-family="Helvetica-Light" font-size="32.0" fill="#000000" transform="matrix(1.00, 0.00, -0.00, -1.00, 373.7, 585.0)">о</text><text xml:space="preserve" font-family="Helvetica-Light" font-size="32.0" fill="#000000" transform="matrix(1.00, 0.00, -0.00, -1.00, 391.5, 585.0)">и</text><text xml:space="preserve" font-family="Helvetica-Light" font-size="32.0" fill="#000000" transform="matrix(1.00, 0.00, -0.00, -1.00, 408.9, 585.0)">т</text><text xml:space="preserve" font-family="Helvetica-Light" font-size="32.0" fill="#000000" transform="matrix(1.00, 0.00, -0.00, -1.00, 423.0, 585.0)">о</text><text xml:space="preserve" font-family="Helvetica-Light" font-size="32.0" fill="#000000" transform="matrix(1.00, 0.00, -0.00, -1.00, 440.8, 585.0)"> </text><text xml:space="preserve" font-family="Helvetica-Light" font-size="32.0" fill="#000000" transform="matrix(1.00, 0.00, -0.00, -1.00, 449.7, 585.0)">н</text><text xml:space="preserve" font-family="Helvetica-Light" font-size="32.0" fill="#000000" transform="matrix(1.00, 0.00, -0.00, -1.00, 466.9, 585.0)">е</text><text xml:space="preserve" font-family="Helvetica-Light" font-size="32.0" fill="#000000" transform="matrix(1.00, 0.00, -0.00, -1.00, 483.5, 585.0)"> </text><text xml:space="preserve" font-family="Helvetica-Light" font-size="32.0" fill="#000000" transform="matrix(1.00, 0.00, -0.00, -1.00, 492.4, 585.0)">м</text><text xml:space="preserve" font-family="Helvetica-Light" font-size="32.0" fill="#000000" transform="matrix(1.00, 0.00, -0.00, -1.00, 513.8, 585.0)">о</text><text xml:space="preserve" font-family="Helvetica-Light" font-size="32.0" fill="#000000" transform="matrix(1.00, 0.00, -0.00, -1.00, 531.6, 585.0)">ж</text><text xml:space="preserve" font-family="Helvetica-Light" font-size="32.0" fill="#000000" transform="matrix(1.00, 0.00, -0.00, -1.00, 555.2, 585.0)">е</text><text xml:space="preserve" font-family="Helvetica-Light" font-size="32.0" fill="#000000" transform="matrix(1.00, 0.00, -0.00, -1.00, 571.8, 585.0)">м</text><text xml:space="preserve" font-family="Helvetica-Light" font-size="32.0" fill="#000000" transform="matrix(1.00, 0.00, -0.00, -1.00, 593.2, 585.0)"> </text><text xml:space="preserve" font-family="Helvetica-Light" font-size="32.0" fill="#000000" transform="matrix(1.00, 0.00, -0.00, -1.00, 602.0, 585.0)">д</text><text xml:space="preserve" font-family="Helvetica-Light" font-size="32.0" fill="#000000" transform="matrix(1.00, 0.00, -0.00, -1.00, 620.3, 585.0)">а</text><text xml:space="preserve" font-family="Helvetica-Light" font-size="32.0" fill="#000000" transform="matrix(1.00, 0.00, -0.00, -1.00, 636.9, 585.0)"> </text><text xml:space="preserve" font-family="Helvetica-Light" font-size="32.0" fill="#000000" transform="matrix(1.00, 0.00, -0.00, -1.00, 645.8, 585.0)">и</text><text xml:space="preserve" font-family="Helvetica-Light" font-size="32.0" fill="#000000" transform="matrix(1.00, 0.00, -0.00, -1.00, 663.2, 585.0)">з</text><text xml:space="preserve" font-family="Helvetica-Light" font-size="32.0" fill="#000000" transform="matrix(1.00, 0.00, -0.00, -1.00, 678.7, 585.0)">б</text><text xml:space="preserve" font-family="Helvetica-Light" font-size="32.0" fill="#000000" transform="matrix(1.00, 0.00, -0.00, -1.00, 696.5, 585.0)">е</text><text xml:space="preserve" font-family="Helvetica-Light" font-size="32.0" fill="#000000" transform="matrix(1.00, 0.00, -0.00, -1.00, 713.1, 585.0)">г</text><text xml:space="preserve" font-family="Helvetica-Light" font-size="32.0" fill="#000000" transform="matrix(1.00, 0.00, -0.00, -1.00, 725.9, 585.0)">н</text><text xml:space="preserve" font-family="Helvetica-Light" font-size="32.0" fill="#000000" transform="matrix(1.00, 0.00, -0.00, -1.00, 743.1, 585.0)">е</text><text xml:space="preserve" font-family="Helvetica-Light" font-size="32.0" fill="#000000" transform="matrix(1.00, 0.00, -0.00, -1.00, 759.7, 585.0)">м</text><text xml:space="preserve" font-family="Helvetica-Light" font-size="32.0" fill="#000000" transform="matrix(1.00, 0.00, -0.00, -1.00, 781.1, 585.0)">)</text></g></svg>