<?xml version="1.0" encoding="UTF-8" standalone="no"?><svg xmlns="http://www.w3.org/2000/svg" xmlns:xlink="http://www.w3.org/1999/xlink" clip-rule="evenodd" stroke-miterlimit="4.00" viewBox="0 0 584 304"><desc>SVG generated by Keynote</desc><defs></defs><g transform="matrix(1.00, 0.00, -0.00, -1.00, 0.0, 304.0)"><text xml:space="preserve" font-family="Monaco" font-size="28.4" fill="#FEFFFE" transform="matrix(1.00, 0.00, -0.00, -1.00, 1.0, 279.0)">i</text><text xml:space="preserve" font-family="Monaco" font-size="28.4" fill="#FEFFFE" transform="matrix(1.00, 0.00, -0.00, -1.00, 18.1, 279.0)">f</text><text xml:space="preserve" font-family="Monaco" font-size="28.4" fill="#FEFFFE" transform="matrix(1.00, 0.00, -0.00, -1.00, 35.1, 279.0)"> </text><text xml:space="preserve" font-family="Monaco" font-size="28.4" fill="#FEFFFE" transform="matrix(1.00, 0.00, -0.00, -1.00, 52.2, 279.0)">(</text><text xml:space="preserve" font-family="Monaco" font-size="28.4" fill="#FEFFFE" transform="matrix(1.00, 0.00, -0.00, -1.00, 69.3, 279.0)">g</text><text xml:space="preserve" font-family="Monaco" font-size="28.4" fill="#FEFFFE" transform="matrix(1.00, 0.00, -0.00, -1.00, 86.3, 279.0)">p</text><text xml:space="preserve" font-family="Monaco" font-size="28.4" fill="#FEFFFE" transform="matrix(1.00, 0.00, -0.00, -1.00, 103.4, 279.0)">s</text><text xml:space="preserve" font-family="Monaco" font-size="28.4" fill="#FEFFFE" transform="matrix(1.00, 0.00, -0.00, -1.00, 120.5, 279.0)">I</text><text xml:space="preserve" font-family="Monaco" font-size="28.4" fill="#FEFFFE" transform="matrix(1.00, 0.00, -0.00, -1.00, 137.6, 279.0)">n</text><text xml:space="preserve" font-family="Monaco" font-size="28.4" fill="#FEFFFE" transform="matrix(1.00, 0.00, -0.00, -1.00, 154.6, 279.0)">s</text><text xml:space="preserve" font-family="Monaco" font-size="28.4" fill="#FEFFFE" transform="matrix(1.00, 0.00, -0.00, -1.00, 171.7, 279.0)">t</text><text xml:space="preserve" font-family="Monaco" font-size="28.4" fill="#FEFFFE" transform="matrix(1.00, 0.00, -0.00, -1.00, 188.8, 279.0)">r</text><text xml:space="preserve" font-family="Monaco" font-size="28.4" fill="#FEFFFE" transform="matrix(1.00, 0.00, -0.00, -1.00, 205.8, 279.0)">u</text><text xml:space="preserve" font-family="Monaco" font-size="28.4" fill="#FEFFFE" transform="matrix(1.00, 0.00, -0.00, -1.00, 222.9, 279.0)">c</text><text xml:space="preserve" font-family="Monaco" font-size="28.4" fill="#FEFFFE" transform="matrix(1.00, 0.00, -0.00, -1.00, 240.0, 279.0)">t</text><text xml:space="preserve" font-family="Monaco" font-size="28.4" fill="#FEFFFE" transform="matrix(1.00, 0.00, -0.00, -1.00, 257.0, 279.0)">i</text><text xml:space="preserve" font-family="Monaco" font-size="28.4" fill="#FEFFFE" transform="matrix(1.00, 0.00, -0.00, -1.00, 274.1, 279.0)">o</text><text xml:space="preserve" font-family="Monaco" font-size="28.4" fill="#FEFFFE" transform="matrix(1.00, 0.00, -0.00, -1.00, 291.2, 279.0)">n</text><text xml:space="preserve" font-family="Monaco" font-size="28.4" fill="#FEFFFE" transform="matrix(1.00, 0.00, -0.00, -1.00, 308.3, 279.0)">s</text><text xml:space="preserve" font-family="Monaco" font-size="28.4" fill="#FEFFFE" transform="matrix(1.00, 0.00, -0.00, -1.00, 325.3, 279.0)"> </text><text xml:space="preserve" font-family="Monaco" font-size="28.4" fill="#FEFFFE" transform="matrix(1.00, 0.00, -0.00, -1.00, 342.4, 279.0)">=</text><text xml:space="preserve" font-family="Monaco" font-size="28.4" fill="#FEFFFE" transform="matrix(1.00, 0.00, -0.00, -1.00, 359.5, 279.0)">=</text><text xml:space="preserve" font-family="Monaco" font-size="28.4" fill="#FEFFFE" transform="matrix(1.00, 0.00, -0.00, -1.00, 376.5, 279.0)"> </text><text xml:space="preserve" font-family="Monaco" font-size="28.4" fill="#FEFFFE" transform="matrix(1.00, 0.00, -0.00, -1.00, 393.6, 279.0)">n</text><text xml:space="preserve" font-family="Monaco" font-size="28.4" fill="#FEFFFE" transform="matrix(1.00, 0.00, -0.00, -1.00, 410.7, 279.0)">o</text><text xml:space="preserve" font-family="Monaco" font-size="28.4" fill="#FEFFFE" transform="matrix(1.00, 0.00, -0.00, -1.00, 427.7, 279.0)">n</text><text xml:space="preserve" font-family="Monaco" font-size="28.4" fill="#FEFFFE" transform="matrix(1.00, 0.00, -0.00, -1.00, 444.8, 279.0)">s</text><text xml:space="preserve" font-family="Monaco" font-size="28.4" fill="#FEFFFE" transform="matrix(1.00, 0.00, -0.00, -1.00, 461.9, 279.0)">e</text><text xml:space="preserve" font-family="Monaco" font-size="28.4" fill="#FEFFFE" transform="matrix(1.00, 0.00, -0.00, -1.00, 478.9, 279.0)">n</text><text xml:space="preserve" font-family="Monaco" font-size="28.4" fill="#FEFFFE" transform="matrix(1.00, 0.00, -0.00, -1.00, 496.0, 279.0)">s</text><text xml:space="preserve" font-family="Monaco" font-size="28.4" fill="#FEFFFE" transform="matrix(1.00, 0.00, -0.00, -1.00, 513.1, 279.0)">e</text><text xml:space="preserve" font-family="Monaco" font-size="28.4" fill="#FEFFFE" transform="matrix(1.00, 0.00, -0.00, -1.00, 530.2, 279.0)">)</text><text xml:space="preserve" font-family="Monaco" font-size="28.4" fill="#FEFFFE" transform="matrix(1.00, 0.00, -0.00, -1.00, 547.2, 279.0)"> </text><text xml:space="preserve" font-family="Monaco" font-size="28.4" fill="#FEFFFE" transform="matrix(1.00, 0.00, -0.00, -1.00, 564.3, 279.0)">{</text><text xml:space="preserve" font-family="Monaco" font-size="28.4" fill="#FEFFFE" transform="matrix(1.00, 0.00, -0.00, -1.00, 581.4, 279.0)"> </text><text xml:space="preserve" font-family="Monaco" font-size="28.4" fill="#FEFFFE" transform="matrix(1.00, 0.00, -0.00, -1.00, 1.0, 225.0)"> </text><text xml:space="preserve" font-family="Monaco" font-size="28.4" fill="#FEFFFE" transform="matrix(1.00, 0.00, -0.00, -1.00, 18.1, 225.0)"> </text><text xml:space="preserve" font-family="Monaco" font-size="28.4" fill="#FEFFFE" transform="matrix(1.00, 0.00, -0.00, -1.00, 35.1, 225.0)"> </text><text xml:space="preserve" font-family="Monaco" font-size="28.4" fill="#FEFFFE" transform="matrix(1.00, 0.00, -0.00, -1.00, 52.2, 225.0)"> </text><text xml:space="preserve" font-family="Monaco" font-size="28.4" fill="#FEFFFE" transform="matrix(1.00, 0.00, -0.00, -1.00, 69.3, 225.0)">d</text><text xml:space="preserve" font-family="Monaco" font-size="28.4" fill="#FEFFFE" transform="matrix(1.00, 0.00, -0.00, -1.00, 86.3, 225.0)">r</text><text xml:space="preserve" font-family="Monaco" font-size="28.4" fill="#FEFFFE" transform="matrix(1.00, 0.00, -0.00, -1.00, 103.4, 225.0)">i</text><text xml:space="preserve" font-family="Monaco" font-size="28.4" fill="#FEFFFE" transform="matrix(1.00, 0.00, -0.00, -1.00, 120.5, 225.0)">v</text><text xml:space="preserve" font-family="Monaco" font-size="28.4" fill="#FEFFFE" transform="matrix(1.00, 0.00, -0.00, -1.00, 137.6, 225.0)">e</text><text xml:space="preserve" font-family="Monaco" font-size="28.4" fill="#FEFFFE" transform="matrix(1.00, 0.00, -0.00, -1.00, 154.6, 225.0)">_</text><text xml:space="preserve" font-family="Monaco" font-size="28.4" fill="#FEFFFE" transform="matrix(1.00, 0.00, -0.00, -1.00, 171.7, 225.0)">w</text><text xml:space="preserve" font-family="Monaco" font-size="28.4" fill="#FEFFFE" transform="matrix(1.00, 0.00, -0.00, -1.00, 188.8, 225.0)">i</text><text xml:space="preserve" font-family="Monaco" font-size="28.4" fill="#FEFFFE" transform="matrix(1.00, 0.00, -0.00, -1.00, 205.8, 225.0)">t</text><text xml:space="preserve" font-family="Monaco" font-size="28.4" fill="#FEFFFE" transform="matrix(1.00, 0.00, -0.00, -1.00, 222.9, 225.0)">h</text><text xml:space="preserve" font-family="Monaco" font-size="28.4" fill="#FEFFFE" transform="matrix(1.00, 0.00, -0.00, -1.00, 240.0, 225.0)">o</text><text xml:space="preserve" font-family="Monaco" font-size="28.4" fill="#FEFFFE" transform="matrix(1.00, 0.00, -0.00, -1.00, 257.0, 225.0)">u</text><text xml:space="preserve" font-family="Monaco" font-size="28.4" fill="#FEFFFE" transform="matrix(1.00, 0.00, -0.00, -1.00, 274.1, 225.0)">t</text><text xml:space="preserve" font-family="Monaco" font-size="28.4" fill="#FEFFFE" transform="matrix(1.00, 0.00, -0.00, -1.00, 291.2, 225.0)">_</text><text xml:space="preserve" font-family="Monaco" font-size="28.4" fill="#FEFFFE" transform="matrix(1.00, 0.00, -0.00, -1.00, 308.3, 225.0)">n</text><text xml:space="preserve" font-family="Monaco" font-size="28.4" fill="#FEFFFE" transform="matrix(1.00, 0.00, -0.00, -1.00, 325.3, 225.0)">a</text><text xml:space="preserve" font-family="Monaco" font-size="28.4" fill="#FEFFFE" transform="matrix(1.00, 0.00, -0.00, -1.00, 342.4, 225.0)">v</text><text xml:space="preserve" font-family="Monaco" font-size="28.4" fill="#FEFFFE" transform="matrix(1.00, 0.00, -0.00, -1.00, 359.5, 225.0)">i</text><text xml:space="preserve" font-family="Monaco" font-size="28.4" fill="#FEFFFE" transform="matrix(1.00, 0.00, -0.00, -1.00, 376.5, 225.0)">g</text><text xml:space="preserve" font-family="Monaco" font-size="28.4" fill="#FEFFFE" transform="matrix(1.00, 0.00, -0.00, -1.00, 393.6, 225.0)">a</text><text xml:space="preserve" font-family="Monaco" font-size="28.4" fill="#FEFFFE" transform="matrix(1.00, 0.00, -0.00, -1.00, 410.7, 225.0)">t</text><text xml:space="preserve" font-family="Monaco" font-size="28.4" fill="#FEFFFE" transform="matrix(1.00, 0.00, -0.00, -1.00, 427.7, 225.0)">i</text><text xml:space="preserve" font-family="Monaco" font-size="28.4" fill="#FEFFFE" transform="matrix(1.00, 0.00, -0.00, -1.00, 444.8, 225.0)">o</text><text xml:space="preserve" font-family="Monaco" font-size="28.4" fill="#FEFFFE" transform="matrix(1.00, 0.00, -0.00, -1.00, 461.9, 225.0)">n</text><text xml:space="preserve" font-family="Monaco" font-size="28.4" fill="#FEFFFE" transform="matrix(1.00, 0.00, -0.00, -1.00, 478.9, 225.0)">(</text><text xml:space="preserve" font-family="Monaco" font-size="28.4" fill="#FEFFFE" transform="matrix(1.00, 0.00, -0.00, -1.00, 496.0, 225.0)">)</text><text xml:space="preserve" font-family="Monaco" font-size="28.4" fill="#FEFFFE" transform="matrix(1.00, 0.00, -0.00, -1.00, 513.1, 225.0)">;</text><text xml:space="preserve" font-family="Monaco" font-size="28.4" fill="#FEFFFE" transform="matrix(1.00, 0.00, -0.00, -1.00, 530.2, 225.0)"> </text><text xml:space="preserve" font-family="Monaco" font-size="28.4" fill="#FEFFFE" transform="matrix(1.00, 0.00, -0.00, -1.00, 1.0, 171.0)">}</text><text xml:space="preserve" font-family="Monaco" font-size="28.4" fill="#FEFFFE" transform="matrix(1.00, 0.00, -0.00, -1.00, 18.1, 171.0)"> </text><text xml:space="preserve" font-family="Monaco" font-size="28.4" fill="#FEFFFE" transform="matrix(1.00, 0.00, -0.00, -1.00, 1.0, 116.0)">e</text><text xml:space="preserve" font-family="Monaco" font-size="28.4" fill="#FEFFFE" transform="matrix(1.00, 0.00, -0.00, -1.00, 18.1, 116.0)">l</text><text xml:space="preserve" font-family="Monaco" font-size="28.4" fill="#FEFFFE" transform="matrix(1.00, 0.00, -0.00, -1.00, 35.1, 116.0)">s</text><text xml:space="preserve" font-family="Monaco" font-size="28.4" fill="#FEFFFE" transform="matrix(1.00, 0.00, -0.00, -1.00, 52.2, 116.0)">e</text><text xml:space="preserve" font-family="Monaco" font-size="28.4" fill="#FEFFFE" transform="matrix(1.00, 0.00, -0.00, -1.00, 69.3, 116.0)"> </text><text xml:space="preserve" font-family="Monaco" font-size="28.4" fill="#FEFFFE" transform="matrix(1.00, 0.00, -0.00, -1.00, 86.3, 116.0)">{</text><text xml:space="preserve" font-family="Monaco" font-size="28.4" fill="#FEFFFE" transform="matrix(1.00, 0.00, -0.00, -1.00, 103.4, 116.0)"> </text><text xml:space="preserve" font-family="Monaco" font-size="28.4" fill="#FEFFFE" transform="matrix(1.00, 0.00, -0.00, -1.00, 1.0, 62.0)"> </text><text xml:space="preserve" font-family="Monaco" font-size="28.4" fill="#FEFFFE" transform="matrix(1.00, 0.00, -0.00, -1.00, 18.1, 62.0)"> </text><text xml:space="preserve" font-family="Monaco" font-size="28.4" fill="#FEFFFE" transform="matrix(1.00, 0.00, -0.00, -1.00, 35.1, 62.0)"> </text><text xml:space="preserve" font-family="Monaco" font-size="28.4" fill="#FEFFFE" transform="matrix(1.00, 0.00, -0.00, -1.00, 52.2, 62.0)"> </text><text xml:space="preserve" font-family="Monaco" font-size="28.4" fill="#FEFFFE" transform="matrix(1.00, 0.00, -0.00, -1.00, 69.3, 62.0)">d</text><text xml:space="preserve" font-family="Monaco" font-size="28.4" fill="#FEFFFE" transform="matrix(1.00, 0.00, -0.00, -1.00, 86.3, 62.0)">r</text><text xml:space="preserve" font-family="Monaco" font-size="28.4" fill="#FEFFFE" transform="matrix(1.00, 0.00, -0.00, -1.00, 103.4, 62.0)">i</text><text xml:space="preserve" font-family="Monaco" font-size="28.4" fill="#FEFFFE" transform="matrix(1.00, 0.00, -0.00, -1.00, 120.5, 62.0)">v</text><text xml:space="preserve" font-family="Monaco" font-size="28.4" fill="#FEFFFE" transform="matrix(1.00, 0.00, -0.00, -1.00, 137.5, 62.0)">e</text><text xml:space="preserve" font-family="Monaco" font-size="28.4" fill="#FEFFFE" transform="matrix(1.00, 0.00, -0.00, -1.00, 154.6, 62.0)">_</text><text xml:space="preserve" font-family="Monaco" font-size="28.4" fill="#FEFFFE" transform="matrix(1.00, 0.00, -0.00, -1.00, 171.7, 62.0)">w</text><text xml:space="preserve" font-family="Monaco" font-size="28.4" fill="#FEFFFE" transform="matrix(1.00, 0.00, -0.00, -1.00, 188.8, 62.0)">i</text><text xml:space="preserve" font-family="Monaco" font-size="28.4" fill="#FEFFFE" transform="matrix(1.00, 0.00, -0.00, -1.00, 205.8, 62.0)">t</text><text xml:space="preserve" font-family="Monaco" font-size="28.4" fill="#FEFFFE" transform="matrix(1.00, 0.00, -0.00, -1.00, 222.9, 62.0)">h</text><text xml:space="preserve" font-family="Monaco" font-size="28.4" fill="#FEFFFE" transform="matrix(1.00, 0.00, -0.00, -1.00, 240.0, 62.0)">_</text><text xml:space="preserve" font-family="Monaco" font-size="28.4" fill="#FEFFFE" transform="matrix(1.00, 0.00, -0.00, -1.00, 257.0, 62.0)">g</text><text xml:space="preserve" font-family="Monaco" font-size="28.4" fill="#FEFFFE" transform="matrix(1.00, 0.00, -0.00, -1.00, 274.1, 62.0)">p</text><text xml:space="preserve" font-family="Monaco" font-size="28.4" fill="#FEFFFE" transform="matrix(1.00, 0.00, -0.00, -1.00, 291.2, 62.0)">s</text><text xml:space="preserve" font-family="Monaco" font-size="28.4" fill="#FEFFFE" transform="matrix(1.00, 0.00, -0.00, -1.00, 308.2, 62.0)">_</text><text xml:space="preserve" font-family="Monaco" font-size="28.4" fill="#FEFFFE" transform="matrix(1.00, 0.00, -0.00, -1.00, 325.3, 62.0)">n</text><text xml:space="preserve" font-family="Monaco" font-size="28.4" fill="#FEFFFE" transform="matrix(1.00, 0.00, -0.00, -1.00, 342.4, 62.0)">a</text><text xml:space="preserve" font-family="Monaco" font-size="28.4" fill="#FEFFFE" transform="matrix(1.00, 0.00, -0.00, -1.00, 359.5, 62.0)">v</text><text xml:space="preserve" font-family="Monaco" font-size="28.4" fill="#FEFFFE" transform="matrix(1.00, 0.00, -0.00, -1.00, 376.5, 62.0)">i</text><text xml:space="preserve" font-family="Monaco" font-size="28.4" fill="#FEFFFE" transform="matrix(1.00, 0.00, -0.00, -1.00, 393.6, 62.0)">g</text><text xml:space="preserve" font-family="Monaco" font-size="28.4" fill="#FEFFFE" transform="matrix(1.00, 0.00, -0.00, -1.00, 410.7, 62.0)">a</text><text xml:space="preserve" font-family="Monaco" font-size="28.4" fill="#FEFFFE" transform="matrix(1.00, 0.00, -0.00, -1.00, 427.7, 62.0)">t</text><text xml:space="preserve" font-family="Monaco" font-size="28.4" fill="#FEFFFE" transform="matrix(1.00, 0.00, -0.00, -1.00, 444.8, 62.0)">i</text><text xml:space="preserve" font-family="Monaco" font-size="28.4" fill="#FEFFFE" transform="matrix(1.00, 0.00, -0.00, -1.00, 461.9, 62.0)">o</text><text xml:space="preserve" font-family="Monaco" font-size="28.4" fill="#FEFFFE" transform="matrix(1.00, 0.00, -0.00, -1.00, 478.9, 62.0)">n</text><text xml:space="preserve" font-family="Monaco" font-size="28.4" fill="#FEFFFE" transform="matrix(1.00, 0.00, -0.00, -1.00, 496.0, 62.0)">(</text><text xml:space="preserve" font-family="Monaco" font-size="28.4" fill="#FEFFFE" transform="matrix(1.00, 0.00, -0.00, -1.00, 513.1, 62.0)">)</text><text xml:space="preserve" font-family="Monaco" font-size="28.4" fill="#FEFFFE" transform="matrix(1.00, 0.00, -0.00, -1.00, 530.1, 62.0)">;</text><text xml:space="preserve" font-family="Monaco" font-size="28.4" fill="#FEFFFE" transform="matrix(1.00, 0.00, -0.00, -1.00, 547.2, 62.0)"> </text><text xml:space="preserve" font-family="Monaco" font-size="28.4" fill="#FEFFFE" transform="matrix(1.00, 0.00, -0.00, -1.00, 1.0, 8.0)">}</text></g></svg>