<?xml version="1.0" encoding="UTF-8" standalone="no"?><svg xmlns="http://www.w3.org/2000/svg" xmlns:xlink="http://www.w3.org/1999/xlink" clip-rule="evenodd" stroke-miterlimit="4.00" viewBox="0 0 585 31"><desc>SVG generated by Keynote</desc><defs></defs><g transform="matrix(1.00, 0.00, -0.00, -1.00, 0.0, 31.0)"><text xml:space="preserve" font-family="AvenirNext-Regular" font-size="32.0" fill="#000000" transform="matrix(1.00, 0.00, -0.00, -1.00, 2.0, 6.0)">т</text><text xml:space="preserve" font-family="AvenirNext-Regular" font-size="32.0" fill="#000000" transform="matrix(1.00, 0.00, -0.00, -1.00, 15.8, 6.0)">.</text><text xml:space="preserve" font-family="AvenirNext-Regular" font-size="32.0" fill="#000000" transform="matrix(1.00, 0.00, -0.00, -1.00, 24.1, 6.0)">е</text><text xml:space="preserve" font-family="AvenirNext-Regular" font-size="32.0" fill="#000000" transform="matrix(1.00, 0.00, -0.00, -1.00, 42.4, 6.0)">.</text><text xml:space="preserve" font-family="AvenirNext-Regular" font-size="32.0" fill="#000000" transform="matrix(1.00, 0.00, -0.00, -1.00, 49.8, 6.0)"> </text><text xml:space="preserve" font-family="AvenirNext-Regular" font-size="32.0" fill="#000000" transform="matrix(1.00, 0.00, -0.00, -1.00, 57.8, 6.0)">т</text><text xml:space="preserve" font-family="AvenirNext-Regular" font-size="32.0" fill="#000000" transform="matrix(1.00, 0.00, -0.00, -1.00, 71.6, 6.0)">а</text><text xml:space="preserve" font-family="AvenirNext-Regular" font-size="32.0" fill="#000000" transform="matrix(1.00, 0.00, -0.00, -1.00, 88.7, 6.0)">к</text><text xml:space="preserve" font-family="AvenirNext-Regular" font-size="32.0" fill="#000000" transform="matrix(1.00, 0.00, -0.00, -1.00, 106.0, 6.0)">и</text><text xml:space="preserve" font-family="AvenirNext-Regular" font-size="32.0" fill="#000000" transform="matrix(1.00, 0.00, -0.00, -1.00, 125.2, 6.0)">в</text><text xml:space="preserve" font-family="AvenirNext-Regular" font-size="32.0" fill="#000000" transform="matrix(1.00, 0.00, -0.00, -1.00, 142.5, 6.0)">а</text><text xml:space="preserve" font-family="AvenirNext-Regular" font-size="32.0" fill="#000000" transform="matrix(1.00, 0.00, -0.00, -1.00, 159.6, 6.0)">,</text><text xml:space="preserve" font-family="AvenirNext-Regular" font-size="32.0" fill="#000000" transform="matrix(1.00, 0.00, -0.00, -1.00, 167.0, 6.0)"> </text><text xml:space="preserve" font-family="AvenirNext-Regular" font-size="32.0" fill="#000000" transform="matrix(1.00, 0.00, -0.00, -1.00, 175.0, 6.0)">к</text><text xml:space="preserve" font-family="AvenirNext-Regular" font-size="32.0" fill="#000000" transform="matrix(1.00, 0.00, -0.00, -1.00, 192.3, 6.0)">о</text><text xml:space="preserve" font-family="AvenirNext-Regular" font-size="32.0" fill="#000000" transform="matrix(1.00, 0.00, -0.00, -1.00, 211.9, 6.0)">и</text><text xml:space="preserve" font-family="AvenirNext-Regular" font-size="32.0" fill="#000000" transform="matrix(1.00, 0.00, -0.00, -1.00, 231.1, 6.0)">т</text><text xml:space="preserve" font-family="AvenirNext-Regular" font-size="32.0" fill="#000000" transform="matrix(1.00, 0.00, -0.00, -1.00, 244.8, 6.0)">о</text><text xml:space="preserve" font-family="AvenirNext-Regular" font-size="32.0" fill="#000000" transform="matrix(1.00, 0.00, -0.00, -1.00, 264.4, 6.0)"> </text><text xml:space="preserve" font-family="AvenirNext-Regular" font-size="32.0" fill="#000000" transform="matrix(1.00, 0.00, -0.00, -1.00, 272.4, 6.0)">м</text><text xml:space="preserve" font-family="AvenirNext-Regular" font-size="32.0" fill="#000000" transform="matrix(1.00, 0.00, -0.00, -1.00, 294.6, 6.0)">о</text><text xml:space="preserve" font-family="AvenirNext-Regular" font-size="32.0" fill="#000000" transform="matrix(1.00, 0.00, -0.00, -1.00, 314.2, 6.0)">г</text><text xml:space="preserve" font-family="AvenirNext-Regular" font-size="32.0" fill="#000000" transform="matrix(1.00, 0.00, -0.00, -1.00, 326.6, 6.0)">а</text><text xml:space="preserve" font-family="AvenirNext-Regular" font-size="32.0" fill="#000000" transform="matrix(1.00, 0.00, -0.00, -1.00, 343.7, 6.0)">т</text><text xml:space="preserve" font-family="AvenirNext-Regular" font-size="32.0" fill="#000000" transform="matrix(1.00, 0.00, -0.00, -1.00, 357.5, 6.0)"> </text><text xml:space="preserve" font-family="AvenirNext-Regular" font-size="32.0" fill="#000000" transform="matrix(1.00, 0.00, -0.00, -1.00, 365.5, 6.0)">д</text><text xml:space="preserve" font-family="AvenirNext-Regular" font-size="32.0" fill="#000000" transform="matrix(1.00, 0.00, -0.00, -1.00, 382.9, 6.0)">а</text><text xml:space="preserve" font-family="AvenirNext-Regular" font-size="32.0" fill="#000000" transform="matrix(1.00, 0.00, -0.00, -1.00, 400.0, 6.0)"> </text><text xml:space="preserve" font-family="AvenirNext-Regular" font-size="32.0" fill="#000000" transform="matrix(1.00, 0.00, -0.00, -1.00, 408.0, 6.0)">с</text><text xml:space="preserve" font-family="AvenirNext-Regular" font-size="32.0" fill="#000000" transform="matrix(1.00, 0.00, -0.00, -1.00, 424.0, 6.0)">е</text><text xml:space="preserve" font-family="AvenirNext-Regular" font-size="32.0" fill="#000000" transform="matrix(1.00, 0.00, -0.00, -1.00, 442.3, 6.0)"> </text><text xml:space="preserve" font-family="AvenirNext-Regular" font-size="32.0" fill="#000000" transform="matrix(1.00, 0.00, -0.00, -1.00, 450.3, 6.0)">и</text><text xml:space="preserve" font-family="AvenirNext-Regular" font-size="32.0" fill="#000000" transform="matrix(1.00, 0.00, -0.00, -1.00, 469.5, 6.0)">з</text><text xml:space="preserve" font-family="AvenirNext-Regular" font-size="32.0" fill="#000000" transform="matrix(1.00, 0.00, -0.00, -1.00, 484.3, 6.0)">б</text><text xml:space="preserve" font-family="AvenirNext-Regular" font-size="32.0" fill="#000000" transform="matrix(1.00, 0.00, -0.00, -1.00, 503.4, 6.0)">е</text><text xml:space="preserve" font-family="AvenirNext-Regular" font-size="32.0" fill="#000000" transform="matrix(1.00, 0.00, -0.00, -1.00, 521.7, 6.0)">г</text><text xml:space="preserve" font-family="AvenirNext-Regular" font-size="32.0" fill="#000000" transform="matrix(1.00, 0.00, -0.00, -1.00, 534.2, 6.0)">н</text><text xml:space="preserve" font-family="AvenirNext-Regular" font-size="32.0" fill="#000000" transform="matrix(1.00, 0.00, -0.00, -1.00, 552.6, 6.0)">а</text><text xml:space="preserve" font-family="AvenirNext-Regular" font-size="32.0" fill="#000000" transform="matrix(1.00, 0.00, -0.00, -1.00, 569.6, 6.0)">т</text></g></svg>