<?xml version="1.0" encoding="UTF-8" standalone="no"?><svg xmlns="http://www.w3.org/2000/svg" xmlns:xlink="http://www.w3.org/1999/xlink" clip-rule="evenodd" stroke-miterlimit="4.00" viewBox="0 0 1024 768"><desc>SVG generated by Keynote</desc><defs></defs><g transform="matrix(1.00, 0.00, -0.00, -1.00, 0.0, 768.0)"><g><clipPath id="clip-339"><path d="M 0.0 768.0 L 1024.0 768.0 L 1024.0 0.0 L 0.0 0.0 Z M 0.0 768.0 "></path></clipPath><g clip-path="url(#clip-339)"><image xlink:href="../../8F6754E5-F402-453C-8A28-A81B776A4759/assets/370422EB796A13E2672D714038217573.png" width="720.00" height="450.00" transform="matrix(1.42, 0.00, -0.00, -1.71, 0.0, 768.0)"></image></g></g><text xml:space="preserve" font-family="AvenirNext-Regular" font-size="21.4" fill="#000000" transform="matrix(1.00, 0.00, -0.00, -1.00, 79.0, 590.1)">•</text><text xml:space="preserve" font-family="AvenirNext-Regular" font-size="28.5" fill="#000000" transform="matrix(1.00, 0.00, -0.00, -1.00, 103.0, 588.0)">П</text><text xml:space="preserve" font-family="AvenirNext-Regular" font-size="28.5" fill="#000000" transform="matrix(1.00, 0.00, -0.00, -1.00, 122.9, 588.0)">р</text><text xml:space="preserve" font-family="AvenirNext-Regular" font-size="28.5" fill="#000000" transform="matrix(1.00, 0.00, -0.00, -1.00, 141.0, 588.0)">е</text><text xml:space="preserve" font-family="AvenirNext-Regular" font-size="28.5" fill="#000000" transform="matrix(1.00, 0.00, -0.00, -1.00, 157.3, 588.0)">п</text><text xml:space="preserve" font-family="AvenirNext-Regular" font-size="28.5" fill="#000000" transform="matrix(1.00, 0.00, -0.00, -1.00, 173.4, 588.0)">о</text><text xml:space="preserve" font-family="AvenirNext-Regular" font-size="28.5" fill="#000000" transform="matrix(1.00, 0.00, -0.00, -1.00, 190.8, 588.0)">д</text><text xml:space="preserve" font-family="AvenirNext-Regular" font-size="28.5" fill="#000000" transform="matrix(1.00, 0.00, -0.00, -1.00, 206.3, 588.0)">а</text><text xml:space="preserve" font-family="AvenirNext-Regular" font-size="28.5" fill="#000000" transform="matrix(1.00, 0.00, -0.00, -1.00, 221.5, 588.0)">в</text><text xml:space="preserve" font-family="AvenirNext-Regular" font-size="28.5" fill="#000000" transform="matrix(1.00, 0.00, -0.00, -1.00, 236.9, 588.0)">а</text><text xml:space="preserve" font-family="AvenirNext-Regular" font-size="28.5" fill="#000000" transform="matrix(1.00, 0.00, -0.00, -1.00, 252.1, 588.0)">т</text><text xml:space="preserve" font-family="AvenirNext-Regular" font-size="28.5" fill="#000000" transform="matrix(1.00, 0.00, -0.00, -1.00, 264.4, 588.0)">е</text><text xml:space="preserve" font-family="AvenirNext-Regular" font-size="28.5" fill="#000000" transform="matrix(1.00, 0.00, -0.00, -1.00, 280.7, 588.0)">л</text><text xml:space="preserve" font-family="AvenirNext-Regular" font-size="28.5" fill="#000000" transform="matrix(1.00, 0.00, -0.00, -1.00, 294.8, 588.0)"> </text><text xml:space="preserve" font-family="AvenirNext-Regular" font-size="21.4" fill="#000000" transform="matrix(1.00, 0.00, -0.00, -1.00, 79.0, 457.1)">•</text><text xml:space="preserve" font-family="AvenirNext-Regular" font-size="28.5" fill="#000000" transform="matrix(1.00, 0.00, -0.00, -1.00, 103.0, 455.0)">К</text><text xml:space="preserve" font-family="AvenirNext-Regular" font-size="28.5" fill="#000000" transform="matrix(1.00, 0.00, -0.00, -1.00, 122.7, 455.0)">о</text><text xml:space="preserve" font-family="AvenirNext-Regular" font-size="28.5" fill="#000000" transform="matrix(1.00, 0.00, -0.00, -1.00, 140.1, 455.0)">н</text><text xml:space="preserve" font-family="AvenirNext-Regular" font-size="28.5" fill="#000000" transform="matrix(1.00, 0.00, -0.00, -1.00, 156.5, 455.0)">т</text><text xml:space="preserve" font-family="AvenirNext-Regular" font-size="28.5" fill="#000000" transform="matrix(1.00, 0.00, -0.00, -1.00, 168.7, 455.0)">а</text><text xml:space="preserve" font-family="AvenirNext-Regular" font-size="28.5" fill="#000000" transform="matrix(1.00, 0.00, -0.00, -1.00, 183.9, 455.0)">к</text><text xml:space="preserve" font-family="AvenirNext-Regular" font-size="28.5" fill="#000000" transform="matrix(1.00, 0.00, -0.00, -1.00, 199.4, 455.0)">т</text><text xml:space="preserve" font-family="AvenirNext-Regular" font-size="28.5" fill="#000000" transform="matrix(1.00, 0.00, -0.00, -1.00, 211.7, 455.0)">и</text><text xml:space="preserve" font-family="AvenirNext-Regular" font-size="28.5" fill="#000000" transform="matrix(1.00, 0.00, -0.00, -1.00, 228.7, 455.0)"> </text><text xml:space="preserve" font-family="AvenirNext-Regular" font-size="21.4" fill="#000000" transform="matrix(1.00, 0.00, -0.00, -1.00, 79.0, 257.7)">•</text><text xml:space="preserve" font-family="AvenirNext-Regular" font-size="28.5" fill="#000000" transform="matrix(1.00, 0.00, -0.00, -1.00, 103.0, 256.0)">С</text><text xml:space="preserve" font-family="AvenirNext-Regular" font-size="28.5" fill="#000000" transform="matrix(1.00, 0.00, -0.00, -1.00, 123.5, 256.0)">т</text><text xml:space="preserve" font-family="AvenirNext-Regular" font-size="28.5" fill="#000000" transform="matrix(1.00, 0.00, -0.00, -1.00, 135.8, 256.0)">р</text><text xml:space="preserve" font-family="AvenirNext-Regular" font-size="28.5" fill="#000000" transform="matrix(1.00, 0.00, -0.00, -1.00, 153.9, 256.0)">а</text><text xml:space="preserve" font-family="AvenirNext-Regular" font-size="28.5" fill="#000000" transform="matrix(1.00, 0.00, -0.00, -1.00, 169.1, 256.0)">н</text><text xml:space="preserve" font-family="AvenirNext-Regular" font-size="28.5" fill="#000000" transform="matrix(1.00, 0.00, -0.00, -1.00, 185.4, 256.0)">и</text><text xml:space="preserve" font-family="AvenirNext-Regular" font-size="28.5" fill="#000000" transform="matrix(1.00, 0.00, -0.00, -1.00, 202.5, 256.0)">ц</text><text xml:space="preserve" font-family="AvenirNext-Regular" font-size="28.5" fill="#000000" transform="matrix(1.00, 0.00, -0.00, -1.00, 218.8, 256.0)">а</text><text xml:space="preserve" font-family="AvenirNext-Regular" font-size="28.5" fill="#000000" transform="matrix(1.00, 0.00, -0.00, -1.00, 234.0, 256.0)"> </text><text xml:space="preserve" font-family="AvenirNext-Regular" font-size="28.5" fill="#000000" transform="matrix(1.00, 0.00, -0.00, -1.00, 241.1, 256.0)">н</text><text xml:space="preserve" font-family="AvenirNext-Regular" font-size="28.5" fill="#000000" transform="matrix(1.00, 0.00, -0.00, -1.00, 257.5, 256.0)">а</text><text xml:space="preserve" font-family="AvenirNext-Regular" font-size="28.5" fill="#000000" transform="matrix(1.00, 0.00, -0.00, -1.00, 272.7, 256.0)"> </text><text xml:space="preserve" font-family="AvenirNext-Regular" font-size="28.5" fill="#000000" transform="matrix(1.00, 0.00, -0.00, -1.00, 279.8, 256.0)">к</text><text xml:space="preserve" font-family="AvenirNext-Regular" font-size="28.5" fill="#000000" transform="matrix(1.00, 0.00, -0.00, -1.00, 295.3, 256.0)">у</text><text xml:space="preserve" font-family="AvenirNext-Regular" font-size="28.5" fill="#000000" transform="matrix(1.00, 0.00, -0.00, -1.00, 309.2, 256.0)">р</text><text xml:space="preserve" font-family="AvenirNext-Regular" font-size="28.5" fill="#000000" transform="matrix(1.00, 0.00, -0.00, -1.00, 327.3, 256.0)">с</text><text xml:space="preserve" font-family="AvenirNext-Regular" font-size="28.5" fill="#000000" transform="matrix(1.00, 0.00, -0.00, -1.00, 341.5, 256.0)">а</text><text xml:space="preserve" font-family="AvenirNext-Regular" font-size="28.5" fill="#000000" transform="matrix(1.00, 0.00, -0.00, -1.00, 356.7, 256.0)"> </text></g></svg>