<?xml version="1.0" encoding="UTF-8" standalone="no"?><svg xmlns="http://www.w3.org/2000/svg" xmlns:xlink="http://www.w3.org/1999/xlink" clip-rule="evenodd" stroke-miterlimit="4.00" viewBox="0 0 1024 768"><desc>SVG generated by Keynote</desc><defs></defs><g transform="matrix(1.00, 0.00, -0.00, -1.00, 0.0, 768.0)"><g><clipPath id="clip-385"><path d="M 0.0 768.0 L 1024.0 768.0 L 1024.0 0.0 L 0.0 0.0 Z M 0.0 768.0 "></path></clipPath><g clip-path="url(#clip-385)"><image xlink:href="../../8F6754E5-F402-453C-8A28-A81B776A4759/assets/370422EB796A13E2672D714038217573.png" width="720.00" height="450.00" transform="matrix(1.42, 0.00, -0.00, -1.71, 0.0, 768.0)"></image></g></g><text xml:space="preserve" font-family="AvenirNext-Regular" font-size="30.0" fill="#000000" transform="matrix(1.00, 0.00, -0.00, -1.00, 79.0, 525.1)">•</text><text xml:space="preserve" font-family="AvenirNext-Regular" font-size="30.0" fill="#000000" transform="matrix(1.00, 0.00, -0.00, -1.00, 125.0, 525.0)">К</text><text xml:space="preserve" font-family="AvenirNext-Regular" font-size="30.0" fill="#000000" transform="matrix(1.00, 0.00, -0.00, -1.00, 145.7, 525.0)">о</text><text xml:space="preserve" font-family="AvenirNext-Regular" font-size="30.0" fill="#000000" transform="matrix(1.00, 0.00, -0.00, -1.00, 164.1, 525.0)">н</text><text xml:space="preserve" font-family="AvenirNext-Regular" font-size="30.0" fill="#000000" transform="matrix(1.00, 0.00, -0.00, -1.00, 181.3, 525.0)">ц</text><text xml:space="preserve" font-family="AvenirNext-Regular" font-size="30.0" fill="#000000" transform="matrix(1.00, 0.00, -0.00, -1.00, 198.4, 525.0)">е</text><text xml:space="preserve" font-family="AvenirNext-Regular" font-size="30.0" fill="#000000" transform="matrix(1.00, 0.00, -0.00, -1.00, 215.6, 525.0)">п</text><text xml:space="preserve" font-family="AvenirNext-Regular" font-size="30.0" fill="#000000" transform="matrix(1.00, 0.00, -0.00, -1.00, 232.6, 525.0)">ц</text><text xml:space="preserve" font-family="AvenirNext-Regular" font-size="30.0" fill="#000000" transform="matrix(1.00, 0.00, -0.00, -1.00, 249.7, 525.0)">и</text><text xml:space="preserve" font-family="AvenirNext-Regular" font-size="30.0" fill="#000000" transform="matrix(1.00, 0.00, -0.00, -1.00, 267.7, 525.0)">я</text><text xml:space="preserve" font-family="AvenirNext-Regular" font-size="30.0" fill="#000000" transform="matrix(1.00, 0.00, -0.00, -1.00, 283.9, 525.0)">т</text><text xml:space="preserve" font-family="AvenirNext-Regular" font-size="30.0" fill="#000000" transform="matrix(1.00, 0.00, -0.00, -1.00, 296.8, 525.0)">а</text><text xml:space="preserve" font-family="AvenirNext-Regular" font-size="30.0" fill="#000000" transform="matrix(1.00, 0.00, -0.00, -1.00, 312.8, 525.0)"> </text><text xml:space="preserve" font-family="AvenirNext-Regular" font-size="30.0" fill="#000000" transform="matrix(1.00, 0.00, -0.00, -1.00, 320.3, 525.0)">с</text><text xml:space="preserve" font-family="AvenirNext-Regular" font-size="30.0" fill="#000000" transform="matrix(1.00, 0.00, -0.00, -1.00, 335.3, 525.0)">ъ</text><text xml:space="preserve" font-family="AvenirNext-Regular" font-size="30.0" fill="#000000" transform="matrix(1.00, 0.00, -0.00, -1.00, 351.9, 525.0)">р</text><text xml:space="preserve" font-family="AvenirNext-Regular" font-size="30.0" fill="#000000" transform="matrix(1.00, 0.00, -0.00, -1.00, 370.9, 525.0)">в</text><text xml:space="preserve" font-family="AvenirNext-Regular" font-size="30.0" fill="#000000" transform="matrix(1.00, 0.00, -0.00, -1.00, 387.2, 525.0)">ъ</text><text xml:space="preserve" font-family="AvenirNext-Regular" font-size="30.0" fill="#000000" transform="matrix(1.00, 0.00, -0.00, -1.00, 403.7, 525.0)">р</text><text xml:space="preserve" font-family="AvenirNext-Regular" font-size="30.0" fill="#000000" transform="matrix(1.00, 0.00, -0.00, -1.00, 422.8, 525.0)"> </text><text xml:space="preserve" font-family="AvenirNext-Regular" font-size="30.0" fill="#000000" transform="matrix(1.00, 0.00, -0.00, -1.00, 430.3, 525.0)">:</text><text xml:space="preserve" font-family="AvenirNext-Regular" font-size="30.0" fill="#000000" transform="matrix(1.00, 0.00, -0.00, -1.00, 439.3, 525.0)"> </text><text xml:space="preserve" font-family="AvenirNext-Regular" font-size="30.0" fill="#000000" transform="matrix(1.00, 0.00, -0.00, -1.00, 446.8, 525.0)">к</text><text xml:space="preserve" font-family="AvenirNext-Regular" font-size="30.0" fill="#000000" transform="matrix(1.00, 0.00, -0.00, -1.00, 463.1, 525.0)">л</text><text xml:space="preserve" font-family="AvenirNext-Regular" font-size="30.0" fill="#000000" transform="matrix(1.00, 0.00, -0.00, -1.00, 478.0, 525.0)">и</text><text xml:space="preserve" font-family="AvenirNext-Regular" font-size="30.0" fill="#000000" transform="matrix(1.00, 0.00, -0.00, -1.00, 496.0, 525.0)">е</text><text xml:space="preserve" font-family="AvenirNext-Regular" font-size="30.0" fill="#000000" transform="matrix(1.00, 0.00, -0.00, -1.00, 513.1, 525.0)">н</text><text xml:space="preserve" font-family="AvenirNext-Regular" font-size="30.0" fill="#000000" transform="matrix(1.00, 0.00, -0.00, -1.00, 530.4, 525.0)">т</text><text xml:space="preserve" font-family="LucidaGrande" font-size="30.0" fill="#000000" transform="matrix(1.00, 0.00, -0.00, -1.00, 543.3, 525.0)"> </text><text xml:space="preserve" font-family="AvenirNext-Regular" font-size="30.0" fill="#000000" transform="matrix(1.00, 0.00, -0.00, -1.00, 79.0, 449.9)">•</text><text xml:space="preserve" font-family="AvenirNext-Regular" font-size="30.0" fill="#000000" transform="matrix(1.00, 0.00, -0.00, -1.00, 125.0, 450.0)">В</text><text xml:space="preserve" font-family="AvenirNext-Regular" font-size="30.0" fill="#000000" transform="matrix(1.00, 0.00, -0.00, -1.00, 144.1, 450.0)">с</text><text xml:space="preserve" font-family="AvenirNext-Regular" font-size="30.0" fill="#000000" transform="matrix(1.00, 0.00, -0.00, -1.00, 159.1, 450.0)">я</text><text xml:space="preserve" font-family="AvenirNext-Regular" font-size="30.0" fill="#000000" transform="matrix(1.00, 0.00, -0.00, -1.00, 175.2, 450.0)">к</text><text xml:space="preserve" font-family="AvenirNext-Regular" font-size="30.0" fill="#000000" transform="matrix(1.00, 0.00, -0.00, -1.00, 191.5, 450.0)">а</text><text xml:space="preserve" font-family="AvenirNext-Regular" font-size="30.0" fill="#000000" transform="matrix(1.00, 0.00, -0.00, -1.00, 207.6, 450.0)"> </text><text xml:space="preserve" font-family="AvenirNext-Regular" font-size="30.0" fill="#000000" transform="matrix(1.00, 0.00, -0.00, -1.00, 215.1, 450.0)">е</text><text xml:space="preserve" font-family="AvenirNext-Regular" font-size="30.0" fill="#000000" transform="matrix(1.00, 0.00, -0.00, -1.00, 232.2, 450.0)">д</text><text xml:space="preserve" font-family="AvenirNext-Regular" font-size="30.0" fill="#000000" transform="matrix(1.00, 0.00, -0.00, -1.00, 248.5, 450.0)">н</text><text xml:space="preserve" font-family="AvenirNext-Regular" font-size="30.0" fill="#000000" transform="matrix(1.00, 0.00, -0.00, -1.00, 265.8, 450.0)">а</text><text xml:space="preserve" font-family="AvenirNext-Regular" font-size="30.0" fill="#000000" transform="matrix(1.00, 0.00, -0.00, -1.00, 281.8, 450.0)"> </text><text xml:space="preserve" font-family="AvenirNext-Regular" font-size="30.0" fill="#000000" transform="matrix(1.00, 0.00, -0.00, -1.00, 289.3, 450.0)">е</text><text xml:space="preserve" font-family="AvenirNext-Regular" font-size="30.0" fill="#000000" transform="matrix(1.00, 0.00, -0.00, -1.00, 306.5, 450.0)">д</text><text xml:space="preserve" font-family="AvenirNext-Regular" font-size="30.0" fill="#000000" transform="matrix(1.00, 0.00, -0.00, -1.00, 322.8, 450.0)">н</text><text xml:space="preserve" font-family="AvenirNext-Regular" font-size="30.0" fill="#000000" transform="matrix(1.00, 0.00, -0.00, -1.00, 340.0, 450.0)">а</text><text xml:space="preserve" font-family="AvenirNext-Regular" font-size="30.0" fill="#000000" transform="matrix(1.00, 0.00, -0.00, -1.00, 356.1, 450.0)"> </text><text xml:space="preserve" font-family="AvenirNext-Regular" font-size="30.0" fill="#000000" transform="matrix(1.00, 0.00, -0.00, -1.00, 363.6, 450.0)">у</text><text xml:space="preserve" font-family="AvenirNext-Regular" font-size="30.0" fill="#000000" transform="matrix(1.00, 0.00, -0.00, -1.00, 378.2, 450.0)">е</text><text xml:space="preserve" font-family="AvenirNext-Regular" font-size="30.0" fill="#000000" transform="matrix(1.00, 0.00, -0.00, -1.00, 395.4, 450.0)">б</text><text xml:space="preserve" font-family="AvenirNext-Regular" font-size="30.0" fill="#000000" transform="matrix(1.00, 0.00, -0.00, -1.00, 413.3, 450.0)"> </text><text xml:space="preserve" font-family="AvenirNext-Regular" font-size="30.0" fill="#000000" transform="matrix(1.00, 0.00, -0.00, -1.00, 420.8, 450.0)">с</text><text xml:space="preserve" font-family="AvenirNext-Regular" font-size="30.0" fill="#000000" transform="matrix(1.00, 0.00, -0.00, -1.00, 435.8, 450.0)">т</text><text xml:space="preserve" font-family="AvenirNext-Regular" font-size="30.0" fill="#000000" transform="matrix(1.00, 0.00, -0.00, -1.00, 448.8, 450.0)">р</text><text xml:space="preserve" font-family="AvenirNext-Regular" font-size="30.0" fill="#000000" transform="matrix(1.00, 0.00, -0.00, -1.00, 467.8, 450.0)">а</text><text xml:space="preserve" font-family="AvenirNext-Regular" font-size="30.0" fill="#000000" transform="matrix(1.00, 0.00, -0.00, -1.00, 483.8, 450.0)">н</text><text xml:space="preserve" font-family="AvenirNext-Regular" font-size="30.0" fill="#000000" transform="matrix(1.00, 0.00, -0.00, -1.00, 501.1, 450.0)">и</text><text xml:space="preserve" font-family="AvenirNext-Regular" font-size="30.0" fill="#000000" transform="matrix(1.00, 0.00, -0.00, -1.00, 519.1, 450.0)">ц</text><text xml:space="preserve" font-family="AvenirNext-Regular" font-size="30.0" fill="#000000" transform="matrix(1.00, 0.00, -0.00, -1.00, 536.2, 450.0)">а</text><text xml:space="preserve" font-family="AvenirNext-Regular" font-size="30.0" fill="#000000" transform="matrix(1.00, 0.00, -0.00, -1.00, 552.2, 450.0)"> </text><text xml:space="preserve" font-family="AvenirNext-Regular" font-size="30.0" fill="#000000" transform="matrix(1.00, 0.00, -0.00, -1.00, 559.7, 450.0)">с</text><text xml:space="preserve" font-family="AvenirNext-Regular" font-size="30.0" fill="#000000" transform="matrix(1.00, 0.00, -0.00, -1.00, 574.7, 450.0)">е</text><text xml:space="preserve" font-family="AvenirNext-Regular" font-size="30.0" fill="#000000" transform="matrix(1.00, 0.00, -0.00, -1.00, 591.9, 450.0)">д</text><text xml:space="preserve" font-family="AvenirNext-Regular" font-size="30.0" fill="#000000" transform="matrix(1.00, 0.00, -0.00, -1.00, 608.2, 450.0)">и</text><text xml:space="preserve" font-family="AvenirNext-Regular" font-size="30.0" fill="#000000" transform="matrix(1.00, 0.00, -0.00, -1.00, 626.2, 450.0)"> </text><text xml:space="preserve" font-family="AvenirNext-Regular" font-size="30.0" fill="#000000" transform="matrix(1.00, 0.00, -0.00, -1.00, 633.7, 450.0)">н</text><text xml:space="preserve" font-family="AvenirNext-Regular" font-size="30.0" fill="#000000" transform="matrix(1.00, 0.00, -0.00, -1.00, 650.9, 450.0)">а</text><text xml:space="preserve" font-family="AvenirNext-Regular" font-size="30.0" fill="#000000" transform="matrix(1.00, 0.00, -0.00, -1.00, 666.9, 450.0)"> </text><text xml:space="preserve" font-family="AvenirNext-Regular" font-size="30.0" fill="#000000" transform="matrix(1.00, 0.00, -0.00, -1.00, 674.4, 450.0)">о</text><text xml:space="preserve" font-family="AvenirNext-Regular" font-size="30.0" fill="#000000" transform="matrix(1.00, 0.00, -0.00, -1.00, 692.8, 450.0)">п</text><text xml:space="preserve" font-family="AvenirNext-Regular" font-size="30.0" fill="#000000" transform="matrix(1.00, 0.00, -0.00, -1.00, 709.8, 450.0)">р</text><text xml:space="preserve" font-family="AvenirNext-Regular" font-size="30.0" fill="#000000" transform="matrix(1.00, 0.00, -0.00, -1.00, 728.8, 450.0)">е</text><text xml:space="preserve" font-family="AvenirNext-Regular" font-size="30.0" fill="#000000" transform="matrix(1.00, 0.00, -0.00, -1.00, 746.0, 450.0)">д</text><text xml:space="preserve" font-family="AvenirNext-Regular" font-size="30.0" fill="#000000" transform="matrix(1.00, 0.00, -0.00, -1.00, 762.3, 450.0)">е</text><text xml:space="preserve" font-family="AvenirNext-Regular" font-size="30.0" fill="#000000" transform="matrix(1.00, 0.00, -0.00, -1.00, 779.5, 450.0)">л</text><text xml:space="preserve" font-family="AvenirNext-Regular" font-size="30.0" fill="#000000" transform="matrix(1.00, 0.00, -0.00, -1.00, 794.4, 450.0)">е</text><text xml:space="preserve" font-family="AvenirNext-Regular" font-size="30.0" fill="#000000" transform="matrix(1.00, 0.00, -0.00, -1.00, 811.5, 450.0)">н</text><text xml:space="preserve" font-family="AvenirNext-Regular" font-size="30.0" fill="#000000" transform="matrix(1.00, 0.00, -0.00, -1.00, 828.8, 450.0)"> </text><text xml:space="preserve" font-family="AvenirNext-Regular" font-size="30.0" fill="#000000" transform="matrix(1.00, 0.00, -0.00, -1.00, 836.3, 450.0)">у</text><text xml:space="preserve" font-family="AvenirNext-Regular" font-size="30.0" fill="#000000" transform="matrix(1.00, 0.00, -0.00, -1.00, 850.9, 450.0)">е</text><text xml:space="preserve" font-family="AvenirNext-Regular" font-size="30.0" fill="#000000" transform="matrix(1.00, 0.00, -0.00, -1.00, 868.1, 450.0)">б</text><text xml:space="preserve" font-family="AvenirNext-Regular" font-size="30.0" fill="#000000" transform="matrix(1.00, 0.00, -0.00, -1.00, 886.0, 450.0)"> </text><text xml:space="preserve" font-family="AvenirNext-Regular" font-size="30.0" fill="#000000" transform="matrix(1.00, 0.00, -0.00, -1.00, 125.0, 409.0)">с</text><text xml:space="preserve" font-family="AvenirNext-Regular" font-size="30.0" fill="#000000" transform="matrix(1.00, 0.00, -0.00, -1.00, 140.0, 409.0)">ъ</text><text xml:space="preserve" font-family="AvenirNext-Regular" font-size="30.0" fill="#000000" transform="matrix(1.00, 0.00, -0.00, -1.00, 156.6, 409.0)">р</text><text xml:space="preserve" font-family="AvenirNext-Regular" font-size="30.0" fill="#000000" transform="matrix(1.00, 0.00, -0.00, -1.00, 175.6, 409.0)">в</text><text xml:space="preserve" font-family="AvenirNext-Regular" font-size="30.0" fill="#000000" transform="matrix(1.00, 0.00, -0.00, -1.00, 191.8, 409.0)">ъ</text><text xml:space="preserve" font-family="AvenirNext-Regular" font-size="30.0" fill="#000000" transform="matrix(1.00, 0.00, -0.00, -1.00, 208.4, 409.0)">р</text><text xml:space="preserve" font-family="AvenirNext-Regular" font-size="30.0" fill="#000000" transform="matrix(1.00, 0.00, -0.00, -1.00, 227.4, 409.0)">.</text><text xml:space="preserve" font-family="AvenirNext-Regular" font-size="30.0" fill="#000000" transform="matrix(1.00, 0.00, -0.00, -1.00, 234.3, 409.0)"> </text><text xml:space="preserve" font-family="AvenirNext-Regular" font-size="30.0" fill="#000000" transform="matrix(1.00, 0.00, -0.00, -1.00, 241.8, 409.0)">З</text><text xml:space="preserve" font-family="AvenirNext-Regular" font-size="30.0" fill="#000000" transform="matrix(1.00, 0.00, -0.00, -1.00, 260.5, 409.0)">а</text><text xml:space="preserve" font-family="AvenirNext-Regular" font-size="30.0" fill="#000000" transform="matrix(1.00, 0.00, -0.00, -1.00, 276.6, 409.0)"> </text><text xml:space="preserve" font-family="AvenirNext-Regular" font-size="30.0" fill="#000000" transform="matrix(1.00, 0.00, -0.00, -1.00, 284.1, 409.0)">д</text><text xml:space="preserve" font-family="AvenirNext-Regular" font-size="30.0" fill="#000000" transform="matrix(1.00, 0.00, -0.00, -1.00, 300.4, 409.0)">а</text><text xml:space="preserve" font-family="AvenirNext-Regular" font-size="30.0" fill="#000000" transform="matrix(1.00, 0.00, -0.00, -1.00, 316.4, 409.0)"> </text><text xml:space="preserve" font-family="AvenirNext-Regular" font-size="30.0" fill="#000000" transform="matrix(1.00, 0.00, -0.00, -1.00, 323.9, 409.0)">я</text><text xml:space="preserve" font-family="AvenirNext-Regular" font-size="30.0" fill="#000000" transform="matrix(1.00, 0.00, -0.00, -1.00, 340.1, 409.0)"> </text><text xml:space="preserve" font-family="AvenirNext-Regular" font-size="30.0" fill="#000000" transform="matrix(1.00, 0.00, -0.00, -1.00, 347.6, 409.0)">в</text><text xml:space="preserve" font-family="AvenirNext-Regular" font-size="30.0" fill="#000000" transform="matrix(1.00, 0.00, -0.00, -1.00, 363.8, 409.0)">и</text><text xml:space="preserve" font-family="AvenirNext-Regular" font-size="30.0" fill="#000000" transform="matrix(1.00, 0.00, -0.00, -1.00, 381.8, 409.0)">д</text><text xml:space="preserve" font-family="AvenirNext-Regular" font-size="30.0" fill="#000000" transform="matrix(1.00, 0.00, -0.00, -1.00, 398.1, 409.0)">и</text><text xml:space="preserve" font-family="AvenirNext-Regular" font-size="30.0" fill="#000000" transform="matrix(1.00, 0.00, -0.00, -1.00, 416.1, 409.0)">м</text><text xml:space="preserve" font-family="AvenirNext-Regular" font-size="30.0" fill="#000000" transform="matrix(1.00, 0.00, -0.00, -1.00, 436.9, 409.0)"> </text><text xml:space="preserve" font-family="AvenirNext-Regular" font-size="30.0" fill="#000000" transform="matrix(1.00, 0.00, -0.00, -1.00, 444.4, 409.0)">п</text><text xml:space="preserve" font-family="AvenirNext-Regular" font-size="30.0" fill="#000000" transform="matrix(1.00, 0.00, -0.00, -1.00, 461.4, 409.0)">о</text><text xml:space="preserve" font-family="AvenirNext-Regular" font-size="30.0" fill="#000000" transform="matrix(1.00, 0.00, -0.00, -1.00, 479.7, 409.0)">л</text><text xml:space="preserve" font-family="AvenirNext-Regular" font-size="30.0" fill="#000000" transform="matrix(1.00, 0.00, -0.00, -1.00, 494.7, 409.0)">з</text><text xml:space="preserve" font-family="AvenirNext-Regular" font-size="30.0" fill="#000000" transform="matrix(1.00, 0.00, -0.00, -1.00, 508.5, 409.0)">в</text><text xml:space="preserve" font-family="AvenirNext-Regular" font-size="30.0" fill="#000000" transform="matrix(1.00, 0.00, -0.00, -1.00, 524.8, 409.0)">а</text><text xml:space="preserve" font-family="AvenirNext-Regular" font-size="30.0" fill="#000000" transform="matrix(1.00, 0.00, -0.00, -1.00, 540.8, 409.0)">м</text><text xml:space="preserve" font-family="AvenirNext-Regular" font-size="30.0" fill="#000000" transform="matrix(1.00, 0.00, -0.00, -1.00, 561.6, 409.0)">е</text><text xml:space="preserve" font-family="AvenirNext-Regular" font-size="30.0" fill="#000000" transform="matrix(1.00, 0.00, -0.00, -1.00, 578.8, 409.0)"> </text><text xml:space="preserve" font-family="AvenirNext-Regular" font-size="30.0" fill="#000000" transform="matrix(1.00, 0.00, -0.00, -1.00, 586.3, 409.0)">у</text><text xml:space="preserve" font-family="AvenirNext-Regular" font-size="30.0" fill="#000000" transform="matrix(1.00, 0.00, -0.00, -1.00, 601.0, 409.0)">е</text><text xml:space="preserve" font-family="AvenirNext-Regular" font-size="30.0" fill="#000000" transform="matrix(1.00, 0.00, -0.00, -1.00, 618.1, 409.0)">б</text><text xml:space="preserve" font-family="AvenirNext-Regular" font-size="30.0" fill="#000000" transform="matrix(1.00, 0.00, -0.00, -1.00, 636.1, 409.0)"> </text><text xml:space="preserve" font-family="AvenirNext-Regular" font-size="30.0" fill="#000000" transform="matrix(1.00, 0.00, -0.00, -1.00, 643.6, 409.0)">к</text><text xml:space="preserve" font-family="AvenirNext-Regular" font-size="30.0" fill="#000000" transform="matrix(1.00, 0.00, -0.00, -1.00, 659.9, 409.0)">л</text><text xml:space="preserve" font-family="AvenirNext-Regular" font-size="30.0" fill="#000000" transform="matrix(1.00, 0.00, -0.00, -1.00, 674.8, 409.0)">и</text><text xml:space="preserve" font-family="AvenirNext-Regular" font-size="30.0" fill="#000000" transform="matrix(1.00, 0.00, -0.00, -1.00, 692.8, 409.0)">е</text><text xml:space="preserve" font-family="AvenirNext-Regular" font-size="30.0" fill="#000000" transform="matrix(1.00, 0.00, -0.00, -1.00, 709.9, 409.0)">н</text><text xml:space="preserve" font-family="AvenirNext-Regular" font-size="30.0" fill="#000000" transform="matrix(1.00, 0.00, -0.00, -1.00, 727.2, 409.0)">т</text><text xml:space="preserve" font-family="AvenirNext-Regular" font-size="30.0" fill="#000000" transform="matrix(1.00, 0.00, -0.00, -1.00, 740.1, 409.0)"> </text><text xml:space="preserve" font-family="AvenirNext-Regular" font-size="30.0" fill="#000000" transform="matrix(1.00, 0.00, -0.00, -1.00, 747.6, 409.0)">(</text><text xml:space="preserve" font-family="AvenirNext-Regular" font-size="30.0" fill="#000000" transform="matrix(1.00, 0.00, -0.00, -1.00, 756.6, 409.0)">б</text><text xml:space="preserve" font-family="AvenirNext-Regular" font-size="30.0" fill="#000000" transform="matrix(1.00, 0.00, -0.00, -1.00, 774.6, 409.0)">р</text><text xml:space="preserve" font-family="AvenirNext-Regular" font-size="30.0" fill="#000000" transform="matrix(1.00, 0.00, -0.00, -1.00, 793.6, 409.0)">а</text><text xml:space="preserve" font-family="AvenirNext-Regular" font-size="30.0" fill="#000000" transform="matrix(1.00, 0.00, -0.00, -1.00, 809.6, 409.0)">у</text><text xml:space="preserve" font-family="AvenirNext-Regular" font-size="30.0" fill="#000000" transform="matrix(1.00, 0.00, -0.00, -1.00, 824.3, 409.0)">з</text><text xml:space="preserve" font-family="AvenirNext-Regular" font-size="30.0" fill="#000000" transform="matrix(1.00, 0.00, -0.00, -1.00, 838.2, 409.0)">ъ</text><text xml:space="preserve" font-family="AvenirNext-Regular" font-size="30.0" fill="#000000" transform="matrix(1.00, 0.00, -0.00, -1.00, 854.7, 409.0)">р</text><text xml:space="preserve" font-family="AvenirNext-Regular" font-size="30.0" fill="#000000" transform="matrix(1.00, 0.00, -0.00, -1.00, 873.8, 409.0)">)</text><text xml:space="preserve" font-family="LucidaGrande" font-size="30.0" fill="#000000" transform="matrix(1.00, 0.00, -0.00, -1.00, 882.8, 409.0)"> </text><text xml:space="preserve" font-family="AvenirNext-Regular" font-size="30.0" fill="#000000" transform="matrix(1.00, 0.00, -0.00, -1.00, 79.0, 336.6)">•</text><text xml:space="preserve" font-family="AvenirNext-Regular" font-size="30.0" fill="#000000" transform="matrix(1.00, 0.00, -0.00, -1.00, 125.0, 337.0)">Б</text><text xml:space="preserve" font-family="AvenirNext-Regular" font-size="30.0" fill="#000000" transform="matrix(1.00, 0.00, -0.00, -1.00, 143.3, 337.0)">р</text><text xml:space="preserve" font-family="AvenirNext-Regular" font-size="30.0" fill="#000000" transform="matrix(1.00, 0.00, -0.00, -1.00, 162.3, 337.0)">а</text><text xml:space="preserve" font-family="AvenirNext-Regular" font-size="30.0" fill="#000000" transform="matrix(1.00, 0.00, -0.00, -1.00, 178.3, 337.0)">у</text><text xml:space="preserve" font-family="AvenirNext-Regular" font-size="30.0" fill="#000000" transform="matrix(1.00, 0.00, -0.00, -1.00, 193.0, 337.0)">з</text><text xml:space="preserve" font-family="AvenirNext-Regular" font-size="30.0" fill="#000000" transform="matrix(1.00, 0.00, -0.00, -1.00, 206.9, 337.0)">ъ</text><text xml:space="preserve" font-family="AvenirNext-Regular" font-size="30.0" fill="#000000" transform="matrix(1.00, 0.00, -0.00, -1.00, 223.4, 337.0)">р</text><text xml:space="preserve" font-family="AvenirNext-Regular" font-size="30.0" fill="#000000" transform="matrix(1.00, 0.00, -0.00, -1.00, 242.5, 337.0)">ъ</text><text xml:space="preserve" font-family="AvenirNext-Regular" font-size="30.0" fill="#000000" transform="matrix(1.00, 0.00, -0.00, -1.00, 259.0, 337.0)">т</text><text xml:space="preserve" font-family="AvenirNext-Regular" font-size="30.0" fill="#000000" transform="matrix(1.00, 0.00, -0.00, -1.00, 272.0, 337.0)"> </text><text xml:space="preserve" font-family="AvenirNext-Regular" font-size="30.0" fill="#000000" transform="matrix(1.00, 0.00, -0.00, -1.00, 279.5, 337.0)">и</text><text xml:space="preserve" font-family="AvenirNext-Regular" font-size="30.0" fill="#000000" transform="matrix(1.00, 0.00, -0.00, -1.00, 297.4, 337.0)">з</text><text xml:space="preserve" font-family="AvenirNext-Regular" font-size="30.0" fill="#000000" transform="matrix(1.00, 0.00, -0.00, -1.00, 311.3, 337.0)">т</text><text xml:space="preserve" font-family="AvenirNext-Regular" font-size="30.0" fill="#000000" transform="matrix(1.00, 0.00, -0.00, -1.00, 324.3, 337.0)">е</text><text xml:space="preserve" font-family="AvenirNext-Regular" font-size="30.0" fill="#000000" transform="matrix(1.00, 0.00, -0.00, -1.00, 341.4, 337.0)">г</text><text xml:space="preserve" font-family="AvenirNext-Regular" font-size="30.0" fill="#000000" transform="matrix(1.00, 0.00, -0.00, -1.00, 353.1, 337.0)">л</text><text xml:space="preserve" font-family="AvenirNext-Regular" font-size="30.0" fill="#000000" transform="matrix(1.00, 0.00, -0.00, -1.00, 368.0, 337.0)">я</text><text xml:space="preserve" font-family="AvenirNext-Regular" font-size="30.0" fill="#000000" transform="matrix(1.00, 0.00, -0.00, -1.00, 384.1, 337.0)"> </text><text xml:space="preserve" font-family="AvenirNext-Regular" font-size="30.0" fill="#000000" transform="matrix(1.00, 0.00, -0.00, -1.00, 391.6, 337.0)">с</text><text xml:space="preserve" font-family="AvenirNext-Regular" font-size="30.0" fill="#000000" transform="matrix(1.00, 0.00, -0.00, -1.00, 406.6, 337.0)">ъ</text><text xml:space="preserve" font-family="AvenirNext-Regular" font-size="30.0" fill="#000000" transform="matrix(1.00, 0.00, -0.00, -1.00, 423.2, 337.0)">д</text><text xml:space="preserve" font-family="AvenirNext-Regular" font-size="30.0" fill="#000000" transform="matrix(1.00, 0.00, -0.00, -1.00, 439.5, 337.0)">ъ</text><text xml:space="preserve" font-family="AvenirNext-Regular" font-size="30.0" fill="#000000" transform="matrix(1.00, 0.00, -0.00, -1.00, 456.1, 337.0)">р</text><text xml:space="preserve" font-family="AvenirNext-Regular" font-size="30.0" fill="#000000" transform="matrix(1.00, 0.00, -0.00, -1.00, 475.1, 337.0)">ж</text><text xml:space="preserve" font-family="AvenirNext-Regular" font-size="30.0" fill="#000000" transform="matrix(1.00, 0.00, -0.00, -1.00, 499.6, 337.0)">а</text><text xml:space="preserve" font-family="AvenirNext-Regular" font-size="30.0" fill="#000000" transform="matrix(1.00, 0.00, -0.00, -1.00, 515.6, 337.0)">н</text><text xml:space="preserve" font-family="AvenirNext-Regular" font-size="30.0" fill="#000000" transform="matrix(1.00, 0.00, -0.00, -1.00, 532.9, 337.0)">и</text><text xml:space="preserve" font-family="AvenirNext-Regular" font-size="30.0" fill="#000000" transform="matrix(1.00, 0.00, -0.00, -1.00, 550.9, 337.0)">е</text><text xml:space="preserve" font-family="AvenirNext-Regular" font-size="30.0" fill="#000000" transform="matrix(1.00, 0.00, -0.00, -1.00, 568.0, 337.0)">т</text><text xml:space="preserve" font-family="AvenirNext-Regular" font-size="30.0" fill="#000000" transform="matrix(1.00, 0.00, -0.00, -1.00, 580.9, 337.0)">о</text><text xml:space="preserve" font-family="AvenirNext-Regular" font-size="30.0" fill="#000000" transform="matrix(1.00, 0.00, -0.00, -1.00, 599.3, 337.0)"> </text><text xml:space="preserve" font-family="AvenirNext-Regular" font-size="30.0" fill="#000000" transform="matrix(1.00, 0.00, -0.00, -1.00, 606.8, 337.0)">н</text><text xml:space="preserve" font-family="AvenirNext-Regular" font-size="30.0" fill="#000000" transform="matrix(1.00, 0.00, -0.00, -1.00, 624.0, 337.0)">а</text><text xml:space="preserve" font-family="AvenirNext-Regular" font-size="30.0" fill="#000000" transform="matrix(1.00, 0.00, -0.00, -1.00, 640.0, 337.0)"> </text><text xml:space="preserve" font-family="AvenirNext-Regular" font-size="30.0" fill="#000000" transform="matrix(1.00, 0.00, -0.00, -1.00, 647.5, 337.0)">с</text><text xml:space="preserve" font-family="AvenirNext-Regular" font-size="30.0" fill="#000000" transform="matrix(1.00, 0.00, -0.00, -1.00, 662.5, 337.0)">т</text><text xml:space="preserve" font-family="AvenirNext-Regular" font-size="30.0" fill="#000000" transform="matrix(1.00, 0.00, -0.00, -1.00, 675.5, 337.0)">р</text><text xml:space="preserve" font-family="AvenirNext-Regular" font-size="30.0" fill="#000000" transform="matrix(1.00, 0.00, -0.00, -1.00, 694.5, 337.0)">а</text><text xml:space="preserve" font-family="AvenirNext-Regular" font-size="30.0" fill="#000000" transform="matrix(1.00, 0.00, -0.00, -1.00, 710.5, 337.0)">н</text><text xml:space="preserve" font-family="AvenirNext-Regular" font-size="30.0" fill="#000000" transform="matrix(1.00, 0.00, -0.00, -1.00, 727.8, 337.0)">и</text><text xml:space="preserve" font-family="AvenirNext-Regular" font-size="30.0" fill="#000000" transform="matrix(1.00, 0.00, -0.00, -1.00, 745.8, 337.0)">ц</text><text xml:space="preserve" font-family="AvenirNext-Regular" font-size="30.0" fill="#000000" transform="matrix(1.00, 0.00, -0.00, -1.00, 762.9, 337.0)">а</text><text xml:space="preserve" font-family="AvenirNext-Regular" font-size="30.0" fill="#000000" transform="matrix(1.00, 0.00, -0.00, -1.00, 778.9, 337.0)">т</text><text xml:space="preserve" font-family="AvenirNext-Regular" font-size="30.0" fill="#000000" transform="matrix(1.00, 0.00, -0.00, -1.00, 791.8, 337.0)">а</text><text xml:space="preserve" font-family="AvenirNext-Regular" font-size="30.0" fill="#000000" transform="matrix(1.00, 0.00, -0.00, -1.00, 807.9, 337.0)"> </text><text xml:space="preserve" font-family="AvenirNext-Regular" font-size="30.0" fill="#000000" transform="matrix(1.00, 0.00, -0.00, -1.00, 815.4, 337.0)">о</text><text xml:space="preserve" font-family="AvenirNext-Regular" font-size="30.0" fill="#000000" transform="matrix(1.00, 0.00, -0.00, -1.00, 833.7, 337.0)">т</text><text xml:space="preserve" font-family="AvenirNext-Regular" font-size="30.0" fill="#000000" transform="matrix(1.00, 0.00, -0.00, -1.00, 846.6, 337.0)"> </text><text xml:space="preserve" font-family="AvenirNext-Regular" font-size="30.0" fill="#000000" transform="matrix(1.00, 0.00, -0.00, -1.00, 125.0, 296.0)">с</text><text xml:space="preserve" font-family="AvenirNext-Regular" font-size="30.0" fill="#000000" transform="matrix(1.00, 0.00, -0.00, -1.00, 140.0, 296.0)">ъ</text><text xml:space="preserve" font-family="AvenirNext-Regular" font-size="30.0" fill="#000000" transform="matrix(1.00, 0.00, -0.00, -1.00, 156.6, 296.0)">р</text><text xml:space="preserve" font-family="AvenirNext-Regular" font-size="30.0" fill="#000000" transform="matrix(1.00, 0.00, -0.00, -1.00, 175.6, 296.0)">в</text><text xml:space="preserve" font-family="AvenirNext-Regular" font-size="30.0" fill="#000000" transform="matrix(1.00, 0.00, -0.00, -1.00, 191.8, 296.0)">ъ</text><text xml:space="preserve" font-family="AvenirNext-Regular" font-size="30.0" fill="#000000" transform="matrix(1.00, 0.00, -0.00, -1.00, 208.4, 296.0)">р</text><text xml:space="preserve" font-family="AvenirNext-Regular" font-size="30.0" fill="#000000" transform="matrix(1.00, 0.00, -0.00, -1.00, 227.4, 296.0)">а</text><text xml:space="preserve" font-family="AvenirNext-Regular" font-size="30.0" fill="#000000" transform="matrix(1.00, 0.00, -0.00, -1.00, 243.5, 296.0)">,</text><text xml:space="preserve" font-family="AvenirNext-Regular" font-size="30.0" fill="#000000" transform="matrix(1.00, 0.00, -0.00, -1.00, 250.4, 296.0)"> </text><text xml:space="preserve" font-family="AvenirNext-Regular" font-size="30.0" fill="#000000" transform="matrix(1.00, 0.00, -0.00, -1.00, 257.9, 296.0)">“</text><text xml:space="preserve" font-family="AvenirNext-Regular" font-size="30.0" fill="#000000" transform="matrix(1.00, 0.00, -0.00, -1.00, 269.5, 296.0)">п</text><text xml:space="preserve" font-family="AvenirNext-Regular" font-size="30.0" fill="#000000" transform="matrix(1.00, 0.00, -0.00, -1.00, 286.5, 296.0)">р</text><text xml:space="preserve" font-family="AvenirNext-Regular" font-size="30.0" fill="#000000" transform="matrix(1.00, 0.00, -0.00, -1.00, 305.5, 296.0)">о</text><text xml:space="preserve" font-family="AvenirNext-Regular" font-size="30.0" fill="#000000" transform="matrix(1.00, 0.00, -0.00, -1.00, 323.9, 296.0)">ч</text><text xml:space="preserve" font-family="AvenirNext-Regular" font-size="30.0" fill="#000000" transform="matrix(1.00, 0.00, -0.00, -1.00, 339.4, 296.0)">и</text><text xml:space="preserve" font-family="AvenirNext-Regular" font-size="30.0" fill="#000000" transform="matrix(1.00, 0.00, -0.00, -1.00, 357.3, 296.0)">т</text><text xml:space="preserve" font-family="AvenirNext-Regular" font-size="30.0" fill="#000000" transform="matrix(1.00, 0.00, -0.00, -1.00, 370.2, 296.0)">а</text><text xml:space="preserve" font-family="AvenirNext-Regular" font-size="30.0" fill="#000000" transform="matrix(1.00, 0.00, -0.00, -1.00, 386.3, 296.0)">”</text><text xml:space="preserve" font-family="AvenirNext-Regular" font-size="30.0" fill="#000000" transform="matrix(1.00, 0.00, -0.00, -1.00, 397.9, 296.0)"> </text><text xml:space="preserve" font-family="AvenirNext-Regular" font-size="30.0" fill="#000000" transform="matrix(1.00, 0.00, -0.00, -1.00, 405.4, 296.0)">г</text><text xml:space="preserve" font-family="AvenirNext-Regular" font-size="30.0" fill="#000000" transform="matrix(1.00, 0.00, -0.00, -1.00, 417.0, 296.0)">о</text><text xml:space="preserve" font-family="AvenirNext-Regular" font-size="30.0" fill="#000000" transform="matrix(1.00, 0.00, -0.00, -1.00, 435.3, 296.0)"> </text><text xml:space="preserve" font-family="AvenirNext-Regular" font-size="30.0" fill="#000000" transform="matrix(1.00, 0.00, -0.00, -1.00, 442.8, 296.0)">и</text><text xml:space="preserve" font-family="AvenirNext-Regular" font-size="30.0" fill="#000000" transform="matrix(1.00, 0.00, -0.00, -1.00, 460.8, 296.0)"> </text><text xml:space="preserve" font-family="AvenirNext-Regular" font-size="30.0" fill="#000000" transform="matrix(1.00, 0.00, -0.00, -1.00, 468.3, 296.0)">г</text><text xml:space="preserve" font-family="AvenirNext-Regular" font-size="30.0" fill="#000000" transform="matrix(1.00, 0.00, -0.00, -1.00, 480.0, 296.0)">о</text><text xml:space="preserve" font-family="AvenirNext-Regular" font-size="30.0" fill="#000000" transform="matrix(1.00, 0.00, -0.00, -1.00, 498.3, 296.0)"> </text><text xml:space="preserve" font-family="AvenirNext-Regular" font-size="30.0" fill="#000000" transform="matrix(1.00, 0.00, -0.00, -1.00, 505.8, 296.0)">в</text><text xml:space="preserve" font-family="AvenirNext-Regular" font-size="30.0" fill="#000000" transform="matrix(1.00, 0.00, -0.00, -1.00, 522.0, 296.0)">и</text><text xml:space="preserve" font-family="AvenirNext-Regular" font-size="30.0" fill="#000000" transform="matrix(1.00, 0.00, -0.00, -1.00, 540.0, 296.0)">з</text><text xml:space="preserve" font-family="AvenirNext-Regular" font-size="30.0" fill="#000000" transform="matrix(1.00, 0.00, -0.00, -1.00, 553.9, 296.0)">у</text><text xml:space="preserve" font-family="AvenirNext-Regular" font-size="30.0" fill="#000000" transform="matrix(1.00, 0.00, -0.00, -1.00, 568.5, 296.0)">а</text><text xml:space="preserve" font-family="AvenirNext-Regular" font-size="30.0" fill="#000000" transform="matrix(1.00, 0.00, -0.00, -1.00, 584.5, 296.0)">л</text><text xml:space="preserve" font-family="AvenirNext-Regular" font-size="30.0" fill="#000000" transform="matrix(1.00, 0.00, -0.00, -1.00, 599.4, 296.0)">и</text><text xml:space="preserve" font-family="AvenirNext-Regular" font-size="30.0" fill="#000000" transform="matrix(1.00, 0.00, -0.00, -1.00, 617.4, 296.0)">з</text><text xml:space="preserve" font-family="AvenirNext-Regular" font-size="30.0" fill="#000000" transform="matrix(1.00, 0.00, -0.00, -1.00, 631.3, 296.0)">и</text><text xml:space="preserve" font-family="AvenirNext-Regular" font-size="30.0" fill="#000000" transform="matrix(1.00, 0.00, -0.00, -1.00, 649.3, 296.0)">р</text><text xml:space="preserve" font-family="AvenirNext-Regular" font-size="30.0" fill="#000000" transform="matrix(1.00, 0.00, -0.00, -1.00, 668.3, 296.0)">а</text><text xml:space="preserve" font-family="LucidaGrande" font-size="30.0" fill="#000000" transform="matrix(1.00, 0.00, -0.00, -1.00, 684.4, 296.0)"> </text><text xml:space="preserve" font-family="AvenirNext-Regular" font-size="30.0" fill="#000000" transform="matrix(1.00, 0.00, -0.00, -1.00, 79.0, 223.2)">•</text><text xml:space="preserve" font-family="AvenirNext-Regular" font-size="30.0" fill="#000000" transform="matrix(1.00, 0.00, -0.00, -1.00, 125.0, 223.0)">F</text><text xml:space="preserve" font-family="AvenirNext-Regular" font-size="30.0" fill="#000000" transform="matrix(1.00, 0.00, -0.00, -1.00, 140.6, 223.0)">r</text><text xml:space="preserve" font-family="AvenirNext-Regular" font-size="30.0" fill="#000000" transform="matrix(1.00, 0.00, -0.00, -1.00, 150.9, 223.0)">o</text><text xml:space="preserve" font-family="AvenirNext-Regular" font-size="30.0" fill="#000000" transform="matrix(1.00, 0.00, -0.00, -1.00, 169.2, 223.0)">n</text><text xml:space="preserve" font-family="AvenirNext-Regular" font-size="30.0" fill="#000000" transform="matrix(1.00, 0.00, -0.00, -1.00, 186.6, 223.0)">t</text><text xml:space="preserve" font-family="AvenirNext-Regular" font-size="30.0" fill="#000000" transform="matrix(1.00, 0.00, -0.00, -1.00, 196.1, 223.0)">-</text><text xml:space="preserve" font-family="AvenirNext-Regular" font-size="30.0" fill="#000000" transform="matrix(1.00, 0.00, -0.00, -1.00, 205.7, 223.0)">e</text><text xml:space="preserve" font-family="AvenirNext-Regular" font-size="30.0" fill="#000000" transform="matrix(1.00, 0.00, -0.00, -1.00, 222.9, 223.0)">n</text><text xml:space="preserve" font-family="AvenirNext-Regular" font-size="30.0" fill="#000000" transform="matrix(1.00, 0.00, -0.00, -1.00, 240.3, 223.0)">d</text><text xml:space="preserve" font-family="AvenirNext-Regular" font-size="30.0" fill="#000000" transform="matrix(1.00, 0.00, -0.00, -1.00, 259.4, 223.0)"> </text><text xml:space="preserve" font-family="AvenirNext-Regular" font-size="30.0" fill="#000000" transform="matrix(1.00, 0.00, -0.00, -1.00, 266.9, 223.0)">е</text><text xml:space="preserve" font-family="AvenirNext-Regular" font-size="30.0" fill="#000000" transform="matrix(1.00, 0.00, -0.00, -1.00, 284.1, 223.0)"> </text><text xml:space="preserve" font-family="AvenirNext-Regular" font-size="30.0" fill="#000000" transform="matrix(1.00, 0.00, -0.00, -1.00, 291.6, 223.0)">в</text><text xml:space="preserve" font-family="AvenirNext-Regular" font-size="30.0" fill="#000000" transform="matrix(1.00, 0.00, -0.00, -1.00, 307.8, 223.0)">с</text><text xml:space="preserve" font-family="AvenirNext-Regular" font-size="30.0" fill="#000000" transform="matrix(1.00, 0.00, -0.00, -1.00, 322.8, 223.0)">и</text><text xml:space="preserve" font-family="AvenirNext-Regular" font-size="30.0" fill="#000000" transform="matrix(1.00, 0.00, -0.00, -1.00, 340.8, 223.0)">ч</text><text xml:space="preserve" font-family="AvenirNext-Regular" font-size="30.0" fill="#000000" transform="matrix(1.00, 0.00, -0.00, -1.00, 356.3, 223.0)">к</text><text xml:space="preserve" font-family="AvenirNext-Regular" font-size="30.0" fill="#000000" transform="matrix(1.00, 0.00, -0.00, -1.00, 372.6, 223.0)">о</text><text xml:space="preserve" font-family="AvenirNext-Regular" font-size="30.0" fill="#000000" transform="matrix(1.00, 0.00, -0.00, -1.00, 390.9, 223.0)"> </text><text xml:space="preserve" font-family="AvenirNext-Regular" font-size="30.0" fill="#000000" transform="matrix(1.00, 0.00, -0.00, -1.00, 398.4, 223.0)">т</text><text xml:space="preserve" font-family="AvenirNext-Regular" font-size="30.0" fill="#000000" transform="matrix(1.00, 0.00, -0.00, -1.00, 411.3, 223.0)">о</text><text xml:space="preserve" font-family="AvenirNext-Regular" font-size="30.0" fill="#000000" transform="matrix(1.00, 0.00, -0.00, -1.00, 429.6, 223.0)">в</text><text xml:space="preserve" font-family="AvenirNext-Regular" font-size="30.0" fill="#000000" transform="matrix(1.00, 0.00, -0.00, -1.00, 445.9, 223.0)">а</text><text xml:space="preserve" font-family="AvenirNext-Regular" font-size="30.0" fill="#000000" transform="matrix(1.00, 0.00, -0.00, -1.00, 461.9, 223.0)">,</text><text xml:space="preserve" font-family="AvenirNext-Regular" font-size="30.0" fill="#000000" transform="matrix(1.00, 0.00, -0.00, -1.00, 468.8, 223.0)"> </text><text xml:space="preserve" font-family="AvenirNext-Regular" font-size="30.0" fill="#000000" transform="matrix(1.00, 0.00, -0.00, -1.00, 476.3, 223.0)">к</text><text xml:space="preserve" font-family="AvenirNext-Regular" font-size="30.0" fill="#000000" transform="matrix(1.00, 0.00, -0.00, -1.00, 492.6, 223.0)">о</text><text xml:space="preserve" font-family="AvenirNext-Regular" font-size="30.0" fill="#000000" transform="matrix(1.00, 0.00, -0.00, -1.00, 510.9, 223.0)">е</text><text xml:space="preserve" font-family="AvenirNext-Regular" font-size="30.0" fill="#000000" transform="matrix(1.00, 0.00, -0.00, -1.00, 528.1, 223.0)">т</text><text xml:space="preserve" font-family="AvenirNext-Regular" font-size="30.0" fill="#000000" transform="matrix(1.00, 0.00, -0.00, -1.00, 541.0, 223.0)">о</text><text xml:space="preserve" font-family="AvenirNext-Regular" font-size="30.0" fill="#000000" transform="matrix(1.00, 0.00, -0.00, -1.00, 559.3, 223.0)"> </text><text xml:space="preserve" font-family="AvenirNext-Regular" font-size="30.0" fill="#000000" transform="matrix(1.00, 0.00, -0.00, -1.00, 566.8, 223.0)">с</text><text xml:space="preserve" font-family="AvenirNext-Regular" font-size="30.0" fill="#000000" transform="matrix(1.00, 0.00, -0.00, -1.00, 581.8, 223.0)">е</text><text xml:space="preserve" font-family="AvenirNext-Regular" font-size="30.0" fill="#000000" transform="matrix(1.00, 0.00, -0.00, -1.00, 599.0, 223.0)"> </text><text xml:space="preserve" font-family="AvenirNext-Regular" font-size="30.0" fill="#000000" transform="matrix(1.00, 0.00, -0.00, -1.00, 606.5, 223.0)">с</text><text xml:space="preserve" font-family="AvenirNext-Regular" font-size="30.0" fill="#000000" transform="matrix(1.00, 0.00, -0.00, -1.00, 621.5, 223.0)">л</text><text xml:space="preserve" font-family="AvenirNext-Regular" font-size="30.0" fill="#000000" transform="matrix(1.00, 0.00, -0.00, -1.00, 636.4, 223.0)">у</text><text xml:space="preserve" font-family="AvenirNext-Regular" font-size="30.0" fill="#000000" transform="matrix(1.00, 0.00, -0.00, -1.00, 651.1, 223.0)">ч</text><text xml:space="preserve" font-family="AvenirNext-Regular" font-size="30.0" fill="#000000" transform="matrix(1.00, 0.00, -0.00, -1.00, 666.5, 223.0)">в</text><text xml:space="preserve" font-family="AvenirNext-Regular" font-size="30.0" fill="#000000" transform="matrix(1.00, 0.00, -0.00, -1.00, 682.8, 223.0)">а</text><text xml:space="preserve" font-family="AvenirNext-Regular" font-size="30.0" fill="#000000" transform="matrix(1.00, 0.00, -0.00, -1.00, 698.8, 223.0)"> </text><text xml:space="preserve" font-family="AvenirNext-Regular" font-size="30.0" fill="#000000" transform="matrix(1.00, 0.00, -0.00, -1.00, 706.3, 223.0)">п</text><text xml:space="preserve" font-family="AvenirNext-Regular" font-size="30.0" fill="#000000" transform="matrix(1.00, 0.00, -0.00, -1.00, 723.3, 223.0)">р</text><text xml:space="preserve" font-family="AvenirNext-Regular" font-size="30.0" fill="#000000" transform="matrix(1.00, 0.00, -0.00, -1.00, 742.3, 223.0)">и</text><text xml:space="preserve" font-family="AvenirNext-Regular" font-size="30.0" fill="#000000" transform="matrix(1.00, 0.00, -0.00, -1.00, 760.3, 223.0)"> </text><text xml:space="preserve" font-family="AvenirNext-Regular" font-size="30.0" fill="#000000" transform="matrix(1.00, 0.00, -0.00, -1.00, 767.8, 223.0)">к</text><text xml:space="preserve" font-family="AvenirNext-Regular" font-size="30.0" fill="#000000" transform="matrix(1.00, 0.00, -0.00, -1.00, 784.1, 223.0)">л</text><text xml:space="preserve" font-family="AvenirNext-Regular" font-size="30.0" fill="#000000" transform="matrix(1.00, 0.00, -0.00, -1.00, 799.0, 223.0)">и</text><text xml:space="preserve" font-family="AvenirNext-Regular" font-size="30.0" fill="#000000" transform="matrix(1.00, 0.00, -0.00, -1.00, 817.0, 223.0)">е</text><text xml:space="preserve" font-family="AvenirNext-Regular" font-size="30.0" fill="#000000" transform="matrix(1.00, 0.00, -0.00, -1.00, 834.1, 223.0)">н</text><text xml:space="preserve" font-family="AvenirNext-Regular" font-size="30.0" fill="#000000" transform="matrix(1.00, 0.00, -0.00, -1.00, 851.4, 223.0)">т</text><text xml:space="preserve" font-family="AvenirNext-Regular" font-size="30.0" fill="#000000" transform="matrix(1.00, 0.00, -0.00, -1.00, 864.3, 223.0)">а</text><text xml:space="preserve" font-family="AvenirNext-Regular" font-size="54.0" fill="#000000" transform="matrix(1.00, 0.00, -0.00, -1.00, 157.0, 655.0)">T</text><text xml:space="preserve" font-family="AvenirNext-Regular" font-size="54.0" fill="#000000" transform="matrix(1.00, 0.00, -0.00, -1.00, 186.8, 655.0)">h</text><text xml:space="preserve" font-family="AvenirNext-Regular" font-size="54.0" fill="#000000" transform="matrix(1.00, 0.00, -0.00, -1.00, 218.3, 655.0)">e</text><text xml:space="preserve" font-family="AvenirNext-Regular" font-size="54.0" fill="#000000" transform="matrix(1.00, 0.00, -0.00, -1.00, 249.2, 655.0)"> </text><text xml:space="preserve" font-family="AvenirNext-Regular" font-size="54.0" fill="#000000" transform="matrix(1.00, 0.00, -0.00, -1.00, 262.7, 655.0)">c</text><text xml:space="preserve" font-family="AvenirNext-Regular" font-size="54.0" fill="#000000" transform="matrix(1.00, 0.00, -0.00, -1.00, 289.7, 655.0)">l</text><text xml:space="preserve" font-family="AvenirNext-Regular" font-size="54.0" fill="#000000" transform="matrix(1.00, 0.00, -0.00, -1.00, 303.3, 655.0)">i</text><text xml:space="preserve" font-family="AvenirNext-Regular" font-size="54.0" fill="#000000" transform="matrix(1.00, 0.00, -0.00, -1.00, 316.8, 655.0)">e</text><text xml:space="preserve" font-family="AvenirNext-Regular" font-size="54.0" fill="#000000" transform="matrix(1.00, 0.00, -0.00, -1.00, 347.7, 655.0)">n</text><text xml:space="preserve" font-family="AvenirNext-Regular" font-size="54.0" fill="#000000" transform="matrix(1.00, 0.00, -0.00, -1.00, 379.0, 655.0)">t</text><text xml:space="preserve" font-family="AvenirNext-Regular" font-size="54.0" fill="#000000" transform="matrix(1.00, 0.00, -0.00, -1.00, 396.2, 655.0)">-</text><text xml:space="preserve" font-family="AvenirNext-Regular" font-size="54.0" fill="#000000" transform="matrix(1.00, 0.00, -0.00, -1.00, 413.4, 655.0)">s</text><text xml:space="preserve" font-family="AvenirNext-Regular" font-size="54.0" fill="#000000" transform="matrix(1.00, 0.00, -0.00, -1.00, 437.4, 655.0)">e</text><text xml:space="preserve" font-family="AvenirNext-Regular" font-size="54.0" fill="#000000" transform="matrix(1.00, 0.00, -0.00, -1.00, 468.3, 655.0)">r</text><text xml:space="preserve" font-family="AvenirNext-Regular" font-size="54.0" fill="#000000" transform="matrix(1.00, 0.00, -0.00, -1.00, 487.8, 655.0)">v</text><text xml:space="preserve" font-family="AvenirNext-Regular" font-size="54.0" fill="#000000" transform="matrix(1.00, 0.00, -0.00, -1.00, 514.1, 655.0)">e</text><text xml:space="preserve" font-family="AvenirNext-Regular" font-size="54.0" fill="#000000" transform="matrix(1.00, 0.00, -0.00, -1.00, 545.0, 655.0)">r</text><text xml:space="preserve" font-family="AvenirNext-Regular" font-size="54.0" fill="#000000" transform="matrix(1.00, 0.00, -0.00, -1.00, 564.4, 655.0)"> </text><text xml:space="preserve" font-family="AvenirNext-Regular" font-size="54.0" fill="#000000" transform="matrix(1.00, 0.00, -0.00, -1.00, 577.9, 655.0)">r</text><text xml:space="preserve" font-family="AvenirNext-Regular" font-size="54.0" fill="#000000" transform="matrix(1.00, 0.00, -0.00, -1.00, 596.4, 655.0)">e</text><text xml:space="preserve" font-family="AvenirNext-Regular" font-size="54.0" fill="#000000" transform="matrix(1.00, 0.00, -0.00, -1.00, 627.3, 655.0)">l</text><text xml:space="preserve" font-family="AvenirNext-Regular" font-size="54.0" fill="#000000" transform="matrix(1.00, 0.00, -0.00, -1.00, 640.9, 655.0)">a</text><text xml:space="preserve" font-family="AvenirNext-Regular" font-size="54.0" fill="#000000" transform="matrix(1.00, 0.00, -0.00, -1.00, 669.2, 655.0)">t</text><text xml:space="preserve" font-family="AvenirNext-Regular" font-size="54.0" fill="#000000" transform="matrix(1.00, 0.00, -0.00, -1.00, 686.3, 655.0)">i</text><text xml:space="preserve" font-family="AvenirNext-Regular" font-size="54.0" fill="#000000" transform="matrix(1.00, 0.00, -0.00, -1.00, 699.8, 655.0)">o</text><text xml:space="preserve" font-family="AvenirNext-Regular" font-size="54.0" fill="#000000" transform="matrix(1.00, 0.00, -0.00, -1.00, 732.8, 655.0)">n</text><text xml:space="preserve" font-family="AvenirNext-Regular" font-size="54.0" fill="#000000" transform="matrix(1.00, 0.00, -0.00, -1.00, 764.2, 655.0)">s</text><text xml:space="preserve" font-family="AvenirNext-Regular" font-size="54.0" fill="#000000" transform="matrix(1.00, 0.00, -0.00, -1.00, 788.2, 655.0)">h</text><text xml:space="preserve" font-family="AvenirNext-Regular" font-size="54.0" fill="#000000" transform="matrix(1.00, 0.00, -0.00, -1.00, 819.6, 655.0)">i</text><text xml:space="preserve" font-family="AvenirNext-Regular" font-size="54.0" fill="#000000" transform="matrix(1.00, 0.00, -0.00, -1.00, 833.1, 655.0)">p</text></g></svg>