<?xml version="1.0" encoding="UTF-8" standalone="no"?><svg xmlns="http://www.w3.org/2000/svg" xmlns:xlink="http://www.w3.org/1999/xlink" clip-rule="evenodd" stroke-miterlimit="4.00" viewBox="0 0 466 42"><desc>SVG generated by Keynote</desc><defs></defs><g transform="matrix(1.00, 0.00, -0.00, -1.00, 0.0, 42.0)"><text xml:space="preserve" font-family="AvenirNext-Regular" font-size="30.0" fill="#000000" transform="matrix(1.00, 0.00, -0.00, -1.00, 0.0, 11.1)">•</text><text xml:space="preserve" font-family="AvenirNext-Regular" font-size="30.0" fill="#000000" transform="matrix(1.00, 0.00, -0.00, -1.00, 46.0, 11.0)">К</text><text xml:space="preserve" font-family="AvenirNext-Regular" font-size="30.0" fill="#000000" transform="matrix(1.00, 0.00, -0.00, -1.00, 66.7, 11.0)">о</text><text xml:space="preserve" font-family="AvenirNext-Regular" font-size="30.0" fill="#000000" transform="matrix(1.00, 0.00, -0.00, -1.00, 85.1, 11.0)">н</text><text xml:space="preserve" font-family="AvenirNext-Regular" font-size="30.0" fill="#000000" transform="matrix(1.00, 0.00, -0.00, -1.00, 102.3, 11.0)">ц</text><text xml:space="preserve" font-family="AvenirNext-Regular" font-size="30.0" fill="#000000" transform="matrix(1.00, 0.00, -0.00, -1.00, 119.4, 11.0)">е</text><text xml:space="preserve" font-family="AvenirNext-Regular" font-size="30.0" fill="#000000" transform="matrix(1.00, 0.00, -0.00, -1.00, 136.6, 11.0)">п</text><text xml:space="preserve" font-family="AvenirNext-Regular" font-size="30.0" fill="#000000" transform="matrix(1.00, 0.00, -0.00, -1.00, 153.6, 11.0)">ц</text><text xml:space="preserve" font-family="AvenirNext-Regular" font-size="30.0" fill="#000000" transform="matrix(1.00, 0.00, -0.00, -1.00, 170.7, 11.0)">и</text><text xml:space="preserve" font-family="AvenirNext-Regular" font-size="30.0" fill="#000000" transform="matrix(1.00, 0.00, -0.00, -1.00, 188.7, 11.0)">я</text><text xml:space="preserve" font-family="AvenirNext-Regular" font-size="30.0" fill="#000000" transform="matrix(1.00, 0.00, -0.00, -1.00, 204.9, 11.0)">т</text><text xml:space="preserve" font-family="AvenirNext-Regular" font-size="30.0" fill="#000000" transform="matrix(1.00, 0.00, -0.00, -1.00, 217.8, 11.0)">а</text><text xml:space="preserve" font-family="AvenirNext-Regular" font-size="30.0" fill="#000000" transform="matrix(1.00, 0.00, -0.00, -1.00, 233.8, 11.0)"> </text><text xml:space="preserve" font-family="AvenirNext-Regular" font-size="30.0" fill="#000000" transform="matrix(1.00, 0.00, -0.00, -1.00, 241.3, 11.0)">с</text><text xml:space="preserve" font-family="AvenirNext-Regular" font-size="30.0" fill="#000000" transform="matrix(1.00, 0.00, -0.00, -1.00, 256.3, 11.0)">ъ</text><text xml:space="preserve" font-family="AvenirNext-Regular" font-size="30.0" fill="#000000" transform="matrix(1.00, 0.00, -0.00, -1.00, 272.9, 11.0)">р</text><text xml:space="preserve" font-family="AvenirNext-Regular" font-size="30.0" fill="#000000" transform="matrix(1.00, 0.00, -0.00, -1.00, 291.9, 11.0)">в</text><text xml:space="preserve" font-family="AvenirNext-Regular" font-size="30.0" fill="#000000" transform="matrix(1.00, 0.00, -0.00, -1.00, 308.2, 11.0)">ъ</text><text xml:space="preserve" font-family="AvenirNext-Regular" font-size="30.0" fill="#000000" transform="matrix(1.00, 0.00, -0.00, -1.00, 324.7, 11.0)">р</text><text xml:space="preserve" font-family="AvenirNext-Regular" font-size="30.0" fill="#000000" transform="matrix(1.00, 0.00, -0.00, -1.00, 343.8, 11.0)"> </text><text xml:space="preserve" font-family="AvenirNext-Regular" font-size="30.0" fill="#000000" transform="matrix(1.00, 0.00, -0.00, -1.00, 351.3, 11.0)">:</text><text xml:space="preserve" font-family="AvenirNext-Regular" font-size="30.0" fill="#000000" transform="matrix(1.00, 0.00, -0.00, -1.00, 360.3, 11.0)"> </text><text xml:space="preserve" font-family="AvenirNext-Regular" font-size="30.0" fill="#000000" transform="matrix(1.00, 0.00, -0.00, -1.00, 367.8, 11.0)">к</text><text xml:space="preserve" font-family="AvenirNext-Regular" font-size="30.0" fill="#000000" transform="matrix(1.00, 0.00, -0.00, -1.00, 384.1, 11.0)">л</text><text xml:space="preserve" font-family="AvenirNext-Regular" font-size="30.0" fill="#000000" transform="matrix(1.00, 0.00, -0.00, -1.00, 399.0, 11.0)">и</text><text xml:space="preserve" font-family="AvenirNext-Regular" font-size="30.0" fill="#000000" transform="matrix(1.00, 0.00, -0.00, -1.00, 417.0, 11.0)">е</text><text xml:space="preserve" font-family="AvenirNext-Regular" font-size="30.0" fill="#000000" transform="matrix(1.00, 0.00, -0.00, -1.00, 434.1, 11.0)">н</text><text xml:space="preserve" font-family="AvenirNext-Regular" font-size="30.0" fill="#000000" transform="matrix(1.00, 0.00, -0.00, -1.00, 451.4, 11.0)">т</text><text xml:space="preserve" font-family="LucidaGrande" font-size="30.0" fill="#000000" transform="matrix(1.00, 0.00, -0.00, -1.00, 464.3, 11.0)"> </text></g></svg>