<?xml version="1.0" encoding="UTF-8" standalone="no"?><svg xmlns="http://www.w3.org/2000/svg" xmlns:xlink="http://www.w3.org/1999/xlink" clip-rule="evenodd" stroke-miterlimit="4.00" viewBox="0 0 800 42"><desc>SVG generated by Keynote</desc><defs></defs><g transform="matrix(1.00, 0.00, -0.00, -1.00, 0.0, 42.0)"><text xml:space="preserve" font-family="AvenirNext-Regular" font-size="30.0" fill="#000000" transform="matrix(1.00, 0.00, -0.00, -1.00, 0.0, 11.2)">•</text><text xml:space="preserve" font-family="AvenirNext-Regular" font-size="30.0" fill="#000000" transform="matrix(1.00, 0.00, -0.00, -1.00, 46.0, 11.0)">F</text><text xml:space="preserve" font-family="AvenirNext-Regular" font-size="30.0" fill="#000000" transform="matrix(1.00, 0.00, -0.00, -1.00, 61.6, 11.0)">r</text><text xml:space="preserve" font-family="AvenirNext-Regular" font-size="30.0" fill="#000000" transform="matrix(1.00, 0.00, -0.00, -1.00, 71.9, 11.0)">o</text><text xml:space="preserve" font-family="AvenirNext-Regular" font-size="30.0" fill="#000000" transform="matrix(1.00, 0.00, -0.00, -1.00, 90.2, 11.0)">n</text><text xml:space="preserve" font-family="AvenirNext-Regular" font-size="30.0" fill="#000000" transform="matrix(1.00, 0.00, -0.00, -1.00, 107.6, 11.0)">t</text><text xml:space="preserve" font-family="AvenirNext-Regular" font-size="30.0" fill="#000000" transform="matrix(1.00, 0.00, -0.00, -1.00, 117.1, 11.0)">-</text><text xml:space="preserve" font-family="AvenirNext-Regular" font-size="30.0" fill="#000000" transform="matrix(1.00, 0.00, -0.00, -1.00, 126.7, 11.0)">e</text><text xml:space="preserve" font-family="AvenirNext-Regular" font-size="30.0" fill="#000000" transform="matrix(1.00, 0.00, -0.00, -1.00, 143.9, 11.0)">n</text><text xml:space="preserve" font-family="AvenirNext-Regular" font-size="30.0" fill="#000000" transform="matrix(1.00, 0.00, -0.00, -1.00, 161.3, 11.0)">d</text><text xml:space="preserve" font-family="AvenirNext-Regular" font-size="30.0" fill="#000000" transform="matrix(1.00, 0.00, -0.00, -1.00, 180.4, 11.0)"> </text><text xml:space="preserve" font-family="AvenirNext-Regular" font-size="30.0" fill="#000000" transform="matrix(1.00, 0.00, -0.00, -1.00, 187.9, 11.0)">е</text><text xml:space="preserve" font-family="AvenirNext-Regular" font-size="30.0" fill="#000000" transform="matrix(1.00, 0.00, -0.00, -1.00, 205.1, 11.0)"> </text><text xml:space="preserve" font-family="AvenirNext-Regular" font-size="30.0" fill="#000000" transform="matrix(1.00, 0.00, -0.00, -1.00, 212.6, 11.0)">в</text><text xml:space="preserve" font-family="AvenirNext-Regular" font-size="30.0" fill="#000000" transform="matrix(1.00, 0.00, -0.00, -1.00, 228.8, 11.0)">с</text><text xml:space="preserve" font-family="AvenirNext-Regular" font-size="30.0" fill="#000000" transform="matrix(1.00, 0.00, -0.00, -1.00, 243.8, 11.0)">и</text><text xml:space="preserve" font-family="AvenirNext-Regular" font-size="30.0" fill="#000000" transform="matrix(1.00, 0.00, -0.00, -1.00, 261.8, 11.0)">ч</text><text xml:space="preserve" font-family="AvenirNext-Regular" font-size="30.0" fill="#000000" transform="matrix(1.00, 0.00, -0.00, -1.00, 277.3, 11.0)">к</text><text xml:space="preserve" font-family="AvenirNext-Regular" font-size="30.0" fill="#000000" transform="matrix(1.00, 0.00, -0.00, -1.00, 293.6, 11.0)">о</text><text xml:space="preserve" font-family="AvenirNext-Regular" font-size="30.0" fill="#000000" transform="matrix(1.00, 0.00, -0.00, -1.00, 311.9, 11.0)"> </text><text xml:space="preserve" font-family="AvenirNext-Regular" font-size="30.0" fill="#000000" transform="matrix(1.00, 0.00, -0.00, -1.00, 319.4, 11.0)">т</text><text xml:space="preserve" font-family="AvenirNext-Regular" font-size="30.0" fill="#000000" transform="matrix(1.00, 0.00, -0.00, -1.00, 332.3, 11.0)">о</text><text xml:space="preserve" font-family="AvenirNext-Regular" font-size="30.0" fill="#000000" transform="matrix(1.00, 0.00, -0.00, -1.00, 350.6, 11.0)">в</text><text xml:space="preserve" font-family="AvenirNext-Regular" font-size="30.0" fill="#000000" transform="matrix(1.00, 0.00, -0.00, -1.00, 366.9, 11.0)">а</text><text xml:space="preserve" font-family="AvenirNext-Regular" font-size="30.0" fill="#000000" transform="matrix(1.00, 0.00, -0.00, -1.00, 382.9, 11.0)">,</text><text xml:space="preserve" font-family="AvenirNext-Regular" font-size="30.0" fill="#000000" transform="matrix(1.00, 0.00, -0.00, -1.00, 389.8, 11.0)"> </text><text xml:space="preserve" font-family="AvenirNext-Regular" font-size="30.0" fill="#000000" transform="matrix(1.00, 0.00, -0.00, -1.00, 397.3, 11.0)">к</text><text xml:space="preserve" font-family="AvenirNext-Regular" font-size="30.0" fill="#000000" transform="matrix(1.00, 0.00, -0.00, -1.00, 413.6, 11.0)">о</text><text xml:space="preserve" font-family="AvenirNext-Regular" font-size="30.0" fill="#000000" transform="matrix(1.00, 0.00, -0.00, -1.00, 431.9, 11.0)">е</text><text xml:space="preserve" font-family="AvenirNext-Regular" font-size="30.0" fill="#000000" transform="matrix(1.00, 0.00, -0.00, -1.00, 449.1, 11.0)">т</text><text xml:space="preserve" font-family="AvenirNext-Regular" font-size="30.0" fill="#000000" transform="matrix(1.00, 0.00, -0.00, -1.00, 462.0, 11.0)">о</text><text xml:space="preserve" font-family="AvenirNext-Regular" font-size="30.0" fill="#000000" transform="matrix(1.00, 0.00, -0.00, -1.00, 480.3, 11.0)"> </text><text xml:space="preserve" font-family="AvenirNext-Regular" font-size="30.0" fill="#000000" transform="matrix(1.00, 0.00, -0.00, -1.00, 487.8, 11.0)">с</text><text xml:space="preserve" font-family="AvenirNext-Regular" font-size="30.0" fill="#000000" transform="matrix(1.00, 0.00, -0.00, -1.00, 502.8, 11.0)">е</text><text xml:space="preserve" font-family="AvenirNext-Regular" font-size="30.0" fill="#000000" transform="matrix(1.00, 0.00, -0.00, -1.00, 520.0, 11.0)"> </text><text xml:space="preserve" font-family="AvenirNext-Regular" font-size="30.0" fill="#000000" transform="matrix(1.00, 0.00, -0.00, -1.00, 527.5, 11.0)">с</text><text xml:space="preserve" font-family="AvenirNext-Regular" font-size="30.0" fill="#000000" transform="matrix(1.00, 0.00, -0.00, -1.00, 542.5, 11.0)">л</text><text xml:space="preserve" font-family="AvenirNext-Regular" font-size="30.0" fill="#000000" transform="matrix(1.00, 0.00, -0.00, -1.00, 557.4, 11.0)">у</text><text xml:space="preserve" font-family="AvenirNext-Regular" font-size="30.0" fill="#000000" transform="matrix(1.00, 0.00, -0.00, -1.00, 572.1, 11.0)">ч</text><text xml:space="preserve" font-family="AvenirNext-Regular" font-size="30.0" fill="#000000" transform="matrix(1.00, 0.00, -0.00, -1.00, 587.5, 11.0)">в</text><text xml:space="preserve" font-family="AvenirNext-Regular" font-size="30.0" fill="#000000" transform="matrix(1.00, 0.00, -0.00, -1.00, 603.8, 11.0)">а</text><text xml:space="preserve" font-family="AvenirNext-Regular" font-size="30.0" fill="#000000" transform="matrix(1.00, 0.00, -0.00, -1.00, 619.8, 11.0)"> </text><text xml:space="preserve" font-family="AvenirNext-Regular" font-size="30.0" fill="#000000" transform="matrix(1.00, 0.00, -0.00, -1.00, 627.3, 11.0)">п</text><text xml:space="preserve" font-family="AvenirNext-Regular" font-size="30.0" fill="#000000" transform="matrix(1.00, 0.00, -0.00, -1.00, 644.3, 11.0)">р</text><text xml:space="preserve" font-family="AvenirNext-Regular" font-size="30.0" fill="#000000" transform="matrix(1.00, 0.00, -0.00, -1.00, 663.3, 11.0)">и</text><text xml:space="preserve" font-family="AvenirNext-Regular" font-size="30.0" fill="#000000" transform="matrix(1.00, 0.00, -0.00, -1.00, 681.3, 11.0)"> </text><text xml:space="preserve" font-family="AvenirNext-Regular" font-size="30.0" fill="#000000" transform="matrix(1.00, 0.00, -0.00, -1.00, 688.8, 11.0)">к</text><text xml:space="preserve" font-family="AvenirNext-Regular" font-size="30.0" fill="#000000" transform="matrix(1.00, 0.00, -0.00, -1.00, 705.1, 11.0)">л</text><text xml:space="preserve" font-family="AvenirNext-Regular" font-size="30.0" fill="#000000" transform="matrix(1.00, 0.00, -0.00, -1.00, 720.0, 11.0)">и</text><text xml:space="preserve" font-family="AvenirNext-Regular" font-size="30.0" fill="#000000" transform="matrix(1.00, 0.00, -0.00, -1.00, 738.0, 11.0)">е</text><text xml:space="preserve" font-family="AvenirNext-Regular" font-size="30.0" fill="#000000" transform="matrix(1.00, 0.00, -0.00, -1.00, 755.1, 11.0)">н</text><text xml:space="preserve" font-family="AvenirNext-Regular" font-size="30.0" fill="#000000" transform="matrix(1.00, 0.00, -0.00, -1.00, 772.4, 11.0)">т</text><text xml:space="preserve" font-family="AvenirNext-Regular" font-size="30.0" fill="#000000" transform="matrix(1.00, 0.00, -0.00, -1.00, 785.3, 11.0)">а</text></g></svg>