<?xml version="1.0" encoding="UTF-8" standalone="no"?><svg xmlns="http://www.w3.org/2000/svg" xmlns:xlink="http://www.w3.org/1999/xlink" clip-rule="evenodd" stroke-miterlimit="4.00" viewBox="0 0 1024 768"><desc>SVG generated by Keynote</desc><defs></defs><g transform="matrix(1.00, 0.00, -0.00, -1.00, 0.0, 768.0)"><g><clipPath id="clip-682"><path d="M 0.0 768.0 L 1024.0 768.0 L 1024.0 0.0 L 0.0 0.0 Z M 0.0 768.0 "></path></clipPath><g clip-path="url(#clip-682)"><image xlink:href="../../8F6754E5-F402-453C-8A28-A81B776A4759/assets/370422EB796A13E2672D714038217573.png" width="720.00" height="450.00" transform="matrix(1.42, 0.00, -0.00, -1.71, 0.0, 768.0)"></image></g></g><text xml:space="preserve" font-family="AvenirNext-Regular" font-size="58.4" fill="#000000" transform="matrix(1.00, 0.00, -0.00, -1.00, 286.0, 652.0)">Т</text><text xml:space="preserve" font-family="AvenirNext-Regular" font-size="58.4" fill="#000000" transform="matrix(1.00, 0.00, -0.00, -1.00, 319.3, 652.0)">р</text><text xml:space="preserve" font-family="AvenirNext-Regular" font-size="58.4" fill="#000000" transform="matrix(1.00, 0.00, -0.00, -1.00, 356.4, 652.0)">а</text><text xml:space="preserve" font-family="AvenirNext-Regular" font-size="58.4" fill="#000000" transform="matrix(1.00, 0.00, -0.00, -1.00, 387.6, 652.0)">н</text><text xml:space="preserve" font-family="AvenirNext-Regular" font-size="58.4" fill="#000000" transform="matrix(1.00, 0.00, -0.00, -1.00, 421.1, 652.0)">с</text><text xml:space="preserve" font-family="AvenirNext-Regular" font-size="58.4" fill="#000000" transform="matrix(1.00, 0.00, -0.00, -1.00, 450.3, 652.0)">ф</text><text xml:space="preserve" font-family="AvenirNext-Regular" font-size="58.4" fill="#000000" transform="matrix(1.00, 0.00, -0.00, -1.00, 489.3, 652.0)">о</text><text xml:space="preserve" font-family="AvenirNext-Regular" font-size="58.4" fill="#000000" transform="matrix(1.00, 0.00, -0.00, -1.00, 525.0, 652.0)">р</text><text xml:space="preserve" font-family="AvenirNext-Regular" font-size="58.4" fill="#000000" transform="matrix(1.00, 0.00, -0.00, -1.00, 562.1, 652.0)">м</text><text xml:space="preserve" font-family="AvenirNext-Regular" font-size="58.4" fill="#000000" transform="matrix(1.00, 0.00, -0.00, -1.00, 602.6, 652.0)">а</text><text xml:space="preserve" font-family="AvenirNext-Regular" font-size="58.4" fill="#000000" transform="matrix(1.00, 0.00, -0.00, -1.00, 633.8, 652.0)">ц</text><text xml:space="preserve" font-family="AvenirNext-Regular" font-size="58.4" fill="#000000" transform="matrix(1.00, 0.00, -0.00, -1.00, 667.2, 652.0)">и</text><text xml:space="preserve" font-family="AvenirNext-Regular" font-size="58.4" fill="#000000" transform="matrix(1.00, 0.00, -0.00, -1.00, 702.2, 652.0)">и</text></g></svg>