<?xml version="1.0" encoding="UTF-8" standalone="no"?><svg xmlns="http://www.w3.org/2000/svg" xmlns:xlink="http://www.w3.org/1999/xlink" clip-rule="evenodd" stroke-miterlimit="4.00" viewBox="0 0 1024 768"><desc>SVG generated by Keynote</desc><defs></defs><g transform="matrix(1.00, 0.00, -0.00, -1.00, 0.0, 768.0)"><g><clipPath id="clip-383"><path d="M 0.0 768.0 L 1024.0 768.0 L 1024.0 0.0 L 0.0 0.0 Z M 0.0 768.0 "></path></clipPath><g clip-path="url(#clip-383)"><image xlink:href="../../8F6754E5-F402-453C-8A28-A81B776A4759/assets/370422EB796A13E2672D714038217573.png" width="720.00" height="450.00" transform="matrix(1.42, 0.00, -0.00, -1.71, 0.0, 768.0)"></image></g></g><text xml:space="preserve" font-family="AvenirNext-Regular" font-size="54.0" fill="#000000" transform="matrix(1.00, 0.00, -0.00, -1.00, 157.0, 655.0)">T</text><text xml:space="preserve" font-family="AvenirNext-Regular" font-size="54.0" fill="#000000" transform="matrix(1.00, 0.00, -0.00, -1.00, 186.8, 655.0)">h</text><text xml:space="preserve" font-family="AvenirNext-Regular" font-size="54.0" fill="#000000" transform="matrix(1.00, 0.00, -0.00, -1.00, 218.3, 655.0)">e</text><text xml:space="preserve" font-family="AvenirNext-Regular" font-size="54.0" fill="#000000" transform="matrix(1.00, 0.00, -0.00, -1.00, 249.2, 655.0)"> </text><text xml:space="preserve" font-family="AvenirNext-Regular" font-size="54.0" fill="#000000" transform="matrix(1.00, 0.00, -0.00, -1.00, 262.7, 655.0)">c</text><text xml:space="preserve" font-family="AvenirNext-Regular" font-size="54.0" fill="#000000" transform="matrix(1.00, 0.00, -0.00, -1.00, 289.7, 655.0)">l</text><text xml:space="preserve" font-family="AvenirNext-Regular" font-size="54.0" fill="#000000" transform="matrix(1.00, 0.00, -0.00, -1.00, 303.3, 655.0)">i</text><text xml:space="preserve" font-family="AvenirNext-Regular" font-size="54.0" fill="#000000" transform="matrix(1.00, 0.00, -0.00, -1.00, 316.8, 655.0)">e</text><text xml:space="preserve" font-family="AvenirNext-Regular" font-size="54.0" fill="#000000" transform="matrix(1.00, 0.00, -0.00, -1.00, 347.7, 655.0)">n</text><text xml:space="preserve" font-family="AvenirNext-Regular" font-size="54.0" fill="#000000" transform="matrix(1.00, 0.00, -0.00, -1.00, 379.0, 655.0)">t</text><text xml:space="preserve" font-family="AvenirNext-Regular" font-size="54.0" fill="#000000" transform="matrix(1.00, 0.00, -0.00, -1.00, 396.2, 655.0)">-</text><text xml:space="preserve" font-family="AvenirNext-Regular" font-size="54.0" fill="#000000" transform="matrix(1.00, 0.00, -0.00, -1.00, 413.4, 655.0)">s</text><text xml:space="preserve" font-family="AvenirNext-Regular" font-size="54.0" fill="#000000" transform="matrix(1.00, 0.00, -0.00, -1.00, 437.4, 655.0)">e</text><text xml:space="preserve" font-family="AvenirNext-Regular" font-size="54.0" fill="#000000" transform="matrix(1.00, 0.00, -0.00, -1.00, 468.3, 655.0)">r</text><text xml:space="preserve" font-family="AvenirNext-Regular" font-size="54.0" fill="#000000" transform="matrix(1.00, 0.00, -0.00, -1.00, 487.8, 655.0)">v</text><text xml:space="preserve" font-family="AvenirNext-Regular" font-size="54.0" fill="#000000" transform="matrix(1.00, 0.00, -0.00, -1.00, 514.1, 655.0)">e</text><text xml:space="preserve" font-family="AvenirNext-Regular" font-size="54.0" fill="#000000" transform="matrix(1.00, 0.00, -0.00, -1.00, 545.0, 655.0)">r</text><text xml:space="preserve" font-family="AvenirNext-Regular" font-size="54.0" fill="#000000" transform="matrix(1.00, 0.00, -0.00, -1.00, 564.4, 655.0)"> </text><text xml:space="preserve" font-family="AvenirNext-Regular" font-size="54.0" fill="#000000" transform="matrix(1.00, 0.00, -0.00, -1.00, 577.9, 655.0)">r</text><text xml:space="preserve" font-family="AvenirNext-Regular" font-size="54.0" fill="#000000" transform="matrix(1.00, 0.00, -0.00, -1.00, 596.4, 655.0)">e</text><text xml:space="preserve" font-family="AvenirNext-Regular" font-size="54.0" fill="#000000" transform="matrix(1.00, 0.00, -0.00, -1.00, 627.3, 655.0)">l</text><text xml:space="preserve" font-family="AvenirNext-Regular" font-size="54.0" fill="#000000" transform="matrix(1.00, 0.00, -0.00, -1.00, 640.9, 655.0)">a</text><text xml:space="preserve" font-family="AvenirNext-Regular" font-size="54.0" fill="#000000" transform="matrix(1.00, 0.00, -0.00, -1.00, 669.2, 655.0)">t</text><text xml:space="preserve" font-family="AvenirNext-Regular" font-size="54.0" fill="#000000" transform="matrix(1.00, 0.00, -0.00, -1.00, 686.3, 655.0)">i</text><text xml:space="preserve" font-family="AvenirNext-Regular" font-size="54.0" fill="#000000" transform="matrix(1.00, 0.00, -0.00, -1.00, 699.8, 655.0)">o</text><text xml:space="preserve" font-family="AvenirNext-Regular" font-size="54.0" fill="#000000" transform="matrix(1.00, 0.00, -0.00, -1.00, 732.8, 655.0)">n</text><text xml:space="preserve" font-family="AvenirNext-Regular" font-size="54.0" fill="#000000" transform="matrix(1.00, 0.00, -0.00, -1.00, 764.2, 655.0)">s</text><text xml:space="preserve" font-family="AvenirNext-Regular" font-size="54.0" fill="#000000" transform="matrix(1.00, 0.00, -0.00, -1.00, 788.2, 655.0)">h</text><text xml:space="preserve" font-family="AvenirNext-Regular" font-size="54.0" fill="#000000" transform="matrix(1.00, 0.00, -0.00, -1.00, 819.6, 655.0)">i</text><text xml:space="preserve" font-family="AvenirNext-Regular" font-size="54.0" fill="#000000" transform="matrix(1.00, 0.00, -0.00, -1.00, 833.1, 655.0)">p</text></g></svg>