<?xml version="1.0" encoding="UTF-8" standalone="no"?><svg xmlns="http://www.w3.org/2000/svg" xmlns:xlink="http://www.w3.org/1999/xlink" clip-rule="evenodd" stroke-miterlimit="4.00" viewBox="0 0 852 38"><desc>SVG generated by Keynote</desc><defs></defs><g transform="matrix(1.00, 0.00, -0.00, -1.00, 0.0, 38.0)"><text xml:space="preserve" font-family="AvenirNext-Regular" font-size="33.0" fill="#000000" transform="matrix(1.00, 0.00, -0.00, -1.00, 2.0, 11.0)">Т</text><text xml:space="preserve" font-family="AvenirNext-Regular" font-size="33.0" fill="#000000" transform="matrix(1.00, 0.00, -0.00, -1.00, 20.8, 11.0)">.</text><text xml:space="preserve" font-family="AvenirNext-Regular" font-size="33.0" fill="#000000" transform="matrix(1.00, 0.00, -0.00, -1.00, 29.4, 11.0)">е</text><text xml:space="preserve" font-family="AvenirNext-Regular" font-size="33.0" fill="#000000" transform="matrix(1.00, 0.00, -0.00, -1.00, 48.3, 11.0)">.</text><text xml:space="preserve" font-family="AvenirNext-Regular" font-size="33.0" fill="#000000" transform="matrix(1.00, 0.00, -0.00, -1.00, 55.9, 11.0)"> </text><text xml:space="preserve" font-family="AvenirNext-Regular" font-size="33.0" fill="#000000" transform="matrix(1.00, 0.00, -0.00, -1.00, 64.1, 11.0)">-</text><text xml:space="preserve" font-family="AvenirNext-Regular" font-size="33.0" fill="#000000" transform="matrix(1.00, 0.00, -0.00, -1.00, 74.7, 11.0)"> </text><text xml:space="preserve" font-family="AvenirNext-Regular" font-size="33.0" fill="#000000" transform="matrix(1.00, 0.00, -0.00, -1.00, 82.9, 11.0)">т</text><text xml:space="preserve" font-family="AvenirNext-Regular" font-size="33.0" fill="#000000" transform="matrix(1.00, 0.00, -0.00, -1.00, 97.1, 11.0)">о</text><text xml:space="preserve" font-family="AvenirNext-Regular" font-size="33.0" fill="#000000" transform="matrix(1.00, 0.00, -0.00, -1.00, 117.3, 11.0)">в</text><text xml:space="preserve" font-family="AvenirNext-Regular" font-size="33.0" fill="#000000" transform="matrix(1.00, 0.00, -0.00, -1.00, 135.2, 11.0)">а</text><text xml:space="preserve" font-family="AvenirNext-Regular" font-size="33.0" fill="#000000" transform="matrix(1.00, 0.00, -0.00, -1.00, 152.8, 11.0)"> </text><text xml:space="preserve" font-family="AvenirNext-Regular" font-size="33.0" fill="#000000" transform="matrix(1.00, 0.00, -0.00, -1.00, 161.0, 11.0)">е</text><text xml:space="preserve" font-family="AvenirNext-Regular" font-size="33.0" fill="#000000" transform="matrix(1.00, 0.00, -0.00, -1.00, 179.9, 11.0)"> </text><text xml:space="preserve" font-family="AvenirNext-Regular" font-size="33.0" fill="#000000" transform="matrix(1.00, 0.00, -0.00, -1.00, 188.2, 11.0)">в</text><text xml:space="preserve" font-family="AvenirNext-Regular" font-size="33.0" fill="#000000" transform="matrix(1.00, 0.00, -0.00, -1.00, 206.0, 11.0)">и</text><text xml:space="preserve" font-family="AvenirNext-Regular" font-size="33.0" fill="#000000" transform="matrix(1.00, 0.00, -0.00, -1.00, 225.8, 11.0)">з</text><text xml:space="preserve" font-family="AvenirNext-Regular" font-size="33.0" fill="#000000" transform="matrix(1.00, 0.00, -0.00, -1.00, 241.1, 11.0)">у</text><text xml:space="preserve" font-family="AvenirNext-Regular" font-size="33.0" fill="#000000" transform="matrix(1.00, 0.00, -0.00, -1.00, 257.2, 11.0)">а</text><text xml:space="preserve" font-family="AvenirNext-Regular" font-size="33.0" fill="#000000" transform="matrix(1.00, 0.00, -0.00, -1.00, 274.8, 11.0)">л</text><text xml:space="preserve" font-family="AvenirNext-Regular" font-size="33.0" fill="#000000" transform="matrix(1.00, 0.00, -0.00, -1.00, 291.2, 11.0)">н</text><text xml:space="preserve" font-family="AvenirNext-Regular" font-size="33.0" fill="#000000" transform="matrix(1.00, 0.00, -0.00, -1.00, 310.2, 11.0)">о</text><text xml:space="preserve" font-family="AvenirNext-Regular" font-size="33.0" fill="#000000" transform="matrix(1.00, 0.00, -0.00, -1.00, 330.3, 11.0)">т</text><text xml:space="preserve" font-family="AvenirNext-Regular" font-size="33.0" fill="#000000" transform="matrix(1.00, 0.00, -0.00, -1.00, 344.5, 11.0)">о</text><text xml:space="preserve" font-family="AvenirNext-Regular" font-size="33.0" fill="#000000" transform="matrix(1.00, 0.00, -0.00, -1.00, 364.7, 11.0)"> </text><text xml:space="preserve" font-family="AvenirNext-Regular" font-size="33.0" fill="#000000" transform="matrix(1.00, 0.00, -0.00, -1.00, 373.0, 11.0)">о</text><text xml:space="preserve" font-family="AvenirNext-Regular" font-size="33.0" fill="#000000" transform="matrix(1.00, 0.00, -0.00, -1.00, 393.1, 11.0)">ф</text><text xml:space="preserve" font-family="AvenirNext-Regular" font-size="33.0" fill="#000000" transform="matrix(1.00, 0.00, -0.00, -1.00, 415.1, 11.0)">о</text><text xml:space="preserve" font-family="AvenirNext-Regular" font-size="33.0" fill="#000000" transform="matrix(1.00, 0.00, -0.00, -1.00, 435.3, 11.0)">р</text><text xml:space="preserve" font-family="AvenirNext-Regular" font-size="33.0" fill="#000000" transform="matrix(1.00, 0.00, -0.00, -1.00, 456.2, 11.0)">м</text><text xml:space="preserve" font-family="AvenirNext-Regular" font-size="33.0" fill="#000000" transform="matrix(1.00, 0.00, -0.00, -1.00, 479.2, 11.0)">л</text><text xml:space="preserve" font-family="AvenirNext-Regular" font-size="33.0" fill="#000000" transform="matrix(1.00, 0.00, -0.00, -1.00, 495.6, 11.0)">е</text><text xml:space="preserve" font-family="AvenirNext-Regular" font-size="33.0" fill="#000000" transform="matrix(1.00, 0.00, -0.00, -1.00, 514.5, 11.0)">н</text><text xml:space="preserve" font-family="AvenirNext-Regular" font-size="33.0" fill="#000000" transform="matrix(1.00, 0.00, -0.00, -1.00, 533.4, 11.0)">и</text><text xml:space="preserve" font-family="AvenirNext-Regular" font-size="33.0" fill="#000000" transform="matrix(1.00, 0.00, -0.00, -1.00, 553.2, 11.0)">е</text><text xml:space="preserve" font-family="AvenirNext-Regular" font-size="33.0" fill="#000000" transform="matrix(1.00, 0.00, -0.00, -1.00, 572.1, 11.0)"> </text><text xml:space="preserve" font-family="AvenirNext-Regular" font-size="33.0" fill="#000000" transform="matrix(1.00, 0.00, -0.00, -1.00, 580.3, 11.0)">н</text><text xml:space="preserve" font-family="AvenirNext-Regular" font-size="33.0" fill="#000000" transform="matrix(1.00, 0.00, -0.00, -1.00, 599.3, 11.0)">а</text><text xml:space="preserve" font-family="AvenirNext-Regular" font-size="33.0" fill="#000000" transform="matrix(1.00, 0.00, -0.00, -1.00, 616.9, 11.0)"> </text><text xml:space="preserve" font-family="AvenirNext-Regular" font-size="33.0" fill="#000000" transform="matrix(1.00, 0.00, -0.00, -1.00, 625.2, 11.0)">е</text><text xml:space="preserve" font-family="AvenirNext-Regular" font-size="33.0" fill="#000000" transform="matrix(1.00, 0.00, -0.00, -1.00, 644.0, 11.0)">д</text><text xml:space="preserve" font-family="AvenirNext-Regular" font-size="33.0" fill="#000000" transform="matrix(1.00, 0.00, -0.00, -1.00, 662.0, 11.0)">н</text><text xml:space="preserve" font-family="AvenirNext-Regular" font-size="33.0" fill="#000000" transform="matrix(1.00, 0.00, -0.00, -1.00, 681.0, 11.0)">а</text><text xml:space="preserve" font-family="AvenirNext-Regular" font-size="33.0" fill="#000000" transform="matrix(1.00, 0.00, -0.00, -1.00, 698.6, 11.0)"> </text><text xml:space="preserve" font-family="AvenirNext-Regular" font-size="33.0" fill="#000000" transform="matrix(1.00, 0.00, -0.00, -1.00, 706.8, 11.0)">с</text><text xml:space="preserve" font-family="AvenirNext-Regular" font-size="33.0" fill="#000000" transform="matrix(1.00, 0.00, -0.00, -1.00, 723.3, 11.0)">т</text><text xml:space="preserve" font-family="AvenirNext-Regular" font-size="33.0" fill="#000000" transform="matrix(1.00, 0.00, -0.00, -1.00, 737.6, 11.0)">р</text><text xml:space="preserve" font-family="AvenirNext-Regular" font-size="33.0" fill="#000000" transform="matrix(1.00, 0.00, -0.00, -1.00, 758.5, 11.0)">а</text><text xml:space="preserve" font-family="AvenirNext-Regular" font-size="33.0" fill="#000000" transform="matrix(1.00, 0.00, -0.00, -1.00, 776.1, 11.0)">н</text><text xml:space="preserve" font-family="AvenirNext-Regular" font-size="33.0" fill="#000000" transform="matrix(1.00, 0.00, -0.00, -1.00, 795.1, 11.0)">и</text><text xml:space="preserve" font-family="AvenirNext-Regular" font-size="33.0" fill="#000000" transform="matrix(1.00, 0.00, -0.00, -1.00, 814.9, 11.0)">ц</text><text xml:space="preserve" font-family="AvenirNext-Regular" font-size="33.0" fill="#000000" transform="matrix(1.00, 0.00, -0.00, -1.00, 833.7, 11.0)">а</text></g></svg>