<?xml version="1.0" encoding="UTF-8" standalone="no"?><svg xmlns="http://www.w3.org/2000/svg" xmlns:xlink="http://www.w3.org/1999/xlink" clip-rule="evenodd" stroke-miterlimit="4.00" viewBox="0 0 442 48"><desc>SVG generated by Keynote</desc><defs></defs><g transform="matrix(1.00, 0.00, -0.00, -1.00, 0.0, 48.0)"><text xml:space="preserve" font-family="AvenirNext-Regular" font-size="44.0" fill="#000000" transform="matrix(1.00, 0.00, -0.00, -1.00, -2.0, 12.0)">К</text><text xml:space="preserve" font-family="AvenirNext-Regular" font-size="44.0" fill="#000000" transform="matrix(1.00, 0.00, -0.00, -1.00, 28.4, 12.0)">а</text><text xml:space="preserve" font-family="AvenirNext-Regular" font-size="44.0" fill="#000000" transform="matrix(1.00, 0.00, -0.00, -1.00, 51.9, 12.0)">к</text><text xml:space="preserve" font-family="AvenirNext-Regular" font-size="44.0" fill="#000000" transform="matrix(1.00, 0.00, -0.00, -1.00, 75.8, 12.0)">в</text><text xml:space="preserve" font-family="AvenirNext-Regular" font-size="44.0" fill="#000000" transform="matrix(1.00, 0.00, -0.00, -1.00, 99.6, 12.0)">о</text><text xml:space="preserve" font-family="AvenirNext-Regular" font-size="44.0" fill="#000000" transform="matrix(1.00, 0.00, -0.00, -1.00, 126.5, 12.0)"> </text><text xml:space="preserve" font-family="AvenirNext-Regular" font-size="44.0" fill="#000000" transform="matrix(1.00, 0.00, -0.00, -1.00, 137.5, 12.0)">е</text><text xml:space="preserve" font-family="AvenirNext-Regular" font-size="44.0" fill="#000000" transform="matrix(1.00, 0.00, -0.00, -1.00, 162.6, 12.0)"> </text><text xml:space="preserve" font-family="AvenirNext-Regular" font-size="44.0" fill="#000000" transform="matrix(1.00, 0.00, -0.00, -1.00, 173.6, 12.0)">W</text><text xml:space="preserve" font-family="AvenirNext-Regular" font-size="44.0" fill="#000000" transform="matrix(1.00, 0.00, -0.00, -1.00, 214.8, 12.0)">e</text><text xml:space="preserve" font-family="AvenirNext-Regular" font-size="44.0" fill="#000000" transform="matrix(1.00, 0.00, -0.00, -1.00, 240.0, 12.0)">b</text><text xml:space="preserve" font-family="AvenirNext-Regular" font-size="44.0" fill="#000000" transform="matrix(1.00, 0.00, -0.00, -1.00, 268.0, 12.0)"> </text><text xml:space="preserve" font-family="AvenirNext-Regular" font-size="44.0" fill="#000000" transform="matrix(1.00, 0.00, -0.00, -1.00, 279.0, 12.0)">D</text><text xml:space="preserve" font-family="AvenirNext-Regular" font-size="44.0" fill="#000000" transform="matrix(1.00, 0.00, -0.00, -1.00, 312.3, 12.0)">e</text><text xml:space="preserve" font-family="AvenirNext-Regular" font-size="44.0" fill="#000000" transform="matrix(1.00, 0.00, -0.00, -1.00, 337.5, 12.0)">s</text><text xml:space="preserve" font-family="AvenirNext-Regular" font-size="44.0" fill="#000000" transform="matrix(1.00, 0.00, -0.00, -1.00, 357.0, 12.0)">i</text><text xml:space="preserve" font-family="AvenirNext-Regular" font-size="44.0" fill="#000000" transform="matrix(1.00, 0.00, -0.00, -1.00, 368.0, 12.0)">g</text><text xml:space="preserve" font-family="AvenirNext-Regular" font-size="44.0" fill="#000000" transform="matrix(1.00, 0.00, -0.00, -1.00, 395.8, 12.0)">n</text><text xml:space="preserve" font-family="AvenirNext-Regular" font-size="44.0" fill="#000000" transform="matrix(1.00, 0.00, -0.00, -1.00, 421.4, 12.0)">?</text></g></svg>