<?xml version="1.0" encoding="UTF-8" standalone="no"?><svg xmlns="http://www.w3.org/2000/svg" xmlns:xlink="http://www.w3.org/1999/xlink" clip-rule="evenodd" stroke-miterlimit="4.00" viewBox="0 0 741 57"><desc>SVG generated by Keynote</desc><defs></defs><g transform="matrix(1.00, 0.00, -0.00, -1.00, 0.0, 57.0)"><text xml:space="preserve" font-family="AvenirNext-Regular" font-size="55.2" fill="#000000" transform="matrix(1.00, 0.00, -0.00, -1.00, -4.0, 16.0)">Н</text><text xml:space="preserve" font-family="AvenirNext-Regular" font-size="55.2" fill="#000000" transform="matrix(1.00, 0.00, -0.00, -1.00, 35.6, 16.0)">а</text><text xml:space="preserve" font-family="AvenirNext-Regular" font-size="55.2" fill="#000000" transform="matrix(1.00, 0.00, -0.00, -1.00, 65.1, 16.0)">й</text><text xml:space="preserve" font-family="AvenirNext-Regular" font-size="55.2" fill="#000000" transform="matrix(1.00, 0.00, -0.00, -1.00, 98.2, 16.0)">-</text><text xml:space="preserve" font-family="AvenirNext-Regular" font-size="55.2" fill="#000000" transform="matrix(1.00, 0.00, -0.00, -1.00, 115.8, 16.0)">в</text><text xml:space="preserve" font-family="AvenirNext-Regular" font-size="55.2" fill="#000000" transform="matrix(1.00, 0.00, -0.00, -1.00, 145.7, 16.0)">а</text><text xml:space="preserve" font-family="AvenirNext-Regular" font-size="55.2" fill="#000000" transform="matrix(1.00, 0.00, -0.00, -1.00, 175.2, 16.0)">ж</text><text xml:space="preserve" font-family="AvenirNext-Regular" font-size="55.2" fill="#000000" transform="matrix(1.00, 0.00, -0.00, -1.00, 220.2, 16.0)">н</text><text xml:space="preserve" font-family="AvenirNext-Regular" font-size="55.2" fill="#000000" transform="matrix(1.00, 0.00, -0.00, -1.00, 252.0, 16.0)">о</text><text xml:space="preserve" font-family="AvenirNext-Regular" font-size="55.2" fill="#000000" transform="matrix(1.00, 0.00, -0.00, -1.00, 285.7, 16.0)"> </text><text xml:space="preserve" font-family="AvenirNext-Regular" font-size="55.2" fill="#000000" transform="matrix(1.00, 0.00, -0.00, -1.00, 299.5, 16.0)">е</text><text xml:space="preserve" font-family="AvenirNext-Regular" font-size="55.2" fill="#000000" transform="matrix(1.00, 0.00, -0.00, -1.00, 331.1, 16.0)"> </text><text xml:space="preserve" font-family="AvenirNext-Regular" font-size="55.2" fill="#000000" transform="matrix(1.00, 0.00, -0.00, -1.00, 344.9, 16.0)">с</text><text xml:space="preserve" font-family="AvenirNext-Regular" font-size="55.2" fill="#000000" transform="matrix(1.00, 0.00, -0.00, -1.00, 372.5, 16.0)">ъ</text><text xml:space="preserve" font-family="AvenirNext-Regular" font-size="55.2" fill="#000000" transform="matrix(1.00, 0.00, -0.00, -1.00, 402.9, 16.0)">д</text><text xml:space="preserve" font-family="AvenirNext-Regular" font-size="55.2" fill="#000000" transform="matrix(1.00, 0.00, -0.00, -1.00, 433.0, 16.0)">ъ</text><text xml:space="preserve" font-family="AvenirNext-Regular" font-size="55.2" fill="#000000" transform="matrix(1.00, 0.00, -0.00, -1.00, 463.4, 16.0)">р</text><text xml:space="preserve" font-family="AvenirNext-Regular" font-size="55.2" fill="#000000" transform="matrix(1.00, 0.00, -0.00, -1.00, 498.5, 16.0)">ж</text><text xml:space="preserve" font-family="AvenirNext-Regular" font-size="55.2" fill="#000000" transform="matrix(1.00, 0.00, -0.00, -1.00, 543.5, 16.0)">а</text><text xml:space="preserve" font-family="AvenirNext-Regular" font-size="55.2" fill="#000000" transform="matrix(1.00, 0.00, -0.00, -1.00, 573.0, 16.0)">н</text><text xml:space="preserve" font-family="AvenirNext-Regular" font-size="55.2" fill="#000000" transform="matrix(1.00, 0.00, -0.00, -1.00, 604.7, 16.0)">и</text><text xml:space="preserve" font-family="AvenirNext-Regular" font-size="55.2" fill="#000000" transform="matrix(1.00, 0.00, -0.00, -1.00, 637.8, 16.0)">е</text><text xml:space="preserve" font-family="AvenirNext-Regular" font-size="55.2" fill="#000000" transform="matrix(1.00, 0.00, -0.00, -1.00, 669.4, 16.0)">т</text><text xml:space="preserve" font-family="AvenirNext-Regular" font-size="55.2" fill="#000000" transform="matrix(1.00, 0.00, -0.00, -1.00, 693.2, 16.0)">о</text><text xml:space="preserve" font-family="AvenirNext-Regular" font-size="55.2" fill="#000000" transform="matrix(1.00, 0.00, -0.00, -1.00, 726.9, 16.0)">!</text></g></svg>