<?xml version="1.0" encoding="UTF-8" standalone="no"?><svg xmlns="http://www.w3.org/2000/svg" xmlns:xlink="http://www.w3.org/1999/xlink" clip-rule="evenodd" stroke-miterlimit="4.00" viewBox="0 0 833 54"><desc>SVG generated by Keynote</desc><defs></defs><g transform="matrix(1.00, 0.00, -0.00, -1.00, 0.0, 54.0)"><text xml:space="preserve" font-family="AvenirNext-Regular" font-size="17.6" fill="#000000" transform="matrix(1.00, 0.00, -0.00, -1.00, 0.5, 36.0)">•</text><text xml:space="preserve" font-family="AvenirNext-Regular" font-size="23.4" fill="#000000" transform="matrix(1.00, 0.00, -0.00, -1.00, 18.0, 34.0)">S</text><text xml:space="preserve" font-family="AvenirNext-Regular" font-size="23.4" fill="#000000" transform="matrix(1.00, 0.00, -0.00, -1.00, 31.2, 34.0)">e</text><text xml:space="preserve" font-family="AvenirNext-Regular" font-size="23.4" fill="#000000" transform="matrix(1.00, 0.00, -0.00, -1.00, 44.4, 34.0)">a</text><text xml:space="preserve" font-family="AvenirNext-Regular" font-size="23.4" fill="#000000" transform="matrix(1.00, 0.00, -0.00, -1.00, 56.9, 34.0)">r</text><text xml:space="preserve" font-family="AvenirNext-Regular" font-size="23.4" fill="#000000" transform="matrix(1.00, 0.00, -0.00, -1.00, 64.9, 34.0)">c</text><text xml:space="preserve" font-family="AvenirNext-Regular" font-size="23.4" fill="#000000" transform="matrix(1.00, 0.00, -0.00, -1.00, 76.6, 34.0)">h</text><text xml:space="preserve" font-family="AvenirNext-Regular" font-size="23.4" fill="#000000" transform="matrix(1.00, 0.00, -0.00, -1.00, 90.3, 34.0)"> </text><text xml:space="preserve" font-family="AvenirNext-Regular" font-size="23.4" fill="#000000" transform="matrix(1.00, 0.00, -0.00, -1.00, 96.1, 34.0)">e</text><text xml:space="preserve" font-family="AvenirNext-Regular" font-size="23.4" fill="#000000" transform="matrix(1.00, 0.00, -0.00, -1.00, 109.5, 34.0)">n</text><text xml:space="preserve" font-family="AvenirNext-Regular" font-size="23.4" fill="#000000" transform="matrix(1.00, 0.00, -0.00, -1.00, 123.1, 34.0)">g</text><text xml:space="preserve" font-family="AvenirNext-Regular" font-size="23.4" fill="#000000" transform="matrix(1.00, 0.00, -0.00, -1.00, 137.9, 34.0)">i</text><text xml:space="preserve" font-family="AvenirNext-Regular" font-size="23.4" fill="#000000" transform="matrix(1.00, 0.00, -0.00, -1.00, 143.8, 34.0)">n</text><text xml:space="preserve" font-family="AvenirNext-Regular" font-size="23.4" fill="#000000" transform="matrix(1.00, 0.00, -0.00, -1.00, 157.3, 34.0)">e</text><text xml:space="preserve" font-family="AvenirNext-Regular" font-size="23.4" fill="#000000" transform="matrix(1.00, 0.00, -0.00, -1.00, 170.7, 34.0)">s</text><text xml:space="preserve" font-family="AvenirNext-Regular" font-size="23.4" fill="#000000" transform="matrix(1.00, 0.00, -0.00, -1.00, 181.1, 34.0)"> </text><text xml:space="preserve" font-family="AvenirNext-Regular" font-size="23.4" fill="#000000" transform="matrix(1.00, 0.00, -0.00, -1.00, 187.0, 34.0)">u</text><text xml:space="preserve" font-family="AvenirNext-Regular" font-size="23.4" fill="#000000" transform="matrix(1.00, 0.00, -0.00, -1.00, 200.6, 34.0)">n</text><text xml:space="preserve" font-family="AvenirNext-Regular" font-size="23.4" fill="#000000" transform="matrix(1.00, 0.00, -0.00, -1.00, 214.2, 34.0)">d</text><text xml:space="preserve" font-family="AvenirNext-Regular" font-size="23.4" fill="#000000" transform="matrix(1.00, 0.00, -0.00, -1.00, 229.1, 34.0)">e</text><text xml:space="preserve" font-family="AvenirNext-Regular" font-size="23.4" fill="#000000" transform="matrix(1.00, 0.00, -0.00, -1.00, 242.5, 34.0)">r</text><text xml:space="preserve" font-family="AvenirNext-Regular" font-size="23.4" fill="#000000" transform="matrix(1.00, 0.00, -0.00, -1.00, 250.9, 34.0)">s</text><text xml:space="preserve" font-family="AvenirNext-Regular" font-size="23.4" fill="#000000" transform="matrix(1.00, 0.00, -0.00, -1.00, 261.3, 34.0)">t</text><text xml:space="preserve" font-family="AvenirNext-Regular" font-size="23.4" fill="#000000" transform="matrix(1.00, 0.00, -0.00, -1.00, 268.7, 34.0)">a</text><text xml:space="preserve" font-family="AvenirNext-Regular" font-size="23.4" fill="#000000" transform="matrix(1.00, 0.00, -0.00, -1.00, 281.2, 34.0)">n</text><text xml:space="preserve" font-family="AvenirNext-Regular" font-size="23.4" fill="#000000" transform="matrix(1.00, 0.00, -0.00, -1.00, 294.8, 34.0)">d</text><text xml:space="preserve" font-family="AvenirNext-Regular" font-size="23.4" fill="#000000" transform="matrix(1.00, 0.00, -0.00, -1.00, 309.7, 34.0)"> </text><text xml:space="preserve" font-family="AvenirNext-Regular" font-size="23.4" fill="#000000" transform="matrix(1.00, 0.00, -0.00, -1.00, 315.5, 34.0)">t</text><text xml:space="preserve" font-family="AvenirNext-Regular" font-size="23.4" fill="#000000" transform="matrix(1.00, 0.00, -0.00, -1.00, 322.9, 34.0)">e</text><text xml:space="preserve" font-family="AvenirNext-Regular" font-size="23.4" fill="#000000" transform="matrix(1.00, 0.00, -0.00, -1.00, 336.2, 34.0)">x</text><text xml:space="preserve" font-family="AvenirNext-Regular" font-size="23.4" fill="#000000" transform="matrix(1.00, 0.00, -0.00, -1.00, 347.5, 34.0)">t</text><text xml:space="preserve" font-family="AvenirNext-Regular" font-size="23.4" fill="#000000" transform="matrix(1.00, 0.00, -0.00, -1.00, 354.9, 34.0)"> </text><text xml:space="preserve" font-family="AvenirNext-Regular" font-size="23.4" fill="#000000" transform="matrix(1.00, 0.00, -0.00, -1.00, 360.8, 34.0)">a</text><text xml:space="preserve" font-family="AvenirNext-Regular" font-size="23.4" fill="#000000" transform="matrix(1.00, 0.00, -0.00, -1.00, 373.3, 34.0)">n</text><text xml:space="preserve" font-family="AvenirNext-Regular" font-size="23.4" fill="#000000" transform="matrix(1.00, 0.00, -0.00, -1.00, 386.9, 34.0)">d</text><text xml:space="preserve" font-family="AvenirNext-Regular" font-size="23.4" fill="#000000" transform="matrix(1.00, 0.00, -0.00, -1.00, 401.8, 34.0)"> </text><text xml:space="preserve" font-family="AvenirNext-Regular" font-size="23.4" fill="#000000" transform="matrix(1.00, 0.00, -0.00, -1.00, 407.6, 34.0)">i</text><text xml:space="preserve" font-family="AvenirNext-Regular" font-size="23.4" fill="#000000" transform="matrix(1.00, 0.00, -0.00, -1.00, 413.5, 34.0)">n</text><text xml:space="preserve" font-family="AvenirNext-Regular" font-size="23.4" fill="#000000" transform="matrix(1.00, 0.00, -0.00, -1.00, 427.1, 34.0)"> </text><text xml:space="preserve" font-family="AvenirNext-Regular" font-size="23.4" fill="#000000" transform="matrix(1.00, 0.00, -0.00, -1.00, 432.9, 34.0)">2</text><text xml:space="preserve" font-family="AvenirNext-Regular" font-size="23.4" fill="#000000" transform="matrix(1.00, 0.00, -0.00, -1.00, 446.5, 34.0)">0</text><text xml:space="preserve" font-family="AvenirNext-Regular" font-size="23.4" fill="#000000" transform="matrix(1.00, 0.00, -0.00, -1.00, 460.1, 34.0)">1</text><text xml:space="preserve" font-family="AvenirNext-Regular" font-size="23.4" fill="#000000" transform="matrix(1.00, 0.00, -0.00, -1.00, 473.6, 34.0)">6</text><text xml:space="preserve" font-family="AvenirNext-Regular" font-size="23.4" fill="#000000" transform="matrix(1.00, 0.00, -0.00, -1.00, 487.2, 34.0)"> </text><text xml:space="preserve" font-family="AvenirNext-Regular" font-size="23.4" fill="#000000" transform="matrix(1.00, 0.00, -0.00, -1.00, 493.1, 34.0)">G</text><text xml:space="preserve" font-family="AvenirNext-Regular" font-size="23.4" fill="#000000" transform="matrix(1.00, 0.00, -0.00, -1.00, 511.3, 34.0)">o</text><text xml:space="preserve" font-family="AvenirNext-Regular" font-size="23.4" fill="#000000" transform="matrix(1.00, 0.00, -0.00, -1.00, 525.6, 34.0)">o</text><text xml:space="preserve" font-family="AvenirNext-Regular" font-size="23.4" fill="#000000" transform="matrix(1.00, 0.00, -0.00, -1.00, 539.9, 34.0)">g</text><text xml:space="preserve" font-family="AvenirNext-Regular" font-size="23.4" fill="#000000" transform="matrix(1.00, 0.00, -0.00, -1.00, 554.7, 34.0)">l</text><text xml:space="preserve" font-family="AvenirNext-Regular" font-size="23.4" fill="#000000" transform="matrix(1.00, 0.00, -0.00, -1.00, 560.6, 34.0)">e</text><text xml:space="preserve" font-family="AvenirNext-Regular" font-size="23.4" fill="#000000" transform="matrix(1.00, 0.00, -0.00, -1.00, 574.0, 34.0)"> </text><text xml:space="preserve" font-family="AvenirNext-Regular" font-size="23.4" fill="#000000" transform="matrix(1.00, 0.00, -0.00, -1.00, 579.8, 34.0)">i</text><text xml:space="preserve" font-family="AvenirNext-Regular" font-size="23.4" fill="#000000" transform="matrix(1.00, 0.00, -0.00, -1.00, 585.7, 34.0)">s</text><text xml:space="preserve" font-family="AvenirNext-Regular" font-size="23.4" fill="#000000" transform="matrix(1.00, 0.00, -0.00, -1.00, 596.1, 34.0)"> </text><text xml:space="preserve" font-family="AvenirNext-Regular" font-size="23.4" fill="#000000" transform="matrix(1.00, 0.00, -0.00, -1.00, 601.9, 34.0)">M</text><text xml:space="preserve" font-family="AvenirNext-Regular" font-size="23.4" fill="#000000" transform="matrix(1.00, 0.00, -0.00, -1.00, 622.6, 34.0)">O</text><text xml:space="preserve" font-family="AvenirNext-Regular" font-size="23.4" fill="#000000" transform="matrix(1.00, 0.00, -0.00, -1.00, 642.5, 34.0)">S</text><text xml:space="preserve" font-family="AvenirNext-Regular" font-size="23.4" fill="#000000" transform="matrix(1.00, 0.00, -0.00, -1.00, 655.3, 34.0)">T</text><text xml:space="preserve" font-family="AvenirNext-Regular" font-size="23.4" fill="#000000" transform="matrix(1.00, 0.00, -0.00, -1.00, 668.6, 34.0)">L</text><text xml:space="preserve" font-family="AvenirNext-Regular" font-size="23.4" fill="#000000" transform="matrix(1.00, 0.00, -0.00, -1.00, 678.5, 34.0)">Y</text><text xml:space="preserve" font-family="AvenirNext-Regular" font-size="23.4" fill="#000000" transform="matrix(1.00, 0.00, -0.00, -1.00, 692.0, 34.0)"> </text><text xml:space="preserve" font-family="AvenirNext-Regular" font-size="23.4" fill="#000000" transform="matrix(1.00, 0.00, -0.00, -1.00, 697.8, 34.0)">i</text><text xml:space="preserve" font-family="AvenirNext-Regular" font-size="23.4" fill="#000000" transform="matrix(1.00, 0.00, -0.00, -1.00, 703.7, 34.0)">n</text><text xml:space="preserve" font-family="AvenirNext-Regular" font-size="23.4" fill="#000000" transform="matrix(1.00, 0.00, -0.00, -1.00, 717.3, 34.0)">t</text><text xml:space="preserve" font-family="AvenirNext-Regular" font-size="23.4" fill="#000000" transform="matrix(1.00, 0.00, -0.00, -1.00, 724.7, 34.0)">e</text><text xml:space="preserve" font-family="AvenirNext-Regular" font-size="23.4" fill="#000000" transform="matrix(1.00, 0.00, -0.00, -1.00, 738.1, 34.0)">r</text><text xml:space="preserve" font-family="AvenirNext-Regular" font-size="23.4" fill="#000000" transform="matrix(1.00, 0.00, -0.00, -1.00, 746.1, 34.0)">e</text><text xml:space="preserve" font-family="AvenirNext-Regular" font-size="23.4" fill="#000000" transform="matrix(1.00, 0.00, -0.00, -1.00, 759.5, 34.0)">s</text><text xml:space="preserve" font-family="AvenirNext-Regular" font-size="23.4" fill="#000000" transform="matrix(1.00, 0.00, -0.00, -1.00, 769.9, 34.0)">t</text><text xml:space="preserve" font-family="AvenirNext-Regular" font-size="23.4" fill="#000000" transform="matrix(1.00, 0.00, -0.00, -1.00, 777.3, 34.0)">e</text><text xml:space="preserve" font-family="AvenirNext-Regular" font-size="23.4" fill="#000000" transform="matrix(1.00, 0.00, -0.00, -1.00, 790.7, 34.0)">d</text><text xml:space="preserve" font-family="AvenirNext-Regular" font-size="23.4" fill="#000000" transform="matrix(1.00, 0.00, -0.00, -1.00, 805.6, 34.0)"> </text><text xml:space="preserve" font-family="AvenirNext-Regular" font-size="23.4" fill="#000000" transform="matrix(1.00, 0.00, -0.00, -1.00, 811.4, 34.0)">i</text><text xml:space="preserve" font-family="AvenirNext-Regular" font-size="23.4" fill="#000000" transform="matrix(1.00, 0.00, -0.00, -1.00, 817.3, 34.0)">n</text><text xml:space="preserve" font-family="AvenirNext-Regular" font-size="23.4" fill="#000000" transform="matrix(1.00, 0.00, -0.00, -1.00, 830.9, 34.0)"> </text><text xml:space="preserve" font-family="AvenirNext-Regular" font-size="23.4" fill="#000000" transform="matrix(1.00, 0.00, -0.00, -1.00, 18.0, 2.0)">V</text><text xml:space="preserve" font-family="AvenirNext-Regular" font-size="23.4" fill="#000000" transform="matrix(1.00, 0.00, -0.00, -1.00, 32.6, 2.0)">I</text><text xml:space="preserve" font-family="AvenirNext-Regular" font-size="23.4" fill="#000000" transform="matrix(1.00, 0.00, -0.00, -1.00, 38.7, 2.0)">S</text><text xml:space="preserve" font-family="AvenirNext-Regular" font-size="23.4" fill="#000000" transform="matrix(1.00, 0.00, -0.00, -1.00, 51.9, 2.0)">I</text><text xml:space="preserve" font-family="AvenirNext-Regular" font-size="23.4" fill="#000000" transform="matrix(1.00, 0.00, -0.00, -1.00, 57.9, 2.0)">B</text><text xml:space="preserve" font-family="AvenirNext-Regular" font-size="23.4" fill="#000000" transform="matrix(1.00, 0.00, -0.00, -1.00, 72.8, 2.0)">L</text><text xml:space="preserve" font-family="AvenirNext-Regular" font-size="23.4" fill="#000000" transform="matrix(1.00, 0.00, -0.00, -1.00, 84.8, 2.0)">E</text><text xml:space="preserve" font-family="AvenirNext-Regular" font-size="23.4" fill="#000000" transform="matrix(1.00, 0.00, -0.00, -1.00, 98.6, 2.0)"> </text><text xml:space="preserve" font-family="AvenirNext-Regular" font-size="23.4" fill="#000000" transform="matrix(1.00, 0.00, -0.00, -1.00, 104.5, 2.0)">P</text><text xml:space="preserve" font-family="AvenirNext-Regular" font-size="23.4" fill="#000000" transform="matrix(1.00, 0.00, -0.00, -1.00, 116.6, 2.0)">A</text><text xml:space="preserve" font-family="AvenirNext-Regular" font-size="23.4" fill="#000000" transform="matrix(1.00, 0.00, -0.00, -1.00, 132.6, 2.0)">G</text><text xml:space="preserve" font-family="AvenirNext-Regular" font-size="23.4" fill="#000000" transform="matrix(1.00, 0.00, -0.00, -1.00, 150.8, 2.0)">E</text><text xml:space="preserve" font-family="AvenirNext-Regular" font-size="23.4" fill="#000000" transform="matrix(1.00, 0.00, -0.00, -1.00, 164.7, 2.0)"> </text><text xml:space="preserve" font-family="AvenirNext-Regular" font-size="23.4" fill="#000000" transform="matrix(1.00, 0.00, -0.00, -1.00, 170.5, 2.0)">C</text><text xml:space="preserve" font-family="AvenirNext-Regular" font-size="23.4" fill="#000000" transform="matrix(1.00, 0.00, -0.00, -1.00, 187.1, 2.0)">O</text><text xml:space="preserve" font-family="AvenirNext-Regular" font-size="23.4" fill="#000000" transform="matrix(1.00, 0.00, -0.00, -1.00, 207.0, 2.0)">P</text><text xml:space="preserve" font-family="AvenirNext-Regular" font-size="23.4" fill="#000000" transform="matrix(1.00, 0.00, -0.00, -1.00, 220.1, 2.0)">Y</text><text xml:space="preserve" font-family="AvenirNext-Regular" font-size="23.4" fill="#000000" transform="matrix(1.00, 0.00, -0.00, -1.00, 233.7, 2.0)"> </text><text xml:space="preserve" font-family="AvenirNext-Regular" font-size="23.4" fill="#000000" transform="matrix(1.00, 0.00, -0.00, -1.00, 239.5, 2.0)">–</text><text xml:space="preserve" font-family="AvenirNext-Regular" font-size="23.4" fill="#000000" transform="matrix(1.00, 0.00, -0.00, -1.00, 248.9, 2.0)"> </text><text xml:space="preserve" font-family="AvenirNext-Regular" font-size="23.4" fill="#000000" transform="matrix(1.00, 0.00, -0.00, -1.00, 254.7, 2.0)">i</text><text xml:space="preserve" font-family="AvenirNext-Regular" font-size="23.4" fill="#000000" transform="matrix(1.00, 0.00, -0.00, -1.00, 260.6, 2.0)">t</text><text xml:space="preserve" font-family="AvenirNext-Regular" font-size="23.4" fill="#000000" transform="matrix(1.00, 0.00, -0.00, -1.00, 268.0, 2.0)"> </text><text xml:space="preserve" font-family="AvenirNext-Regular" font-size="23.4" fill="#000000" transform="matrix(1.00, 0.00, -0.00, -1.00, 273.8, 2.0)">c</text><text xml:space="preserve" font-family="AvenirNext-Regular" font-size="23.4" fill="#000000" transform="matrix(1.00, 0.00, -0.00, -1.00, 285.5, 2.0)">a</text><text xml:space="preserve" font-family="AvenirNext-Regular" font-size="23.4" fill="#000000" transform="matrix(1.00, 0.00, -0.00, -1.00, 298.0, 2.0)">l</text><text xml:space="preserve" font-family="AvenirNext-Regular" font-size="23.4" fill="#000000" transform="matrix(1.00, 0.00, -0.00, -1.00, 303.9, 2.0)">l</text><text xml:space="preserve" font-family="AvenirNext-Regular" font-size="23.4" fill="#000000" transform="matrix(1.00, 0.00, -0.00, -1.00, 309.8, 2.0)">s</text><text xml:space="preserve" font-family="AvenirNext-Regular" font-size="23.4" fill="#000000" transform="matrix(1.00, 0.00, -0.00, -1.00, 320.2, 2.0)"> </text><text xml:space="preserve" font-family="AvenirNext-Regular" font-size="23.4" fill="#000000" transform="matrix(1.00, 0.00, -0.00, -1.00, 326.1, 2.0)">t</text><text xml:space="preserve" font-family="AvenirNext-Regular" font-size="23.4" fill="#000000" transform="matrix(1.00, 0.00, -0.00, -1.00, 333.5, 2.0)">h</text><text xml:space="preserve" font-family="AvenirNext-Regular" font-size="23.4" fill="#000000" transform="matrix(1.00, 0.00, -0.00, -1.00, 347.1, 2.0)">i</text><text xml:space="preserve" font-family="AvenirNext-Regular" font-size="23.4" fill="#000000" transform="matrix(1.00, 0.00, -0.00, -1.00, 353.0, 2.0)">s</text><text xml:space="preserve" font-family="AvenirNext-Regular" font-size="23.4" fill="#000000" transform="matrix(1.00, 0.00, -0.00, -1.00, 363.4, 2.0)"> </text><text xml:space="preserve" font-family="AvenirNext-Regular" font-size="23.4" fill="#000000" transform="matrix(1.00, 0.00, -0.00, -1.00, 369.2, 2.0)">M</text><text xml:space="preserve" font-family="AvenirNext-Regular" font-size="23.4" fill="#000000" transform="matrix(1.00, 0.00, -0.00, -1.00, 389.9, 2.0)">A</text><text xml:space="preserve" font-family="AvenirNext-Regular" font-size="23.4" fill="#000000" transform="matrix(1.00, 0.00, -0.00, -1.00, 406.3, 2.0)">I</text><text xml:space="preserve" font-family="AvenirNext-Regular" font-size="23.4" fill="#000000" transform="matrix(1.00, 0.00, -0.00, -1.00, 412.4, 2.0)">N</text><text xml:space="preserve" font-family="AvenirNext-Regular" font-size="23.4" fill="#000000" transform="matrix(1.00, 0.00, -0.00, -1.00, 430.3, 2.0)"> </text><text xml:space="preserve" font-family="AvenirNext-Regular" font-size="23.4" fill="#000000" transform="matrix(1.00, 0.00, -0.00, -1.00, 436.1, 2.0)">C</text><text xml:space="preserve" font-family="AvenirNext-Regular" font-size="23.4" fill="#000000" transform="matrix(1.00, 0.00, -0.00, -1.00, 452.7, 2.0)">O</text><text xml:space="preserve" font-family="AvenirNext-Regular" font-size="23.4" fill="#000000" transform="matrix(1.00, 0.00, -0.00, -1.00, 472.6, 2.0)">N</text><text xml:space="preserve" font-family="AvenirNext-Regular" font-size="23.4" fill="#000000" transform="matrix(1.00, 0.00, -0.00, -1.00, 490.5, 2.0)">T</text><text xml:space="preserve" font-family="AvenirNext-Regular" font-size="23.4" fill="#000000" transform="matrix(1.00, 0.00, -0.00, -1.00, 503.8, 2.0)">E</text><text xml:space="preserve" font-family="AvenirNext-Regular" font-size="23.4" fill="#000000" transform="matrix(1.00, 0.00, -0.00, -1.00, 517.7, 2.0)">N</text><text xml:space="preserve" font-family="AvenirNext-Regular" font-size="23.4" fill="#000000" transform="matrix(1.00, 0.00, -0.00, -1.00, 535.5, 2.0)">T</text><text xml:space="preserve" font-family="AvenirNext-Regular" font-size="23.4" fill="#000000" transform="matrix(1.00, 0.00, -0.00, -1.00, 547.1, 2.0)">.</text></g></svg>