<?xml version="1.0" encoding="UTF-8" standalone="no"?><svg xmlns="http://www.w3.org/2000/svg" xmlns:xlink="http://www.w3.org/1999/xlink" clip-rule="evenodd" stroke-miterlimit="4.00" viewBox="0 0 602 60"><desc>SVG generated by Keynote</desc><defs></defs><g transform="matrix(1.00, 0.00, -0.00, -1.00, 0.0, 60.0)"><path d="M 5.6 54.7 L 596.9 54.7 L 596.9 5.7 L 5.6 5.7 Z M 5.6 54.7 " fill="#FEFFFE"></path><path d="M 588.7 58.6 C 589.6 58.6 590.6 58.5 592.2 58.5 C 591.5 58.5 590.8 58.4 590.8 58.3 C 589.5 58.3 587.7 58.4 584.9 58.4 C 585.1 58.4 586.5 58.4 587.4 58.4 C 588.6 58.4 588.4 58.5 588.7 58.6 C 588.7 58.6 588.7 58.6 588.7 58.6 Z M 325.0 2.4 C 327.4 2.4 324.8 2.2 323.9 2.2 C 323.7 2.2 323.6 2.3 322.7 2.2 C 322.5 2.0 324.6 2.0 326.2 1.9 C 332.8 2.0 327.9 2.4 325.0 2.4 C 325.0 2.4 325.0 2.4 325.0 2.4 Z M 7.4 2.6 C 2.2 2.5 8.0 2.8 8.9 2.9 C 6.6 3.0 8.9 3.3 5.8 3.4 C 5.1 3.2 3.9 3.2 3.2 3.0 C 4.6 3.0 6.5 3.1 6.7 3.0 C 5.4 3.0 3.8 3.0 2.8 3.0 C 2.8 3.4 2.8 3.7 2.7 3.8 C 2.7 3.4 2.7 3.1 2.7 2.9 C 4.6 2.8 3.5 2.7 2.5 2.6 C 2.4 2.9 2.4 3.3 2.3 3.4 C 2.3 3.1 2.3 2.8 2.3 2.5 C 5.2 2.5 6.1 2.3 7.4 2.6 C 7.4 2.6 7.4 2.6 7.4 2.6 Z M 213.0 57.4 C 211.5 57.4 210.2 57.4 210.5 57.2 C 212.1 57.2 213.2 57.3 214.1 57.3 C 214.3 57.2 213.8 57.1 215.2 57.1 C 216.9 57.3 216.2 57.6 215.4 57.7 C 215.2 57.5 210.0 57.6 213.0 57.4 C 213.0 57.4 213.0 57.4 213.0 57.4 Z M 345.9 57.0 C 350.4 57.1 345.9 56.6 350.5 56.8 C 350.5 57.0 351.3 57.2 348.3 57.2 C 348.0 57.1 346.3 57.1 345.9 57.0 C 345.9 57.0 345.9 57.0 345.9 57.0 Z M 142.4 4.4 C 142.3 4.2 139.1 4.3 139.8 4.1 C 141.4 4.1 142.9 4.1 144.5 4.1 C 144.9 4.3 144.4 4.4 142.4 4.4 C 142.4 4.4 142.4 4.4 142.4 4.4 Z M 4.7 35.7 C 4.5 41.0 4.8 46.9 4.6 45.2 C 4.4 47.2 3.9 41.1 4.2 41.4 C 4.5 40.9 4.7 31.3 4.7 35.7 C 4.7 35.7 4.7 35.7 4.7 35.7 Z M 297.8 6.6 C 292.2 6.4 293.3 7.1 289.7 6.7 C 290.9 6.7 291.5 6.6 291.9 6.6 C 291.0 6.6 289.7 6.6 289.7 6.5 C 292.3 6.5 295.5 6.4 297.8 6.6 C 297.8 6.6 297.8 6.6 297.8 6.6 Z M 508.0 58.0 C 507.1 58.0 506.7 58.1 506.9 58.2 C 503.2 58.1 503.5 58.3 501.0 58.2 C 500.6 57.9 503.8 58.0 506.8 58.0 C 506.8 58.0 507.7 57.9 508.0 58.0 C 508.0 58.0 508.0 58.0 508.0 58.0 Z M 403.6 57.2 C 403.9 57.4 406.1 57.4 402.7 57.5 C 398.6 57.2 401.9 57.0 405.8 56.8 C 405.7 56.7 405.7 56.6 405.6 56.5 C 404.0 56.5 402.9 56.5 402.0 56.4 C 401.5 56.8 398.5 56.1 392.5 56.4 C 395.3 56.2 392.0 55.9 395.9 56.0 C 394.7 55.8 397.3 55.8 396.8 55.6 C 395.2 55.8 391.2 55.7 392.3 56.0 C 390.3 56.0 388.6 56.0 387.6 56.0 C 385.9 55.7 391.3 55.9 389.7 55.6 C 388.5 55.6 388.2 55.6 387.3 55.6 C 387.1 55.7 387.7 55.8 386.3 55.8 C 382.5 55.7 386.8 55.5 381.4 55.5 C 381.2 55.6 382.8 55.7 382.8 55.8 C 380.5 55.9 380.4 55.7 378.1 55.9 C 377.6 55.7 379.7 55.7 378.0 55.6 C 376.7 56.0 372.9 55.4 369.8 55.7 C 372.4 56.2 369.1 55.6 366.5 56.1 C 365.7 56.0 367.7 55.6 365.0 55.6 C 366.3 56.3 355.7 56.1 364.5 56.6 C 360.0 56.6 358.8 57.1 362.4 57.2 C 354.5 57.0 357.2 57.4 354.3 57.4 C 351.3 57.4 355.8 57.3 354.1 57.1 C 357.3 57.1 356.4 56.9 358.8 57.1 C 358.7 57.0 359.3 56.9 359.9 56.8 C 356.8 57.0 352.8 56.6 354.9 56.4 C 356.6 56.4 355.2 56.7 357.4 56.7 C 356.4 56.3 359.7 56.7 359.7 56.5 C 358.0 56.2 362.5 55.9 358.1 55.9 C 358.2 56.0 358.2 56.1 358.3 56.3 C 357.2 56.3 356.0 56.3 354.9 56.3 C 353.7 56.0 354.4 55.9 353.3 55.8 C 351.4 55.8 350.4 55.9 349.9 55.9 C 352.3 56.0 355.3 56.2 351.3 56.3 C 352.5 55.8 345.6 56.2 348.7 55.9 C 344.2 55.7 342.3 56.1 341.6 55.8 C 339.4 55.8 341.0 56.1 338.2 56.0 C 333.8 55.8 334.7 56.2 328.8 56.0 C 328.3 56.3 328.2 55.9 326.3 55.9 C 326.4 56.0 326.5 56.1 326.6 56.3 C 324.4 56.1 319.6 55.9 314.8 56.2 C 313.5 56.1 314.3 55.9 311.1 56.0 C 307.9 56.3 303.6 55.9 299.6 56.3 C 299.2 56.1 296.3 56.1 294.9 56.2 C 294.1 56.1 296.0 55.8 293.4 55.8 C 291.8 56.0 294.9 56.1 291.3 56.2 C 291.5 55.9 288.0 56.4 287.7 56.1 C 288.8 56.0 290.1 56.0 291.2 55.9 C 289.6 55.9 290.0 55.7 288.7 55.7 C 289.1 56.0 286.1 55.8 285.1 55.7 C 285.3 55.9 285.0 56.0 284.1 56.0 C 282.1 56.0 280.5 56.0 279.5 56.1 C 276.8 56.0 280.9 55.9 278.2 55.9 C 277.2 56.5 274.3 55.8 269.0 56.2 C 267.6 56.0 265.3 55.9 261.7 55.9 C 261.5 56.1 265.2 56.0 265.4 56.1 C 260.2 56.1 266.4 56.3 263.0 56.3 C 255.7 56.1 250.8 56.1 243.0 55.9 C 243.2 56.1 237.1 56.3 237.2 56.2 C 238.8 56.2 233.8 55.9 231.3 55.9 C 230.7 56.3 227.0 56.6 226.8 56.8 C 225.8 56.6 226.0 56.6 225.4 56.3 C 221.0 56.1 218.9 56.5 216.0 56.1 C 216.3 56.3 214.2 56.4 212.5 56.4 C 212.9 56.2 213.9 56.1 214.8 55.9 C 212.5 56.0 212.1 55.9 210.1 55.9 C 208.2 56.6 204.5 55.7 203.1 56.4 C 199.8 56.4 200.3 56.1 197.2 56.1 C 197.4 56.2 197.0 56.4 196.1 56.4 C 198.2 56.4 199.6 56.2 200.8 56.4 C 196.3 56.5 209.7 57.1 202.3 57.4 C 202.0 57.3 202.7 57.1 201.1 57.1 C 196.8 57.2 199.5 57.4 201.2 57.4 C 198.3 57.5 195.3 57.4 197.7 57.7 C 191.2 57.8 195.3 57.6 192.9 57.5 C 181.3 57.7 166.6 57.8 150.5 57.5 C 150.0 57.8 141.5 57.5 138.7 57.3 C 134.2 57.6 129.5 57.6 128.1 57.3 C 127.4 57.6 122.6 57.1 122.1 57.4 C 124.1 57.4 125.4 57.5 123.4 57.5 C 116.9 57.4 107.1 57.3 103.3 57.5 C 101.0 57.2 96.8 57.3 93.9 57.5 C 93.4 57.3 95.7 57.3 93.9 57.2 C 93.3 57.4 87.3 57.6 85.7 57.4 C 87.6 57.4 89.6 57.1 86.8 57.1 C 86.9 57.2 83.6 57.2 84.5 57.4 C 80.6 57.3 78.3 57.4 75.0 57.3 C 77.7 57.3 79.3 57.2 79.7 57.0 C 77.4 57.1 75.7 57.2 73.9 57.0 C 74.4 57.4 70.7 57.1 66.9 57.3 C 65.8 57.2 65.0 57.1 62.0 57.1 C 60.6 57.3 66.8 57.3 63.3 57.4 C 63.3 57.3 60.1 57.1 60.9 57.4 C 56.9 57.3 54.7 57.5 51.5 57.2 C 55.6 57.3 52.5 57.0 51.5 56.9 C 50.6 56.9 49.2 56.9 49.2 57.0 C 49.2 57.1 51.3 57.1 51.5 57.2 C 48.6 57.0 47.8 57.5 46.8 57.2 C 48.1 57.2 48.3 57.1 46.8 57.1 C 46.5 57.5 38.1 57.2 40.9 57.0 C 40.9 57.1 44.1 57.1 44.5 57.0 C 43.6 56.9 38.7 57.0 39.8 56.7 C 42.5 56.7 42.3 56.9 45.6 56.8 C 45.9 56.7 47.9 56.6 49.1 56.5 C 43.9 56.5 42.7 56.8 42.0 56.5 C 39.7 56.5 41.1 56.8 37.3 56.7 C 32.0 56.7 36.4 56.4 35.0 56.4 C 30.2 56.5 31.7 56.8 33.8 57.1 C 30.0 57.1 28.9 57.2 24.4 57.2 C 24.6 57.0 25.2 56.9 26.8 56.8 C 26.9 56.9 30.7 57.1 30.4 56.9 C 30.0 56.6 26.9 56.4 22.1 56.4 C 23.2 56.7 23.3 56.5 18.5 56.5 C 19.3 56.9 16.2 56.4 16.1 56.7 C 16.4 56.8 18.1 56.8 19.7 56.7 C 19.6 56.9 19.0 57.0 17.4 57.1 C 16.4 57.0 15.6 57.1 12.7 57.0 C 12.5 56.8 14.5 56.7 15.0 56.6 C 13.4 56.6 13.0 56.7 11.4 56.8 C 10.0 56.5 10.2 56.2 10.3 55.9 C 12.1 55.8 15.0 55.8 12.7 55.6 C 19.5 55.6 12.3 56.0 15.0 56.0 C 17.8 55.7 16.2 56.1 20.8 56.1 C 22.2 56.1 22.6 56.0 23.2 55.9 C 22.9 55.9 20.2 55.6 23.2 55.6 C 23.9 55.8 25.5 55.9 27.9 55.9 C 27.9 55.8 23.0 55.7 27.9 55.7 C 30.3 55.7 28.1 56.1 31.5 56.0 C 31.5 55.9 32.4 55.9 32.6 55.9 C 27.8 55.9 33.5 55.7 30.3 55.5 C 34.4 55.4 31.0 55.8 33.7 55.8 C 33.9 55.6 38.3 55.9 38.4 55.6 C 36.7 55.8 33.3 55.7 33.7 55.5 C 36.8 55.5 51.1 55.3 45.5 55.7 C 47.6 55.5 58.0 55.2 57.2 55.4 C 54.1 55.4 54.2 55.6 53.8 55.7 C 59.6 55.4 62.6 55.6 69.0 55.3 C 62.0 55.3 67.2 54.9 63.1 54.7 C 61.2 54.7 58.7 54.6 58.3 54.7 C 59.1 55.0 62.0 54.9 63.1 54.7 C 63.1 55.0 63.1 55.2 63.1 55.4 C 55.5 55.1 51.4 55.4 47.8 55.3 C 50.9 55.3 41.9 55.0 45.5 54.9 C 47.0 55.1 50.6 55.1 53.7 55.1 C 53.7 55.1 53.7 55.0 53.7 54.9 C 55.1 54.9 57.0 54.9 57.1 54.8 C 52.9 54.9 50.6 54.6 47.8 54.8 C 47.8 54.8 47.8 54.7 47.8 54.7 C 47.1 54.7 46.4 54.7 46.6 54.6 C 48.0 54.6 49.9 54.6 50.1 54.5 C 47.1 54.5 46.5 54.2 43.0 54.2 C 43.8 53.9 39.2 53.6 44.2 53.5 C 45.1 53.7 47.8 53.8 47.7 54.0 C 49.2 54.0 52.2 54.0 53.6 53.9 C 52.1 53.7 49.2 53.6 48.9 53.4 C 51.3 53.3 53.2 53.2 54.7 53.5 C 49.7 53.6 57.5 53.7 59.5 54.0 C 58.9 53.8 57.7 53.7 57.0 53.6 C 60.9 53.6 62.8 53.8 63.0 53.5 C 67.6 53.4 66.6 53.6 69.9 53.6 C 67.7 53.3 72.1 53.5 69.9 53.2 C 75.4 53.1 71.5 53.5 73.5 53.5 C 75.2 53.5 75.4 53.3 77.0 53.3 C 79.5 53.5 84.5 53.5 85.3 53.8 C 87.4 53.8 87.8 53.9 89.9 53.9 C 90.5 53.8 91.2 53.7 92.2 53.6 C 92.5 53.7 94.2 53.8 94.6 53.7 C 88.5 53.3 90.2 53.3 83.9 53.1 C 83.5 53.2 82.5 53.2 83.9 53.3 C 79.6 53.4 78.3 53.2 74.6 53.2 C 74.1 53.0 73.3 52.7 69.9 52.9 C 70.6 52.7 69.7 52.6 71.1 52.5 C 72.9 52.7 75.4 52.7 78.1 52.8 C 78.3 52.7 77.8 52.6 79.2 52.6 C 80.4 52.7 82.4 52.8 84.0 52.7 C 84.0 52.8 83.4 52.8 82.7 52.9 C 88.6 53.0 86.5 52.7 90.9 52.8 C 90.2 52.7 87.4 52.7 89.7 52.5 C 93.7 52.4 94.7 52.6 96.7 52.7 C 97.1 52.6 96.8 52.5 98.0 52.5 C 100.8 52.7 91.8 53.0 96.8 53.3 C 97.1 53.1 102.0 53.2 102.8 53.3 C 101.2 53.5 98.3 53.2 98.1 53.4 C 107.0 53.4 98.4 53.8 107.5 53.9 C 107.5 53.8 107.5 53.7 107.5 53.6 C 103.8 53.6 103.7 53.4 103.9 53.2 C 100.7 53.1 99.4 52.8 96.8 53.0 C 97.7 52.5 99.4 53.0 102.7 53.0 C 102.5 52.8 99.6 52.7 99.1 52.5 C 106.6 52.7 108.2 52.4 115.4 52.7 C 113.7 52.5 119.4 52.7 118.9 52.5 C 112.7 52.6 115.1 51.9 114.1 51.8 C 110.0 51.8 111.9 52.3 109.6 52.4 C 108.4 52.2 108.9 52.1 109.4 51.7 C 113.1 51.8 112.5 51.7 115.3 51.6 C 117.8 51.8 119.9 52.3 116.6 52.4 C 117.3 52.4 122.0 52.2 122.4 52.4 C 117.9 52.4 122.9 52.6 120.2 52.7 C 123.8 52.8 130.0 52.5 134.2 52.8 C 133.9 52.6 135.4 52.6 135.3 52.4 C 131.0 52.7 130.1 52.1 125.9 52.1 C 127.7 52.1 126.7 51.9 125.8 51.9 C 130.0 52.0 132.2 51.8 135.2 52.0 C 135.2 52.0 135.2 51.9 135.2 51.8 C 140.2 52.0 139.5 51.9 143.3 51.7 C 144.8 51.9 142.9 52.3 142.4 52.5 C 144.2 52.4 150.9 52.5 147.0 52.2 C 151.0 52.2 150.0 52.5 154.0 52.5 C 154.0 52.3 150.3 52.3 151.6 52.0 C 155.3 51.9 153.2 52.2 156.3 52.0 C 156.4 52.2 156.6 52.4 159.8 52.4 C 157.5 52.2 160.1 52.3 161.0 52.2 C 159.5 52.2 158.2 52.1 157.4 52.0 C 163.2 52.1 164.4 52.1 169.0 52.0 C 167.4 52.3 170.0 52.4 166.9 52.5 C 169.8 52.3 173.5 52.7 175.1 52.5 C 173.2 52.4 170.3 52.4 169.1 52.3 C 178.4 52.2 183.2 51.9 191.3 52.3 C 189.9 52.3 188.0 52.3 187.8 52.4 C 188.7 52.4 190.2 52.4 190.2 52.4 C 187.3 52.4 184.6 52.4 183.2 52.5 C 180.6 52.4 184.6 52.3 181.9 52.3 C 181.5 52.4 176.6 52.3 178.5 52.6 C 182.9 52.4 187.2 52.6 189.2 53.0 C 193.2 52.5 189.3 52.6 193.6 52.1 C 193.6 52.2 194.6 52.3 196.0 52.3 C 194.5 52.0 200.0 52.2 200.6 52.2 C 198.6 52.3 190.9 52.5 195.0 52.8 C 193.0 52.2 204.0 53.0 201.8 52.5 C 206.8 52.5 205.1 52.8 207.8 52.5 C 207.9 52.6 207.6 52.7 209.0 52.7 C 210.3 52.7 210.8 52.7 211.3 52.6 C 204.3 52.4 206.3 52.1 201.7 52.1 C 202.5 52.1 203.2 52.1 202.9 52.0 C 202.9 52.0 203.0 51.9 204.0 51.9 C 204.5 52.3 207.7 51.9 208.8 52.1 C 207.4 52.1 206.0 52.1 206.5 52.3 C 212.3 52.2 211.4 52.5 219.4 52.7 C 217.0 52.5 220.2 52.5 222.9 52.4 C 226.8 52.5 225.4 52.9 230.1 52.8 C 229.4 52.2 235.0 52.9 240.5 52.5 C 240.0 52.8 247.3 52.9 248.7 52.7 C 249.0 52.8 251.6 52.7 253.4 52.7 C 253.9 52.9 251.8 53.0 253.5 53.0 C 255.1 52.9 253.5 52.7 255.7 52.7 C 258.2 52.7 257.9 53.0 261.6 53.0 C 261.6 52.8 259.6 52.8 261.5 52.7 C 264.8 52.8 267.8 52.8 264.9 52.5 C 269.8 52.5 267.6 52.9 272.2 52.9 C 270.8 52.8 270.8 52.7 273.2 52.7 C 275.0 52.9 275.2 53.0 275.8 53.1 C 277.1 52.9 276.6 52.8 280.4 52.9 C 280.3 52.8 280.3 52.7 280.2 52.6 C 282.0 52.6 284.4 52.6 284.9 52.7 C 281.7 52.6 282.7 52.8 281.5 52.9 C 284.7 52.9 291.0 53.2 286.2 52.9 C 290.6 52.8 288.6 53.1 292.1 53.1 C 289.8 52.8 292.0 53.0 295.6 53.0 C 295.1 52.7 298.0 52.9 300.2 52.9 C 299.8 52.7 300.3 52.6 302.3 52.6 C 302.3 52.7 303.7 52.8 306.0 52.7 C 305.9 52.6 300.9 52.5 305.8 52.5 C 308.2 52.6 308.3 52.9 312.0 52.9 C 312.9 53.2 308.7 53.1 309.8 53.3 C 312.6 53.1 313.6 53.3 318.0 53.3 C 316.0 52.9 326.3 52.7 321.1 52.5 C 322.6 52.5 324.5 52.2 325.7 52.4 C 324.2 52.5 327.1 52.7 327.0 52.7 C 329.1 52.7 333.9 52.8 333.9 52.7 C 329.5 52.7 329.4 52.5 328.0 52.3 C 334.4 52.2 340.1 52.3 339.8 52.6 C 339.8 52.5 340.7 52.5 340.9 52.4 C 338.6 52.5 336.9 52.1 339.5 52.0 C 339.1 52.3 341.1 52.4 343.2 52.4 C 343.1 52.2 351.9 52.5 350.1 52.2 C 346.8 52.4 343.8 52.0 346.4 51.9 C 348.6 52.1 353.4 52.2 352.5 52.4 C 353.7 52.3 354.8 52.3 355.9 52.2 C 356.8 52.0 354.2 52.0 354.5 51.8 C 356.2 51.8 358.8 51.8 359.2 51.9 C 354.6 51.9 361.7 52.0 357.0 52.2 C 360.0 52.2 360.7 52.3 363.0 52.3 C 363.0 52.3 363.9 52.2 364.1 52.2 C 362.1 52.3 360.0 52.2 360.4 51.9 C 364.6 51.9 364.1 52.2 367.6 52.2 C 368.5 52.0 373.1 51.7 375.6 51.9 C 370.9 51.9 376.0 52.0 373.4 52.1 C 369.0 51.9 368.1 52.2 366.6 52.4 C 368.5 52.6 372.1 52.7 372.4 52.3 C 370.1 52.3 370.2 52.5 368.9 52.5 C 369.0 52.4 369.6 52.2 371.1 52.2 C 373.2 52.4 377.4 52.2 374.8 52.5 C 377.6 52.4 381.1 52.6 384.0 52.4 C 380.6 52.4 378.0 52.3 376.9 52.1 C 379.7 52.0 382.7 52.3 382.7 52.1 C 382.2 51.9 377.7 52.0 376.7 51.8 C 380.2 51.5 386.2 52.2 381.3 51.7 C 383.4 51.8 386.2 51.7 387.2 51.9 C 384.7 51.9 387.7 52.2 388.7 52.3 C 390.9 52.3 392.6 52.2 393.3 52.1 C 390.0 52.2 387.3 51.9 389.6 51.9 C 390.3 52.0 390.8 51.8 391.8 51.8 C 392.1 51.9 395.8 51.8 396.6 51.9 C 396.3 51.8 394.6 51.8 394.2 51.7 C 396.3 51.6 399.2 51.3 401.0 51.6 C 399.7 51.6 397.7 51.6 397.7 51.7 C 403.9 52.1 406.1 52.4 413.4 52.5 C 412.5 52.5 412.0 52.6 412.3 52.7 C 416.9 52.7 420.0 52.8 419.5 53.0 C 422.3 52.9 423.7 52.8 425.1 52.7 C 422.0 52.5 421.2 52.8 419.2 52.6 C 420.3 52.5 416.6 52.1 415.3 51.9 C 410.4 52.2 409.8 51.8 404.8 51.9 C 406.1 51.7 401.0 51.9 402.3 51.6 C 407.3 52.0 411.7 51.7 418.7 51.9 C 418.0 52.1 417.3 52.2 420.2 52.4 C 424.7 52.5 422.3 52.1 426.0 52.2 C 427.6 52.4 425.5 52.4 427.4 52.5 C 428.6 52.4 432.0 52.4 433.3 52.7 C 428.5 52.6 434.4 52.9 431.3 53.0 C 432.9 53.0 433.8 53.0 434.8 53.1 C 430.0 52.8 439.3 52.7 435.6 52.5 C 442.0 52.4 436.5 53.1 441.8 53.1 C 439.1 52.9 442.4 52.8 446.3 52.8 C 447.5 53.1 451.5 53.1 454.8 53.2 C 453.0 53.0 451.7 53.0 454.6 52.9 C 452.9 52.8 450.2 52.8 448.8 52.9 C 448.7 52.8 448.1 52.7 447.3 52.7 C 451.2 52.6 449.5 52.5 450.7 52.4 C 451.9 52.5 454.7 52.5 455.5 52.7 C 455.5 52.6 456.5 52.6 456.5 52.5 C 451.6 52.5 457.1 52.2 454.0 52.1 C 451.8 52.1 453.4 52.4 450.6 52.3 C 447.8 52.0 452.5 52.0 453.7 51.8 C 451.3 51.6 448.8 51.9 447.8 51.6 C 450.5 51.3 455.5 51.5 459.4 51.6 C 458.9 51.3 465.9 51.7 466.2 51.3 C 466.8 51.4 467.6 51.5 468.7 51.5 C 469.6 51.3 471.1 51.6 472.2 51.6 C 472.2 51.5 471.8 51.4 470.9 51.3 C 475.7 51.4 476.9 51.4 482.4 51.3 C 483.5 51.5 484.6 51.6 485.2 51.8 C 483.9 51.8 482.7 51.9 481.8 51.9 C 489.6 52.0 484.0 51.3 489.8 51.7 C 489.5 51.6 485.5 51.3 488.3 51.2 C 493.4 51.5 500.1 51.2 500.5 51.9 C 505.0 52.2 507.6 51.7 509.9 52.0 C 511.2 52.0 511.6 51.9 512.1 51.9 C 510.7 51.7 508.8 51.6 507.1 51.5 C 504.6 51.6 503.3 51.4 506.1 51.7 C 502.3 51.7 501.1 51.6 498.9 51.5 C 504.1 51.3 509.2 51.5 509.1 51.1 C 511.1 51.3 512.6 51.5 514.2 51.6 C 514.6 51.4 520.6 51.4 521.3 51.6 C 517.1 51.5 513.2 51.9 516.9 52.0 C 526.8 51.8 532.8 52.3 541.4 52.0 C 541.8 52.1 541.2 52.3 542.8 52.3 C 542.7 52.2 543.0 52.1 543.8 52.0 C 546.6 52.1 548.2 52.2 552.0 52.1 C 552.0 52.3 552.7 52.5 554.8 52.6 C 555.7 52.3 559.0 51.9 561.3 51.9 C 559.0 52.0 562.2 52.3 563.8 52.3 C 562.2 51.9 574.6 52.5 570.8 52.2 C 575.6 52.2 577.8 52.3 578.0 52.4 C 579.7 52.4 580.9 52.3 582.5 52.3 C 583.9 52.6 591.9 52.4 593.2 52.5 C 590.3 52.4 590.1 52.8 592.3 52.7 C 592.7 52.7 593.6 52.6 594.7 52.6 C 594.6 49.9 594.5 46.1 594.6 45.2 C 594.7 45.7 594.9 46.4 595.0 49.8 C 595.0 44.1 594.6 43.9 594.4 41.9 C 594.7 42.3 594.5 39.6 594.4 38.7 C 594.6 37.0 594.5 38.9 594.7 38.9 C 594.8 36.9 594.9 36.2 594.9 33.6 C 594.6 34.2 594.8 31.3 594.8 30.3 C 594.6 29.9 594.5 28.4 594.5 26.1 C 594.9 29.2 594.9 12.3 594.6 16.5 C 594.4 13.3 594.9 12.9 594.9 8.7 C 594.8 8.5 594.8 8.1 594.8 7.8 C 594.8 6.9 594.8 6.1 594.6 7.9 C 594.6 7.9 594.6 7.9 594.6 7.9 C 591.0 8.0 593.5 7.7 588.9 7.8 C 590.5 8.1 584.6 7.7 585.2 8.1 C 583.7 7.6 579.5 8.2 576.1 7.9 C 576.0 7.9 575.0 7.9 574.7 8.0 C 574.0 8.1 579.1 8.2 575.7 8.2 C 571.9 8.1 574.2 8.0 573.7 7.9 C 563.0 8.0 550.1 7.9 538.8 7.8 C 540.1 7.9 539.9 8.0 537.5 8.0 C 534.6 7.5 521.1 7.8 519.0 7.9 C 517.9 7.6 510.9 7.9 509.8 7.8 C 511.1 7.8 513.9 7.5 511.1 7.5 C 509.0 7.8 506.8 7.6 503.9 7.9 C 502.8 7.5 494.3 7.9 498.3 7.4 C 496.7 7.4 495.9 7.3 495.0 7.3 C 494.7 7.6 493.0 7.5 495.9 7.7 C 488.4 7.5 486.4 7.7 480.7 7.5 C 479.6 7.7 484.1 7.8 480.5 7.8 C 480.6 7.8 480.6 7.7 480.6 7.7 C 479.4 7.7 478.9 7.8 478.4 7.7 C 478.7 7.6 480.6 7.6 480.9 7.3 C 478.0 7.4 476.2 7.1 475.1 7.3 C 479.0 7.3 476.0 7.8 473.8 7.5 C 476.0 7.4 464.6 7.5 460.9 7.7 C 459.2 7.4 464.9 7.6 464.5 7.4 C 457.7 7.5 458.3 7.4 457.4 7.7 C 453.8 7.6 452.5 7.4 448.1 7.6 C 445.6 7.5 449.7 7.4 447.1 7.4 C 445.4 7.4 444.7 7.6 442.3 7.6 C 436.3 7.1 421.3 7.9 414.5 7.1 C 417.3 7.3 413.5 7.5 409.7 7.4 C 409.5 7.4 410.0 7.2 408.7 7.2 C 408.9 7.4 407.6 7.5 405.1 7.4 C 404.9 7.4 405.4 7.2 404.0 7.2 C 402.9 7.5 399.9 7.2 398.1 7.4 C 397.3 7.1 402.4 7.2 402.8 7.1 C 396.9 6.9 395.7 7.2 391.2 7.1 C 393.6 7.0 389.6 6.8 388.9 6.7 C 389.9 7.0 386.2 7.1 388.8 7.3 C 387.1 7.3 384.4 7.3 384.1 7.2 C 385.0 7.2 386.5 7.2 386.5 7.1 C 384.4 7.2 381.7 6.9 380.6 7.1 C 382.1 7.2 383.0 7.2 382.9 7.4 C 382.3 7.5 381.6 7.6 380.5 7.6 C 383.9 7.0 374.2 7.3 373.6 7.4 C 372.8 7.1 372.2 7.1 372.6 6.9 C 368.5 6.9 369.0 7.1 366.6 7.2 C 367.3 6.9 368.2 6.7 364.5 6.6 C 365.2 6.9 360.6 6.8 361.9 7.2 C 352.2 7.3 350.3 6.9 344.4 7.0 C 344.3 7.1 346.1 7.1 344.4 7.1 C 341.7 7.1 339.3 7.0 337.5 6.8 C 336.0 7.0 338.1 7.1 336.3 7.1 C 332.0 6.9 333.1 6.6 329.4 6.4 C 324.7 6.6 326.4 6.5 323.5 6.7 C 324.8 6.7 326.4 6.9 324.6 6.9 C 321.8 6.7 320.7 6.4 320.0 6.3 C 322.1 6.3 323.7 6.4 324.7 6.4 C 325.4 6.2 328.2 6.3 325.9 6.1 C 328.8 6.2 332.1 6.2 336.5 6.2 C 335.0 5.9 340.2 6.1 338.8 5.8 C 334.0 5.9 332.9 5.7 328.3 5.8 C 329.3 6.1 324.5 5.9 323.6 5.8 C 323.6 6.0 320.4 6.0 321.2 6.2 C 317.6 6.2 317.7 6.0 314.2 6.1 C 314.0 6.0 314.4 5.9 313.1 5.8 C 311.8 6.1 310.7 5.8 309.5 5.8 C 310.3 6.0 305.2 5.9 304.8 6.1 C 306.2 6.1 308.2 6.1 308.4 6.2 C 302.7 6.1 307.2 6.4 308.4 6.6 C 308.1 6.5 310.2 6.1 310.7 6.3 C 305.9 6.5 317.4 6.7 313.0 6.6 C 309.4 6.6 309.6 6.8 306.0 6.7 C 301.6 6.3 306.8 6.1 302.4 5.7 C 299.8 5.9 298.0 5.9 297.8 6.1 C 297.2 6.0 296.5 5.9 295.5 5.8 C 294.3 6.0 298.9 6.1 295.5 6.2 C 293.6 6.1 295.7 5.8 291.9 5.8 C 290.3 6.0 296.5 6.1 293.1 6.2 C 289.4 5.8 293.9 6.3 289.7 6.3 C 289.3 6.3 288.6 6.2 287.3 6.2 C 287.0 6.1 287.6 6.0 286.1 5.9 C 285.3 6.3 284.5 5.8 281.4 5.8 C 279.7 6.1 284.6 6.0 283.7 6.2 C 280.2 6.0 278.1 6.3 276.8 6.2 C 279.6 6.0 272.3 6.1 272.0 5.8 C 272.9 6.1 271.3 6.0 267.3 6.2 C 267.0 5.8 262.5 6.1 261.4 5.8 C 260.8 5.9 259.7 6.0 259.2 6.1 C 260.5 6.1 261.9 6.1 261.5 6.2 C 260.3 6.2 259.2 6.2 257.9 6.2 C 256.0 6.1 260.9 5.5 253.1 5.6 C 254.1 5.9 250.8 6.0 248.7 6.1 C 248.9 6.4 251.7 6.1 252.1 6.2 C 249.5 6.4 246.7 6.2 245.1 6.1 C 240.6 6.2 235.2 6.1 228.7 6.2 C 227.2 6.0 234.1 6.0 229.8 5.8 C 227.9 5.9 228.9 6.1 226.4 6.0 C 228.4 5.0 208.7 5.8 207.3 5.4 C 206.6 5.6 200.9 5.5 201.6 5.8 C 205.3 5.5 208.0 5.9 209.9 6.0 C 213.4 5.9 206.6 5.8 209.8 5.7 C 210.2 5.8 215.0 5.7 214.6 5.9 C 209.6 5.9 217.3 6.2 213.6 6.4 C 208.9 6.4 199.7 6.6 201.8 6.3 C 201.8 6.4 203.9 6.4 204.1 6.3 C 198.8 6.2 195.8 6.4 193.7 6.6 C 191.2 6.4 182.0 6.7 184.3 6.6 C 183.4 6.4 189.9 6.6 188.9 6.4 C 179.2 6.3 179.1 6.5 172.6 6.3 C 174.8 6.6 166.1 6.8 166.8 6.6 C 166.7 6.4 164.7 6.2 160.9 6.5 C 161.4 6.2 159.3 6.2 157.2 6.1 C 156.4 6.3 159.0 6.3 158.6 6.5 C 156.7 6.5 154.6 6.5 152.7 6.5 C 152.5 6.4 152.8 6.3 151.4 6.2 C 149.3 6.4 141.6 6.6 142.2 6.5 C 145.3 6.2 136.7 6.2 142.0 6.0 C 140.5 6.0 140.3 5.9 138.4 5.9 C 138.4 6.0 138.5 6.1 138.5 6.2 C 134.2 6.3 136.2 5.9 132.5 5.8 C 132.2 6.0 130.6 6.0 130.2 6.1 C 131.7 6.1 131.8 6.0 133.7 6.0 C 131.8 6.4 137.7 6.2 137.5 6.5 C 133.5 6.5 133.3 6.3 131.5 6.2 C 126.5 6.3 128.8 6.2 123.3 6.2 C 123.4 6.3 124.9 6.3 124.6 6.4 C 117.9 6.3 118.3 5.8 113.9 6.0 C 114.9 6.0 118.9 5.8 116.0 5.8 C 113.0 5.9 112.2 6.1 108.1 6.2 C 107.8 6.1 108.1 5.9 106.7 5.9 C 105.1 6.0 105.1 6.2 103.6 6.3 C 103.1 6.2 100.9 6.3 100.0 6.3 C 98.4 6.1 100.4 6.1 98.5 6.0 C 95.1 6.0 93.7 6.6 90.8 6.5 C 90.7 6.2 87.5 6.3 84.7 6.3 C 84.0 6.0 78.0 6.1 74.0 6.0 C 75.1 6.3 70.9 6.2 72.0 6.4 C 74.0 6.4 75.0 6.5 75.6 6.6 C 71.0 6.6 69.3 6.1 66.1 6.5 C 64.3 6.3 62.0 6.2 58.9 6.1 C 58.6 6.2 64.5 6.3 61.4 6.4 C 61.1 6.3 60.1 6.4 59.1 6.4 C 59.4 6.1 56.8 6.1 55.2 5.9 C 52.6 6.1 46.6 5.8 49.5 6.1 C 45.2 6.1 47.7 5.7 44.4 5.7 C 46.4 6.0 40.7 6.1 43.7 6.3 C 39.3 6.3 39.3 5.9 41.0 5.8 C 36.8 5.7 36.1 5.9 33.9 5.8 C 36.1 6.0 29.9 6.2 33.0 6.0 C 33.8 5.8 29.1 5.9 28.1 5.8 C 29.7 6.0 27.6 6.0 30.7 6.1 C 27.6 6.2 23.1 6.2 20.0 5.9 C 16.3 6.1 12.6 6.1 14.1 5.8 C 10.5 5.9 11.9 5.9 8.1 5.8 C 8.2 5.9 9.3 5.9 9.6 6.0 C 7.8 6.0 6.7 6.0 5.8 6.0 C 5.8 7.5 5.7 8.5 5.7 12.8 C 5.4 11.7 5.4 15.9 5.2 17.1 C 5.2 14.3 5.3 12.2 5.4 10.1 C 5.2 9.5 5.2 11.6 5.1 9.9 C 5.2 9.7 5.3 8.7 5.3 7.7 C 5.1 10.4 5.0 6.8 5.0 5.2 C 5.8 5.2 6.2 5.2 5.3 5.3 C 5.3 5.3 5.2 5.2 5.1 5.2 C 5.1 5.4 5.0 5.7 5.1 6.2 C 5.3 5.6 5.2 5.5 5.5 6.6 C 5.4 6.2 5.4 5.9 5.4 5.6 C 7.2 5.6 8.7 5.8 9.2 5.6 C 9.0 5.5 6.9 5.5 6.6 5.5 C 11.8 5.3 8.5 5.8 12.7 5.7 C 13.3 5.4 11.1 5.4 9.9 5.2 C 13.8 5.2 17.1 5.2 18.3 5.4 C 21.8 5.3 17.9 5.2 20.3 5.0 C 21.7 5.2 21.7 5.3 24.2 5.4 C 26.7 5.3 22.5 5.2 25.1 5.1 C 28.1 5.3 23.5 5.5 27.9 5.5 C 26.5 5.2 31.8 5.6 31.3 5.4 C 28.8 5.4 28.4 5.1 29.9 5.3 C 35.9 5.6 39.2 4.7 45.3 5.3 C 45.2 5.2 46.1 5.2 46.3 5.1 C 41.9 5.0 35.6 4.9 34.1 4.6 C 30.7 4.6 31.4 4.9 30.9 5.0 C 26.6 4.7 26.9 4.6 29.0 4.2 C 35.7 4.2 38.7 4.4 43.3 4.5 C 45.6 4.3 43.0 4.4 41.9 4.2 C 56.1 4.5 44.9 3.8 49.9 3.8 C 49.9 4.0 51.0 4.0 52.4 4.1 C 52.3 4.0 54.4 4.0 54.7 3.9 C 53.7 3.9 53.2 3.9 53.4 3.8 C 56.8 3.7 55.6 3.9 56.0 4.1 C 53.3 4.1 51.6 4.1 51.4 4.2 C 54.7 4.1 57.6 4.4 59.5 4.1 C 63.0 4.4 58.4 4.8 60.3 5.0 C 59.9 5.2 62.0 4.4 64.4 4.3 C 68.7 4.3 68.6 4.1 72.5 4.1 C 73.7 4.3 68.7 4.2 69.2 4.4 C 70.3 4.4 70.6 4.5 71.7 4.5 C 74.4 4.5 74.0 4.2 76.1 4.2 C 77.5 4.4 78.0 4.3 79.6 4.2 C 82.3 4.3 78.2 4.4 81.0 4.4 C 83.9 4.5 85.8 4.1 86.7 4.2 C 87.0 4.3 86.6 4.4 88.0 4.4 C 91.2 4.2 92.0 4.2 87.8 4.1 C 91.5 4.1 93.0 4.0 92.3 3.8 C 86.7 3.7 85.4 3.8 82.6 3.4 C 81.8 3.7 80.0 3.5 77.9 3.4 C 79.5 3.9 75.5 3.5 74.5 3.7 C 75.9 3.7 77.3 3.8 78.2 3.8 C 72.3 3.8 72.4 3.8 67.9 4.2 C 67.8 4.1 67.1 4.0 66.5 3.9 C 67.9 3.8 72.2 3.9 72.2 3.7 C 68.6 3.4 67.8 3.8 63.8 3.5 C 62.3 3.7 67.1 3.8 64.0 3.8 C 62.4 3.7 60.3 3.5 57.8 3.4 C 55.3 3.5 54.2 3.6 52.2 3.7 C 51.9 3.6 51.5 3.5 49.6 3.5 C 49.8 3.6 51.8 3.7 49.8 3.8 C 43.3 3.5 39.0 3.2 32.9 3.4 C 35.1 3.4 40.3 3.7 37.9 3.7 C 35.0 3.5 31.5 3.8 28.4 3.6 C 27.4 3.5 31.9 3.7 30.5 3.3 C 27.8 3.3 26.0 3.3 24.6 3.2 C 24.7 3.4 21.4 3.3 22.4 3.5 C 24.8 3.6 25.2 3.3 25.9 3.4 C 24.5 4.0 17.0 3.1 12.6 3.1 C 9.8 3.2 15.0 3.4 11.8 3.4 C 9.8 3.6 8.1 3.0 11.2 2.9 C 13.5 3.0 14.1 2.7 14.9 3.0 C 15.8 2.9 17.2 3.0 17.1 2.9 C 15.5 2.9 15.7 2.7 14.6 2.6 C 16.9 2.7 16.8 2.2 19.1 2.5 C 17.8 2.5 17.4 2.6 16.9 2.6 C 23.2 2.6 25.3 2.8 29.0 2.9 C 26.9 2.7 29.0 2.8 28.7 2.6 C 26.0 2.6 20.6 2.5 23.8 2.4 C 26.2 2.7 27.2 1.9 29.6 2.2 C 28.0 2.3 28.3 2.4 27.5 2.5 C 29.9 2.5 30.0 2.7 32.4 2.7 C 39.8 2.4 46.3 3.0 58.2 2.5 C 62.5 2.5 54.4 2.6 54.9 2.8 C 56.2 2.8 56.4 2.9 57.4 2.9 C 57.3 2.6 59.6 2.9 60.8 2.6 C 60.7 2.9 66.3 2.7 69.3 2.9 C 69.3 2.8 68.9 2.7 70.2 2.6 C 79.2 3.0 94.5 2.5 101.2 2.8 C 100.8 2.6 103.7 2.6 104.5 2.5 C 108.6 2.5 106.9 2.7 112.8 2.5 C 115.7 2.4 112.3 2.7 111.8 2.7 C 120.7 2.6 128.7 2.8 134.2 2.6 C 137.0 2.5 134.3 2.7 140.2 2.8 C 140.1 2.4 149.7 3.0 150.7 2.6 C 154.3 2.5 161.0 3.0 157.9 2.6 C 162.8 2.6 159.7 3.0 161.7 3.0 C 165.0 2.9 160.3 2.4 163.7 2.3 C 163.5 2.6 166.3 2.5 168.6 2.7 C 165.9 2.7 164.2 2.7 163.9 2.9 C 166.2 2.7 166.1 2.9 169.8 2.9 C 172.5 2.7 180.4 2.5 182.9 2.9 C 182.9 2.8 182.2 2.7 181.6 2.6 C 183.9 2.6 186.8 2.9 186.3 2.6 C 191.6 2.6 194.0 2.8 196.9 2.6 C 199.2 2.5 196.2 2.8 203.0 2.8 C 203.1 2.6 215.1 2.6 218.4 2.8 C 218.4 2.5 219.2 2.8 220.7 2.8 C 220.9 2.7 220.5 2.6 221.9 2.6 C 222.2 2.7 223.2 2.6 224.2 2.6 C 223.5 3.0 228.6 2.5 229.0 2.7 C 228.0 2.7 228.0 2.9 229.1 3.0 C 229.3 2.7 234.4 3.1 233.8 2.9 C 232.7 2.8 229.4 2.9 230.2 2.6 C 234.8 2.5 233.1 2.9 236.2 2.9 C 235.9 2.8 234.1 2.7 236.1 2.6 C 239.4 2.7 236.4 2.7 238.5 2.9 C 240.2 2.8 243.3 2.6 244.5 2.6 C 244.1 2.6 245.2 2.8 245.6 2.8 C 251.8 2.9 265.6 2.6 271.6 3.0 C 272.1 2.9 273.4 2.8 272.9 2.6 C 276.5 2.8 276.2 2.7 279.9 2.8 C 279.9 2.7 279.9 2.6 279.9 2.5 C 284.6 2.4 280.4 2.8 283.5 2.8 C 283.8 2.3 285.4 3.0 288.3 3.0 C 288.6 2.9 290.0 2.8 289.5 2.6 C 294.0 2.7 293.8 3.0 297.7 2.9 C 296.8 2.9 296.1 2.1 296.6 1.8 C 297.2 2.0 298.4 2.0 300.1 2.1 C 298.1 2.3 299.2 3.3 304.9 3.0 C 301.8 3.0 300.6 2.9 301.3 2.7 C 305.6 2.7 307.1 2.9 310.8 2.9 C 311.4 2.6 308.7 2.6 309.6 2.3 C 310.6 2.3 311.0 2.3 310.8 2.2 C 314.7 2.2 314.8 2.4 319.1 2.2 C 319.1 2.4 318.2 2.4 316.7 2.3 C 316.9 2.5 316.9 2.7 314.4 2.7 C 314.0 2.6 315.5 2.3 311.9 2.4 C 311.9 2.5 311.9 2.7 311.9 2.8 C 314.6 2.8 320.8 3.0 321.4 2.9 C 320.1 2.8 318.0 2.7 319.1 2.5 C 323.6 2.6 324.9 2.8 328.5 3.0 C 335.0 2.9 346.4 2.9 345.1 2.6 C 349.0 2.7 347.6 2.7 351.1 2.7 C 350.1 2.5 355.0 2.6 354.7 2.4 C 350.4 2.5 351.7 2.4 347.5 2.5 C 347.7 2.3 348.4 2.2 350.0 2.2 C 350.2 2.3 352.0 2.4 354.7 2.3 C 354.3 2.3 351.8 2.0 354.8 2.0 C 355.0 2.1 355.7 2.1 357.1 2.1 C 357.1 2.2 357.0 2.4 357.0 2.5 C 355.4 2.6 353.4 2.6 352.2 2.7 C 353.4 2.7 353.6 2.8 354.6 2.8 C 355.4 2.7 360.2 2.8 360.6 2.6 C 358.6 2.7 357.4 2.5 359.4 2.5 C 359.8 2.5 363.0 2.6 364.2 2.5 C 360.0 2.4 361.7 2.3 359.5 2.1 C 364.3 2.0 363.5 2.3 369.0 2.2 C 369.0 2.4 369.0 2.6 367.6 2.7 C 370.9 3.2 379.1 2.8 381.8 2.8 C 379.9 2.8 377.8 3.1 380.5 3.1 C 380.6 3.0 382.6 3.1 383.0 3.0 C 384.1 2.5 381.7 2.3 379.7 2.0 C 381.9 2.0 382.4 1.9 384.4 1.9 C 385.1 2.1 382.8 2.5 385.4 2.5 C 386.1 2.1 390.4 2.4 391.4 2.2 C 389.6 2.2 388.3 2.1 390.3 2.0 C 389.9 2.2 393.8 2.1 393.8 2.2 C 390.7 2.4 389.8 2.6 387.9 2.6 C 390.3 2.6 385.9 2.8 390.1 2.8 C 392.0 2.6 393.0 2.4 397.4 2.4 C 399.0 2.5 397.4 2.7 399.6 2.7 C 399.1 2.5 403.8 2.4 400.9 2.6 C 402.5 2.6 403.4 2.7 404.3 2.7 C 402.1 2.5 413.4 2.2 411.7 2.0 C 411.6 2.4 412.1 2.6 412.6 2.7 C 414.9 2.4 417.4 2.7 423.4 2.6 C 423.3 2.3 424.3 2.6 426.9 2.6 C 427.4 2.4 425.3 2.4 427.0 2.3 C 429.9 2.4 430.0 2.5 430.5 2.6 C 432.6 2.6 434.2 2.6 435.2 2.6 C 435.4 2.5 434.7 2.5 434.1 2.4 C 442.0 2.7 446.3 2.4 453.1 2.4 C 450.3 2.3 449.5 2.7 451.8 2.6 C 453.2 2.6 454.5 2.6 455.4 2.5 C 453.9 2.3 454.5 2.4 457.8 2.4 C 460.9 2.3 456.9 2.0 459.2 2.0 C 461.7 2.1 460.1 2.3 461.5 2.3 C 462.6 2.3 463.9 2.3 465.1 2.3 C 462.9 2.2 465.4 2.1 467.5 2.0 C 465.9 2.3 466.8 2.4 471.0 2.3 C 471.4 2.4 469.2 2.5 470.9 2.5 C 471.8 2.5 475.2 2.2 478.0 2.4 C 477.0 2.4 476.5 2.5 476.7 2.6 C 479.9 2.4 482.2 2.7 484.9 2.8 C 482.2 2.6 483.9 2.4 482.8 2.3 C 485.4 2.5 489.0 2.2 491.0 2.5 C 487.0 2.4 490.6 3.0 493.1 3.0 C 493.8 2.7 489.5 2.8 491.0 2.5 C 492.5 2.3 495.4 2.7 496.9 2.4 C 496.8 2.3 495.0 2.5 494.7 2.3 C 496.9 2.3 494.1 2.2 495.9 2.2 C 496.9 2.4 498.4 2.1 499.6 2.1 C 501.0 2.2 503.9 2.5 505.3 2.3 C 505.4 2.2 503.3 2.3 503.1 2.2 C 509.7 2.0 511.4 2.4 517.4 2.1 C 518.0 2.2 519.1 2.3 520.8 2.3 C 520.8 2.2 521.9 2.1 523.3 2.1 C 525.7 2.2 528.2 2.3 531.4 2.4 C 530.6 2.6 529.1 2.7 533.4 2.7 C 533.7 2.6 531.9 2.6 533.6 2.6 C 533.5 2.6 534.5 2.7 534.8 2.6 C 534.9 2.5 534.9 2.5 535.0 2.4 C 533.7 2.4 532.5 2.4 531.4 2.4 C 531.6 2.3 531.3 2.2 530.5 2.1 C 535.8 2.0 535.0 2.5 538.6 2.3 C 538.8 2.6 539.9 2.7 536.8 3.0 C 539.9 2.9 542.1 2.8 543.0 2.6 C 539.4 2.6 540.8 2.3 539.9 2.2 C 542.2 2.2 542.3 2.1 543.5 2.0 C 546.0 2.2 540.4 2.5 545.5 2.5 C 541.8 2.2 549.0 2.2 551.6 2.3 C 551.2 2.2 550.3 2.2 551.8 2.1 C 558.9 1.9 557.7 2.8 562.2 2.3 C 561.7 2.5 563.7 2.5 564.4 2.6 C 560.9 2.7 559.9 2.7 558.4 2.7 C 558.5 2.8 559.5 2.9 560.6 2.9 C 560.7 2.8 561.6 2.7 563.0 2.8 C 564.2 2.7 564.2 2.3 567.1 2.1 C 567.3 2.2 566.8 2.3 568.2 2.3 C 569.7 2.1 566.8 2.8 572.7 2.7 C 571.7 2.6 571.2 2.4 571.9 2.3 C 574.7 2.2 574.0 2.3 577.8 2.2 C 578.8 2.6 574.9 2.7 573.6 2.9 C 576.2 2.8 578.5 2.6 580.9 2.7 C 579.0 2.6 581.2 2.4 583.6 2.3 C 585.6 2.4 583.1 2.7 585.6 2.7 C 587.7 2.7 588.9 2.5 587.2 2.3 C 591.5 2.4 590.7 2.1 594.4 2.2 C 594.4 2.3 593.3 2.4 592.0 2.3 C 592.1 2.4 591.5 2.5 592.9 2.5 C 594.7 2.4 597.7 2.3 600.3 2.2 C 600.4 3.7 600.4 5.0 600.5 6.0 C 600.0 12.2 600.6 18.9 600.4 25.0 C 600.1 22.5 600.4 32.8 600.1 35.6 C 600.2 37.4 600.7 43.3 600.5 41.1 C 600.1 41.5 600.2 45.0 600.2 47.7 C 600.2 47.7 600.3 47.8 600.4 47.8 C 600.4 53.9 600.2 55.0 600.0 56.8 C 600.0 57.1 600.0 57.5 600.0 57.9 C 594.0 58.0 587.0 57.7 579.8 57.9 C 577.6 57.7 575.9 57.7 571.1 57.5 C 571.5 57.8 567.8 57.8 564.4 57.8 C 565.4 58.0 562.1 57.9 562.2 58.1 C 565.4 58.1 564.5 58.4 566.2 58.5 C 561.8 58.2 560.2 58.7 556.7 58.5 C 560.7 58.4 561.6 58.1 561.9 57.7 C 557.1 57.8 554.5 57.7 553.4 57.5 C 553.2 57.6 553.9 57.8 555.0 57.9 C 553.4 57.9 551.8 57.9 550.3 57.9 C 549.7 57.7 551.8 57.6 550.1 57.6 C 549.0 57.7 547.8 57.8 546.7 57.9 C 545.1 57.6 548.4 57.7 548.7 57.5 C 542.3 57.4 545.5 57.9 542.2 58.0 C 541.1 57.8 541.1 57.6 538.2 57.5 C 537.2 57.7 537.0 57.9 533.8 57.9 C 531.7 57.9 533.6 57.6 531.2 57.5 C 530.9 57.6 529.8 57.6 528.7 57.5 C 529.0 57.7 528.0 57.7 526.7 57.8 C 526.2 57.7 524.0 57.7 523.1 57.8 C 522.8 57.6 518.8 57.4 518.2 57.5 C 518.3 57.6 520.3 57.6 520.6 57.7 C 517.9 57.7 516.1 57.7 514.8 57.8 C 513.5 57.2 509.5 57.7 503.9 57.4 C 500.7 57.6 504.9 57.8 500.8 57.9 C 498.1 57.8 501.2 57.7 500.4 57.5 C 499.7 57.4 495.7 57.3 495.7 57.5 C 495.8 57.6 497.8 57.5 498.1 57.6 C 495.2 57.8 495.1 57.5 493.3 57.5 C 493.7 57.7 491.7 57.7 491.3 57.9 C 482.9 58.0 482.7 57.6 479.1 57.4 C 479.2 57.5 477.1 57.4 476.9 57.5 C 479.3 57.4 482.7 57.7 479.4 57.7 C 479.8 57.6 475.0 57.7 474.7 57.8 C 475.4 57.9 478.4 57.8 477.4 58.1 C 473.0 58.2 474.4 57.7 471.3 57.9 C 470.8 57.8 472.8 57.8 473.5 57.7 C 472.1 57.7 470.2 57.7 469.9 57.6 C 471.5 57.5 471.4 57.4 472.0 57.2 C 469.8 57.4 465.5 57.2 468.7 57.5 C 463.9 57.5 459.5 57.6 462.9 57.9 C 459.2 57.9 461.1 57.6 458.2 57.8 C 458.4 57.5 459.2 57.3 456.5 57.1 C 456.2 57.3 454.2 57.3 454.5 57.5 C 448.9 57.5 447.1 57.3 444.6 57.1 C 447.0 57.4 444.0 57.1 441.4 57.4 C 439.6 57.3 441.0 57.0 436.5 57.1 C 441.7 57.4 430.8 57.1 433.3 57.5 C 427.3 57.3 427.4 57.4 421.3 57.3 C 421.7 57.1 423.1 57.0 425.8 57.0 C 424.1 57.2 431.1 57.2 430.5 57.1 C 430.5 57.0 430.4 56.9 430.4 56.9 C 426.0 56.9 422.9 56.9 420.9 56.7 C 420.1 56.9 418.1 57.0 419.0 57.3 C 414.5 57.0 410.3 57.4 408.2 57.1 C 409.7 57.1 411.0 57.1 410.5 57.0 C 408.8 57.0 406.8 57.1 407.1 57.3 C 410.6 57.4 411.4 57.4 413.0 57.2 C 411.6 57.4 416.6 57.5 413.2 57.6 C 413.1 57.2 406.3 57.8 408.5 57.5 C 412.1 57.4 404.1 57.3 403.6 57.2 C 403.6 57.2 403.6 57.2 403.6 57.2 Z M 31.3 2.7 C 27.8 2.8 32.4 3.1 35.0 3.0 C 34.1 3.0 33.7 2.9 33.6 2.7 C 32.6 2.8 31.6 2.8 31.3 2.7 C 31.3 2.7 31.3 2.7 31.3 2.7 Z M 71.9 6.2 C 72.8 6.0 67.1 6.1 64.7 6.1 C 65.4 6.2 66.3 6.2 64.8 6.2 C 67.5 6.5 68.1 6.0 71.9 6.2 C 71.9 6.2 71.9 6.2 71.9 6.2 Z M 201.5 5.4 C 200.6 5.4 198.3 5.5 198.0 5.4 C 196.7 5.4 197.1 5.5 196.9 5.6 C 194.1 5.6 197.4 5.2 193.2 5.4 C 191.8 5.8 200.8 5.9 201.5 5.4 C 201.5 5.4 201.5 5.4 201.5 5.4 Z M 445.7 53.6 C 443.9 53.4 447.7 53.2 446.4 53.0 C 440.1 53.2 445.3 53.5 436.2 53.4 C 436.8 53.5 437.6 53.5 437.5 53.6 C 441.7 53.5 441.9 53.3 441.2 53.8 C 443.1 53.8 443.2 53.3 445.7 53.6 C 445.7 53.6 445.7 53.6 445.7 53.6 Z M 360.7 52.5 C 361.5 52.6 362.1 52.6 362.1 52.7 C 364.8 52.6 364.2 52.6 367.9 52.7 C 367.2 52.3 363.7 52.3 360.7 52.5 C 360.7 52.5 360.7 52.5 360.7 52.5 Z M 138.7 52.0 C 137.9 52.0 137.1 52.0 136.3 52.0 C 136.9 52.1 134.8 52.4 138.8 52.4 C 139.0 52.3 138.3 52.3 137.7 52.3 C 138.3 52.2 140.3 52.2 139.9 52.0 C 138.9 52.0 138.7 52.0 138.7 52.0 C 138.7 52.0 138.7 52.0 138.7 52.0 Z M 45.4 54.2 C 50.0 53.9 38.8 53.4 45.4 54.2 C 45.4 54.2 45.4 54.2 45.4 54.2 C 45.4 54.2 45.4 54.2 45.4 54.2 Z M 55.2 57.0 C 55.3 57.1 56.3 57.0 56.3 57.0 C 60.2 57.1 56.4 57.2 58.6 57.3 C 61.7 57.1 57.0 56.9 61.0 56.8 C 60.2 56.6 57.4 57.0 55.2 57.0 C 55.2 57.0 55.2 57.0 55.2 57.0 Z M 557.3 2.5 C 554.0 2.6 552.9 2.8 552.1 3.0 C 554.3 3.1 556.1 3.1 556.7 3.2 C 561.0 3.1 554.1 3.0 553.5 3.0 C 554.1 2.8 557.1 2.7 557.3 2.5 C 557.3 2.5 557.3 2.5 557.3 2.5 Z M 546.6 2.6 C 545.1 2.7 543.0 2.8 542.7 3.0 C 544.8 2.9 545.0 3.0 545.0 3.1 C 547.0 3.0 544.8 2.8 546.6 2.6 C 546.6 2.6 546.6 2.6 546.6 2.6 Z M 566.5 2.8 C 565.0 2.8 565.4 3.0 565.1 3.1 C 567.3 3.1 567.5 3.2 569.7 3.2 C 569.8 3.1 569.9 3.0 570.0 3.0 C 568.1 2.9 567.9 3.0 566.3 3.0 C 566.4 3.0 566.5 2.9 566.5 2.8 C 566.5 2.8 566.5 2.8 566.5 2.8 Z M 535.7 2.9 C 529.5 2.9 526.4 3.3 522.2 3.6 C 526.7 3.6 531.1 3.1 534.2 3.2 C 538.2 3.1 533.1 3.0 533.3 3.0 C 533.4 2.9 534.8 2.9 535.7 2.9 C 535.7 2.9 535.7 2.9 535.7 2.9 Z M 481.3 2.9 C 480.1 2.7 477.5 3.1 474.0 3.0 C 474.7 3.1 475.2 3.2 475.1 3.3 C 480.2 3.4 477.4 2.9 481.3 2.9 C 481.3 2.9 481.3 2.9 481.3 2.9 Z M 451.6 3.0 C 448.5 3.1 453.2 3.2 451.5 3.4 C 454.9 3.4 458.6 3.4 458.6 3.1 C 454.8 3.3 454.0 3.3 451.6 3.0 C 451.6 3.0 451.6 3.0 451.6 3.0 Z M 430.3 3.0 C 426.8 3.2 431.6 3.4 430.0 3.6 C 431.4 3.6 431.1 3.5 431.3 3.4 C 432.3 3.4 433.2 3.4 434.8 3.4 C 433.8 3.3 429.7 3.3 430.3 3.0 C 430.3 3.0 430.3 3.0 430.3 3.0 Z M 599.4 51.0 C 599.3 48.7 599.1 49.1 599.1 44.4 C 599.1 51.6 598.4 47.2 598.5 56.4 C 598.4 56.4 598.4 56.4 598.3 56.4 C 598.4 56.4 598.5 56.4 598.5 56.4 C 598.6 55.4 598.7 56.1 598.6 56.5 C 598.5 56.5 598.5 56.4 598.4 56.4 C 596.7 56.5 597.8 56.6 598.8 56.6 C 599.5 56.7 600.0 56.7 599.0 56.8 C 598.9 56.8 598.9 56.8 598.8 56.8 C 598.9 56.8 598.9 56.8 599.0 56.8 C 598.9 54.4 598.7 55.5 598.7 53.0 C 598.9 50.5 599.0 49.0 599.4 51.0 C 599.4 51.0 599.4 51.0 599.4 51.0 Z M 598.1 56.1 C 595.6 56.0 596.1 56.5 594.7 56.3 C 593.6 56.3 593.9 56.4 593.7 56.4 C 594.6 56.4 594.8 56.5 594.9 56.5 C 596.9 56.4 598.9 56.4 598.1 56.1 C 598.1 56.1 598.1 56.1 598.1 56.1 Z M 598.3 32.7 C 598.4 37.0 598.2 38.1 598.4 40.3 C 598.1 41.6 598.6 43.1 598.3 45.2 C 598.3 49.3 598.4 46.4 598.6 45.4 C 598.7 49.5 598.3 46.2 598.4 50.2 C 598.7 51.2 598.6 46.0 598.9 46.8 C 598.9 43.7 598.7 43.6 598.7 41.6 C 598.7 40.1 598.8 40.7 598.9 40.5 C 598.8 36.9 599.0 37.2 599.0 34.2 C 598.8 33.4 598.7 34.6 598.7 37.9 C 598.6 34.5 598.5 33.0 598.6 29.1 C 598.8 31.9 598.9 19.2 598.5 20.3 C 598.4 23.7 598.7 22.7 598.7 24.0 C 598.5 28.5 598.6 31.2 598.3 32.7 C 598.3 32.7 598.3 32.7 598.3 32.7 Z M 567.1 3.6 C 566.1 3.6 565.2 3.5 563.6 3.5 C 563.7 3.3 565.7 3.4 563.9 3.2 C 561.4 3.2 560.7 3.3 559.1 3.3 C 559.9 3.4 565.0 3.7 562.1 3.8 C 562.8 3.9 564.5 3.9 566.7 3.9 C 564.4 3.6 570.3 3.9 572.7 3.9 C 572.8 3.6 576.7 4.0 578.7 3.8 C 577.5 3.6 572.5 3.8 570.4 3.8 C 571.5 3.7 565.0 3.2 567.1 3.6 C 567.1 3.6 567.1 3.6 567.1 3.6 Z M 588.8 56.3 C 588.2 56.3 585.6 56.4 587.7 56.4 C 586.8 56.5 584.5 56.4 585.8 56.8 C 584.5 56.8 583.4 56.8 582.2 56.8 C 582.5 56.6 585.8 56.7 584.3 56.4 C 582.0 56.6 582.8 56.4 579.6 56.4 C 581.1 56.2 579.2 56.2 580.2 55.9 C 579.4 56.0 576.5 56.0 577.0 56.2 C 572.4 56.1 577.9 55.9 572.0 55.9 C 571.9 55.7 576.1 55.7 577.7 55.8 C 578.3 55.6 570.3 55.7 565.9 55.6 C 570.0 55.8 567.1 56.1 565.3 56.3 C 563.9 56.2 565.2 56.1 562.6 56.0 C 560.7 55.9 559.8 56.1 559.1 56.0 C 557.5 56.0 558.4 56.2 558.2 56.3 C 555.5 56.2 557.2 55.9 553.2 56.0 C 556.5 56.3 553.2 56.4 547.7 56.3 C 548.1 56.4 549.9 56.4 550.2 56.5 C 549.6 56.7 546.2 56.4 545.3 56.3 C 543.4 56.3 544.8 56.5 546.6 56.4 C 545.5 56.5 544.4 56.6 543.2 56.7 C 549.1 56.7 558.4 56.6 569.5 57.0 C 567.2 56.8 569.6 56.7 572.9 56.8 C 573.5 57.0 572.1 57.0 570.6 57.0 C 574.7 57.3 573.8 56.7 579.9 56.8 C 583.2 56.9 576.5 57.0 580.2 57.2 C 582.3 57.1 583.6 56.9 584.9 57.2 C 588.6 57.0 589.3 56.7 595.2 56.8 C 591.7 56.6 589.7 56.1 586.4 56.2 C 586.4 56.3 587.9 56.3 588.8 56.3 C 588.8 56.3 588.8 56.3 588.8 56.3 Z M 544.9 3.3 C 542.8 3.3 541.7 3.4 541.3 3.3 C 537.7 3.4 541.6 3.6 542.2 3.6 C 543.9 3.6 544.5 3.4 544.9 3.3 C 544.9 3.3 544.9 3.3 544.9 3.3 Z M 185.4 3.3 C 180.9 3.2 182.0 3.5 178.4 3.5 C 181.3 3.6 182.1 3.8 186.8 3.8 C 186.9 3.6 186.9 3.4 185.4 3.3 C 185.4 3.3 185.4 3.3 185.4 3.3 Z M 556.5 3.4 C 559.6 3.2 552.8 3.8 553.0 3.5 C 549.5 3.7 556.0 3.7 552.6 3.9 C 555.6 3.8 557.2 4.0 560.9 3.8 C 560.9 3.7 558.0 3.7 555.1 3.7 C 554.9 3.6 556.4 3.5 556.5 3.4 C 556.5 3.4 556.5 3.4 556.5 3.4 Z M 231.7 3.9 C 234.8 3.7 228.7 3.5 226.8 3.4 C 226.8 3.7 227.7 3.7 231.7 3.9 C 231.7 3.9 231.7 3.9 231.7 3.9 Z M 154.9 3.7 C 153.3 4.0 160.2 3.7 158.6 4.0 C 160.7 4.0 160.9 3.9 160.9 3.8 C 162.0 3.9 165.3 3.9 164.5 4.1 C 165.1 4.3 159.2 4.0 161.1 4.3 C 159.2 4.4 159.0 4.3 157.6 4.2 C 161.0 4.3 159.3 4.0 155.0 3.9 C 155.1 4.1 157.0 4.1 155.1 4.2 C 154.9 4.1 152.6 4.0 152.5 3.6 C 148.8 3.6 151.2 4.0 146.9 4.0 C 147.3 4.2 150.0 4.2 151.7 4.2 C 151.4 4.5 147.0 4.0 148.2 4.4 C 147.2 4.2 144.6 4.1 144.4 3.9 C 147.6 3.8 149.7 3.6 152.4 3.4 C 149.8 3.3 146.4 3.9 141.9 3.6 C 142.5 3.8 139.8 3.8 140.9 4.0 C 137.4 4.0 138.8 3.6 139.5 3.6 C 138.5 3.5 131.9 3.6 132.5 3.8 C 131.9 3.6 123.9 3.6 124.4 3.9 C 121.8 3.7 118.4 4.1 117.2 3.8 C 115.8 3.9 113.1 3.9 110.1 3.9 C 109.4 4.1 114.5 4.0 115.0 4.2 C 116.0 4.4 109.4 4.1 110.4 4.3 C 110.4 4.4 110.4 4.4 110.5 4.5 C 112.8 4.4 115.2 4.3 117.5 4.3 C 119.2 4.3 117.1 4.4 117.6 4.5 C 119.1 4.3 126.5 4.0 127.0 4.5 C 132.0 4.4 135.6 4.4 137.6 4.3 C 140.6 4.3 135.9 4.4 137.7 4.6 C 146.4 4.2 157.4 4.6 164.6 4.3 C 166.2 4.3 165.7 4.5 166.0 4.6 C 176.0 4.4 167.2 4.1 175.2 4.2 C 175.3 4.4 171.5 4.3 171.8 4.6 C 174.6 4.6 175.2 4.4 178.9 4.5 C 178.9 4.4 178.8 4.3 178.8 4.2 C 181.8 4.2 180.7 4.5 182.4 4.6 C 186.1 4.5 185.2 4.3 187.1 4.7 C 190.6 4.5 194.0 4.5 197.8 4.6 C 200.1 4.4 195.4 4.0 191.6 4.0 C 191.8 3.9 192.8 3.9 192.8 3.9 C 197.2 4.1 198.1 4.5 204.8 4.6 C 199.6 4.3 207.4 4.5 208.4 4.7 C 211.1 4.6 208.9 4.3 207.1 4.3 C 207.4 4.2 209.2 4.3 209.4 4.4 C 209.7 4.0 203.2 3.9 196.4 4.0 C 199.4 3.6 191.6 4.0 195.0 3.5 C 189.5 3.6 194.3 3.9 188.1 3.9 C 188.7 4.0 189.9 4.1 190.5 4.2 C 185.8 4.2 187.0 3.9 182.1 3.9 C 181.4 4.1 184.6 4.1 184.7 4.2 C 179.2 4.0 177.4 3.9 173.7 3.7 C 173.1 3.8 174.1 4.1 168.0 3.9 C 168.0 3.9 167.9 3.8 167.9 3.8 C 170.8 3.8 171.3 3.4 164.2 3.4 C 163.8 3.5 166.0 3.5 167.8 3.5 C 167.1 3.7 164.8 3.7 162.0 3.8 C 160.6 3.7 159.0 3.6 160.8 3.6 C 159.6 3.4 158.7 3.8 154.9 3.7 C 154.9 3.7 154.9 3.7 154.9 3.7 Z M 486.8 3.4 C 485.9 3.5 484.9 3.5 483.2 3.5 C 482.2 3.7 485.5 3.7 485.4 3.8 C 487.9 3.9 486.2 3.6 486.8 3.4 C 486.8 3.4 486.8 3.4 486.8 3.4 Z M 519.7 3.6 C 519.7 3.4 517.7 3.7 515.0 3.6 C 514.1 3.8 517.3 3.8 517.2 3.9 C 520.4 4.0 516.7 3.5 519.7 3.6 C 519.7 3.6 519.7 3.6 519.7 3.6 Z M 505.6 3.6 C 504.5 3.4 504.2 3.7 506.8 3.7 C 506.5 3.8 505.8 4.0 504.2 4.0 C 505.7 4.3 507.1 3.8 510.1 3.9 C 509.1 3.8 507.6 3.7 505.6 3.6 C 505.6 3.6 505.6 3.6 505.6 3.6 Z M 500.9 3.6 C 499.0 3.8 498.0 3.6 494.9 3.7 C 495.5 3.9 502.1 3.8 503.2 3.7 C 504.4 3.5 497.4 3.5 500.9 3.6 C 500.9 3.6 500.9 3.6 500.9 3.6 Z M 278.9 4.2 C 277.7 4.2 278.0 4.3 277.8 4.4 C 274.0 4.0 269.0 4.1 273.0 3.8 C 269.2 4.0 265.6 3.7 262.4 3.6 C 259.6 3.6 261.0 3.8 258.8 3.9 C 255.4 3.8 260.7 3.7 260.0 3.6 C 259.2 3.4 258.3 3.8 254.1 3.7 C 255.3 4.1 250.5 3.7 251.9 4.1 C 249.5 3.9 248.9 4.1 245.9 4.1 C 246.3 4.2 249.1 4.2 249.5 4.4 C 251.0 4.7 251.1 4.2 248.3 4.2 C 249.9 4.0 254.1 4.4 255.3 4.2 C 256.9 4.4 251.5 4.2 253.1 4.5 C 254.1 4.5 255.1 4.4 255.3 4.3 C 257.1 4.4 258.2 4.5 258.9 4.6 C 257.9 4.6 257.8 4.5 257.8 4.5 C 255.6 4.5 260.0 4.9 255.4 4.9 C 256.2 5.0 258.2 5.0 257.9 5.1 C 259.3 5.3 257.8 4.5 262.5 4.7 C 265.6 4.5 255.1 4.5 257.7 4.0 C 264.3 4.1 260.6 4.4 265.9 4.5 C 265.9 4.4 265.8 4.3 267.2 4.2 C 266.9 4.2 265.0 4.2 263.6 4.2 C 263.8 4.1 265.8 4.1 267.2 4.1 C 266.9 4.0 265.9 4.0 265.9 3.9 C 270.4 4.0 270.0 4.5 266.0 4.6 C 266.1 4.9 271.6 4.8 273.1 4.7 C 271.6 4.5 273.2 4.6 271.9 4.3 C 270.7 4.3 271.0 4.4 270.6 4.5 C 268.6 4.4 270.5 4.3 270.6 4.2 C 273.0 4.3 272.9 4.5 275.3 4.3 C 274.8 4.4 274.2 4.5 274.2 4.6 C 275.4 4.6 276.6 4.6 277.8 4.6 C 277.6 4.4 279.1 4.4 278.9 4.2 C 278.9 4.2 278.9 4.2 278.9 4.2 Z M 217.5 3.6 C 213.5 3.6 215.7 3.8 217.5 3.8 C 216.7 3.8 215.4 3.9 214.0 3.9 C 215.2 4.0 216.2 4.0 219.9 4.0 C 216.8 4.3 220.2 4.8 226.0 4.7 C 227.6 4.3 222.7 4.2 224.6 3.9 C 220.4 4.1 218.0 3.9 217.5 3.6 C 217.5 3.6 217.5 3.6 217.5 3.6 Z M 542.1 3.7 C 539.8 3.7 537.4 3.7 535.1 3.7 C 535.2 3.9 542.4 4.1 542.1 3.7 C 542.1 3.7 542.1 3.7 542.1 3.7 Z M 538.4 56.4 C 537.3 56.4 537.2 56.3 537.0 56.3 C 533.7 56.3 538.8 56.5 537.4 56.7 C 538.7 56.7 539.8 56.7 540.9 56.7 C 541.1 56.6 535.9 56.4 539.5 56.4 C 539.2 56.3 538.3 56.3 538.4 56.4 C 538.4 56.4 538.4 56.4 538.4 56.4 Z M 489.0 3.8 C 486.8 3.9 487.9 4.2 482.8 4.1 C 484.6 4.3 485.8 4.2 488.8 4.2 C 488.8 4.0 488.9 3.9 489.0 3.8 C 489.0 3.8 489.0 3.8 489.0 3.8 Z M 296.6 3.8 C 293.6 3.6 292.8 4.2 287.2 4.0 C 290.0 4.3 293.2 3.9 296.6 3.8 C 296.6 3.8 296.6 3.8 296.6 3.8 Z M 100.9 4.2 C 102.7 4.3 100.5 4.4 103.5 4.5 C 105.0 4.4 105.6 4.3 108.0 4.2 C 104.5 4.0 98.7 4.3 96.0 3.8 C 93.2 3.9 93.6 4.2 92.8 4.3 C 94.2 4.3 94.9 4.3 95.2 4.4 C 96.6 4.1 99.1 4.6 100.9 4.2 C 100.9 4.2 100.9 4.2 100.9 4.2 Z M 232.9 4.0 C 235.1 4.1 231.4 4.2 230.7 4.4 C 229.1 4.4 229.6 4.2 229.3 4.1 C 227.3 4.1 226.7 4.2 227.1 4.4 C 231.0 4.5 235.9 4.5 233.1 4.8 C 236.9 4.9 234.7 4.5 236.5 4.5 C 238.6 4.7 236.7 4.7 236.6 5.0 C 237.6 4.9 240.4 4.6 240.2 5.0 C 245.8 4.6 243.2 4.2 238.8 3.8 C 235.1 4.1 239.5 4.2 232.9 4.0 C 232.9 4.0 232.9 4.0 232.9 4.0 Z M 382.7 4.2 C 382.3 4.2 380.3 4.2 380.3 4.1 C 377.7 4.3 375.4 4.6 373.1 4.8 C 373.5 5.0 376.8 4.8 375.4 4.6 C 376.4 4.8 378.7 4.9 380.0 5.0 C 382.4 5.1 383.4 4.6 383.6 5.0 C 385.9 4.8 384.6 4.8 388.3 4.9 C 382.4 4.6 390.4 4.8 390.9 4.5 C 387.4 4.5 384.4 4.5 384.8 4.7 C 382.3 4.6 379.6 4.6 379.1 4.3 C 379.3 4.2 381.3 4.3 382.7 4.2 C 382.7 4.2 382.7 4.2 382.7 4.2 Z M 368.4 5.0 C 369.3 4.9 370.2 4.9 371.8 4.9 C 370.9 4.8 370.6 4.7 370.7 4.6 C 367.8 4.6 367.0 4.7 366.1 4.5 C 363.3 4.5 366.7 4.9 362.4 4.7 C 362.8 4.8 364.8 4.8 364.8 4.9 C 365.2 4.7 366.9 4.7 368.4 5.0 C 368.4 5.0 368.4 5.0 368.4 5.0 Z M 332.0 4.5 C 328.9 4.5 333.5 4.6 331.9 4.8 C 332.7 4.8 338.6 4.8 337.7 5.0 C 339.4 5.4 345.5 4.7 344.8 5.1 C 346.2 5.1 345.8 5.0 346.0 4.9 C 341.9 5.0 341.9 4.8 344.9 4.7 C 344.5 4.6 341.9 4.7 340.2 4.6 C 340.0 4.8 341.6 4.8 341.3 5.0 C 337.8 4.8 335.2 4.6 332.0 4.5 C 332.0 4.5 332.0 4.5 332.0 4.5 Z M 409.9 55.9 C 412.6 55.9 414.3 55.9 415.6 55.8 C 414.7 55.7 413.5 55.8 412.1 55.8 C 411.7 55.7 412.9 55.6 414.4 55.6 C 412.9 55.4 408.1 55.6 409.9 55.9 C 409.9 55.9 409.9 55.9 409.9 55.9 Z M 433.3 55.9 C 436.0 55.9 437.7 55.9 437.9 55.7 C 436.8 55.6 437.3 55.8 435.6 55.8 C 434.5 55.7 433.7 55.6 433.1 55.6 C 432.0 55.6 432.3 55.6 432.0 55.7 C 431.1 55.7 430.9 55.7 430.8 55.6 C 427.7 55.9 434.5 55.6 433.3 55.9 C 433.3 55.9 433.3 55.9 433.3 55.9 Z M 351.9 4.6 C 352.9 4.8 353.7 4.9 356.6 4.9 C 356.0 4.7 358.3 4.7 360.2 4.7 C 357.4 4.5 356.0 4.6 351.9 4.6 C 351.9 4.6 351.9 4.6 351.9 4.6 Z M 580.1 55.7 C 583.8 55.9 583.1 55.5 588.3 55.7 C 588.2 55.6 588.1 55.6 588.1 55.5 C 585.2 55.7 583.6 55.5 580.1 55.7 C 580.1 55.7 580.1 55.7 580.1 55.7 Z M 94.9 55.7 C 95.2 55.5 91.6 55.6 91.3 55.5 C 90.7 55.9 88.8 55.2 81.9 55.3 C 81.8 55.2 82.2 55.2 83.1 55.1 C 77.5 55.1 84.8 55.4 85.5 55.6 C 89.8 55.6 90.6 55.8 94.9 55.7 C 94.9 55.7 94.9 55.7 94.9 55.7 Z M 136.7 5.0 C 136.9 4.9 136.2 4.9 135.5 4.9 C 134.7 4.9 133.9 4.9 133.2 4.9 C 133.6 5.2 137.6 5.4 134.8 5.7 C 135.8 5.7 135.9 5.7 135.9 5.6 C 141.2 4.9 146.3 6.1 153.5 5.6 C 154.7 5.6 154.4 5.5 154.6 5.5 C 153.7 5.5 153.5 5.4 153.4 5.4 C 152.7 5.7 145.7 5.3 148.6 5.2 C 148.3 5.1 147.5 5.2 147.5 5.2 C 146.7 5.2 145.9 5.2 145.1 5.2 C 145.6 5.3 147.2 5.3 147.6 5.5 C 143.8 5.4 139.1 5.3 141.4 5.0 C 139.1 5.0 138.4 5.1 136.8 5.2 C 135.3 5.2 135.2 5.0 136.7 5.0 C 136.7 5.0 136.7 5.0 136.7 5.0 Z M 106.3 5.0 C 102.5 5.0 104.1 5.3 100.4 5.2 C 102.8 5.4 105.5 5.1 108.7 5.3 C 108.2 5.2 106.6 5.2 106.3 5.0 C 106.3 5.0 106.3 5.0 106.3 5.0 Z M 174.5 5.4 C 173.9 5.7 177.1 5.7 180.5 5.7 C 181.1 5.4 178.0 5.4 174.5 5.4 C 174.5 5.4 174.5 5.4 174.5 5.4 Z M 159.2 5.4 C 155.8 5.5 163.6 5.4 161.8 5.7 C 163.4 5.7 165.1 5.7 165.3 5.8 C 166.5 5.7 166.4 5.6 168.7 5.6 C 168.5 5.5 164.8 5.6 165.1 5.4 C 162.5 5.5 162.1 5.5 159.2 5.4 C 159.2 5.4 159.2 5.4 159.2 5.4 Z M 156.9 5.4 C 154.7 5.4 157.8 5.9 160.6 5.8 C 159.5 5.7 158.7 5.5 156.9 5.4 C 156.9 5.4 156.9 5.4 156.9 5.4 Z M 431.5 5.4 C 429.9 5.5 431.1 5.7 429.1 5.7 C 429.1 5.8 436.1 5.8 430.2 5.8 C 432.3 6.1 433.6 5.7 436.2 5.8 C 435.4 5.7 434.8 5.6 436.3 5.6 C 437.2 5.4 430.6 5.7 431.5 5.4 C 431.5 5.4 431.5 5.4 431.5 5.4 Z M 424.6 5.4 C 423.2 5.5 423.8 5.5 424.5 5.5 C 424.3 5.6 422.3 5.6 420.9 5.6 C 420.9 5.5 423.3 6.0 423.1 6.2 C 429.1 6.0 424.7 5.7 424.6 5.4 C 424.6 5.4 424.6 5.4 424.6 5.4 Z M 418.7 5.6 C 414.8 5.4 409.4 5.4 406.8 5.7 C 409.5 6.0 416.7 5.9 418.7 5.6 C 418.7 5.6 418.7 5.6 418.7 5.6 Z M 457.3 5.7 C 450.5 5.4 436.4 5.8 448.9 6.0 C 448.5 5.8 456.8 5.7 460.7 5.8 C 460.9 5.7 465.5 5.5 465.5 5.7 C 468.7 5.5 455.8 5.5 457.3 5.7 C 457.3 5.7 457.3 5.7 457.3 5.7 Z M 402.0 6.2 C 404.0 6.1 401.6 5.6 404.5 5.8 C 406.3 5.7 404.1 5.7 404.6 5.5 C 400.9 5.5 393.4 5.8 392.8 5.5 C 391.0 5.6 390.3 5.8 386.9 5.8 C 386.8 5.9 399.5 5.5 402.0 6.0 C 401.8 6.1 397.2 6.2 402.0 6.2 C 402.0 6.2 402.0 6.2 402.0 6.2 Z M 578.7 54.3 C 578.5 54.5 583.3 54.3 582.5 54.6 C 584.9 54.3 587.5 54.5 590.3 54.3 C 591.3 54.3 591.3 54.7 595.5 54.8 C 595.4 54.5 593.4 54.6 595.2 54.4 C 595.7 54.4 596.2 54.4 596.6 54.4 C 596.6 52.3 596.8 52.7 596.7 49.0 C 596.3 49.3 596.7 39.8 596.3 40.6 C 596.3 42.8 596.5 42.8 596.4 46.5 C 596.4 47.7 596.3 47.0 596.3 48.6 C 596.0 47.3 596.4 45.7 596.2 44.0 C 596.0 44.2 596.0 47.0 595.9 47.2 C 595.9 48.9 596.0 46.8 596.1 47.4 C 596.1 51.8 595.5 46.6 595.6 51.5 C 595.8 50.7 595.9 50.7 596.1 51.9 C 596.1 52.4 596.1 53.1 596.0 53.9 C 593.7 53.9 591.1 53.9 593.3 53.7 C 592.8 53.5 589.4 53.8 590.0 54.0 C 588.1 54.0 587.8 53.9 587.5 53.8 C 582.6 53.9 582.1 54.1 583.4 54.4 C 582.6 54.6 581.5 54.2 578.7 54.3 C 578.7 54.3 578.7 54.3 578.7 54.3 Z M 494.7 5.8 C 497.6 5.6 491.6 5.8 488.9 5.8 C 492.2 5.8 490.9 6.1 494.5 6.2 C 493.3 6.1 493.5 6.0 495.8 6.0 C 496.5 5.9 491.4 5.8 494.7 5.8 C 494.7 5.8 494.7 5.8 494.7 5.8 Z M 379.8 5.8 C 378.6 5.6 372.5 5.7 369.3 5.7 C 369.8 6.1 377.7 5.5 378.7 5.9 C 380.5 5.9 377.7 5.8 379.8 5.8 C 379.8 5.8 379.8 5.8 379.8 5.8 Z M 596.7 27.9 C 596.7 26.7 596.7 27.4 596.7 27.9 C 596.5 27.6 596.6 25.1 596.6 23.3 C 596.4 25.9 596.3 22.8 596.1 23.4 C 596.1 22.1 596.1 21.4 596.0 21.2 C 596.5 21.0 595.8 14.2 595.7 21.4 C 595.9 20.0 595.9 20.5 596.0 23.5 C 595.8 26.7 596.0 29.2 595.8 30.3 C 595.8 32.4 595.9 33.2 595.9 35.9 C 595.7 36.5 595.6 39.0 595.3 36.8 C 595.3 41.6 595.9 38.6 595.9 42.7 C 595.8 46.5 595.7 40.6 595.5 41.4 C 595.5 42.4 595.4 42.1 595.3 42.4 C 595.3 43.8 595.5 43.9 595.5 42.5 C 595.6 43.0 595.8 47.0 595.5 45.8 C 595.7 48.1 596.3 42.7 596.0 39.4 C 596.0 37.5 596.5 37.6 596.4 39.5 C 596.6 38.9 596.1 35.0 596.6 36.1 C 596.6 34.5 596.6 33.0 596.6 31.4 C 596.5 31.7 596.5 32.6 596.4 32.5 C 596.4 31.1 596.4 29.5 596.4 27.9 C 596.5 29.3 596.6 29.3 596.7 27.9 C 596.7 27.9 596.7 27.9 596.7 27.9 Z M 395.1 5.8 C 392.2 5.8 391.4 6.0 389.1 6.0 C 390.0 6.2 396.4 6.1 395.1 5.8 C 395.1 5.8 395.1 5.8 395.1 5.8 Z M 558.0 53.6 C 558.4 53.6 560.4 53.6 560.5 53.7 C 557.0 53.8 561.2 53.9 558.7 54.4 C 563.2 54.1 564.3 53.6 557.8 53.4 C 553.3 53.4 562.6 53.5 558.0 53.6 C 558.0 53.6 558.0 53.6 558.0 53.6 Z M 572.3 53.7 C 575.0 53.6 567.7 53.5 566.0 53.4 C 566.0 53.3 565.9 53.2 565.8 53.2 C 562.2 53.5 567.7 53.6 564.4 54.1 C 569.1 54.2 571.2 54.3 575.0 54.2 C 574.7 54.1 573.9 54.1 573.9 54.2 C 570.9 54.2 572.6 53.8 575.9 54.0 C 574.9 53.8 572.1 53.8 570.0 53.8 C 570.6 53.9 571.3 53.9 571.3 54.0 C 568.9 54.1 569.6 53.9 567.8 53.9 C 567.7 53.8 572.0 53.6 572.3 53.7 C 572.3 53.7 572.3 53.7 572.3 53.7 Z M 341.8 54.1 C 344.2 54.1 339.1 53.8 339.1 53.4 C 336.6 53.4 336.1 53.4 334.5 53.5 C 335.4 53.6 338.1 53.7 339.4 53.8 C 339.1 54.1 335.7 53.7 334.8 54.0 C 333.5 54.3 340.6 53.8 341.8 54.1 C 341.8 54.1 341.8 54.1 341.8 54.1 Z M 563.5 6.2 C 562.2 6.3 562.8 6.3 563.4 6.3 C 563.1 6.4 561.0 6.4 561.1 6.3 C 559.3 6.4 562.0 6.5 559.8 6.5 C 559.2 6.6 563.1 6.5 563.3 6.4 C 566.0 6.4 563.6 6.7 564.2 6.8 C 566.5 6.8 565.9 6.6 569.0 6.6 C 567.2 6.5 565.6 6.4 563.5 6.2 C 563.5 6.2 563.5 6.2 563.5 6.2 Z M 550.3 54.0 C 550.0 54.1 552.7 53.7 556.0 53.9 C 560.1 53.9 553.2 53.6 556.9 53.6 C 553.8 53.6 550.2 53.8 545.4 53.8 C 544.4 53.9 552.1 53.8 547.9 54.0 C 548.2 54.0 549.2 54.0 549.1 54.0 C 550.0 53.9 550.2 54.0 550.3 54.0 C 550.3 54.0 550.3 54.0 550.3 54.0 Z M 554.5 53.5 C 554.2 53.4 553.2 53.4 553.2 53.5 C 551.7 53.5 551.5 53.2 553.0 53.2 C 550.8 53.0 551.4 53.5 547.3 53.3 C 549.2 53.5 550.1 53.7 546.3 53.5 C 543.5 53.7 553.3 53.6 554.5 53.5 C 554.5 53.5 554.5 53.5 554.5 53.5 Z M 379.2 54.0 C 378.8 53.8 376.3 53.9 374.5 53.9 C 376.6 53.7 386.2 53.8 387.4 54.0 C 388.4 53.9 389.4 53.9 389.8 54.0 C 389.7 53.9 392.2 53.8 390.8 53.7 C 391.0 53.6 393.0 53.7 393.0 53.5 C 396.6 53.6 392.1 53.7 393.2 53.9 C 397.3 53.6 396.5 53.8 401.4 53.9 C 400.5 53.6 395.0 53.7 395.3 53.4 C 391.6 53.7 387.2 53.5 384.7 53.2 C 388.6 53.6 375.0 53.8 368.5 53.7 C 368.7 53.6 366.4 53.6 363.7 53.5 C 361.7 53.2 362.6 53.8 366.1 53.6 C 366.1 53.8 361.2 53.7 359.2 53.7 C 361.7 53.8 360.4 54.0 361.7 54.0 C 366.2 54.0 362.1 54.0 362.8 53.8 C 363.9 53.8 365.1 53.8 366.3 53.8 C 360.4 54.2 375.2 53.8 369.8 53.9 C 374.6 53.8 374.8 54.1 379.2 54.0 C 379.2 54.0 379.2 54.0 379.2 54.0 Z M 489.3 54.0 C 490.1 54.0 493.7 53.8 494.0 54.0 C 498.7 53.8 494.3 53.6 499.6 53.6 C 499.2 53.5 497.2 53.6 497.1 53.5 C 495.1 53.5 493.1 53.6 493.9 53.9 C 491.5 53.8 490.9 53.9 489.3 54.0 C 489.8 53.9 490.6 53.8 492.7 53.8 C 492.9 53.6 491.9 53.4 488.9 53.5 C 487.7 53.7 488.7 53.9 489.3 54.0 C 489.3 54.0 489.3 54.0 489.3 54.0 Z M 500.8 53.7 C 501.5 53.8 502.2 53.8 502.2 54.0 C 504.1 54.2 502.6 53.6 504.3 53.6 C 505.7 53.6 505.3 53.8 505.7 53.9 C 507.7 53.8 509.2 53.8 510.3 53.9 C 513.4 53.7 506.5 53.7 505.4 53.6 C 503.1 53.6 504.1 53.8 500.8 53.7 C 500.8 53.7 500.8 53.7 500.8 53.7 Z M 536.2 54.0 C 537.0 54.2 537.9 53.8 539.6 53.9 C 538.2 53.6 534.9 53.8 536.9 53.5 C 533.4 53.4 533.2 53.4 529.8 53.5 C 527.5 53.3 529.9 53.7 533.5 53.6 C 533.1 53.7 531.5 53.7 531.4 53.8 C 528.7 53.3 523.4 54.1 526.6 53.7 C 527.7 53.8 528.5 53.9 529.1 54.0 C 529.7 53.7 537.8 53.9 536.2 54.0 C 536.2 54.0 536.2 54.0 536.2 54.0 Z M 587.7 6.7 C 592.0 6.7 592.3 6.7 595.9 6.7 C 595.9 7.1 595.9 7.4 595.9 7.8 C 595.8 8.0 595.7 7.7 595.7 6.9 C 595.6 8.0 595.6 9.3 595.7 11.2 C 595.8 11.1 595.7 10.1 595.7 10.2 C 595.9 6.4 595.9 9.5 596.1 9.8 C 596.1 8.6 596.2 7.5 596.1 6.4 C 593.1 6.5 590.4 6.6 589.1 6.4 C 587.3 6.5 589.3 6.5 587.7 6.7 C 587.7 6.7 587.7 6.7 587.7 6.7 Z M 99.3 53.7 C 98.6 53.8 96.7 53.8 97.0 54.0 C 98.7 53.9 100.0 53.8 101.7 53.8 C 98.4 53.7 98.8 53.4 94.6 53.4 C 95.9 53.5 95.6 53.8 99.3 53.7 C 99.3 53.7 99.3 53.7 99.3 53.7 Z M 524.4 53.9 C 524.2 53.8 523.9 53.6 525.3 53.6 C 525.6 53.4 521.9 53.5 521.7 53.4 C 520.4 53.4 521.0 53.5 519.4 53.6 C 520.1 53.7 523.1 53.6 522.1 53.9 C 521.1 53.9 520.9 53.8 520.8 53.8 C 518.5 53.9 522.2 54.0 524.4 53.9 C 524.4 53.9 524.4 53.9 524.4 53.9 Z M 330.1 53.9 C 331.6 53.8 330.0 53.7 328.7 53.7 C 332.0 53.5 326.4 53.3 326.1 53.1 C 327.7 53.3 332.3 53.2 333.1 53.2 C 334.5 53.2 332.7 53.0 336.5 52.9 C 335.9 52.7 331.9 52.9 333.0 53.1 C 331.8 52.8 328.0 53.1 328.2 52.8 C 322.9 52.8 321.8 53.0 321.5 53.2 C 326.6 53.1 324.2 53.5 328.6 53.5 C 328.6 53.5 327.2 53.5 326.3 53.6 C 326.8 53.7 328.7 53.8 330.1 53.9 C 330.1 53.9 330.1 53.9 330.1 53.9 Z M 451.8 53.9 C 454.4 53.9 454.1 53.7 453.9 53.5 C 452.9 53.5 451.3 53.6 449.2 53.6 C 449.8 53.7 452.9 53.6 451.8 53.9 C 451.8 53.9 451.8 53.9 451.8 53.9 Z M 348.6 53.6 C 348.9 53.6 349.8 53.6 349.7 53.6 C 352.7 53.5 353.5 53.7 354.6 53.8 C 356.1 53.8 355.5 53.6 355.5 53.5 C 352.9 53.7 353.3 53.4 349.6 53.4 C 349.9 53.5 349.5 53.5 348.6 53.6 C 348.6 53.6 348.6 53.6 348.6 53.6 Z M 427.1 53.7 C 428.5 53.7 427.7 53.6 427.0 53.6 C 428.4 53.4 433.4 53.6 435.1 53.5 C 435.2 53.3 429.3 53.3 436.1 53.2 C 434.7 53.0 428.7 53.2 425.6 53.2 C 426.1 52.9 430.3 53.0 429.9 52.7 C 426.3 52.8 422.5 53.0 422.1 53.3 C 427.4 53.3 425.7 53.6 427.1 53.7 C 427.1 53.7 427.1 53.7 427.1 53.7 Z M 421.2 53.6 C 421.7 53.7 422.6 53.5 424.6 53.6 C 421.5 53.3 419.9 53.4 413.9 53.3 C 414.0 53.4 414.0 53.4 414.0 53.5 C 412.9 53.5 411.6 53.5 410.5 53.5 C 415.8 53.7 416.9 53.6 422.2 53.5 C 422.5 53.5 421.8 53.5 421.2 53.6 C 421.2 53.6 421.2 53.6 421.2 53.6 Z M 578.0 53.6 C 576.2 53.4 574.7 53.3 571.8 53.2 C 572.3 53.5 574.1 53.6 578.0 53.6 C 578.0 53.6 578.0 53.6 578.0 53.6 Z M 343.8 53.4 C 340.7 53.5 346.9 53.4 344.8 53.2 C 342.3 53.1 339.5 53.0 338.8 52.8 C 334.3 53.1 344.2 53.1 343.8 53.4 C 343.8 53.4 343.8 53.4 343.8 53.4 Z M 364.5 52.8 C 365.9 52.9 366.1 53.2 364.6 53.0 C 361.3 53.0 367.6 53.2 362.4 53.2 C 364.6 53.3 369.6 53.4 371.8 53.2 C 371.5 53.0 367.2 53.1 366.9 52.9 C 366.6 52.8 367.3 52.8 368.0 52.8 C 367.5 52.7 366.5 52.9 364.5 52.8 C 364.5 52.8 364.5 52.8 364.5 52.8 Z M 382.3 53.2 C 380.3 53.1 377.9 53.0 373.9 53.0 C 376.6 53.2 378.3 53.4 382.3 53.2 C 382.3 53.2 382.3 53.2 382.3 53.2 Z M 161.2 52.9 C 164.0 52.9 161.4 52.6 161.1 52.6 C 158.2 52.6 158.5 52.7 155.2 52.7 C 156.3 53.0 159.3 52.6 161.2 52.9 C 161.2 52.9 161.2 52.9 161.2 52.9 Z M 150.6 52.7 C 150.3 52.6 146.2 52.7 145.9 52.5 C 143.6 53.0 139.8 52.2 140.0 52.6 C 139.1 52.5 138.2 52.5 136.5 52.5 C 139.9 52.9 147.1 52.8 150.6 52.7 C 150.6 52.7 150.6 52.7 150.6 52.7 Z M 401.9 52.7 C 405.0 52.8 400.7 52.4 404.0 52.4 C 404.1 52.3 397.9 52.3 401.5 52.2 C 396.6 52.0 402.2 52.7 401.9 52.7 C 401.9 52.7 401.9 52.7 401.9 52.7 Z M 458.9 52.5 C 458.8 52.7 463.1 52.5 464.8 52.6 C 464.7 52.5 463.4 52.5 462.5 52.5 C 462.9 52.4 463.4 52.4 464.6 52.4 C 463.6 52.2 460.6 52.5 458.9 52.5 C 458.9 52.5 458.9 52.5 458.9 52.5 Z M 398.7 56.9 C 396.6 56.7 394.0 56.5 392.8 56.8 C 390.6 56.6 394.0 56.6 391.4 56.4 C 388.2 56.6 389.6 56.3 384.3 56.4 C 385.2 56.1 381.3 56.2 380.5 56.0 C 382.6 55.9 385.5 56.2 386.4 56.0 C 384.6 56.0 385.5 55.7 386.4 55.9 C 390.0 56.0 382.2 56.2 386.7 56.4 C 387.7 56.0 394.4 56.6 398.5 56.6 C 397.0 56.8 401.8 56.9 398.7 56.9 C 398.7 56.9 398.7 56.9 398.7 56.9 Z M 377.3 56.4 C 374.5 56.4 372.7 55.9 373.5 56.0 C 373.5 56.1 376.7 56.1 377.0 56.0 C 376.2 55.9 375.5 55.9 375.7 55.9 C 381.0 55.9 379.3 56.1 380.7 56.3 C 377.9 56.4 377.0 56.2 376.0 56.4 C 376.7 56.4 377.4 56.4 377.3 56.4 C 377.3 56.4 377.3 56.4 377.3 56.4 Z M 312.9 52.4 C 313.5 52.6 314.1 52.4 315.2 52.4 C 315.6 52.7 321.3 52.2 322.2 52.4 C 320.9 52.5 317.8 52.6 316.5 52.7 C 318.1 52.7 318.5 52.8 320.0 52.7 C 319.8 52.9 316.4 52.9 315.6 53.1 C 315.2 52.9 313.7 53.1 313.2 53.0 C 317.6 52.9 310.2 52.4 312.9 52.4 C 312.9 52.4 312.9 52.4 312.9 52.4 Z M 428.5 52.4 C 428.7 52.2 423.3 51.6 427.7 51.3 C 428.8 51.5 429.6 51.7 429.4 52.0 C 432.2 51.9 433.6 52.1 435.1 51.9 C 441.0 52.6 431.0 51.8 428.5 52.4 C 428.5 52.4 428.5 52.4 428.5 52.4 Z M 447.1 52.2 C 446.2 52.4 448.8 52.4 448.5 52.6 C 446.1 52.4 439.0 52.7 441.4 52.5 C 443.7 52.4 443.6 52.2 447.1 52.2 C 447.1 52.2 447.1 52.2 447.1 52.2 Z M 310.7 6.1 C 314.4 5.9 316.4 6.4 314.2 6.5 C 315.1 6.2 309.4 6.4 310.7 6.1 C 310.7 6.1 310.7 6.1 310.7 6.1 Z M 448.4 2.2 C 445.0 2.1 443.0 2.2 442.7 2.0 C 446.1 1.9 445.6 2.1 448.5 2.1 C 448.8 2.0 450.6 1.9 450.9 2.0 C 449.3 2.0 449.5 2.2 448.4 2.2 C 448.4 2.2 448.4 2.2 448.4 2.2 Z M 523.2 57.9 C 523.6 58.0 525.0 58.0 524.6 58.2 C 521.0 58.1 517.1 58.3 514.2 58.4 C 514.1 58.3 514.0 58.2 514.0 58.1 C 519.7 58.2 521.0 58.0 523.2 57.9 C 523.2 57.9 523.2 57.9 523.2 57.9 Z M 530.7 58.4 C 531.2 58.2 529.0 57.9 531.5 58.0 C 531.6 58.1 536.3 58.4 534.3 58.4 C 533.4 58.3 532.3 58.3 530.7 58.4 C 530.7 58.4 530.7 58.4 530.7 58.4 Z M 331.8 57.1 C 329.0 57.1 333.2 57.3 333.1 57.4 C 331.0 57.3 328.2 57.4 327.2 57.2 C 329.3 57.3 330.5 56.9 331.8 57.1 C 331.8 57.1 331.8 57.1 331.8 57.1 Z M 375.0 56.5 C 381.0 56.5 378.7 56.9 384.7 57.0 C 382.4 57.2 376.9 57.1 375.5 57.3 C 375.6 57.2 374.1 57.1 374.1 57.0 C 376.3 57.0 376.7 57.1 378.9 57.1 C 377.9 56.8 378.0 56.9 378.6 56.7 C 377.0 56.7 376.0 56.7 375.1 56.8 C 375.5 56.6 373.3 56.5 375.0 56.5 C 375.0 56.5 375.0 56.5 375.0 56.5 Z M 332.6 56.4 C 330.2 56.5 328.0 56.2 330.1 56.2 C 330.5 56.3 332.0 56.2 332.5 56.3 C 329.1 56.3 335.3 56.4 333.8 56.6 C 331.8 56.6 331.1 56.7 331.7 56.8 C 330.3 56.8 328.2 56.8 328.1 56.8 C 329.0 56.7 330.4 56.8 330.3 56.7 C 329.6 56.7 328.9 56.7 329.1 56.6 C 331.2 56.6 332.1 56.5 332.6 56.4 C 332.6 56.4 332.6 56.4 332.6 56.4 Z M 349.0 56.4 C 345.8 56.4 345.3 56.2 344.1 56.0 C 348.5 56.1 349.4 56.4 352.7 56.6 C 349.1 56.5 345.7 56.8 344.4 56.7 C 346.0 56.6 348.9 56.6 349.0 56.4 C 349.0 56.4 349.0 56.4 349.0 56.4 Z M 4.6 4.5 C 7.5 4.6 10.0 4.8 13.2 4.9 C 13.9 4.6 7.7 4.2 10.3 4.3 C 13.5 4.3 11.6 4.6 14.2 4.6 C 11.3 4.3 25.0 4.3 25.9 4.6 C 23.8 4.6 23.2 4.7 23.8 4.9 C 18.3 4.9 16.3 5.1 12.2 5.1 C 10.6 5.0 7.8 4.9 4.7 4.9 C 4.7 8.1 4.7 11.7 4.9 14.3 C 4.4 17.1 4.9 23.1 4.6 27.2 C 4.7 28.4 4.8 23.7 4.9 27.4 C 4.6 29.6 4.5 27.6 4.4 30.7 C 4.5 31.0 4.7 30.4 4.7 32.0 C 4.6 31.7 4.6 33.7 4.5 34.4 C 4.5 27.9 4.2 34.6 4.1 29.4 C 4.2 27.3 4.5 31.8 4.5 26.0 C 4.4 23.8 4.3 21.8 4.1 22.1 C 4.1 20.4 4.1 19.5 4.0 18.4 C 4.3 20.8 3.9 10.1 4.3 15.0 C 4.3 15.4 4.2 18.7 4.3 21.1 C 4.6 19.2 4.4 16.5 4.3 12.6 C 4.5 11.3 4.6 13.6 4.7 11.7 C 4.5 8.7 4.3 12.5 4.2 10.2 C 4.2 11.1 4.2 12.5 4.1 12.4 C 4.3 8.5 4.2 6.3 4.1 4.3 C 4.6 4.3 5.0 4.2 5.5 4.2 C 4.0 4.4 8.6 4.5 4.6 4.5 C 4.6 4.5 4.6 4.5 4.6 4.5 Z M 4.7 47.6 C 4.7 48.8 4.7 49.9 4.7 51.2 C 4.4 51.4 4.4 46.8 4.2 49.9 C 4.2 44.6 4.5 50.2 4.7 47.6 C 4.7 47.6 4.7 47.6 4.7 47.6 Z M 5.5 24.3 C 5.8 22.7 5.2 23.3 5.2 21.7 C 5.3 24.6 5.3 27.3 5.1 27.5 C 5.1 24.2 5.1 22.7 5.1 19.1 C 5.4 22.7 5.3 15.7 5.6 14.9 C 5.7 17.5 5.8 19.7 5.8 23.2 C 5.7 22.5 5.6 27.6 5.5 24.3 C 5.5 24.3 5.5 24.3 5.5 24.3 Z M 5.9 33.8 C 5.7 34.4 5.8 39.6 5.5 38.4 C 5.6 35.3 5.5 34.1 5.3 34.7 C 5.3 32.4 5.4 32.1 5.4 30.0 C 5.7 28.9 5.6 32.6 5.8 33.8 C 5.8 33.1 5.8 32.4 5.9 33.8 C 5.9 33.8 5.9 33.8 5.9 33.8 Z M 72.3 52.9 C 73.3 53.2 68.5 53.1 67.6 53.0 C 69.0 53.2 68.3 53.3 65.3 53.4 C 66.5 53.1 62.1 53.2 59.5 52.8 C 58.8 53.1 62.2 53.2 58.3 53.2 C 55.2 53.1 52.4 53.3 47.8 53.3 C 46.7 53.1 48.8 53.0 50.0 52.9 C 46.8 53.0 47.7 52.7 45.3 52.7 C 45.8 52.9 43.9 53.0 43.1 52.8 C 47.2 52.7 37.6 52.5 41.9 52.4 C 42.1 52.5 43.2 52.5 44.2 52.4 C 43.1 52.8 48.8 52.7 50.0 52.8 C 52.3 52.3 58.3 52.5 65.3 52.7 C 65.7 52.8 63.6 52.9 65.3 52.9 C 65.5 52.8 67.8 52.8 68.8 52.7 C 68.7 52.9 69.6 53.0 71.1 53.0 C 71.2 52.9 71.3 52.9 72.3 52.9 C 72.3 52.9 72.3 52.9 72.3 52.9 Z M 198.7 7.1 C 198.6 7.6 206.0 7.3 208.0 7.2 C 207.8 7.7 194.6 7.5 198.7 7.1 C 198.7 7.1 198.7 7.1 198.7 7.1 Z M 153.3 7.4 C 155.2 7.4 153.8 7.2 155.5 7.2 C 155.7 7.5 159.9 7.0 160.1 7.2 C 158.1 7.4 156.7 7.4 153.3 7.4 C 153.3 7.4 153.3 7.4 153.3 7.4 Z M 111.2 7.4 C 114.6 7.3 109.3 7.2 109.9 7.1 C 112.9 7.1 115.9 7.1 115.9 7.4 C 113.2 7.3 111.7 7.6 111.2 7.4 C 111.2 7.4 111.2 7.4 111.2 7.4 Z M 174.3 7.7 C 177.2 7.8 172.7 8.1 172.2 7.9 C 175.2 7.9 170.0 7.7 167.4 7.8 C 167.4 7.5 168.6 7.5 167.2 7.3 C 171.2 7.2 168.0 7.6 170.8 7.5 C 172.7 7.4 170.7 7.4 170.7 7.2 C 171.8 7.2 173.0 7.2 174.1 7.2 C 174.2 7.3 174.2 7.5 174.3 7.6 C 172.9 7.6 171.6 7.6 172.1 7.8 C 173.2 7.8 173.4 7.7 174.3 7.7 C 174.3 7.7 174.3 7.7 174.3 7.7 Z M 11.5 52.4 C 9.7 52.4 11.3 52.6 12.6 52.6 C 13.0 52.5 14.1 52.0 16.2 52.3 C 11.6 52.5 17.5 52.6 15.0 52.8 C 14.0 52.5 11.3 52.8 9.1 52.8 C 8.2 52.6 10.5 52.2 11.5 52.4 C 11.5 52.4 11.5 52.4 11.5 52.4 Z M 19.7 52.6 C 19.5 52.5 18.7 52.5 17.3 52.5 C 18.8 52.3 16.7 52.3 18.5 52.2 C 18.3 52.3 24.5 52.4 20.8 52.4 C 17.6 52.3 21.7 52.6 23.2 52.6 C 21.6 52.6 18.8 52.9 18.4 52.7 C 19.2 52.7 19.9 52.7 19.7 52.6 C 19.7 52.6 19.7 52.6 19.7 52.6 Z M 95.5 52.3 C 96.0 52.1 93.9 52.1 93.2 52.0 C 99.1 52.1 104.3 52.1 107.2 52.1 C 104.5 52.1 104.5 52.3 106.1 52.4 C 103.2 52.3 102.5 52.5 101.5 52.3 C 103.9 52.2 99.2 52.3 95.5 52.3 C 95.5 52.3 95.5 52.3 95.5 52.3 Z M 95.5 52.3 " fill="#000000"></path><g><clipPath id="clip-428"><path d="M 5.4 5.5 L 597.1 5.5 L 597.1 54.9 L 5.4 54.9 Z M 5.4 5.5 "></path></clipPath><g clip-path="url(#clip-428)"><text xml:space="preserve" font-family="CourierNewPS-BoldMT" font-weight="bold" font-size="29.0" fill="#000000" transform="matrix(1.00, 0.00, -0.00, -1.00, 14.0, 22.0)">&lt;</text><text xml:space="preserve" font-family="CourierNewPS-BoldMT" font-weight="bold" font-size="29.0" fill="#000000" transform="matrix(1.00, 0.00, -0.00, -1.00, 31.4, 22.0)">s</text><text xml:space="preserve" font-family="CourierNewPS-BoldMT" font-weight="bold" font-size="29.0" fill="#000000" transform="matrix(1.00, 0.00, -0.00, -1.00, 48.8, 22.0)">c</text><text xml:space="preserve" font-family="CourierNewPS-BoldMT" font-weight="bold" font-size="29.0" fill="#000000" transform="matrix(1.00, 0.00, -0.00, -1.00, 66.2, 22.0)">r</text><text xml:space="preserve" font-family="CourierNewPS-BoldMT" font-weight="bold" font-size="29.0" fill="#000000" transform="matrix(1.00, 0.00, -0.00, -1.00, 83.6, 22.0)">i</text><text xml:space="preserve" font-family="CourierNewPS-BoldMT" font-weight="bold" font-size="29.0" fill="#000000" transform="matrix(1.00, 0.00, -0.00, -1.00, 101.0, 22.0)">p</text><text xml:space="preserve" font-family="CourierNewPS-BoldMT" font-weight="bold" font-size="29.0" fill="#000000" transform="matrix(1.00, 0.00, -0.00, -1.00, 118.4, 22.0)">t</text><text xml:space="preserve" font-family="CourierNewPS-BoldMT" font-weight="bold" font-size="29.0" fill="#000000" transform="matrix(1.00, 0.00, -0.00, -1.00, 135.8, 22.0)"> </text><text xml:space="preserve" font-family="CourierNewPS-BoldMT" font-weight="bold" font-size="29.0" fill="#000000" transform="matrix(1.00, 0.00, -0.00, -1.00, 153.2, 22.0)">s</text><text xml:space="preserve" font-family="CourierNewPS-BoldMT" font-weight="bold" font-size="29.0" fill="#000000" transform="matrix(1.00, 0.00, -0.00, -1.00, 170.7, 22.0)">r</text><text xml:space="preserve" font-family="CourierNewPS-BoldMT" font-weight="bold" font-size="29.0" fill="#000000" transform="matrix(1.00, 0.00, -0.00, -1.00, 188.1, 22.0)">c</text><text xml:space="preserve" font-family="CourierNewPS-BoldMT" font-weight="bold" font-size="29.0" fill="#000000" transform="matrix(1.00, 0.00, -0.00, -1.00, 205.5, 22.0)">=</text><text xml:space="preserve" font-family="CourierNewPS-BoldMT" font-weight="bold" font-size="29.0" fill="#000000" transform="matrix(1.00, 0.00, -0.00, -1.00, 222.9, 22.0)">"</text><text xml:space="preserve" font-family="CourierNewPS-BoldMT" font-weight="bold" font-size="29.0" fill="#000000" transform="matrix(1.00, 0.00, -0.00, -1.00, 240.3, 22.0)">s</text><text xml:space="preserve" font-family="CourierNewPS-BoldMT" font-weight="bold" font-size="29.0" fill="#000000" transform="matrix(1.00, 0.00, -0.00, -1.00, 257.7, 22.0)">c</text><text xml:space="preserve" font-family="CourierNewPS-BoldMT" font-weight="bold" font-size="29.0" fill="#000000" transform="matrix(1.00, 0.00, -0.00, -1.00, 275.1, 22.0)">r</text><text xml:space="preserve" font-family="CourierNewPS-BoldMT" font-weight="bold" font-size="29.0" fill="#000000" transform="matrix(1.00, 0.00, -0.00, -1.00, 292.5, 22.0)">i</text><text xml:space="preserve" font-family="CourierNewPS-BoldMT" font-weight="bold" font-size="29.0" fill="#000000" transform="matrix(1.00, 0.00, -0.00, -1.00, 309.9, 22.0)">p</text><text xml:space="preserve" font-family="CourierNewPS-BoldMT" font-weight="bold" font-size="29.0" fill="#000000" transform="matrix(1.00, 0.00, -0.00, -1.00, 327.3, 22.0)">t</text><text xml:space="preserve" font-family="CourierNewPS-BoldMT" font-weight="bold" font-size="29.0" fill="#000000" transform="matrix(1.00, 0.00, -0.00, -1.00, 344.7, 22.0)">.</text><text xml:space="preserve" font-family="CourierNewPS-BoldMT" font-weight="bold" font-size="29.0" fill="#000000" transform="matrix(1.00, 0.00, -0.00, -1.00, 362.1, 22.0)">j</text><text xml:space="preserve" font-family="CourierNewPS-BoldMT" font-weight="bold" font-size="29.0" fill="#000000" transform="matrix(1.00, 0.00, -0.00, -1.00, 379.5, 22.0)">s</text><text xml:space="preserve" font-family="CourierNewPS-BoldMT" font-weight="bold" font-size="29.0" fill="#000000" transform="matrix(1.00, 0.00, -0.00, -1.00, 396.9, 22.0)">"</text><text xml:space="preserve" font-family="CourierNewPS-BoldMT" font-weight="bold" font-size="29.0" fill="#000000" transform="matrix(1.00, 0.00, -0.00, -1.00, 414.3, 22.0)">&gt;</text><text xml:space="preserve" font-family="CourierNewPS-BoldMT" font-weight="bold" font-size="29.0" fill="#000000" transform="matrix(1.00, 0.00, -0.00, -1.00, 431.7, 22.0)">&lt;</text><text xml:space="preserve" font-family="CourierNewPS-BoldMT" font-weight="bold" font-size="29.0" fill="#000000" transform="matrix(1.00, 0.00, -0.00, -1.00, 449.1, 22.0)">/</text><text xml:space="preserve" font-family="CourierNewPS-BoldMT" font-weight="bold" font-size="29.0" fill="#000000" transform="matrix(1.00, 0.00, -0.00, -1.00, 466.5, 22.0)">s</text><text xml:space="preserve" font-family="CourierNewPS-BoldMT" font-weight="bold" font-size="29.0" fill="#000000" transform="matrix(1.00, 0.00, -0.00, -1.00, 484.0, 22.0)">c</text><text xml:space="preserve" font-family="CourierNewPS-BoldMT" font-weight="bold" font-size="29.0" fill="#000000" transform="matrix(1.00, 0.00, -0.00, -1.00, 501.4, 22.0)">r</text><text xml:space="preserve" font-family="CourierNewPS-BoldMT" font-weight="bold" font-size="29.0" fill="#000000" transform="matrix(1.00, 0.00, -0.00, -1.00, 518.8, 22.0)">i</text><text xml:space="preserve" font-family="CourierNewPS-BoldMT" font-weight="bold" font-size="29.0" fill="#000000" transform="matrix(1.00, 0.00, -0.00, -1.00, 536.2, 22.0)">p</text><text xml:space="preserve" font-family="CourierNewPS-BoldMT" font-weight="bold" font-size="29.0" fill="#000000" transform="matrix(1.00, 0.00, -0.00, -1.00, 553.6, 22.0)">t</text><text xml:space="preserve" font-family="CourierNewPS-BoldMT" font-weight="bold" font-size="29.0" fill="#000000" transform="matrix(1.00, 0.00, -0.00, -1.00, 571.0, 22.0)">&gt;</text></g></g></g></svg>