<?xml version="1.0" encoding="UTF-8" standalone="no"?><svg xmlns="http://www.w3.org/2000/svg" xmlns:xlink="http://www.w3.org/1999/xlink" clip-rule="evenodd" stroke-miterlimit="4.00" viewBox="0 0 626 257"><desc>SVG generated by Keynote</desc><defs></defs><g transform="matrix(1.00, 0.00, -0.00, -1.00, 0.0, 257.0)"><g><clipPath id="clip-429"><path d="M 599.3 256.1 L 599.3 57.4 L 571.1 57.4 L 571.1 256.1 Z M 599.3 256.1 "></path></clipPath><g clip-path="url(#clip-429)"><path d="M 581.0 248.1 C 581.0 249.9 581.3 252.3 584.0 252.6 C 586.6 252.9 588.7 251.0 588.7 248.2 C 588.7 245.5 587.3 246.3 587.3 239.9 C 587.3 237.6 582.4 237.4 582.4 239.8 C 582.4 245.5 581.0 244.7 581.0 248.1 C 581.0 248.1 581.0 248.1 581.0 248.1 Z M 588.7 80.7 C 588.7 77.4 587.5 76.1 584.9 76.0 C 582.2 76.0 580.9 77.8 580.9 80.7 C 580.9 83.7 582.4 83.5 582.4 88.4 C 582.3 91.1 587.2 90.6 587.2 88.5 C 587.2 83.3 588.7 84.0 588.7 80.7 C 588.7 80.7 588.7 80.7 588.7 80.7 Z M 582.4 239.7 C 582.4 241.8 587.3 241.8 587.3 239.3 C 587.3 236.7 586.4 231.1 586.5 229.6 C 586.6 228.1 587.5 223.9 587.5 222.6 C 587.5 221.3 586.1 215.0 586.5 212.3 C 586.9 209.6 586.7 208.9 586.7 207.0 C 586.7 205.1 586.4 202.2 586.3 200.4 C 586.2 198.6 587.5 197.1 587.1 194.7 C 586.8 192.4 587.3 191.2 587.3 189.6 C 587.3 187.0 582.4 187.2 582.4 189.6 C 582.4 191.9 582.1 193.4 582.2 195.4 C 582.3 197.3 582.8 199.0 582.3 200.9 C 581.8 202.7 582.3 206.3 582.6 208.6 C 582.9 210.8 582.8 213.3 582.6 215.0 C 582.2 218.6 583.1 227.0 582.7 228.3 C 582.3 229.5 582.7 233.3 582.7 234.7 C 582.7 236.1 582.4 236.8 582.4 239.7 C 582.4 239.7 582.4 239.7 582.4 239.7 Z M 587.3 139.4 C 587.3 137.0 582.4 136.6 582.4 139.4 C 582.4 142.1 582.8 147.2 582.7 148.7 C 582.6 150.2 582.3 156.4 582.3 157.7 C 582.3 159.0 583.1 163.6 582.6 166.3 C 582.2 169.0 583.0 171.7 582.8 173.5 C 582.5 175.8 582.8 177.0 582.9 178.8 C 583.0 180.6 582.0 183.3 582.4 184.8 C 582.9 186.3 582.4 187.1 582.4 189.2 C 582.4 191.3 587.3 191.3 587.3 189.3 C 587.3 187.4 587.2 185.7 587.1 183.7 C 587.0 181.8 586.9 179.4 586.9 177.3 C 586.9 175.3 587.5 172.5 587.2 170.2 C 586.9 168.0 586.7 164.8 586.7 163.5 C 586.6 161.8 586.8 158.4 586.5 156.9 C 586.1 155.0 586.7 151.7 587.1 150.5 C 587.5 149.2 586.9 148.4 587.0 145.8 C 587.1 144.2 587.3 141.7 587.3 139.4 C 587.3 139.4 587.3 139.4 587.3 139.4 Z M 587.3 138.7 C 587.3 136.0 586.6 131.6 586.6 130.5 C 586.6 129.4 587.0 125.8 586.9 124.1 C 586.8 122.4 586.4 121.8 586.3 119.0 C 586.2 115.4 586.6 113.0 586.7 112.9 C 586.9 112.3 587.4 110.6 587.2 108.2 C 587.0 105.0 587.5 104.0 587.3 102.6 C 586.7 100.1 587.2 99.9 587.1 98.0 C 587.0 96.1 587.2 94.9 587.0 93.4 C 586.7 91.8 587.3 90.6 587.3 89.1 C 587.3 86.7 582.4 86.9 582.4 89.1 C 582.4 90.5 582.9 91.7 582.9 93.2 C 582.9 94.6 582.8 95.8 582.6 97.3 C 582.4 98.7 582.7 101.6 582.6 104.0 C 582.5 106.3 582.2 110.2 582.3 112.8 C 582.4 115.5 583.5 117.2 582.8 122.7 C 582.5 124.5 582.8 128.0 582.8 129.4 C 582.8 132.0 582.4 136.8 582.4 138.9 C 582.4 141.4 587.3 141.3 587.3 138.7 C 587.3 138.7 587.3 138.7 587.3 138.7 Z M 581.0 79.1 C 581.0 79.1 581.1 79.1 581.5 79.1 C 581.6 79.1 581.7 79.1 581.8 79.1 C 582.0 79.1 582.2 79.1 582.4 79.1 C 582.6 79.1 582.8 79.1 583.1 79.1 C 583.2 79.1 583.3 79.1 583.5 79.1 C 583.6 79.1 583.8 79.1 584.0 79.1 C 584.1 79.1 584.3 79.1 584.4 79.1 C 584.6 79.1 584.8 79.1 584.9 79.1 C 585.1 79.1 585.2 79.1 585.4 79.1 C 585.5 79.1 585.7 79.1 585.8 79.1 C 586.0 79.1 586.1 79.1 586.2 79.1 C 586.4 79.1 586.5 79.1 586.6 79.1 C 586.9 79.1 587.1 79.1 587.3 79.1 C 587.6 79.1 587.8 79.1 587.9 79.1 C 588.1 79.1 588.2 79.1 588.4 79.1 C 588.6 79.1 588.7 79.1 588.7 79.1 C 588.7 79.1 588.6 79.1 588.5 79.1 C 588.4 79.1 588.2 79.1 588.0 79.1 C 587.8 79.1 587.6 79.1 587.5 79.1 C 587.3 79.1 587.3 79.1 587.3 79.1 C 587.3 79.1 587.2 79.1 587.0 79.1 C 586.9 79.1 586.7 79.1 586.5 79.1 C 586.4 79.1 586.3 79.1 586.1 79.1 C 586.0 79.1 585.8 79.1 585.7 79.1 C 585.6 79.1 585.4 79.1 585.3 79.1 C 585.1 79.1 585.0 79.1 584.8 79.1 C 584.7 79.1 584.5 79.1 584.4 79.1 C 584.2 79.1 584.1 79.1 583.9 79.1 C 583.8 79.1 583.6 79.1 583.5 79.1 C 583.4 79.1 583.2 79.1 583.1 79.1 C 582.9 79.1 582.7 79.1 582.6 79.1 C 582.4 79.1 582.4 79.1 582.4 79.1 C 582.4 79.1 582.0 79.1 581.7 79.1 C 581.3 79.1 581.0 79.1 581.0 79.1 C 581.0 79.1 581.0 79.1 581.0 79.1 C 581.0 79.1 581.0 79.1 581.0 79.1 Z M 588.7 79.1 C 588.7 79.1 588.6 79.1 588.5 79.1 C 588.4 79.1 588.3 79.1 588.2 79.1 C 588.1 79.1 587.9 79.1 587.8 79.1 C 587.6 79.1 587.4 79.1 587.2 79.1 C 587.0 79.1 586.8 79.1 586.6 79.1 C 586.5 79.1 586.3 79.1 586.2 79.1 C 586.1 79.1 585.9 79.1 585.8 79.1 C 585.6 79.1 585.5 79.1 585.3 79.1 C 585.2 79.1 585.0 79.1 584.9 79.1 C 584.7 79.1 584.5 79.1 584.4 79.1 C 584.2 79.1 584.1 79.1 583.9 79.1 C 583.8 79.1 583.6 79.1 583.5 79.1 C 583.4 79.1 583.2 79.1 583.1 79.1 C 582.9 79.1 582.6 79.1 582.4 79.1 C 582.2 79.1 582.0 79.1 581.9 79.1 C 581.7 79.1 581.6 79.1 581.5 79.1 C 581.3 79.1 581.2 79.1 581.2 79.1 C 581.0 79.1 580.9 79.1 580.9 79.1 C 580.9 79.1 581.0 79.1 581.2 79.1 C 581.3 79.1 581.5 79.1 581.7 79.1 C 582.0 79.1 582.4 79.1 582.4 79.1 C 582.3 79.1 582.4 79.1 582.6 79.1 C 582.7 79.1 582.9 79.1 583.1 79.1 C 583.2 79.1 583.3 79.1 583.5 79.1 C 583.6 79.1 583.7 79.1 583.9 79.1 C 584.0 79.1 584.2 79.1 584.3 79.1 C 584.5 79.1 584.6 79.1 584.8 79.1 C 584.9 79.1 585.1 79.1 585.2 79.1 C 585.4 79.1 585.5 79.1 585.7 79.1 C 585.8 79.1 586.0 79.1 586.1 79.1 C 586.2 79.1 586.4 79.1 586.5 79.1 C 586.7 79.1 586.9 79.1 587.0 79.1 C 587.2 79.1 587.2 79.1 587.2 79.1 C 587.2 79.1 587.3 79.1 587.5 79.1 C 587.6 79.1 587.8 79.1 588.0 79.1 C 588.2 79.1 588.4 79.1 588.5 79.1 C 588.6 79.1 588.7 79.1 588.7 79.1 C 588.7 79.1 588.7 79.1 588.7 79.1 C 588.7 79.1 588.7 79.1 588.7 79.1 Z M 588.7 79.1 " fill="#000000"></path><path d="M 585.6 64.5 C 583.1 64.0 583.2 64.4 582.8 65.4 C 582.4 66.3 582.4 66.4 582.4 67.5 C 582.3 68.7 581.4 68.5 581.1 69.1 C 580.7 69.7 579.2 71.2 579.2 72.1 C 579.2 73.1 577.7 73.7 577.6 74.7 C 577.4 75.7 576.7 76.2 576.1 76.9 C 575.4 77.6 575.3 78.7 574.6 79.1 C 573.9 79.5 572.3 80.8 572.1 81.8 C 571.9 82.7 573.2 84.2 574.4 83.8 C 575.7 83.3 576.0 83.1 577.0 83.4 C 577.9 83.8 578.4 83.5 579.6 83.6 C 580.8 83.6 582.2 83.9 582.7 83.9 C 583.2 83.9 583.7 84.9 585.5 84.3 C 587.4 83.8 586.8 84.0 588.7 83.7 C 590.5 83.5 590.6 83.2 591.6 83.3 C 592.6 83.5 593.6 83.0 595.1 83.5 C 596.4 84.0 598.0 83.7 598.2 82.8 C 598.5 81.9 597.8 80.9 596.5 79.8 C 595.3 78.8 594.3 77.9 593.6 76.6 C 593.0 75.3 592.5 74.1 591.6 73.2 C 590.7 72.4 588.2 68.8 587.7 68.0 C 587.2 67.2 587.2 64.8 585.6 64.5 Z M 585.6 64.5 " fill="#000000"></path></g></g><g><clipPath id="clip-430"><path d="M 223.4 121.8 L 223.4 56.8 L 195.2 56.8 L 195.2 121.8 Z M 223.4 121.8 "></path></clipPath><g clip-path="url(#clip-430)"><path d="M 205.0 113.8 C 205.0 115.6 205.3 118.0 208.0 118.3 C 210.7 118.6 212.8 116.7 212.8 114.0 C 212.8 111.2 211.3 112.0 211.3 105.6 C 211.3 103.3 206.4 103.1 206.4 105.5 C 206.4 111.2 205.0 110.4 205.0 113.8 C 205.0 113.8 205.0 113.8 205.0 113.8 Z M 212.8 80.2 C 212.8 76.9 211.5 75.6 208.9 75.5 C 206.2 75.4 205.0 77.3 205.0 80.2 C 205.0 83.1 206.5 83.0 206.4 87.9 C 206.4 90.5 211.3 90.1 211.3 87.9 C 211.3 82.7 212.8 83.5 212.8 80.2 C 212.8 80.2 212.8 80.2 212.8 80.2 Z M 206.4 105.4 C 206.4 106.1 211.3 106.1 211.3 105.3 C 211.3 104.4 210.5 102.5 210.6 101.9 C 210.7 101.4 211.6 100.0 211.6 99.6 C 211.6 99.1 210.2 97.0 210.6 96.1 C 211.0 95.1 210.7 94.9 210.7 94.2 C 210.7 93.6 210.5 92.6 210.3 92.0 C 210.2 91.4 211.5 90.9 211.2 90.1 C 210.8 89.3 211.3 88.8 211.3 88.3 C 211.3 87.4 206.5 87.5 206.5 88.3 C 206.5 89.1 206.1 89.6 206.2 90.3 C 206.3 91.0 206.8 91.5 206.3 92.2 C 205.8 92.8 206.4 94.0 206.7 94.8 C 207.0 95.5 206.9 96.4 206.6 97.0 C 206.3 98.2 207.2 101.1 206.7 101.5 C 206.3 101.9 206.7 103.2 206.7 103.7 C 206.7 104.2 206.4 104.4 206.4 105.4 C 206.4 105.4 206.4 105.4 206.4 105.4 Z M 205.0 78.6 C 205.0 78.6 205.1 78.6 205.5 78.6 C 205.6 78.6 205.7 78.6 205.9 78.6 C 206.0 78.6 206.2 78.6 206.4 78.6 C 206.6 78.6 206.9 78.6 207.1 78.6 C 207.3 78.6 207.4 78.6 207.5 78.6 C 207.7 78.6 207.8 78.6 208.0 78.6 C 208.2 78.6 208.3 78.6 208.5 78.6 C 208.7 78.6 208.8 78.6 209.0 78.6 C 209.1 78.6 209.3 78.6 209.5 78.6 C 209.6 78.6 209.7 78.6 209.9 78.6 C 210.0 78.6 210.2 78.6 210.3 78.6 C 210.4 78.6 210.6 78.6 210.7 78.6 C 211.0 78.6 211.2 78.6 211.4 78.6 C 211.6 78.6 211.8 78.6 212.0 78.6 C 212.2 78.6 212.3 78.6 212.4 78.6 C 212.7 78.6 212.8 78.6 212.8 78.6 C 212.8 78.6 212.7 78.6 212.6 78.6 C 212.4 78.6 212.2 78.6 212.0 78.6 C 211.9 78.6 211.7 78.6 211.5 78.6 C 211.4 78.6 211.3 78.6 211.3 78.6 C 211.3 78.6 211.2 78.6 211.1 78.6 C 211.0 78.6 210.8 78.6 210.6 78.6 C 210.4 78.6 210.3 78.6 210.2 78.6 C 210.0 78.6 209.9 78.6 209.8 78.6 C 209.6 78.6 209.5 78.6 209.3 78.6 C 209.2 78.6 209.0 78.6 208.9 78.6 C 208.7 78.6 208.6 78.6 208.4 78.6 C 208.3 78.6 208.1 78.6 208.0 78.6 C 207.8 78.6 207.7 78.6 207.6 78.6 C 207.4 78.6 207.3 78.6 207.2 78.6 C 207.0 78.6 206.8 78.6 206.6 78.6 C 206.5 78.6 206.4 78.6 206.4 78.6 C 206.4 78.6 206.1 78.6 205.7 78.6 C 205.4 78.6 205.0 78.6 205.0 78.6 C 205.0 78.6 205.0 78.6 205.0 78.6 C 205.0 78.6 205.0 78.6 205.0 78.6 Z M 212.8 78.6 C 212.8 78.6 212.7 78.6 212.5 78.6 C 212.5 78.6 212.4 78.6 212.3 78.6 C 212.1 78.6 212.0 78.6 211.8 78.6 C 211.7 78.6 211.5 78.6 211.3 78.6 C 211.1 78.6 210.9 78.6 210.6 78.6 C 210.5 78.6 210.4 78.6 210.3 78.6 C 210.1 78.6 210.0 78.6 209.8 78.6 C 209.7 78.6 209.6 78.6 209.4 78.6 C 209.3 78.6 209.1 78.6 208.9 78.6 C 208.8 78.6 208.6 78.6 208.4 78.6 C 208.3 78.6 208.1 78.6 208.0 78.6 C 207.8 78.6 207.7 78.6 207.6 78.6 C 207.4 78.6 207.3 78.6 207.2 78.6 C 206.9 78.6 206.7 78.6 206.5 78.6 C 206.3 78.6 206.1 78.6 205.9 78.6 C 205.8 78.6 205.6 78.6 205.5 78.6 C 205.4 78.6 205.3 78.6 205.2 78.6 C 205.1 78.6 205.0 78.6 205.0 78.6 C 205.0 78.6 205.1 78.6 205.2 78.6 C 205.4 78.6 205.5 78.6 205.7 78.6 C 206.1 78.6 206.4 78.6 206.4 78.6 C 206.4 78.6 206.5 78.6 206.6 78.6 C 206.7 78.6 206.9 78.6 207.2 78.6 C 207.3 78.6 207.4 78.6 207.5 78.6 C 207.7 78.6 207.8 78.6 207.9 78.6 C 208.1 78.6 208.2 78.6 208.4 78.6 C 208.5 78.6 208.7 78.6 208.8 78.6 C 209.0 78.6 209.2 78.6 209.3 78.6 C 209.5 78.6 209.6 78.6 209.7 78.6 C 209.9 78.6 210.0 78.6 210.2 78.6 C 210.3 78.6 210.4 78.6 210.5 78.6 C 210.8 78.6 211.0 78.6 211.1 78.6 C 211.2 78.6 211.3 78.6 211.3 78.6 C 211.3 78.6 211.4 78.6 211.5 78.6 C 211.7 78.6 211.9 78.6 212.0 78.6 C 212.2 78.6 212.4 78.6 212.6 78.6 C 212.7 78.6 212.8 78.6 212.8 78.6 C 212.8 78.6 212.8 78.6 212.8 78.6 C 212.8 78.6 212.8 78.6 212.8 78.6 Z M 212.8 78.6 " fill="#000000"></path><path d="M 209.7 64.0 C 207.2 63.5 207.3 63.9 206.9 64.8 C 206.4 65.8 206.5 65.8 206.4 67.0 C 206.4 68.2 205.5 67.9 205.1 68.6 C 204.8 69.2 203.2 70.7 203.2 71.6 C 203.2 72.5 201.7 73.2 201.6 74.2 C 201.5 75.2 200.8 75.6 200.1 76.3 C 199.5 77.0 199.4 78.1 198.7 78.5 C 198.0 79.0 196.3 80.3 196.2 81.2 C 196.0 82.2 197.3 83.7 198.5 83.2 C 199.7 82.7 200.1 82.6 201.0 82.9 C 202.0 83.3 202.4 83.0 203.6 83.0 C 204.9 83.1 206.2 83.3 206.7 83.3 C 207.3 83.3 207.7 84.3 209.6 83.8 C 211.5 83.3 210.9 83.5 212.7 83.2 C 214.6 83.0 214.7 82.6 215.7 82.8 C 216.6 83.0 217.7 82.5 219.1 83.0 C 220.5 83.5 222.0 83.2 222.3 82.3 C 222.6 81.3 221.8 80.3 220.6 79.3 C 219.4 78.3 218.3 77.4 217.7 76.1 C 217.1 74.8 216.6 73.6 215.7 72.7 C 214.7 71.8 212.3 68.2 211.8 67.5 C 211.2 66.7 211.2 64.3 209.7 64.0 Z M 209.7 64.0 " fill="#000000"></path></g></g><g><clipPath id="clip-431"><path d="M 0.5 0.1 L 625.5 0.1 L 625.5 59.1 L 0.5 59.1 Z M 0.5 0.1 "></path></clipPath><g clip-path="url(#clip-431)"><path d="M 1.5 58.1 L 624.5 58.1 L 624.5 1.1 L 1.5 1.1 Z M 1.5 58.1 " fill="#FEFFFE"></path></g></g><g><clipPath id="clip-432"><path d="M -6.8 -7.2 L 632.8 -7.2 L 632.8 66.4 L -6.8 66.4 Z M -6.8 -7.2 "></path></clipPath><g clip-path="url(#clip-432)"><text xml:space="preserve" font-family="AvenirNext-Regular" font-size="36.0" fill="#000000" transform="matrix(1.00, 0.00, -0.00, -1.00, 6.0, 18.0)">h</text><text xml:space="preserve" font-family="AvenirNext-Regular" font-size="36.0" fill="#000000" transform="matrix(1.00, 0.00, -0.00, -1.00, 27.0, 18.0)">t</text><text xml:space="preserve" font-family="AvenirNext-Regular" font-size="36.0" fill="#000000" transform="matrix(1.00, 0.00, -0.00, -1.00, 38.0, 18.0)">t</text><text xml:space="preserve" font-family="AvenirNext-Regular" font-size="36.0" fill="#000000" transform="matrix(1.00, 0.00, -0.00, -1.00, 49.4, 18.0)">p</text><text xml:space="preserve" font-family="AvenirNext-Regular" font-size="36.0" fill="#000000" transform="matrix(1.00, 0.00, -0.00, -1.00, 72.2, 18.0)">:</text><text xml:space="preserve" font-family="AvenirNext-Regular" font-size="36.0" fill="#000000" transform="matrix(1.00, 0.00, -0.00, -1.00, 83.0, 18.0)">/</text><text xml:space="preserve" font-family="AvenirNext-Regular" font-size="36.0" fill="#000000" transform="matrix(1.00, 0.00, -0.00, -1.00, 96.4, 18.0)">/</text><text xml:space="preserve" font-family="AvenirNext-Regular" font-size="36.0" fill="#000000" transform="matrix(1.00, 0.00, -0.00, -1.00, 109.7, 18.0)">c</text><text xml:space="preserve" font-family="AvenirNext-Regular" font-size="36.0" fill="#000000" transform="matrix(1.00, 0.00, -0.00, -1.00, 127.7, 18.0)">o</text><text xml:space="preserve" font-family="AvenirNext-Regular" font-size="36.0" fill="#000000" transform="matrix(1.00, 0.00, -0.00, -1.00, 149.7, 18.0)">d</text><text xml:space="preserve" font-family="AvenirNext-Regular" font-size="36.0" fill="#000000" transform="matrix(1.00, 0.00, -0.00, -1.00, 172.6, 18.0)">e</text><text xml:space="preserve" font-family="AvenirNext-Regular" font-size="36.0" fill="#000000" transform="matrix(1.00, 0.00, -0.00, -1.00, 193.2, 18.0)">p</text><text xml:space="preserve" font-family="AvenirNext-Regular" font-size="36.0" fill="#000000" transform="matrix(1.00, 0.00, -0.00, -1.00, 216.1, 18.0)">e</text><text xml:space="preserve" font-family="AvenirNext-Regular" font-size="36.0" fill="#000000" transform="matrix(1.00, 0.00, -0.00, -1.00, 236.7, 18.0)">n</text><text xml:space="preserve" font-family="AvenirNext-Regular" font-size="36.0" fill="#000000" transform="matrix(1.00, 0.00, -0.00, -1.00, 257.6, 18.0)">.</text><text xml:space="preserve" font-family="AvenirNext-Regular" font-size="36.0" fill="#000000" transform="matrix(1.00, 0.00, -0.00, -1.00, 266.9, 18.0)">i</text><text xml:space="preserve" font-family="AvenirNext-Regular" font-size="36.0" fill="#000000" transform="matrix(1.00, 0.00, -0.00, -1.00, 275.9, 18.0)">o</text><text xml:space="preserve" font-family="AvenirNext-Regular" font-size="36.0" fill="#000000" transform="matrix(1.00, 0.00, -0.00, -1.00, 297.9, 18.0)">/</text><text xml:space="preserve" font-family="AvenirNext-Regular" font-size="36.0" fill="#000000" transform="matrix(1.00, 0.00, -0.00, -1.00, 311.2, 18.0)">j</text><text xml:space="preserve" font-family="AvenirNext-Regular" font-size="36.0" fill="#000000" transform="matrix(1.00, 0.00, -0.00, -1.00, 320.3, 18.0)">e</text><text xml:space="preserve" font-family="AvenirNext-Regular" font-size="36.0" fill="#000000" transform="matrix(1.00, 0.00, -0.00, -1.00, 340.9, 18.0)">n</text><text xml:space="preserve" font-family="AvenirNext-Regular" font-size="36.0" fill="#000000" transform="matrix(1.00, 0.00, -0.00, -1.00, 361.8, 18.0)">i</text><text xml:space="preserve" font-family="AvenirNext-Regular" font-size="36.0" fill="#000000" transform="matrix(1.00, 0.00, -0.00, -1.00, 370.8, 18.0)">e</text><text xml:space="preserve" font-family="AvenirNext-Regular" font-size="36.0" fill="#000000" transform="matrix(1.00, 0.00, -0.00, -1.00, 391.4, 18.0)">/</text><text xml:space="preserve" font-family="AvenirNext-Regular" font-size="36.0" fill="#000000" transform="matrix(1.00, 0.00, -0.00, -1.00, 404.7, 18.0)">p</text><text xml:space="preserve" font-family="AvenirNext-Regular" font-size="36.0" fill="#000000" transform="matrix(1.00, 0.00, -0.00, -1.00, 427.6, 18.0)">e</text><text xml:space="preserve" font-family="AvenirNext-Regular" font-size="36.0" fill="#000000" transform="matrix(1.00, 0.00, -0.00, -1.00, 448.2, 18.0)">n</text><text xml:space="preserve" font-family="AvenirNext-Regular" font-size="36.0" fill="#000000" transform="matrix(1.00, 0.00, -0.00, -1.00, 469.1, 18.0)">/</text><text xml:space="preserve" font-family="AvenirNext-Regular" font-size="36.0" fill="#000000" transform="matrix(1.00, 0.00, -0.00, -1.00, 482.4, 18.0)">d</text><text xml:space="preserve" font-family="AvenirNext-Regular" font-size="36.0" fill="#000000" transform="matrix(1.00, 0.00, -0.00, -1.00, 505.3, 18.0)">X</text><text xml:space="preserve" font-family="AvenirNext-Regular" font-size="36.0" fill="#000000" transform="matrix(1.00, 0.00, -0.00, -1.00, 528.7, 18.0)">M</text><text xml:space="preserve" font-family="AvenirNext-Regular" font-size="36.0" fill="#000000" transform="matrix(1.00, 0.00, -0.00, -1.00, 560.6, 18.0)">e</text><text xml:space="preserve" font-family="AvenirNext-Regular" font-size="36.0" fill="#000000" transform="matrix(1.00, 0.00, -0.00, -1.00, 581.2, 18.0)">R</text><text xml:space="preserve" font-family="AvenirNext-Regular" font-size="36.0" fill="#000000" transform="matrix(1.00, 0.00, -0.00, -1.00, 602.5, 18.0)">y</text><path d="M 4.5 42.5 L 618.6 42.5 " fill="none" stroke="#000000" stroke-width="1.80" stroke-miterlimit="0.00" transform="matrix(1.00, 0.00, 0.00, -1.00, 1.5, 58.1)"></path></g></g></g></svg>