<?xml version="1.0" encoding="UTF-8" standalone="no"?><svg xmlns="http://www.w3.org/2000/svg" xmlns:xlink="http://www.w3.org/1999/xlink" clip-rule="evenodd" stroke-miterlimit="4.00" viewBox="0 0 870 276"><desc>SVG generated by Keynote</desc><defs></defs><g transform="matrix(1.00, 0.00, -0.00, -1.00, 0.0, 276.0)"><path d="M 6.0 270.9 L 864.0 270.9 L 864.0 5.3 L 6.0 5.3 Z M 6.0 270.9 " fill="#FEFFFE"></path><path d="M 867.9 111.5 C 867.8 109.9 867.8 108.0 867.8 105.1 C 867.7 106.4 867.7 107.4 867.6 107.2 C 867.6 109.7 867.7 113.0 867.7 117.9 C 867.7 117.7 867.7 115.2 867.7 113.6 C 867.7 111.5 867.8 111.9 867.9 111.5 C 867.9 111.5 867.9 111.5 867.9 111.5 Z M 386.1 2.0 C 390.4 2.0 385.7 1.8 384.1 1.8 C 383.9 1.8 383.7 1.9 382.0 1.8 C 381.6 1.6 385.2 1.6 388.1 1.5 C 399.6 1.6 391.2 2.0 386.1 2.0 C 386.1 2.0 386.1 2.0 386.1 2.0 Z M 2.8 175.1 C 2.8 184.2 3.1 174.5 3.1 173.2 C 3.2 177.4 3.6 174.1 3.6 179.6 C 3.5 180.6 3.4 182.6 3.3 183.5 C 3.3 181.1 3.3 177.7 3.2 177.2 C 3.2 180.5 3.3 185.0 3.2 185.5 C 3.1 178.4 2.9 184.2 2.8 185.4 C 2.8 179.1 2.6 177.0 2.8 175.1 C 2.8 175.1 2.8 175.1 2.8 175.1 Z M 369.5 273.6 C 366.9 273.6 364.6 273.5 365.2 273.4 C 368.0 273.4 369.8 273.4 371.5 273.5 C 371.8 273.4 371.0 273.3 373.4 273.3 C 376.3 273.5 375.0 273.8 373.6 273.9 C 373.4 273.7 364.1 273.8 369.5 273.6 C 369.5 273.6 369.5 273.6 369.5 273.6 Z M 602.5 273.2 C 610.4 273.3 602.6 272.8 610.6 272.9 C 610.5 273.1 611.9 273.4 606.7 273.4 C 606.2 273.3 603.2 273.3 602.5 273.2 C 602.5 273.2 602.5 273.2 602.5 273.2 Z M 66.5 4.0 C 66.4 3.8 60.8 3.9 62.0 3.7 C 64.8 3.7 67.5 3.7 70.3 3.7 C 71.0 3.9 70.1 4.0 66.5 4.0 C 66.5 4.0 66.5 4.0 66.5 4.0 Z M 5.2 237.9 C 4.9 247.3 5.3 257.4 5.0 254.4 C 4.8 258.0 4.3 247.7 4.6 248.1 C 4.9 247.1 5.1 230.4 5.2 237.9 C 5.2 237.9 5.2 237.9 5.2 237.9 Z M 339.3 6.2 C 329.5 6.0 331.6 6.6 325.1 6.3 C 327.3 6.3 328.3 6.2 329.1 6.2 C 327.5 6.1 325.1 6.2 325.1 6.1 C 329.7 6.0 335.3 6.0 339.3 6.2 C 339.3 6.2 339.3 6.2 339.3 6.2 Z M 867.3 255.0 C 867.3 256.6 867.4 257.5 867.5 257.4 C 867.4 263.9 867.6 263.9 867.5 267.9 C 867.2 267.8 867.3 262.3 867.3 257.2 C 867.3 257.0 867.2 255.3 867.3 255.0 C 867.3 255.0 867.3 255.0 867.3 255.0 Z M 703.6 273.3 C 704.0 273.5 707.8 273.6 701.8 273.7 C 694.8 273.4 700.6 273.2 707.6 273.0 C 707.5 272.9 707.4 272.8 707.3 272.7 C 704.5 272.7 702.6 272.7 701.0 272.6 C 700.1 273.0 694.9 272.3 684.5 272.5 C 689.4 272.4 683.7 272.1 690.4 272.2 C 688.4 272.0 693.1 272.0 692.1 271.8 C 689.4 271.9 682.4 271.9 684.2 272.2 C 680.6 272.2 677.8 272.2 675.9 272.1 C 673.1 271.9 682.5 272.1 679.7 271.8 C 677.7 271.8 677.2 271.7 675.6 271.7 C 675.3 271.8 676.2 272.0 673.8 272.0 C 667.1 271.9 674.7 271.7 665.3 271.7 C 664.8 271.8 667.6 271.8 667.5 272.0 C 663.4 272.1 663.5 271.9 659.4 272.1 C 658.5 271.9 662.2 271.8 659.2 271.8 C 656.8 272.2 650.4 271.6 644.8 271.9 C 649.2 272.4 643.7 271.8 638.8 272.3 C 637.5 272.2 641.1 271.8 636.5 271.8 C 638.6 272.4 619.9 272.3 635.2 272.8 C 627.3 272.8 625.1 273.3 631.4 273.3 C 617.6 273.2 622.2 273.5 617.0 273.6 C 611.8 273.5 619.8 273.4 616.8 273.3 C 622.5 273.3 620.9 273.1 625.1 273.3 C 625.0 273.1 625.9 273.1 627.1 273.0 C 621.6 273.2 614.7 272.8 618.5 272.5 C 621.4 272.6 618.9 272.8 622.8 272.8 C 621.1 272.5 626.8 272.9 626.9 272.7 C 624.0 272.4 631.9 272.1 624.2 272.0 C 624.3 272.2 624.4 272.3 624.5 272.4 C 622.5 272.4 620.5 272.4 618.5 272.4 C 616.5 272.2 617.8 272.0 615.9 272.0 C 612.5 272.0 610.7 272.0 609.8 272.1 C 614.0 272.2 619.2 272.4 612.2 272.4 C 614.5 272.0 602.3 272.3 607.7 272.0 C 600.0 271.9 596.4 272.3 595.4 272.0 C 591.4 272.0 594.2 272.2 589.3 272.2 C 581.6 272.0 583.2 272.3 572.8 272.1 C 571.9 272.5 571.8 272.0 568.5 272.0 C 568.6 272.2 568.7 272.3 568.8 272.5 C 565.1 272.2 556.7 272.1 548.3 272.4 C 546.0 272.3 547.5 272.1 541.9 272.1 C 536.1 272.5 528.6 272.1 521.6 272.5 C 520.9 272.3 515.8 272.3 513.3 272.4 C 512.0 272.3 515.4 272.0 510.8 272.0 C 508.0 272.2 513.4 272.3 507.1 272.4 C 507.5 272.1 501.1 272.6 500.8 272.3 C 502.7 272.2 504.9 272.1 506.9 272.0 C 504.1 272.0 504.8 271.9 502.6 271.9 C 503.1 272.2 498.0 271.9 496.3 271.9 C 496.6 272.0 496.1 272.1 494.5 272.2 C 490.9 272.2 488.1 272.2 486.3 272.3 C 481.6 272.2 488.8 272.1 484.2 272.0 C 482.3 272.7 477.3 272.0 467.9 272.4 C 465.5 272.2 461.5 272.1 455.2 272.0 C 454.7 272.2 461.3 272.1 461.6 272.3 C 452.5 272.2 463.3 272.4 457.4 272.4 C 444.5 272.3 436.1 272.3 422.3 272.1 C 422.6 272.3 412.0 272.5 412.2 272.4 C 415.0 272.3 406.2 272.1 401.8 272.0 C 400.8 272.4 394.1 272.8 393.8 273.0 C 392.1 272.8 392.5 272.8 391.5 272.4 C 383.8 272.3 380.0 272.7 375.0 272.3 C 375.5 272.5 371.9 272.5 368.9 272.6 C 369.6 272.4 371.3 272.3 372.9 272.1 C 368.9 272.1 368.2 272.0 364.6 272.0 C 361.3 272.7 354.9 271.9 352.4 272.5 C 346.5 272.5 347.4 272.3 342.0 272.3 C 342.3 272.4 341.7 272.5 340.1 272.6 C 343.7 272.5 346.2 272.3 348.4 272.6 C 340.4 272.7 363.7 273.3 350.8 273.6 C 350.3 273.4 351.4 273.3 348.6 273.2 C 341.2 273.4 345.7 273.6 348.7 273.6 C 343.8 273.7 338.5 273.6 342.6 273.9 C 331.2 274.0 338.4 273.8 334.3 273.6 C 313.8 273.8 288.1 273.9 260.0 273.6 C 259.1 274.0 244.1 273.7 239.2 273.5 C 231.5 273.7 223.2 273.8 220.7 273.5 C 219.4 273.8 211.0 273.3 210.3 273.6 C 213.7 273.5 215.9 273.7 212.5 273.7 C 201.0 273.6 183.9 273.5 177.3 273.7 C 173.2 273.4 165.8 273.5 160.8 273.6 C 159.9 273.5 164.0 273.4 160.7 273.4 C 159.8 273.6 149.1 273.7 146.5 273.6 C 149.7 273.6 153.3 273.3 148.4 273.2 C 148.5 273.4 142.8 273.3 144.3 273.6 C 137.4 273.4 133.4 273.6 127.7 273.5 C 132.4 273.5 135.2 273.3 135.9 273.2 C 131.9 273.3 128.9 273.4 125.7 273.2 C 126.5 273.5 120.1 273.3 113.5 273.5 C 111.6 273.4 110.2 273.2 105.0 273.2 C 102.4 273.4 113.3 273.5 107.2 273.6 C 107.2 273.4 101.6 273.3 103.0 273.6 C 95.9 273.4 92.1 273.6 86.5 273.4 C 93.7 273.5 88.3 273.1 86.4 273.1 C 84.8 273.1 82.4 273.1 82.4 273.2 C 82.4 273.3 86.1 273.2 86.5 273.3 C 81.4 273.2 80.1 273.6 78.2 273.4 C 80.4 273.4 80.8 273.3 78.2 273.2 C 77.6 273.6 62.9 273.3 67.9 273.2 C 68.0 273.3 73.6 273.3 74.2 273.2 C 72.6 273.0 64.1 273.2 65.9 272.9 C 70.7 272.9 70.4 273.1 76.2 273.0 C 76.8 272.8 80.2 272.8 82.4 272.7 C 73.1 272.7 71.1 273.0 69.9 272.7 C 65.9 272.7 68.3 273.0 61.7 272.9 C 52.2 272.8 60.1 272.6 57.6 272.5 C 49.2 272.7 51.8 273.0 55.5 273.2 C 48.8 273.2 46.8 273.4 39.0 273.3 C 39.4 273.2 40.4 273.1 43.2 273.0 C 43.4 273.1 50.0 273.3 49.4 273.1 C 48.8 272.7 43.4 272.6 34.9 272.5 C 37.0 272.9 37.1 272.7 28.7 272.7 C 30.1 273.0 24.7 272.6 24.5 272.8 C 24.9 272.9 27.9 272.9 30.7 272.9 C 30.5 273.1 29.5 273.2 26.7 273.2 C 24.9 273.1 23.5 273.3 18.5 273.2 C 18.1 273.0 21.7 272.9 22.5 272.8 C 19.7 272.8 19.1 272.9 16.2 272.9 C 13.8 272.7 14.0 272.4 14.2 272.0 C 17.4 272.0 22.5 272.0 18.4 271.8 C 30.5 271.8 17.8 272.2 22.5 272.2 C 27.5 271.9 24.7 272.3 32.7 272.3 C 35.1 272.3 35.9 272.2 36.9 272.1 C 36.3 272.1 31.7 271.8 36.9 271.8 C 38.1 272.0 40.9 272.1 45.2 272.1 C 45.2 272.0 36.5 271.9 45.2 271.9 C 49.4 271.9 45.6 272.2 51.4 272.2 C 51.4 272.1 53.0 272.1 53.4 272.0 C 45.0 272.1 55.0 271.8 49.4 271.7 C 56.6 271.6 50.6 272.0 55.4 272.0 C 55.6 271.8 63.4 272.1 63.6 271.8 C 60.6 271.9 54.6 271.9 55.4 271.6 C 60.8 271.7 85.9 271.5 76.1 271.9 C 79.7 271.7 97.9 271.4 96.5 271.6 C 91.1 271.5 91.3 271.7 90.6 271.9 C 100.8 271.6 106.0 271.8 117.2 271.5 C 105.0 271.4 114.1 271.0 106.9 270.8 C 103.7 270.9 99.3 270.8 98.5 270.9 C 99.9 271.2 104.9 271.1 106.9 270.9 C 106.9 271.1 107.0 271.4 107.0 271.6 C 93.5 271.3 86.3 271.6 80.1 271.5 C 85.5 271.4 69.8 271.1 76.0 271.1 C 78.6 271.2 85.1 271.3 90.5 271.3 C 90.5 271.2 90.5 271.2 90.5 271.1 C 92.9 271.1 96.3 271.1 96.5 271.0 C 89.1 271.1 85.0 270.8 80.0 271.0 C 80.0 271.0 80.0 270.9 80.0 270.8 C 78.8 270.8 77.6 270.8 78.0 270.8 C 80.4 270.8 83.8 270.8 84.2 270.7 C 78.8 270.6 77.8 270.4 71.8 270.4 C 73.1 270.1 65.1 269.7 73.9 269.6 C 75.3 269.9 80.1 270.0 80.0 270.1 C 82.6 270.2 87.8 270.2 90.4 270.0 C 87.7 269.9 82.5 269.8 82.1 269.6 C 86.3 269.5 89.7 269.4 92.3 269.6 C 83.5 269.8 97.2 269.9 100.6 270.1 C 99.6 270.0 97.6 269.9 96.4 269.8 C 103.2 269.8 106.4 270.0 106.8 269.6 C 115.0 269.5 113.2 269.8 119.0 269.8 C 115.2 269.5 122.8 269.7 118.9 269.3 C 128.5 269.3 121.8 269.6 125.2 269.6 C 128.2 269.6 128.6 269.5 131.4 269.5 C 135.8 269.7 144.6 269.7 145.9 270.0 C 149.7 269.9 150.3 270.1 154.1 270.0 C 155.1 270.0 156.3 269.9 158.1 269.8 C 158.7 269.9 161.5 270.0 162.3 269.9 C 151.6 269.5 154.6 269.5 143.6 269.2 C 142.8 269.4 141.2 269.4 143.6 269.5 C 136.0 269.5 133.8 269.4 127.2 269.4 C 126.3 269.2 124.9 268.9 118.9 269.1 C 120.3 268.8 118.7 268.8 121.1 268.7 C 124.3 268.8 128.7 268.9 133.3 269.0 C 133.7 268.9 132.9 268.8 135.3 268.8 C 137.5 268.9 140.9 269.0 143.7 268.8 C 143.7 269.0 142.7 269.0 141.5 269.1 C 151.8 269.2 148.1 268.8 155.9 269.0 C 154.7 268.8 149.7 268.8 153.9 268.7 C 160.9 268.6 162.5 268.8 166.1 268.8 C 166.7 268.8 166.3 268.7 168.3 268.7 C 173.3 268.9 157.4 269.2 166.2 269.5 C 166.8 269.2 175.4 269.3 176.7 269.5 C 173.9 269.7 168.8 269.4 168.5 269.6 C 184.1 269.6 168.9 269.9 185.0 270.0 C 185.0 269.9 184.9 269.8 184.9 269.7 C 178.5 269.8 178.3 269.6 178.6 269.3 C 173.0 269.3 170.7 269.0 166.2 269.2 C 167.9 268.7 170.8 269.1 176.6 269.2 C 176.3 268.9 171.1 268.9 170.3 268.7 C 183.5 268.9 186.3 268.5 199.0 268.9 C 195.9 268.6 206.0 268.9 205.1 268.7 C 194.1 268.7 198.6 268.1 196.7 268.0 C 189.6 268.0 192.9 268.5 188.7 268.6 C 186.6 268.4 187.6 268.2 188.5 267.9 C 194.9 268.0 193.9 267.9 198.9 267.8 C 203.2 268.0 206.9 268.5 201.1 268.6 C 202.3 268.6 210.7 268.4 211.3 268.6 C 203.3 268.6 212.1 268.7 207.4 268.8 C 213.6 269.0 224.5 268.7 232.0 268.9 C 231.4 268.8 234.1 268.7 233.9 268.6 C 226.4 268.8 224.8 268.3 217.4 268.3 C 220.6 268.3 218.8 268.1 217.4 268.0 C 224.6 268.2 228.5 268.0 233.8 268.2 C 233.8 268.1 233.8 268.0 233.7 268.0 C 242.6 268.2 241.4 268.1 248.1 267.9 C 250.8 268.0 247.3 268.5 246.3 268.7 C 249.5 268.6 261.3 268.6 254.5 268.4 C 261.5 268.4 259.8 268.7 266.8 268.7 C 266.9 268.4 260.3 268.5 262.6 268.1 C 269.2 268.1 265.5 268.4 270.8 268.2 C 271.1 268.4 271.3 268.6 276.9 268.6 C 272.9 268.4 277.5 268.5 279.1 268.4 C 276.4 268.3 274.2 268.3 272.8 268.2 C 283.0 268.3 285.0 268.3 293.2 268.2 C 290.3 268.5 294.9 268.6 289.4 268.7 C 294.5 268.5 301.0 268.8 303.8 268.7 C 300.5 268.6 295.3 268.6 293.3 268.5 C 309.7 268.4 318.2 268.1 332.3 268.5 C 329.9 268.5 326.5 268.4 326.1 268.5 C 327.7 268.5 330.3 268.5 330.4 268.6 C 325.4 268.6 320.6 268.6 318.0 268.7 C 313.5 268.6 320.5 268.5 315.9 268.4 C 315.2 268.6 306.5 268.5 309.8 268.8 C 317.5 268.5 325.0 268.8 328.6 269.2 C 335.6 268.7 328.8 268.7 336.4 268.3 C 336.3 268.4 338.1 268.5 340.5 268.5 C 338.0 268.2 347.7 268.4 348.7 268.4 C 345.1 268.5 331.6 268.7 338.7 269.0 C 335.3 268.4 354.6 269.2 350.8 268.7 C 359.6 268.6 356.5 269.0 361.2 268.7 C 361.5 268.8 360.9 268.9 363.3 268.9 C 365.7 268.9 366.5 268.8 367.4 268.8 C 355.2 268.6 358.7 268.3 350.6 268.3 C 352.0 268.3 353.2 268.3 352.8 268.2 C 352.8 268.2 353.0 268.1 354.8 268.1 C 355.5 268.4 361.2 268.1 363.0 268.3 C 360.7 268.3 358.3 268.3 359.1 268.4 C 369.3 268.4 367.6 268.7 381.7 268.8 C 377.4 268.7 383.0 268.6 387.8 268.6 C 394.6 268.6 392.2 269.0 400.4 269.0 C 399.3 268.4 409.0 269.1 418.6 268.7 C 417.8 269.0 430.7 269.1 433.1 268.8 C 433.6 269.0 438.2 268.9 441.4 268.9 C 442.3 269.1 438.5 269.1 441.5 269.2 C 444.3 269.1 441.6 268.9 445.3 268.8 C 449.8 268.9 449.1 269.2 455.7 269.2 C 455.8 268.9 452.2 269.0 455.6 268.8 C 461.4 268.9 466.6 268.9 461.7 268.7 C 470.3 268.6 466.3 269.1 474.3 269.1 C 471.8 269.0 472.0 268.9 476.2 268.8 C 479.3 269.0 479.5 269.1 480.6 269.2 C 482.9 269.0 482.1 269.0 488.7 269.1 C 488.7 269.0 488.6 268.9 488.5 268.8 C 491.5 268.8 495.9 268.7 496.8 268.8 C 491.2 268.8 492.9 269.0 490.7 269.1 C 496.3 269.1 507.3 269.4 498.9 269.1 C 506.7 269.0 503.1 269.3 509.2 269.2 C 505.3 269.0 509.0 269.2 515.4 269.2 C 514.6 268.8 519.6 269.1 523.6 269.1 C 522.8 268.9 523.8 268.8 527.4 268.8 C 527.3 268.9 529.7 269.0 533.7 268.9 C 533.6 268.8 524.9 268.7 533.5 268.7 C 537.6 268.8 537.8 269.1 544.2 269.1 C 545.7 269.3 538.5 269.2 540.2 269.5 C 545.3 269.2 547.0 269.4 554.6 269.5 C 551.4 269.0 569.5 268.9 560.3 268.7 C 562.9 268.7 566.3 268.4 568.5 268.6 C 565.7 268.7 570.9 268.9 570.7 268.9 C 574.3 268.9 582.8 269.0 582.9 268.8 C 575.1 268.9 574.9 268.7 572.4 268.5 C 583.8 268.4 593.8 268.5 593.2 268.8 C 593.2 268.7 594.8 268.7 595.1 268.6 C 591.1 268.6 588.3 268.2 592.8 268.2 C 592.0 268.5 595.5 268.5 599.1 268.6 C 599.1 268.4 614.4 268.7 611.3 268.4 C 605.5 268.6 600.4 268.2 604.9 268.0 C 608.9 268.3 617.2 268.4 615.5 268.6 C 617.7 268.5 619.6 268.4 621.5 268.4 C 623.2 268.1 618.6 268.2 619.3 268.0 C 622.3 268.0 626.8 267.9 627.5 268.0 C 619.3 268.1 631.8 268.2 623.5 268.4 C 628.7 268.3 630.0 268.5 634.1 268.5 C 634.0 268.4 635.6 268.4 636.0 268.4 C 632.5 268.5 628.8 268.4 629.6 268.1 C 636.9 268.1 636.0 268.4 642.2 268.4 C 643.8 268.2 652.0 267.9 656.3 268.0 C 648.1 268.0 657.0 268.2 652.3 268.3 C 644.8 268.1 643.0 268.4 640.3 268.6 C 643.6 268.7 649.9 268.8 650.5 268.5 C 646.5 268.5 646.6 268.6 644.4 268.7 C 644.5 268.5 645.6 268.4 648.4 268.4 C 651.9 268.5 659.3 268.3 654.6 268.7 C 659.7 268.5 665.7 268.8 671.0 268.6 C 664.9 268.6 660.4 268.5 658.5 268.3 C 663.4 268.2 668.6 268.5 668.7 268.3 C 667.9 268.1 660.0 268.1 658.3 268.0 C 664.5 267.7 674.8 268.4 666.4 267.9 C 670.0 267.9 675.0 267.9 676.7 268.0 C 672.3 268.1 677.4 268.4 679.2 268.4 C 683.0 268.4 686.0 268.4 687.3 268.3 C 681.6 268.4 676.9 268.1 680.9 268.0 C 682.0 268.2 683.1 268.0 684.8 268.0 C 685.4 268.1 691.9 268.0 693.2 268.1 C 692.7 268.0 689.7 268.0 689.0 267.9 C 692.7 267.8 698.0 267.5 701.1 267.8 C 698.7 267.8 695.3 267.8 695.2 267.9 C 706.1 268.2 709.7 268.5 722.4 268.7 C 720.9 268.7 720.1 268.7 720.6 268.8 C 728.6 268.9 733.9 269.0 733.1 269.2 C 738.0 269.1 740.5 269.0 743.0 268.8 C 737.7 268.7 736.1 268.9 732.7 268.8 C 734.7 268.7 728.3 268.3 726.0 268.1 C 717.4 268.4 716.4 268.0 707.6 268.1 C 710.0 267.9 700.9 268.1 703.3 267.8 C 712.0 268.2 719.8 267.9 732.1 268.0 C 730.7 268.2 729.4 268.4 734.5 268.5 C 742.4 268.6 738.3 268.3 744.8 268.4 C 747.6 268.6 743.8 268.6 747.1 268.7 C 749.2 268.6 755.2 268.6 757.4 268.8 C 749.0 268.8 759.2 269.0 753.7 269.2 C 756.5 269.2 758.1 269.2 760.0 269.2 C 751.5 269.0 767.9 268.9 761.5 268.7 C 772.8 268.6 762.8 269.3 772.2 269.2 C 767.4 269.1 773.3 269.0 780.2 269.0 C 782.2 269.3 789.3 269.3 795.0 269.4 C 791.8 269.2 789.6 269.2 794.7 269.1 C 791.8 269.0 787.0 269.0 784.4 269.1 C 784.4 269.0 783.3 268.9 782.0 268.8 C 788.8 268.8 785.9 268.7 788.0 268.6 C 790.1 268.7 795.1 268.7 796.4 268.8 C 796.4 268.8 798.2 268.7 798.3 268.7 C 789.7 268.7 799.4 268.3 793.9 268.3 C 790.1 268.3 792.8 268.5 787.9 268.5 C 783.1 268.2 791.5 268.2 793.6 268.0 C 789.5 267.8 785.0 268.1 783.3 267.8 C 788.2 267.5 796.8 267.7 803.7 267.8 C 803.0 267.5 815.1 267.9 815.8 267.5 C 816.9 267.6 818.1 267.7 820.0 267.7 C 821.7 267.5 824.3 267.8 826.3 267.8 C 826.3 267.7 825.6 267.6 824.0 267.5 C 832.5 267.6 834.5 267.6 844.3 267.5 C 846.1 267.6 848.0 267.8 849.0 268.0 C 846.7 268.0 844.5 268.0 843.0 268.1 C 856.6 268.2 847.1 267.5 857.1 267.9 C 856.6 267.8 849.7 267.5 854.7 267.4 C 856.6 267.5 858.6 267.5 860.7 267.5 C 860.8 260.4 860.7 253.1 861.2 253.8 C 861.5 246.6 861.0 241.1 861.3 237.8 C 861.3 235.4 861.2 234.6 861.2 233.6 C 861.0 235.8 860.9 238.6 860.8 241.3 C 860.9 245.9 860.7 247.7 861.0 243.6 C 861.0 250.3 860.9 251.9 860.8 255.4 C 860.6 246.0 860.8 237.8 860.4 237.1 C 860.6 234.1 860.8 231.9 860.9 229.5 C 860.7 228.4 860.7 217.9 860.9 217.3 C 860.8 224.3 861.1 231.8 861.3 225.6 C 861.1 208.2 861.6 198.8 861.3 183.4 C 861.4 183.0 861.6 184.2 861.6 181.5 C 861.5 181.4 861.4 180.8 861.3 179.2 C 861.3 174.5 861.4 171.8 861.4 165.3 C 861.6 165.7 861.8 164.8 861.9 161.2 C 861.6 159.2 861.2 152.7 861.2 148.9 C 861.3 152.9 861.6 147.8 861.6 145.0 C 861.2 147.4 861.8 126.9 861.5 132.8 C 861.5 124.6 861.6 121.0 861.7 120.8 C 861.7 117.8 861.6 115.7 861.6 112.7 C 861.9 110.9 861.6 96.6 861.8 94.5 C 861.7 99.5 862.1 100.4 862.0 96.4 C 861.9 93.7 861.7 80.8 861.7 78.4 C 861.8 79.1 862.1 80.0 862.1 86.3 C 862.2 75.6 861.8 75.8 861.6 72.4 C 861.9 72.6 861.6 67.8 861.6 66.3 C 861.7 62.8 861.7 66.4 861.9 66.1 C 861.9 62.3 862.1 60.8 862.0 55.9 C 861.8 57.5 861.9 51.8 862.0 49.8 C 861.8 49.2 861.7 46.5 861.6 42.0 C 862.1 47.8 862.1 15.9 861.8 23.7 C 861.6 17.6 862.1 17.1 862.0 9.3 C 862.0 8.8 862.0 8.1 862.0 7.4 C 861.9 5.8 861.9 4.5 861.8 7.5 C 861.8 7.5 861.8 7.5 861.8 7.5 C 855.4 7.6 859.5 7.2 851.6 7.4 C 854.7 7.7 843.9 7.3 845.3 7.7 C 842.3 7.2 835.4 7.8 829.1 7.4 C 829.1 7.5 827.3 7.5 826.8 7.6 C 825.7 7.7 834.6 7.8 828.8 7.8 C 822.0 7.7 825.8 7.6 825.0 7.4 C 806.1 7.6 783.4 7.4 763.5 7.4 C 765.8 7.5 765.6 7.6 761.3 7.6 C 755.9 7.1 732.4 7.4 728.7 7.5 C 726.7 7.2 714.5 7.5 712.4 7.4 C 714.8 7.4 719.5 7.1 714.6 7.1 C 711.2 7.4 707.1 7.2 702.2 7.4 C 700.0 7.1 685.2 7.5 692.1 7.0 C 689.3 7.0 687.7 6.9 686.1 6.9 C 685.7 7.2 682.8 7.1 687.9 7.3 C 674.6 7.1 671.3 7.3 661.2 7.1 C 659.3 7.3 667.3 7.4 661.0 7.4 C 661.1 7.4 661.1 7.3 661.1 7.3 C 658.9 7.3 658.1 7.4 657.1 7.3 C 657.6 7.1 661.0 7.2 661.3 6.9 C 656.3 7.0 653.1 6.6 651.1 6.9 C 658.1 6.9 653.1 7.4 649.0 7.1 C 652.9 7.0 632.8 7.1 626.4 7.3 C 623.3 7.0 633.4 7.2 632.7 7.0 C 620.7 7.1 621.7 7.0 620.2 7.3 C 613.8 7.2 611.5 7.0 603.8 7.2 C 599.5 7.1 606.5 7.0 601.9 7.0 C 599.1 7.0 597.8 7.2 593.6 7.2 C 582.8 6.7 556.8 7.5 544.6 6.7 C 549.6 6.9 542.9 7.1 536.4 7.0 C 536.0 6.9 536.8 6.8 534.4 6.8 C 534.8 7.0 532.6 7.1 528.2 7.0 C 527.8 6.9 528.6 6.8 526.2 6.8 C 524.4 7.1 519.0 6.8 515.8 7.0 C 514.4 6.7 523.4 6.8 524.0 6.6 C 513.5 6.5 511.6 6.8 503.6 6.6 C 507.8 6.6 500.7 6.4 499.5 6.3 C 501.2 6.6 494.8 6.7 499.4 6.9 C 496.4 6.9 491.8 6.9 491.2 6.8 C 492.8 6.8 495.4 6.8 495.4 6.7 C 491.6 6.8 486.9 6.5 485.0 6.7 C 487.6 6.8 489.2 6.8 489.2 7.0 C 488.2 7.1 487.0 7.1 485.0 7.2 C 490.8 6.6 473.8 6.9 472.8 7.0 C 471.2 6.7 470.2 6.7 470.9 6.5 C 463.7 6.5 464.6 6.7 460.4 6.8 C 461.6 6.5 463.1 6.3 456.5 6.2 C 457.8 6.5 449.8 6.4 452.2 6.8 C 435.2 6.9 431.6 6.5 421.4 6.6 C 421.2 6.7 424.4 6.7 421.4 6.7 C 416.6 6.6 412.4 6.5 409.2 6.4 C 406.6 6.6 410.2 6.7 407.2 6.7 C 399.6 6.5 401.4 6.2 394.8 6.0 C 386.6 6.2 389.6 6.1 384.6 6.3 C 386.8 6.3 389.6 6.5 386.6 6.5 C 381.6 6.3 379.5 6.0 378.3 5.9 C 381.9 5.9 384.7 5.9 386.6 6.0 C 387.7 5.8 392.8 5.8 388.5 5.7 C 393.7 5.7 399.6 5.8 407.2 5.8 C 404.6 5.5 413.8 5.7 411.2 5.4 C 402.7 5.5 400.7 5.3 392.7 5.4 C 394.5 5.6 386.1 5.5 384.5 5.4 C 384.5 5.6 378.9 5.5 380.3 5.8 C 374.1 5.8 374.3 5.6 368.1 5.7 C 367.7 5.6 368.4 5.5 366.0 5.4 C 363.9 5.7 361.8 5.4 359.8 5.4 C 361.3 5.6 352.2 5.5 351.6 5.7 C 354.0 5.7 357.4 5.7 357.9 5.8 C 347.8 5.7 355.9 6.0 357.9 6.2 C 357.5 6.1 361.1 5.7 361.9 5.9 C 353.5 6.1 373.8 6.3 366.2 6.2 C 359.7 6.2 360.2 6.4 353.8 6.3 C 346.1 5.9 355.0 5.6 347.3 5.3 C 342.8 5.5 339.6 5.4 339.2 5.7 C 338.2 5.6 337.0 5.5 335.1 5.4 C 333.2 5.6 341.2 5.7 335.2 5.8 C 332.0 5.7 335.5 5.4 328.9 5.4 C 326.2 5.6 337.0 5.7 331.0 5.8 C 324.5 5.4 332.4 5.9 325.0 5.9 C 324.4 5.9 323.2 5.8 320.8 5.8 C 320.4 5.7 321.3 5.5 318.7 5.5 C 317.4 5.9 315.9 5.3 310.5 5.4 C 307.6 5.7 316.1 5.6 314.6 5.8 C 308.3 5.5 304.8 5.9 302.4 5.8 C 307.3 5.6 294.5 5.7 294.0 5.4 C 295.5 5.7 292.7 5.6 285.7 5.8 C 285.2 5.4 277.3 5.7 275.3 5.4 C 274.4 5.5 272.4 5.6 271.4 5.7 C 273.9 5.7 276.3 5.7 275.5 5.8 C 273.5 5.8 271.5 5.8 269.3 5.8 C 265.8 5.6 274.5 5.1 260.8 5.2 C 262.6 5.5 256.8 5.6 253.0 5.7 C 253.5 6.0 258.4 5.7 259.1 5.8 C 254.6 6.0 249.6 5.8 246.8 5.7 C 238.8 5.8 229.3 5.6 218.0 5.8 C 215.3 5.6 227.5 5.6 219.8 5.4 C 216.6 5.4 218.3 5.6 213.9 5.6 C 217.3 4.5 182.9 5.4 180.4 5.0 C 179.1 5.2 169.2 5.0 170.4 5.4 C 176.9 5.1 181.7 5.5 185.0 5.6 C 191.1 5.5 179.2 5.4 184.8 5.3 C 185.5 5.4 193.8 5.3 193.2 5.5 C 184.4 5.5 197.9 5.8 191.4 6.0 C 183.2 5.9 167.1 6.2 170.8 5.9 C 170.8 6.0 174.4 6.0 174.8 5.9 C 165.5 5.8 160.2 6.0 156.5 6.2 C 152.2 6.0 136.0 6.3 140.1 6.2 C 138.5 5.9 149.9 6.2 148.2 6.0 C 131.1 5.9 130.8 6.1 119.5 5.9 C 123.3 6.2 108.0 6.3 109.3 6.2 C 109.1 6.0 105.6 5.8 99.0 6.1 C 99.8 5.8 96.1 5.7 92.4 5.7 C 91.0 5.9 95.6 5.9 94.9 6.1 C 91.5 6.1 87.9 6.1 84.5 6.1 C 84.3 6.0 84.7 5.9 82.3 5.8 C 78.6 6.0 65.0 6.2 66.1 6.1 C 71.6 5.8 56.5 5.8 65.7 5.6 C 63.1 5.6 62.8 5.5 59.4 5.5 C 59.5 5.6 59.6 5.7 59.7 5.8 C 52.1 5.9 55.5 5.5 49.1 5.4 C 48.6 5.6 45.8 5.6 45.1 5.7 C 47.7 5.7 47.8 5.6 51.3 5.6 C 47.8 6.0 58.3 5.8 57.9 6.1 C 50.7 6.1 50.5 5.9 47.4 5.8 C 38.5 5.9 42.7 5.8 33.0 5.8 C 33.1 5.9 35.7 5.9 35.2 6.0 C 23.5 5.9 24.2 5.4 16.4 5.6 C 18.2 5.6 25.2 5.4 20.1 5.4 C 14.9 5.5 13.5 5.7 6.4 5.8 C 6.4 5.8 6.4 5.8 6.4 5.9 C 6.3 6.2 6.2 5.5 6.2 7.9 C 6.3 11.0 6.5 11.4 6.6 14.3 C 6.5 14.7 6.5 18.8 6.6 20.5 C 6.4 22.9 6.3 19.2 6.3 22.4 C 6.3 28.4 6.8 32.1 6.8 37.0 C 6.4 36.5 6.5 42.2 6.6 47.3 C 6.3 47.8 6.3 58.5 6.3 65.5 C 6.5 64.0 6.4 71.2 6.7 69.8 C 6.7 66.4 6.7 64.6 6.8 63.9 C 6.9 71.9 6.3 73.9 6.8 80.2 C 6.6 83.1 6.4 86.8 6.4 92.2 C 6.5 92.9 6.6 82.7 6.7 88.4 C 6.6 88.7 6.6 90.5 6.7 92.4 C 6.4 91.4 6.3 95.8 6.2 98.3 C 6.4 103.2 6.0 113.0 6.4 108.6 C 6.4 116.2 6.0 111.0 6.0 116.8 C 6.3 114.0 6.3 124.0 6.5 119.1 C 6.6 127.0 6.2 126.1 6.0 122.8 C 6.0 130.0 6.2 131.8 6.0 135.3 C 6.3 132.0 6.4 143.1 6.3 137.4 C 6.0 135.5 6.2 144.0 6.0 145.5 C 6.2 143.0 6.2 146.8 6.4 141.7 C 6.4 147.1 6.5 155.1 6.2 160.0 C 6.3 166.9 6.4 173.3 6.1 170.2 C 6.2 176.7 6.2 174.3 6.1 180.6 C 6.2 180.7 6.2 178.9 6.3 178.5 C 6.3 187.3 6.1 185.5 6.1 197.1 C 5.8 195.6 5.8 203.0 5.6 205.2 C 5.7 200.4 5.7 196.6 5.8 192.8 C 5.7 191.9 5.6 195.7 5.6 192.7 C 5.6 192.3 5.7 190.5 5.7 188.7 C 5.5 196.1 5.3 179.0 5.6 184.5 C 5.5 184.5 5.5 184.8 5.5 186.5 C 5.7 185.1 5.6 185.1 5.9 186.6 C 5.8 182.8 6.1 179.8 5.9 178.4 C 5.8 178.5 5.8 182.1 5.7 182.5 C 5.6 173.0 6.0 179.8 6.0 172.4 C 5.7 170.7 5.6 174.5 5.5 176.2 C 5.4 169.4 5.5 163.5 5.6 161.8 C 5.5 155.5 5.4 162.1 5.3 157.6 C 5.4 155.5 5.6 155.8 5.6 151.6 C 5.5 146.9 5.4 154.1 5.4 149.4 C 5.5 144.5 5.7 153.0 5.8 145.4 C 5.4 147.0 5.8 138.6 5.6 139.1 C 5.7 143.5 5.3 143.4 5.5 141.3 C 5.9 131.4 5.0 123.9 5.5 114.3 C 5.5 114.3 5.5 112.7 5.4 112.2 C 5.2 119.6 5.2 130.6 4.8 132.5 C 4.9 138.5 5.1 137.8 5.2 138.9 C 4.9 145.8 4.9 145.2 4.5 140.8 C 4.4 128.8 4.7 123.9 4.7 116.1 C 4.6 111.7 4.7 116.4 4.5 118.0 C 4.8 93.7 4.0 111.8 4.1 103.2 C 4.2 103.5 4.3 101.7 4.3 99.3 C 4.2 99.2 4.3 95.6 4.2 95.0 C 4.2 96.6 4.1 97.3 4.0 96.9 C 3.9 90.7 4.2 93.3 4.3 93.0 C 4.3 97.7 4.4 100.7 4.5 101.4 C 4.4 95.3 4.6 90.8 4.3 86.8 C 4.7 81.4 5.0 90.3 5.3 87.4 C 5.5 88.6 4.7 83.2 4.6 78.7 C 4.6 71.2 4.3 70.8 4.3 64.0 C 4.6 62.3 4.5 70.9 4.7 70.5 C 4.7 68.4 4.7 68.1 4.7 66.3 C 4.7 61.4 4.5 61.7 4.4 57.8 C 4.7 55.9 4.5 54.6 4.4 51.7 C 4.5 47.2 4.6 54.5 4.7 49.7 C 4.7 44.7 4.4 40.8 4.4 39.2 C 4.5 38.9 4.7 39.8 4.7 37.4 C 4.5 31.4 4.5 30.0 4.3 37.1 C 4.4 30.7 4.3 27.8 4.0 28.5 C 4.0 38.2 4.0 40.7 3.7 44.9 C 4.0 46.9 3.8 49.6 3.7 53.2 C 4.1 51.3 3.7 57.4 3.9 59.6 C 4.0 57.2 4.0 54.8 4.1 53.5 C 4.1 63.8 4.0 63.5 4.4 72.3 C 4.3 72.2 4.2 73.2 4.2 74.1 C 4.1 71.4 4.2 64.0 3.9 63.7 C 3.6 69.3 4.1 71.7 3.8 78.1 C 4.0 81.1 4.1 72.9 4.1 78.3 C 3.9 80.8 3.8 84.2 3.7 88.4 C 3.8 92.8 3.9 95.1 3.9 98.8 C 3.9 99.2 3.8 99.5 3.8 103.0 C 3.9 102.8 4.0 99.5 4.0 103.1 C 3.7 113.9 3.5 121.0 3.6 132.0 C 3.7 128.2 4.0 119.7 3.9 123.9 C 3.8 128.7 4.1 135.5 3.9 140.5 C 3.8 142.0 4.0 134.4 3.5 136.0 C 3.6 140.9 3.5 143.9 3.5 146.3 C 3.6 146.4 3.6 152.0 3.8 150.7 C 3.8 146.7 3.5 145.3 3.6 144.4 C 4.3 148.1 3.4 159.5 3.4 167.2 C 3.5 172.3 3.6 163.4 3.7 169.3 C 3.8 173.0 3.2 174.8 3.1 169.1 C 3.3 165.3 3.0 163.5 3.2 162.8 C 3.2 161.2 3.2 158.8 3.1 158.8 C 3.1 161.6 3.0 160.9 2.9 162.7 C 2.9 158.7 2.5 157.9 2.7 154.3 C 2.8 156.8 2.8 157.6 2.9 158.7 C 2.8 147.5 3.0 144.1 3.1 137.9 C 3.0 141.2 3.0 137.6 2.8 137.7 C 2.9 142.6 2.7 151.7 2.7 146.0 C 3.0 142.5 2.2 139.0 2.5 135.5 C 2.5 138.4 2.7 138.0 2.7 139.7 C 2.8 135.4 3.0 135.7 3.0 131.5 C 2.6 117.7 3.3 107.7 2.7 85.7 C 2.8 78.2 2.9 92.7 3.1 92.2 C 3.1 90.0 3.1 89.6 3.1 88.0 C 2.9 87.6 3.2 84.1 2.9 81.5 C 3.2 82.1 2.9 71.8 3.1 67.1 C 3.1 66.8 2.9 67.3 2.9 64.9 C 3.2 49.9 2.8 21.9 3.1 10.8 C 2.9 11.1 2.9 6.0 2.7 4.4 C 2.8 3.5 2.8 2.7 2.8 2.1 C 7.2 2.2 6.0 2.3 14.9 2.1 C 20.2 2.0 14.1 2.3 13.2 2.3 C 28.8 2.2 42.8 2.4 52.4 2.2 C 57.4 2.1 52.6 2.3 62.9 2.4 C 62.8 2.0 79.4 2.6 81.3 2.2 C 87.5 2.1 99.2 2.6 93.9 2.2 C 102.4 2.2 97.0 2.5 100.4 2.5 C 106.3 2.5 98.1 1.9 104.0 1.9 C 103.6 2.2 108.5 2.1 112.6 2.3 C 107.9 2.3 104.9 2.3 104.4 2.5 C 108.3 2.3 108.3 2.5 114.7 2.5 C 119.4 2.3 133.2 2.1 137.5 2.5 C 137.7 2.4 136.4 2.3 135.3 2.2 C 139.4 2.2 144.4 2.5 143.6 2.2 C 152.9 2.1 157.1 2.4 162.2 2.2 C 166.1 2.1 160.9 2.4 172.8 2.4 C 172.9 2.2 193.9 2.2 199.7 2.4 C 199.7 2.1 201.1 2.4 203.7 2.4 C 204.1 2.3 203.4 2.2 205.8 2.2 C 206.3 2.3 208.1 2.2 209.9 2.2 C 208.7 2.5 217.5 2.0 218.2 2.3 C 216.4 2.3 216.5 2.5 218.4 2.6 C 218.8 2.3 227.7 2.7 226.6 2.5 C 224.7 2.4 218.9 2.5 220.4 2.2 C 228.5 2.1 225.4 2.5 230.8 2.5 C 230.4 2.4 227.1 2.3 230.7 2.2 C 236.4 2.3 231.2 2.3 234.9 2.5 C 237.9 2.4 243.3 2.2 245.3 2.2 C 244.7 2.2 246.6 2.4 247.4 2.4 C 258.1 2.5 282.3 2.2 292.9 2.6 C 293.6 2.4 295.9 2.4 295.0 2.2 C 301.3 2.4 300.9 2.3 307.4 2.4 C 307.3 2.3 307.3 2.2 307.3 2.1 C 315.5 2.0 308.2 2.4 313.6 2.4 C 314.1 1.8 316.9 2.6 322.0 2.6 C 322.5 2.5 324.9 2.4 324.1 2.2 C 332.0 2.2 331.7 2.6 338.5 2.5 C 336.9 2.4 335.5 1.7 336.2 1.4 C 337.5 1.6 339.5 1.6 342.6 1.7 C 339.0 1.9 341.2 2.8 351.0 2.6 C 345.6 2.6 343.6 2.5 344.7 2.3 C 352.2 2.3 354.9 2.5 361.3 2.5 C 362.3 2.2 357.6 2.2 359.2 1.9 C 360.8 1.9 361.6 1.9 361.2 1.8 C 368.1 1.8 368.3 2.0 375.8 1.8 C 375.8 2.0 374.2 2.0 371.5 1.9 C 372.0 2.1 372.0 2.3 367.6 2.3 C 366.9 2.2 369.5 1.9 363.3 2.0 C 363.3 2.1 363.3 2.3 363.3 2.4 C 368.0 2.4 378.9 2.6 379.9 2.5 C 377.7 2.4 374.0 2.3 375.8 2.1 C 383.7 2.1 386.0 2.4 392.4 2.6 C 403.7 2.5 423.7 2.5 421.3 2.2 C 428.2 2.3 425.7 2.3 431.8 2.3 C 430.0 2.1 438.7 2.2 438.1 2.0 C 430.6 2.1 432.8 2.0 425.5 2.1 C 425.7 1.9 426.9 1.8 429.8 1.8 C 430.2 1.9 433.2 1.9 438.1 1.9 C 437.3 1.9 432.8 1.6 438.1 1.6 C 438.5 1.7 439.7 1.7 442.1 1.7 C 442.1 1.8 442.1 1.9 442.1 2.1 C 439.3 2.2 435.8 2.2 433.8 2.3 C 435.8 2.3 436.2 2.4 438.1 2.4 C 439.3 2.3 447.8 2.4 448.4 2.2 C 444.9 2.3 442.7 2.1 446.4 2.1 C 447.0 2.1 452.6 2.2 454.6 2.1 C 447.4 2.0 450.2 1.9 446.4 1.7 C 454.7 1.6 453.4 1.9 462.9 1.8 C 463.1 2.0 463.1 2.2 460.7 2.3 C 466.7 2.8 480.9 2.3 485.5 2.4 C 482.3 2.4 478.6 2.7 483.5 2.7 C 483.5 2.6 487.1 2.6 487.7 2.6 C 489.4 2.1 485.2 1.9 481.6 1.6 C 485.4 1.6 486.2 1.5 489.9 1.5 C 491.1 1.7 487.2 2.0 491.8 2.1 C 492.9 1.7 500.5 2.0 502.2 1.8 C 499.0 1.8 496.8 1.7 500.2 1.6 C 499.6 1.8 506.3 1.7 506.4 1.8 C 501.0 2.0 499.5 2.2 496.1 2.2 C 500.3 2.2 492.8 2.4 500.1 2.4 C 503.3 2.2 505.0 2.0 512.7 2.0 C 515.5 2.0 512.8 2.3 516.7 2.3 C 515.7 2.1 524.0 2.0 518.9 2.2 C 521.7 2.2 523.3 2.3 524.9 2.3 C 520.9 2.1 540.6 1.8 537.6 1.6 C 537.6 1.9 538.5 2.2 539.5 2.3 C 543.4 2.0 547.8 2.3 558.3 2.2 C 558.0 1.9 559.9 2.2 564.4 2.2 C 565.2 2.0 561.4 2.0 564.5 1.9 C 569.5 2.0 569.7 2.0 570.7 2.2 C 574.3 2.2 577.1 2.2 578.9 2.2 C 579.2 2.1 578.0 2.1 577.0 2.0 C 590.8 2.3 598.2 2.0 610.1 2.0 C 605.1 1.9 604.0 2.3 608.0 2.2 C 610.5 2.2 612.7 2.2 614.1 2.1 C 611.4 1.8 612.6 2.0 618.4 2.0 C 623.7 1.9 616.6 1.6 620.6 1.6 C 625.0 1.7 622.3 1.8 624.7 1.9 C 626.8 1.9 629.0 1.9 631.0 1.9 C 627.2 1.8 631.5 1.7 635.2 1.6 C 632.4 1.9 634.0 1.9 641.3 1.8 C 642.1 2.0 638.2 2.0 641.2 2.1 C 642.8 2.1 648.7 1.8 653.6 2.0 C 652.0 2.0 651.1 2.1 651.5 2.2 C 657.1 2.0 661.1 2.3 665.9 2.4 C 661.2 2.2 663.9 2.0 662.0 1.8 C 666.7 2.1 672.7 1.8 676.4 2.1 C 669.4 2.0 675.9 2.6 680.4 2.6 C 681.5 2.3 674.0 2.4 676.4 2.1 C 678.9 1.9 684.2 2.3 686.8 2.0 C 686.4 1.9 683.5 2.1 682.8 1.9 C 686.6 1.9 681.6 1.8 684.9 1.8 C 686.7 2.0 689.2 1.7 691.2 1.7 C 693.8 1.8 699.0 2.1 701.4 1.9 C 701.4 1.8 697.8 1.9 697.4 1.8 C 708.9 1.6 712.1 2.0 722.4 1.7 C 723.5 1.8 725.5 1.9 728.5 1.9 C 728.4 1.8 730.2 1.7 732.7 1.7 C 737.0 1.8 741.4 1.9 747.0 2.0 C 745.9 2.2 743.2 2.3 750.8 2.3 C 751.3 2.2 748.1 2.2 750.9 2.2 C 750.9 2.2 752.7 2.3 753.2 2.2 C 753.2 2.1 753.2 2.1 753.3 2.0 C 751.1 2.0 749.0 2.0 747.0 2.0 C 747.3 1.9 746.8 1.8 745.2 1.7 C 754.4 1.6 753.4 2.1 759.5 1.8 C 760.2 2.2 762.1 2.3 756.9 2.6 C 762.2 2.5 765.9 2.4 767.5 2.2 C 761.2 2.2 763.5 1.9 761.8 1.8 C 765.8 1.8 765.9 1.7 767.9 1.6 C 772.5 1.8 762.8 2.0 771.8 2.1 C 765.2 1.8 777.7 1.8 782.3 1.9 C 781.5 1.8 779.9 1.8 782.5 1.7 C 794.9 1.5 793.2 2.4 800.9 1.9 C 800.1 2.1 803.6 2.1 804.9 2.2 C 798.8 2.2 797.1 2.3 794.5 2.3 C 794.8 2.4 796.6 2.5 798.4 2.5 C 798.5 2.3 800.1 2.3 802.7 2.4 C 804.6 2.3 804.3 1.9 809.4 1.7 C 809.7 1.8 809.0 1.9 811.4 1.9 C 813.8 1.7 809.2 2.3 819.4 2.3 C 817.6 2.2 816.7 2.0 817.7 1.9 C 822.7 1.8 821.5 1.9 828.1 1.8 C 830.2 2.2 823.2 2.3 821.2 2.5 C 825.7 2.4 829.6 2.2 833.9 2.3 C 830.5 2.2 834.2 2.0 838.3 1.9 C 841.9 2.0 837.7 2.3 842.1 2.3 C 845.6 2.3 847.7 2.1 844.5 1.9 C 852.1 2.0 850.6 1.7 857.0 1.8 C 857.1 1.9 855.2 1.9 852.9 1.9 C 853.2 2.0 852.3 2.1 854.7 2.1 C 857.7 2.0 862.8 1.9 867.5 1.8 C 867.5 4.1 867.6 6.2 867.6 7.9 C 867.2 17.6 867.7 28.0 867.6 37.6 C 867.3 33.9 867.5 50.0 867.2 54.7 C 867.3 57.5 867.8 66.1 867.6 62.9 C 867.3 63.9 867.4 69.4 867.3 73.8 C 867.4 73.7 867.5 73.7 867.6 73.7 C 867.6 83.1 867.4 85.3 867.2 88.4 C 867.3 99.9 867.0 112.5 867.2 126.4 C 866.9 129.9 867.0 133.0 866.8 141.2 C 867.1 141.0 867.1 147.6 867.1 153.7 C 867.3 152.3 867.2 158.1 867.4 158.1 C 867.4 152.5 867.7 154.6 867.8 151.8 C 867.5 159.1 868.0 162.9 867.8 168.7 C 867.7 161.4 867.4 159.1 867.0 158.0 C 867.1 166.7 867.0 171.2 866.8 172.7 C 866.9 173.4 867.1 172.4 867.2 170.6 C 867.2 173.5 867.2 176.3 867.2 179.0 C 867.0 179.8 866.9 175.9 866.9 178.9 C 867.0 181.0 867.1 183.3 867.2 185.4 C 866.9 187.8 867.0 182.0 866.8 181.2 C 866.7 192.4 867.2 187.7 867.3 193.9 C 867.1 195.4 866.9 194.9 866.8 200.0 C 867.0 202.1 867.2 202.9 867.2 208.6 C 867.2 212.3 866.9 208.2 866.8 212.5 C 866.9 213.2 866.9 215.0 866.8 216.8 C 867.0 216.7 867.0 218.6 867.1 221.1 C 866.9 221.6 867.0 225.8 867.1 227.4 C 866.9 227.8 866.6 234.1 866.8 235.7 C 866.9 235.7 866.9 232.0 867.0 231.7 C 867.0 236.4 867.0 239.7 867.1 242.2 C 866.5 243.2 867.0 251.3 866.7 260.7 C 866.9 266.8 867.1 259.9 867.2 267.6 C 867.1 272.0 867.0 266.4 866.8 267.2 C 866.7 268.0 866.7 271.3 866.7 273.5 C 865.6 273.5 864.9 273.6 864.9 273.6 C 864.9 273.7 865.9 273.7 866.8 273.7 C 866.9 272.8 866.9 271.8 866.9 271.6 C 866.9 272.5 867.0 273.2 867.0 273.9 C 863.7 273.9 863.3 273.7 860.6 273.6 C 861.2 273.8 857.7 273.9 857.0 274.0 C 842.3 274.2 842.0 273.7 835.8 273.5 C 835.9 273.7 832.3 273.6 831.9 273.7 C 836.1 273.6 841.9 273.8 836.1 273.9 C 837.0 273.7 828.5 273.9 827.9 273.9 C 829.1 274.1 834.4 274.0 832.5 274.3 C 824.7 274.3 827.5 273.9 821.8 274.1 C 821.1 274.0 824.5 273.9 825.8 273.9 C 823.4 273.9 820.0 273.9 819.5 273.8 C 822.5 273.7 822.3 273.5 823.4 273.4 C 819.5 273.6 812.1 273.4 817.4 273.7 C 809.1 273.6 801.4 273.8 807.3 274.0 C 800.7 274.1 804.2 273.7 798.9 274.0 C 799.5 273.7 801.0 273.5 796.3 273.3 C 795.7 273.5 792.1 273.5 792.7 273.7 C 782.8 273.7 779.8 273.4 775.5 273.2 C 779.5 273.6 774.4 273.3 769.8 273.5 C 766.7 273.4 769.2 273.1 761.3 273.2 C 770.2 273.6 751.3 273.3 755.4 273.7 C 745.0 273.5 745.2 273.5 734.5 273.5 C 735.4 273.3 737.9 273.2 742.5 273.1 C 739.5 273.4 751.7 273.4 750.8 273.2 C 750.7 273.2 750.7 273.1 750.7 273.1 C 742.8 273.1 737.6 273.0 734.0 272.9 C 732.6 273.1 729.0 273.2 730.5 273.5 C 722.8 273.1 715.3 273.6 711.6 273.3 C 714.2 273.3 716.6 273.3 715.7 273.1 C 712.8 273.2 709.2 273.3 709.7 273.5 C 715.8 273.5 717.1 273.6 719.9 273.4 C 717.5 273.6 726.3 273.7 720.3 273.8 C 720.2 273.4 708.1 274.0 712.0 273.7 C 718.5 273.6 704.3 273.5 703.6 273.3 C 703.6 273.3 703.6 273.3 703.6 273.3 Z M 3.0 133.5 C 3.1 139.9 3.3 132.3 3.3 127.6 C 3.2 129.0 3.1 129.5 3.0 129.5 C 3.0 131.3 3.1 133.2 3.0 133.5 C 3.0 133.5 3.0 133.5 3.0 133.5 Z M 6.5 69.6 C 6.2 67.4 6.4 77.8 6.3 81.9 C 6.4 80.8 6.5 79.4 6.5 82.1 C 6.7 77.8 6.3 75.9 6.5 69.6 C 6.5 69.6 6.5 69.6 6.5 69.6 Z M 170.2 5.0 C 168.6 5.0 164.6 5.1 164.1 5.0 C 161.7 5.0 162.4 5.1 162.1 5.2 C 157.3 5.2 163.1 4.8 155.7 5.0 C 153.2 5.4 168.9 5.5 170.2 5.0 C 170.2 5.0 170.2 5.0 170.2 5.0 Z M 778.8 269.7 C 775.7 269.6 782.5 269.4 780.3 269.2 C 769.1 269.3 778.1 269.6 762.2 269.6 C 763.3 269.6 764.6 269.7 764.5 269.8 C 771.8 269.7 772.2 269.5 770.8 270.0 C 774.2 270.0 774.6 269.4 778.8 269.7 C 778.8 269.7 778.8 269.7 778.8 269.7 Z M 630.0 268.7 C 631.2 268.7 632.3 268.8 632.4 268.9 C 637.1 268.8 636.0 268.8 642.5 268.8 C 641.4 268.5 635.3 268.5 630.0 268.7 C 630.0 268.7 630.0 268.7 630.0 268.7 Z M 240.0 268.1 C 238.6 268.1 237.2 268.1 235.8 268.1 C 236.8 268.3 233.1 268.6 240.1 268.5 C 240.5 268.5 239.3 268.5 238.1 268.5 C 239.2 268.4 242.6 268.4 242.0 268.2 C 240.2 268.2 240.0 268.2 240.0 268.1 C 240.0 268.1 240.0 268.1 240.0 268.1 Z M 76.0 270.4 C 84.0 270.1 64.3 269.5 76.0 270.4 C 76.0 270.4 76.0 270.4 76.0 270.4 C 76.0 270.4 76.0 270.4 76.0 270.4 Z M 92.9 273.2 C 93.1 273.3 94.9 273.2 94.9 273.2 C 101.8 273.2 95.1 273.4 99.0 273.5 C 104.4 273.3 96.1 273.1 103.1 272.9 C 101.7 272.8 96.9 273.2 92.9 273.2 C 92.9 273.2 92.9 273.2 92.9 273.2 Z M 792.5 2.1 C 786.7 2.2 784.9 2.4 783.7 2.6 C 787.5 2.6 790.7 2.7 791.9 2.8 C 799.2 2.7 787.2 2.6 786.0 2.6 C 787.0 2.3 792.3 2.3 792.5 2.1 C 792.5 2.1 792.5 2.1 792.5 2.1 Z M 773.8 2.2 C 771.3 2.3 767.6 2.4 767.2 2.6 C 770.9 2.5 771.2 2.6 771.3 2.7 C 774.7 2.6 770.8 2.4 773.8 2.2 C 773.8 2.2 773.8 2.2 773.8 2.2 Z M 808.8 2.4 C 806.1 2.4 807.0 2.6 806.5 2.7 C 810.3 2.7 810.8 2.8 814.7 2.8 C 814.7 2.7 814.8 2.6 814.9 2.6 C 811.7 2.5 811.4 2.6 808.5 2.6 C 808.6 2.6 808.7 2.5 808.8 2.4 C 808.8 2.4 808.8 2.4 808.8 2.4 Z M 755.0 2.5 C 744.1 2.4 738.9 2.9 731.6 3.2 C 739.5 3.2 747.0 2.7 752.5 2.8 C 759.4 2.7 750.4 2.6 750.7 2.6 C 750.9 2.5 753.3 2.5 755.0 2.5 C 755.0 2.5 755.0 2.5 755.0 2.5 Z M 659.6 2.5 C 657.5 2.3 653.3 2.7 647.0 2.6 C 648.2 2.7 649.2 2.8 649.1 2.9 C 658.0 3.0 653.0 2.5 659.6 2.5 C 659.6 2.5 659.6 2.5 659.6 2.5 Z M 607.9 2.6 C 602.4 2.7 610.6 2.8 607.7 3.0 C 613.8 3.0 620.2 3.0 620.1 2.7 C 613.6 2.9 612.2 2.9 607.9 2.6 C 607.9 2.6 607.9 2.6 607.9 2.6 Z M 570.5 2.6 C 564.4 2.8 573.0 2.9 570.3 3.2 C 572.8 3.2 572.2 3.1 572.4 3.0 C 574.2 3.0 575.8 3.0 578.7 3.0 C 576.7 2.9 569.6 2.9 570.5 2.6 C 570.5 2.6 570.5 2.6 570.5 2.6 Z M 866.5 80.3 C 866.5 76.6 866.2 77.8 866.3 70.0 C 866.3 81.8 865.5 75.6 865.7 91.0 C 865.7 88.5 865.9 90.1 865.7 91.0 C 865.9 96.8 865.9 85.4 866.1 90.8 C 866.1 86.6 865.8 89.1 865.8 84.9 C 866.1 80.3 866.2 77.6 866.5 80.3 C 866.5 80.3 866.5 80.3 866.5 80.3 Z M 865.4 91.1 C 865.3 95.4 865.8 95.2 865.6 97.3 C 865.6 99.4 865.7 98.9 865.7 99.3 C 865.7 97.7 865.8 97.5 865.8 97.3 C 865.7 93.6 865.7 90.0 865.4 91.1 C 865.4 91.1 865.4 91.1 865.4 91.1 Z M 865.4 51.6 C 865.5 58.6 865.4 60.7 865.6 64.0 C 865.2 66.7 865.7 68.6 865.4 72.4 C 865.5 79.3 865.6 74.2 865.7 72.3 C 865.8 79.0 865.5 74.0 865.6 80.7 C 865.9 81.8 865.8 73.3 866.1 74.2 C 866.1 69.1 865.9 69.2 865.8 65.9 C 865.8 63.5 866.0 64.2 866.1 63.8 C 866.0 57.9 866.2 58.2 866.1 53.3 C 865.9 52.3 865.8 54.3 865.9 59.8 C 865.8 54.2 865.6 51.8 865.7 45.3 C 866.0 49.8 866.1 28.7 865.6 30.7 C 865.6 36.4 865.8 34.6 865.9 36.8 C 865.7 44.3 865.7 48.7 865.4 51.6 C 865.4 51.6 865.4 51.6 865.4 51.6 Z M 810.3 3.2 C 808.5 3.2 806.9 3.1 804.1 3.1 C 804.1 2.9 807.7 3.0 804.4 2.8 C 800.0 2.8 798.9 2.9 796.0 2.9 C 797.5 3.0 806.6 3.3 801.7 3.4 C 803.0 3.5 806.0 3.5 809.8 3.5 C 805.7 3.2 816.1 3.5 820.3 3.5 C 820.2 3.1 827.5 3.6 830.7 3.4 C 828.5 3.1 819.8 3.4 816.2 3.4 C 818.0 3.3 806.4 2.8 810.3 3.2 C 810.3 3.2 810.3 3.2 810.3 3.2 Z M 865.6 107.7 C 865.6 108.9 865.7 113.6 865.7 109.9 C 865.8 111.7 865.7 115.6 866.1 113.9 C 866.1 116.1 866.1 118.2 866.1 120.2 C 865.9 119.4 866.0 113.7 865.7 116.0 C 865.9 120.2 865.7 118.6 865.7 124.3 C 865.5 121.3 865.5 124.5 865.2 122.4 C 865.3 124.0 865.3 129.0 865.5 128.6 C 865.4 136.5 865.2 126.4 865.2 136.9 C 865.0 136.7 865.0 129.2 865.1 126.6 C 864.9 125.2 865.0 139.6 864.9 147.2 C 865.1 140.4 865.4 145.8 865.6 149.3 C 865.5 151.7 865.4 149.3 865.3 153.5 C 865.2 157.0 865.4 158.8 865.3 159.8 C 865.3 162.6 865.5 161.5 865.6 161.9 C 865.5 166.8 865.2 163.0 865.3 170.1 C 865.6 164.9 865.7 171.0 865.6 180.6 C 865.7 180.0 865.7 176.9 865.8 176.6 C 866.0 178.0 865.7 183.4 865.6 184.8 C 865.6 188.3 865.8 186.1 865.7 182.9 C 865.8 184.9 865.9 187.0 866.0 189.2 C 866.0 178.9 865.9 162.4 866.3 143.2 C 866.1 146.9 866.0 142.6 866.1 136.9 C 866.3 136.1 866.3 138.5 866.3 141.2 C 866.6 134.5 865.9 134.9 866.1 124.5 C 866.2 118.8 866.3 130.8 866.4 124.5 C 866.4 120.6 866.2 118.0 866.4 116.1 C 866.3 109.4 866.0 107.6 866.1 97.2 C 865.9 103.1 865.4 105.9 865.5 112.0 C 865.6 112.0 865.6 109.3 865.6 107.7 C 865.6 107.7 865.6 107.7 865.6 107.7 Z M 771.2 2.9 C 767.6 2.9 765.7 3.0 765.0 2.9 C 758.6 3.0 765.6 3.1 766.7 3.2 C 769.6 3.1 770.7 3.0 771.2 2.9 C 771.2 2.9 771.2 2.9 771.2 2.9 Z M 142.0 2.9 C 134.1 2.8 136.0 3.1 129.7 3.1 C 134.8 3.2 136.2 3.4 144.4 3.4 C 144.7 3.2 144.5 3.0 142.0 2.9 C 142.0 2.9 142.0 2.9 142.0 2.9 Z M 791.7 3.0 C 796.9 2.8 785.4 3.3 785.5 3.1 C 779.6 3.3 790.9 3.3 785.2 3.5 C 790.4 3.4 793.2 3.6 799.6 3.4 C 799.5 3.3 794.5 3.3 789.4 3.3 C 788.9 3.1 791.6 3.1 791.7 3.0 C 791.7 3.0 791.7 3.0 791.7 3.0 Z M 223.1 3.5 C 228.4 3.3 217.8 3.1 214.5 3.0 C 214.5 3.3 216.1 3.2 223.1 3.5 C 223.1 3.5 223.1 3.5 223.1 3.5 Z M 88.5 3.3 C 85.7 3.6 97.8 3.3 95.0 3.6 C 98.6 3.6 99.0 3.5 99.1 3.4 C 101.0 3.5 106.8 3.5 105.3 3.7 C 106.5 3.9 96.0 3.6 99.5 3.9 C 96.1 3.9 95.8 3.8 93.2 3.8 C 99.2 3.9 96.2 3.6 88.7 3.5 C 88.9 3.7 92.2 3.7 88.9 3.8 C 88.5 3.7 84.5 3.5 84.4 3.2 C 78.0 3.2 82.1 3.6 74.4 3.6 C 75.2 3.8 80.0 3.8 82.9 3.8 C 82.3 4.1 74.7 3.6 76.8 4.0 C 75.0 3.8 70.5 3.7 70.1 3.4 C 75.8 3.3 79.5 3.2 84.3 3.0 C 79.7 2.9 73.7 3.5 65.8 3.2 C 66.8 3.4 62.2 3.4 64.0 3.6 C 57.9 3.5 60.4 3.2 61.6 3.2 C 59.9 3.0 48.3 3.2 49.3 3.4 C 48.3 3.2 34.2 3.2 35.1 3.5 C 30.7 3.3 24.6 3.7 22.4 3.4 C 20.1 3.5 15.3 3.5 10.0 3.4 C 8.9 3.7 17.8 3.6 18.6 3.8 C 20.4 4.0 8.9 3.7 10.5 3.9 C 10.6 4.0 10.6 4.0 10.7 4.1 C 14.8 4.0 19.0 3.9 22.9 3.8 C 26.0 3.9 22.2 3.9 23.1 4.1 C 25.8 3.9 38.8 3.6 39.6 4.1 C 48.4 4.0 54.7 4.0 58.1 3.8 C 63.4 3.9 55.2 4.0 58.4 4.2 C 73.6 3.8 92.9 4.2 105.5 3.8 C 108.3 3.9 107.4 4.0 107.9 4.2 C 125.5 4.0 110.1 3.7 124.1 3.8 C 124.3 4.0 117.6 3.9 118.2 4.2 C 123.0 4.2 124.1 4.0 130.6 4.1 C 130.5 4.0 130.4 3.9 130.4 3.8 C 135.6 3.8 133.8 4.1 136.7 4.2 C 143.3 4.1 141.6 3.9 145.0 4.2 C 151.1 4.1 157.1 4.0 163.6 4.2 C 167.8 4.0 159.5 3.6 152.8 3.6 C 153.2 3.5 155.0 3.5 154.9 3.4 C 162.7 3.6 164.2 4.1 175.9 4.2 C 166.9 3.9 180.5 4.0 182.2 4.2 C 187.0 4.2 183.2 3.9 180.0 3.9 C 180.5 3.8 183.6 3.9 184.1 4.0 C 184.5 3.6 173.1 3.5 161.3 3.6 C 166.4 3.2 152.8 3.6 158.7 3.1 C 149.1 3.2 157.6 3.5 146.7 3.4 C 147.7 3.6 149.8 3.6 150.9 3.8 C 142.7 3.8 144.9 3.5 136.2 3.5 C 135.0 3.7 140.6 3.7 140.7 3.8 C 131.1 3.6 128.0 3.5 121.6 3.3 C 120.5 3.4 122.2 3.7 111.5 3.5 C 111.4 3.5 111.4 3.4 111.3 3.4 C 116.4 3.4 117.3 2.9 104.8 3.0 C 104.1 3.1 107.9 3.1 111.2 3.1 C 109.9 3.3 105.9 3.3 101.1 3.4 C 98.6 3.3 95.7 3.2 98.9 3.2 C 96.7 3.0 95.2 3.4 88.5 3.3 C 88.5 3.3 88.5 3.3 88.5 3.3 Z M 669.6 3.0 C 668.0 3.1 666.4 3.1 663.3 3.1 C 661.8 3.3 667.5 3.3 667.4 3.4 C 671.8 3.5 668.6 3.2 669.6 3.0 C 669.6 3.0 669.6 3.0 669.6 3.0 Z M 727.4 3.2 C 727.1 3.0 723.9 3.3 719.1 3.2 C 717.6 3.4 723.3 3.4 723.2 3.5 C 728.8 3.6 722.0 3.1 727.4 3.2 C 727.4 3.2 727.4 3.2 727.4 3.2 Z M 702.6 3.2 C 700.5 3.0 700.3 3.3 704.8 3.3 C 704.3 3.4 703.2 3.5 700.3 3.6 C 703.2 3.9 705.5 3.4 710.7 3.5 C 708.9 3.4 706.2 3.3 702.6 3.2 C 702.6 3.2 702.6 3.2 702.6 3.2 Z M 694.3 3.2 C 691.2 3.4 689.3 3.1 684.0 3.3 C 685.1 3.4 696.7 3.4 698.5 3.3 C 700.5 3.1 688.1 3.1 694.3 3.2 C 694.3 3.2 694.3 3.2 694.3 3.2 Z M 305.8 3.8 C 303.8 3.8 304.2 3.9 303.8 4.0 C 297.3 3.6 288.4 3.7 295.4 3.4 C 288.8 3.6 282.4 3.3 276.8 3.2 C 271.9 3.2 274.4 3.4 270.6 3.4 C 264.5 3.4 273.8 3.3 272.5 3.2 C 271.2 3.0 269.6 3.4 262.3 3.3 C 264.5 3.7 256.0 3.2 258.4 3.7 C 254.3 3.5 253.2 3.7 247.9 3.7 C 248.6 3.8 253.6 3.8 254.3 4.0 C 257.0 4.2 257.0 3.8 252.2 3.8 C 254.9 3.6 262.3 3.9 264.5 3.8 C 267.2 4.0 257.9 3.8 260.6 4.1 C 262.4 4.0 264.2 4.0 264.5 3.9 C 267.6 4.0 269.6 4.0 270.9 4.2 C 269.1 4.2 268.8 4.1 268.8 4.1 C 265.0 4.1 272.8 4.5 264.8 4.5 C 266.2 4.6 269.6 4.6 269.1 4.7 C 271.5 4.9 268.8 4.0 277.2 4.3 C 282.5 4.1 264.2 4.1 268.6 3.6 C 280.1 3.7 273.8 4.0 283.1 4.1 C 283.1 4.0 282.8 3.9 285.2 3.8 C 284.8 3.7 281.4 3.8 279.0 3.8 C 279.3 3.7 282.8 3.7 285.2 3.7 C 284.8 3.6 282.9 3.6 282.9 3.5 C 290.8 3.6 290.2 4.1 283.2 4.2 C 283.4 4.5 293.1 4.4 295.7 4.3 C 293.0 4.1 295.8 4.2 293.5 3.9 C 291.5 3.9 291.9 4.0 291.4 4.1 C 287.7 4.0 291.1 3.9 291.3 3.8 C 295.5 3.9 295.4 4.1 299.6 3.9 C 298.6 4.0 297.6 4.0 297.6 4.2 C 299.6 4.2 301.9 4.2 303.9 4.2 C 303.6 4.0 306.2 4.0 305.8 3.8 C 305.8 3.8 305.8 3.8 305.8 3.8 Z M 198.1 3.2 C 191.2 3.1 195.0 3.4 198.2 3.4 C 196.8 3.4 194.4 3.5 192.0 3.5 C 194.1 3.6 195.9 3.5 202.4 3.6 C 196.9 3.9 203.0 4.4 213.2 4.3 C 216.0 3.9 207.3 3.8 210.6 3.5 C 203.2 3.7 199.1 3.5 198.1 3.2 C 198.1 3.2 198.1 3.2 198.1 3.2 Z M 766.7 3.3 C 762.6 3.3 758.4 3.3 754.4 3.3 C 754.6 3.5 767.4 3.7 766.7 3.3 C 766.7 3.3 766.7 3.3 766.7 3.3 Z M 865.7 197.2 C 865.7 199.1 865.6 199.3 865.6 199.4 C 865.6 205.6 865.8 196.7 866.0 199.6 C 866.0 197.4 866.0 195.3 866.0 193.3 C 865.9 192.9 865.7 201.8 865.7 195.2 C 865.6 195.6 865.6 197.2 865.7 197.2 C 865.7 197.2 865.7 197.2 865.7 197.2 Z M 673.7 3.4 C 669.8 3.5 672.0 3.8 663.0 3.7 C 666.2 3.9 668.2 3.8 673.5 3.8 C 673.5 3.6 673.6 3.5 673.7 3.4 C 673.7 3.4 673.7 3.4 673.7 3.4 Z M 336.7 3.4 C 331.4 3.2 330.1 3.8 320.2 3.6 C 325.3 3.9 330.9 3.5 336.7 3.4 C 336.7 3.4 336.7 3.4 336.7 3.4 Z M 4.5 14.5 C 4.6 11.5 4.6 15.4 4.7 10.5 C 4.7 8.0 4.6 6.7 4.5 3.9 C 5.1 3.9 5.7 3.8 6.4 3.8 C 5.8 3.8 5.1 3.8 4.4 3.8 C 4.3 9.6 4.5 18.7 4.1 22.2 C 4.2 27.3 4.4 27.1 4.6 28.9 C 4.6 26.4 4.6 25.2 4.7 24.9 C 4.3 21.6 4.9 18.5 4.5 14.5 C 4.5 14.5 4.5 14.5 4.5 14.5 Z M 225.1 3.6 C 229.0 3.7 222.6 3.8 221.3 4.0 C 218.5 4.0 219.4 3.8 218.9 3.7 C 215.3 3.7 214.4 3.8 215.1 4.0 C 221.9 4.1 230.4 4.1 225.5 4.4 C 232.2 4.5 228.4 4.1 231.6 4.1 C 235.3 4.2 231.9 4.3 231.8 4.6 C 233.4 4.5 238.3 4.2 238.1 4.6 C 247.8 4.2 243.2 3.8 235.5 3.4 C 229.0 3.7 236.7 3.8 225.1 3.6 C 225.1 3.6 225.1 3.6 225.1 3.6 Z M 487.6 3.8 C 487.0 3.8 483.4 3.8 483.4 3.7 C 478.9 3.9 475.1 4.2 471.0 4.4 C 471.8 4.6 477.5 4.4 475.1 4.2 C 476.9 4.4 480.9 4.5 483.3 4.6 C 487.5 4.7 489.0 4.2 489.5 4.6 C 493.5 4.4 491.1 4.4 497.8 4.5 C 487.3 4.2 501.4 4.3 502.0 4.1 C 496.0 4.1 490.8 4.1 491.5 4.3 C 487.1 4.2 482.3 4.1 481.3 3.9 C 481.7 3.8 485.2 3.9 487.6 3.8 C 487.6 3.8 487.6 3.8 487.6 3.8 Z M 462.8 4.6 C 464.4 4.5 466.0 4.5 468.8 4.5 C 467.2 4.4 466.6 4.3 466.8 4.2 C 461.6 4.2 460.4 4.3 458.6 4.1 C 453.8 4.0 459.8 4.4 452.3 4.3 C 452.9 4.4 456.6 4.4 456.5 4.5 C 457.2 4.3 460.2 4.3 462.8 4.6 C 462.8 4.6 462.8 4.6 462.8 4.6 Z M 398.8 4.1 C 393.4 4.1 401.6 4.2 398.8 4.4 C 400.2 4.4 410.5 4.4 409.1 4.6 C 412.1 5.0 422.6 4.3 421.6 4.7 C 424.0 4.7 423.2 4.6 423.6 4.5 C 416.3 4.5 416.3 4.4 421.6 4.3 C 420.8 4.2 416.3 4.3 413.3 4.2 C 412.9 4.4 415.7 4.4 415.3 4.6 C 409.1 4.4 404.5 4.2 398.8 4.1 C 398.8 4.1 398.8 4.1 398.8 4.1 Z M 715.0 272.0 C 719.9 272.1 722.8 272.0 725.2 272.0 C 723.7 271.8 721.4 272.0 719.0 272.0 C 718.2 271.8 720.5 271.8 723.1 271.8 C 720.5 271.6 712.0 271.8 715.0 272.0 C 715.0 272.0 715.0 272.0 715.0 272.0 Z M 756.2 272.0 C 760.8 272.1 763.8 272.0 764.3 271.9 C 762.4 271.7 763.2 272.0 760.1 272.0 C 758.3 271.9 757.0 271.8 755.9 271.7 C 753.9 271.7 754.4 271.8 753.9 271.9 C 752.3 271.9 752.0 271.9 751.8 271.8 C 746.3 272.0 758.4 271.8 756.2 272.0 C 756.2 272.0 756.2 272.0 756.2 272.0 Z M 433.8 4.2 C 435.6 4.4 437.0 4.5 442.1 4.5 C 441.1 4.3 445.1 4.3 448.3 4.3 C 443.5 4.1 441.1 4.2 433.8 4.2 C 433.8 4.2 433.8 4.2 433.8 4.2 Z M 865.0 122.4 C 865.2 116.1 864.8 116.7 865.0 107.8 C 864.9 107.8 864.8 107.9 864.8 107.9 C 865.0 113.3 864.8 115.7 865.0 122.4 C 865.0 122.4 865.0 122.4 865.0 122.4 Z M 162.7 271.9 C 163.2 271.7 156.8 271.8 156.4 271.7 C 155.3 272.0 151.9 271.4 139.9 271.5 C 139.7 271.4 140.5 271.3 142.1 271.3 C 132.2 271.3 144.9 271.6 146.2 271.8 C 153.8 271.8 155.0 271.9 162.7 271.9 C 162.7 271.9 162.7 271.9 162.7 271.9 Z M 56.6 4.6 C 56.9 4.5 55.7 4.5 54.5 4.5 C 53.1 4.5 51.7 4.5 50.5 4.5 C 51.1 4.8 58.1 4.9 53.2 5.3 C 55.0 5.3 55.2 5.2 55.1 5.2 C 64.5 4.5 73.4 5.7 86.0 5.2 C 88.0 5.2 87.5 5.1 87.9 5.0 C 86.3 5.1 86.1 5.0 85.8 5.0 C 84.5 5.3 72.3 4.9 77.5 4.8 C 77.0 4.7 75.4 4.8 75.5 4.8 C 74.0 4.8 72.6 4.8 71.2 4.8 C 72.1 4.9 75.0 4.9 75.7 5.0 C 68.9 4.9 60.8 4.9 64.8 4.6 C 60.8 4.6 59.5 4.7 56.8 4.8 C 54.1 4.8 53.9 4.6 56.6 4.6 C 56.6 4.6 56.6 4.6 56.6 4.6 Z M 5.3 6.8 C 5.2 13.2 5.5 11.0 5.5 17.4 C 5.6 14.0 5.4 9.5 5.5 4.8 C 6.1 4.8 6.8 4.9 7.4 4.9 C 7.0 4.8 6.2 4.8 5.4 4.8 C 5.4 5.7 5.4 6.6 5.3 6.8 C 5.3 6.8 5.3 6.8 5.3 6.8 Z M 122.8 5.0 C 121.8 5.2 127.4 5.3 133.4 5.3 C 134.4 5.0 129.0 5.0 122.8 5.0 C 122.8 5.0 122.8 5.0 122.8 5.0 Z M 96.1 5.0 C 90.1 5.1 103.7 5.0 100.5 5.3 C 103.3 5.3 106.3 5.3 106.6 5.4 C 108.8 5.3 108.7 5.2 112.7 5.2 C 112.4 5.0 105.8 5.1 106.3 5.0 C 101.8 5.1 101.0 5.1 96.1 5.0 C 96.1 5.0 96.1 5.0 96.1 5.0 Z M 92.1 5.0 C 88.1 5.0 93.4 5.4 98.5 5.4 C 96.5 5.3 95.2 5.1 92.1 5.0 C 92.1 5.0 92.1 5.0 92.1 5.0 Z M 573.8 5.0 C 571.0 5.1 573.1 5.3 569.7 5.3 C 569.6 5.4 581.9 5.4 571.6 5.4 C 575.4 5.7 577.5 5.3 582.1 5.4 C 580.7 5.3 579.5 5.2 582.1 5.2 C 583.6 5.0 572.3 5.3 573.8 5.0 C 573.8 5.0 573.8 5.0 573.8 5.0 Z M 561.5 5.0 C 559.1 5.1 560.3 5.1 561.5 5.1 C 561.1 5.2 557.7 5.2 555.3 5.2 C 555.1 5.1 559.6 5.6 559.3 5.8 C 569.8 5.6 561.8 5.3 561.5 5.0 C 561.5 5.0 561.5 5.0 561.5 5.0 Z M 551.2 5.2 C 544.5 5.0 535.0 5.0 530.5 5.3 C 535.3 5.6 547.9 5.5 551.2 5.2 C 551.2 5.2 551.2 5.2 551.2 5.2 Z M 619.0 5.3 C 606.9 5.0 582.5 5.4 604.5 5.6 C 603.7 5.4 618.2 5.3 625.2 5.4 C 625.4 5.3 633.4 5.1 633.5 5.3 C 639.0 5.1 616.3 5.1 619.0 5.3 C 619.0 5.3 619.0 5.3 619.0 5.3 Z M 522.2 5.8 C 525.7 5.6 521.3 5.2 526.5 5.4 C 529.5 5.3 525.7 5.3 526.6 5.1 C 520.1 5.1 507.1 5.4 505.9 5.1 C 502.7 5.2 501.6 5.4 495.6 5.4 C 495.4 5.5 517.5 5.1 522.3 5.6 C 521.8 5.7 513.8 5.7 522.2 5.8 C 522.2 5.8 522.2 5.8 522.2 5.8 Z M 863.6 122.5 C 863.8 123.1 863.6 114.5 863.9 116.3 C 863.6 111.7 863.8 107.3 863.6 102.1 C 863.6 100.5 864.0 101.0 864.0 93.8 C 863.8 93.7 863.9 97.2 863.7 93.9 C 863.7 87.3 864.0 89.0 863.9 81.4 C 863.5 82.8 863.8 65.4 863.4 67.2 C 863.4 71.2 863.6 70.9 863.6 77.5 C 863.5 79.8 863.4 78.8 863.4 81.6 C 863.2 79.7 863.5 76.2 863.3 73.5 C 863.2 74.1 863.2 79.1 863.0 79.8 C 863.0 82.8 863.1 79.0 863.2 79.7 C 863.3 87.6 862.7 79.3 862.8 88.1 C 863.0 86.2 863.0 86.2 863.2 87.9 C 863.1 91.3 863.3 101.8 863.0 96.1 C 862.8 96.8 863.1 103.1 863.2 102.2 C 863.3 105.6 863.2 106.0 863.1 106.3 C 863.2 115.0 863.4 116.2 863.7 114.3 C 863.9 116.1 863.5 117.4 863.6 122.5 C 863.6 122.5 863.6 122.5 863.6 122.5 Z M 684.8 5.4 C 689.7 5.2 679.4 5.4 674.6 5.4 C 680.4 5.4 678.4 5.7 684.6 5.8 C 682.4 5.7 682.9 5.6 686.9 5.6 C 688.0 5.5 679.0 5.4 684.8 5.4 C 684.8 5.4 684.8 5.4 684.8 5.4 Z M 483.2 5.4 C 481.0 5.2 470.3 5.3 464.7 5.3 C 465.7 5.7 479.4 5.1 481.2 5.5 C 484.4 5.5 479.4 5.4 483.2 5.4 C 483.2 5.4 483.2 5.4 483.2 5.4 Z M 863.9 44.3 C 863.9 42.1 863.8 43.4 863.8 44.4 C 863.7 43.9 863.7 39.4 863.7 36.2 C 863.6 41.0 863.5 35.4 863.2 36.6 C 863.3 34.2 863.2 33.0 863.2 32.7 C 863.6 32.1 862.9 19.9 862.9 32.9 C 863.1 30.3 863.1 31.4 863.2 36.7 C 863.0 42.6 863.2 47.0 862.9 49.2 C 863.0 52.9 863.1 54.3 863.1 59.2 C 862.9 60.5 862.8 65.2 862.4 61.6 C 862.4 70.5 863.0 64.3 863.1 71.6 C 862.9 78.6 862.8 68.2 862.6 69.8 C 862.6 71.6 862.5 71.3 862.4 71.9 C 862.5 74.5 862.7 74.4 862.7 71.8 C 862.8 72.5 863.0 79.6 862.7 77.8 C 862.8 81.9 863.4 71.0 863.2 65.4 C 863.1 62.0 863.6 61.7 863.6 65.2 C 863.8 63.8 863.2 57.4 863.7 58.9 C 863.7 56.1 863.7 53.5 863.7 50.6 C 863.7 51.1 863.7 52.7 863.6 52.8 C 863.6 50.2 863.6 47.4 863.6 44.6 C 863.7 46.9 863.8 46.8 863.9 44.3 C 863.9 44.3 863.9 44.3 863.9 44.3 Z M 510.1 5.4 C 504.8 5.4 503.6 5.6 499.6 5.6 C 501.2 5.8 512.4 5.7 510.1 5.4 C 510.1 5.4 510.1 5.4 510.1 5.4 Z M 862.9 157.4 C 862.9 156.8 862.9 153.3 863.0 153.3 C 863.1 159.7 863.2 152.5 863.7 157.5 C 863.4 149.3 862.9 146.5 862.7 157.4 C 862.7 165.4 862.8 149.3 862.9 157.4 C 862.9 157.4 862.9 157.4 862.9 157.4 Z M 863.0 132.8 C 862.9 127.8 862.8 140.3 862.7 143.1 C 862.6 143.1 862.5 143.1 862.4 143.1 C 862.8 150.1 862.9 140.7 863.4 147.1 C 863.5 139.1 863.6 135.7 863.5 128.7 C 863.4 129.2 863.4 130.7 863.5 130.7 C 863.5 135.9 863.1 132.4 863.2 126.8 C 863.1 128.4 863.1 133.4 863.1 136.9 C 863.2 135.9 863.2 134.7 863.3 134.9 C 863.4 139.3 863.2 137.7 863.2 140.9 C 863.1 140.9 862.9 133.0 863.0 132.8 C 863.0 132.8 863.0 132.8 863.0 132.8 Z M 596.3 270.3 C 600.4 270.2 591.6 269.9 591.8 269.6 C 587.3 269.5 586.4 269.6 583.6 269.6 C 585.1 269.8 589.9 269.8 592.0 270.0 C 591.5 270.3 585.6 269.9 583.9 270.1 C 581.6 270.5 594.3 270.0 596.3 270.3 C 596.3 270.3 596.3 270.3 596.3 270.3 Z M 805.8 5.8 C 803.6 5.9 804.7 5.9 805.7 5.9 C 805.2 6.0 801.6 6.0 801.7 5.9 C 798.5 5.9 803.4 6.1 799.6 6.1 C 798.6 6.2 805.4 6.1 805.6 6.0 C 810.3 6.0 806.4 6.3 807.5 6.4 C 811.5 6.4 810.3 6.2 815.8 6.2 C 812.6 6.1 809.7 6.0 805.8 5.8 C 805.8 5.8 805.8 5.8 805.8 5.8 Z M 863.3 171.7 C 863.4 172.5 862.9 166.8 863.2 161.5 C 863.2 154.3 862.9 165.8 862.9 159.4 C 862.9 164.8 863.1 171.4 863.1 179.8 C 863.2 181.8 863.1 168.2 863.2 175.8 C 863.3 175.5 863.3 173.7 863.2 173.6 C 863.2 172.0 863.3 171.9 863.3 171.7 C 863.3 171.7 863.3 171.7 863.3 171.7 Z M 862.8 163.4 C 862.7 163.8 862.7 165.6 862.8 165.6 C 862.8 168.1 862.5 168.1 862.5 165.5 C 862.2 168.8 862.8 168.7 862.6 175.7 C 862.8 172.7 862.9 171.4 862.8 177.7 C 863.0 182.9 862.9 165.8 862.8 163.4 C 862.8 163.4 862.8 163.4 862.8 163.4 Z M 661.9 270.1 C 661.2 270.0 656.8 270.1 653.6 270.1 C 657.5 269.8 674.2 270.0 676.3 270.1 C 678.1 270.1 679.9 270.0 680.6 270.1 C 680.3 270.1 684.8 269.9 682.4 269.9 C 682.7 269.8 686.3 269.8 686.2 269.7 C 692.5 269.8 684.6 269.9 686.5 270.0 C 693.7 269.8 692.3 270.0 700.9 270.0 C 699.3 269.8 689.8 269.9 690.3 269.6 C 683.7 269.8 676.2 269.7 671.8 269.4 C 678.5 269.8 654.6 270.0 643.3 269.9 C 643.6 269.7 639.6 269.8 634.9 269.6 C 631.5 269.4 632.9 269.9 639.0 269.8 C 638.9 270.0 630.4 269.8 626.9 269.9 C 631.2 270.0 628.8 270.1 631.1 270.2 C 639.1 270.2 631.8 270.1 633.1 270.0 C 635.1 270.0 637.1 270.0 639.3 270.0 C 628.8 270.3 655.0 270.0 645.4 270.0 C 653.8 270.0 654.2 270.3 661.9 270.1 C 661.9 270.1 661.9 270.1 661.9 270.1 Z M 855.2 270.2 C 856.5 270.2 862.2 270.0 863.3 270.2 C 863.3 270.1 863.3 270.1 863.3 270.1 C 863.1 261.5 862.9 268.7 862.9 259.3 C 862.8 259.8 862.9 263.5 862.8 263.4 C 862.8 266.4 862.9 269.4 863.1 269.9 C 863.0 270.0 863.0 270.0 863.1 270.0 C 863.1 270.0 863.2 270.0 863.2 269.9 C 863.2 270.0 863.2 270.0 863.2 270.0 C 859.0 270.0 857.9 270.1 855.2 270.1 C 856.1 270.0 857.6 270.0 861.2 270.0 C 861.6 269.8 860.1 269.6 854.7 269.6 C 852.5 269.9 854.3 270.0 855.2 270.2 C 855.2 270.2 855.2 270.2 855.2 270.2 Z M 863.0 257.4 C 863.1 256.5 863.1 255.3 863.2 255.6 C 863.5 252.9 862.9 254.2 862.9 251.2 C 862.9 248.8 863.1 249.7 863.2 249.4 C 863.1 245.8 863.1 242.9 863.2 241.2 C 863.0 235.5 862.9 247.4 862.9 249.1 C 862.9 253.1 863.1 251.9 863.0 257.4 C 863.0 257.4 863.0 257.4 863.0 257.4 Z M 863.2 196.2 C 863.5 195.3 863.1 192.9 863.2 190.2 C 862.9 192.1 863.1 198.1 862.8 194.0 C 862.7 199.9 862.7 200.3 862.8 206.3 C 862.6 210.0 863.0 206.6 862.9 200.2 C 863.0 201.0 863.0 203.8 863.1 204.3 C 862.6 208.0 863.4 218.8 863.0 212.4 C 863.1 210.7 863.2 209.5 863.3 208.6 C 863.0 207.1 863.2 193.2 863.2 196.2 C 863.2 196.2 863.2 196.2 863.2 196.2 Z M 848.6 6.3 C 856.1 6.3 856.8 6.3 863.0 6.3 C 863.0 6.9 863.0 7.6 863.0 8.3 C 862.9 8.6 862.9 8.1 862.8 6.5 C 862.8 8.4 862.8 10.9 862.8 14.4 C 862.9 14.2 862.9 12.4 862.8 12.4 C 863.0 5.7 863.0 11.3 863.2 12.1 C 863.3 9.9 863.3 7.9 863.3 6.0 C 857.9 6.1 853.3 6.2 850.9 6.0 C 847.8 6.1 851.4 6.1 848.6 6.3 C 848.6 6.3 848.6 6.3 848.6 6.3 Z M 170.5 269.9 C 169.3 270.0 165.9 270.0 166.6 270.1 C 169.6 270.1 171.7 270.0 174.7 270.0 C 168.9 269.9 169.7 269.6 162.2 269.6 C 164.7 269.7 164.1 269.9 170.5 269.9 C 170.5 269.9 170.5 269.9 170.5 269.9 Z M 863.2 216.7 C 863.1 216.8 862.9 217.0 862.9 214.6 C 862.7 213.7 862.8 220.3 862.7 220.4 C 862.7 222.6 862.8 221.9 862.9 224.7 C 863.0 223.7 862.9 218.3 863.2 220.7 C 863.2 222.5 863.1 222.6 863.1 222.8 C 863.2 227.1 863.3 220.7 863.2 216.7 C 863.2 216.7 863.2 216.7 863.2 216.7 Z M 575.7 270.1 C 578.4 270.0 575.6 269.9 573.3 269.9 C 579.2 269.6 569.5 269.5 568.9 269.3 C 571.7 269.5 579.8 269.3 581.2 269.4 C 583.6 269.4 580.7 269.1 587.2 269.1 C 586.3 268.9 579.2 269.1 581.1 269.3 C 579.1 269.0 572.4 269.3 572.8 269.0 C 563.5 268.9 561.4 269.1 560.8 269.4 C 569.7 269.3 565.4 269.7 573.2 269.6 C 573.2 269.7 570.8 269.7 569.2 269.7 C 569.9 269.9 573.4 269.9 575.7 270.1 C 575.7 270.1 575.7 270.1 575.7 270.1 Z M 789.3 270.1 C 793.9 270.0 793.6 269.8 793.2 269.6 C 791.4 269.7 788.6 269.7 785.0 269.7 C 786.0 269.9 791.5 269.8 789.3 270.1 C 789.3 270.1 789.3 270.1 789.3 270.1 Z M 608.3 269.7 C 608.8 269.8 610.3 269.8 610.3 269.7 C 615.5 269.7 616.8 269.8 618.7 270.0 C 621.5 269.9 620.4 269.8 620.5 269.6 C 615.8 269.8 616.6 269.5 610.2 269.6 C 610.7 269.7 609.9 269.7 608.3 269.7 C 608.3 269.7 608.3 269.7 608.3 269.7 Z M 746.1 269.9 C 748.5 269.9 747.2 269.8 746.0 269.8 C 748.6 269.5 757.2 269.8 760.3 269.6 C 760.5 269.5 750.2 269.5 762.1 269.4 C 759.7 269.2 749.1 269.4 743.6 269.3 C 744.6 269.1 752.0 269.1 751.4 268.8 C 745.1 269.0 738.2 269.1 737.5 269.5 C 746.8 269.5 743.8 269.7 746.1 269.9 C 746.1 269.9 746.1 269.9 746.1 269.9 Z M 735.7 269.7 C 736.6 269.8 738.3 269.7 741.8 269.7 C 736.5 269.4 733.6 269.5 723.1 269.5 C 723.2 269.5 723.2 269.6 723.3 269.6 C 721.2 269.6 719.0 269.6 717.0 269.6 C 726.3 269.9 728.3 269.7 737.7 269.6 C 738.1 269.7 736.9 269.7 735.7 269.7 C 735.7 269.7 735.7 269.7 735.7 269.7 Z M 862.9 122.6 C 862.7 125.4 862.6 127.8 862.5 132.8 C 862.8 132.4 862.9 129.4 862.9 122.6 C 862.9 122.6 862.9 122.6 862.9 122.6 Z M 600.0 269.6 C 594.5 269.7 605.4 269.6 601.8 269.3 C 597.3 269.2 592.5 269.2 591.3 268.9 C 583.3 269.3 600.8 269.3 600.0 269.6 C 600.0 269.6 600.0 269.6 600.0 269.6 Z M 636.4 269.0 C 638.9 269.0 639.1 269.4 636.5 269.2 C 630.7 269.2 641.7 269.4 632.7 269.3 C 636.5 269.4 645.2 269.6 649.1 269.4 C 648.8 269.2 641.0 269.3 640.7 269.1 C 640.2 269.0 641.4 269.0 642.6 269.0 C 641.7 268.9 640.1 269.0 636.4 269.0 C 636.4 269.0 636.4 269.0 636.4 269.0 Z M 667.6 269.4 C 664.1 269.3 660.0 269.2 653.0 269.2 C 657.7 269.3 660.5 269.6 667.6 269.4 C 667.6 269.4 667.6 269.4 667.6 269.4 Z M 279.3 269.1 C 284.3 269.1 279.8 268.8 279.2 268.8 C 274.2 268.7 274.6 268.9 268.8 268.8 C 270.7 269.1 276.0 268.8 279.3 269.1 C 279.3 269.1 279.3 269.1 279.3 269.1 Z M 260.8 268.9 C 260.2 268.8 253.0 268.9 252.5 268.7 C 248.5 269.2 241.9 268.4 242.2 268.8 C 240.5 268.7 238.9 268.7 235.9 268.7 C 241.9 269.1 254.6 269.0 260.8 268.9 C 260.8 268.9 260.8 268.9 260.8 268.9 Z M 702.2 268.9 C 707.7 269.0 700.3 268.5 706.0 268.6 C 706.3 268.5 695.4 268.4 701.8 268.4 C 693.2 268.2 702.8 268.8 702.2 268.9 C 702.2 268.9 702.2 268.9 702.2 268.9 Z M 802.5 268.7 C 802.3 268.9 809.7 268.7 812.8 268.8 C 812.7 268.7 810.3 268.7 808.7 268.7 C 809.4 268.6 810.4 268.5 812.6 268.5 C 810.8 268.3 805.5 268.7 802.5 268.7 C 802.5 268.7 802.5 268.7 802.5 268.7 Z M 695.2 273.1 C 691.6 272.9 687.0 272.7 684.8 273.0 C 681.1 272.8 687.0 272.7 682.5 272.6 C 676.8 272.7 679.4 272.5 670.0 272.6 C 671.6 272.3 664.8 272.3 663.4 272.1 C 667.2 272.1 672.3 272.4 673.9 272.1 C 670.7 272.1 672.3 271.9 673.8 272.1 C 680.2 272.2 666.4 272.4 674.2 272.5 C 676.1 272.2 687.7 272.8 694.9 272.8 C 692.2 273.0 700.6 273.1 695.2 273.1 C 695.2 273.1 695.2 273.1 695.2 273.1 Z M 657.8 272.6 C 652.8 272.6 649.8 272.1 651.2 272.1 C 651.3 272.2 656.9 272.2 657.4 272.1 C 656.0 272.1 654.8 272.1 655.1 272.0 C 664.4 272.1 661.4 272.3 663.7 272.5 C 658.7 272.6 657.2 272.4 655.5 272.5 C 656.7 272.5 657.9 272.5 657.8 272.6 C 657.8 272.6 657.8 272.6 657.8 272.6 Z M 545.9 268.6 C 547.0 268.7 548.1 268.6 550.0 268.5 C 550.7 268.9 560.8 268.4 562.3 268.6 C 560.0 268.7 554.6 268.7 552.2 268.8 C 555.1 268.9 555.7 268.9 558.4 268.8 C 558.0 269.1 552.0 269.1 550.5 269.2 C 549.8 269.1 547.1 269.3 546.2 269.2 C 554.2 269.0 541.3 268.6 545.9 268.6 C 545.9 268.6 545.9 268.6 545.9 268.6 Z M 749.0 268.6 C 749.6 268.4 740.3 267.8 748.0 267.5 C 750.0 267.7 751.2 267.9 750.8 268.2 C 755.7 268.1 758.1 268.3 760.9 268.0 C 771.0 268.8 753.6 268.0 749.0 268.6 C 749.0 268.6 749.0 268.6 749.0 268.6 Z M 781.8 268.4 C 780.2 268.6 784.8 268.6 784.2 268.8 C 780.0 268.6 767.4 268.8 771.7 268.7 C 775.8 268.6 775.6 268.4 781.8 268.4 C 781.8 268.4 781.8 268.4 781.8 268.4 Z M 361.9 5.7 C 368.4 5.5 371.9 5.9 368.1 6.1 C 369.7 5.8 359.7 6.0 361.9 5.7 C 361.9 5.7 361.9 5.7 361.9 5.7 Z M 601.9 1.8 C 595.9 1.7 592.4 1.8 591.7 1.6 C 597.6 1.5 596.9 1.7 602.0 1.7 C 602.4 1.6 605.5 1.5 606.1 1.6 C 603.2 1.6 603.8 1.8 601.9 1.8 C 601.9 1.8 601.9 1.8 601.9 1.8 Z M 867.2 227.5 C 867.3 226.9 867.3 224.5 867.5 225.6 C 867.4 232.0 867.6 239.3 867.7 244.8 C 867.6 244.7 867.5 244.6 867.4 244.5 C 867.5 234.5 867.3 231.7 867.2 227.5 C 867.2 227.5 867.2 227.5 867.2 227.5 Z M 867.7 215.0 C 867.5 213.9 867.2 217.3 867.3 212.7 C 867.4 213.0 867.7 205.2 867.7 208.9 C 867.6 210.0 867.6 212.1 867.7 215.0 C 867.7 215.0 867.7 215.0 867.7 215.0 Z M 577.8 273.3 C 572.8 273.3 580.1 273.5 580.0 273.6 C 576.4 273.5 571.3 273.5 569.6 273.4 C 573.3 273.4 575.6 273.0 577.8 273.3 C 577.8 273.3 577.8 273.3 577.8 273.3 Z M 653.6 272.7 C 664.2 272.7 659.9 273.1 670.5 273.2 C 666.4 273.3 656.9 273.3 654.2 273.5 C 654.5 273.3 651.9 273.3 652.0 273.2 C 655.8 273.2 656.5 273.3 660.3 273.3 C 658.7 273.0 658.7 273.1 660.0 272.8 C 657.2 272.8 655.4 272.9 653.8 272.9 C 654.5 272.8 650.6 272.7 653.6 272.7 C 653.6 272.7 653.6 272.7 653.6 272.7 Z M 579.4 272.6 C 575.2 272.7 571.4 272.3 575.0 272.4 C 575.7 272.5 578.4 272.3 579.3 272.5 C 573.3 272.5 584.2 272.6 581.5 272.8 C 577.9 272.8 576.7 272.8 577.6 273.0 C 575.2 273.0 571.6 273.0 571.3 272.9 C 572.9 272.9 575.4 272.9 575.3 272.8 C 574.1 272.8 572.9 272.8 573.2 272.8 C 576.9 272.8 578.4 272.7 579.4 272.6 C 579.4 272.6 579.4 272.6 579.4 272.6 Z M 608.1 272.6 C 602.5 272.6 601.7 272.4 599.6 272.2 C 607.3 272.3 608.7 272.6 614.5 272.8 C 608.2 272.7 602.2 273.0 600.0 272.8 C 602.8 272.8 607.8 272.8 608.1 272.6 C 608.1 272.6 608.1 272.6 608.1 272.6 Z M 4.7 184.0 C 4.9 179.2 5.0 175.3 5.2 169.9 C 4.9 167.9 4.4 177.9 4.6 173.7 C 4.6 168.0 4.9 172.0 4.9 167.5 C 4.6 171.9 4.6 147.8 4.9 147.0 C 4.9 150.6 5.0 151.9 5.2 151.1 C 5.1 160.8 5.3 164.7 5.4 172.0 C 5.1 177.1 5.0 192.4 5.3 200.7 C 4.8 206.0 5.4 216.0 5.0 223.4 C 5.1 225.4 5.3 217.2 5.3 223.4 C 5.0 227.4 5.0 224.2 4.8 229.6 C 5.0 230.0 5.1 228.8 5.2 231.6 C 5.0 231.2 5.0 234.6 4.9 235.8 C 4.9 224.6 4.6 236.4 4.5 227.5 C 4.6 223.9 4.9 231.4 4.9 221.3 C 4.8 217.7 4.8 214.3 4.5 215.0 C 4.5 212.2 4.5 210.6 4.4 208.7 C 4.7 212.6 4.3 194.6 4.7 202.7 C 4.7 203.3 4.7 209.0 4.7 213.0 C 5.0 209.5 4.9 205.0 4.7 198.5 C 5.0 196.0 5.0 199.8 5.1 196.6 C 4.9 191.5 4.7 198.3 4.6 194.5 C 4.6 196.1 4.6 198.5 4.5 198.5 C 4.8 189.9 4.5 186.4 4.5 181.9 C 4.7 185.0 4.7 177.0 4.7 184.0 C 4.7 184.0 4.7 184.0 4.7 184.0 Z M 5.1 258.6 C 5.1 260.6 5.1 262.6 5.1 264.9 C 4.8 265.3 4.8 257.2 4.6 262.6 C 4.6 253.6 4.9 263.0 5.1 258.6 C 5.1 258.6 5.1 258.6 5.1 258.6 Z M 6.0 217.5 C 6.2 214.6 5.6 216.0 5.6 213.2 C 5.7 218.3 5.8 222.9 5.5 223.5 C 5.6 217.6 5.6 215.0 5.5 209.0 C 5.8 214.9 5.8 202.6 6.0 200.9 C 6.1 205.5 6.2 209.1 6.2 215.4 C 6.1 214.3 6.0 223.3 6.0 217.5 C 6.0 217.5 6.0 217.5 6.0 217.5 Z M 6.3 234.0 C 6.1 235.2 6.2 244.2 6.0 242.2 C 6.0 236.8 5.9 234.8 5.7 235.9 C 5.7 231.9 5.8 231.3 5.8 227.7 C 6.1 225.6 6.0 232.0 6.2 234.0 C 6.2 232.8 6.3 231.6 6.3 234.0 C 6.3 234.0 6.3 234.0 6.3 234.0 Z M 123.1 269.1 C 125.0 269.4 116.5 269.2 114.9 269.2 C 117.3 269.4 116.2 269.5 111.0 269.6 C 112.9 269.2 105.3 269.4 100.7 269.0 C 99.5 269.3 105.5 269.3 98.5 269.4 C 93.1 269.3 88.3 269.4 80.1 269.5 C 78.3 269.2 81.9 269.2 84.1 269.1 C 78.5 269.1 80.1 268.9 75.8 268.9 C 76.7 269.1 73.3 269.1 71.8 269.0 C 79.0 268.9 62.2 268.7 69.8 268.6 C 70.2 268.7 72.0 268.7 73.8 268.6 C 71.8 268.9 81.8 268.8 84.1 269.0 C 88.0 268.5 98.6 268.6 110.9 268.8 C 111.7 269.0 107.9 269.0 110.9 269.1 C 111.3 269.0 115.3 269.0 117.1 268.9 C 116.9 269.1 118.5 269.1 121.1 269.2 C 121.3 269.1 121.5 269.1 123.1 269.1 C 123.1 269.1 123.1 269.1 123.1 269.1 Z M 165.3 6.7 C 165.1 7.1 178.2 6.9 181.7 6.8 C 181.4 7.2 158.1 7.1 165.3 6.7 C 165.3 6.7 165.3 6.7 165.3 6.7 Z M 85.5 7.0 C 88.9 7.0 86.3 6.8 89.3 6.8 C 89.7 7.0 97.1 6.5 97.5 6.8 C 93.9 7.0 91.5 7.0 85.5 7.0 C 85.5 7.0 85.5 7.0 85.5 7.0 Z M 11.5 7.0 C 17.5 6.9 8.2 6.8 9.3 6.7 C 14.5 6.7 19.9 6.7 19.7 7.0 C 15.0 6.8 12.3 7.2 11.5 7.0 C 11.5 7.0 11.5 7.0 11.5 7.0 Z M 122.5 7.3 C 127.5 7.4 119.6 7.7 118.6 7.5 C 124.0 7.4 114.9 7.3 110.3 7.4 C 110.3 7.1 112.4 7.1 110.0 6.9 C 117.1 6.8 111.4 7.1 116.4 7.1 C 119.6 7.0 116.1 7.0 116.1 6.8 C 118.1 6.8 120.1 6.8 122.1 6.8 C 122.2 6.9 122.3 7.1 122.4 7.2 C 120.0 7.2 117.6 7.2 118.5 7.4 C 120.5 7.4 120.9 7.3 122.5 7.3 C 122.5 7.3 122.5 7.3 122.5 7.3 Z M 16.4 268.6 C 13.2 268.6 16.0 268.7 18.4 268.8 C 19.0 268.7 21.0 268.2 24.6 268.5 C 16.6 268.6 27.0 268.8 22.6 268.9 C 20.8 268.7 16.0 269.0 12.2 268.9 C 10.6 268.7 14.6 268.4 16.4 268.6 C 16.4 268.6 16.4 268.6 16.4 268.6 Z M 30.8 268.8 C 30.4 268.7 29.0 268.7 26.6 268.7 C 29.2 268.5 25.6 268.4 28.8 268.4 C 28.4 268.5 39.2 268.5 32.8 268.6 C 27.2 268.5 34.4 268.7 37.0 268.8 C 34.2 268.8 29.2 269.0 28.6 268.8 C 30.0 268.8 31.2 268.8 30.8 268.8 C 30.8 268.8 30.8 268.8 30.8 268.8 Z M 164.0 268.4 C 164.8 268.3 161.2 268.3 160.0 268.2 C 170.4 268.2 179.4 268.2 184.6 268.3 C 179.8 268.3 179.9 268.5 182.7 268.6 C 177.5 268.5 176.3 268.6 174.5 268.5 C 178.8 268.3 170.4 268.5 164.0 268.4 C 164.0 268.4 164.0 268.4 164.0 268.4 Z M 164.0 268.4 " fill="#000000"></path><g><clipPath id="clip-427"><path d="M 6.0 9.3 L 864.0 9.3 L 864.0 266.9 L 6.0 266.9 Z M 6.0 9.3 "></path></clipPath><g clip-path="url(#clip-427)"><text xml:space="preserve" font-family="CourierNewPS-BoldMT" font-weight="bold" font-size="28.1" fill="#000000" transform="matrix(1.00, 0.00, -0.00, -1.00, 32.0, 233.0)">(</text><text xml:space="preserve" font-family="CourierNewPS-BoldMT" font-weight="bold" font-size="28.1" fill="#000000" transform="matrix(1.00, 0.00, -0.00, -1.00, 48.9, 233.0)">f</text><text xml:space="preserve" font-family="CourierNewPS-BoldMT" font-weight="bold" font-size="28.1" fill="#000000" transform="matrix(1.00, 0.00, -0.00, -1.00, 65.7, 233.0)">u</text><text xml:space="preserve" font-family="CourierNewPS-BoldMT" font-weight="bold" font-size="28.1" fill="#000000" transform="matrix(1.00, 0.00, -0.00, -1.00, 82.6, 233.0)">n</text><text xml:space="preserve" font-family="CourierNewPS-BoldMT" font-weight="bold" font-size="28.1" fill="#000000" transform="matrix(1.00, 0.00, -0.00, -1.00, 99.4, 233.0)">c</text><text xml:space="preserve" font-family="CourierNewPS-BoldMT" font-weight="bold" font-size="28.1" fill="#000000" transform="matrix(1.00, 0.00, -0.00, -1.00, 116.3, 233.0)">t</text><text xml:space="preserve" font-family="CourierNewPS-BoldMT" font-weight="bold" font-size="28.1" fill="#000000" transform="matrix(1.00, 0.00, -0.00, -1.00, 133.1, 233.0)">i</text><text xml:space="preserve" font-family="CourierNewPS-BoldMT" font-weight="bold" font-size="28.1" fill="#000000" transform="matrix(1.00, 0.00, -0.00, -1.00, 150.0, 233.0)">o</text><text xml:space="preserve" font-family="CourierNewPS-BoldMT" font-weight="bold" font-size="28.1" fill="#000000" transform="matrix(1.00, 0.00, -0.00, -1.00, 166.8, 233.0)">n</text><text xml:space="preserve" font-family="CourierNewPS-BoldMT" font-weight="bold" font-size="28.1" fill="#000000" transform="matrix(1.00, 0.00, -0.00, -1.00, 183.7, 233.0)"> </text><text xml:space="preserve" font-family="CourierNewPS-BoldMT" font-weight="bold" font-size="28.1" fill="#000000" transform="matrix(1.00, 0.00, -0.00, -1.00, 200.5, 233.0)">(</text><text xml:space="preserve" font-family="CourierNewPS-BoldMT" font-weight="bold" font-size="28.1" fill="#000000" transform="matrix(1.00, 0.00, -0.00, -1.00, 217.4, 233.0)">)</text><text xml:space="preserve" font-family="CourierNewPS-BoldMT" font-weight="bold" font-size="28.1" fill="#000000" transform="matrix(1.00, 0.00, -0.00, -1.00, 234.2, 233.0)"> </text><text xml:space="preserve" font-family="CourierNewPS-BoldMT" font-weight="bold" font-size="28.1" fill="#000000" transform="matrix(1.00, 0.00, -0.00, -1.00, 251.1, 233.0)">{</text><text xml:space="preserve" font-family="CourierNewPS-BoldMT" font-weight="bold" font-size="28.1" fill="#000000" transform="matrix(1.00, 0.00, -0.00, -1.00, 267.9, 233.0)"> </text><text xml:space="preserve" font-family="CourierNewPS-BoldMT" font-weight="bold" font-size="28.1" fill="#000000" transform="matrix(1.00, 0.00, -0.00, -1.00, 32.0, 202.0)"> </text><text xml:space="preserve" font-family="CourierNewPS-BoldMT" font-weight="bold" font-size="28.1" fill="#000000" transform="matrix(1.00, 0.00, -0.00, -1.00, 48.9, 202.0)"> </text><text xml:space="preserve" font-family="CourierNewPS-BoldMT" font-weight="bold" font-size="28.1" fill="#000000" transform="matrix(1.00, 0.00, -0.00, -1.00, 65.7, 202.0)">"</text><text xml:space="preserve" font-family="CourierNewPS-BoldMT" font-weight="bold" font-size="28.1" fill="#000000" transform="matrix(1.00, 0.00, -0.00, -1.00, 82.6, 202.0)">u</text><text xml:space="preserve" font-family="CourierNewPS-BoldMT" font-weight="bold" font-size="28.1" fill="#000000" transform="matrix(1.00, 0.00, -0.00, -1.00, 99.4, 202.0)">s</text><text xml:space="preserve" font-family="CourierNewPS-BoldMT" font-weight="bold" font-size="28.1" fill="#000000" transform="matrix(1.00, 0.00, -0.00, -1.00, 116.3, 202.0)">e</text><text xml:space="preserve" font-family="CourierNewPS-BoldMT" font-weight="bold" font-size="28.1" fill="#000000" transform="matrix(1.00, 0.00, -0.00, -1.00, 133.1, 202.0)"> </text><text xml:space="preserve" font-family="CourierNewPS-BoldMT" font-weight="bold" font-size="28.1" fill="#000000" transform="matrix(1.00, 0.00, -0.00, -1.00, 150.0, 202.0)">s</text><text xml:space="preserve" font-family="CourierNewPS-BoldMT" font-weight="bold" font-size="28.1" fill="#000000" transform="matrix(1.00, 0.00, -0.00, -1.00, 166.8, 202.0)">t</text><text xml:space="preserve" font-family="CourierNewPS-BoldMT" font-weight="bold" font-size="28.1" fill="#000000" transform="matrix(1.00, 0.00, -0.00, -1.00, 183.7, 202.0)">r</text><text xml:space="preserve" font-family="CourierNewPS-BoldMT" font-weight="bold" font-size="28.1" fill="#000000" transform="matrix(1.00, 0.00, -0.00, -1.00, 200.5, 202.0)">i</text><text xml:space="preserve" font-family="CourierNewPS-BoldMT" font-weight="bold" font-size="28.1" fill="#000000" transform="matrix(1.00, 0.00, -0.00, -1.00, 217.4, 202.0)">c</text><text xml:space="preserve" font-family="CourierNewPS-BoldMT" font-weight="bold" font-size="28.1" fill="#000000" transform="matrix(1.00, 0.00, -0.00, -1.00, 234.2, 202.0)">t</text><text xml:space="preserve" font-family="CourierNewPS-BoldMT" font-weight="bold" font-size="28.1" fill="#000000" transform="matrix(1.00, 0.00, -0.00, -1.00, 251.1, 202.0)">"</text><text xml:space="preserve" font-family="CourierNewPS-BoldMT" font-weight="bold" font-size="28.1" fill="#000000" transform="matrix(1.00, 0.00, -0.00, -1.00, 267.9, 202.0)">;</text><text xml:space="preserve" font-family="CourierNewPS-BoldMT" font-weight="bold" font-size="28.1" fill="#000000" transform="matrix(1.00, 0.00, -0.00, -1.00, 284.8, 202.0)"> </text><text xml:space="preserve" font-family="CourierNewPS-BoldMT" font-weight="bold" font-size="28.1" fill="#000000" transform="matrix(1.00, 0.00, -0.00, -1.00, 32.0, 171.0)"> </text><text xml:space="preserve" font-family="CourierNewPS-BoldMT" font-weight="bold" font-size="28.1" fill="#000000" transform="matrix(1.00, 0.00, -0.00, -1.00, 48.9, 171.0)"> </text><text xml:space="preserve" font-family="CourierNewPS-BoldMT" font-weight="bold" font-size="28.1" fill="#000000" transform="matrix(1.00, 0.00, -0.00, -1.00, 65.7, 171.0)">v</text><text xml:space="preserve" font-family="CourierNewPS-BoldMT" font-weight="bold" font-size="28.1" fill="#000000" transform="matrix(1.00, 0.00, -0.00, -1.00, 82.6, 171.0)">a</text><text xml:space="preserve" font-family="CourierNewPS-BoldMT" font-weight="bold" font-size="28.1" fill="#000000" transform="matrix(1.00, 0.00, -0.00, -1.00, 99.4, 171.0)">r</text><text xml:space="preserve" font-family="CourierNewPS-BoldMT" font-weight="bold" font-size="28.1" fill="#000000" transform="matrix(1.00, 0.00, -0.00, -1.00, 116.3, 171.0)"> </text><text xml:space="preserve" font-family="CourierNewPS-BoldMT" font-weight="bold" font-size="28.1" fill="#000000" transform="matrix(1.00, 0.00, -0.00, -1.00, 133.1, 171.0)">m</text><text xml:space="preserve" font-family="CourierNewPS-BoldMT" font-weight="bold" font-size="28.1" fill="#000000" transform="matrix(1.00, 0.00, -0.00, -1.00, 150.0, 171.0)">e</text><text xml:space="preserve" font-family="CourierNewPS-BoldMT" font-weight="bold" font-size="28.1" fill="#000000" transform="matrix(1.00, 0.00, -0.00, -1.00, 166.8, 171.0)">s</text><text xml:space="preserve" font-family="CourierNewPS-BoldMT" font-weight="bold" font-size="28.1" fill="#000000" transform="matrix(1.00, 0.00, -0.00, -1.00, 183.7, 171.0)">s</text><text xml:space="preserve" font-family="CourierNewPS-BoldMT" font-weight="bold" font-size="28.1" fill="#000000" transform="matrix(1.00, 0.00, -0.00, -1.00, 200.5, 171.0)">a</text><text xml:space="preserve" font-family="CourierNewPS-BoldMT" font-weight="bold" font-size="28.1" fill="#000000" transform="matrix(1.00, 0.00, -0.00, -1.00, 217.4, 171.0)">g</text><text xml:space="preserve" font-family="CourierNewPS-BoldMT" font-weight="bold" font-size="28.1" fill="#000000" transform="matrix(1.00, 0.00, -0.00, -1.00, 234.2, 171.0)">e</text><text xml:space="preserve" font-family="CourierNewPS-BoldMT" font-weight="bold" font-size="28.1" fill="#000000" transform="matrix(1.00, 0.00, -0.00, -1.00, 251.1, 171.0)"> </text><text xml:space="preserve" font-family="CourierNewPS-BoldMT" font-weight="bold" font-size="28.1" fill="#000000" transform="matrix(1.00, 0.00, -0.00, -1.00, 267.9, 171.0)">=</text><text xml:space="preserve" font-family="CourierNewPS-BoldMT" font-weight="bold" font-size="28.1" fill="#000000" transform="matrix(1.00, 0.00, -0.00, -1.00, 284.8, 171.0)"> </text><text xml:space="preserve" font-family="CourierNewPS-BoldMT" font-weight="bold" font-size="28.1" fill="#000000" transform="matrix(1.00, 0.00, -0.00, -1.00, 301.7, 171.0)">"</text><text xml:space="preserve" font-family="CourierNewPS-BoldMT" font-weight="bold" font-size="28.1" fill="#000000" transform="matrix(1.00, 0.00, -0.00, -1.00, 318.5, 171.0)">&lt;</text><text xml:space="preserve" font-family="CourierNewPS-BoldMT" font-weight="bold" font-size="28.1" fill="#000000" transform="matrix(1.00, 0.00, -0.00, -1.00, 335.4, 171.0)">p</text><text xml:space="preserve" font-family="CourierNewPS-BoldMT" font-weight="bold" font-size="28.1" fill="#000000" transform="matrix(1.00, 0.00, -0.00, -1.00, 352.2, 171.0)">&gt;</text><text xml:space="preserve" font-family="CourierNewPS-BoldMT" font-weight="bold" font-size="28.1" fill="#000000" transform="matrix(1.00, 0.00, -0.00, -1.00, 369.1, 171.0)">A</text><text xml:space="preserve" font-family="CourierNewPS-BoldMT" font-weight="bold" font-size="28.1" fill="#000000" transform="matrix(1.00, 0.00, -0.00, -1.00, 385.9, 171.0)">h</text><text xml:space="preserve" font-family="CourierNewPS-BoldMT" font-weight="bold" font-size="28.1" fill="#000000" transform="matrix(1.00, 0.00, -0.00, -1.00, 402.8, 171.0)">,</text><text xml:space="preserve" font-family="CourierNewPS-BoldMT" font-weight="bold" font-size="28.1" fill="#000000" transform="matrix(1.00, 0.00, -0.00, -1.00, 419.6, 171.0)"> </text><text xml:space="preserve" font-family="CourierNewPS-BoldMT" font-weight="bold" font-size="28.1" fill="#000000" transform="matrix(1.00, 0.00, -0.00, -1.00, 436.5, 171.0)">f</text><text xml:space="preserve" font-family="CourierNewPS-BoldMT" font-weight="bold" font-size="28.1" fill="#000000" transform="matrix(1.00, 0.00, -0.00, -1.00, 453.3, 171.0)">i</text><text xml:space="preserve" font-family="CourierNewPS-BoldMT" font-weight="bold" font-size="28.1" fill="#000000" transform="matrix(1.00, 0.00, -0.00, -1.00, 470.2, 171.0)">n</text><text xml:space="preserve" font-family="CourierNewPS-BoldMT" font-weight="bold" font-size="28.1" fill="#000000" transform="matrix(1.00, 0.00, -0.00, -1.00, 487.0, 171.0)">e</text><text xml:space="preserve" font-family="CourierNewPS-BoldMT" font-weight="bold" font-size="28.1" fill="#000000" transform="matrix(1.00, 0.00, -0.00, -1.00, 503.9, 171.0)">,</text><text xml:space="preserve" font-family="CourierNewPS-BoldMT" font-weight="bold" font-size="28.1" fill="#000000" transform="matrix(1.00, 0.00, -0.00, -1.00, 520.8, 171.0)"> </text><text xml:space="preserve" font-family="CourierNewPS-BoldMT" font-weight="bold" font-size="28.1" fill="#000000" transform="matrix(1.00, 0.00, -0.00, -1.00, 537.6, 171.0)">t</text><text xml:space="preserve" font-family="CourierNewPS-BoldMT" font-weight="bold" font-size="28.1" fill="#000000" transform="matrix(1.00, 0.00, -0.00, -1.00, 554.5, 171.0)">h</text><text xml:space="preserve" font-family="CourierNewPS-BoldMT" font-weight="bold" font-size="28.1" fill="#000000" transform="matrix(1.00, 0.00, -0.00, -1.00, 571.3, 171.0)">a</text><text xml:space="preserve" font-family="CourierNewPS-BoldMT" font-weight="bold" font-size="28.1" fill="#000000" transform="matrix(1.00, 0.00, -0.00, -1.00, 588.2, 171.0)">n</text><text xml:space="preserve" font-family="CourierNewPS-BoldMT" font-weight="bold" font-size="28.1" fill="#000000" transform="matrix(1.00, 0.00, -0.00, -1.00, 605.0, 171.0)">k</text><text xml:space="preserve" font-family="CourierNewPS-BoldMT" font-weight="bold" font-size="28.1" fill="#000000" transform="matrix(1.00, 0.00, -0.00, -1.00, 621.9, 171.0)">s</text><text xml:space="preserve" font-family="CourierNewPS-BoldMT" font-weight="bold" font-size="28.1" fill="#000000" transform="matrix(1.00, 0.00, -0.00, -1.00, 638.7, 171.0)">!</text><text xml:space="preserve" font-family="CourierNewPS-BoldMT" font-weight="bold" font-size="28.1" fill="#000000" transform="matrix(1.00, 0.00, -0.00, -1.00, 655.6, 171.0)">&lt;</text><text xml:space="preserve" font-family="CourierNewPS-BoldMT" font-weight="bold" font-size="28.1" fill="#000000" transform="matrix(1.00, 0.00, -0.00, -1.00, 672.4, 171.0)">/</text><text xml:space="preserve" font-family="CourierNewPS-BoldMT" font-weight="bold" font-size="28.1" fill="#000000" transform="matrix(1.00, 0.00, -0.00, -1.00, 689.3, 171.0)">p</text><text xml:space="preserve" font-family="CourierNewPS-BoldMT" font-weight="bold" font-size="28.1" fill="#000000" transform="matrix(1.00, 0.00, -0.00, -1.00, 706.1, 171.0)">&gt;</text><text xml:space="preserve" font-family="CourierNewPS-BoldMT" font-weight="bold" font-size="28.1" fill="#000000" transform="matrix(1.00, 0.00, -0.00, -1.00, 723.0, 171.0)">"</text><text xml:space="preserve" font-family="CourierNewPS-BoldMT" font-weight="bold" font-size="28.1" fill="#000000" transform="matrix(1.00, 0.00, -0.00, -1.00, 739.8, 171.0)">;</text><text xml:space="preserve" font-family="CourierNewPS-BoldMT" font-weight="bold" font-size="28.1" fill="#000000" transform="matrix(1.00, 0.00, -0.00, -1.00, 756.7, 171.0)"> </text><text xml:space="preserve" font-family="CourierNewPS-BoldMT" font-weight="bold" font-size="28.1" fill="#000000" transform="matrix(1.00, 0.00, -0.00, -1.00, 32.0, 131.0)"> </text><text xml:space="preserve" font-family="CourierNewPS-BoldMT" font-weight="bold" font-size="28.1" fill="#000000" transform="matrix(1.00, 0.00, -0.00, -1.00, 48.9, 131.0)"> </text><text xml:space="preserve" font-family="CourierNewPS-BoldMT" font-weight="bold" font-size="28.1" fill="#000000" transform="matrix(1.00, 0.00, -0.00, -1.00, 65.7, 131.0)">s</text><text xml:space="preserve" font-family="CourierNewPS-BoldMT" font-weight="bold" font-size="28.1" fill="#000000" transform="matrix(1.00, 0.00, -0.00, -1.00, 82.6, 131.0)">e</text><text xml:space="preserve" font-family="CourierNewPS-BoldMT" font-weight="bold" font-size="28.1" fill="#000000" transform="matrix(1.00, 0.00, -0.00, -1.00, 99.4, 131.0)">t</text><text xml:space="preserve" font-family="CourierNewPS-BoldMT" font-weight="bold" font-size="28.1" fill="#000000" transform="matrix(1.00, 0.00, -0.00, -1.00, 116.3, 131.0)">T</text><text xml:space="preserve" font-family="CourierNewPS-BoldMT" font-weight="bold" font-size="28.1" fill="#000000" transform="matrix(1.00, 0.00, -0.00, -1.00, 133.1, 131.0)">i</text><text xml:space="preserve" font-family="CourierNewPS-BoldMT" font-weight="bold" font-size="28.1" fill="#000000" transform="matrix(1.00, 0.00, -0.00, -1.00, 150.0, 131.0)">m</text><text xml:space="preserve" font-family="CourierNewPS-BoldMT" font-weight="bold" font-size="28.1" fill="#000000" transform="matrix(1.00, 0.00, -0.00, -1.00, 166.8, 131.0)">e</text><text xml:space="preserve" font-family="CourierNewPS-BoldMT" font-weight="bold" font-size="28.1" fill="#000000" transform="matrix(1.00, 0.00, -0.00, -1.00, 183.7, 131.0)">o</text><text xml:space="preserve" font-family="CourierNewPS-BoldMT" font-weight="bold" font-size="28.1" fill="#000000" transform="matrix(1.00, 0.00, -0.00, -1.00, 200.5, 131.0)">u</text><text xml:space="preserve" font-family="CourierNewPS-BoldMT" font-weight="bold" font-size="28.1" fill="#000000" transform="matrix(1.00, 0.00, -0.00, -1.00, 217.4, 131.0)">t</text><text xml:space="preserve" font-family="CourierNewPS-BoldMT" font-weight="bold" font-size="28.1" fill="#000000" transform="matrix(1.00, 0.00, -0.00, -1.00, 234.2, 131.0)">(</text><text xml:space="preserve" font-family="CourierNewPS-BoldMT" font-weight="bold" font-size="28.1" fill="#000000" transform="matrix(1.00, 0.00, -0.00, -1.00, 251.1, 131.0)">f</text><text xml:space="preserve" font-family="CourierNewPS-BoldMT" font-weight="bold" font-size="28.1" fill="#000000" transform="matrix(1.00, 0.00, -0.00, -1.00, 267.9, 131.0)">u</text><text xml:space="preserve" font-family="CourierNewPS-BoldMT" font-weight="bold" font-size="28.1" fill="#000000" transform="matrix(1.00, 0.00, -0.00, -1.00, 284.8, 131.0)">n</text><text xml:space="preserve" font-family="CourierNewPS-BoldMT" font-weight="bold" font-size="28.1" fill="#000000" transform="matrix(1.00, 0.00, -0.00, -1.00, 301.7, 131.0)">c</text><text xml:space="preserve" font-family="CourierNewPS-BoldMT" font-weight="bold" font-size="28.1" fill="#000000" transform="matrix(1.00, 0.00, -0.00, -1.00, 318.5, 131.0)">t</text><text xml:space="preserve" font-family="CourierNewPS-BoldMT" font-weight="bold" font-size="28.1" fill="#000000" transform="matrix(1.00, 0.00, -0.00, -1.00, 335.4, 131.0)">i</text><text xml:space="preserve" font-family="CourierNewPS-BoldMT" font-weight="bold" font-size="28.1" fill="#000000" transform="matrix(1.00, 0.00, -0.00, -1.00, 352.2, 131.0)">o</text><text xml:space="preserve" font-family="CourierNewPS-BoldMT" font-weight="bold" font-size="28.1" fill="#000000" transform="matrix(1.00, 0.00, -0.00, -1.00, 369.1, 131.0)">n</text><text xml:space="preserve" font-family="CourierNewPS-BoldMT" font-weight="bold" font-size="28.1" fill="#000000" transform="matrix(1.00, 0.00, -0.00, -1.00, 385.9, 131.0)">(</text><text xml:space="preserve" font-family="CourierNewPS-BoldMT" font-weight="bold" font-size="28.1" fill="#000000" transform="matrix(1.00, 0.00, -0.00, -1.00, 402.8, 131.0)">)</text><text xml:space="preserve" font-family="CourierNewPS-BoldMT" font-weight="bold" font-size="28.1" fill="#000000" transform="matrix(1.00, 0.00, -0.00, -1.00, 419.6, 131.0)"> </text><text xml:space="preserve" font-family="CourierNewPS-BoldMT" font-weight="bold" font-size="28.1" fill="#000000" transform="matrix(1.00, 0.00, -0.00, -1.00, 436.5, 131.0)">{</text><text xml:space="preserve" font-family="CourierNewPS-BoldMT" font-weight="bold" font-size="28.1" fill="#000000" transform="matrix(1.00, 0.00, -0.00, -1.00, 453.3, 131.0)"> </text><text xml:space="preserve" font-family="CourierNewPS-BoldMT" font-weight="bold" font-size="28.1" fill="#000000" transform="matrix(1.00, 0.00, -0.00, -1.00, 32.0, 91.0)"> </text><text xml:space="preserve" font-family="CourierNewPS-BoldMT" font-weight="bold" font-size="28.1" fill="#000000" transform="matrix(1.00, 0.00, -0.00, -1.00, 48.9, 91.0)"> </text><text xml:space="preserve" font-family="CourierNewPS-BoldMT" font-weight="bold" font-size="28.1" fill="#000000" transform="matrix(1.00, 0.00, -0.00, -1.00, 65.7, 91.0)"> </text><text xml:space="preserve" font-family="CourierNewPS-BoldMT" font-weight="bold" font-size="28.1" fill="#000000" transform="matrix(1.00, 0.00, -0.00, -1.00, 82.6, 91.0)"> </text><text xml:space="preserve" font-family="CourierNewPS-BoldMT" font-weight="bold" font-size="28.1" fill="#000000" transform="matrix(1.00, 0.00, -0.00, -1.00, 99.4, 91.0)">d</text><text xml:space="preserve" font-family="CourierNewPS-BoldMT" font-weight="bold" font-size="28.1" fill="#000000" transform="matrix(1.00, 0.00, -0.00, -1.00, 116.3, 91.0)">o</text><text xml:space="preserve" font-family="CourierNewPS-BoldMT" font-weight="bold" font-size="28.1" fill="#000000" transform="matrix(1.00, 0.00, -0.00, -1.00, 133.1, 91.0)">c</text><text xml:space="preserve" font-family="CourierNewPS-BoldMT" font-weight="bold" font-size="28.1" fill="#000000" transform="matrix(1.00, 0.00, -0.00, -1.00, 150.0, 91.0)">u</text><text xml:space="preserve" font-family="CourierNewPS-BoldMT" font-weight="bold" font-size="28.1" fill="#000000" transform="matrix(1.00, 0.00, -0.00, -1.00, 166.8, 91.0)">m</text><text xml:space="preserve" font-family="CourierNewPS-BoldMT" font-weight="bold" font-size="28.1" fill="#000000" transform="matrix(1.00, 0.00, -0.00, -1.00, 183.7, 91.0)">e</text><text xml:space="preserve" font-family="CourierNewPS-BoldMT" font-weight="bold" font-size="28.1" fill="#000000" transform="matrix(1.00, 0.00, -0.00, -1.00, 200.5, 91.0)">n</text><text xml:space="preserve" font-family="CourierNewPS-BoldMT" font-weight="bold" font-size="28.1" fill="#000000" transform="matrix(1.00, 0.00, -0.00, -1.00, 217.4, 91.0)">t</text><text xml:space="preserve" font-family="CourierNewPS-BoldMT" font-weight="bold" font-size="28.1" fill="#000000" transform="matrix(1.00, 0.00, -0.00, -1.00, 234.2, 91.0)">.</text><text xml:space="preserve" font-family="CourierNewPS-BoldMT" font-weight="bold" font-size="28.1" fill="#000000" transform="matrix(1.00, 0.00, -0.00, -1.00, 251.1, 91.0)">b</text><text xml:space="preserve" font-family="CourierNewPS-BoldMT" font-weight="bold" font-size="28.1" fill="#000000" transform="matrix(1.00, 0.00, -0.00, -1.00, 267.9, 91.0)">o</text><text xml:space="preserve" font-family="CourierNewPS-BoldMT" font-weight="bold" font-size="28.1" fill="#000000" transform="matrix(1.00, 0.00, -0.00, -1.00, 284.8, 91.0)">d</text><text xml:space="preserve" font-family="CourierNewPS-BoldMT" font-weight="bold" font-size="28.1" fill="#000000" transform="matrix(1.00, 0.00, -0.00, -1.00, 301.7, 91.0)">y</text><text xml:space="preserve" font-family="CourierNewPS-BoldMT" font-weight="bold" font-size="28.1" fill="#000000" transform="matrix(1.00, 0.00, -0.00, -1.00, 318.5, 91.0)">.</text><text xml:space="preserve" font-family="CourierNewPS-BoldMT" font-weight="bold" font-size="28.1" fill="#000000" transform="matrix(1.00, 0.00, -0.00, -1.00, 335.4, 91.0)">i</text><text xml:space="preserve" font-family="CourierNewPS-BoldMT" font-weight="bold" font-size="28.1" fill="#000000" transform="matrix(1.00, 0.00, -0.00, -1.00, 352.2, 91.0)">n</text><text xml:space="preserve" font-family="CourierNewPS-BoldMT" font-weight="bold" font-size="28.1" fill="#000000" transform="matrix(1.00, 0.00, -0.00, -1.00, 369.1, 91.0)">n</text><text xml:space="preserve" font-family="CourierNewPS-BoldMT" font-weight="bold" font-size="28.1" fill="#000000" transform="matrix(1.00, 0.00, -0.00, -1.00, 385.9, 91.0)">e</text><text xml:space="preserve" font-family="CourierNewPS-BoldMT" font-weight="bold" font-size="28.1" fill="#000000" transform="matrix(1.00, 0.00, -0.00, -1.00, 402.8, 91.0)">r</text><text xml:space="preserve" font-family="CourierNewPS-BoldMT" font-weight="bold" font-size="28.1" fill="#000000" transform="matrix(1.00, 0.00, -0.00, -1.00, 419.6, 91.0)">H</text><text xml:space="preserve" font-family="CourierNewPS-BoldMT" font-weight="bold" font-size="28.1" fill="#000000" transform="matrix(1.00, 0.00, -0.00, -1.00, 436.5, 91.0)">T</text><text xml:space="preserve" font-family="CourierNewPS-BoldMT" font-weight="bold" font-size="28.1" fill="#000000" transform="matrix(1.00, 0.00, -0.00, -1.00, 453.3, 91.0)">M</text><text xml:space="preserve" font-family="CourierNewPS-BoldMT" font-weight="bold" font-size="28.1" fill="#000000" transform="matrix(1.00, 0.00, -0.00, -1.00, 470.2, 91.0)">L</text><text xml:space="preserve" font-family="CourierNewPS-BoldMT" font-weight="bold" font-size="28.1" fill="#000000" transform="matrix(1.00, 0.00, -0.00, -1.00, 487.0, 91.0)"> </text><text xml:space="preserve" font-family="CourierNewPS-BoldMT" font-weight="bold" font-size="28.1" fill="#000000" transform="matrix(1.00, 0.00, -0.00, -1.00, 503.9, 91.0)">=</text><text xml:space="preserve" font-family="CourierNewPS-BoldMT" font-weight="bold" font-size="28.1" fill="#000000" transform="matrix(1.00, 0.00, -0.00, -1.00, 520.8, 91.0)"> </text><text xml:space="preserve" font-family="CourierNewPS-BoldMT" font-weight="bold" font-size="28.1" fill="#000000" transform="matrix(1.00, 0.00, -0.00, -1.00, 537.6, 91.0)">m</text><text xml:space="preserve" font-family="CourierNewPS-BoldMT" font-weight="bold" font-size="28.1" fill="#000000" transform="matrix(1.00, 0.00, -0.00, -1.00, 554.5, 91.0)">e</text><text xml:space="preserve" font-family="CourierNewPS-BoldMT" font-weight="bold" font-size="28.1" fill="#000000" transform="matrix(1.00, 0.00, -0.00, -1.00, 571.3, 91.0)">s</text><text xml:space="preserve" font-family="CourierNewPS-BoldMT" font-weight="bold" font-size="28.1" fill="#000000" transform="matrix(1.00, 0.00, -0.00, -1.00, 588.2, 91.0)">s</text><text xml:space="preserve" font-family="CourierNewPS-BoldMT" font-weight="bold" font-size="28.1" fill="#000000" transform="matrix(1.00, 0.00, -0.00, -1.00, 605.0, 91.0)">a</text><text xml:space="preserve" font-family="CourierNewPS-BoldMT" font-weight="bold" font-size="28.1" fill="#000000" transform="matrix(1.00, 0.00, -0.00, -1.00, 621.9, 91.0)">g</text><text xml:space="preserve" font-family="CourierNewPS-BoldMT" font-weight="bold" font-size="28.1" fill="#000000" transform="matrix(1.00, 0.00, -0.00, -1.00, 638.7, 91.0)">e</text><text xml:space="preserve" font-family="CourierNewPS-BoldMT" font-weight="bold" font-size="28.1" fill="#000000" transform="matrix(1.00, 0.00, -0.00, -1.00, 655.5, 91.0)">;</text><text xml:space="preserve" font-family="CourierNewPS-BoldMT" font-weight="bold" font-size="28.1" fill="#000000" transform="matrix(1.00, 0.00, -0.00, -1.00, 672.3, 91.0)"> </text><text xml:space="preserve" font-family="CourierNewPS-BoldMT" font-weight="bold" font-size="28.1" fill="#000000" transform="matrix(1.00, 0.00, -0.00, -1.00, 32.0, 60.0)"> </text><text xml:space="preserve" font-family="CourierNewPS-BoldMT" font-weight="bold" font-size="28.1" fill="#000000" transform="matrix(1.00, 0.00, -0.00, -1.00, 48.9, 60.0)"> </text><text xml:space="preserve" font-family="CourierNewPS-BoldMT" font-weight="bold" font-size="28.1" fill="#000000" transform="matrix(1.00, 0.00, -0.00, -1.00, 65.7, 60.0)">}</text><text xml:space="preserve" font-family="CourierNewPS-BoldMT" font-weight="bold" font-size="28.1" fill="#000000" transform="matrix(1.00, 0.00, -0.00, -1.00, 82.6, 60.0)">,</text><text xml:space="preserve" font-family="CourierNewPS-BoldMT" font-weight="bold" font-size="28.1" fill="#000000" transform="matrix(1.00, 0.00, -0.00, -1.00, 99.4, 60.0)"> </text><text xml:space="preserve" font-family="CourierNewPS-BoldMT" font-weight="bold" font-size="28.1" fill="#000000" transform="matrix(1.00, 0.00, -0.00, -1.00, 116.3, 60.0)">5</text><text xml:space="preserve" font-family="CourierNewPS-BoldMT" font-weight="bold" font-size="28.1" fill="#000000" transform="matrix(1.00, 0.00, -0.00, -1.00, 133.1, 60.0)">0</text><text xml:space="preserve" font-family="CourierNewPS-BoldMT" font-weight="bold" font-size="28.1" fill="#000000" transform="matrix(1.00, 0.00, -0.00, -1.00, 150.0, 60.0)">0</text><text xml:space="preserve" font-family="CourierNewPS-BoldMT" font-weight="bold" font-size="28.1" fill="#000000" transform="matrix(1.00, 0.00, -0.00, -1.00, 166.8, 60.0)">0</text><text xml:space="preserve" font-family="CourierNewPS-BoldMT" font-weight="bold" font-size="28.1" fill="#000000" transform="matrix(1.00, 0.00, -0.00, -1.00, 183.7, 60.0)">)</text><text xml:space="preserve" font-family="CourierNewPS-BoldMT" font-weight="bold" font-size="28.1" fill="#000000" transform="matrix(1.00, 0.00, -0.00, -1.00, 200.5, 60.0)">;</text><text xml:space="preserve" font-family="CourierNewPS-BoldMT" font-weight="bold" font-size="28.1" fill="#000000" transform="matrix(1.00, 0.00, -0.00, -1.00, 217.4, 60.0)"> </text><text xml:space="preserve" font-family="CourierNewPS-BoldMT" font-weight="bold" font-size="28.1" fill="#000000" transform="matrix(1.00, 0.00, -0.00, -1.00, 32.0, 29.0)">}</text><text xml:space="preserve" font-family="CourierNewPS-BoldMT" font-weight="bold" font-size="28.1" fill="#000000" transform="matrix(1.00, 0.00, -0.00, -1.00, 48.9, 29.0)">)</text><text xml:space="preserve" font-family="CourierNewPS-BoldMT" font-weight="bold" font-size="28.1" fill="#000000" transform="matrix(1.00, 0.00, -0.00, -1.00, 65.7, 29.0)">(</text><text xml:space="preserve" font-family="CourierNewPS-BoldMT" font-weight="bold" font-size="28.1" fill="#000000" transform="matrix(1.00, 0.00, -0.00, -1.00, 82.6, 29.0)">)</text><text xml:space="preserve" font-family="CourierNewPS-BoldMT" font-weight="bold" font-size="28.1" fill="#000000" transform="matrix(1.00, 0.00, -0.00, -1.00, 99.4, 29.0)">;</text></g></g></g></svg>