<?xml version="1.0" encoding="UTF-8" standalone="no"?><svg xmlns="http://www.w3.org/2000/svg" xmlns:xlink="http://www.w3.org/1999/xlink" clip-rule="evenodd" stroke-miterlimit="4.00" viewBox="0 0 1024 768"><desc>SVG generated by Keynote</desc><defs></defs><g transform="matrix(1.00, 0.00, -0.00, -1.00, 0.0, 768.0)"><g><clipPath id="clip-660"><path d="M 0.0 768.0 L 1024.0 768.0 L 1024.0 0.0 L 0.0 0.0 Z M 0.0 768.0 "></path></clipPath><g clip-path="url(#clip-660)"><image xlink:href="../../8F6754E5-F402-453C-8A28-A81B776A4759/assets/370422EB796A13E2672D714038217573.png" width="720.00" height="450.00" transform="matrix(1.42, 0.00, -0.00, -1.71, 0.0, 768.0)"></image></g></g><g><clipPath id="clip-661"><path d="M 0.7 8.0 L 1023.3 8.0 L 1023.3 522.7 L 0.7 522.7 Z M 0.7 8.0 "></path></clipPath><g clip-path="url(#clip-661)"><image xlink:href="../../8F6754E5-F402-453C-8A28-A81B776A4759/assets/5CC8C07FBFDB3D7788D394A2B89F79F3.png" width="900.00" height="453.00" transform="matrix(1.14, 0.00, -0.00, -1.14, 1.0, 523.0)"></image></g></g><g><clipPath id="clip-662"><path d="M 0.7 245.3 L 1023.3 245.3 L 1023.3 760.0 L 0.7 760.0 Z M 0.7 245.3 "></path></clipPath><g clip-path="url(#clip-662)"><image xlink:href="../../8F6754E5-F402-453C-8A28-A81B776A4759/assets/5CC8C07FBFDB3D7788D394A2B89F79F3.png" width="900.00" height="453.00" transform="matrix(1.14, 0.00, -0.00, -1.14, 1.0, 760.0)"></image></g></g><g><clipPath id="clip-663"><path d="M 0.7 120.6 L 1023.3 120.6 L 1023.3 635.4 L 0.7 635.4 Z M 0.7 120.6 "></path></clipPath><g clip-path="url(#clip-663)"><image xlink:href="../../8F6754E5-F402-453C-8A28-A81B776A4759/assets/5CC8C07FBFDB3D7788D394A2B89F79F3.png" width="900.00" height="453.00" transform="matrix(1.14, 0.00, -0.00, -1.13, 1.0, 635.0)"></image></g></g><text xml:space="preserve" font-family="Impact" font-weight="bold" font-size="80.0" fill="#FEFFFE" transform="matrix(1.00, 0.00, -0.00, -1.00, 274.0, 352.0)">C</text><text xml:space="preserve" font-family="Impact" font-weight="bold" font-size="80.0" fill="#FEFFFE" transform="matrix(1.00, 0.00, -0.00, -1.00, 318.3, 352.0)">S</text><text xml:space="preserve" font-family="Impact" font-weight="bold" font-size="80.0" fill="#FEFFFE" transform="matrix(1.00, 0.00, -0.00, -1.00, 359.7, 352.0)">S</text><text xml:space="preserve" font-family="Impact" font-weight="bold" font-size="80.0" fill="#FEFFFE" transform="matrix(1.00, 0.00, -0.00, -1.00, 415.1, 352.0)">a</text><text xml:space="preserve" font-family="Impact" font-weight="bold" font-size="80.0" fill="#FEFFFE" transform="matrix(1.00, 0.00, -0.00, -1.00, 455.4, 352.0)">n</text><text xml:space="preserve" font-family="Impact" font-weight="bold" font-size="80.0" fill="#FEFFFE" transform="matrix(1.00, 0.00, -0.00, -1.00, 497.3, 352.0)">i</text><text xml:space="preserve" font-family="Impact" font-weight="bold" font-size="80.0" fill="#FEFFFE" transform="matrix(1.00, 0.00, -0.00, -1.00, 519.2, 352.0)">m</text><text xml:space="preserve" font-family="Impact" font-weight="bold" font-size="80.0" fill="#FEFFFE" transform="matrix(1.00, 0.00, -0.00, -1.00, 580.9, 352.0)">a</text><text xml:space="preserve" font-family="Impact" font-weight="bold" font-size="80.0" fill="#FEFFFE" transform="matrix(1.00, 0.00, -0.00, -1.00, 621.2, 352.0)">t</text><text xml:space="preserve" font-family="Impact" font-weight="bold" font-size="80.0" fill="#FEFFFE" transform="matrix(1.00, 0.00, -0.00, -1.00, 645.6, 352.0)">i</text><text xml:space="preserve" font-family="Impact" font-weight="bold" font-size="80.0" fill="#FEFFFE" transform="matrix(1.00, 0.00, -0.00, -1.00, 667.5, 352.0)">o</text><text xml:space="preserve" font-family="Impact" font-weight="bold" font-size="80.0" fill="#FEFFFE" transform="matrix(1.00, 0.00, -0.00, -1.00, 708.4, 352.0)">n</text></g></svg>