<?xml version="1.0" encoding="UTF-8" standalone="no"?><svg xmlns="http://www.w3.org/2000/svg" xmlns:xlink="http://www.w3.org/1999/xlink" clip-rule="evenodd" stroke-miterlimit="4.00" viewBox="0 0 1024 768"><desc>SVG generated by Keynote</desc><defs></defs><g transform="matrix(1.00, 0.00, -0.00, -1.00, 0.0, 768.0)"><g><clipPath id="clip-460"><path d="M 0.0 768.0 L 1024.0 768.0 L 1024.0 0.0 L 0.0 0.0 Z M 0.0 768.0 "></path></clipPath><g clip-path="url(#clip-460)"><image xlink:href="../../F3A67573-A2F2-4CB0-9E39-F1DCDA2903A2/assets/AC39DDDA7F4B68AA81B60DCA4AD5F611.png" width="864.00" height="540.00" transform="matrix(1.19, 0.00, -0.00, -1.42, 0.0, 768.0)"></image></g></g><text xml:space="preserve" font-family="AvenirNext-Regular" font-size="60.0" fill="#000000" transform="matrix(1.00, 0.00, -0.00, -1.00, 379.0, 484.0)">П</text><text xml:space="preserve" font-family="AvenirNext-Regular" font-size="60.0" fill="#000000" transform="matrix(1.00, 0.00, -0.00, -1.00, 420.9, 484.0)">р</text><text xml:space="preserve" font-family="AvenirNext-Regular" font-size="60.0" fill="#000000" transform="matrix(1.00, 0.00, -0.00, -1.00, 459.0, 484.0)">и</text><text xml:space="preserve" font-family="AvenirNext-Regular" font-size="60.0" fill="#000000" transform="matrix(1.00, 0.00, -0.00, -1.00, 494.9, 484.0)">м</text><text xml:space="preserve" font-family="AvenirNext-Regular" font-size="60.0" fill="#000000" transform="matrix(1.00, 0.00, -0.00, -1.00, 536.6, 484.0)">е</text><text xml:space="preserve" font-family="AvenirNext-Regular" font-size="60.0" fill="#000000" transform="matrix(1.00, 0.00, -0.00, -1.00, 570.9, 484.0)">р</text><text xml:space="preserve" font-family="AvenirNext-Regular" font-size="60.0" fill="#000000" transform="matrix(1.00, 0.00, -0.00, -1.00, 609.0, 484.0)">и</text><text xml:space="preserve" font-family="AvenirNext-Regular" font-size="28.0" fill="#000000" transform="matrix(1.00, 0.00, -0.00, -1.00, 113.0, 375.0)">h</text><text xml:space="preserve" font-family="AvenirNext-Regular" font-size="28.0" fill="#000000" transform="matrix(1.00, 0.00, -0.00, -1.00, 129.3, 375.0)">t</text><text xml:space="preserve" font-family="AvenirNext-Regular" font-size="28.0" fill="#000000" transform="matrix(1.00, 0.00, -0.00, -1.00, 137.9, 375.0)">t</text><text xml:space="preserve" font-family="AvenirNext-Regular" font-size="28.0" fill="#000000" transform="matrix(1.00, 0.00, -0.00, -1.00, 146.7, 375.0)">p</text><text xml:space="preserve" font-family="AvenirNext-Regular" font-size="28.0" fill="#000000" transform="matrix(1.00, 0.00, -0.00, -1.00, 164.5, 375.0)">:</text><text xml:space="preserve" font-family="AvenirNext-Regular" font-size="28.0" fill="#000000" transform="matrix(1.00, 0.00, -0.00, -1.00, 172.9, 375.0)">/</text><text xml:space="preserve" font-family="AvenirNext-Regular" font-size="28.0" fill="#000000" transform="matrix(1.00, 0.00, -0.00, -1.00, 183.3, 375.0)">/</text><text xml:space="preserve" font-family="AvenirNext-Regular" font-size="28.0" fill="#000000" transform="matrix(1.00, 0.00, -0.00, -1.00, 193.6, 375.0)">z</text><text xml:space="preserve" font-family="AvenirNext-Regular" font-size="28.0" fill="#000000" transform="matrix(1.00, 0.00, -0.00, -1.00, 206.0, 375.0)">e</text><text xml:space="preserve" font-family="AvenirNext-Regular" font-size="28.0" fill="#000000" transform="matrix(1.00, 0.00, -0.00, -1.00, 222.0, 375.0)">n</text><text xml:space="preserve" font-family="AvenirNext-Regular" font-size="28.0" fill="#000000" transform="matrix(1.00, 0.00, -0.00, -1.00, 238.3, 375.0)">l</text><text xml:space="preserve" font-family="AvenirNext-Regular" font-size="28.0" fill="#000000" transform="matrix(1.00, 0.00, -0.00, -1.00, 245.4, 375.0)">a</text><text xml:space="preserve" font-family="AvenirNext-Regular" font-size="28.0" fill="#000000" transform="matrix(1.00, 0.00, -0.00, -1.00, 260.3, 375.0)">b</text><text xml:space="preserve" font-family="AvenirNext-Regular" font-size="28.0" fill="#000000" transform="matrix(1.00, 0.00, -0.00, -1.00, 278.1, 375.0)">s</text><text xml:space="preserve" font-family="AvenirNext-Regular" font-size="28.0" fill="#000000" transform="matrix(1.00, 0.00, -0.00, -1.00, 290.6, 375.0)">.</text><text xml:space="preserve" font-family="AvenirNext-Regular" font-size="28.0" fill="#000000" transform="matrix(1.00, 0.00, -0.00, -1.00, 297.9, 375.0)">p</text><text xml:space="preserve" font-family="AvenirNext-Regular" font-size="28.0" fill="#000000" transform="matrix(1.00, 0.00, -0.00, -1.00, 315.6, 375.0)">r</text><text xml:space="preserve" font-family="AvenirNext-Regular" font-size="28.0" fill="#000000" transform="matrix(1.00, 0.00, -0.00, -1.00, 325.2, 375.0)">o</text><text xml:space="preserve" font-family="AvenirNext-Regular" font-size="28.0" fill="#000000" transform="matrix(1.00, 0.00, -0.00, -1.00, 342.3, 375.0)">/</text><text xml:space="preserve" font-family="AvenirNext-Regular" font-size="28.0" fill="#000000" transform="matrix(1.00, 0.00, -0.00, -1.00, 352.7, 375.0)">c</text><text xml:space="preserve" font-family="AvenirNext-Regular" font-size="28.0" fill="#000000" transform="matrix(1.00, 0.00, -0.00, -1.00, 366.7, 375.0)">o</text><text xml:space="preserve" font-family="AvenirNext-Regular" font-size="28.0" fill="#000000" transform="matrix(1.00, 0.00, -0.00, -1.00, 383.8, 375.0)">u</text><text xml:space="preserve" font-family="AvenirNext-Regular" font-size="28.0" fill="#000000" transform="matrix(1.00, 0.00, -0.00, -1.00, 400.1, 375.0)">r</text><text xml:space="preserve" font-family="AvenirNext-Regular" font-size="28.0" fill="#000000" transform="matrix(1.00, 0.00, -0.00, -1.00, 410.1, 375.0)">s</text><text xml:space="preserve" font-family="AvenirNext-Regular" font-size="28.0" fill="#000000" transform="matrix(1.00, 0.00, -0.00, -1.00, 422.6, 375.0)">e</text><text xml:space="preserve" font-family="AvenirNext-Regular" font-size="28.0" fill="#000000" transform="matrix(1.00, 0.00, -0.00, -1.00, 438.6, 375.0)">s</text><text xml:space="preserve" font-family="AvenirNext-Regular" font-size="28.0" fill="#000000" transform="matrix(1.00, 0.00, -0.00, -1.00, 451.0, 375.0)">/</text><text xml:space="preserve" font-family="AvenirNext-Regular" font-size="28.0" fill="#000000" transform="matrix(1.00, 0.00, -0.00, -1.00, 461.4, 375.0)">s</text><text xml:space="preserve" font-family="AvenirNext-Regular" font-size="28.0" fill="#000000" transform="matrix(1.00, 0.00, -0.00, -1.00, 473.8, 375.0)">a</text><text xml:space="preserve" font-family="AvenirNext-Regular" font-size="28.0" fill="#000000" transform="matrix(1.00, 0.00, -0.00, -1.00, 488.8, 375.0)">-</text><text xml:space="preserve" font-family="AvenirNext-Regular" font-size="28.0" fill="#000000" transform="matrix(1.00, 0.00, -0.00, -1.00, 497.7, 375.0)">f</text><text xml:space="preserve" font-family="AvenirNext-Regular" font-size="28.0" fill="#000000" transform="matrix(1.00, 0.00, -0.00, -1.00, 506.0, 375.0)">e</text><text xml:space="preserve" font-family="AvenirNext-Regular" font-size="28.0" fill="#000000" transform="matrix(1.00, 0.00, -0.00, -1.00, 522.0, 375.0)">/</text><text xml:space="preserve" font-family="AvenirNext-Regular" font-size="28.0" fill="#000000" transform="matrix(1.00, 0.00, -0.00, -1.00, 532.4, 375.0)">l</text><text xml:space="preserve" font-family="AvenirNext-Regular" font-size="28.0" fill="#000000" transform="matrix(1.00, 0.00, -0.00, -1.00, 539.4, 375.0)">e</text><text xml:space="preserve" font-family="AvenirNext-Regular" font-size="28.0" fill="#000000" transform="matrix(1.00, 0.00, -0.00, -1.00, 555.4, 375.0)">s</text><text xml:space="preserve" font-family="AvenirNext-Regular" font-size="28.0" fill="#000000" transform="matrix(1.00, 0.00, -0.00, -1.00, 567.9, 375.0)">s</text><text xml:space="preserve" font-family="AvenirNext-Regular" font-size="28.0" fill="#000000" transform="matrix(1.00, 0.00, -0.00, -1.00, 580.3, 375.0)">o</text><text xml:space="preserve" font-family="AvenirNext-Regular" font-size="28.0" fill="#000000" transform="matrix(1.00, 0.00, -0.00, -1.00, 597.4, 375.0)">n</text><text xml:space="preserve" font-family="AvenirNext-Regular" font-size="28.0" fill="#000000" transform="matrix(1.00, 0.00, -0.00, -1.00, 613.7, 375.0)">s</text><text xml:space="preserve" font-family="AvenirNext-Regular" font-size="28.0" fill="#000000" transform="matrix(1.00, 0.00, -0.00, -1.00, 626.1, 375.0)">/</text><text xml:space="preserve" font-family="AvenirNext-Regular" font-size="28.0" fill="#000000" transform="matrix(1.00, 0.00, -0.00, -1.00, 636.5, 375.0)">l</text><text xml:space="preserve" font-family="AvenirNext-Regular" font-size="28.0" fill="#000000" transform="matrix(1.00, 0.00, -0.00, -1.00, 643.5, 375.0)">e</text><text xml:space="preserve" font-family="AvenirNext-Regular" font-size="28.0" fill="#000000" transform="matrix(1.00, 0.00, -0.00, -1.00, 659.5, 375.0)">s</text><text xml:space="preserve" font-family="AvenirNext-Regular" font-size="28.0" fill="#000000" transform="matrix(1.00, 0.00, -0.00, -1.00, 672.0, 375.0)">s</text><text xml:space="preserve" font-family="AvenirNext-Regular" font-size="28.0" fill="#000000" transform="matrix(1.00, 0.00, -0.00, -1.00, 684.4, 375.0)">o</text><text xml:space="preserve" font-family="AvenirNext-Regular" font-size="28.0" fill="#000000" transform="matrix(1.00, 0.00, -0.00, -1.00, 701.5, 375.0)">n</text><text xml:space="preserve" font-family="AvenirNext-Regular" font-size="28.0" fill="#000000" transform="matrix(1.00, 0.00, -0.00, -1.00, 717.8, 375.0)">1</text><text xml:space="preserve" font-family="AvenirNext-Regular" font-size="28.0" fill="#000000" transform="matrix(1.00, 0.00, -0.00, -1.00, 734.0, 375.0)">/</text><text xml:space="preserve" font-family="AvenirNext-Regular" font-size="28.0" fill="#000000" transform="matrix(1.00, 0.00, -0.00, -1.00, 744.4, 375.0)">e</text><text xml:space="preserve" font-family="AvenirNext-Regular" font-size="28.0" fill="#000000" transform="matrix(1.00, 0.00, -0.00, -1.00, 760.2, 375.0)">x</text><text xml:space="preserve" font-family="AvenirNext-Regular" font-size="28.0" fill="#000000" transform="matrix(1.00, 0.00, -0.00, -1.00, 773.8, 375.0)">a</text><text xml:space="preserve" font-family="AvenirNext-Regular" font-size="28.0" fill="#000000" transform="matrix(1.00, 0.00, -0.00, -1.00, 788.7, 375.0)">m</text><text xml:space="preserve" font-family="AvenirNext-Regular" font-size="28.0" fill="#000000" transform="matrix(1.00, 0.00, -0.00, -1.00, 813.4, 375.0)">p</text><text xml:space="preserve" font-family="AvenirNext-Regular" font-size="28.0" fill="#000000" transform="matrix(1.00, 0.00, -0.00, -1.00, 831.2, 375.0)">l</text><text xml:space="preserve" font-family="AvenirNext-Regular" font-size="28.0" fill="#000000" transform="matrix(1.00, 0.00, -0.00, -1.00, 838.3, 375.0)">e</text><text xml:space="preserve" font-family="AvenirNext-Regular" font-size="28.0" fill="#000000" transform="matrix(1.00, 0.00, -0.00, -1.00, 854.3, 375.0)">s</text><text xml:space="preserve" font-family="AvenirNext-Regular" font-size="28.0" fill="#000000" transform="matrix(1.00, 0.00, -0.00, -1.00, 866.7, 375.0)">.</text><text xml:space="preserve" font-family="AvenirNext-Regular" font-size="28.0" fill="#000000" transform="matrix(1.00, 0.00, -0.00, -1.00, 874.0, 375.0)">z</text><text xml:space="preserve" font-family="AvenirNext-Regular" font-size="28.0" fill="#000000" transform="matrix(1.00, 0.00, -0.00, -1.00, 886.4, 375.0)">i</text><text xml:space="preserve" font-family="AvenirNext-Regular" font-size="28.0" fill="#000000" transform="matrix(1.00, 0.00, -0.00, -1.00, 893.4, 375.0)">p</text><g><clipPath id="clip-461"><path d="M 111.9 371.5 L 911.1 371.5 L 911.1 374.9 L 111.9 374.9 Z M 111.9 371.5 "></path></clipPath><g clip-path="url(#clip-461)"><path d="M 37.9 120.9 L 836.1 120.9 " fill="none" stroke="#000000" stroke-width="1.40" stroke-miterlimit="0.00" transform="matrix(1.00, 0.00, 0.00, -1.00, 75.0, 494.1)"></path></g></g></g></svg>