<?xml version="1.0" encoding="UTF-8" standalone="no"?><svg xmlns="http://www.w3.org/2000/svg" xmlns:xlink="http://www.w3.org/1999/xlink" clip-rule="evenodd" stroke-miterlimit="4.00" viewBox="0 0 862 49"><desc>SVG generated by Keynote</desc><defs></defs><g transform="matrix(1.00, 0.00, -0.00, -1.00, 0.0, 49.0)"><text xml:space="preserve" font-family="AvenirNext-Regular" font-size="48.6" fill="#000000" transform="matrix(1.00, 0.00, -0.00, -1.00, -3.0, 13.0)">К</text><text xml:space="preserve" font-family="AvenirNext-Regular" font-size="48.6" fill="#000000" transform="matrix(1.00, 0.00, -0.00, -1.00, 30.6, 13.0)">о</text><text xml:space="preserve" font-family="AvenirNext-Regular" font-size="48.6" fill="#000000" transform="matrix(1.00, 0.00, -0.00, -1.00, 60.3, 13.0)">и</text><text xml:space="preserve" font-family="AvenirNext-Regular" font-size="48.6" fill="#000000" transform="matrix(1.00, 0.00, -0.00, -1.00, 89.4, 13.0)"> </text><text xml:space="preserve" font-family="AvenirNext-Regular" font-size="48.6" fill="#000000" transform="matrix(1.00, 0.00, -0.00, -1.00, 101.5, 13.0)">м</text><text xml:space="preserve" font-family="AvenirNext-Regular" font-size="48.6" fill="#000000" transform="matrix(1.00, 0.00, -0.00, -1.00, 135.3, 13.0)">е</text><text xml:space="preserve" font-family="AvenirNext-Regular" font-size="48.6" fill="#000000" transform="matrix(1.00, 0.00, -0.00, -1.00, 163.1, 13.0)">т</text><text xml:space="preserve" font-family="AvenirNext-Regular" font-size="48.6" fill="#000000" transform="matrix(1.00, 0.00, -0.00, -1.00, 184.1, 13.0)">а</text><text xml:space="preserve" font-family="AvenirNext-Regular" font-size="48.6" fill="#000000" transform="matrix(1.00, 0.00, -0.00, -1.00, 210.0, 13.0)"> </text><text xml:space="preserve" font-family="AvenirNext-Regular" font-size="48.6" fill="#000000" transform="matrix(1.00, 0.00, -0.00, -1.00, 222.2, 13.0)">т</text><text xml:space="preserve" font-family="AvenirNext-Regular" font-size="48.6" fill="#000000" transform="matrix(1.00, 0.00, -0.00, -1.00, 243.1, 13.0)">а</text><text xml:space="preserve" font-family="AvenirNext-Regular" font-size="48.6" fill="#000000" transform="matrix(1.00, 0.00, -0.00, -1.00, 269.1, 13.0)">г</text><text xml:space="preserve" font-family="AvenirNext-Regular" font-size="48.6" fill="#000000" transform="matrix(1.00, 0.00, -0.00, -1.00, 287.9, 13.0)">о</text><text xml:space="preserve" font-family="AvenirNext-Regular" font-size="48.6" fill="#000000" transform="matrix(1.00, 0.00, -0.00, -1.00, 317.6, 13.0)">в</text><text xml:space="preserve" font-family="AvenirNext-Regular" font-size="48.6" fill="#000000" transform="matrix(1.00, 0.00, -0.00, -1.00, 343.9, 13.0)">е</text><text xml:space="preserve" font-family="AvenirNext-Regular" font-size="48.6" fill="#000000" transform="matrix(1.00, 0.00, -0.00, -1.00, 371.7, 13.0)"> </text><text xml:space="preserve" font-family="AvenirNext-Regular" font-size="48.6" fill="#000000" transform="matrix(1.00, 0.00, -0.00, -1.00, 383.9, 13.0)">т</text><text xml:space="preserve" font-family="AvenirNext-Regular" font-size="48.6" fill="#000000" transform="matrix(1.00, 0.00, -0.00, -1.00, 404.8, 13.0)">р</text><text xml:space="preserve" font-family="AvenirNext-Regular" font-size="48.6" fill="#000000" transform="matrix(1.00, 0.00, -0.00, -1.00, 435.7, 13.0)">я</text><text xml:space="preserve" font-family="AvenirNext-Regular" font-size="48.6" fill="#000000" transform="matrix(1.00, 0.00, -0.00, -1.00, 461.9, 13.0)">б</text><text xml:space="preserve" font-family="AvenirNext-Regular" font-size="48.6" fill="#000000" transform="matrix(1.00, 0.00, -0.00, -1.00, 491.0, 13.0)">в</text><text xml:space="preserve" font-family="AvenirNext-Regular" font-size="48.6" fill="#000000" transform="matrix(1.00, 0.00, -0.00, -1.00, 517.3, 13.0)">а</text><text xml:space="preserve" font-family="AvenirNext-Regular" font-size="48.6" fill="#000000" transform="matrix(1.00, 0.00, -0.00, -1.00, 543.2, 13.0)"> </text><text xml:space="preserve" font-family="AvenirNext-Regular" font-size="48.6" fill="#000000" transform="matrix(1.00, 0.00, -0.00, -1.00, 555.4, 13.0)">д</text><text xml:space="preserve" font-family="AvenirNext-Regular" font-size="48.6" fill="#000000" transform="matrix(1.00, 0.00, -0.00, -1.00, 581.8, 13.0)">а</text><text xml:space="preserve" font-family="AvenirNext-Regular" font-size="48.6" fill="#000000" transform="matrix(1.00, 0.00, -0.00, -1.00, 607.8, 13.0)"> </text><text xml:space="preserve" font-family="AvenirNext-Regular" font-size="48.6" fill="#000000" transform="matrix(1.00, 0.00, -0.00, -1.00, 619.9, 13.0)">п</text><text xml:space="preserve" font-family="AvenirNext-Regular" font-size="48.6" fill="#000000" transform="matrix(1.00, 0.00, -0.00, -1.00, 647.5, 13.0)">о</text><text xml:space="preserve" font-family="AvenirNext-Regular" font-size="48.6" fill="#000000" transform="matrix(1.00, 0.00, -0.00, -1.00, 677.2, 13.0)">л</text><text xml:space="preserve" font-family="AvenirNext-Regular" font-size="48.6" fill="#000000" transform="matrix(1.00, 0.00, -0.00, -1.00, 701.3, 13.0)">з</text><text xml:space="preserve" font-family="AvenirNext-Regular" font-size="48.6" fill="#000000" transform="matrix(1.00, 0.00, -0.00, -1.00, 723.8, 13.0)">в</text><text xml:space="preserve" font-family="AvenirNext-Regular" font-size="48.6" fill="#000000" transform="matrix(1.00, 0.00, -0.00, -1.00, 750.1, 13.0)">а</text><text xml:space="preserve" font-family="AvenirNext-Regular" font-size="48.6" fill="#000000" transform="matrix(1.00, 0.00, -0.00, -1.00, 776.1, 13.0)">м</text><text xml:space="preserve" font-family="AvenirNext-Regular" font-size="48.6" fill="#000000" transform="matrix(1.00, 0.00, -0.00, -1.00, 809.8, 13.0)">е</text><text xml:space="preserve" font-family="AvenirNext-Regular" font-size="48.6" fill="#000000" transform="matrix(1.00, 0.00, -0.00, -1.00, 837.6, 13.0)">?</text></g></svg>