<?xml version="1.0" encoding="UTF-8" standalone="no"?><svg xmlns="http://www.w3.org/2000/svg" xmlns:xlink="http://www.w3.org/1999/xlink" clip-rule="evenodd" stroke-miterlimit="4.00" viewBox="0 0 1024 768"><desc>SVG generated by Keynote</desc><defs></defs><g transform="matrix(1.00, 0.00, -0.00, -1.00, 0.0, 768.0)"><g><clipPath id="clip-421"><path d="M 0.0 768.0 L 1024.0 768.0 L 1024.0 0.0 L 0.0 0.0 Z M 0.0 768.0 "></path></clipPath><g clip-path="url(#clip-421)"><image xlink:href="../../F3A67573-A2F2-4CB0-9E39-F1DCDA2903A2/assets/AC39DDDA7F4B68AA81B60DCA4AD5F611.png" width="864.00" height="540.00" transform="matrix(1.19, 0.00, -0.00, -1.42, 0.0, 768.0)"></image></g></g><text xml:space="preserve" font-family="CourierNewPS-BoldMT" font-weight="bold" font-size="54.0" fill="#000000" transform="matrix(1.00, 0.00, -0.00, -1.00, 359.0, 408.0)">J</text><text xml:space="preserve" font-family="CourierNewPS-BoldMT" font-weight="bold" font-size="54.0" fill="#000000" transform="matrix(1.00, 0.00, -0.00, -1.00, 391.4, 408.0)">a</text><text xml:space="preserve" font-family="CourierNewPS-BoldMT" font-weight="bold" font-size="54.0" fill="#000000" transform="matrix(1.00, 0.00, -0.00, -1.00, 423.8, 408.0)">v</text><text xml:space="preserve" font-family="CourierNewPS-BoldMT" font-weight="bold" font-size="54.0" fill="#000000" transform="matrix(1.00, 0.00, -0.00, -1.00, 456.2, 408.0)">a</text><text xml:space="preserve" font-family="CourierNewPS-BoldMT" font-weight="bold" font-size="54.0" fill="#000000" transform="matrix(1.00, 0.00, -0.00, -1.00, 488.6, 408.0)">S</text><text xml:space="preserve" font-family="CourierNewPS-BoldMT" font-weight="bold" font-size="54.0" fill="#000000" transform="matrix(1.00, 0.00, -0.00, -1.00, 521.0, 408.0)">c</text><text xml:space="preserve" font-family="CourierNewPS-BoldMT" font-weight="bold" font-size="54.0" fill="#000000" transform="matrix(1.00, 0.00, -0.00, -1.00, 553.4, 408.0)">r</text><text xml:space="preserve" font-family="CourierNewPS-BoldMT" font-weight="bold" font-size="54.0" fill="#000000" transform="matrix(1.00, 0.00, -0.00, -1.00, 585.8, 408.0)">i</text><text xml:space="preserve" font-family="CourierNewPS-BoldMT" font-weight="bold" font-size="54.0" fill="#000000" transform="matrix(1.00, 0.00, -0.00, -1.00, 618.3, 408.0)">p</text><text xml:space="preserve" font-family="CourierNewPS-BoldMT" font-weight="bold" font-size="54.0" fill="#000000" transform="matrix(1.00, 0.00, -0.00, -1.00, 650.7, 408.0)">t</text></g></svg>