<?xml version="1.0" encoding="UTF-8" standalone="no"?><svg xmlns="http://www.w3.org/2000/svg" xmlns:xlink="http://www.w3.org/1999/xlink" clip-rule="evenodd" stroke-miterlimit="4.00" viewBox="0 0 484 63"><desc>SVG generated by Keynote</desc><defs></defs><g transform="matrix(1.00, 0.00, -0.00, -1.00, 0.0, 63.0)"><path d="M 1.8 61.4 L 482.2 61.4 L 482.2 1.9 L 1.8 1.9 Z M 1.8 61.4 " fill="#F38F18"></path><g><clipPath id="clip-417"><path d="M -6.9 -6.8 L 490.9 -6.8 L 490.9 70.1 L -6.9 70.1 Z M -6.9 -6.8 "></path></clipPath><g clip-path="url(#clip-417)"><text xml:space="preserve" font-family="LucidaGrande" font-size="36.0" fill="#000000" transform="matrix(1.00, 0.00, -0.00, -1.00, 6.0, 22.0)">Ц</text><text xml:space="preserve" font-family="LucidaGrande" font-size="36.0" fill="#000000" transform="matrix(1.00, 0.00, -0.00, -1.00, 33.7, 22.0)">в</text><text xml:space="preserve" font-family="LucidaGrande" font-size="36.0" fill="#000000" transform="matrix(1.00, 0.00, -0.00, -1.00, 52.5, 22.0)">е</text><text xml:space="preserve" font-family="LucidaGrande" font-size="36.0" fill="#000000" transform="matrix(1.00, 0.00, -0.00, -1.00, 72.6, 22.0)">т</text><text xml:space="preserve" font-family="LucidaGrande" font-size="36.0" fill="#000000" transform="matrix(1.00, 0.00, -0.00, -1.00, 90.4, 22.0)">н</text><text xml:space="preserve" font-family="LucidaGrande" font-size="36.0" fill="#000000" transform="matrix(1.00, 0.00, -0.00, -1.00, 113.0, 22.0)">и</text><text xml:space="preserve" font-family="Baghdad" font-size="36.0" fill="#000000" transform="matrix(1.00, 0.00, -0.00, -1.00, 135.5, 22.0)"> </text><text xml:space="preserve" font-family="LucidaGrande" font-size="36.0" fill="#000000" transform="matrix(1.00, 0.00, -0.00, -1.00, 144.8, 22.0)">д</text><text xml:space="preserve" font-family="LucidaGrande" font-size="36.0" fill="#000000" transform="matrix(1.00, 0.00, -0.00, -1.00, 169.0, 22.0)">р</text><text xml:space="preserve" font-family="LucidaGrande" font-size="36.0" fill="#000000" transform="matrix(1.00, 0.00, -0.00, -1.00, 191.7, 22.0)">е</text><text xml:space="preserve" font-family="LucidaGrande" font-size="36.0" fill="#000000" transform="matrix(1.00, 0.00, -0.00, -1.00, 211.8, 22.0)">ш</text><text xml:space="preserve" font-family="LucidaGrande" font-size="36.0" fill="#000000" transform="matrix(1.00, 0.00, -0.00, -1.00, 242.1, 22.0)">к</text><text xml:space="preserve" font-family="LucidaGrande" font-size="36.0" fill="#000000" transform="matrix(1.00, 0.00, -0.00, -1.00, 262.4, 22.0)">и</text><text xml:space="preserve" font-family="Baghdad" font-size="36.0" fill="#000000" transform="matrix(1.00, 0.00, -0.00, -1.00, 284.9, 22.0)"> </text><text xml:space="preserve" font-family="LucidaGrande" font-size="36.0" fill="#000000" transform="matrix(1.00, 0.00, -0.00, -1.00, 294.2, 22.0)">з</text><text xml:space="preserve" font-family="LucidaGrande" font-size="36.0" fill="#000000" transform="matrix(1.00, 0.00, -0.00, -1.00, 311.5, 22.0)">а</text><text xml:space="preserve" font-family="Baghdad" font-size="36.0" fill="#000000" transform="matrix(1.00, 0.00, -0.00, -1.00, 331.4, 22.0)"> </text><text xml:space="preserve" font-family="LucidaGrande" font-size="36.0" fill="#000000" transform="matrix(1.00, 0.00, -0.00, -1.00, 340.7, 22.0)">H</text><text xml:space="preserve" font-family="LucidaGrande" font-size="36.0" fill="#000000" transform="matrix(1.00, 0.00, -0.00, -1.00, 367.2, 22.0)">T</text><text xml:space="preserve" font-family="LucidaGrande" font-size="36.0" fill="#000000" transform="matrix(1.00, 0.00, -0.00, -1.00, 390.0, 22.0)">M</text><text xml:space="preserve" font-family="LucidaGrande" font-size="36.0" fill="#000000" transform="matrix(1.00, 0.00, -0.00, -1.00, 421.0, 22.0)">L</text><text xml:space="preserve" font-family="Baghdad" font-size="36.0" fill="#000000" transform="matrix(1.00, 0.00, -0.00, -1.00, 440.2, 22.0)">-</text><text xml:space="preserve" font-family="LucidaGrande" font-size="36.0" fill="#000000" transform="matrix(1.00, 0.00, -0.00, -1.00, 457.4, 22.0)">a</text></g></g></g></svg>