<?xml version="1.0" encoding="UTF-8" standalone="no"?><svg xmlns="http://www.w3.org/2000/svg" xmlns:xlink="http://www.w3.org/1999/xlink" clip-rule="evenodd" stroke-miterlimit="4.00" viewBox="0 0 1024 768"><desc>SVG generated by Keynote</desc><defs></defs><g transform="matrix(1.00, 0.00, -0.00, -1.00, 0.0, 768.0)"><g><clipPath id="clip-418"><path d="M 0.0 768.0 L 1024.0 768.0 L 1024.0 0.0 L 0.0 0.0 Z M 0.0 768.0 "></path></clipPath><g clip-path="url(#clip-418)"><image xlink:href="../../F3A67573-A2F2-4CB0-9E39-F1DCDA2903A2/assets/AC39DDDA7F4B68AA81B60DCA4AD5F611.png" width="864.00" height="540.00" transform="matrix(1.19, 0.00, -0.00, -1.42, 0.0, 768.0)"></image></g></g><text xml:space="preserve" font-family="AvenirNext-Regular" font-size="54.0" fill="#000000" transform="matrix(1.00, 0.00, -0.00, -1.00, 354.0, 620.0)">З</text><text xml:space="preserve" font-family="AvenirNext-Regular" font-size="54.0" fill="#000000" transform="matrix(1.00, 0.00, -0.00, -1.00, 387.6, 620.0)">а</text><text xml:space="preserve" font-family="AvenirNext-Regular" font-size="54.0" fill="#000000" transform="matrix(1.00, 0.00, -0.00, -1.00, 416.5, 620.0)">к</text><text xml:space="preserve" font-family="AvenirNext-Regular" font-size="54.0" fill="#000000" transform="matrix(1.00, 0.00, -0.00, -1.00, 445.8, 620.0)">л</text><text xml:space="preserve" font-family="AvenirNext-Regular" font-size="54.0" fill="#000000" transform="matrix(1.00, 0.00, -0.00, -1.00, 472.6, 620.0)">ю</text><text xml:space="preserve" font-family="AvenirNext-Regular" font-size="54.0" fill="#000000" transform="matrix(1.00, 0.00, -0.00, -1.00, 516.2, 620.0)">ч</text><text xml:space="preserve" font-family="AvenirNext-Regular" font-size="54.0" fill="#000000" transform="matrix(1.00, 0.00, -0.00, -1.00, 544.1, 620.0)">е</text><text xml:space="preserve" font-family="AvenirNext-Regular" font-size="54.0" fill="#000000" transform="matrix(1.00, 0.00, -0.00, -1.00, 575.0, 620.0)">н</text><text xml:space="preserve" font-family="AvenirNext-Regular" font-size="54.0" fill="#000000" transform="matrix(1.00, 0.00, -0.00, -1.00, 606.0, 620.0)">и</text><text xml:space="preserve" font-family="AvenirNext-Regular" font-size="54.0" fill="#000000" transform="matrix(1.00, 0.00, -0.00, -1.00, 638.4, 620.0)">е</text><g><clipPath id="clip-419"><path d="M 353.2 613.8 L 669.5 613.8 L 669.5 618.5 L 353.2 618.5 Z M 353.2 613.8 "></path></clipPath><g clip-path="url(#clip-419)"><path d="M 263.4 62.3 L 578.6 62.3 " fill="none" stroke="#000000" stroke-width="2.70" stroke-miterlimit="0.00" transform="matrix(1.00, 0.00, 0.00, -1.00, 90.8, 678.4)"></path></g></g><path d="M 271.8 333.4 L 752.2 333.4 L 752.2 273.9 L 271.8 273.9 Z M 271.8 333.4 " fill="#F38F18"></path><g><clipPath id="clip-420"><path d="M 263.1 265.2 L 760.9 265.2 L 760.9 342.1 L 263.1 342.1 Z M 263.1 265.2 "></path></clipPath><g clip-path="url(#clip-420)"><text xml:space="preserve" font-family="LucidaGrande" font-size="36.0" fill="#000000" transform="matrix(1.00, 0.00, -0.00, -1.00, 276.0, 294.0)">Ц</text><text xml:space="preserve" font-family="LucidaGrande" font-size="36.0" fill="#000000" transform="matrix(1.00, 0.00, -0.00, -1.00, 303.7, 294.0)">в</text><text xml:space="preserve" font-family="LucidaGrande" font-size="36.0" fill="#000000" transform="matrix(1.00, 0.00, -0.00, -1.00, 322.5, 294.0)">е</text><text xml:space="preserve" font-family="LucidaGrande" font-size="36.0" fill="#000000" transform="matrix(1.00, 0.00, -0.00, -1.00, 342.6, 294.0)">т</text><text xml:space="preserve" font-family="LucidaGrande" font-size="36.0" fill="#000000" transform="matrix(1.00, 0.00, -0.00, -1.00, 360.4, 294.0)">н</text><text xml:space="preserve" font-family="LucidaGrande" font-size="36.0" fill="#000000" transform="matrix(1.00, 0.00, -0.00, -1.00, 383.0, 294.0)">и</text><text xml:space="preserve" font-family="Baghdad" font-size="36.0" fill="#000000" transform="matrix(1.00, 0.00, -0.00, -1.00, 405.5, 294.0)"> </text><text xml:space="preserve" font-family="LucidaGrande" font-size="36.0" fill="#000000" transform="matrix(1.00, 0.00, -0.00, -1.00, 414.8, 294.0)">д</text><text xml:space="preserve" font-family="LucidaGrande" font-size="36.0" fill="#000000" transform="matrix(1.00, 0.00, -0.00, -1.00, 439.0, 294.0)">р</text><text xml:space="preserve" font-family="LucidaGrande" font-size="36.0" fill="#000000" transform="matrix(1.00, 0.00, -0.00, -1.00, 461.7, 294.0)">е</text><text xml:space="preserve" font-family="LucidaGrande" font-size="36.0" fill="#000000" transform="matrix(1.00, 0.00, -0.00, -1.00, 481.8, 294.0)">ш</text><text xml:space="preserve" font-family="LucidaGrande" font-size="36.0" fill="#000000" transform="matrix(1.00, 0.00, -0.00, -1.00, 512.1, 294.0)">к</text><text xml:space="preserve" font-family="LucidaGrande" font-size="36.0" fill="#000000" transform="matrix(1.00, 0.00, -0.00, -1.00, 532.4, 294.0)">и</text><text xml:space="preserve" font-family="Baghdad" font-size="36.0" fill="#000000" transform="matrix(1.00, 0.00, -0.00, -1.00, 554.9, 294.0)"> </text><text xml:space="preserve" font-family="LucidaGrande" font-size="36.0" fill="#000000" transform="matrix(1.00, 0.00, -0.00, -1.00, 564.2, 294.0)">з</text><text xml:space="preserve" font-family="LucidaGrande" font-size="36.0" fill="#000000" transform="matrix(1.00, 0.00, -0.00, -1.00, 581.5, 294.0)">а</text><text xml:space="preserve" font-family="Baghdad" font-size="36.0" fill="#000000" transform="matrix(1.00, 0.00, -0.00, -1.00, 601.4, 294.0)"> </text><text xml:space="preserve" font-family="LucidaGrande" font-size="36.0" fill="#000000" transform="matrix(1.00, 0.00, -0.00, -1.00, 610.7, 294.0)">H</text><text xml:space="preserve" font-family="LucidaGrande" font-size="36.0" fill="#000000" transform="matrix(1.00, 0.00, -0.00, -1.00, 637.2, 294.0)">T</text><text xml:space="preserve" font-family="LucidaGrande" font-size="36.0" fill="#000000" transform="matrix(1.00, 0.00, -0.00, -1.00, 660.0, 294.0)">M</text><text xml:space="preserve" font-family="LucidaGrande" font-size="36.0" fill="#000000" transform="matrix(1.00, 0.00, -0.00, -1.00, 691.0, 294.0)">L</text><text xml:space="preserve" font-family="Baghdad" font-size="36.0" fill="#000000" transform="matrix(1.00, 0.00, -0.00, -1.00, 710.2, 294.0)">-</text><text xml:space="preserve" font-family="LucidaGrande" font-size="36.0" fill="#000000" transform="matrix(1.00, 0.00, -0.00, -1.00, 727.4, 294.0)">a</text></g></g><text xml:space="preserve" font-family="CourierNewPS-BoldMT" font-weight="bold" font-size="56.0" fill="#000000" transform="matrix(1.00, 0.00, -0.00, -1.00, 462.0, 449.0)">C</text><text xml:space="preserve" font-family="CourierNewPS-BoldMT" font-weight="bold" font-size="56.0" fill="#000000" transform="matrix(1.00, 0.00, -0.00, -1.00, 495.6, 449.0)">S</text><text xml:space="preserve" font-family="CourierNewPS-BoldMT" font-weight="bold" font-size="56.0" fill="#000000" transform="matrix(1.00, 0.00, -0.00, -1.00, 529.2, 449.0)">S</text><text xml:space="preserve" font-family="CourierNewPS-BoldMT" font-weight="bold" font-size="56.0" fill="#000000" transform="matrix(1.00, 0.00, -0.00, -1.00, 495.0, 380.0)">=</text></g></svg>