<?xml version="1.0" encoding="UTF-8" standalone="no"?><svg xmlns="http://www.w3.org/2000/svg" xmlns:xlink="http://www.w3.org/1999/xlink" clip-rule="evenodd" stroke-miterlimit="4.00" viewBox="0 0 1024 768"><desc>SVG generated by Keynote</desc><defs></defs><g transform="matrix(1.00, 0.00, -0.00, -1.00, 0.0, 768.0)"><g><clipPath id="clip-710"><path d="M 0.0 768.0 L 1024.0 768.0 L 1024.0 0.0 L 0.0 0.0 Z M 0.0 768.0 "></path></clipPath><g clip-path="url(#clip-710)"><image xlink:href="../../8F6754E5-F402-453C-8A28-A81B776A4759/assets/370422EB796A13E2672D714038217573.png" width="720.00" height="450.00" transform="matrix(1.42, 0.00, -0.00, -1.71, 0.0, 768.0)"></image></g></g><image xlink:href="DE9F62421E3D07898487911B074F9F45.png" width="745.00" height="540.00" transform="matrix(1.37, 0.00, -0.00, -1.37, 0.0, 755.0)"></image><text xml:space="preserve" font-family="AvenirNext-Medium" font-size="79.1" fill="#000000" transform="matrix(1.00, 0.00, -0.00, -1.00, 180.0, 435.0)">C</text><text xml:space="preserve" font-family="AvenirNext-Medium" font-size="79.1" fill="#000000" transform="matrix(1.00, 0.00, -0.00, -1.00, 234.6, 435.0)">a</text><text xml:space="preserve" font-family="AvenirNext-Medium" font-size="79.1" fill="#000000" transform="matrix(1.00, 0.00, -0.00, -1.00, 277.5, 435.0)">n</text><text xml:space="preserve" font-family="AvenirNext-Medium" font-size="79.1" fill="#000000" transform="matrix(1.00, 0.00, -0.00, -1.00, 323.5, 435.0)">v</text><text xml:space="preserve" font-family="AvenirNext-Medium" font-size="79.1" fill="#000000" transform="matrix(1.00, 0.00, -0.00, -1.00, 363.4, 435.0)">a</text><text xml:space="preserve" font-family="AvenirNext-Medium" font-size="79.1" fill="#000000" transform="matrix(1.00, 0.00, -0.00, -1.00, 406.3, 435.0)">s</text></g></svg>