<?xml version="1.0" encoding="UTF-8" standalone="no"?><svg xmlns="http://www.w3.org/2000/svg" xmlns:xlink="http://www.w3.org/1999/xlink" clip-rule="evenodd" stroke-miterlimit="4.00" viewBox="0 0 200 83"><desc>SVG generated by Keynote</desc><defs></defs><g transform="matrix(1.00, 0.00, -0.00, -1.00, 0.0, 83.0)"><text xml:space="preserve" font-family="AvenirNext-Regular" font-size="24.0" fill="#000000" transform="matrix(1.00, 0.00, -0.00, -1.00, 0.7, 58.4)">•</text><text xml:space="preserve" font-family="AvenirNext-Regular" font-size="32.0" fill="#000000" transform="matrix(1.00, 0.00, -0.00, -1.00, 28.0, 56.0)">с</text><text xml:space="preserve" font-family="AvenirNext-Regular" font-size="32.0" fill="#000000" transform="matrix(1.00, 0.00, -0.00, -1.00, 44.0, 56.0)">а</text><text xml:space="preserve" font-family="AvenirNext-Regular" font-size="32.0" fill="#000000" transform="matrix(1.00, 0.00, -0.00, -1.00, 61.1, 56.0)">й</text><text xml:space="preserve" font-family="AvenirNext-Regular" font-size="32.0" fill="#000000" transform="matrix(1.00, 0.00, -0.00, -1.00, 80.3, 56.0)">т</text><text xml:space="preserve" font-family="AvenirNext-Regular" font-size="32.0" fill="#000000" transform="matrix(1.00, 0.00, -0.00, -1.00, 94.0, 56.0)">:</text><text xml:space="preserve" font-family="LucidaGrande" font-size="32.0" fill="#000000" transform="matrix(1.00, 0.00, -0.00, -1.00, 103.6, 56.0)"> </text><text xml:space="preserve" font-family="AvenirNext-Regular" font-size="32.0" fill="#000000" transform="matrix(1.00, 0.00, -0.00, -1.00, 28.0, 12.0)">l</text><text xml:space="preserve" font-family="AvenirNext-Regular" font-size="32.0" fill="#000000" transform="matrix(1.00, 0.00, -0.00, -1.00, 36.1, 12.0)">e</text><text xml:space="preserve" font-family="AvenirNext-Regular" font-size="32.0" fill="#000000" transform="matrix(1.00, 0.00, -0.00, -1.00, 54.4, 12.0)">s</text><text xml:space="preserve" font-family="AvenirNext-Regular" font-size="32.0" fill="#000000" transform="matrix(1.00, 0.00, -0.00, -1.00, 68.6, 12.0)">s</text><text xml:space="preserve" font-family="AvenirNext-Regular" font-size="32.0" fill="#000000" transform="matrix(1.00, 0.00, -0.00, -1.00, 82.8, 12.0)">c</text><text xml:space="preserve" font-family="AvenirNext-Regular" font-size="32.0" fill="#000000" transform="matrix(1.00, 0.00, -0.00, -1.00, 98.8, 12.0)">s</text><text xml:space="preserve" font-family="AvenirNext-Regular" font-size="32.0" fill="#000000" transform="matrix(1.00, 0.00, -0.00, -1.00, 113.0, 12.0)">s</text><text xml:space="preserve" font-family="AvenirNext-Regular" font-size="32.0" fill="#000000" transform="matrix(1.00, 0.00, -0.00, -1.00, 127.2, 12.0)">.</text><text xml:space="preserve" font-family="AvenirNext-Regular" font-size="32.0" fill="#000000" transform="matrix(1.00, 0.00, -0.00, -1.00, 135.5, 12.0)">o</text><text xml:space="preserve" font-family="AvenirNext-Regular" font-size="32.0" fill="#000000" transform="matrix(1.00, 0.00, -0.00, -1.00, 155.1, 12.0)">r</text><text xml:space="preserve" font-family="AvenirNext-Regular" font-size="32.0" fill="#000000" transform="matrix(1.00, 0.00, -0.00, -1.00, 166.0, 12.0)">g</text><text xml:space="preserve" font-family="AvenirNext-Regular" font-size="32.0" fill="#000000" transform="matrix(1.00, 0.00, -0.00, -1.00, 186.2, 12.0)">/</text><g><clipPath id="clip-703"><path d="M 26.9 7.6 L 198.0 7.6 L 198.0 11.2 L 26.9 11.2 Z M 26.9 7.6 "></path></clipPath><g clip-path="url(#clip-703)"><path d="M 31.2 104.7 L 201.3 104.7 " fill="none" stroke="#000000" stroke-width="1.60" stroke-miterlimit="0.00" transform="matrix(1.00, 0.00, 0.00, -1.00, -3.3, 114.1)"></path></g></g></g></svg>