<?xml version="1.0" encoding="UTF-8" standalone="no"?><svg xmlns="http://www.w3.org/2000/svg" xmlns:xlink="http://www.w3.org/1999/xlink" clip-rule="evenodd" stroke-miterlimit="4.00" viewBox="0 0 800 99"><desc>SVG generated by Keynote</desc><defs></defs><g transform="matrix(1.00, 0.00, -0.00, -1.00, 0.0, 99.0)"><text xml:space="preserve" font-family="AvenirNext-Regular" font-size="24.0" fill="#000000" transform="matrix(1.00, 0.00, -0.00, -1.00, 0.7, 74.4)">•</text><text xml:space="preserve" font-family="AvenirNext-Regular" font-size="32.0" fill="#000000" transform="matrix(1.00, 0.00, -0.00, -1.00, 28.0, 72.0)">J</text><text xml:space="preserve" font-family="AvenirNext-Regular" font-size="32.0" fill="#000000" transform="matrix(1.00, 0.00, -0.00, -1.00, 43.7, 72.0)">S</text><text xml:space="preserve" font-family="AvenirNext-Regular" font-size="32.0" fill="#000000" transform="matrix(1.00, 0.00, -0.00, -1.00, 61.8, 72.0)"> </text><text xml:space="preserve" font-family="AvenirNext-Regular" font-size="32.0" fill="#000000" transform="matrix(1.00, 0.00, -0.00, -1.00, 69.8, 72.0)">C</text><text xml:space="preserve" font-family="AvenirNext-Regular" font-size="32.0" fill="#000000" transform="matrix(1.00, 0.00, -0.00, -1.00, 92.8, 72.0)">D</text><text xml:space="preserve" font-family="AvenirNext-Regular" font-size="32.0" fill="#000000" transform="matrix(1.00, 0.00, -0.00, -1.00, 117.1, 72.0)">N</text><text xml:space="preserve" font-family="AvenirNext-Regular" font-size="32.0" fill="#000000" transform="matrix(1.00, 0.00, -0.00, -1.00, 141.5, 72.0)">:</text><text xml:space="preserve" font-family="LucidaGrande" font-size="32.0" fill="#000000" transform="matrix(1.00, 0.00, -0.00, -1.00, 151.1, 72.0)"> </text><text xml:space="preserve" font-family="CourierNewPSMT" font-size="28.0" fill="#000000" transform="matrix(1.00, 0.00, -0.00, -1.00, 28.0, 38.0)">&lt;</text><text xml:space="preserve" font-family="CourierNewPSMT" font-size="28.0" fill="#000000" transform="matrix(1.00, 0.00, -0.00, -1.00, 44.8, 38.0)">s</text><text xml:space="preserve" font-family="CourierNewPSMT" font-size="28.0" fill="#000000" transform="matrix(1.00, 0.00, -0.00, -1.00, 61.6, 38.0)">c</text><text xml:space="preserve" font-family="CourierNewPSMT" font-size="28.0" fill="#000000" transform="matrix(1.00, 0.00, -0.00, -1.00, 78.4, 38.0)">r</text><text xml:space="preserve" font-family="CourierNewPSMT" font-size="28.0" fill="#000000" transform="matrix(1.00, 0.00, -0.00, -1.00, 95.2, 38.0)">i</text><text xml:space="preserve" font-family="CourierNewPSMT" font-size="28.0" fill="#000000" transform="matrix(1.00, 0.00, -0.00, -1.00, 112.0, 38.0)">p</text><text xml:space="preserve" font-family="CourierNewPSMT" font-size="28.0" fill="#000000" transform="matrix(1.00, 0.00, -0.00, -1.00, 128.8, 38.0)">t</text><text xml:space="preserve" font-family="CourierNewPSMT" font-size="28.0" fill="#000000" transform="matrix(1.00, 0.00, -0.00, -1.00, 145.6, 38.0)"> </text><text xml:space="preserve" font-family="CourierNewPSMT" font-size="28.0" fill="#000000" transform="matrix(1.00, 0.00, -0.00, -1.00, 162.4, 38.0)">s</text><text xml:space="preserve" font-family="CourierNewPSMT" font-size="28.0" fill="#000000" transform="matrix(1.00, 0.00, -0.00, -1.00, 179.2, 38.0)">r</text><text xml:space="preserve" font-family="CourierNewPSMT" font-size="28.0" fill="#000000" transform="matrix(1.00, 0.00, -0.00, -1.00, 196.1, 38.0)">c</text><text xml:space="preserve" font-family="CourierNewPSMT" font-size="28.0" fill="#000000" transform="matrix(1.00, 0.00, -0.00, -1.00, 212.9, 38.0)">=</text><text xml:space="preserve" font-family="CourierNewPSMT" font-size="28.0" fill="#000000" transform="matrix(1.00, 0.00, -0.00, -1.00, 229.7, 38.0)">"</text><text xml:space="preserve" font-family="CourierNewPSMT" font-size="28.0" fill="#000000" transform="matrix(1.00, 0.00, -0.00, -1.00, 246.5, 38.0)">/</text><text xml:space="preserve" font-family="CourierNewPSMT" font-size="28.0" fill="#000000" transform="matrix(1.00, 0.00, -0.00, -1.00, 263.3, 38.0)">/</text><text xml:space="preserve" font-family="CourierNewPSMT" font-size="28.0" fill="#000000" transform="matrix(1.00, 0.00, -0.00, -1.00, 280.1, 38.0)">c</text><text xml:space="preserve" font-family="CourierNewPSMT" font-size="28.0" fill="#000000" transform="matrix(1.00, 0.00, -0.00, -1.00, 296.9, 38.0)">d</text><text xml:space="preserve" font-family="CourierNewPSMT" font-size="28.0" fill="#000000" transform="matrix(1.00, 0.00, -0.00, -1.00, 313.7, 38.0)">n</text><text xml:space="preserve" font-family="CourierNewPSMT" font-size="28.0" fill="#000000" transform="matrix(1.00, 0.00, -0.00, -1.00, 330.5, 38.0)">j</text><text xml:space="preserve" font-family="CourierNewPSMT" font-size="28.0" fill="#000000" transform="matrix(1.00, 0.00, -0.00, -1.00, 347.3, 38.0)">s</text><text xml:space="preserve" font-family="CourierNewPSMT" font-size="28.0" fill="#000000" transform="matrix(1.00, 0.00, -0.00, -1.00, 364.1, 38.0)">.</text><text xml:space="preserve" font-family="CourierNewPSMT" font-size="28.0" fill="#000000" transform="matrix(1.00, 0.00, -0.00, -1.00, 380.9, 38.0)">c</text><text xml:space="preserve" font-family="CourierNewPSMT" font-size="28.0" fill="#000000" transform="matrix(1.00, 0.00, -0.00, -1.00, 397.7, 38.0)">l</text><text xml:space="preserve" font-family="CourierNewPSMT" font-size="28.0" fill="#000000" transform="matrix(1.00, 0.00, -0.00, -1.00, 414.5, 38.0)">o</text><text xml:space="preserve" font-family="CourierNewPSMT" font-size="28.0" fill="#000000" transform="matrix(1.00, 0.00, -0.00, -1.00, 431.3, 38.0)">u</text><text xml:space="preserve" font-family="CourierNewPSMT" font-size="28.0" fill="#000000" transform="matrix(1.00, 0.00, -0.00, -1.00, 448.1, 38.0)">d</text><text xml:space="preserve" font-family="CourierNewPSMT" font-size="28.0" fill="#000000" transform="matrix(1.00, 0.00, -0.00, -1.00, 464.9, 38.0)">f</text><text xml:space="preserve" font-family="CourierNewPSMT" font-size="28.0" fill="#000000" transform="matrix(1.00, 0.00, -0.00, -1.00, 481.7, 38.0)">l</text><text xml:space="preserve" font-family="CourierNewPSMT" font-size="28.0" fill="#000000" transform="matrix(1.00, 0.00, -0.00, -1.00, 498.6, 38.0)">a</text><text xml:space="preserve" font-family="CourierNewPSMT" font-size="28.0" fill="#000000" transform="matrix(1.00, 0.00, -0.00, -1.00, 515.4, 38.0)">r</text><text xml:space="preserve" font-family="CourierNewPSMT" font-size="28.0" fill="#000000" transform="matrix(1.00, 0.00, -0.00, -1.00, 532.2, 38.0)">e</text><text xml:space="preserve" font-family="CourierNewPSMT" font-size="28.0" fill="#000000" transform="matrix(1.00, 0.00, -0.00, -1.00, 549.0, 38.0)">.</text><text xml:space="preserve" font-family="CourierNewPSMT" font-size="28.0" fill="#000000" transform="matrix(1.00, 0.00, -0.00, -1.00, 565.8, 38.0)">c</text><text xml:space="preserve" font-family="CourierNewPSMT" font-size="28.0" fill="#000000" transform="matrix(1.00, 0.00, -0.00, -1.00, 582.6, 38.0)">o</text><text xml:space="preserve" font-family="CourierNewPSMT" font-size="28.0" fill="#000000" transform="matrix(1.00, 0.00, -0.00, -1.00, 599.4, 38.0)">m</text><text xml:space="preserve" font-family="CourierNewPSMT" font-size="28.0" fill="#000000" transform="matrix(1.00, 0.00, -0.00, -1.00, 616.2, 38.0)">/</text><text xml:space="preserve" font-family="CourierNewPSMT" font-size="28.0" fill="#000000" transform="matrix(1.00, 0.00, -0.00, -1.00, 633.0, 38.0)">a</text><text xml:space="preserve" font-family="CourierNewPSMT" font-size="28.0" fill="#000000" transform="matrix(1.00, 0.00, -0.00, -1.00, 649.8, 38.0)">j</text><text xml:space="preserve" font-family="CourierNewPSMT" font-size="28.0" fill="#000000" transform="matrix(1.00, 0.00, -0.00, -1.00, 666.6, 38.0)">a</text><text xml:space="preserve" font-family="CourierNewPSMT" font-size="28.0" fill="#000000" transform="matrix(1.00, 0.00, -0.00, -1.00, 683.4, 38.0)">x</text><text xml:space="preserve" font-family="CourierNewPSMT" font-size="28.0" fill="#000000" transform="matrix(1.00, 0.00, -0.00, -1.00, 700.2, 38.0)">/</text><text xml:space="preserve" font-family="CourierNewPSMT" font-size="28.0" fill="#000000" transform="matrix(1.00, 0.00, -0.00, -1.00, 717.0, 38.0)">l</text><text xml:space="preserve" font-family="CourierNewPSMT" font-size="28.0" fill="#000000" transform="matrix(1.00, 0.00, -0.00, -1.00, 733.8, 38.0)">i</text><text xml:space="preserve" font-family="CourierNewPSMT" font-size="28.0" fill="#000000" transform="matrix(1.00, 0.00, -0.00, -1.00, 750.6, 38.0)">b</text><text xml:space="preserve" font-family="CourierNewPSMT" font-size="28.0" fill="#000000" transform="matrix(1.00, 0.00, -0.00, -1.00, 767.4, 38.0)">s</text><text xml:space="preserve" font-family="CourierNewPSMT" font-size="28.0" fill="#000000" transform="matrix(1.00, 0.00, -0.00, -1.00, 784.2, 38.0)">/</text><text xml:space="preserve" font-family="CourierNewPSMT" font-size="28.0" fill="#000000" transform="matrix(1.00, 0.00, -0.00, -1.00, 28.0, 7.0)">l</text><text xml:space="preserve" font-family="CourierNewPSMT" font-size="28.0" fill="#000000" transform="matrix(1.00, 0.00, -0.00, -1.00, 44.8, 7.0)">e</text><text xml:space="preserve" font-family="CourierNewPSMT" font-size="28.0" fill="#000000" transform="matrix(1.00, 0.00, -0.00, -1.00, 61.6, 7.0)">s</text><text xml:space="preserve" font-family="CourierNewPSMT" font-size="28.0" fill="#000000" transform="matrix(1.00, 0.00, -0.00, -1.00, 78.4, 7.0)">s</text><text xml:space="preserve" font-family="CourierNewPSMT" font-size="28.0" fill="#000000" transform="matrix(1.00, 0.00, -0.00, -1.00, 95.2, 7.0)">.</text><text xml:space="preserve" font-family="CourierNewPSMT" font-size="28.0" fill="#000000" transform="matrix(1.00, 0.00, -0.00, -1.00, 112.0, 7.0)">j</text><text xml:space="preserve" font-family="CourierNewPSMT" font-size="28.0" fill="#000000" transform="matrix(1.00, 0.00, -0.00, -1.00, 128.8, 7.0)">s</text><text xml:space="preserve" font-family="CourierNewPSMT" font-size="28.0" fill="#000000" transform="matrix(1.00, 0.00, -0.00, -1.00, 145.6, 7.0)">/</text><text xml:space="preserve" font-family="CourierNewPSMT" font-size="28.0" fill="#000000" transform="matrix(1.00, 0.00, -0.00, -1.00, 162.4, 7.0)">2</text><text xml:space="preserve" font-family="CourierNewPSMT" font-size="28.0" fill="#000000" transform="matrix(1.00, 0.00, -0.00, -1.00, 179.2, 7.0)">.</text><text xml:space="preserve" font-family="CourierNewPSMT" font-size="28.0" fill="#000000" transform="matrix(1.00, 0.00, -0.00, -1.00, 196.1, 7.0)">5</text><text xml:space="preserve" font-family="CourierNewPSMT" font-size="28.0" fill="#000000" transform="matrix(1.00, 0.00, -0.00, -1.00, 212.9, 7.0)">.</text><text xml:space="preserve" font-family="CourierNewPSMT" font-size="28.0" fill="#000000" transform="matrix(1.00, 0.00, -0.00, -1.00, 229.7, 7.0)">3</text><text xml:space="preserve" font-family="CourierNewPSMT" font-size="28.0" fill="#000000" transform="matrix(1.00, 0.00, -0.00, -1.00, 246.5, 7.0)">/</text><text xml:space="preserve" font-family="CourierNewPSMT" font-size="28.0" fill="#000000" transform="matrix(1.00, 0.00, -0.00, -1.00, 263.3, 7.0)">l</text><text xml:space="preserve" font-family="CourierNewPSMT" font-size="28.0" fill="#000000" transform="matrix(1.00, 0.00, -0.00, -1.00, 280.1, 7.0)">e</text><text xml:space="preserve" font-family="CourierNewPSMT" font-size="28.0" fill="#000000" transform="matrix(1.00, 0.00, -0.00, -1.00, 296.9, 7.0)">s</text><text xml:space="preserve" font-family="CourierNewPSMT" font-size="28.0" fill="#000000" transform="matrix(1.00, 0.00, -0.00, -1.00, 313.7, 7.0)">s</text><text xml:space="preserve" font-family="CourierNewPSMT" font-size="28.0" fill="#000000" transform="matrix(1.00, 0.00, -0.00, -1.00, 330.5, 7.0)">.</text><text xml:space="preserve" font-family="CourierNewPSMT" font-size="28.0" fill="#000000" transform="matrix(1.00, 0.00, -0.00, -1.00, 347.3, 7.0)">m</text><text xml:space="preserve" font-family="CourierNewPSMT" font-size="28.0" fill="#000000" transform="matrix(1.00, 0.00, -0.00, -1.00, 364.1, 7.0)">i</text><text xml:space="preserve" font-family="CourierNewPSMT" font-size="28.0" fill="#000000" transform="matrix(1.00, 0.00, -0.00, -1.00, 380.9, 7.0)">n</text><text xml:space="preserve" font-family="CourierNewPSMT" font-size="28.0" fill="#000000" transform="matrix(1.00, 0.00, -0.00, -1.00, 397.7, 7.0)">.</text><text xml:space="preserve" font-family="CourierNewPSMT" font-size="28.0" fill="#000000" transform="matrix(1.00, 0.00, -0.00, -1.00, 414.5, 7.0)">j</text><text xml:space="preserve" font-family="CourierNewPSMT" font-size="28.0" fill="#000000" transform="matrix(1.00, 0.00, -0.00, -1.00, 431.3, 7.0)">s</text><text xml:space="preserve" font-family="CourierNewPSMT" font-size="28.0" fill="#000000" transform="matrix(1.00, 0.00, -0.00, -1.00, 448.1, 7.0)">"</text><text xml:space="preserve" font-family="CourierNewPSMT" font-size="28.0" fill="#000000" transform="matrix(1.00, 0.00, -0.00, -1.00, 464.9, 7.0)">&gt;</text><text xml:space="preserve" font-family="CourierNewPSMT" font-size="28.0" fill="#000000" transform="matrix(1.00, 0.00, -0.00, -1.00, 481.7, 7.0)">&lt;</text><text xml:space="preserve" font-family="CourierNewPSMT" font-size="28.0" fill="#000000" transform="matrix(1.00, 0.00, -0.00, -1.00, 498.6, 7.0)">/</text><text xml:space="preserve" font-family="CourierNewPSMT" font-size="28.0" fill="#000000" transform="matrix(1.00, 0.00, -0.00, -1.00, 515.4, 7.0)">s</text><text xml:space="preserve" font-family="CourierNewPSMT" font-size="28.0" fill="#000000" transform="matrix(1.00, 0.00, -0.00, -1.00, 532.2, 7.0)">c</text><text xml:space="preserve" font-family="CourierNewPSMT" font-size="28.0" fill="#000000" transform="matrix(1.00, 0.00, -0.00, -1.00, 549.0, 7.0)">r</text><text xml:space="preserve" font-family="CourierNewPSMT" font-size="28.0" fill="#000000" transform="matrix(1.00, 0.00, -0.00, -1.00, 565.8, 7.0)">i</text><text xml:space="preserve" font-family="CourierNewPSMT" font-size="28.0" fill="#000000" transform="matrix(1.00, 0.00, -0.00, -1.00, 582.6, 7.0)">p</text><text xml:space="preserve" font-family="CourierNewPSMT" font-size="28.0" fill="#000000" transform="matrix(1.00, 0.00, -0.00, -1.00, 599.4, 7.0)">t</text><text xml:space="preserve" font-family="CourierNewPSMT" font-size="28.0" fill="#000000" transform="matrix(1.00, 0.00, -0.00, -1.00, 616.2, 7.0)">&gt;</text></g></svg>