<?xml version="1.0" encoding="UTF-8" standalone="no"?><svg xmlns="http://www.w3.org/2000/svg" xmlns:xlink="http://www.w3.org/1999/xlink" clip-rule="evenodd" stroke-miterlimit="4.00" viewBox="0 0 716 78"><desc>SVG generated by Keynote</desc><defs></defs><g transform="matrix(1.00, 0.00, -0.00, -1.00, 0.0, 78.0)"><text xml:space="preserve" font-family="AvenirNext-Regular" font-size="26.0" fill="#560705" transform="matrix(1.00, 0.00, -0.00, -1.00, 0.0, 51.2)">•</text><text xml:space="preserve" font-family="AvenirNext-Regular" font-size="26.0" fill="#560705" transform="matrix(1.00, 0.00, -0.00, -1.00, 43.0, 51.0)">J</text><text xml:space="preserve" font-family="AvenirNext-Regular" font-size="26.0" fill="#560705" transform="matrix(1.00, 0.00, -0.00, -1.00, 55.6, 51.0)">a</text><text xml:space="preserve" font-family="AvenirNext-Regular" font-size="26.0" fill="#560705" transform="matrix(1.00, 0.00, -0.00, -1.00, 69.5, 51.0)">v</text><text xml:space="preserve" font-family="AvenirNext-Regular" font-size="26.0" fill="#560705" transform="matrix(1.00, 0.00, -0.00, -1.00, 82.2, 51.0)">a</text><text xml:space="preserve" font-family="AvenirNext-Regular" font-size="26.0" fill="#560705" transform="matrix(1.00, 0.00, -0.00, -1.00, 96.1, 51.0)">S</text><text xml:space="preserve" font-family="AvenirNext-Regular" font-size="26.0" fill="#560705" transform="matrix(1.00, 0.00, -0.00, -1.00, 110.8, 51.0)">c</text><text xml:space="preserve" font-family="AvenirNext-Regular" font-size="26.0" fill="#560705" transform="matrix(1.00, 0.00, -0.00, -1.00, 123.8, 51.0)">r</text><text xml:space="preserve" font-family="AvenirNext-Regular" font-size="26.0" fill="#560705" transform="matrix(1.00, 0.00, -0.00, -1.00, 133.1, 51.0)">i</text><text xml:space="preserve" font-family="AvenirNext-Regular" font-size="26.0" fill="#560705" transform="matrix(1.00, 0.00, -0.00, -1.00, 139.6, 51.0)">p</text><text xml:space="preserve" font-family="AvenirNext-Regular" font-size="26.0" fill="#560705" transform="matrix(1.00, 0.00, -0.00, -1.00, 156.1, 51.0)">t</text><text xml:space="preserve" font-family="LucidaGrande" font-size="26.0" fill="#560705" transform="matrix(1.00, 0.00, -0.00, -1.00, 164.4, 51.0)"> </text><text xml:space="preserve" font-family="AvenirNext-Regular" font-size="26.0" fill="#560705" transform="matrix(1.00, 0.00, -0.00, -1.00, 43.0, 8.0)">-</text><text xml:space="preserve" font-family="AvenirNext-Regular" font-size="26.0" fill="#560705" transform="matrix(1.00, 0.00, -0.00, -1.00, 51.3, 8.0)"> </text><text xml:space="preserve" font-family="AvenirNext-Regular" font-size="26.0" fill="#560705" transform="matrix(1.00, 0.00, -0.00, -1.00, 57.8, 8.0)">П</text><text xml:space="preserve" font-family="AvenirNext-Regular" font-size="26.0" fill="#560705" transform="matrix(1.00, 0.00, -0.00, -1.00, 76.0, 8.0)">о</text><text xml:space="preserve" font-family="AvenirNext-Regular" font-size="26.0" fill="#560705" transform="matrix(1.00, 0.00, -0.00, -1.00, 91.9, 8.0)">в</text><text xml:space="preserve" font-family="AvenirNext-Regular" font-size="26.0" fill="#560705" transform="matrix(1.00, 0.00, -0.00, -1.00, 105.9, 8.0)">е</text><text xml:space="preserve" font-family="AvenirNext-Regular" font-size="26.0" fill="#560705" transform="matrix(1.00, 0.00, -0.00, -1.00, 120.8, 8.0)">д</text><text xml:space="preserve" font-family="AvenirNext-Regular" font-size="26.0" fill="#560705" transform="matrix(1.00, 0.00, -0.00, -1.00, 134.9, 8.0)">е</text><text xml:space="preserve" font-family="AvenirNext-Regular" font-size="26.0" fill="#560705" transform="matrix(1.00, 0.00, -0.00, -1.00, 149.8, 8.0)">н</text><text xml:space="preserve" font-family="AvenirNext-Regular" font-size="26.0" fill="#560705" transform="matrix(1.00, 0.00, -0.00, -1.00, 164.8, 8.0)">и</text><text xml:space="preserve" font-family="AvenirNext-Regular" font-size="26.0" fill="#560705" transform="matrix(1.00, 0.00, -0.00, -1.00, 180.3, 8.0)">е</text><text xml:space="preserve" font-family="AvenirNext-Regular" font-size="26.0" fill="#560705" transform="matrix(1.00, 0.00, -0.00, -1.00, 195.2, 8.0)">т</text><text xml:space="preserve" font-family="AvenirNext-Regular" font-size="26.0" fill="#560705" transform="matrix(1.00, 0.00, -0.00, -1.00, 206.4, 8.0)">о</text><text xml:space="preserve" font-family="AvenirNext-Regular" font-size="26.0" fill="#560705" transform="matrix(1.00, 0.00, -0.00, -1.00, 222.3, 8.0)"> </text><text xml:space="preserve" font-family="AvenirNext-Regular" font-size="26.0" fill="#560705" transform="matrix(1.00, 0.00, -0.00, -1.00, 228.8, 8.0)">н</text><text xml:space="preserve" font-family="AvenirNext-Regular" font-size="26.0" fill="#560705" transform="matrix(1.00, 0.00, -0.00, -1.00, 243.7, 8.0)">а</text><text xml:space="preserve" font-family="AvenirNext-Regular" font-size="26.0" fill="#560705" transform="matrix(1.00, 0.00, -0.00, -1.00, 257.6, 8.0)"> </text><text xml:space="preserve" font-family="AvenirNext-Regular" font-size="26.0" fill="#560705" transform="matrix(1.00, 0.00, -0.00, -1.00, 264.1, 8.0)">е</text><text xml:space="preserve" font-family="AvenirNext-Regular" font-size="26.0" fill="#560705" transform="matrix(1.00, 0.00, -0.00, -1.00, 279.0, 8.0)">д</text><text xml:space="preserve" font-family="AvenirNext-Regular" font-size="26.0" fill="#560705" transform="matrix(1.00, 0.00, -0.00, -1.00, 293.1, 8.0)">н</text><text xml:space="preserve" font-family="AvenirNext-Regular" font-size="26.0" fill="#560705" transform="matrix(1.00, 0.00, -0.00, -1.00, 308.1, 8.0)">а</text><text xml:space="preserve" font-family="AvenirNext-Regular" font-size="26.0" fill="#560705" transform="matrix(1.00, 0.00, -0.00, -1.00, 322.0, 8.0)"> </text><text xml:space="preserve" font-family="AvenirNext-Regular" font-size="26.0" fill="#560705" transform="matrix(1.00, 0.00, -0.00, -1.00, 328.5, 8.0)">у</text><text xml:space="preserve" font-family="AvenirNext-Regular" font-size="26.0" fill="#560705" transform="matrix(1.00, 0.00, -0.00, -1.00, 341.2, 8.0)">е</text><text xml:space="preserve" font-family="AvenirNext-Regular" font-size="26.0" fill="#560705" transform="matrix(1.00, 0.00, -0.00, -1.00, 356.0, 8.0)">б</text><text xml:space="preserve" font-family="AvenirNext-Regular" font-size="26.0" fill="#560705" transform="matrix(1.00, 0.00, -0.00, -1.00, 371.6, 8.0)"> </text><text xml:space="preserve" font-family="AvenirNext-Regular" font-size="26.0" fill="#560705" transform="matrix(1.00, 0.00, -0.00, -1.00, 378.1, 8.0)">с</text><text xml:space="preserve" font-family="AvenirNext-Regular" font-size="26.0" fill="#560705" transform="matrix(1.00, 0.00, -0.00, -1.00, 391.1, 8.0)">т</text><text xml:space="preserve" font-family="AvenirNext-Regular" font-size="26.0" fill="#560705" transform="matrix(1.00, 0.00, -0.00, -1.00, 402.3, 8.0)">р</text><text xml:space="preserve" font-family="AvenirNext-Regular" font-size="26.0" fill="#560705" transform="matrix(1.00, 0.00, -0.00, -1.00, 418.8, 8.0)">а</text><text xml:space="preserve" font-family="AvenirNext-Regular" font-size="26.0" fill="#560705" transform="matrix(1.00, 0.00, -0.00, -1.00, 432.7, 8.0)">н</text><text xml:space="preserve" font-family="AvenirNext-Regular" font-size="26.0" fill="#560705" transform="matrix(1.00, 0.00, -0.00, -1.00, 447.7, 8.0)">и</text><text xml:space="preserve" font-family="AvenirNext-Regular" font-size="26.0" fill="#560705" transform="matrix(1.00, 0.00, -0.00, -1.00, 463.2, 8.0)">ц</text><text xml:space="preserve" font-family="AvenirNext-Regular" font-size="26.0" fill="#560705" transform="matrix(1.00, 0.00, -0.00, -1.00, 478.1, 8.0)">а</text><text xml:space="preserve" font-family="AvenirNext-Regular" font-size="26.0" fill="#560705" transform="matrix(1.00, 0.00, -0.00, -1.00, 492.0, 8.0)"> </text><text xml:space="preserve" font-family="AvenirNext-Regular" font-size="26.0" fill="#560705" transform="matrix(1.00, 0.00, -0.00, -1.00, 498.5, 8.0)">(</text><text xml:space="preserve" font-family="AvenirNext-Regular" font-size="26.0" fill="#560705" transform="matrix(1.00, 0.00, -0.00, -1.00, 506.3, 8.0)">ф</text><text xml:space="preserve" font-family="AvenirNext-Regular" font-size="26.0" fill="#560705" transform="matrix(1.00, 0.00, -0.00, -1.00, 523.6, 8.0)">у</text><text xml:space="preserve" font-family="AvenirNext-Regular" font-size="26.0" fill="#560705" transform="matrix(1.00, 0.00, -0.00, -1.00, 536.3, 8.0)">н</text><text xml:space="preserve" font-family="AvenirNext-Regular" font-size="26.0" fill="#560705" transform="matrix(1.00, 0.00, -0.00, -1.00, 551.2, 8.0)">к</text><text xml:space="preserve" font-family="AvenirNext-Regular" font-size="26.0" fill="#560705" transform="matrix(1.00, 0.00, -0.00, -1.00, 565.4, 8.0)">ц</text><text xml:space="preserve" font-family="AvenirNext-Regular" font-size="26.0" fill="#560705" transform="matrix(1.00, 0.00, -0.00, -1.00, 580.2, 8.0)">и</text><text xml:space="preserve" font-family="AvenirNext-Regular" font-size="26.0" fill="#560705" transform="matrix(1.00, 0.00, -0.00, -1.00, 595.8, 8.0)">о</text><text xml:space="preserve" font-family="AvenirNext-Regular" font-size="26.0" fill="#560705" transform="matrix(1.00, 0.00, -0.00, -1.00, 611.7, 8.0)">н</text><text xml:space="preserve" font-family="AvenirNext-Regular" font-size="26.0" fill="#560705" transform="matrix(1.00, 0.00, -0.00, -1.00, 626.6, 8.0)">а</text><text xml:space="preserve" font-family="AvenirNext-Regular" font-size="26.0" fill="#560705" transform="matrix(1.00, 0.00, -0.00, -1.00, 640.5, 8.0)">л</text><text xml:space="preserve" font-family="AvenirNext-Regular" font-size="26.0" fill="#560705" transform="matrix(1.00, 0.00, -0.00, -1.00, 653.4, 8.0)">н</text><text xml:space="preserve" font-family="AvenirNext-Regular" font-size="26.0" fill="#560705" transform="matrix(1.00, 0.00, -0.00, -1.00, 668.4, 8.0)">о</text><text xml:space="preserve" font-family="AvenirNext-Regular" font-size="26.0" fill="#560705" transform="matrix(1.00, 0.00, -0.00, -1.00, 684.3, 8.0)">с</text><text xml:space="preserve" font-family="AvenirNext-Regular" font-size="26.0" fill="#560705" transform="matrix(1.00, 0.00, -0.00, -1.00, 697.3, 8.0)">т</text><text xml:space="preserve" font-family="AvenirNext-Regular" font-size="26.0" fill="#560705" transform="matrix(1.00, 0.00, -0.00, -1.00, 708.5, 8.0)">)</text></g></svg>