<?xml version="1.0" encoding="UTF-8" standalone="no"?><svg xmlns="http://www.w3.org/2000/svg" xmlns:xlink="http://www.w3.org/1999/xlink" clip-rule="evenodd" stroke-miterlimit="4.00" viewBox="0 0 827 165"><desc>SVG generated by Keynote</desc><defs></defs><g transform="matrix(1.00, 0.00, -0.00, -1.00, 0.0, 165.0)"><text xml:space="preserve" font-family="AvenirNext-Regular" font-size="26.0" fill="#560705" transform="matrix(1.00, 0.00, -0.00, -1.00, 0.0, 138.1)">•</text><text xml:space="preserve" font-family="AvenirNext-Regular" font-size="26.0" fill="#560705" transform="matrix(1.00, 0.00, -0.00, -1.00, 43.0, 138.0)">C</text><text xml:space="preserve" font-family="AvenirNext-Regular" font-size="26.0" fill="#560705" transform="matrix(1.00, 0.00, -0.00, -1.00, 61.7, 138.0)">S</text><text xml:space="preserve" font-family="AvenirNext-Regular" font-size="26.0" fill="#560705" transform="matrix(1.00, 0.00, -0.00, -1.00, 76.4, 138.0)">S</text><text xml:space="preserve" font-family="LucidaGrande" font-size="26.0" fill="#560705" transform="matrix(1.00, 0.00, -0.00, -1.00, 91.0, 138.0)"> </text><text xml:space="preserve" font-family="AvenirNext-Regular" font-size="26.0" fill="#560705" transform="matrix(1.00, 0.00, -0.00, -1.00, 43.0, 95.0)">-</text><text xml:space="preserve" font-family="AvenirNext-Regular" font-size="26.0" fill="#560705" transform="matrix(1.00, 0.00, -0.00, -1.00, 51.3, 95.0)"> </text><text xml:space="preserve" font-family="AvenirNext-Regular" font-size="26.0" fill="#560705" transform="matrix(1.00, 0.00, -0.00, -1.00, 57.8, 95.0)">С</text><text xml:space="preserve" font-family="AvenirNext-Regular" font-size="26.0" fill="#560705" transform="matrix(1.00, 0.00, -0.00, -1.00, 76.5, 95.0)">т</text><text xml:space="preserve" font-family="AvenirNext-Regular" font-size="26.0" fill="#560705" transform="matrix(1.00, 0.00, -0.00, -1.00, 87.7, 95.0)">и</text><text xml:space="preserve" font-family="AvenirNext-Regular" font-size="26.0" fill="#560705" transform="matrix(1.00, 0.00, -0.00, -1.00, 103.3, 95.0)">л</text><text xml:space="preserve" font-family="AvenirNext-Regular" font-size="26.0" fill="#560705" transform="matrix(1.00, 0.00, -0.00, -1.00, 116.2, 95.0)">о</text><text xml:space="preserve" font-family="AvenirNext-Regular" font-size="26.0" fill="#560705" transform="matrix(1.00, 0.00, -0.00, -1.00, 132.1, 95.0)">в</text><text xml:space="preserve" font-family="AvenirNext-Regular" font-size="26.0" fill="#560705" transform="matrix(1.00, 0.00, -0.00, -1.00, 146.2, 95.0)">е</text><text xml:space="preserve" font-family="AvenirNext-Regular" font-size="26.0" fill="#560705" transform="matrix(1.00, 0.00, -0.00, -1.00, 161.1, 95.0)"> </text><text xml:space="preserve" font-family="AvenirNext-Regular" font-size="26.0" fill="#560705" transform="matrix(1.00, 0.00, -0.00, -1.00, 167.6, 95.0)">н</text><text xml:space="preserve" font-family="AvenirNext-Regular" font-size="26.0" fill="#560705" transform="matrix(1.00, 0.00, -0.00, -1.00, 182.5, 95.0)">а</text><text xml:space="preserve" font-family="AvenirNext-Regular" font-size="26.0" fill="#560705" transform="matrix(1.00, 0.00, -0.00, -1.00, 196.4, 95.0)"> </text><text xml:space="preserve" font-family="AvenirNext-Regular" font-size="26.0" fill="#560705" transform="matrix(1.00, 0.00, -0.00, -1.00, 202.9, 95.0)">е</text><text xml:space="preserve" font-family="AvenirNext-Regular" font-size="26.0" fill="#560705" transform="matrix(1.00, 0.00, -0.00, -1.00, 217.8, 95.0)">д</text><text xml:space="preserve" font-family="AvenirNext-Regular" font-size="26.0" fill="#560705" transform="matrix(1.00, 0.00, -0.00, -1.00, 231.9, 95.0)">н</text><text xml:space="preserve" font-family="AvenirNext-Regular" font-size="26.0" fill="#560705" transform="matrix(1.00, 0.00, -0.00, -1.00, 246.9, 95.0)">а</text><text xml:space="preserve" font-family="AvenirNext-Regular" font-size="26.0" fill="#560705" transform="matrix(1.00, 0.00, -0.00, -1.00, 260.8, 95.0)"> </text><text xml:space="preserve" font-family="AvenirNext-Regular" font-size="26.0" fill="#560705" transform="matrix(1.00, 0.00, -0.00, -1.00, 267.2, 95.0)">с</text><text xml:space="preserve" font-family="AvenirNext-Regular" font-size="26.0" fill="#560705" transform="matrix(1.00, 0.00, -0.00, -1.00, 280.2, 95.0)">т</text><text xml:space="preserve" font-family="AvenirNext-Regular" font-size="26.0" fill="#560705" transform="matrix(1.00, 0.00, -0.00, -1.00, 291.5, 95.0)">р</text><text xml:space="preserve" font-family="AvenirNext-Regular" font-size="26.0" fill="#560705" transform="matrix(1.00, 0.00, -0.00, -1.00, 308.0, 95.0)">а</text><text xml:space="preserve" font-family="AvenirNext-Regular" font-size="26.0" fill="#560705" transform="matrix(1.00, 0.00, -0.00, -1.00, 321.8, 95.0)">н</text><text xml:space="preserve" font-family="AvenirNext-Regular" font-size="26.0" fill="#560705" transform="matrix(1.00, 0.00, -0.00, -1.00, 336.8, 95.0)">и</text><text xml:space="preserve" font-family="AvenirNext-Regular" font-size="26.0" fill="#560705" transform="matrix(1.00, 0.00, -0.00, -1.00, 352.4, 95.0)">ц</text><text xml:space="preserve" font-family="AvenirNext-Regular" font-size="26.0" fill="#560705" transform="matrix(1.00, 0.00, -0.00, -1.00, 367.2, 95.0)">а</text><text xml:space="preserve" font-family="LucidaGrande" font-size="26.0" fill="#560705" transform="matrix(1.00, 0.00, -0.00, -1.00, 381.1, 95.0)"> </text><text xml:space="preserve" font-family="AvenirNext-Regular" font-size="26.0" fill="#560705" transform="matrix(1.00, 0.00, -0.00, -1.00, 43.0, 52.0)">-</text><text xml:space="preserve" font-family="AvenirNext-Regular" font-size="26.0" fill="#560705" transform="matrix(1.00, 0.00, -0.00, -1.00, 51.3, 52.0)"> </text><text xml:space="preserve" font-family="AvenirNext-Regular" font-size="26.0" fill="#560705" transform="matrix(1.00, 0.00, -0.00, -1.00, 57.8, 52.0)">П</text><text xml:space="preserve" font-family="AvenirNext-Regular" font-size="26.0" fill="#560705" transform="matrix(1.00, 0.00, -0.00, -1.00, 76.0, 52.0)">о</text><text xml:space="preserve" font-family="AvenirNext-Regular" font-size="26.0" fill="#560705" transform="matrix(1.00, 0.00, -0.00, -1.00, 91.9, 52.0)">д</text><text xml:space="preserve" font-family="AvenirNext-Regular" font-size="26.0" fill="#560705" transform="matrix(1.00, 0.00, -0.00, -1.00, 106.0, 52.0)">п</text><text xml:space="preserve" font-family="AvenirNext-Regular" font-size="26.0" fill="#560705" transform="matrix(1.00, 0.00, -0.00, -1.00, 120.7, 52.0)">о</text><text xml:space="preserve" font-family="AvenirNext-Regular" font-size="26.0" fill="#560705" transform="matrix(1.00, 0.00, -0.00, -1.00, 136.6, 52.0)">м</text><text xml:space="preserve" font-family="AvenirNext-Regular" font-size="26.0" fill="#560705" transform="matrix(1.00, 0.00, -0.00, -1.00, 154.7, 52.0)">а</text><text xml:space="preserve" font-family="AvenirNext-Regular" font-size="26.0" fill="#560705" transform="matrix(1.00, 0.00, -0.00, -1.00, 168.6, 52.0)">г</text><text xml:space="preserve" font-family="AvenirNext-Regular" font-size="26.0" fill="#560705" transform="matrix(1.00, 0.00, -0.00, -1.00, 178.7, 52.0)">а</text><text xml:space="preserve" font-family="AvenirNext-Regular" font-size="26.0" fill="#560705" transform="matrix(1.00, 0.00, -0.00, -1.00, 192.6, 52.0)"> </text><text xml:space="preserve" font-family="AvenirNext-Regular" font-size="26.0" fill="#560705" transform="matrix(1.00, 0.00, -0.00, -1.00, 199.1, 52.0)">H</text><text xml:space="preserve" font-family="AvenirNext-Regular" font-size="26.0" fill="#560705" transform="matrix(1.00, 0.00, -0.00, -1.00, 217.7, 52.0)">T</text><text xml:space="preserve" font-family="AvenirNext-Regular" font-size="26.0" fill="#560705" transform="matrix(1.00, 0.00, -0.00, -1.00, 232.5, 52.0)">M</text><text xml:space="preserve" font-family="AvenirNext-Regular" font-size="26.0" fill="#560705" transform="matrix(1.00, 0.00, -0.00, -1.00, 255.6, 52.0)">L</text><text xml:space="preserve" font-family="AvenirNext-Regular" font-size="26.0" fill="#560705" transform="matrix(1.00, 0.00, -0.00, -1.00, 268.2, 52.0)"> </text><text xml:space="preserve" font-family="AvenirNext-Regular" font-size="26.0" fill="#560705" transform="matrix(1.00, 0.00, -0.00, -1.00, 274.7, 52.0)">з</text><text xml:space="preserve" font-family="AvenirNext-Regular" font-size="26.0" fill="#560705" transform="matrix(1.00, 0.00, -0.00, -1.00, 286.8, 52.0)">а</text><text xml:space="preserve" font-family="AvenirNext-Regular" font-size="26.0" fill="#560705" transform="matrix(1.00, 0.00, -0.00, -1.00, 300.6, 52.0)"> </text><text xml:space="preserve" font-family="AvenirNext-Regular" font-size="26.0" fill="#560705" transform="matrix(1.00, 0.00, -0.00, -1.00, 307.1, 52.0)">и</text><text xml:space="preserve" font-family="AvenirNext-Regular" font-size="26.0" fill="#560705" transform="matrix(1.00, 0.00, -0.00, -1.00, 322.7, 52.0)">з</text><text xml:space="preserve" font-family="AvenirNext-Regular" font-size="26.0" fill="#560705" transform="matrix(1.00, 0.00, -0.00, -1.00, 334.7, 52.0)">г</text><text xml:space="preserve" font-family="AvenirNext-Regular" font-size="26.0" fill="#560705" transform="matrix(1.00, 0.00, -0.00, -1.00, 344.8, 52.0)">р</text><text xml:space="preserve" font-family="AvenirNext-Regular" font-size="26.0" fill="#560705" transform="matrix(1.00, 0.00, -0.00, -1.00, 361.3, 52.0)">а</text><text xml:space="preserve" font-family="AvenirNext-Regular" font-size="26.0" fill="#560705" transform="matrix(1.00, 0.00, -0.00, -1.00, 375.2, 52.0)">ж</text><text xml:space="preserve" font-family="AvenirNext-Regular" font-size="26.0" fill="#560705" transform="matrix(1.00, 0.00, -0.00, -1.00, 396.4, 52.0)">д</text><text xml:space="preserve" font-family="AvenirNext-Regular" font-size="26.0" fill="#560705" transform="matrix(1.00, 0.00, -0.00, -1.00, 410.6, 52.0)">а</text><text xml:space="preserve" font-family="AvenirNext-Regular" font-size="26.0" fill="#560705" transform="matrix(1.00, 0.00, -0.00, -1.00, 424.5, 52.0)">н</text><text xml:space="preserve" font-family="AvenirNext-Regular" font-size="26.0" fill="#560705" transform="matrix(1.00, 0.00, -0.00, -1.00, 439.4, 52.0)">е</text><text xml:space="preserve" font-family="AvenirNext-Regular" font-size="26.0" fill="#560705" transform="matrix(1.00, 0.00, -0.00, -1.00, 454.3, 52.0)"> </text><text xml:space="preserve" font-family="AvenirNext-Regular" font-size="26.0" fill="#560705" transform="matrix(1.00, 0.00, -0.00, -1.00, 460.8, 52.0)">н</text><text xml:space="preserve" font-family="AvenirNext-Regular" font-size="26.0" fill="#560705" transform="matrix(1.00, 0.00, -0.00, -1.00, 475.7, 52.0)">а</text><text xml:space="preserve" font-family="AvenirNext-Regular" font-size="26.0" fill="#560705" transform="matrix(1.00, 0.00, -0.00, -1.00, 489.6, 52.0)"> </text><text xml:space="preserve" font-family="AvenirNext-Regular" font-size="26.0" fill="#560705" transform="matrix(1.00, 0.00, -0.00, -1.00, 496.1, 52.0)">в</text><text xml:space="preserve" font-family="AvenirNext-Regular" font-size="26.0" fill="#560705" transform="matrix(1.00, 0.00, -0.00, -1.00, 510.2, 52.0)">и</text><text xml:space="preserve" font-family="AvenirNext-Regular" font-size="26.0" fill="#560705" transform="matrix(1.00, 0.00, -0.00, -1.00, 525.8, 52.0)">з</text><text xml:space="preserve" font-family="AvenirNext-Regular" font-size="26.0" fill="#560705" transform="matrix(1.00, 0.00, -0.00, -1.00, 537.8, 52.0)">и</text><text xml:space="preserve" font-family="AvenirNext-Regular" font-size="26.0" fill="#560705" transform="matrix(1.00, 0.00, -0.00, -1.00, 553.4, 52.0)">я</text><text xml:space="preserve" font-family="AvenirNext-Regular" font-size="26.0" fill="#560705" transform="matrix(1.00, 0.00, -0.00, -1.00, 567.4, 52.0)">т</text><text xml:space="preserve" font-family="AvenirNext-Regular" font-size="26.0" fill="#560705" transform="matrix(1.00, 0.00, -0.00, -1.00, 578.6, 52.0)">а</text><text xml:space="preserve" font-family="AvenirNext-Regular" font-size="26.0" fill="#560705" transform="matrix(1.00, 0.00, -0.00, -1.00, 592.5, 52.0)"> </text><text xml:space="preserve" font-family="AvenirNext-Regular" font-size="26.0" fill="#560705" transform="matrix(1.00, 0.00, -0.00, -1.00, 599.0, 52.0)">н</text><text xml:space="preserve" font-family="AvenirNext-Regular" font-size="26.0" fill="#560705" transform="matrix(1.00, 0.00, -0.00, -1.00, 613.9, 52.0)">а</text><text xml:space="preserve" font-family="AvenirNext-Regular" font-size="26.0" fill="#560705" transform="matrix(1.00, 0.00, -0.00, -1.00, 627.8, 52.0)"> </text><text xml:space="preserve" font-family="AvenirNext-Regular" font-size="26.0" fill="#560705" transform="matrix(1.00, 0.00, -0.00, -1.00, 634.3, 52.0)">с</text><text xml:space="preserve" font-family="AvenirNext-Regular" font-size="26.0" fill="#560705" transform="matrix(1.00, 0.00, -0.00, -1.00, 647.3, 52.0)">т</text><text xml:space="preserve" font-family="AvenirNext-Regular" font-size="26.0" fill="#560705" transform="matrix(1.00, 0.00, -0.00, -1.00, 658.5, 52.0)">р</text><text xml:space="preserve" font-family="AvenirNext-Regular" font-size="26.0" fill="#560705" transform="matrix(1.00, 0.00, -0.00, -1.00, 675.0, 52.0)">а</text><text xml:space="preserve" font-family="AvenirNext-Regular" font-size="26.0" fill="#560705" transform="matrix(1.00, 0.00, -0.00, -1.00, 688.9, 52.0)">н</text><text xml:space="preserve" font-family="AvenirNext-Regular" font-size="26.0" fill="#560705" transform="matrix(1.00, 0.00, -0.00, -1.00, 703.9, 52.0)">и</text><text xml:space="preserve" font-family="AvenirNext-Regular" font-size="26.0" fill="#560705" transform="matrix(1.00, 0.00, -0.00, -1.00, 719.4, 52.0)">ц</text><text xml:space="preserve" font-family="AvenirNext-Regular" font-size="26.0" fill="#560705" transform="matrix(1.00, 0.00, -0.00, -1.00, 734.3, 52.0)">а</text><text xml:space="preserve" font-family="AvenirNext-Regular" font-size="26.0" fill="#560705" transform="matrix(1.00, 0.00, -0.00, -1.00, 748.2, 52.0)">т</text><text xml:space="preserve" font-family="AvenirNext-Regular" font-size="26.0" fill="#560705" transform="matrix(1.00, 0.00, -0.00, -1.00, 759.4, 52.0)">а</text><text xml:space="preserve" font-family="AvenirNext-Regular" font-size="26.0" fill="#560705" transform="matrix(1.00, 0.00, -0.00, -1.00, 773.3, 52.0)"> </text><text xml:space="preserve" font-family="AvenirNext-Regular" font-size="26.0" fill="#560705" transform="matrix(1.00, 0.00, -0.00, -1.00, 779.8, 52.0)">(</text><text xml:space="preserve" font-family="AvenirNext-Regular" font-size="26.0" fill="#560705" transform="matrix(1.00, 0.00, -0.00, -1.00, 787.6, 52.0)">т</text><text xml:space="preserve" font-family="AvenirNext-Regular" font-size="26.0" fill="#560705" transform="matrix(1.00, 0.00, -0.00, -1.00, 798.8, 52.0)">.</text><text xml:space="preserve" font-family="AvenirNext-Regular" font-size="26.0" fill="#560705" transform="matrix(1.00, 0.00, -0.00, -1.00, 805.5, 52.0)">е</text><text xml:space="preserve" font-family="AvenirNext-Regular" font-size="26.0" fill="#560705" transform="matrix(1.00, 0.00, -0.00, -1.00, 820.4, 52.0)">.</text><text xml:space="preserve" font-family="AvenirNext-Regular" font-size="26.0" fill="#560705" transform="matrix(1.00, 0.00, -0.00, -1.00, 826.4, 52.0)"> </text><text xml:space="preserve" font-family="AvenirNext-Regular" font-size="26.0" fill="#560705" transform="matrix(1.00, 0.00, -0.00, -1.00, 43.0, 9.0)">у</text><text xml:space="preserve" font-family="AvenirNext-Regular" font-size="26.0" fill="#560705" transform="matrix(1.00, 0.00, -0.00, -1.00, 55.7, 9.0)">к</text><text xml:space="preserve" font-family="AvenirNext-Regular" font-size="26.0" fill="#560705" transform="matrix(1.00, 0.00, -0.00, -1.00, 69.8, 9.0)">р</text><text xml:space="preserve" font-family="AvenirNext-Regular" font-size="26.0" fill="#560705" transform="matrix(1.00, 0.00, -0.00, -1.00, 86.3, 9.0)">а</text><text xml:space="preserve" font-family="AvenirNext-Regular" font-size="26.0" fill="#560705" transform="matrix(1.00, 0.00, -0.00, -1.00, 100.2, 9.0)">с</text><text xml:space="preserve" font-family="AvenirNext-Regular" font-size="26.0" fill="#560705" transform="matrix(1.00, 0.00, -0.00, -1.00, 113.2, 9.0)">я</text><text xml:space="preserve" font-family="AvenirNext-Regular" font-size="26.0" fill="#560705" transform="matrix(1.00, 0.00, -0.00, -1.00, 127.2, 9.0)">в</text><text xml:space="preserve" font-family="AvenirNext-Regular" font-size="26.0" fill="#560705" transform="matrix(1.00, 0.00, -0.00, -1.00, 141.3, 9.0)">а</text><text xml:space="preserve" font-family="AvenirNext-Regular" font-size="26.0" fill="#560705" transform="matrix(1.00, 0.00, -0.00, -1.00, 155.2, 9.0)">н</text><text xml:space="preserve" font-family="AvenirNext-Regular" font-size="26.0" fill="#560705" transform="matrix(1.00, 0.00, -0.00, -1.00, 170.1, 9.0)">е</text><text xml:space="preserve" font-family="AvenirNext-Regular" font-size="26.0" fill="#560705" transform="matrix(1.00, 0.00, -0.00, -1.00, 185.0, 9.0)">)</text></g></svg>