<?xml version="1.0" encoding="UTF-8" standalone="no"?><svg xmlns="http://www.w3.org/2000/svg" xmlns:xlink="http://www.w3.org/1999/xlink" clip-rule="evenodd" stroke-miterlimit="4.00" viewBox="0 0 567 47"><desc>SVG generated by Keynote</desc><defs></defs><g transform="matrix(1.00, 0.00, -0.00, -1.00, 0.0, 47.0)"><text xml:space="preserve" font-family="AvenirNext-Regular" font-size="44.0" fill="#000000" transform="matrix(1.00, 0.00, -0.00, -1.00, -3.0, 12.0)">И</text><text xml:space="preserve" font-family="AvenirNext-Regular" font-size="44.0" fill="#000000" transform="matrix(1.00, 0.00, -0.00, -1.00, 30.6, 12.0)">н</text><text xml:space="preserve" font-family="AvenirNext-Regular" font-size="44.0" fill="#000000" transform="matrix(1.00, 0.00, -0.00, -1.00, 55.9, 12.0)">с</text><text xml:space="preserve" font-family="AvenirNext-Regular" font-size="44.0" fill="#000000" transform="matrix(1.00, 0.00, -0.00, -1.00, 77.9, 12.0)">т</text><text xml:space="preserve" font-family="AvenirNext-Regular" font-size="44.0" fill="#000000" transform="matrix(1.00, 0.00, -0.00, -1.00, 96.9, 12.0)">р</text><text xml:space="preserve" font-family="AvenirNext-Regular" font-size="44.0" fill="#000000" transform="matrix(1.00, 0.00, -0.00, -1.00, 124.8, 12.0)">у</text><text xml:space="preserve" font-family="AvenirNext-Regular" font-size="44.0" fill="#000000" transform="matrix(1.00, 0.00, -0.00, -1.00, 146.3, 12.0)">м</text><text xml:space="preserve" font-family="AvenirNext-Regular" font-size="44.0" fill="#000000" transform="matrix(1.00, 0.00, -0.00, -1.00, 176.9, 12.0)">е</text><text xml:space="preserve" font-family="AvenirNext-Regular" font-size="44.0" fill="#000000" transform="matrix(1.00, 0.00, -0.00, -1.00, 202.0, 12.0)">н</text><text xml:space="preserve" font-family="AvenirNext-Regular" font-size="44.0" fill="#000000" transform="matrix(1.00, 0.00, -0.00, -1.00, 227.3, 12.0)">т</text><text xml:space="preserve" font-family="AvenirNext-Regular" font-size="44.0" fill="#000000" transform="matrix(1.00, 0.00, -0.00, -1.00, 246.3, 12.0)">и</text><text xml:space="preserve" font-family="AvenirNext-Regular" font-size="44.0" fill="#000000" transform="matrix(1.00, 0.00, -0.00, -1.00, 272.7, 12.0)"> </text><text xml:space="preserve" font-family="AvenirNext-Regular" font-size="44.0" fill="#000000" transform="matrix(1.00, 0.00, -0.00, -1.00, 283.7, 12.0)">н</text><text xml:space="preserve" font-family="AvenirNext-Regular" font-size="44.0" fill="#000000" transform="matrix(1.00, 0.00, -0.00, -1.00, 309.0, 12.0)">а</text><text xml:space="preserve" font-family="AvenirNext-Regular" font-size="44.0" fill="#000000" transform="matrix(1.00, 0.00, -0.00, -1.00, 332.5, 12.0)"> </text><text xml:space="preserve" font-family="AvenirNext-Regular" font-size="44.0" fill="#000000" transform="matrix(1.00, 0.00, -0.00, -1.00, 343.5, 12.0)">f</text><text xml:space="preserve" font-family="AvenirNext-Regular" font-size="44.0" fill="#000000" transform="matrix(1.00, 0.00, -0.00, -1.00, 356.4, 12.0)">r</text><text xml:space="preserve" font-family="AvenirNext-Regular" font-size="44.0" fill="#000000" transform="matrix(1.00, 0.00, -0.00, -1.00, 371.5, 12.0)">o</text><text xml:space="preserve" font-family="AvenirNext-Regular" font-size="44.0" fill="#000000" transform="matrix(1.00, 0.00, -0.00, -1.00, 398.4, 12.0)">n</text><text xml:space="preserve" font-family="AvenirNext-Regular" font-size="44.0" fill="#000000" transform="matrix(1.00, 0.00, -0.00, -1.00, 423.9, 12.0)">t</text><text xml:space="preserve" font-family="AvenirNext-Regular" font-size="44.0" fill="#000000" transform="matrix(1.00, 0.00, -0.00, -1.00, 437.9, 12.0)">-</text><text xml:space="preserve" font-family="AvenirNext-Regular" font-size="44.0" fill="#000000" transform="matrix(1.00, 0.00, -0.00, -1.00, 452.0, 12.0)">e</text><text xml:space="preserve" font-family="AvenirNext-Regular" font-size="44.0" fill="#000000" transform="matrix(1.00, 0.00, -0.00, -1.00, 477.1, 12.0)">n</text><text xml:space="preserve" font-family="AvenirNext-Regular" font-size="44.0" fill="#000000" transform="matrix(1.00, 0.00, -0.00, -1.00, 502.7, 12.0)">d</text><text xml:space="preserve" font-family="AvenirNext-Regular" font-size="44.0" fill="#000000" transform="matrix(1.00, 0.00, -0.00, -1.00, 530.7, 12.0)">-</text><text xml:space="preserve" font-family="AvenirNext-Regular" font-size="44.0" fill="#000000" transform="matrix(1.00, 0.00, -0.00, -1.00, 544.8, 12.0)">a</text></g></svg>