<?xml version="1.0" encoding="UTF-8" standalone="no"?><svg xmlns="http://www.w3.org/2000/svg" xmlns:xlink="http://www.w3.org/1999/xlink" clip-rule="evenodd" stroke-miterlimit="4.00" viewBox="0 0 1024 768"><desc>SVG generated by Keynote</desc><defs></defs><g transform="matrix(1.00, 0.00, -0.00, -1.00, 0.0, 768.0)"><g><clipPath id="clip-401"><path d="M 0.0 768.0 L 1024.0 768.0 L 1024.0 0.0 L 0.0 0.0 Z M 0.0 768.0 "></path></clipPath><g clip-path="url(#clip-401)"><image xlink:href="../../F3A67573-A2F2-4CB0-9E39-F1DCDA2903A2/assets/AC39DDDA7F4B68AA81B60DCA4AD5F611.png" width="864.00" height="540.00" transform="matrix(1.19, 0.00, -0.00, -1.42, 0.0, 768.0)"></image></g></g><text xml:space="preserve" font-family="AvenirNext-Regular" font-size="44.0" fill="#000000" transform="matrix(1.00, 0.00, -0.00, -1.00, 226.0, 634.0)">И</text><text xml:space="preserve" font-family="AvenirNext-Regular" font-size="44.0" fill="#000000" transform="matrix(1.00, 0.00, -0.00, -1.00, 259.6, 634.0)">н</text><text xml:space="preserve" font-family="AvenirNext-Regular" font-size="44.0" fill="#000000" transform="matrix(1.00, 0.00, -0.00, -1.00, 284.9, 634.0)">с</text><text xml:space="preserve" font-family="AvenirNext-Regular" font-size="44.0" fill="#000000" transform="matrix(1.00, 0.00, -0.00, -1.00, 306.9, 634.0)">т</text><text xml:space="preserve" font-family="AvenirNext-Regular" font-size="44.0" fill="#000000" transform="matrix(1.00, 0.00, -0.00, -1.00, 325.9, 634.0)">р</text><text xml:space="preserve" font-family="AvenirNext-Regular" font-size="44.0" fill="#000000" transform="matrix(1.00, 0.00, -0.00, -1.00, 353.8, 634.0)">у</text><text xml:space="preserve" font-family="AvenirNext-Regular" font-size="44.0" fill="#000000" transform="matrix(1.00, 0.00, -0.00, -1.00, 375.3, 634.0)">м</text><text xml:space="preserve" font-family="AvenirNext-Regular" font-size="44.0" fill="#000000" transform="matrix(1.00, 0.00, -0.00, -1.00, 405.9, 634.0)">е</text><text xml:space="preserve" font-family="AvenirNext-Regular" font-size="44.0" fill="#000000" transform="matrix(1.00, 0.00, -0.00, -1.00, 431.0, 634.0)">н</text><text xml:space="preserve" font-family="AvenirNext-Regular" font-size="44.0" fill="#000000" transform="matrix(1.00, 0.00, -0.00, -1.00, 456.3, 634.0)">т</text><text xml:space="preserve" font-family="AvenirNext-Regular" font-size="44.0" fill="#000000" transform="matrix(1.00, 0.00, -0.00, -1.00, 475.3, 634.0)">и</text><text xml:space="preserve" font-family="AvenirNext-Regular" font-size="44.0" fill="#000000" transform="matrix(1.00, 0.00, -0.00, -1.00, 501.7, 634.0)"> </text><text xml:space="preserve" font-family="AvenirNext-Regular" font-size="44.0" fill="#000000" transform="matrix(1.00, 0.00, -0.00, -1.00, 512.7, 634.0)">н</text><text xml:space="preserve" font-family="AvenirNext-Regular" font-size="44.0" fill="#000000" transform="matrix(1.00, 0.00, -0.00, -1.00, 538.0, 634.0)">а</text><text xml:space="preserve" font-family="AvenirNext-Regular" font-size="44.0" fill="#000000" transform="matrix(1.00, 0.00, -0.00, -1.00, 561.5, 634.0)"> </text><text xml:space="preserve" font-family="AvenirNext-Regular" font-size="44.0" fill="#000000" transform="matrix(1.00, 0.00, -0.00, -1.00, 572.5, 634.0)">f</text><text xml:space="preserve" font-family="AvenirNext-Regular" font-size="44.0" fill="#000000" transform="matrix(1.00, 0.00, -0.00, -1.00, 585.4, 634.0)">r</text><text xml:space="preserve" font-family="AvenirNext-Regular" font-size="44.0" fill="#000000" transform="matrix(1.00, 0.00, -0.00, -1.00, 600.5, 634.0)">o</text><text xml:space="preserve" font-family="AvenirNext-Regular" font-size="44.0" fill="#000000" transform="matrix(1.00, 0.00, -0.00, -1.00, 627.4, 634.0)">n</text><text xml:space="preserve" font-family="AvenirNext-Regular" font-size="44.0" fill="#000000" transform="matrix(1.00, 0.00, -0.00, -1.00, 652.9, 634.0)">t</text><text xml:space="preserve" font-family="AvenirNext-Regular" font-size="44.0" fill="#000000" transform="matrix(1.00, 0.00, -0.00, -1.00, 666.9, 634.0)">-</text><text xml:space="preserve" font-family="AvenirNext-Regular" font-size="44.0" fill="#000000" transform="matrix(1.00, 0.00, -0.00, -1.00, 681.0, 634.0)">e</text><text xml:space="preserve" font-family="AvenirNext-Regular" font-size="44.0" fill="#000000" transform="matrix(1.00, 0.00, -0.00, -1.00, 706.1, 634.0)">n</text><text xml:space="preserve" font-family="AvenirNext-Regular" font-size="44.0" fill="#000000" transform="matrix(1.00, 0.00, -0.00, -1.00, 731.7, 634.0)">d</text><text xml:space="preserve" font-family="AvenirNext-Regular" font-size="44.0" fill="#000000" transform="matrix(1.00, 0.00, -0.00, -1.00, 759.7, 634.0)">-</text><text xml:space="preserve" font-family="AvenirNext-Regular" font-size="44.0" fill="#000000" transform="matrix(1.00, 0.00, -0.00, -1.00, 773.8, 634.0)">a</text><text xml:space="preserve" font-family="AvenirNext-Regular" font-size="26.0" fill="#560705" transform="matrix(1.00, 0.00, -0.00, -1.00, 79.0, 543.9)">•</text><text xml:space="preserve" font-family="AvenirNext-Regular" font-size="26.0" fill="#560705" transform="matrix(1.00, 0.00, -0.00, -1.00, 122.0, 544.0)">H</text><text xml:space="preserve" font-family="AvenirNext-Regular" font-size="26.0" fill="#560705" transform="matrix(1.00, 0.00, -0.00, -1.00, 140.7, 544.0)">T</text><text xml:space="preserve" font-family="AvenirNext-Regular" font-size="26.0" fill="#560705" transform="matrix(1.00, 0.00, -0.00, -1.00, 155.5, 544.0)">M</text><text xml:space="preserve" font-family="AvenirNext-Regular" font-size="26.0" fill="#560705" transform="matrix(1.00, 0.00, -0.00, -1.00, 178.5, 544.0)">L</text><text xml:space="preserve" font-family="LucidaGrande" font-size="26.0" fill="#560705" transform="matrix(1.00, 0.00, -0.00, -1.00, 191.8, 544.0)"> </text><text xml:space="preserve" font-family="AvenirNext-Regular" font-size="26.0" fill="#560705" transform="matrix(1.00, 0.00, -0.00, -1.00, 122.0, 501.0)">-</text><text xml:space="preserve" font-family="AvenirNext-Regular" font-size="26.0" fill="#560705" transform="matrix(1.00, 0.00, -0.00, -1.00, 130.3, 501.0)"> </text><text xml:space="preserve" font-family="AvenirNext-Regular" font-size="26.0" fill="#560705" transform="matrix(1.00, 0.00, -0.00, -1.00, 136.8, 501.0)">H</text><text xml:space="preserve" font-family="AvenirNext-Regular" font-size="26.0" fill="#560705" transform="matrix(1.00, 0.00, -0.00, -1.00, 155.5, 501.0)">y</text><text xml:space="preserve" font-family="AvenirNext-Regular" font-size="26.0" fill="#560705" transform="matrix(1.00, 0.00, -0.00, -1.00, 168.2, 501.0)">p</text><text xml:space="preserve" font-family="AvenirNext-Regular" font-size="26.0" fill="#560705" transform="matrix(1.00, 0.00, -0.00, -1.00, 184.7, 501.0)">e</text><text xml:space="preserve" font-family="AvenirNext-Regular" font-size="26.0" fill="#560705" transform="matrix(1.00, 0.00, -0.00, -1.00, 199.6, 501.0)">r</text><text xml:space="preserve" font-family="AvenirNext-Regular" font-size="26.0" fill="#560705" transform="matrix(1.00, 0.00, -0.00, -1.00, 208.3, 501.0)">-</text><text xml:space="preserve" font-family="AvenirNext-Regular" font-size="26.0" fill="#560705" transform="matrix(1.00, 0.00, -0.00, -1.00, 214.3, 501.0)">T</text><text xml:space="preserve" font-family="AvenirNext-Regular" font-size="26.0" fill="#560705" transform="matrix(1.00, 0.00, -0.00, -1.00, 226.6, 501.0)">e</text><text xml:space="preserve" font-family="AvenirNext-Regular" font-size="26.0" fill="#560705" transform="matrix(1.00, 0.00, -0.00, -1.00, 241.3, 501.0)">x</text><text xml:space="preserve" font-family="AvenirNext-Regular" font-size="26.0" fill="#560705" transform="matrix(1.00, 0.00, -0.00, -1.00, 253.9, 501.0)">t</text><text xml:space="preserve" font-family="AvenirNext-Regular" font-size="26.0" fill="#560705" transform="matrix(1.00, 0.00, -0.00, -1.00, 262.1, 501.0)"> </text><text xml:space="preserve" font-family="AvenirNext-Regular" font-size="26.0" fill="#560705" transform="matrix(1.00, 0.00, -0.00, -1.00, 268.6, 501.0)">M</text><text xml:space="preserve" font-family="AvenirNext-Regular" font-size="26.0" fill="#560705" transform="matrix(1.00, 0.00, -0.00, -1.00, 291.7, 501.0)">a</text><text xml:space="preserve" font-family="AvenirNext-Regular" font-size="26.0" fill="#560705" transform="matrix(1.00, 0.00, -0.00, -1.00, 305.6, 501.0)">r</text><text xml:space="preserve" font-family="AvenirNext-Regular" font-size="26.0" fill="#560705" transform="matrix(1.00, 0.00, -0.00, -1.00, 314.9, 501.0)">k</text><text xml:space="preserve" font-family="AvenirNext-Regular" font-size="26.0" fill="#560705" transform="matrix(1.00, 0.00, -0.00, -1.00, 327.9, 501.0)">u</text><text xml:space="preserve" font-family="AvenirNext-Regular" font-size="26.0" fill="#560705" transform="matrix(1.00, 0.00, -0.00, -1.00, 343.0, 501.0)">p</text><text xml:space="preserve" font-family="AvenirNext-Regular" font-size="26.0" fill="#560705" transform="matrix(1.00, 0.00, -0.00, -1.00, 359.5, 501.0)"> </text><text xml:space="preserve" font-family="AvenirNext-Regular" font-size="26.0" fill="#560705" transform="matrix(1.00, 0.00, -0.00, -1.00, 366.0, 501.0)">L</text><text xml:space="preserve" font-family="AvenirNext-Regular" font-size="26.0" fill="#560705" transform="matrix(1.00, 0.00, -0.00, -1.00, 379.2, 501.0)">a</text><text xml:space="preserve" font-family="AvenirNext-Regular" font-size="26.0" fill="#560705" transform="matrix(1.00, 0.00, -0.00, -1.00, 393.1, 501.0)">n</text><text xml:space="preserve" font-family="AvenirNext-Regular" font-size="26.0" fill="#560705" transform="matrix(1.00, 0.00, -0.00, -1.00, 408.2, 501.0)">g</text><text xml:space="preserve" font-family="AvenirNext-Regular" font-size="26.0" fill="#560705" transform="matrix(1.00, 0.00, -0.00, -1.00, 424.7, 501.0)">u</text><text xml:space="preserve" font-family="AvenirNext-Regular" font-size="26.0" fill="#560705" transform="matrix(1.00, 0.00, -0.00, -1.00, 439.8, 501.0)">a</text><text xml:space="preserve" font-family="AvenirNext-Regular" font-size="26.0" fill="#560705" transform="matrix(1.00, 0.00, -0.00, -1.00, 453.7, 501.0)">g</text><text xml:space="preserve" font-family="AvenirNext-Regular" font-size="26.0" fill="#560705" transform="matrix(1.00, 0.00, -0.00, -1.00, 470.1, 501.0)">e</text><text xml:space="preserve" font-family="LucidaGrande" font-size="26.0" fill="#560705" transform="matrix(1.00, 0.00, -0.00, -1.00, 485.0, 501.0)"> </text><text xml:space="preserve" font-family="AvenirNext-Regular" font-size="26.0" fill="#560705" transform="matrix(1.00, 0.00, -0.00, -1.00, 122.0, 457.0)">-</text><text xml:space="preserve" font-family="AvenirNext-Regular" font-size="26.0" fill="#560705" transform="matrix(1.00, 0.00, -0.00, -1.00, 130.3, 457.0)"> </text><text xml:space="preserve" font-family="AvenirNext-Regular" font-size="26.0" fill="#560705" transform="matrix(1.00, 0.00, -0.00, -1.00, 136.8, 457.0)">О</text><text xml:space="preserve" font-family="AvenirNext-Regular" font-size="26.0" fill="#560705" transform="matrix(1.00, 0.00, -0.00, -1.00, 158.9, 457.0)">т</text><text xml:space="preserve" font-family="AvenirNext-Regular" font-size="26.0" fill="#560705" transform="matrix(1.00, 0.00, -0.00, -1.00, 170.1, 457.0)">г</text><text xml:space="preserve" font-family="AvenirNext-Regular" font-size="26.0" fill="#560705" transform="matrix(1.00, 0.00, -0.00, -1.00, 180.2, 457.0)">о</text><text xml:space="preserve" font-family="AvenirNext-Regular" font-size="26.0" fill="#560705" transform="matrix(1.00, 0.00, -0.00, -1.00, 196.1, 457.0)">в</text><text xml:space="preserve" font-family="AvenirNext-Regular" font-size="26.0" fill="#560705" transform="matrix(1.00, 0.00, -0.00, -1.00, 210.2, 457.0)">а</text><text xml:space="preserve" font-family="AvenirNext-Regular" font-size="26.0" fill="#560705" transform="matrix(1.00, 0.00, -0.00, -1.00, 224.1, 457.0)">р</text><text xml:space="preserve" font-family="AvenirNext-Regular" font-size="26.0" fill="#560705" transform="matrix(1.00, 0.00, -0.00, -1.00, 240.6, 457.0)">я</text><text xml:space="preserve" font-family="AvenirNext-Regular" font-size="26.0" fill="#560705" transform="matrix(1.00, 0.00, -0.00, -1.00, 254.6, 457.0)"> </text><text xml:space="preserve" font-family="AvenirNext-Regular" font-size="26.0" fill="#560705" transform="matrix(1.00, 0.00, -0.00, -1.00, 261.1, 457.0)">з</text><text xml:space="preserve" font-family="AvenirNext-Regular" font-size="26.0" fill="#560705" transform="matrix(1.00, 0.00, -0.00, -1.00, 273.1, 457.0)">а</text><text xml:space="preserve" font-family="AvenirNext-Regular" font-size="26.0" fill="#560705" transform="matrix(1.00, 0.00, -0.00, -1.00, 287.0, 457.0)"> </text><text xml:space="preserve" font-family="AvenirNext-Regular" font-size="26.0" fill="#560705" transform="matrix(1.00, 0.00, -0.00, -1.00, 293.5, 457.0)">с</text><text xml:space="preserve" font-family="AvenirNext-Regular" font-size="26.0" fill="#560705" transform="matrix(1.00, 0.00, -0.00, -1.00, 306.5, 457.0)">ъ</text><text xml:space="preserve" font-family="AvenirNext-Regular" font-size="26.0" fill="#560705" transform="matrix(1.00, 0.00, -0.00, -1.00, 320.8, 457.0)">д</text><text xml:space="preserve" font-family="AvenirNext-Regular" font-size="26.0" fill="#560705" transform="matrix(1.00, 0.00, -0.00, -1.00, 335.0, 457.0)">ъ</text><text xml:space="preserve" font-family="AvenirNext-Regular" font-size="26.0" fill="#560705" transform="matrix(1.00, 0.00, -0.00, -1.00, 349.3, 457.0)">р</text><text xml:space="preserve" font-family="AvenirNext-Regular" font-size="26.0" fill="#560705" transform="matrix(1.00, 0.00, -0.00, -1.00, 365.9, 457.0)">ж</text><text xml:space="preserve" font-family="AvenirNext-Regular" font-size="26.0" fill="#560705" transform="matrix(1.00, 0.00, -0.00, -1.00, 387.1, 457.0)">а</text><text xml:space="preserve" font-family="AvenirNext-Regular" font-size="26.0" fill="#560705" transform="matrix(1.00, 0.00, -0.00, -1.00, 401.0, 457.0)">н</text><text xml:space="preserve" font-family="AvenirNext-Regular" font-size="26.0" fill="#560705" transform="matrix(1.00, 0.00, -0.00, -1.00, 415.9, 457.0)">и</text><text xml:space="preserve" font-family="AvenirNext-Regular" font-size="26.0" fill="#560705" transform="matrix(1.00, 0.00, -0.00, -1.00, 431.5, 457.0)">е</text><text xml:space="preserve" font-family="AvenirNext-Regular" font-size="26.0" fill="#560705" transform="matrix(1.00, 0.00, -0.00, -1.00, 446.4, 457.0)">т</text><text xml:space="preserve" font-family="AvenirNext-Regular" font-size="26.0" fill="#560705" transform="matrix(1.00, 0.00, -0.00, -1.00, 457.6, 457.0)">о</text><text xml:space="preserve" font-family="AvenirNext-Regular" font-size="26.0" fill="#560705" transform="matrix(1.00, 0.00, -0.00, -1.00, 473.4, 457.0)"> </text><text xml:space="preserve" font-family="AvenirNext-Regular" font-size="26.0" fill="#560705" transform="matrix(1.00, 0.00, -0.00, -1.00, 479.9, 457.0)">н</text><text xml:space="preserve" font-family="AvenirNext-Regular" font-size="26.0" fill="#560705" transform="matrix(1.00, 0.00, -0.00, -1.00, 494.9, 457.0)">а</text><text xml:space="preserve" font-family="AvenirNext-Regular" font-size="26.0" fill="#560705" transform="matrix(1.00, 0.00, -0.00, -1.00, 508.8, 457.0)"> </text><text xml:space="preserve" font-family="AvenirNext-Regular" font-size="26.0" fill="#560705" transform="matrix(1.00, 0.00, -0.00, -1.00, 515.3, 457.0)">е</text><text xml:space="preserve" font-family="AvenirNext-Regular" font-size="26.0" fill="#560705" transform="matrix(1.00, 0.00, -0.00, -1.00, 530.1, 457.0)">д</text><text xml:space="preserve" font-family="AvenirNext-Regular" font-size="26.0" fill="#560705" transform="matrix(1.00, 0.00, -0.00, -1.00, 544.3, 457.0)">н</text><text xml:space="preserve" font-family="AvenirNext-Regular" font-size="26.0" fill="#560705" transform="matrix(1.00, 0.00, -0.00, -1.00, 559.2, 457.0)">а</text><text xml:space="preserve" font-family="AvenirNext-Regular" font-size="26.0" fill="#560705" transform="matrix(1.00, 0.00, -0.00, -1.00, 573.1, 457.0)"> </text><text xml:space="preserve" font-family="AvenirNext-Regular" font-size="26.0" fill="#560705" transform="matrix(1.00, 0.00, -0.00, -1.00, 579.6, 457.0)">у</text><text xml:space="preserve" font-family="AvenirNext-Regular" font-size="26.0" fill="#560705" transform="matrix(1.00, 0.00, -0.00, -1.00, 592.3, 457.0)">е</text><text xml:space="preserve" font-family="AvenirNext-Regular" font-size="26.0" fill="#560705" transform="matrix(1.00, 0.00, -0.00, -1.00, 607.2, 457.0)">б</text><text xml:space="preserve" font-family="AvenirNext-Regular" font-size="26.0" fill="#560705" transform="matrix(1.00, 0.00, -0.00, -1.00, 622.8, 457.0)">с</text><text xml:space="preserve" font-family="AvenirNext-Regular" font-size="26.0" fill="#560705" transform="matrix(1.00, 0.00, -0.00, -1.00, 635.8, 457.0)">т</text><text xml:space="preserve" font-family="AvenirNext-Regular" font-size="26.0" fill="#560705" transform="matrix(1.00, 0.00, -0.00, -1.00, 647.0, 457.0)">р</text><text xml:space="preserve" font-family="AvenirNext-Regular" font-size="26.0" fill="#560705" transform="matrix(1.00, 0.00, -0.00, -1.00, 663.5, 457.0)">а</text><text xml:space="preserve" font-family="AvenirNext-Regular" font-size="26.0" fill="#560705" transform="matrix(1.00, 0.00, -0.00, -1.00, 677.4, 457.0)">н</text><text xml:space="preserve" font-family="AvenirNext-Regular" font-size="26.0" fill="#560705" transform="matrix(1.00, 0.00, -0.00, -1.00, 692.3, 457.0)">и</text><text xml:space="preserve" font-family="AvenirNext-Regular" font-size="26.0" fill="#560705" transform="matrix(1.00, 0.00, -0.00, -1.00, 707.9, 457.0)">ц</text><text xml:space="preserve" font-family="AvenirNext-Regular" font-size="26.0" fill="#560705" transform="matrix(1.00, 0.00, -0.00, -1.00, 722.7, 457.0)">а</text><text xml:space="preserve" font-family="AvenirNext-Regular" font-size="26.0" fill="#560705" transform="matrix(1.00, 0.00, -0.00, -1.00, 79.0, 400.1)">•</text><text xml:space="preserve" font-family="AvenirNext-Regular" font-size="26.0" fill="#560705" transform="matrix(1.00, 0.00, -0.00, -1.00, 122.0, 400.0)">C</text><text xml:space="preserve" font-family="AvenirNext-Regular" font-size="26.0" fill="#560705" transform="matrix(1.00, 0.00, -0.00, -1.00, 140.7, 400.0)">S</text><text xml:space="preserve" font-family="AvenirNext-Regular" font-size="26.0" fill="#560705" transform="matrix(1.00, 0.00, -0.00, -1.00, 155.4, 400.0)">S</text><text xml:space="preserve" font-family="LucidaGrande" font-size="26.0" fill="#560705" transform="matrix(1.00, 0.00, -0.00, -1.00, 170.0, 400.0)"> </text><text xml:space="preserve" font-family="AvenirNext-Regular" font-size="26.0" fill="#560705" transform="matrix(1.00, 0.00, -0.00, -1.00, 122.0, 357.0)">-</text><text xml:space="preserve" font-family="AvenirNext-Regular" font-size="26.0" fill="#560705" transform="matrix(1.00, 0.00, -0.00, -1.00, 130.3, 357.0)"> </text><text xml:space="preserve" font-family="AvenirNext-Regular" font-size="26.0" fill="#560705" transform="matrix(1.00, 0.00, -0.00, -1.00, 136.8, 357.0)">С</text><text xml:space="preserve" font-family="AvenirNext-Regular" font-size="26.0" fill="#560705" transform="matrix(1.00, 0.00, -0.00, -1.00, 155.5, 357.0)">т</text><text xml:space="preserve" font-family="AvenirNext-Regular" font-size="26.0" fill="#560705" transform="matrix(1.00, 0.00, -0.00, -1.00, 166.7, 357.0)">и</text><text xml:space="preserve" font-family="AvenirNext-Regular" font-size="26.0" fill="#560705" transform="matrix(1.00, 0.00, -0.00, -1.00, 182.3, 357.0)">л</text><text xml:space="preserve" font-family="AvenirNext-Regular" font-size="26.0" fill="#560705" transform="matrix(1.00, 0.00, -0.00, -1.00, 195.2, 357.0)">о</text><text xml:space="preserve" font-family="AvenirNext-Regular" font-size="26.0" fill="#560705" transform="matrix(1.00, 0.00, -0.00, -1.00, 211.1, 357.0)">в</text><text xml:space="preserve" font-family="AvenirNext-Regular" font-size="26.0" fill="#560705" transform="matrix(1.00, 0.00, -0.00, -1.00, 225.2, 357.0)">е</text><text xml:space="preserve" font-family="AvenirNext-Regular" font-size="26.0" fill="#560705" transform="matrix(1.00, 0.00, -0.00, -1.00, 240.1, 357.0)"> </text><text xml:space="preserve" font-family="AvenirNext-Regular" font-size="26.0" fill="#560705" transform="matrix(1.00, 0.00, -0.00, -1.00, 246.6, 357.0)">н</text><text xml:space="preserve" font-family="AvenirNext-Regular" font-size="26.0" fill="#560705" transform="matrix(1.00, 0.00, -0.00, -1.00, 261.5, 357.0)">а</text><text xml:space="preserve" font-family="AvenirNext-Regular" font-size="26.0" fill="#560705" transform="matrix(1.00, 0.00, -0.00, -1.00, 275.4, 357.0)"> </text><text xml:space="preserve" font-family="AvenirNext-Regular" font-size="26.0" fill="#560705" transform="matrix(1.00, 0.00, -0.00, -1.00, 281.9, 357.0)">е</text><text xml:space="preserve" font-family="AvenirNext-Regular" font-size="26.0" fill="#560705" transform="matrix(1.00, 0.00, -0.00, -1.00, 296.8, 357.0)">д</text><text xml:space="preserve" font-family="AvenirNext-Regular" font-size="26.0" fill="#560705" transform="matrix(1.00, 0.00, -0.00, -1.00, 310.9, 357.0)">н</text><text xml:space="preserve" font-family="AvenirNext-Regular" font-size="26.0" fill="#560705" transform="matrix(1.00, 0.00, -0.00, -1.00, 325.9, 357.0)">а</text><text xml:space="preserve" font-family="AvenirNext-Regular" font-size="26.0" fill="#560705" transform="matrix(1.00, 0.00, -0.00, -1.00, 339.8, 357.0)"> </text><text xml:space="preserve" font-family="AvenirNext-Regular" font-size="26.0" fill="#560705" transform="matrix(1.00, 0.00, -0.00, -1.00, 346.2, 357.0)">с</text><text xml:space="preserve" font-family="AvenirNext-Regular" font-size="26.0" fill="#560705" transform="matrix(1.00, 0.00, -0.00, -1.00, 359.2, 357.0)">т</text><text xml:space="preserve" font-family="AvenirNext-Regular" font-size="26.0" fill="#560705" transform="matrix(1.00, 0.00, -0.00, -1.00, 370.5, 357.0)">р</text><text xml:space="preserve" font-family="AvenirNext-Regular" font-size="26.0" fill="#560705" transform="matrix(1.00, 0.00, -0.00, -1.00, 387.0, 357.0)">а</text><text xml:space="preserve" font-family="AvenirNext-Regular" font-size="26.0" fill="#560705" transform="matrix(1.00, 0.00, -0.00, -1.00, 400.8, 357.0)">н</text><text xml:space="preserve" font-family="AvenirNext-Regular" font-size="26.0" fill="#560705" transform="matrix(1.00, 0.00, -0.00, -1.00, 415.8, 357.0)">и</text><text xml:space="preserve" font-family="AvenirNext-Regular" font-size="26.0" fill="#560705" transform="matrix(1.00, 0.00, -0.00, -1.00, 431.4, 357.0)">ц</text><text xml:space="preserve" font-family="AvenirNext-Regular" font-size="26.0" fill="#560705" transform="matrix(1.00, 0.00, -0.00, -1.00, 446.2, 357.0)">а</text><text xml:space="preserve" font-family="LucidaGrande" font-size="26.0" fill="#560705" transform="matrix(1.00, 0.00, -0.00, -1.00, 460.1, 357.0)"> </text><text xml:space="preserve" font-family="AvenirNext-Regular" font-size="26.0" fill="#560705" transform="matrix(1.00, 0.00, -0.00, -1.00, 122.0, 314.0)">-</text><text xml:space="preserve" font-family="AvenirNext-Regular" font-size="26.0" fill="#560705" transform="matrix(1.00, 0.00, -0.00, -1.00, 130.3, 314.0)"> </text><text xml:space="preserve" font-family="AvenirNext-Regular" font-size="26.0" fill="#560705" transform="matrix(1.00, 0.00, -0.00, -1.00, 136.8, 314.0)">П</text><text xml:space="preserve" font-family="AvenirNext-Regular" font-size="26.0" fill="#560705" transform="matrix(1.00, 0.00, -0.00, -1.00, 155.0, 314.0)">о</text><text xml:space="preserve" font-family="AvenirNext-Regular" font-size="26.0" fill="#560705" transform="matrix(1.00, 0.00, -0.00, -1.00, 170.9, 314.0)">д</text><text xml:space="preserve" font-family="AvenirNext-Regular" font-size="26.0" fill="#560705" transform="matrix(1.00, 0.00, -0.00, -1.00, 185.0, 314.0)">п</text><text xml:space="preserve" font-family="AvenirNext-Regular" font-size="26.0" fill="#560705" transform="matrix(1.00, 0.00, -0.00, -1.00, 199.7, 314.0)">о</text><text xml:space="preserve" font-family="AvenirNext-Regular" font-size="26.0" fill="#560705" transform="matrix(1.00, 0.00, -0.00, -1.00, 215.6, 314.0)">м</text><text xml:space="preserve" font-family="AvenirNext-Regular" font-size="26.0" fill="#560705" transform="matrix(1.00, 0.00, -0.00, -1.00, 233.7, 314.0)">а</text><text xml:space="preserve" font-family="AvenirNext-Regular" font-size="26.0" fill="#560705" transform="matrix(1.00, 0.00, -0.00, -1.00, 247.6, 314.0)">г</text><text xml:space="preserve" font-family="AvenirNext-Regular" font-size="26.0" fill="#560705" transform="matrix(1.00, 0.00, -0.00, -1.00, 257.7, 314.0)">а</text><text xml:space="preserve" font-family="AvenirNext-Regular" font-size="26.0" fill="#560705" transform="matrix(1.00, 0.00, -0.00, -1.00, 271.6, 314.0)"> </text><text xml:space="preserve" font-family="AvenirNext-Regular" font-size="26.0" fill="#560705" transform="matrix(1.00, 0.00, -0.00, -1.00, 278.1, 314.0)">H</text><text xml:space="preserve" font-family="AvenirNext-Regular" font-size="26.0" fill="#560705" transform="matrix(1.00, 0.00, -0.00, -1.00, 296.7, 314.0)">T</text><text xml:space="preserve" font-family="AvenirNext-Regular" font-size="26.0" fill="#560705" transform="matrix(1.00, 0.00, -0.00, -1.00, 311.5, 314.0)">M</text><text xml:space="preserve" font-family="AvenirNext-Regular" font-size="26.0" fill="#560705" transform="matrix(1.00, 0.00, -0.00, -1.00, 334.6, 314.0)">L</text><text xml:space="preserve" font-family="AvenirNext-Regular" font-size="26.0" fill="#560705" transform="matrix(1.00, 0.00, -0.00, -1.00, 347.2, 314.0)"> </text><text xml:space="preserve" font-family="AvenirNext-Regular" font-size="26.0" fill="#560705" transform="matrix(1.00, 0.00, -0.00, -1.00, 353.7, 314.0)">з</text><text xml:space="preserve" font-family="AvenirNext-Regular" font-size="26.0" fill="#560705" transform="matrix(1.00, 0.00, -0.00, -1.00, 365.8, 314.0)">а</text><text xml:space="preserve" font-family="AvenirNext-Regular" font-size="26.0" fill="#560705" transform="matrix(1.00, 0.00, -0.00, -1.00, 379.6, 314.0)"> </text><text xml:space="preserve" font-family="AvenirNext-Regular" font-size="26.0" fill="#560705" transform="matrix(1.00, 0.00, -0.00, -1.00, 386.1, 314.0)">и</text><text xml:space="preserve" font-family="AvenirNext-Regular" font-size="26.0" fill="#560705" transform="matrix(1.00, 0.00, -0.00, -1.00, 401.7, 314.0)">з</text><text xml:space="preserve" font-family="AvenirNext-Regular" font-size="26.0" fill="#560705" transform="matrix(1.00, 0.00, -0.00, -1.00, 413.7, 314.0)">г</text><text xml:space="preserve" font-family="AvenirNext-Regular" font-size="26.0" fill="#560705" transform="matrix(1.00, 0.00, -0.00, -1.00, 423.8, 314.0)">р</text><text xml:space="preserve" font-family="AvenirNext-Regular" font-size="26.0" fill="#560705" transform="matrix(1.00, 0.00, -0.00, -1.00, 440.3, 314.0)">а</text><text xml:space="preserve" font-family="AvenirNext-Regular" font-size="26.0" fill="#560705" transform="matrix(1.00, 0.00, -0.00, -1.00, 454.2, 314.0)">ж</text><text xml:space="preserve" font-family="AvenirNext-Regular" font-size="26.0" fill="#560705" transform="matrix(1.00, 0.00, -0.00, -1.00, 475.4, 314.0)">д</text><text xml:space="preserve" font-family="AvenirNext-Regular" font-size="26.0" fill="#560705" transform="matrix(1.00, 0.00, -0.00, -1.00, 489.6, 314.0)">а</text><text xml:space="preserve" font-family="AvenirNext-Regular" font-size="26.0" fill="#560705" transform="matrix(1.00, 0.00, -0.00, -1.00, 503.5, 314.0)">н</text><text xml:space="preserve" font-family="AvenirNext-Regular" font-size="26.0" fill="#560705" transform="matrix(1.00, 0.00, -0.00, -1.00, 518.4, 314.0)">е</text><text xml:space="preserve" font-family="AvenirNext-Regular" font-size="26.0" fill="#560705" transform="matrix(1.00, 0.00, -0.00, -1.00, 533.3, 314.0)"> </text><text xml:space="preserve" font-family="AvenirNext-Regular" font-size="26.0" fill="#560705" transform="matrix(1.00, 0.00, -0.00, -1.00, 539.8, 314.0)">н</text><text xml:space="preserve" font-family="AvenirNext-Regular" font-size="26.0" fill="#560705" transform="matrix(1.00, 0.00, -0.00, -1.00, 554.7, 314.0)">а</text><text xml:space="preserve" font-family="AvenirNext-Regular" font-size="26.0" fill="#560705" transform="matrix(1.00, 0.00, -0.00, -1.00, 568.6, 314.0)"> </text><text xml:space="preserve" font-family="AvenirNext-Regular" font-size="26.0" fill="#560705" transform="matrix(1.00, 0.00, -0.00, -1.00, 575.1, 314.0)">в</text><text xml:space="preserve" font-family="AvenirNext-Regular" font-size="26.0" fill="#560705" transform="matrix(1.00, 0.00, -0.00, -1.00, 589.2, 314.0)">и</text><text xml:space="preserve" font-family="AvenirNext-Regular" font-size="26.0" fill="#560705" transform="matrix(1.00, 0.00, -0.00, -1.00, 604.8, 314.0)">з</text><text xml:space="preserve" font-family="AvenirNext-Regular" font-size="26.0" fill="#560705" transform="matrix(1.00, 0.00, -0.00, -1.00, 616.8, 314.0)">и</text><text xml:space="preserve" font-family="AvenirNext-Regular" font-size="26.0" fill="#560705" transform="matrix(1.00, 0.00, -0.00, -1.00, 632.4, 314.0)">я</text><text xml:space="preserve" font-family="AvenirNext-Regular" font-size="26.0" fill="#560705" transform="matrix(1.00, 0.00, -0.00, -1.00, 646.4, 314.0)">т</text><text xml:space="preserve" font-family="AvenirNext-Regular" font-size="26.0" fill="#560705" transform="matrix(1.00, 0.00, -0.00, -1.00, 657.6, 314.0)">а</text><text xml:space="preserve" font-family="AvenirNext-Regular" font-size="26.0" fill="#560705" transform="matrix(1.00, 0.00, -0.00, -1.00, 671.5, 314.0)"> </text><text xml:space="preserve" font-family="AvenirNext-Regular" font-size="26.0" fill="#560705" transform="matrix(1.00, 0.00, -0.00, -1.00, 678.0, 314.0)">н</text><text xml:space="preserve" font-family="AvenirNext-Regular" font-size="26.0" fill="#560705" transform="matrix(1.00, 0.00, -0.00, -1.00, 692.9, 314.0)">а</text><text xml:space="preserve" font-family="AvenirNext-Regular" font-size="26.0" fill="#560705" transform="matrix(1.00, 0.00, -0.00, -1.00, 706.8, 314.0)"> </text><text xml:space="preserve" font-family="AvenirNext-Regular" font-size="26.0" fill="#560705" transform="matrix(1.00, 0.00, -0.00, -1.00, 713.3, 314.0)">с</text><text xml:space="preserve" font-family="AvenirNext-Regular" font-size="26.0" fill="#560705" transform="matrix(1.00, 0.00, -0.00, -1.00, 726.3, 314.0)">т</text><text xml:space="preserve" font-family="AvenirNext-Regular" font-size="26.0" fill="#560705" transform="matrix(1.00, 0.00, -0.00, -1.00, 737.5, 314.0)">р</text><text xml:space="preserve" font-family="AvenirNext-Regular" font-size="26.0" fill="#560705" transform="matrix(1.00, 0.00, -0.00, -1.00, 754.0, 314.0)">а</text><text xml:space="preserve" font-family="AvenirNext-Regular" font-size="26.0" fill="#560705" transform="matrix(1.00, 0.00, -0.00, -1.00, 767.9, 314.0)">н</text><text xml:space="preserve" font-family="AvenirNext-Regular" font-size="26.0" fill="#560705" transform="matrix(1.00, 0.00, -0.00, -1.00, 782.9, 314.0)">и</text><text xml:space="preserve" font-family="AvenirNext-Regular" font-size="26.0" fill="#560705" transform="matrix(1.00, 0.00, -0.00, -1.00, 798.4, 314.0)">ц</text><text xml:space="preserve" font-family="AvenirNext-Regular" font-size="26.0" fill="#560705" transform="matrix(1.00, 0.00, -0.00, -1.00, 813.3, 314.0)">а</text><text xml:space="preserve" font-family="AvenirNext-Regular" font-size="26.0" fill="#560705" transform="matrix(1.00, 0.00, -0.00, -1.00, 827.2, 314.0)">т</text><text xml:space="preserve" font-family="AvenirNext-Regular" font-size="26.0" fill="#560705" transform="matrix(1.00, 0.00, -0.00, -1.00, 838.4, 314.0)">а</text><text xml:space="preserve" font-family="AvenirNext-Regular" font-size="26.0" fill="#560705" transform="matrix(1.00, 0.00, -0.00, -1.00, 852.3, 314.0)"> </text><text xml:space="preserve" font-family="AvenirNext-Regular" font-size="26.0" fill="#560705" transform="matrix(1.00, 0.00, -0.00, -1.00, 858.8, 314.0)">(</text><text xml:space="preserve" font-family="AvenirNext-Regular" font-size="26.0" fill="#560705" transform="matrix(1.00, 0.00, -0.00, -1.00, 866.6, 314.0)">т</text><text xml:space="preserve" font-family="AvenirNext-Regular" font-size="26.0" fill="#560705" transform="matrix(1.00, 0.00, -0.00, -1.00, 877.8, 314.0)">.</text><text xml:space="preserve" font-family="AvenirNext-Regular" font-size="26.0" fill="#560705" transform="matrix(1.00, 0.00, -0.00, -1.00, 884.5, 314.0)">е</text><text xml:space="preserve" font-family="AvenirNext-Regular" font-size="26.0" fill="#560705" transform="matrix(1.00, 0.00, -0.00, -1.00, 899.4, 314.0)">.</text><text xml:space="preserve" font-family="AvenirNext-Regular" font-size="26.0" fill="#560705" transform="matrix(1.00, 0.00, -0.00, -1.00, 905.4, 314.0)"> </text><text xml:space="preserve" font-family="AvenirNext-Regular" font-size="26.0" fill="#560705" transform="matrix(1.00, 0.00, -0.00, -1.00, 122.0, 271.0)">у</text><text xml:space="preserve" font-family="AvenirNext-Regular" font-size="26.0" fill="#560705" transform="matrix(1.00, 0.00, -0.00, -1.00, 134.7, 271.0)">к</text><text xml:space="preserve" font-family="AvenirNext-Regular" font-size="26.0" fill="#560705" transform="matrix(1.00, 0.00, -0.00, -1.00, 148.8, 271.0)">р</text><text xml:space="preserve" font-family="AvenirNext-Regular" font-size="26.0" fill="#560705" transform="matrix(1.00, 0.00, -0.00, -1.00, 165.3, 271.0)">а</text><text xml:space="preserve" font-family="AvenirNext-Regular" font-size="26.0" fill="#560705" transform="matrix(1.00, 0.00, -0.00, -1.00, 179.2, 271.0)">с</text><text xml:space="preserve" font-family="AvenirNext-Regular" font-size="26.0" fill="#560705" transform="matrix(1.00, 0.00, -0.00, -1.00, 192.2, 271.0)">я</text><text xml:space="preserve" font-family="AvenirNext-Regular" font-size="26.0" fill="#560705" transform="matrix(1.00, 0.00, -0.00, -1.00, 206.2, 271.0)">в</text><text xml:space="preserve" font-family="AvenirNext-Regular" font-size="26.0" fill="#560705" transform="matrix(1.00, 0.00, -0.00, -1.00, 220.3, 271.0)">а</text><text xml:space="preserve" font-family="AvenirNext-Regular" font-size="26.0" fill="#560705" transform="matrix(1.00, 0.00, -0.00, -1.00, 234.2, 271.0)">н</text><text xml:space="preserve" font-family="AvenirNext-Regular" font-size="26.0" fill="#560705" transform="matrix(1.00, 0.00, -0.00, -1.00, 249.1, 271.0)">е</text><text xml:space="preserve" font-family="AvenirNext-Regular" font-size="26.0" fill="#560705" transform="matrix(1.00, 0.00, -0.00, -1.00, 264.0, 271.0)">)</text><text xml:space="preserve" font-family="AvenirNext-Regular" font-size="26.0" fill="#560705" transform="matrix(1.00, 0.00, -0.00, -1.00, 79.0, 213.2)">•</text><text xml:space="preserve" font-family="AvenirNext-Regular" font-size="26.0" fill="#560705" transform="matrix(1.00, 0.00, -0.00, -1.00, 122.0, 213.0)">J</text><text xml:space="preserve" font-family="AvenirNext-Regular" font-size="26.0" fill="#560705" transform="matrix(1.00, 0.00, -0.00, -1.00, 134.6, 213.0)">a</text><text xml:space="preserve" font-family="AvenirNext-Regular" font-size="26.0" fill="#560705" transform="matrix(1.00, 0.00, -0.00, -1.00, 148.5, 213.0)">v</text><text xml:space="preserve" font-family="AvenirNext-Regular" font-size="26.0" fill="#560705" transform="matrix(1.00, 0.00, -0.00, -1.00, 161.2, 213.0)">a</text><text xml:space="preserve" font-family="AvenirNext-Regular" font-size="26.0" fill="#560705" transform="matrix(1.00, 0.00, -0.00, -1.00, 175.1, 213.0)">S</text><text xml:space="preserve" font-family="AvenirNext-Regular" font-size="26.0" fill="#560705" transform="matrix(1.00, 0.00, -0.00, -1.00, 189.8, 213.0)">c</text><text xml:space="preserve" font-family="AvenirNext-Regular" font-size="26.0" fill="#560705" transform="matrix(1.00, 0.00, -0.00, -1.00, 202.8, 213.0)">r</text><text xml:space="preserve" font-family="AvenirNext-Regular" font-size="26.0" fill="#560705" transform="matrix(1.00, 0.00, -0.00, -1.00, 212.1, 213.0)">i</text><text xml:space="preserve" font-family="AvenirNext-Regular" font-size="26.0" fill="#560705" transform="matrix(1.00, 0.00, -0.00, -1.00, 218.6, 213.0)">p</text><text xml:space="preserve" font-family="AvenirNext-Regular" font-size="26.0" fill="#560705" transform="matrix(1.00, 0.00, -0.00, -1.00, 235.1, 213.0)">t</text><text xml:space="preserve" font-family="LucidaGrande" font-size="26.0" fill="#560705" transform="matrix(1.00, 0.00, -0.00, -1.00, 243.4, 213.0)"> </text><text xml:space="preserve" font-family="AvenirNext-Regular" font-size="26.0" fill="#560705" transform="matrix(1.00, 0.00, -0.00, -1.00, 122.0, 170.0)">-</text><text xml:space="preserve" font-family="AvenirNext-Regular" font-size="26.0" fill="#560705" transform="matrix(1.00, 0.00, -0.00, -1.00, 130.3, 170.0)"> </text><text xml:space="preserve" font-family="AvenirNext-Regular" font-size="26.0" fill="#560705" transform="matrix(1.00, 0.00, -0.00, -1.00, 136.8, 170.0)">П</text><text xml:space="preserve" font-family="AvenirNext-Regular" font-size="26.0" fill="#560705" transform="matrix(1.00, 0.00, -0.00, -1.00, 155.0, 170.0)">о</text><text xml:space="preserve" font-family="AvenirNext-Regular" font-size="26.0" fill="#560705" transform="matrix(1.00, 0.00, -0.00, -1.00, 170.9, 170.0)">в</text><text xml:space="preserve" font-family="AvenirNext-Regular" font-size="26.0" fill="#560705" transform="matrix(1.00, 0.00, -0.00, -1.00, 184.9, 170.0)">е</text><text xml:space="preserve" font-family="AvenirNext-Regular" font-size="26.0" fill="#560705" transform="matrix(1.00, 0.00, -0.00, -1.00, 199.8, 170.0)">д</text><text xml:space="preserve" font-family="AvenirNext-Regular" font-size="26.0" fill="#560705" transform="matrix(1.00, 0.00, -0.00, -1.00, 213.9, 170.0)">е</text><text xml:space="preserve" font-family="AvenirNext-Regular" font-size="26.0" fill="#560705" transform="matrix(1.00, 0.00, -0.00, -1.00, 228.8, 170.0)">н</text><text xml:space="preserve" font-family="AvenirNext-Regular" font-size="26.0" fill="#560705" transform="matrix(1.00, 0.00, -0.00, -1.00, 243.8, 170.0)">и</text><text xml:space="preserve" font-family="AvenirNext-Regular" font-size="26.0" fill="#560705" transform="matrix(1.00, 0.00, -0.00, -1.00, 259.3, 170.0)">е</text><text xml:space="preserve" font-family="AvenirNext-Regular" font-size="26.0" fill="#560705" transform="matrix(1.00, 0.00, -0.00, -1.00, 274.2, 170.0)">т</text><text xml:space="preserve" font-family="AvenirNext-Regular" font-size="26.0" fill="#560705" transform="matrix(1.00, 0.00, -0.00, -1.00, 285.4, 170.0)">о</text><text xml:space="preserve" font-family="AvenirNext-Regular" font-size="26.0" fill="#560705" transform="matrix(1.00, 0.00, -0.00, -1.00, 301.3, 170.0)"> </text><text xml:space="preserve" font-family="AvenirNext-Regular" font-size="26.0" fill="#560705" transform="matrix(1.00, 0.00, -0.00, -1.00, 307.8, 170.0)">н</text><text xml:space="preserve" font-family="AvenirNext-Regular" font-size="26.0" fill="#560705" transform="matrix(1.00, 0.00, -0.00, -1.00, 322.7, 170.0)">а</text><text xml:space="preserve" font-family="AvenirNext-Regular" font-size="26.0" fill="#560705" transform="matrix(1.00, 0.00, -0.00, -1.00, 336.6, 170.0)"> </text><text xml:space="preserve" font-family="AvenirNext-Regular" font-size="26.0" fill="#560705" transform="matrix(1.00, 0.00, -0.00, -1.00, 343.1, 170.0)">е</text><text xml:space="preserve" font-family="AvenirNext-Regular" font-size="26.0" fill="#560705" transform="matrix(1.00, 0.00, -0.00, -1.00, 358.0, 170.0)">д</text><text xml:space="preserve" font-family="AvenirNext-Regular" font-size="26.0" fill="#560705" transform="matrix(1.00, 0.00, -0.00, -1.00, 372.1, 170.0)">н</text><text xml:space="preserve" font-family="AvenirNext-Regular" font-size="26.0" fill="#560705" transform="matrix(1.00, 0.00, -0.00, -1.00, 387.1, 170.0)">а</text><text xml:space="preserve" font-family="AvenirNext-Regular" font-size="26.0" fill="#560705" transform="matrix(1.00, 0.00, -0.00, -1.00, 401.0, 170.0)"> </text><text xml:space="preserve" font-family="AvenirNext-Regular" font-size="26.0" fill="#560705" transform="matrix(1.00, 0.00, -0.00, -1.00, 407.5, 170.0)">у</text><text xml:space="preserve" font-family="AvenirNext-Regular" font-size="26.0" fill="#560705" transform="matrix(1.00, 0.00, -0.00, -1.00, 420.2, 170.0)">е</text><text xml:space="preserve" font-family="AvenirNext-Regular" font-size="26.0" fill="#560705" transform="matrix(1.00, 0.00, -0.00, -1.00, 435.0, 170.0)">б</text><text xml:space="preserve" font-family="AvenirNext-Regular" font-size="26.0" fill="#560705" transform="matrix(1.00, 0.00, -0.00, -1.00, 450.6, 170.0)"> </text><text xml:space="preserve" font-family="AvenirNext-Regular" font-size="26.0" fill="#560705" transform="matrix(1.00, 0.00, -0.00, -1.00, 457.1, 170.0)">с</text><text xml:space="preserve" font-family="AvenirNext-Regular" font-size="26.0" fill="#560705" transform="matrix(1.00, 0.00, -0.00, -1.00, 470.1, 170.0)">т</text><text xml:space="preserve" font-family="AvenirNext-Regular" font-size="26.0" fill="#560705" transform="matrix(1.00, 0.00, -0.00, -1.00, 481.3, 170.0)">р</text><text xml:space="preserve" font-family="AvenirNext-Regular" font-size="26.0" fill="#560705" transform="matrix(1.00, 0.00, -0.00, -1.00, 497.8, 170.0)">а</text><text xml:space="preserve" font-family="AvenirNext-Regular" font-size="26.0" fill="#560705" transform="matrix(1.00, 0.00, -0.00, -1.00, 511.7, 170.0)">н</text><text xml:space="preserve" font-family="AvenirNext-Regular" font-size="26.0" fill="#560705" transform="matrix(1.00, 0.00, -0.00, -1.00, 526.7, 170.0)">и</text><text xml:space="preserve" font-family="AvenirNext-Regular" font-size="26.0" fill="#560705" transform="matrix(1.00, 0.00, -0.00, -1.00, 542.2, 170.0)">ц</text><text xml:space="preserve" font-family="AvenirNext-Regular" font-size="26.0" fill="#560705" transform="matrix(1.00, 0.00, -0.00, -1.00, 557.1, 170.0)">а</text><text xml:space="preserve" font-family="AvenirNext-Regular" font-size="26.0" fill="#560705" transform="matrix(1.00, 0.00, -0.00, -1.00, 571.0, 170.0)"> </text><text xml:space="preserve" font-family="AvenirNext-Regular" font-size="26.0" fill="#560705" transform="matrix(1.00, 0.00, -0.00, -1.00, 577.5, 170.0)">(</text><text xml:space="preserve" font-family="AvenirNext-Regular" font-size="26.0" fill="#560705" transform="matrix(1.00, 0.00, -0.00, -1.00, 585.3, 170.0)">ф</text><text xml:space="preserve" font-family="AvenirNext-Regular" font-size="26.0" fill="#560705" transform="matrix(1.00, 0.00, -0.00, -1.00, 602.6, 170.0)">у</text><text xml:space="preserve" font-family="AvenirNext-Regular" font-size="26.0" fill="#560705" transform="matrix(1.00, 0.00, -0.00, -1.00, 615.3, 170.0)">н</text><text xml:space="preserve" font-family="AvenirNext-Regular" font-size="26.0" fill="#560705" transform="matrix(1.00, 0.00, -0.00, -1.00, 630.2, 170.0)">к</text><text xml:space="preserve" font-family="AvenirNext-Regular" font-size="26.0" fill="#560705" transform="matrix(1.00, 0.00, -0.00, -1.00, 644.4, 170.0)">ц</text><text xml:space="preserve" font-family="AvenirNext-Regular" font-size="26.0" fill="#560705" transform="matrix(1.00, 0.00, -0.00, -1.00, 659.2, 170.0)">и</text><text xml:space="preserve" font-family="AvenirNext-Regular" font-size="26.0" fill="#560705" transform="matrix(1.00, 0.00, -0.00, -1.00, 674.8, 170.0)">о</text><text xml:space="preserve" font-family="AvenirNext-Regular" font-size="26.0" fill="#560705" transform="matrix(1.00, 0.00, -0.00, -1.00, 690.7, 170.0)">н</text><text xml:space="preserve" font-family="AvenirNext-Regular" font-size="26.0" fill="#560705" transform="matrix(1.00, 0.00, -0.00, -1.00, 705.6, 170.0)">а</text><text xml:space="preserve" font-family="AvenirNext-Regular" font-size="26.0" fill="#560705" transform="matrix(1.00, 0.00, -0.00, -1.00, 719.5, 170.0)">л</text><text xml:space="preserve" font-family="AvenirNext-Regular" font-size="26.0" fill="#560705" transform="matrix(1.00, 0.00, -0.00, -1.00, 732.4, 170.0)">н</text><text xml:space="preserve" font-family="AvenirNext-Regular" font-size="26.0" fill="#560705" transform="matrix(1.00, 0.00, -0.00, -1.00, 747.4, 170.0)">о</text><text xml:space="preserve" font-family="AvenirNext-Regular" font-size="26.0" fill="#560705" transform="matrix(1.00, 0.00, -0.00, -1.00, 763.3, 170.0)">с</text><text xml:space="preserve" font-family="AvenirNext-Regular" font-size="26.0" fill="#560705" transform="matrix(1.00, 0.00, -0.00, -1.00, 776.3, 170.0)">т</text><text xml:space="preserve" font-family="AvenirNext-Regular" font-size="26.0" fill="#560705" transform="matrix(1.00, 0.00, -0.00, -1.00, 787.5, 170.0)">)</text></g></svg>