<?xml version="1.0" encoding="UTF-8" standalone="no"?><svg xmlns="http://www.w3.org/2000/svg" xmlns:xlink="http://www.w3.org/1999/xlink" clip-rule="evenodd" stroke-miterlimit="4.00" viewBox="0 0 1024 768"><desc>SVG generated by Keynote</desc><defs></defs><g transform="matrix(1.00, 0.00, -0.00, -1.00, 0.0, 768.0)"><g><clipPath id="clip-392"><path d="M 0.0 768.0 L 1024.0 768.0 L 1024.0 0.0 L 0.0 0.0 Z M 0.0 768.0 "></path></clipPath><g clip-path="url(#clip-392)"><image xlink:href="../../F3A67573-A2F2-4CB0-9E39-F1DCDA2903A2/assets/AC39DDDA7F4B68AA81B60DCA4AD5F611.png" width="864.00" height="540.00" transform="matrix(1.19, 0.00, -0.00, -1.42, 0.0, 768.0)"></image></g></g><text xml:space="preserve" font-family="AvenirNext-Regular" font-size="54.0" fill="#000000" transform="matrix(1.00, 0.00, -0.00, -1.00, 201.0, 406.0)">f</text><text xml:space="preserve" font-family="AvenirNext-Regular" font-size="54.0" fill="#000000" transform="matrix(1.00, 0.00, -0.00, -1.00, 216.9, 406.0)">r</text><text xml:space="preserve" font-family="AvenirNext-Regular" font-size="54.0" fill="#000000" transform="matrix(1.00, 0.00, -0.00, -1.00, 235.4, 406.0)">o</text><text xml:space="preserve" font-family="AvenirNext-Regular" font-size="54.0" fill="#000000" transform="matrix(1.00, 0.00, -0.00, -1.00, 268.4, 406.0)">n</text><text xml:space="preserve" font-family="AvenirNext-Regular" font-size="54.0" fill="#000000" transform="matrix(1.00, 0.00, -0.00, -1.00, 299.8, 406.0)">t</text><text xml:space="preserve" font-family="AvenirNext-Regular" font-size="54.0" fill="#000000" transform="matrix(1.00, 0.00, -0.00, -1.00, 316.9, 406.0)">-</text><text xml:space="preserve" font-family="AvenirNext-Regular" font-size="54.0" fill="#000000" transform="matrix(1.00, 0.00, -0.00, -1.00, 334.2, 406.0)">e</text><text xml:space="preserve" font-family="AvenirNext-Regular" font-size="54.0" fill="#000000" transform="matrix(1.00, 0.00, -0.00, -1.00, 365.1, 406.0)">n</text><text xml:space="preserve" font-family="AvenirNext-Regular" font-size="54.0" fill="#000000" transform="matrix(1.00, 0.00, -0.00, -1.00, 396.4, 406.0)">d</text><text xml:space="preserve" font-family="AvenirNext-Regular" font-size="54.0" fill="#000000" transform="matrix(1.00, 0.00, -0.00, -1.00, 430.8, 406.0)"> </text><text xml:space="preserve" font-family="AvenirNext-Regular" font-size="54.0" fill="#000000" transform="matrix(1.00, 0.00, -0.00, -1.00, 444.3, 406.0)">+</text><text xml:space="preserve" font-family="AvenirNext-Regular" font-size="54.0" fill="#000000" transform="matrix(1.00, 0.00, -0.00, -1.00, 480.3, 406.0)"> </text><text xml:space="preserve" font-family="AvenirNext-Regular" font-size="54.0" fill="#000000" transform="matrix(1.00, 0.00, -0.00, -1.00, 493.8, 406.0)">b</text><text xml:space="preserve" font-family="AvenirNext-Regular" font-size="54.0" fill="#000000" transform="matrix(1.00, 0.00, -0.00, -1.00, 528.2, 406.0)">a</text><text xml:space="preserve" font-family="AvenirNext-Regular" font-size="54.0" fill="#000000" transform="matrix(1.00, 0.00, -0.00, -1.00, 557.0, 406.0)">c</text><text xml:space="preserve" font-family="AvenirNext-Regular" font-size="54.0" fill="#000000" transform="matrix(1.00, 0.00, -0.00, -1.00, 584.0, 406.0)">k</text><text xml:space="preserve" font-family="AvenirNext-Regular" font-size="54.0" fill="#000000" transform="matrix(1.00, 0.00, -0.00, -1.00, 610.3, 406.0)">-</text><text xml:space="preserve" font-family="AvenirNext-Regular" font-size="54.0" fill="#000000" transform="matrix(1.00, 0.00, -0.00, -1.00, 627.5, 406.0)">e</text><text xml:space="preserve" font-family="AvenirNext-Regular" font-size="54.0" fill="#000000" transform="matrix(1.00, 0.00, -0.00, -1.00, 658.4, 406.0)">n</text><text xml:space="preserve" font-family="AvenirNext-Regular" font-size="54.0" fill="#000000" transform="matrix(1.00, 0.00, -0.00, -1.00, 689.8, 406.0)">d</text><text xml:space="preserve" font-family="AvenirNext-Regular" font-size="54.0" fill="#000000" transform="matrix(1.00, 0.00, -0.00, -1.00, 724.2, 406.0)"> </text><text xml:space="preserve" font-family="AvenirNext-Regular" font-size="54.0" fill="#000000" transform="matrix(1.00, 0.00, -0.00, -1.00, 737.7, 406.0)">=</text><text xml:space="preserve" font-family="AvenirNext-Regular" font-size="54.0" fill="#000000" transform="matrix(1.00, 0.00, -0.00, -1.00, 773.7, 406.0)"> </text><text xml:space="preserve" font-family="AvenirNext-Regular" font-size="54.0" fill="#000000" transform="matrix(1.00, 0.00, -0.00, -1.00, 787.2, 406.0)">.</text><text xml:space="preserve" font-family="AvenirNext-Regular" font-size="54.0" fill="#000000" transform="matrix(1.00, 0.00, -0.00, -1.00, 801.2, 406.0)">.</text><text xml:space="preserve" font-family="AvenirNext-Regular" font-size="54.0" fill="#000000" transform="matrix(1.00, 0.00, -0.00, -1.00, 815.2, 406.0)">?</text></g></svg>