<?xml version="1.0" encoding="UTF-8" standalone="no"?><svg xmlns="http://www.w3.org/2000/svg" xmlns:xlink="http://www.w3.org/1999/xlink" clip-rule="evenodd" stroke-miterlimit="4.00" viewBox="0 0 655 21"><desc>SVG generated by Keynote</desc><defs></defs><g transform="matrix(1.00, 0.00, -0.00, -1.00, 0.0, 21.0)"><text xml:space="preserve" font-family="AvenirNext-Regular" font-size="23.0" fill="#851001" transform="matrix(1.00, 0.00, -0.00, -1.00, 0.0, 8.0)">и</text><text xml:space="preserve" font-family="AvenirNext-Regular" font-size="23.0" fill="#851001" transform="matrix(1.00, 0.00, -0.00, -1.00, 13.8, 8.0)">з</text><text xml:space="preserve" font-family="AvenirNext-Regular" font-size="23.0" fill="#851001" transform="matrix(1.00, 0.00, -0.00, -1.00, 24.4, 8.0)">в</text><text xml:space="preserve" font-family="AvenirNext-Regular" font-size="23.0" fill="#851001" transform="matrix(1.00, 0.00, -0.00, -1.00, 36.9, 8.0)">ъ</text><text xml:space="preserve" font-family="AvenirNext-Regular" font-size="23.0" fill="#851001" transform="matrix(1.00, 0.00, -0.00, -1.00, 49.6, 8.0)">н</text><text xml:space="preserve" font-family="AvenirNext-Regular" font-size="23.0" fill="#851001" transform="matrix(1.00, 0.00, -0.00, -1.00, 62.8, 8.0)"> </text><text xml:space="preserve" font-family="AvenirNext-Regular" font-size="23.0" fill="#851001" transform="matrix(1.00, 0.00, -0.00, -1.00, 68.5, 8.0)">к</text><text xml:space="preserve" font-family="AvenirNext-Regular" font-size="23.0" fill="#851001" transform="matrix(1.00, 0.00, -0.00, -1.00, 81.0, 8.0)">о</text><text xml:space="preserve" font-family="AvenirNext-Regular" font-size="23.0" fill="#851001" transform="matrix(1.00, 0.00, -0.00, -1.00, 95.1, 8.0)">н</text><text xml:space="preserve" font-family="AvenirNext-Regular" font-size="23.0" fill="#851001" transform="matrix(1.00, 0.00, -0.00, -1.00, 108.3, 8.0)">т</text><text xml:space="preserve" font-family="AvenirNext-Regular" font-size="23.0" fill="#851001" transform="matrix(1.00, 0.00, -0.00, -1.00, 118.2, 8.0)">е</text><text xml:space="preserve" font-family="AvenirNext-Regular" font-size="23.0" fill="#851001" transform="matrix(1.00, 0.00, -0.00, -1.00, 131.4, 8.0)">к</text><text xml:space="preserve" font-family="AvenirNext-Regular" font-size="23.0" fill="#851001" transform="matrix(1.00, 0.00, -0.00, -1.00, 143.9, 8.0)">с</text><text xml:space="preserve" font-family="AvenirNext-Regular" font-size="23.0" fill="#851001" transform="matrix(1.00, 0.00, -0.00, -1.00, 155.4, 8.0)">т</text><text xml:space="preserve" font-family="AvenirNext-Regular" font-size="23.0" fill="#851001" transform="matrix(1.00, 0.00, -0.00, -1.00, 165.3, 8.0)">а</text><text xml:space="preserve" font-family="AvenirNext-Regular" font-size="23.0" fill="#851001" transform="matrix(1.00, 0.00, -0.00, -1.00, 177.6, 8.0)"> </text><text xml:space="preserve" font-family="AvenirNext-Regular" font-size="23.0" fill="#851001" transform="matrix(1.00, 0.00, -0.00, -1.00, 183.3, 8.0)">н</text><text xml:space="preserve" font-family="AvenirNext-Regular" font-size="23.0" fill="#851001" transform="matrix(1.00, 0.00, -0.00, -1.00, 196.5, 8.0)">а</text><text xml:space="preserve" font-family="AvenirNext-Regular" font-size="23.0" fill="#851001" transform="matrix(1.00, 0.00, -0.00, -1.00, 208.8, 8.0)"> </text><text xml:space="preserve" font-family="AvenirNext-Regular" font-size="23.0" fill="#851001" transform="matrix(1.00, 0.00, -0.00, -1.00, 214.6, 8.0)">р</text><text xml:space="preserve" font-family="AvenirNext-Regular" font-size="23.0" fill="#851001" transform="matrix(1.00, 0.00, -0.00, -1.00, 229.2, 8.0)">а</text><text xml:space="preserve" font-family="AvenirNext-Regular" font-size="23.0" fill="#851001" transform="matrix(1.00, 0.00, -0.00, -1.00, 241.5, 8.0)">з</text><text xml:space="preserve" font-family="AvenirNext-Regular" font-size="23.0" fill="#851001" transform="matrix(1.00, 0.00, -0.00, -1.00, 252.1, 8.0)">г</text><text xml:space="preserve" font-family="AvenirNext-Regular" font-size="23.0" fill="#851001" transform="matrix(1.00, 0.00, -0.00, -1.00, 261.0, 8.0)">о</text><text xml:space="preserve" font-family="AvenirNext-Regular" font-size="23.0" fill="#851001" transform="matrix(1.00, 0.00, -0.00, -1.00, 275.1, 8.0)">в</text><text xml:space="preserve" font-family="AvenirNext-Regular" font-size="23.0" fill="#851001" transform="matrix(1.00, 0.00, -0.00, -1.00, 287.5, 8.0)">о</text><text xml:space="preserve" font-family="AvenirNext-Regular" font-size="23.0" fill="#851001" transform="matrix(1.00, 0.00, -0.00, -1.00, 301.6, 8.0)">р</text><text xml:space="preserve" font-family="AvenirNext-Regular" font-size="23.0" fill="#851001" transform="matrix(1.00, 0.00, -0.00, -1.00, 316.2, 8.0)">а</text><text xml:space="preserve" font-family="AvenirNext-Regular" font-size="23.0" fill="#851001" transform="matrix(1.00, 0.00, -0.00, -1.00, 328.5, 8.0)">,</text><text xml:space="preserve" font-family="AvenirNext-Regular" font-size="23.0" fill="#851001" transform="matrix(1.00, 0.00, -0.00, -1.00, 333.8, 8.0)"> </text><text xml:space="preserve" font-family="AvenirNext-Regular" font-size="23.0" fill="#851001" transform="matrix(1.00, 0.00, -0.00, -1.00, 339.5, 8.0)">т</text><text xml:space="preserve" font-family="AvenirNext-Regular" font-size="23.0" fill="#851001" transform="matrix(1.00, 0.00, -0.00, -1.00, 349.4, 8.0)">о</text><text xml:space="preserve" font-family="AvenirNext-Regular" font-size="23.0" fill="#851001" transform="matrix(1.00, 0.00, -0.00, -1.00, 363.5, 8.0)">в</text><text xml:space="preserve" font-family="AvenirNext-Regular" font-size="23.0" fill="#851001" transform="matrix(1.00, 0.00, -0.00, -1.00, 375.9, 8.0)">а</text><text xml:space="preserve" font-family="AvenirNext-Regular" font-size="23.0" fill="#851001" transform="matrix(1.00, 0.00, -0.00, -1.00, 388.2, 8.0)"> </text><text xml:space="preserve" font-family="AvenirNext-Regular" font-size="23.0" fill="#851001" transform="matrix(1.00, 0.00, -0.00, -1.00, 393.9, 8.0)">и</text><text xml:space="preserve" font-family="AvenirNext-Regular" font-size="23.0" fill="#851001" transform="matrix(1.00, 0.00, -0.00, -1.00, 407.7, 8.0)">з</text><text xml:space="preserve" font-family="AvenirNext-Regular" font-size="23.0" fill="#851001" transform="matrix(1.00, 0.00, -0.00, -1.00, 418.4, 8.0)">р</text><text xml:space="preserve" font-family="AvenirNext-Regular" font-size="23.0" fill="#851001" transform="matrix(1.00, 0.00, -0.00, -1.00, 433.0, 8.0)">е</text><text xml:space="preserve" font-family="AvenirNext-Regular" font-size="23.0" fill="#851001" transform="matrix(1.00, 0.00, -0.00, -1.00, 446.1, 8.0)">ч</text><text xml:space="preserve" font-family="AvenirNext-Regular" font-size="23.0" fill="#851001" transform="matrix(1.00, 0.00, -0.00, -1.00, 458.0, 8.0)">е</text><text xml:space="preserve" font-family="AvenirNext-Regular" font-size="23.0" fill="#851001" transform="matrix(1.00, 0.00, -0.00, -1.00, 471.2, 8.0)">н</text><text xml:space="preserve" font-family="AvenirNext-Regular" font-size="23.0" fill="#851001" transform="matrix(1.00, 0.00, -0.00, -1.00, 484.4, 8.0)">и</text><text xml:space="preserve" font-family="AvenirNext-Regular" font-size="23.0" fill="#851001" transform="matrix(1.00, 0.00, -0.00, -1.00, 498.2, 8.0)">е</text><text xml:space="preserve" font-family="AvenirNext-Regular" font-size="23.0" fill="#851001" transform="matrix(1.00, 0.00, -0.00, -1.00, 511.3, 8.0)"> </text><text xml:space="preserve" font-family="AvenirNext-Regular" font-size="23.0" fill="#851001" transform="matrix(1.00, 0.00, -0.00, -1.00, 517.1, 8.0)">н</text><text xml:space="preserve" font-family="AvenirNext-Regular" font-size="23.0" fill="#851001" transform="matrix(1.00, 0.00, -0.00, -1.00, 530.3, 8.0)">я</text><text xml:space="preserve" font-family="AvenirNext-Regular" font-size="23.0" fill="#851001" transform="matrix(1.00, 0.00, -0.00, -1.00, 542.7, 8.0)">м</text><text xml:space="preserve" font-family="AvenirNext-Regular" font-size="23.0" fill="#851001" transform="matrix(1.00, 0.00, -0.00, -1.00, 558.7, 8.0)">а</text><text xml:space="preserve" font-family="AvenirNext-Regular" font-size="23.0" fill="#851001" transform="matrix(1.00, 0.00, -0.00, -1.00, 571.0, 8.0)"> </text><text xml:space="preserve" font-family="AvenirNext-Regular" font-size="23.0" fill="#851001" transform="matrix(1.00, 0.00, -0.00, -1.00, 576.7, 8.0)">с</text><text xml:space="preserve" font-family="AvenirNext-Regular" font-size="23.0" fill="#851001" transform="matrix(1.00, 0.00, -0.00, -1.00, 588.2, 8.0)">м</text><text xml:space="preserve" font-family="AvenirNext-Regular" font-size="23.0" fill="#851001" transform="matrix(1.00, 0.00, -0.00, -1.00, 604.2, 8.0)">и</text><text xml:space="preserve" font-family="AvenirNext-Regular" font-size="23.0" fill="#851001" transform="matrix(1.00, 0.00, -0.00, -1.00, 618.0, 8.0)">с</text><text xml:space="preserve" font-family="AvenirNext-Regular" font-size="23.0" fill="#851001" transform="matrix(1.00, 0.00, -0.00, -1.00, 629.5, 8.0)">ъ</text><text xml:space="preserve" font-family="AvenirNext-Regular" font-size="23.0" fill="#851001" transform="matrix(1.00, 0.00, -0.00, -1.00, 642.2, 8.0)">л</text></g></svg>