<?xml version="1.0" encoding="UTF-8" standalone="no"?><svg xmlns="http://www.w3.org/2000/svg" xmlns:xlink="http://www.w3.org/1999/xlink" clip-rule="evenodd" stroke-miterlimit="4.00" viewBox="0 0 1024 768"><desc>SVG generated by Keynote</desc><defs></defs><g transform="matrix(1.00, 0.00, -0.00, -1.00, 0.0, 768.0)"><g><clipPath id="clip-479"><path d="M 0.0 768.0 L 1024.0 768.0 L 1024.0 0.0 L 0.0 0.0 Z M 0.0 768.0 "></path></clipPath><g clip-path="url(#clip-479)"><image xlink:href="../../8F6754E5-F402-453C-8A28-A81B776A4759/assets/370422EB796A13E2672D714038217573.png" width="720.00" height="450.00" transform="matrix(1.42, 0.00, -0.00, -1.71, 0.0, 768.0)"></image></g></g><text xml:space="preserve" font-family="AvenirNext-Regular" font-size="60.0" fill="#000000" transform="matrix(1.00, 0.00, -0.00, -1.00, 210.0, 654.0)">К</text><text xml:space="preserve" font-family="AvenirNext-Regular" font-size="60.0" fill="#000000" transform="matrix(1.00, 0.00, -0.00, -1.00, 251.5, 654.0)">о</text><text xml:space="preserve" font-family="AvenirNext-Regular" font-size="60.0" fill="#000000" transform="matrix(1.00, 0.00, -0.00, -1.00, 288.1, 654.0)">н</text><text xml:space="preserve" font-family="AvenirNext-Regular" font-size="60.0" fill="#000000" transform="matrix(1.00, 0.00, -0.00, -1.00, 322.6, 654.0)">т</text><text xml:space="preserve" font-family="AvenirNext-Regular" font-size="60.0" fill="#000000" transform="matrix(1.00, 0.00, -0.00, -1.00, 348.5, 654.0)">е</text><text xml:space="preserve" font-family="AvenirNext-Regular" font-size="60.0" fill="#000000" transform="matrix(1.00, 0.00, -0.00, -1.00, 382.8, 654.0)">к</text><text xml:space="preserve" font-family="AvenirNext-Regular" font-size="60.0" fill="#000000" transform="matrix(1.00, 0.00, -0.00, -1.00, 415.4, 654.0)">с</text><text xml:space="preserve" font-family="AvenirNext-Regular" font-size="60.0" fill="#000000" transform="matrix(1.00, 0.00, -0.00, -1.00, 445.4, 654.0)">т</text><text xml:space="preserve" font-family="AvenirNext-Regular" font-size="60.0" fill="#000000" transform="matrix(1.00, 0.00, -0.00, -1.00, 471.2, 654.0)"> </text><text xml:space="preserve" font-family="AvenirNext-Regular" font-size="60.0" fill="#000000" transform="matrix(1.00, 0.00, -0.00, -1.00, 486.2, 654.0)">в</text><text xml:space="preserve" font-family="AvenirNext-Regular" font-size="60.0" fill="#000000" transform="matrix(1.00, 0.00, -0.00, -1.00, 518.7, 654.0)"> </text><text xml:space="preserve" font-family="AvenirNext-Regular" font-size="60.0" fill="#000000" transform="matrix(1.00, 0.00, -0.00, -1.00, 533.7, 654.0)">J</text><text xml:space="preserve" font-family="AvenirNext-Regular" font-size="60.0" fill="#000000" transform="matrix(1.00, 0.00, -0.00, -1.00, 562.9, 654.0)">a</text><text xml:space="preserve" font-family="AvenirNext-Regular" font-size="60.0" fill="#000000" transform="matrix(1.00, 0.00, -0.00, -1.00, 594.9, 654.0)">v</text><text xml:space="preserve" font-family="AvenirNext-Regular" font-size="60.0" fill="#000000" transform="matrix(1.00, 0.00, -0.00, -1.00, 624.2, 654.0)">a</text><text xml:space="preserve" font-family="AvenirNext-Regular" font-size="60.0" fill="#000000" transform="matrix(1.00, 0.00, -0.00, -1.00, 656.2, 654.0)">S</text><text xml:space="preserve" font-family="AvenirNext-Regular" font-size="60.0" fill="#000000" transform="matrix(1.00, 0.00, -0.00, -1.00, 690.1, 654.0)">c</text><text xml:space="preserve" font-family="AvenirNext-Regular" font-size="60.0" fill="#000000" transform="matrix(1.00, 0.00, -0.00, -1.00, 720.1, 654.0)">r</text><text xml:space="preserve" font-family="AvenirNext-Regular" font-size="60.0" fill="#000000" transform="matrix(1.00, 0.00, -0.00, -1.00, 741.7, 654.0)">i</text><text xml:space="preserve" font-family="AvenirNext-Regular" font-size="60.0" fill="#000000" transform="matrix(1.00, 0.00, -0.00, -1.00, 756.7, 654.0)">p</text><text xml:space="preserve" font-family="AvenirNext-Regular" font-size="60.0" fill="#000000" transform="matrix(1.00, 0.00, -0.00, -1.00, 794.8, 654.0)">t</text></g></svg>