<?xml version="1.0" encoding="UTF-8" standalone="no"?><svg xmlns="http://www.w3.org/2000/svg" xmlns:xlink="http://www.w3.org/1999/xlink" clip-rule="evenodd" stroke-miterlimit="4.00" viewBox="0 0 235 27"><desc>SVG generated by Keynote</desc><defs></defs><g transform="matrix(1.00, 0.00, -0.00, -1.00, 0.0, 27.0)"><text xml:space="preserve" font-family="CourierNewPS-BoldMT" font-weight="bold" font-size="26.0" fill="#00872A" transform="matrix(1.00, 0.00, -0.00, -1.00, 0.0, 6.0)">/</text><text xml:space="preserve" font-family="CourierNewPS-BoldMT" font-weight="bold" font-size="26.0" fill="#00872A" transform="matrix(1.00, 0.00, -0.00, -1.00, 15.6, 6.0)">/</text><text xml:space="preserve" font-family="CourierNewPS-BoldMT" font-weight="bold" font-size="26.0" fill="#00872A" transform="matrix(1.00, 0.00, -0.00, -1.00, 31.2, 6.0)"> </text><text xml:space="preserve" font-family="CourierNewPS-BoldMT" font-weight="bold" font-size="26.0" fill="#00872A" transform="matrix(1.00, 0.00, -0.00, -1.00, 46.8, 6.0)">o</text><text xml:space="preserve" font-family="CourierNewPS-BoldMT" font-weight="bold" font-size="26.0" fill="#00872A" transform="matrix(1.00, 0.00, -0.00, -1.00, 62.4, 6.0)">k</text><text xml:space="preserve" font-family="CourierNewPS-BoldMT" font-weight="bold" font-size="26.0" fill="#00872A" transform="matrix(1.00, 0.00, -0.00, -1.00, 78.0, 6.0)">,</text><text xml:space="preserve" font-family="CourierNewPS-BoldMT" font-weight="bold" font-size="26.0" fill="#00872A" transform="matrix(1.00, 0.00, -0.00, -1.00, 93.6, 6.0)"> </text><text xml:space="preserve" font-family="CourierNewPS-BoldMT" font-weight="bold" font-size="26.0" fill="#00872A" transform="matrix(1.00, 0.00, -0.00, -1.00, 109.2, 6.0)">I</text><text xml:space="preserve" font-family="CourierNewPS-BoldMT" font-weight="bold" font-size="26.0" fill="#00872A" transform="matrix(1.00, 0.00, -0.00, -1.00, 124.8, 6.0)"> </text><text xml:space="preserve" font-family="CourierNewPS-BoldMT" font-weight="bold" font-size="26.0" fill="#00872A" transform="matrix(1.00, 0.00, -0.00, -1.00, 140.4, 6.0)">k</text><text xml:space="preserve" font-family="CourierNewPS-BoldMT" font-weight="bold" font-size="26.0" fill="#00872A" transform="matrix(1.00, 0.00, -0.00, -1.00, 156.1, 6.0)">n</text><text xml:space="preserve" font-family="CourierNewPS-BoldMT" font-weight="bold" font-size="26.0" fill="#00872A" transform="matrix(1.00, 0.00, -0.00, -1.00, 171.7, 6.0)">o</text><text xml:space="preserve" font-family="CourierNewPS-BoldMT" font-weight="bold" font-size="26.0" fill="#00872A" transform="matrix(1.00, 0.00, -0.00, -1.00, 187.3, 6.0)">w</text><text xml:space="preserve" font-family="CourierNewPS-BoldMT" font-weight="bold" font-size="26.0" fill="#00872A" transform="matrix(1.00, 0.00, -0.00, -1.00, 202.9, 6.0)"> </text><text xml:space="preserve" font-family="CourierNewPS-BoldMT" font-weight="bold" font-size="26.0" fill="#00872A" transform="matrix(1.00, 0.00, -0.00, -1.00, 218.5, 6.0)">x</text></g></svg>