<?xml version="1.0" encoding="UTF-8" standalone="no"?><svg xmlns="http://www.w3.org/2000/svg" xmlns:xlink="http://www.w3.org/1999/xlink" clip-rule="evenodd" stroke-miterlimit="4.00" viewBox="0 0 796 66"><desc>SVG generated by Keynote</desc><defs></defs><g transform="matrix(1.00, 0.00, -0.00, -1.00, 0.0, 66.0)"><text xml:space="preserve" font-family="AvenirNext-Regular" font-size="24.3" fill="#000000" transform="matrix(1.00, 0.00, -0.00, -1.00, 0.0, 41.1)">•</text><text xml:space="preserve" font-family="AvenirNext-Regular" font-size="24.3" fill="#000000" transform="matrix(1.00, 0.00, -0.00, -1.00, 40.0, 41.0)">П</text><text xml:space="preserve" font-family="AvenirNext-Regular" font-size="24.3" fill="#000000" transform="matrix(1.00, 0.00, -0.00, -1.00, 57.0, 41.0)">о</text><text xml:space="preserve" font-family="AvenirNext-Regular" font-size="24.3" fill="#000000" transform="matrix(1.00, 0.00, -0.00, -1.00, 71.8, 41.0)">р</text><text xml:space="preserve" font-family="AvenirNext-Regular" font-size="24.3" fill="#000000" transform="matrix(1.00, 0.00, -0.00, -1.00, 87.3, 41.0)">а</text><text xml:space="preserve" font-family="AvenirNext-Regular" font-size="24.3" fill="#000000" transform="matrix(1.00, 0.00, -0.00, -1.00, 100.3, 41.0)">д</text><text xml:space="preserve" font-family="AvenirNext-Regular" font-size="24.3" fill="#000000" transform="matrix(1.00, 0.00, -0.00, -1.00, 113.5, 41.0)">и</text><text xml:space="preserve" font-family="AvenirNext-Regular" font-size="24.3" fill="#000000" transform="matrix(1.00, 0.00, -0.00, -1.00, 128.1, 41.0)"> </text><text xml:space="preserve" font-family="AvenirNext-Regular" font-size="24.3" fill="#000000" transform="matrix(1.00, 0.00, -0.00, -1.00, 134.1, 41.0)">т</text><text xml:space="preserve" font-family="AvenirNext-Regular" font-size="24.3" fill="#000000" transform="matrix(1.00, 0.00, -0.00, -1.00, 144.6, 41.0)">а</text><text xml:space="preserve" font-family="AvenirNext-Regular" font-size="24.3" fill="#000000" transform="matrix(1.00, 0.00, -0.00, -1.00, 157.6, 41.0)">з</text><text xml:space="preserve" font-family="AvenirNext-Regular" font-size="24.3" fill="#000000" transform="matrix(1.00, 0.00, -0.00, -1.00, 168.9, 41.0)">и</text><text xml:space="preserve" font-family="AvenirNext-Regular" font-size="24.3" fill="#000000" transform="matrix(1.00, 0.00, -0.00, -1.00, 183.4, 41.0)"> </text><text xml:space="preserve" font-family="AvenirNext-Regular" font-size="24.3" fill="#000000" transform="matrix(1.00, 0.00, -0.00, -1.00, 189.5, 41.0)">п</text><text xml:space="preserve" font-family="AvenirNext-Regular" font-size="24.3" fill="#000000" transform="matrix(1.00, 0.00, -0.00, -1.00, 203.3, 41.0)">р</text><text xml:space="preserve" font-family="AvenirNext-Regular" font-size="24.3" fill="#000000" transform="matrix(1.00, 0.00, -0.00, -1.00, 218.8, 41.0)">и</text><text xml:space="preserve" font-family="AvenirNext-Regular" font-size="24.3" fill="#000000" transform="matrix(1.00, 0.00, -0.00, -1.00, 233.3, 41.0)">ч</text><text xml:space="preserve" font-family="AvenirNext-Regular" font-size="24.3" fill="#000000" transform="matrix(1.00, 0.00, -0.00, -1.00, 245.9, 41.0)">и</text><text xml:space="preserve" font-family="AvenirNext-Regular" font-size="24.3" fill="#000000" transform="matrix(1.00, 0.00, -0.00, -1.00, 260.4, 41.0)">н</text><text xml:space="preserve" font-family="AvenirNext-Regular" font-size="24.3" fill="#000000" transform="matrix(1.00, 0.00, -0.00, -1.00, 274.4, 41.0)">а</text><text xml:space="preserve" font-family="AvenirNext-Regular" font-size="24.3" fill="#000000" transform="matrix(1.00, 0.00, -0.00, -1.00, 287.4, 41.0)">,</text><text xml:space="preserve" font-family="AvenirNext-Regular" font-size="24.3" fill="#000000" transform="matrix(1.00, 0.00, -0.00, -1.00, 293.0, 41.0)"> </text><text xml:space="preserve" font-family="AvenirNext-Regular" font-size="24.3" fill="#000000" transform="matrix(1.00, 0.00, -0.00, -1.00, 299.1, 41.0)">с</text><text xml:space="preserve" font-family="AvenirNext-Regular" font-size="24.3" fill="#000000" transform="matrix(1.00, 0.00, -0.00, -1.00, 311.2, 41.0)">т</text><text xml:space="preserve" font-family="AvenirNext-Regular" font-size="24.3" fill="#000000" transform="matrix(1.00, 0.00, -0.00, -1.00, 321.7, 41.0)">а</text><text xml:space="preserve" font-family="AvenirNext-Regular" font-size="24.3" fill="#000000" transform="matrix(1.00, 0.00, -0.00, -1.00, 334.7, 41.0)">в</text><text xml:space="preserve" font-family="AvenirNext-Regular" font-size="24.3" fill="#000000" transform="matrix(1.00, 0.00, -0.00, -1.00, 347.9, 41.0)">а</text><text xml:space="preserve" font-family="AvenirNext-Regular" font-size="24.3" fill="#000000" transform="matrix(1.00, 0.00, -0.00, -1.00, 360.9, 41.0)"> </text><text xml:space="preserve" font-family="AvenirNext-Regular" font-size="24.3" fill="#000000" transform="matrix(1.00, 0.00, -0.00, -1.00, 366.9, 41.0)">н</text><text xml:space="preserve" font-family="AvenirNext-Regular" font-size="24.3" fill="#000000" transform="matrix(1.00, 0.00, -0.00, -1.00, 380.9, 41.0)">е</text><text xml:space="preserve" font-family="AvenirNext-Regular" font-size="24.3" fill="#000000" transform="matrix(1.00, 0.00, -0.00, -1.00, 394.8, 41.0)">о</text><text xml:space="preserve" font-family="AvenirNext-Regular" font-size="24.3" fill="#000000" transform="matrix(1.00, 0.00, -0.00, -1.00, 409.7, 41.0)">б</text><text xml:space="preserve" font-family="AvenirNext-Regular" font-size="24.3" fill="#000000" transform="matrix(1.00, 0.00, -0.00, -1.00, 424.3, 41.0)">х</text><text xml:space="preserve" font-family="AvenirNext-Regular" font-size="24.3" fill="#000000" transform="matrix(1.00, 0.00, -0.00, -1.00, 436.0, 41.0)">о</text><text xml:space="preserve" font-family="AvenirNext-Regular" font-size="24.3" fill="#000000" transform="matrix(1.00, 0.00, -0.00, -1.00, 450.9, 41.0)">д</text><text xml:space="preserve" font-family="AvenirNext-Regular" font-size="24.3" fill="#000000" transform="matrix(1.00, 0.00, -0.00, -1.00, 464.1, 41.0)">и</text><text xml:space="preserve" font-family="AvenirNext-Regular" font-size="24.3" fill="#000000" transform="matrix(1.00, 0.00, -0.00, -1.00, 478.7, 41.0)">м</text><text xml:space="preserve" font-family="AvenirNext-Regular" font-size="24.3" fill="#000000" transform="matrix(1.00, 0.00, -0.00, -1.00, 495.6, 41.0)">о</text><text xml:space="preserve" font-family="AvenirNext-Regular" font-size="24.3" fill="#000000" transform="matrix(1.00, 0.00, -0.00, -1.00, 510.4, 41.0)"> </text><text xml:space="preserve" font-family="AvenirNext-Regular" font-size="24.3" fill="#000000" transform="matrix(1.00, 0.00, -0.00, -1.00, 516.5, 41.0)">д</text><text xml:space="preserve" font-family="AvenirNext-Regular" font-size="24.3" fill="#000000" transform="matrix(1.00, 0.00, -0.00, -1.00, 529.8, 41.0)">а</text><text xml:space="preserve" font-family="AvenirNext-Regular" font-size="24.3" fill="#000000" transform="matrix(1.00, 0.00, -0.00, -1.00, 542.7, 41.0)"> </text><text xml:space="preserve" font-family="AvenirNext-Regular" font-size="24.3" fill="#000000" transform="matrix(1.00, 0.00, -0.00, -1.00, 548.8, 41.0)">б</text><text xml:space="preserve" font-family="AvenirNext-Regular" font-size="24.3" fill="#000000" transform="matrix(1.00, 0.00, -0.00, -1.00, 563.4, 41.0)">ъ</text><text xml:space="preserve" font-family="AvenirNext-Regular" font-size="24.3" fill="#000000" transform="matrix(1.00, 0.00, -0.00, -1.00, 576.8, 41.0)">д</text><text xml:space="preserve" font-family="AvenirNext-Regular" font-size="24.3" fill="#000000" transform="matrix(1.00, 0.00, -0.00, -1.00, 590.0, 41.0)">е</text><text xml:space="preserve" font-family="AvenirNext-Regular" font-size="24.3" fill="#000000" transform="matrix(1.00, 0.00, -0.00, -1.00, 604.0, 41.0)"> </text><text xml:space="preserve" font-family="AvenirNext-Regular" font-size="24.3" fill="#000000" transform="matrix(1.00, 0.00, -0.00, -1.00, 610.0, 41.0)">в</text><text xml:space="preserve" font-family="AvenirNext-Regular" font-size="24.3" fill="#000000" transform="matrix(1.00, 0.00, -0.00, -1.00, 623.2, 41.0)">ъ</text><text xml:space="preserve" font-family="AvenirNext-Regular" font-size="24.3" fill="#000000" transform="matrix(1.00, 0.00, -0.00, -1.00, 636.6, 41.0)">в</text><text xml:space="preserve" font-family="AvenirNext-Regular" font-size="24.3" fill="#000000" transform="matrix(1.00, 0.00, -0.00, -1.00, 649.8, 41.0)">е</text><text xml:space="preserve" font-family="AvenirNext-Regular" font-size="24.3" fill="#000000" transform="matrix(1.00, 0.00, -0.00, -1.00, 663.7, 41.0)">д</text><text xml:space="preserve" font-family="AvenirNext-Regular" font-size="24.3" fill="#000000" transform="matrix(1.00, 0.00, -0.00, -1.00, 676.9, 41.0)">е</text><text xml:space="preserve" font-family="AvenirNext-Regular" font-size="24.3" fill="#000000" transform="matrix(1.00, 0.00, -0.00, -1.00, 690.8, 41.0)">н</text><text xml:space="preserve" font-family="AvenirNext-Regular" font-size="24.3" fill="#000000" transform="matrix(1.00, 0.00, -0.00, -1.00, 704.8, 41.0)"> </text><text xml:space="preserve" font-family="AvenirNext-Regular" font-size="24.3" fill="#000000" transform="matrix(1.00, 0.00, -0.00, -1.00, 710.9, 41.0)">е</text><text xml:space="preserve" font-family="AvenirNext-Regular" font-size="24.3" fill="#000000" transform="matrix(1.00, 0.00, -0.00, -1.00, 724.8, 41.0)">д</text><text xml:space="preserve" font-family="AvenirNext-Regular" font-size="24.3" fill="#000000" transform="matrix(1.00, 0.00, -0.00, -1.00, 738.0, 41.0)">и</text><text xml:space="preserve" font-family="AvenirNext-Regular" font-size="24.3" fill="#000000" transform="matrix(1.00, 0.00, -0.00, -1.00, 752.6, 41.0)">н</text><text xml:space="preserve" font-family="AvenirNext-Regular" font-size="24.3" fill="#000000" transform="matrix(1.00, 0.00, -0.00, -1.00, 766.6, 41.0)">е</text><text xml:space="preserve" font-family="AvenirNext-Regular" font-size="24.3" fill="#000000" transform="matrix(1.00, 0.00, -0.00, -1.00, 780.5, 41.0)">н</text><text xml:space="preserve" font-family="AvenirNext-Regular" font-size="24.3" fill="#000000" transform="matrix(1.00, 0.00, -0.00, -1.00, 794.5, 41.0)"> </text><text xml:space="preserve" font-family="AvenirNext-Regular" font-size="24.3" fill="#000000" transform="matrix(1.00, 0.00, -0.00, -1.00, 40.0, 8.0)">с</text><text xml:space="preserve" font-family="AvenirNext-Regular" font-size="24.3" fill="#000000" transform="matrix(1.00, 0.00, -0.00, -1.00, 52.2, 8.0)">т</text><text xml:space="preserve" font-family="AvenirNext-Regular" font-size="24.3" fill="#000000" transform="matrix(1.00, 0.00, -0.00, -1.00, 62.6, 8.0)">а</text><text xml:space="preserve" font-family="AvenirNext-Regular" font-size="24.3" fill="#000000" transform="matrix(1.00, 0.00, -0.00, -1.00, 75.6, 8.0)">н</text><text xml:space="preserve" font-family="AvenirNext-Regular" font-size="24.3" fill="#000000" transform="matrix(1.00, 0.00, -0.00, -1.00, 89.6, 8.0)">д</text><text xml:space="preserve" font-family="AvenirNext-Regular" font-size="24.3" fill="#000000" transform="matrix(1.00, 0.00, -0.00, -1.00, 102.8, 8.0)">а</text><text xml:space="preserve" font-family="AvenirNext-Regular" font-size="24.3" fill="#000000" transform="matrix(1.00, 0.00, -0.00, -1.00, 115.8, 8.0)">р</text><text xml:space="preserve" font-family="AvenirNext-Regular" font-size="24.3" fill="#000000" transform="matrix(1.00, 0.00, -0.00, -1.00, 131.3, 8.0)">т</text><text xml:space="preserve" font-family="AvenirNext-Regular" font-size="24.3" fill="#000000" transform="matrix(1.00, 0.00, -0.00, -1.00, 141.8, 8.0)"> </text><text xml:space="preserve" font-family="AvenirNext-Regular" font-size="24.3" fill="#000000" transform="matrix(1.00, 0.00, -0.00, -1.00, 147.8, 8.0)">з</text><text xml:space="preserve" font-family="AvenirNext-Regular" font-size="24.3" fill="#000000" transform="matrix(1.00, 0.00, -0.00, -1.00, 159.1, 8.0)">а</text><text xml:space="preserve" font-family="AvenirNext-Regular" font-size="24.3" fill="#000000" transform="matrix(1.00, 0.00, -0.00, -1.00, 172.1, 8.0)"> </text><text xml:space="preserve" font-family="AvenirNext-Regular" font-size="24.3" fill="#000000" transform="matrix(1.00, 0.00, -0.00, -1.00, 178.2, 8.0)">т</text><text xml:space="preserve" font-family="AvenirNext-Regular" font-size="24.3" fill="#000000" transform="matrix(1.00, 0.00, -0.00, -1.00, 188.6, 8.0)">о</text><text xml:space="preserve" font-family="AvenirNext-Regular" font-size="24.3" fill="#000000" transform="matrix(1.00, 0.00, -0.00, -1.00, 203.5, 8.0)">в</text><text xml:space="preserve" font-family="AvenirNext-Regular" font-size="24.3" fill="#000000" transform="matrix(1.00, 0.00, -0.00, -1.00, 216.7, 8.0)">а</text><text xml:space="preserve" font-family="AvenirNext-Regular" font-size="24.3" fill="#000000" transform="matrix(1.00, 0.00, -0.00, -1.00, 229.6, 8.0)">,</text><text xml:space="preserve" font-family="AvenirNext-Regular" font-size="24.3" fill="#000000" transform="matrix(1.00, 0.00, -0.00, -1.00, 235.2, 8.0)"> </text><text xml:space="preserve" font-family="AvenirNext-Regular" font-size="24.3" fill="#000000" transform="matrix(1.00, 0.00, -0.00, -1.00, 241.3, 8.0)">к</text><text xml:space="preserve" font-family="AvenirNext-Regular" font-size="24.3" fill="#000000" transform="matrix(1.00, 0.00, -0.00, -1.00, 254.5, 8.0)">а</text><text xml:space="preserve" font-family="AvenirNext-Regular" font-size="24.3" fill="#000000" transform="matrix(1.00, 0.00, -0.00, -1.00, 267.5, 8.0)">к</text><text xml:space="preserve" font-family="AvenirNext-Regular" font-size="24.3" fill="#000000" transform="matrix(1.00, 0.00, -0.00, -1.00, 280.7, 8.0)">в</text><text xml:space="preserve" font-family="AvenirNext-Regular" font-size="24.3" fill="#000000" transform="matrix(1.00, 0.00, -0.00, -1.00, 293.9, 8.0)">о</text><text xml:space="preserve" font-family="AvenirNext-Regular" font-size="24.3" fill="#000000" transform="matrix(1.00, 0.00, -0.00, -1.00, 308.7, 8.0)"> </text><text xml:space="preserve" font-family="AvenirNext-Regular" font-size="24.3" fill="#000000" transform="matrix(1.00, 0.00, -0.00, -1.00, 314.8, 8.0)">п</text><text xml:space="preserve" font-family="AvenirNext-Regular" font-size="24.3" fill="#000000" transform="matrix(1.00, 0.00, -0.00, -1.00, 328.6, 8.0)">р</text><text xml:space="preserve" font-family="AvenirNext-Regular" font-size="24.3" fill="#000000" transform="matrix(1.00, 0.00, -0.00, -1.00, 344.0, 8.0)">е</text><text xml:space="preserve" font-family="AvenirNext-Regular" font-size="24.3" fill="#000000" transform="matrix(1.00, 0.00, -0.00, -1.00, 358.0, 8.0)">д</text><text xml:space="preserve" font-family="AvenirNext-Regular" font-size="24.3" fill="#000000" transform="matrix(1.00, 0.00, -0.00, -1.00, 371.2, 8.0)">с</text><text xml:space="preserve" font-family="AvenirNext-Regular" font-size="24.3" fill="#000000" transform="matrix(1.00, 0.00, -0.00, -1.00, 383.3, 8.0)">т</text><text xml:space="preserve" font-family="AvenirNext-Regular" font-size="24.3" fill="#000000" transform="matrix(1.00, 0.00, -0.00, -1.00, 393.8, 8.0)">а</text><text xml:space="preserve" font-family="AvenirNext-Regular" font-size="24.3" fill="#000000" transform="matrix(1.00, 0.00, -0.00, -1.00, 406.8, 8.0)">в</text><text xml:space="preserve" font-family="AvenirNext-Regular" font-size="24.3" fill="#000000" transform="matrix(1.00, 0.00, -0.00, -1.00, 420.0, 8.0)">л</text><text xml:space="preserve" font-family="AvenirNext-Regular" font-size="24.3" fill="#000000" transform="matrix(1.00, 0.00, -0.00, -1.00, 432.1, 8.0)">я</text><text xml:space="preserve" font-family="AvenirNext-Regular" font-size="24.3" fill="#000000" transform="matrix(1.00, 0.00, -0.00, -1.00, 445.2, 8.0)">в</text><text xml:space="preserve" font-family="AvenirNext-Regular" font-size="24.3" fill="#000000" transform="matrix(1.00, 0.00, -0.00, -1.00, 458.3, 8.0)">а</text><text xml:space="preserve" font-family="AvenirNext-Regular" font-size="24.3" fill="#000000" transform="matrix(1.00, 0.00, -0.00, -1.00, 471.3, 8.0)"> </text><text xml:space="preserve" font-family="AvenirNext-Regular" font-size="24.3" fill="#000000" transform="matrix(1.00, 0.00, -0.00, -1.00, 477.4, 8.0)">и</text><text xml:space="preserve" font-family="AvenirNext-Regular" font-size="24.3" fill="#000000" transform="matrix(1.00, 0.00, -0.00, -1.00, 492.0, 8.0)"> </text><text xml:space="preserve" font-family="AvenirNext-Regular" font-size="24.3" fill="#000000" transform="matrix(1.00, 0.00, -0.00, -1.00, 498.0, 8.0)">к</text><text xml:space="preserve" font-family="AvenirNext-Regular" font-size="24.3" fill="#000000" transform="matrix(1.00, 0.00, -0.00, -1.00, 511.2, 8.0)">а</text><text xml:space="preserve" font-family="AvenirNext-Regular" font-size="24.3" fill="#000000" transform="matrix(1.00, 0.00, -0.00, -1.00, 524.2, 8.0)">к</text><text xml:space="preserve" font-family="AvenirNext-Regular" font-size="24.3" fill="#000000" transform="matrix(1.00, 0.00, -0.00, -1.00, 537.4, 8.0)"> </text><text xml:space="preserve" font-family="AvenirNext-Regular" font-size="24.3" fill="#000000" transform="matrix(1.00, 0.00, -0.00, -1.00, 543.5, 8.0)">с</text><text xml:space="preserve" font-family="AvenirNext-Regular" font-size="24.3" fill="#000000" transform="matrix(1.00, 0.00, -0.00, -1.00, 555.7, 8.0)">е</text><text xml:space="preserve" font-family="AvenirNext-Regular" font-size="24.3" fill="#000000" transform="matrix(1.00, 0.00, -0.00, -1.00, 569.6, 8.0)"> </text><text xml:space="preserve" font-family="AvenirNext-Regular" font-size="24.3" fill="#000000" transform="matrix(1.00, 0.00, -0.00, -1.00, 575.7, 8.0)">п</text><text xml:space="preserve" font-family="AvenirNext-Regular" font-size="24.3" fill="#000000" transform="matrix(1.00, 0.00, -0.00, -1.00, 589.5, 8.0)">о</text><text xml:space="preserve" font-family="AvenirNext-Regular" font-size="24.3" fill="#000000" transform="matrix(1.00, 0.00, -0.00, -1.00, 604.3, 8.0)">л</text><text xml:space="preserve" font-family="AvenirNext-Regular" font-size="24.3" fill="#000000" transform="matrix(1.00, 0.00, -0.00, -1.00, 616.4, 8.0)">з</text><text xml:space="preserve" font-family="AvenirNext-Regular" font-size="24.3" fill="#000000" transform="matrix(1.00, 0.00, -0.00, -1.00, 627.7, 8.0)">в</text><text xml:space="preserve" font-family="AvenirNext-Regular" font-size="24.3" fill="#000000" transform="matrix(1.00, 0.00, -0.00, -1.00, 640.8, 8.0)">а</text><text xml:space="preserve" font-family="AvenirNext-Regular" font-size="24.3" fill="#000000" transform="matrix(1.00, 0.00, -0.00, -1.00, 653.8, 8.0)"> </text><text xml:space="preserve" font-family="AvenirNext-Regular" font-size="24.3" fill="#000000" transform="matrix(1.00, 0.00, -0.00, -1.00, 659.9, 8.0)"> </text><text xml:space="preserve" font-family="AvenirNext-Regular" font-size="24.3" fill="#000000" transform="matrix(1.00, 0.00, -0.00, -1.00, 666.0, 8.0)">H</text><text xml:space="preserve" font-family="AvenirNext-Regular" font-size="24.3" fill="#000000" transform="matrix(1.00, 0.00, -0.00, -1.00, 683.4, 8.0)">T</text><text xml:space="preserve" font-family="AvenirNext-Regular" font-size="24.3" fill="#000000" transform="matrix(1.00, 0.00, -0.00, -1.00, 697.3, 8.0)">M</text><text xml:space="preserve" font-family="AvenirNext-Regular" font-size="24.3" fill="#000000" transform="matrix(1.00, 0.00, -0.00, -1.00, 718.8, 8.0)">L</text></g></svg>