<?xml version="1.0" encoding="UTF-8" standalone="no"?><svg xmlns="http://www.w3.org/2000/svg" xmlns:xlink="http://www.w3.org/1999/xlink" clip-rule="evenodd" stroke-miterlimit="4.00" viewBox="0 0 802 99"><desc>SVG generated by Keynote</desc><defs></defs><g transform="matrix(1.00, 0.00, -0.00, -1.00, 0.0, 99.0)"><text xml:space="preserve" font-family="AvenirNext-Regular" font-size="24.3" fill="#000000" transform="matrix(1.00, 0.00, -0.00, -1.00, 0.0, 74.3)">•</text><text xml:space="preserve" font-family="AvenirNext-Regular" font-size="24.3" fill="#000000" transform="matrix(1.00, 0.00, -0.00, -1.00, 40.0, 74.0)">С</text><text xml:space="preserve" font-family="AvenirNext-Regular" font-size="24.3" fill="#000000" transform="matrix(1.00, 0.00, -0.00, -1.00, 57.5, 74.0)">ф</text><text xml:space="preserve" font-family="AvenirNext-Regular" font-size="24.3" fill="#000000" transform="matrix(1.00, 0.00, -0.00, -1.00, 73.7, 74.0)">о</text><text xml:space="preserve" font-family="AvenirNext-Regular" font-size="24.3" fill="#000000" transform="matrix(1.00, 0.00, -0.00, -1.00, 88.6, 74.0)">р</text><text xml:space="preserve" font-family="AvenirNext-Regular" font-size="24.3" fill="#000000" transform="matrix(1.00, 0.00, -0.00, -1.00, 104.0, 74.0)">м</text><text xml:space="preserve" font-family="AvenirNext-Regular" font-size="24.3" fill="#000000" transform="matrix(1.00, 0.00, -0.00, -1.00, 120.9, 74.0)">и</text><text xml:space="preserve" font-family="AvenirNext-Regular" font-size="24.3" fill="#000000" transform="matrix(1.00, 0.00, -0.00, -1.00, 135.5, 74.0)">р</text><text xml:space="preserve" font-family="AvenirNext-Regular" font-size="24.3" fill="#000000" transform="matrix(1.00, 0.00, -0.00, -1.00, 150.9, 74.0)">а</text><text xml:space="preserve" font-family="AvenirNext-Regular" font-size="24.3" fill="#000000" transform="matrix(1.00, 0.00, -0.00, -1.00, 163.9, 74.0)"> </text><text xml:space="preserve" font-family="AvenirNext-Regular" font-size="24.3" fill="#000000" transform="matrix(1.00, 0.00, -0.00, -1.00, 170.0, 74.0)">с</text><text xml:space="preserve" font-family="AvenirNext-Regular" font-size="24.3" fill="#000000" transform="matrix(1.00, 0.00, -0.00, -1.00, 182.2, 74.0)">е</text><text xml:space="preserve" font-family="AvenirNext-Regular" font-size="24.3" fill="#000000" transform="matrix(1.00, 0.00, -0.00, -1.00, 196.1, 74.0)"> </text><text xml:space="preserve" font-family="AvenirNext-Regular" font-size="24.3" fill="#000000" transform="matrix(1.00, 0.00, -0.00, -1.00, 202.2, 74.0)">о</text><text xml:space="preserve" font-family="AvenirNext-Regular" font-size="24.3" fill="#000000" transform="matrix(1.00, 0.00, -0.00, -1.00, 217.0, 74.0)">б</text><text xml:space="preserve" font-family="AvenirNext-Regular" font-size="24.3" fill="#000000" transform="matrix(1.00, 0.00, -0.00, -1.00, 231.6, 74.0)">щ</text><text xml:space="preserve" font-family="AvenirNext-Regular" font-size="24.3" fill="#000000" transform="matrix(1.00, 0.00, -0.00, -1.00, 251.3, 74.0)">н</text><text xml:space="preserve" font-family="AvenirNext-Regular" font-size="24.3" fill="#000000" transform="matrix(1.00, 0.00, -0.00, -1.00, 265.3, 74.0)">о</text><text xml:space="preserve" font-family="AvenirNext-Regular" font-size="24.3" fill="#000000" transform="matrix(1.00, 0.00, -0.00, -1.00, 280.1, 74.0)">с</text><text xml:space="preserve" font-family="AvenirNext-Regular" font-size="24.3" fill="#000000" transform="matrix(1.00, 0.00, -0.00, -1.00, 292.3, 74.0)">т</text><text xml:space="preserve" font-family="AvenirNext-Regular" font-size="24.3" fill="#000000" transform="matrix(1.00, 0.00, -0.00, -1.00, 302.8, 74.0)"> </text><text xml:space="preserve" font-family="AvenirNext-Regular" font-size="24.3" fill="#000000" transform="matrix(1.00, 0.00, -0.00, -1.00, 308.8, 74.0)">о</text><text xml:space="preserve" font-family="AvenirNext-Regular" font-size="24.3" fill="#000000" transform="matrix(1.00, 0.00, -0.00, -1.00, 323.7, 74.0)">т</text><text xml:space="preserve" font-family="AvenirNext-Regular" font-size="24.3" fill="#000000" transform="matrix(1.00, 0.00, -0.00, -1.00, 334.2, 74.0)"> </text><text xml:space="preserve" font-family="AvenirNext-Regular" font-size="24.3" fill="#000000" transform="matrix(1.00, 0.00, -0.00, -1.00, 340.3, 74.0)">п</text><text xml:space="preserve" font-family="AvenirNext-Regular" font-size="24.3" fill="#000000" transform="matrix(1.00, 0.00, -0.00, -1.00, 354.0, 74.0)">р</text><text xml:space="preserve" font-family="AvenirNext-Regular" font-size="24.3" fill="#000000" transform="matrix(1.00, 0.00, -0.00, -1.00, 369.5, 74.0)">о</text><text xml:space="preserve" font-family="AvenirNext-Regular" font-size="24.3" fill="#000000" transform="matrix(1.00, 0.00, -0.00, -1.00, 384.3, 74.0)">г</text><text xml:space="preserve" font-family="AvenirNext-Regular" font-size="24.3" fill="#000000" transform="matrix(1.00, 0.00, -0.00, -1.00, 393.8, 74.0)">р</text><text xml:space="preserve" font-family="AvenirNext-Regular" font-size="24.3" fill="#000000" transform="matrix(1.00, 0.00, -0.00, -1.00, 409.2, 74.0)">а</text><text xml:space="preserve" font-family="AvenirNext-Regular" font-size="24.3" fill="#000000" transform="matrix(1.00, 0.00, -0.00, -1.00, 422.2, 74.0)">м</text><text xml:space="preserve" font-family="AvenirNext-Regular" font-size="24.3" fill="#000000" transform="matrix(1.00, 0.00, -0.00, -1.00, 439.1, 74.0)">и</text><text xml:space="preserve" font-family="AvenirNext-Regular" font-size="24.3" fill="#000000" transform="matrix(1.00, 0.00, -0.00, -1.00, 453.7, 74.0)">с</text><text xml:space="preserve" font-family="AvenirNext-Regular" font-size="24.3" fill="#000000" transform="matrix(1.00, 0.00, -0.00, -1.00, 465.8, 74.0)">т</text><text xml:space="preserve" font-family="AvenirNext-Regular" font-size="24.3" fill="#000000" transform="matrix(1.00, 0.00, -0.00, -1.00, 476.3, 74.0)">и</text><text xml:space="preserve" font-family="AvenirNext-Regular" font-size="24.3" fill="#000000" transform="matrix(1.00, 0.00, -0.00, -1.00, 490.9, 74.0)">,</text><text xml:space="preserve" font-family="AvenirNext-Regular" font-size="24.3" fill="#000000" transform="matrix(1.00, 0.00, -0.00, -1.00, 496.5, 74.0)"> </text><text xml:space="preserve" font-family="AvenirNext-Regular" font-size="24.3" fill="#000000" transform="matrix(1.00, 0.00, -0.00, -1.00, 502.6, 74.0)">к</text><text xml:space="preserve" font-family="AvenirNext-Regular" font-size="24.3" fill="#000000" transform="matrix(1.00, 0.00, -0.00, -1.00, 515.8, 74.0)">о</text><text xml:space="preserve" font-family="AvenirNext-Regular" font-size="24.3" fill="#000000" transform="matrix(1.00, 0.00, -0.00, -1.00, 530.6, 74.0)">и</text><text xml:space="preserve" font-family="AvenirNext-Regular" font-size="24.3" fill="#000000" transform="matrix(1.00, 0.00, -0.00, -1.00, 545.2, 74.0)">т</text><text xml:space="preserve" font-family="AvenirNext-Regular" font-size="24.3" fill="#000000" transform="matrix(1.00, 0.00, -0.00, -1.00, 555.7, 74.0)">о</text><text xml:space="preserve" font-family="AvenirNext-Regular" font-size="24.3" fill="#000000" transform="matrix(1.00, 0.00, -0.00, -1.00, 570.5, 74.0)"> </text><text xml:space="preserve" font-family="AvenirNext-Regular" font-size="24.3" fill="#000000" transform="matrix(1.00, 0.00, -0.00, -1.00, 576.6, 74.0)">о</text><text xml:space="preserve" font-family="AvenirNext-Regular" font-size="24.3" fill="#000000" transform="matrix(1.00, 0.00, -0.00, -1.00, 591.5, 74.0)">с</text><text xml:space="preserve" font-family="AvenirNext-Regular" font-size="24.3" fill="#000000" transform="matrix(1.00, 0.00, -0.00, -1.00, 603.6, 74.0)">н</text><text xml:space="preserve" font-family="AvenirNext-Regular" font-size="24.3" fill="#000000" transform="matrix(1.00, 0.00, -0.00, -1.00, 617.6, 74.0)">о</text><text xml:space="preserve" font-family="AvenirNext-Regular" font-size="24.3" fill="#000000" transform="matrix(1.00, 0.00, -0.00, -1.00, 632.5, 74.0)">в</text><text xml:space="preserve" font-family="AvenirNext-Regular" font-size="24.3" fill="#000000" transform="matrix(1.00, 0.00, -0.00, -1.00, 645.6, 74.0)">а</text><text xml:space="preserve" font-family="AvenirNext-Regular" font-size="24.3" fill="#000000" transform="matrix(1.00, 0.00, -0.00, -1.00, 658.6, 74.0)">в</text><text xml:space="preserve" font-family="AvenirNext-Regular" font-size="24.3" fill="#000000" transform="matrix(1.00, 0.00, -0.00, -1.00, 671.8, 74.0)">а</text><text xml:space="preserve" font-family="AvenirNext-Regular" font-size="24.3" fill="#000000" transform="matrix(1.00, 0.00, -0.00, -1.00, 684.8, 74.0)">т</text><text xml:space="preserve" font-family="AvenirNext-Regular" font-size="24.3" fill="#000000" transform="matrix(1.00, 0.00, -0.00, -1.00, 695.3, 74.0)"> </text><text xml:space="preserve" font-family="AvenirNext-Regular" font-size="24.3" fill="#000000" transform="matrix(1.00, 0.00, -0.00, -1.00, 701.3, 74.0)">W</text><text xml:space="preserve" font-family="AvenirNext-Regular" font-size="24.3" fill="#000000" transform="matrix(1.00, 0.00, -0.00, -1.00, 725.0, 74.0)">3</text><text xml:space="preserve" font-family="AvenirNext-Regular" font-size="24.3" fill="#000000" transform="matrix(1.00, 0.00, -0.00, -1.00, 739.1, 74.0)"> </text><text xml:space="preserve" font-family="AvenirNext-Regular" font-size="24.3" fill="#000000" transform="matrix(1.00, 0.00, -0.00, -1.00, 40.0, 41.0)">к</text><text xml:space="preserve" font-family="AvenirNext-Regular" font-size="24.3" fill="#000000" transform="matrix(1.00, 0.00, -0.00, -1.00, 53.2, 41.0)">о</text><text xml:space="preserve" font-family="AvenirNext-Regular" font-size="24.3" fill="#000000" transform="matrix(1.00, 0.00, -0.00, -1.00, 68.1, 41.0)">н</text><text xml:space="preserve" font-family="AvenirNext-Regular" font-size="24.3" fill="#000000" transform="matrix(1.00, 0.00, -0.00, -1.00, 82.0, 41.0)">с</text><text xml:space="preserve" font-family="AvenirNext-Regular" font-size="24.3" fill="#000000" transform="matrix(1.00, 0.00, -0.00, -1.00, 94.2, 41.0)">о</text><text xml:space="preserve" font-family="AvenirNext-Regular" font-size="24.3" fill="#000000" transform="matrix(1.00, 0.00, -0.00, -1.00, 109.1, 41.0)">р</text><text xml:space="preserve" font-family="AvenirNext-Regular" font-size="24.3" fill="#000000" transform="matrix(1.00, 0.00, -0.00, -1.00, 124.5, 41.0)">ц</text><text xml:space="preserve" font-family="AvenirNext-Regular" font-size="24.3" fill="#000000" transform="matrix(1.00, 0.00, -0.00, -1.00, 138.4, 41.0)">и</text><text xml:space="preserve" font-family="AvenirNext-Regular" font-size="24.3" fill="#000000" transform="matrix(1.00, 0.00, -0.00, -1.00, 153.0, 41.0)">у</text><text xml:space="preserve" font-family="AvenirNext-Regular" font-size="24.3" fill="#000000" transform="matrix(1.00, 0.00, -0.00, -1.00, 164.8, 41.0)">м</text><text xml:space="preserve" font-family="AvenirNext-Regular" font-size="24.3" fill="#000000" transform="matrix(1.00, 0.00, -0.00, -1.00, 181.7, 41.0)">а</text><text xml:space="preserve" font-family="AvenirNext-Regular" font-size="24.3" fill="#000000" transform="matrix(1.00, 0.00, -0.00, -1.00, 194.7, 41.0)"> </text><text xml:space="preserve" font-family="AvenirNext-Regular" font-size="24.3" fill="#000000" transform="matrix(1.00, 0.00, -0.00, -1.00, 200.8, 41.0)">(</text><text xml:space="preserve" font-family="AvenirNext-Regular" font-size="24.3" fill="#000000" transform="matrix(1.00, 0.00, -0.00, -1.00, 208.1, 41.0)">w</text><text xml:space="preserve" font-family="AvenirNext-Regular" font-size="24.3" fill="#000000" transform="matrix(1.00, 0.00, -0.00, -1.00, 226.2, 41.0)">o</text><text xml:space="preserve" font-family="AvenirNext-Regular" font-size="24.3" fill="#000000" transform="matrix(1.00, 0.00, -0.00, -1.00, 241.1, 41.0)">r</text><text xml:space="preserve" font-family="AvenirNext-Regular" font-size="24.3" fill="#000000" transform="matrix(1.00, 0.00, -0.00, -1.00, 249.9, 41.0)">l</text><text xml:space="preserve" font-family="AvenirNext-Regular" font-size="24.3" fill="#000000" transform="matrix(1.00, 0.00, -0.00, -1.00, 256.0, 41.0)">d</text><text xml:space="preserve" font-family="AvenirNext-Regular" font-size="24.3" fill="#000000" transform="matrix(1.00, 0.00, -0.00, -1.00, 271.5, 41.0)"> </text><text xml:space="preserve" font-family="AvenirNext-Regular" font-size="24.3" fill="#000000" transform="matrix(1.00, 0.00, -0.00, -1.00, 277.6, 41.0)">w</text><text xml:space="preserve" font-family="AvenirNext-Regular" font-size="24.3" fill="#000000" transform="matrix(1.00, 0.00, -0.00, -1.00, 295.7, 41.0)">i</text><text xml:space="preserve" font-family="AvenirNext-Regular" font-size="24.3" fill="#000000" transform="matrix(1.00, 0.00, -0.00, -1.00, 301.8, 41.0)">d</text><text xml:space="preserve" font-family="AvenirNext-Regular" font-size="24.3" fill="#000000" transform="matrix(1.00, 0.00, -0.00, -1.00, 317.3, 41.0)">e</text><text xml:space="preserve" font-family="AvenirNext-Regular" font-size="24.3" fill="#000000" transform="matrix(1.00, 0.00, -0.00, -1.00, 331.2, 41.0)"> </text><text xml:space="preserve" font-family="AvenirNext-Regular" font-size="24.3" fill="#000000" transform="matrix(1.00, 0.00, -0.00, -1.00, 337.3, 41.0)">w</text><text xml:space="preserve" font-family="AvenirNext-Regular" font-size="24.3" fill="#000000" transform="matrix(1.00, 0.00, -0.00, -1.00, 355.4, 41.0)">e</text><text xml:space="preserve" font-family="AvenirNext-Regular" font-size="24.3" fill="#000000" transform="matrix(1.00, 0.00, -0.00, -1.00, 369.3, 41.0)">b</text><text xml:space="preserve" font-family="AvenirNext-Regular" font-size="24.3" fill="#000000" transform="matrix(1.00, 0.00, -0.00, -1.00, 384.8, 41.0)"> </text><text xml:space="preserve" font-family="AvenirNext-Regular" font-size="24.3" fill="#000000" transform="matrix(1.00, 0.00, -0.00, -1.00, 390.9, 41.0)">c</text><text xml:space="preserve" font-family="AvenirNext-Regular" font-size="24.3" fill="#000000" transform="matrix(1.00, 0.00, -0.00, -1.00, 403.0, 41.0)">o</text><text xml:space="preserve" font-family="AvenirNext-Regular" font-size="24.3" fill="#000000" transform="matrix(1.00, 0.00, -0.00, -1.00, 417.9, 41.0)">n</text><text xml:space="preserve" font-family="AvenirNext-Regular" font-size="24.3" fill="#000000" transform="matrix(1.00, 0.00, -0.00, -1.00, 432.0, 41.0)">s</text><text xml:space="preserve" font-family="AvenirNext-Regular" font-size="24.3" fill="#000000" transform="matrix(1.00, 0.00, -0.00, -1.00, 442.8, 41.0)">o</text><text xml:space="preserve" font-family="AvenirNext-Regular" font-size="24.3" fill="#000000" transform="matrix(1.00, 0.00, -0.00, -1.00, 457.7, 41.0)">r</text><text xml:space="preserve" font-family="AvenirNext-Regular" font-size="24.3" fill="#000000" transform="matrix(1.00, 0.00, -0.00, -1.00, 466.2, 41.0)">t</text><text xml:space="preserve" font-family="AvenirNext-Regular" font-size="24.3" fill="#000000" transform="matrix(1.00, 0.00, -0.00, -1.00, 473.9, 41.0)">i</text><text xml:space="preserve" font-family="AvenirNext-Regular" font-size="24.3" fill="#000000" transform="matrix(1.00, 0.00, -0.00, -1.00, 479.9, 41.0)">u</text><text xml:space="preserve" font-family="AvenirNext-Regular" font-size="24.3" fill="#000000" transform="matrix(1.00, 0.00, -0.00, -1.00, 494.1, 41.0)">m</text><text xml:space="preserve" font-family="AvenirNext-Regular" font-size="24.3" fill="#000000" transform="matrix(1.00, 0.00, -0.00, -1.00, 515.6, 41.0)">)</text><text xml:space="preserve" font-family="AvenirNext-Regular" font-size="24.3" fill="#000000" transform="matrix(1.00, 0.00, -0.00, -1.00, 522.8, 41.0)"> </text><text xml:space="preserve" font-family="AvenirNext-Regular" font-size="24.3" fill="#000000" transform="matrix(1.00, 0.00, -0.00, -1.00, 528.9, 41.0)">и</text><text xml:space="preserve" font-family="AvenirNext-Regular" font-size="24.3" fill="#000000" transform="matrix(1.00, 0.00, -0.00, -1.00, 543.5, 41.0)"> </text><text xml:space="preserve" font-family="AvenirNext-Regular" font-size="24.3" fill="#000000" transform="matrix(1.00, 0.00, -0.00, -1.00, 549.6, 41.0)">к</text><text xml:space="preserve" font-family="AvenirNext-Regular" font-size="24.3" fill="#000000" transform="matrix(1.00, 0.00, -0.00, -1.00, 562.8, 41.0)">о</text><text xml:space="preserve" font-family="AvenirNext-Regular" font-size="24.3" fill="#000000" transform="matrix(1.00, 0.00, -0.00, -1.00, 577.6, 41.0)">и</text><text xml:space="preserve" font-family="AvenirNext-Regular" font-size="24.3" fill="#000000" transform="matrix(1.00, 0.00, -0.00, -1.00, 592.2, 41.0)">т</text><text xml:space="preserve" font-family="AvenirNext-Regular" font-size="24.3" fill="#000000" transform="matrix(1.00, 0.00, -0.00, -1.00, 602.7, 41.0)">о</text><text xml:space="preserve" font-family="AvenirNext-Regular" font-size="24.3" fill="#000000" transform="matrix(1.00, 0.00, -0.00, -1.00, 617.6, 41.0)"> </text><text xml:space="preserve" font-family="AvenirNext-Regular" font-size="24.3" fill="#000000" transform="matrix(1.00, 0.00, -0.00, -1.00, 623.6, 41.0)">п</text><text xml:space="preserve" font-family="AvenirNext-Regular" font-size="24.3" fill="#000000" transform="matrix(1.00, 0.00, -0.00, -1.00, 637.4, 41.0)">р</text><text xml:space="preserve" font-family="AvenirNext-Regular" font-size="24.3" fill="#000000" transform="matrix(1.00, 0.00, -0.00, -1.00, 652.9, 41.0)">а</text><text xml:space="preserve" font-family="AvenirNext-Regular" font-size="24.3" fill="#000000" transform="matrix(1.00, 0.00, -0.00, -1.00, 665.9, 41.0)">в</text><text xml:space="preserve" font-family="AvenirNext-Regular" font-size="24.3" fill="#000000" transform="matrix(1.00, 0.00, -0.00, -1.00, 679.0, 41.0)">я</text><text xml:space="preserve" font-family="AvenirNext-Regular" font-size="24.3" fill="#000000" transform="matrix(1.00, 0.00, -0.00, -1.00, 692.1, 41.0)">т</text><text xml:space="preserve" font-family="AvenirNext-Regular" font-size="24.3" fill="#000000" transform="matrix(1.00, 0.00, -0.00, -1.00, 702.6, 41.0)"> </text><text xml:space="preserve" font-family="AvenirNext-Regular" font-size="24.3" fill="#000000" transform="matrix(1.00, 0.00, -0.00, -1.00, 708.7, 41.0)">п</text><text xml:space="preserve" font-family="AvenirNext-Regular" font-size="24.3" fill="#000000" transform="matrix(1.00, 0.00, -0.00, -1.00, 722.5, 41.0)">ъ</text><text xml:space="preserve" font-family="AvenirNext-Regular" font-size="24.3" fill="#000000" transform="matrix(1.00, 0.00, -0.00, -1.00, 735.9, 41.0)">р</text><text xml:space="preserve" font-family="AvenirNext-Regular" font-size="24.3" fill="#000000" transform="matrix(1.00, 0.00, -0.00, -1.00, 751.3, 41.0)">в</text><text xml:space="preserve" font-family="AvenirNext-Regular" font-size="24.3" fill="#000000" transform="matrix(1.00, 0.00, -0.00, -1.00, 764.5, 41.0)">а</text><text xml:space="preserve" font-family="AvenirNext-Regular" font-size="24.3" fill="#000000" transform="matrix(1.00, 0.00, -0.00, -1.00, 777.5, 41.0)">т</text><text xml:space="preserve" font-family="AvenirNext-Regular" font-size="24.3" fill="#000000" transform="matrix(1.00, 0.00, -0.00, -1.00, 788.0, 41.0)">а</text><text xml:space="preserve" font-family="AvenirNext-Regular" font-size="24.3" fill="#000000" transform="matrix(1.00, 0.00, -0.00, -1.00, 800.9, 41.0)"> </text><text xml:space="preserve" font-family="AvenirNext-Regular" font-size="24.3" fill="#000000" transform="matrix(1.00, 0.00, -0.00, -1.00, 40.0, 8.0)">о</text><text xml:space="preserve" font-family="AvenirNext-Regular" font-size="24.3" fill="#000000" transform="matrix(1.00, 0.00, -0.00, -1.00, 54.9, 8.0)">ф</text><text xml:space="preserve" font-family="AvenirNext-Regular" font-size="24.3" fill="#000000" transform="matrix(1.00, 0.00, -0.00, -1.00, 71.1, 8.0)">и</text><text xml:space="preserve" font-family="AvenirNext-Regular" font-size="24.3" fill="#000000" transform="matrix(1.00, 0.00, -0.00, -1.00, 85.6, 8.0)">ц</text><text xml:space="preserve" font-family="AvenirNext-Regular" font-size="24.3" fill="#000000" transform="matrix(1.00, 0.00, -0.00, -1.00, 99.5, 8.0)">и</text><text xml:space="preserve" font-family="AvenirNext-Regular" font-size="24.3" fill="#000000" transform="matrix(1.00, 0.00, -0.00, -1.00, 114.1, 8.0)">а</text><text xml:space="preserve" font-family="AvenirNext-Regular" font-size="24.3" fill="#000000" transform="matrix(1.00, 0.00, -0.00, -1.00, 127.1, 8.0)">л</text><text xml:space="preserve" font-family="AvenirNext-Regular" font-size="24.3" fill="#000000" transform="matrix(1.00, 0.00, -0.00, -1.00, 139.2, 8.0)">н</text><text xml:space="preserve" font-family="AvenirNext-Regular" font-size="24.3" fill="#000000" transform="matrix(1.00, 0.00, -0.00, -1.00, 153.2, 8.0)">а</text><text xml:space="preserve" font-family="AvenirNext-Regular" font-size="24.3" fill="#000000" transform="matrix(1.00, 0.00, -0.00, -1.00, 166.1, 8.0)"> </text><text xml:space="preserve" font-family="AvenirNext-Regular" font-size="24.3" fill="#000000" transform="matrix(1.00, 0.00, -0.00, -1.00, 172.2, 8.0)">с</text><text xml:space="preserve" font-family="AvenirNext-Regular" font-size="24.3" fill="#000000" transform="matrix(1.00, 0.00, -0.00, -1.00, 184.4, 8.0)">п</text><text xml:space="preserve" font-family="AvenirNext-Regular" font-size="24.3" fill="#000000" transform="matrix(1.00, 0.00, -0.00, -1.00, 198.2, 8.0)">е</text><text xml:space="preserve" font-family="AvenirNext-Regular" font-size="24.3" fill="#000000" transform="matrix(1.00, 0.00, -0.00, -1.00, 212.1, 8.0)">ц</text><text xml:space="preserve" font-family="AvenirNext-Regular" font-size="24.3" fill="#000000" transform="matrix(1.00, 0.00, -0.00, -1.00, 226.0, 8.0)">и</text><text xml:space="preserve" font-family="AvenirNext-Regular" font-size="24.3" fill="#000000" transform="matrix(1.00, 0.00, -0.00, -1.00, 240.5, 8.0)">ф</text><text xml:space="preserve" font-family="AvenirNext-Regular" font-size="24.3" fill="#000000" transform="matrix(1.00, 0.00, -0.00, -1.00, 256.8, 8.0)">и</text><text xml:space="preserve" font-family="AvenirNext-Regular" font-size="24.3" fill="#000000" transform="matrix(1.00, 0.00, -0.00, -1.00, 271.3, 8.0)">к</text><text xml:space="preserve" font-family="AvenirNext-Regular" font-size="24.3" fill="#000000" transform="matrix(1.00, 0.00, -0.00, -1.00, 284.5, 8.0)">а</text><text xml:space="preserve" font-family="AvenirNext-Regular" font-size="24.3" fill="#000000" transform="matrix(1.00, 0.00, -0.00, -1.00, 297.5, 8.0)">ц</text><text xml:space="preserve" font-family="AvenirNext-Regular" font-size="24.3" fill="#000000" transform="matrix(1.00, 0.00, -0.00, -1.00, 311.4, 8.0)">и</text><text xml:space="preserve" font-family="AvenirNext-Regular" font-size="24.3" fill="#000000" transform="matrix(1.00, 0.00, -0.00, -1.00, 326.0, 8.0)">я</text><text xml:space="preserve" font-family="AvenirNext-Regular" font-size="24.3" fill="#000000" transform="matrix(1.00, 0.00, -0.00, -1.00, 339.1, 8.0)"> </text><text xml:space="preserve" font-family="AvenirNext-Regular" font-size="24.3" fill="#000000" transform="matrix(1.00, 0.00, -0.00, -1.00, 345.2, 8.0)">н</text><text xml:space="preserve" font-family="AvenirNext-Regular" font-size="24.3" fill="#000000" transform="matrix(1.00, 0.00, -0.00, -1.00, 359.2, 8.0)">а</text><text xml:space="preserve" font-family="AvenirNext-Regular" font-size="24.3" fill="#000000" transform="matrix(1.00, 0.00, -0.00, -1.00, 372.1, 8.0)"> </text><text xml:space="preserve" font-family="AvenirNext-Regular" font-size="24.3" fill="#000000" transform="matrix(1.00, 0.00, -0.00, -1.00, 378.2, 8.0)">H</text><text xml:space="preserve" font-family="AvenirNext-Regular" font-size="24.3" fill="#000000" transform="matrix(1.00, 0.00, -0.00, -1.00, 395.7, 8.0)">T</text><text xml:space="preserve" font-family="AvenirNext-Regular" font-size="24.3" fill="#000000" transform="matrix(1.00, 0.00, -0.00, -1.00, 409.5, 8.0)">M</text><text xml:space="preserve" font-family="AvenirNext-Regular" font-size="24.3" fill="#000000" transform="matrix(1.00, 0.00, -0.00, -1.00, 431.1, 8.0)">L</text><text xml:space="preserve" font-family="AvenirNext-Regular" font-size="24.3" fill="#000000" transform="matrix(1.00, 0.00, -0.00, -1.00, 442.9, 8.0)"> </text><text xml:space="preserve" font-family="AvenirNext-Regular" font-size="24.3" fill="#000000" transform="matrix(1.00, 0.00, -0.00, -1.00, 449.0, 8.0)">(</text><text xml:space="preserve" font-family="AvenirNext-Regular" font-size="24.3" fill="#000000" transform="matrix(1.00, 0.00, -0.00, -1.00, 456.3, 8.0)">H</text><text xml:space="preserve" font-family="AvenirNext-Regular" font-size="24.3" fill="#000000" transform="matrix(1.00, 0.00, -0.00, -1.00, 473.7, 8.0)">T</text><text xml:space="preserve" font-family="AvenirNext-Regular" font-size="24.3" fill="#000000" transform="matrix(1.00, 0.00, -0.00, -1.00, 487.6, 8.0)">M</text><text xml:space="preserve" font-family="AvenirNext-Regular" font-size="24.3" fill="#000000" transform="matrix(1.00, 0.00, -0.00, -1.00, 509.2, 8.0)">L</text><text xml:space="preserve" font-family="AvenirNext-Regular" font-size="24.3" fill="#000000" transform="matrix(1.00, 0.00, -0.00, -1.00, 521.0, 8.0)"> </text><text xml:space="preserve" font-family="AvenirNext-Regular" font-size="24.3" fill="#000000" transform="matrix(1.00, 0.00, -0.00, -1.00, 527.1, 8.0)">2</text><text xml:space="preserve" font-family="AvenirNext-Regular" font-size="24.3" fill="#000000" transform="matrix(1.00, 0.00, -0.00, -1.00, 541.2, 8.0)">.</text><text xml:space="preserve" font-family="AvenirNext-Regular" font-size="24.3" fill="#000000" transform="matrix(1.00, 0.00, -0.00, -1.00, 547.5, 8.0)">0</text><text xml:space="preserve" font-family="AvenirNext-Regular" font-size="24.3" fill="#000000" transform="matrix(1.00, 0.00, -0.00, -1.00, 561.6, 8.0)">)</text><text xml:space="preserve" font-family="AvenirNext-Regular" font-size="24.3" fill="#000000" transform="matrix(1.00, 0.00, -0.00, -1.00, 568.9, 8.0)"> </text><text xml:space="preserve" font-family="AvenirNext-Regular" font-size="24.3" fill="#000000" transform="matrix(1.00, 0.00, -0.00, -1.00, 575.0, 8.0)">п</text><text xml:space="preserve" font-family="AvenirNext-Regular" font-size="24.3" fill="#000000" transform="matrix(1.00, 0.00, -0.00, -1.00, 588.8, 8.0)">р</text><text xml:space="preserve" font-family="AvenirNext-Regular" font-size="24.3" fill="#000000" transform="matrix(1.00, 0.00, -0.00, -1.00, 604.2, 8.0)">е</text><text xml:space="preserve" font-family="AvenirNext-Regular" font-size="24.3" fill="#000000" transform="matrix(1.00, 0.00, -0.00, -1.00, 618.1, 8.0)">з</text><text xml:space="preserve" font-family="AvenirNext-Regular" font-size="24.3" fill="#000000" transform="matrix(1.00, 0.00, -0.00, -1.00, 629.4, 8.0)"> </text><text xml:space="preserve" font-family="AvenirNext-Regular" font-size="24.3" fill="#000000" transform="matrix(1.00, 0.00, -0.00, -1.00, 635.5, 8.0)">1</text><text xml:space="preserve" font-family="AvenirNext-Regular" font-size="24.3" fill="#000000" transform="matrix(1.00, 0.00, -0.00, -1.00, 649.6, 8.0)">9</text><text xml:space="preserve" font-family="AvenirNext-Regular" font-size="24.3" fill="#000000" transform="matrix(1.00, 0.00, -0.00, -1.00, 663.7, 8.0)">9</text><text xml:space="preserve" font-family="AvenirNext-Regular" font-size="24.3" fill="#000000" transform="matrix(1.00, 0.00, -0.00, -1.00, 677.8, 8.0)">5</text><text xml:space="preserve" font-family="AvenirNext-Regular" font-size="24.3" fill="#000000" transform="matrix(1.00, 0.00, -0.00, -1.00, 691.9, 8.0)">г</text><text xml:space="preserve" font-family="AvenirNext-Regular" font-size="24.3" fill="#000000" transform="matrix(1.00, 0.00, -0.00, -1.00, 701.3, 8.0)">.</text></g></svg>