<?xml version="1.0" encoding="UTF-8" standalone="no"?><svg xmlns="http://www.w3.org/2000/svg" xmlns:xlink="http://www.w3.org/1999/xlink" clip-rule="evenodd" stroke-miterlimit="4.00" viewBox="0 0 716 34"><desc>SVG generated by Keynote</desc><defs></defs><g transform="matrix(1.00, 0.00, -0.00, -1.00, 0.0, 34.0)"><text xml:space="preserve" font-family="AvenirNext-Regular" font-size="24.3" fill="#000000" transform="matrix(1.00, 0.00, -0.00, -1.00, 0.0, 9.4)">•</text><text xml:space="preserve" font-family="AvenirNext-Regular" font-size="24.3" fill="#000000" transform="matrix(1.00, 0.00, -0.00, -1.00, 40.0, 9.0)">H</text><text xml:space="preserve" font-family="AvenirNext-Regular" font-size="24.3" fill="#000000" transform="matrix(1.00, 0.00, -0.00, -1.00, 57.5, 9.0)">T</text><text xml:space="preserve" font-family="AvenirNext-Regular" font-size="24.3" fill="#000000" transform="matrix(1.00, 0.00, -0.00, -1.00, 71.3, 9.0)">M</text><text xml:space="preserve" font-family="AvenirNext-Regular" font-size="24.3" fill="#000000" transform="matrix(1.00, 0.00, -0.00, -1.00, 92.9, 9.0)">L</text><text xml:space="preserve" font-family="AvenirNext-Regular" font-size="24.3" fill="#000000" transform="matrix(1.00, 0.00, -0.00, -1.00, 104.7, 9.0)"> </text><text xml:space="preserve" font-family="AvenirNext-Regular" font-size="24.3" fill="#000000" transform="matrix(1.00, 0.00, -0.00, -1.00, 110.8, 9.0)">e</text><text xml:space="preserve" font-family="AvenirNext-Regular" font-size="24.3" fill="#000000" transform="matrix(1.00, 0.00, -0.00, -1.00, 124.7, 9.0)"> </text><text xml:space="preserve" font-family="AvenirNext-Regular" font-size="24.3" fill="#000000" transform="matrix(1.00, 0.00, -0.00, -1.00, 130.8, 9.0)">п</text><text xml:space="preserve" font-family="AvenirNext-Regular" font-size="24.3" fill="#000000" transform="matrix(1.00, 0.00, -0.00, -1.00, 144.6, 9.0)">р</text><text xml:space="preserve" font-family="AvenirNext-Regular" font-size="24.3" fill="#000000" transform="matrix(1.00, 0.00, -0.00, -1.00, 160.0, 9.0)">о</text><text xml:space="preserve" font-family="AvenirNext-Regular" font-size="24.3" fill="#000000" transform="matrix(1.00, 0.00, -0.00, -1.00, 174.9, 9.0)">с</text><text xml:space="preserve" font-family="AvenirNext-Regular" font-size="24.3" fill="#000000" transform="matrix(1.00, 0.00, -0.00, -1.00, 187.0, 9.0)">т</text><text xml:space="preserve" font-family="AvenirNext-Regular" font-size="24.3" fill="#000000" transform="matrix(1.00, 0.00, -0.00, -1.00, 197.5, 9.0)"> </text><text xml:space="preserve" font-family="AvenirNext-Regular" font-size="24.3" fill="#000000" transform="matrix(1.00, 0.00, -0.00, -1.00, 203.6, 9.0)">е</text><text xml:space="preserve" font-family="AvenirNext-Regular" font-size="24.3" fill="#000000" transform="matrix(1.00, 0.00, -0.00, -1.00, 217.5, 9.0)">з</text><text xml:space="preserve" font-family="AvenirNext-Regular" font-size="24.3" fill="#000000" transform="matrix(1.00, 0.00, -0.00, -1.00, 228.7, 9.0)">и</text><text xml:space="preserve" font-family="AvenirNext-Regular" font-size="24.3" fill="#000000" transform="matrix(1.00, 0.00, -0.00, -1.00, 243.3, 9.0)">к</text><text xml:space="preserve" font-family="AvenirNext-Regular" font-size="24.3" fill="#000000" transform="matrix(1.00, 0.00, -0.00, -1.00, 256.5, 9.0)"> </text><text xml:space="preserve" font-family="AvenirNext-Regular" font-size="24.3" fill="#000000" transform="matrix(1.00, 0.00, -0.00, -1.00, 262.6, 9.0)">з</text><text xml:space="preserve" font-family="AvenirNext-Regular" font-size="24.3" fill="#000000" transform="matrix(1.00, 0.00, -0.00, -1.00, 273.9, 9.0)">а</text><text xml:space="preserve" font-family="AvenirNext-Regular" font-size="24.3" fill="#000000" transform="matrix(1.00, 0.00, -0.00, -1.00, 286.8, 9.0)"> </text><text xml:space="preserve" font-family="AvenirNext-Regular" font-size="24.3" fill="#000000" transform="matrix(1.00, 0.00, -0.00, -1.00, 292.9, 9.0)">ф</text><text xml:space="preserve" font-family="AvenirNext-Regular" font-size="24.3" fill="#000000" transform="matrix(1.00, 0.00, -0.00, -1.00, 309.1, 9.0)">о</text><text xml:space="preserve" font-family="AvenirNext-Regular" font-size="24.3" fill="#000000" transform="matrix(1.00, 0.00, -0.00, -1.00, 324.0, 9.0)">р</text><text xml:space="preserve" font-family="AvenirNext-Regular" font-size="24.3" fill="#000000" transform="matrix(1.00, 0.00, -0.00, -1.00, 339.5, 9.0)">м</text><text xml:space="preserve" font-family="AvenirNext-Regular" font-size="24.3" fill="#000000" transform="matrix(1.00, 0.00, -0.00, -1.00, 356.4, 9.0)">а</text><text xml:space="preserve" font-family="AvenirNext-Regular" font-size="24.3" fill="#000000" transform="matrix(1.00, 0.00, -0.00, -1.00, 369.3, 9.0)">т</text><text xml:space="preserve" font-family="AvenirNext-Regular" font-size="24.3" fill="#000000" transform="matrix(1.00, 0.00, -0.00, -1.00, 379.8, 9.0)">и</text><text xml:space="preserve" font-family="AvenirNext-Regular" font-size="24.3" fill="#000000" transform="matrix(1.00, 0.00, -0.00, -1.00, 394.4, 9.0)">р</text><text xml:space="preserve" font-family="AvenirNext-Regular" font-size="24.3" fill="#000000" transform="matrix(1.00, 0.00, -0.00, -1.00, 409.8, 9.0)">а</text><text xml:space="preserve" font-family="AvenirNext-Regular" font-size="24.3" fill="#000000" transform="matrix(1.00, 0.00, -0.00, -1.00, 422.8, 9.0)">н</text><text xml:space="preserve" font-family="AvenirNext-Regular" font-size="24.3" fill="#000000" transform="matrix(1.00, 0.00, -0.00, -1.00, 436.8, 9.0)">е</text><text xml:space="preserve" font-family="AvenirNext-Regular" font-size="24.3" fill="#000000" transform="matrix(1.00, 0.00, -0.00, -1.00, 450.7, 9.0)"> </text><text xml:space="preserve" font-family="AvenirNext-Regular" font-size="24.3" fill="#000000" transform="matrix(1.00, 0.00, -0.00, -1.00, 456.8, 9.0)">н</text><text xml:space="preserve" font-family="AvenirNext-Regular" font-size="24.3" fill="#000000" transform="matrix(1.00, 0.00, -0.00, -1.00, 470.8, 9.0)">а</text><text xml:space="preserve" font-family="AvenirNext-Regular" font-size="24.3" fill="#000000" transform="matrix(1.00, 0.00, -0.00, -1.00, 483.8, 9.0)"> </text><text xml:space="preserve" font-family="AvenirNext-Regular" font-size="24.3" fill="#000000" transform="matrix(1.00, 0.00, -0.00, -1.00, 489.8, 9.0)">т</text><text xml:space="preserve" font-family="AvenirNext-Regular" font-size="24.3" fill="#000000" transform="matrix(1.00, 0.00, -0.00, -1.00, 500.3, 9.0)">е</text><text xml:space="preserve" font-family="AvenirNext-Regular" font-size="24.3" fill="#000000" transform="matrix(1.00, 0.00, -0.00, -1.00, 514.2, 9.0)">к</text><text xml:space="preserve" font-family="AvenirNext-Regular" font-size="24.3" fill="#000000" transform="matrix(1.00, 0.00, -0.00, -1.00, 527.4, 9.0)">с</text><text xml:space="preserve" font-family="AvenirNext-Regular" font-size="24.3" fill="#000000" transform="matrix(1.00, 0.00, -0.00, -1.00, 539.6, 9.0)">т</text><text xml:space="preserve" font-family="AvenirNext-Regular" font-size="24.3" fill="#000000" transform="matrix(1.00, 0.00, -0.00, -1.00, 550.1, 9.0)"> </text><text xml:space="preserve" font-family="AvenirNext-Regular" font-size="24.3" fill="#000000" transform="matrix(1.00, 0.00, -0.00, -1.00, 556.2, 9.0)">(</text><text xml:space="preserve" font-family="AvenirNext-Regular" font-size="24.3" fill="#000000" transform="matrix(1.00, 0.00, -0.00, -1.00, 563.5, 9.0)">м</text><text xml:space="preserve" font-family="AvenirNext-Regular" font-size="24.3" fill="#000000" transform="matrix(1.00, 0.00, -0.00, -1.00, 580.4, 9.0)">а</text><text xml:space="preserve" font-family="AvenirNext-Regular" font-size="24.3" fill="#000000" transform="matrix(1.00, 0.00, -0.00, -1.00, 593.4, 9.0)">р</text><text xml:space="preserve" font-family="AvenirNext-Regular" font-size="24.3" fill="#000000" transform="matrix(1.00, 0.00, -0.00, -1.00, 608.8, 9.0)">к</text><text xml:space="preserve" font-family="AvenirNext-Regular" font-size="24.3" fill="#000000" transform="matrix(1.00, 0.00, -0.00, -1.00, 622.0, 9.0)">ъ</text><text xml:space="preserve" font-family="AvenirNext-Regular" font-size="24.3" fill="#000000" transform="matrix(1.00, 0.00, -0.00, -1.00, 635.4, 9.0)">п</text><text xml:space="preserve" font-family="AvenirNext-Regular" font-size="24.3" fill="#000000" transform="matrix(1.00, 0.00, -0.00, -1.00, 649.2, 9.0)"> </text><text xml:space="preserve" font-family="AvenirNext-Regular" font-size="24.3" fill="#000000" transform="matrix(1.00, 0.00, -0.00, -1.00, 655.3, 9.0)">е</text><text xml:space="preserve" font-family="AvenirNext-Regular" font-size="24.3" fill="#000000" transform="matrix(1.00, 0.00, -0.00, -1.00, 669.2, 9.0)">з</text><text xml:space="preserve" font-family="AvenirNext-Regular" font-size="24.3" fill="#000000" transform="matrix(1.00, 0.00, -0.00, -1.00, 680.5, 9.0)">и</text><text xml:space="preserve" font-family="AvenirNext-Regular" font-size="24.3" fill="#000000" transform="matrix(1.00, 0.00, -0.00, -1.00, 695.0, 9.0)">к</text><text xml:space="preserve" font-family="AvenirNext-Regular" font-size="24.3" fill="#000000" transform="matrix(1.00, 0.00, -0.00, -1.00, 708.2, 9.0)">)</text></g></svg>