<?xml version="1.0" encoding="UTF-8" standalone="no"?><svg xmlns="http://www.w3.org/2000/svg" xmlns:xlink="http://www.w3.org/1999/xlink" clip-rule="evenodd" stroke-miterlimit="4.00" viewBox="0 0 1024 768"><desc>SVG generated by Keynote</desc><defs></defs><g transform="matrix(1.00, 0.00, -0.00, -1.00, 0.0, 768.0)"><g><clipPath id="clip-405"><path d="M 0.0 768.0 L 1024.0 768.0 L 1024.0 0.0 L 0.0 0.0 Z M 0.0 768.0 "></path></clipPath><g clip-path="url(#clip-405)"><image xlink:href="../../F3A67573-A2F2-4CB0-9E39-F1DCDA2903A2/assets/AC39DDDA7F4B68AA81B60DCA4AD5F611.png" width="864.00" height="540.00" transform="matrix(1.19, 0.00, -0.00, -1.42, 0.0, 768.0)"></image></g></g><text xml:space="preserve" font-family="AvenirNext-Regular" font-size="36.0" fill="#000000" transform="matrix(1.00, 0.00, -0.00, -1.00, 54.0, 637.0)">i</text><text xml:space="preserve" font-family="AvenirNext-Regular" font-size="36.0" fill="#000000" transform="matrix(1.00, 0.00, -0.00, -1.00, 63.0, 637.0)">n</text><text xml:space="preserve" font-family="AvenirNext-Regular" font-size="36.0" fill="#000000" transform="matrix(1.00, 0.00, -0.00, -1.00, 83.9, 637.0)">d</text><text xml:space="preserve" font-family="AvenirNext-Regular" font-size="36.0" fill="#000000" transform="matrix(1.00, 0.00, -0.00, -1.00, 106.8, 637.0)">e</text><text xml:space="preserve" font-family="AvenirNext-Regular" font-size="36.0" fill="#000000" transform="matrix(1.00, 0.00, -0.00, -1.00, 127.2, 637.0)">x</text><text xml:space="preserve" font-family="AvenirNext-Regular" font-size="36.0" fill="#000000" transform="matrix(1.00, 0.00, -0.00, -1.00, 144.6, 637.0)">.</text><text xml:space="preserve" font-family="AvenirNext-Regular" font-size="36.0" fill="#000000" transform="matrix(1.00, 0.00, -0.00, -1.00, 154.0, 637.0)">h</text><text xml:space="preserve" font-family="AvenirNext-Regular" font-size="36.0" fill="#000000" transform="matrix(1.00, 0.00, -0.00, -1.00, 175.0, 637.0)">t</text><text xml:space="preserve" font-family="AvenirNext-Regular" font-size="36.0" fill="#000000" transform="matrix(1.00, 0.00, -0.00, -1.00, 186.4, 637.0)">m</text><text xml:space="preserve" font-family="AvenirNext-Regular" font-size="36.0" fill="#000000" transform="matrix(1.00, 0.00, -0.00, -1.00, 218.2, 637.0)">l</text><text xml:space="preserve" font-family="AvenirNext-Regular" font-size="36.0" fill="#000000" transform="matrix(1.00, 0.00, -0.00, -1.00, 227.3, 637.0)">:</text></g></svg>