<?xml version="1.0" encoding="UTF-8" standalone="no"?><svg xmlns="http://www.w3.org/2000/svg" xmlns:xlink="http://www.w3.org/1999/xlink" clip-rule="evenodd" stroke-miterlimit="4.00" viewBox="0 0 818 98"><desc>SVG generated by Keynote</desc><defs></defs><g transform="matrix(1.00, 0.00, -0.00, -1.00, 0.0, 98.0)"><text xml:space="preserve" font-family="AvenirNext-Regular" font-size="24.3" fill="#000000" transform="matrix(1.00, 0.00, -0.00, -1.00, 0.0, 73.6)">•</text><text xml:space="preserve" font-family="AvenirNext-Regular" font-size="24.3" fill="#000000" transform="matrix(1.00, 0.00, -0.00, -1.00, 40.0, 74.0)">С</text><text xml:space="preserve" font-family="AvenirNext-Regular" font-size="24.3" fill="#000000" transform="matrix(1.00, 0.00, -0.00, -1.00, 57.5, 74.0)">ъ</text><text xml:space="preserve" font-family="AvenirNext-Regular" font-size="24.3" fill="#000000" transform="matrix(1.00, 0.00, -0.00, -1.00, 70.9, 74.0)">з</text><text xml:space="preserve" font-family="AvenirNext-Regular" font-size="24.3" fill="#000000" transform="matrix(1.00, 0.00, -0.00, -1.00, 82.2, 74.0)">д</text><text xml:space="preserve" font-family="AvenirNext-Regular" font-size="24.3" fill="#000000" transform="matrix(1.00, 0.00, -0.00, -1.00, 95.4, 74.0)">а</text><text xml:space="preserve" font-family="AvenirNext-Regular" font-size="24.3" fill="#000000" transform="matrix(1.00, 0.00, -0.00, -1.00, 108.4, 74.0)">д</text><text xml:space="preserve" font-family="AvenirNext-Regular" font-size="24.3" fill="#000000" transform="matrix(1.00, 0.00, -0.00, -1.00, 121.6, 74.0)">е</text><text xml:space="preserve" font-family="AvenirNext-Regular" font-size="24.3" fill="#000000" transform="matrix(1.00, 0.00, -0.00, -1.00, 135.6, 74.0)">н</text><text xml:space="preserve" font-family="AvenirNext-Regular" font-size="24.3" fill="#000000" transform="matrix(1.00, 0.00, -0.00, -1.00, 149.5, 74.0)"> </text><text xml:space="preserve" font-family="AvenirNext-Regular" font-size="24.3" fill="#000000" transform="matrix(1.00, 0.00, -0.00, -1.00, 155.6, 74.0)">е</text><text xml:space="preserve" font-family="AvenirNext-Regular" font-size="24.3" fill="#000000" transform="matrix(1.00, 0.00, -0.00, -1.00, 169.5, 74.0)"> </text><text xml:space="preserve" font-family="AvenirNext-Regular" font-size="24.3" fill="#000000" transform="matrix(1.00, 0.00, -0.00, -1.00, 175.6, 74.0)">о</text><text xml:space="preserve" font-family="AvenirNext-Regular" font-size="24.3" fill="#000000" transform="matrix(1.00, 0.00, -0.00, -1.00, 190.5, 74.0)">щ</text><text xml:space="preserve" font-family="AvenirNext-Regular" font-size="24.3" fill="#000000" transform="matrix(1.00, 0.00, -0.00, -1.00, 210.1, 74.0)">е</text><text xml:space="preserve" font-family="AvenirNext-Regular" font-size="24.3" fill="#000000" transform="matrix(1.00, 0.00, -0.00, -1.00, 224.1, 74.0)"> </text><text xml:space="preserve" font-family="AvenirNext-Regular" font-size="24.3" fill="#000000" transform="matrix(1.00, 0.00, -0.00, -1.00, 230.1, 74.0)">в</text><text xml:space="preserve" font-family="AvenirNext-Regular" font-size="24.3" fill="#000000" transform="matrix(1.00, 0.00, -0.00, -1.00, 243.3, 74.0)"> </text><text xml:space="preserve" font-family="AvenirNext-Regular" font-size="24.3" fill="#000000" transform="matrix(1.00, 0.00, -0.00, -1.00, 249.4, 74.0)">з</text><text xml:space="preserve" font-family="AvenirNext-Regular" font-size="24.3" fill="#000000" transform="matrix(1.00, 0.00, -0.00, -1.00, 260.6, 74.0)">о</text><text xml:space="preserve" font-family="AvenirNext-Regular" font-size="24.3" fill="#000000" transform="matrix(1.00, 0.00, -0.00, -1.00, 275.5, 74.0)">р</text><text xml:space="preserve" font-family="AvenirNext-Regular" font-size="24.3" fill="#000000" transform="matrix(1.00, 0.00, -0.00, -1.00, 290.9, 74.0)">а</text><text xml:space="preserve" font-family="AvenirNext-Regular" font-size="24.3" fill="#000000" transform="matrix(1.00, 0.00, -0.00, -1.00, 303.9, 74.0)">т</text><text xml:space="preserve" font-family="AvenirNext-Regular" font-size="24.3" fill="#000000" transform="matrix(1.00, 0.00, -0.00, -1.00, 314.4, 74.0)">а</text><text xml:space="preserve" font-family="AvenirNext-Regular" font-size="24.3" fill="#000000" transform="matrix(1.00, 0.00, -0.00, -1.00, 327.4, 74.0)"> </text><text xml:space="preserve" font-family="AvenirNext-Regular" font-size="24.3" fill="#000000" transform="matrix(1.00, 0.00, -0.00, -1.00, 333.5, 74.0)">н</text><text xml:space="preserve" font-family="AvenirNext-Regular" font-size="24.3" fill="#000000" transform="matrix(1.00, 0.00, -0.00, -1.00, 347.5, 74.0)">а</text><text xml:space="preserve" font-family="AvenirNext-Regular" font-size="24.3" fill="#000000" transform="matrix(1.00, 0.00, -0.00, -1.00, 360.4, 74.0)"> </text><text xml:space="preserve" font-family="AvenirNext-Regular" font-size="24.3" fill="#000000" transform="matrix(1.00, 0.00, -0.00, -1.00, 366.5, 74.0)">и</text><text xml:space="preserve" font-family="AvenirNext-Regular" font-size="24.3" fill="#000000" transform="matrix(1.00, 0.00, -0.00, -1.00, 381.1, 74.0)">н</text><text xml:space="preserve" font-family="AvenirNext-Regular" font-size="24.3" fill="#000000" transform="matrix(1.00, 0.00, -0.00, -1.00, 395.1, 74.0)">т</text><text xml:space="preserve" font-family="AvenirNext-Regular" font-size="24.3" fill="#000000" transform="matrix(1.00, 0.00, -0.00, -1.00, 405.6, 74.0)">е</text><text xml:space="preserve" font-family="AvenirNext-Regular" font-size="24.3" fill="#000000" transform="matrix(1.00, 0.00, -0.00, -1.00, 419.5, 74.0)">р</text><text xml:space="preserve" font-family="AvenirNext-Regular" font-size="24.3" fill="#000000" transform="matrix(1.00, 0.00, -0.00, -1.00, 434.9, 74.0)">н</text><text xml:space="preserve" font-family="AvenirNext-Regular" font-size="24.3" fill="#000000" transform="matrix(1.00, 0.00, -0.00, -1.00, 448.9, 74.0)">е</text><text xml:space="preserve" font-family="AvenirNext-Regular" font-size="24.3" fill="#000000" transform="matrix(1.00, 0.00, -0.00, -1.00, 462.8, 74.0)">т</text><text xml:space="preserve" font-family="AvenirNext-Regular" font-size="24.3" fill="#000000" transform="matrix(1.00, 0.00, -0.00, -1.00, 473.3, 74.0)"> </text><text xml:space="preserve" font-family="AvenirNext-Regular" font-size="24.3" fill="#000000" transform="matrix(1.00, 0.00, -0.00, -1.00, 479.4, 74.0)">и</text><text xml:space="preserve" font-family="AvenirNext-Regular" font-size="24.3" fill="#000000" transform="matrix(1.00, 0.00, -0.00, -1.00, 493.9, 74.0)"> </text><text xml:space="preserve" font-family="AvenirNext-Regular" font-size="24.3" fill="#000000" transform="matrix(1.00, 0.00, -0.00, -1.00, 500.0, 74.0)">е</text><text xml:space="preserve" font-family="AvenirNext-Regular" font-size="24.3" fill="#000000" transform="matrix(1.00, 0.00, -0.00, -1.00, 513.9, 74.0)">д</text><text xml:space="preserve" font-family="AvenirNext-Regular" font-size="24.3" fill="#000000" transform="matrix(1.00, 0.00, -0.00, -1.00, 527.2, 74.0)">и</text><text xml:space="preserve" font-family="AvenirNext-Regular" font-size="24.3" fill="#000000" transform="matrix(1.00, 0.00, -0.00, -1.00, 541.7, 74.0)">н</text><text xml:space="preserve" font-family="AvenirNext-Regular" font-size="24.3" fill="#000000" transform="matrix(1.00, 0.00, -0.00, -1.00, 555.7, 74.0)">с</text><text xml:space="preserve" font-family="AvenirNext-Regular" font-size="24.3" fill="#000000" transform="matrix(1.00, 0.00, -0.00, -1.00, 567.9, 74.0)">т</text><text xml:space="preserve" font-family="AvenirNext-Regular" font-size="24.3" fill="#000000" transform="matrix(1.00, 0.00, -0.00, -1.00, 578.3, 74.0)">в</text><text xml:space="preserve" font-family="AvenirNext-Regular" font-size="24.3" fill="#000000" transform="matrix(1.00, 0.00, -0.00, -1.00, 591.5, 74.0)">е</text><text xml:space="preserve" font-family="AvenirNext-Regular" font-size="24.3" fill="#000000" transform="matrix(1.00, 0.00, -0.00, -1.00, 605.4, 74.0)">н</text><text xml:space="preserve" font-family="AvenirNext-Regular" font-size="24.3" fill="#000000" transform="matrix(1.00, 0.00, -0.00, -1.00, 619.4, 74.0)">а</text><text xml:space="preserve" font-family="AvenirNext-Regular" font-size="24.3" fill="#000000" transform="matrix(1.00, 0.00, -0.00, -1.00, 632.4, 74.0)">т</text><text xml:space="preserve" font-family="AvenirNext-Regular" font-size="24.3" fill="#000000" transform="matrix(1.00, 0.00, -0.00, -1.00, 642.9, 74.0)">а</text><text xml:space="preserve" font-family="AvenirNext-Regular" font-size="24.3" fill="#000000" transform="matrix(1.00, 0.00, -0.00, -1.00, 655.9, 74.0)"> </text><text xml:space="preserve" font-family="AvenirNext-Regular" font-size="24.3" fill="#000000" transform="matrix(1.00, 0.00, -0.00, -1.00, 661.9, 74.0)">м</text><text xml:space="preserve" font-family="AvenirNext-Regular" font-size="24.3" fill="#000000" transform="matrix(1.00, 0.00, -0.00, -1.00, 678.8, 74.0)">у</text><text xml:space="preserve" font-family="AvenirNext-Regular" font-size="24.3" fill="#000000" transform="matrix(1.00, 0.00, -0.00, -1.00, 690.7, 74.0)"> </text><text xml:space="preserve" font-family="AvenirNext-Regular" font-size="24.3" fill="#000000" transform="matrix(1.00, 0.00, -0.00, -1.00, 696.8, 74.0)">ц</text><text xml:space="preserve" font-family="AvenirNext-Regular" font-size="24.3" fill="#000000" transform="matrix(1.00, 0.00, -0.00, -1.00, 710.7, 74.0)">е</text><text xml:space="preserve" font-family="AvenirNext-Regular" font-size="24.3" fill="#000000" transform="matrix(1.00, 0.00, -0.00, -1.00, 724.6, 74.0)">л</text><text xml:space="preserve" font-family="AvenirNext-Regular" font-size="24.3" fill="#000000" transform="matrix(1.00, 0.00, -0.00, -1.00, 736.7, 74.0)"> </text><text xml:space="preserve" font-family="AvenirNext-Regular" font-size="24.3" fill="#000000" transform="matrix(1.00, 0.00, -0.00, -1.00, 742.8, 74.0)">е</text><text xml:space="preserve" font-family="AvenirNext-Regular" font-size="24.3" fill="#000000" transform="matrix(1.00, 0.00, -0.00, -1.00, 756.7, 74.0)"> </text><text xml:space="preserve" font-family="AvenirNext-Regular" font-size="24.3" fill="#000000" transform="matrix(1.00, 0.00, -0.00, -1.00, 762.7, 74.0)">б</text><text xml:space="preserve" font-family="AvenirNext-Regular" font-size="24.3" fill="#000000" transform="matrix(1.00, 0.00, -0.00, -1.00, 777.3, 74.0)">и</text><text xml:space="preserve" font-family="AvenirNext-Regular" font-size="24.3" fill="#000000" transform="matrix(1.00, 0.00, -0.00, -1.00, 791.9, 74.0)">л</text><text xml:space="preserve" font-family="AvenirNext-Regular" font-size="24.3" fill="#000000" transform="matrix(1.00, 0.00, -0.00, -1.00, 804.0, 74.0)">а</text><text xml:space="preserve" font-family="AvenirNext-Regular" font-size="24.3" fill="#000000" transform="matrix(1.00, 0.00, -0.00, -1.00, 817.0, 74.0)"> </text><text xml:space="preserve" font-family="AvenirNext-Regular" font-size="24.3" fill="#000000" transform="matrix(1.00, 0.00, -0.00, -1.00, 40.0, 41.0)">д</text><text xml:space="preserve" font-family="AvenirNext-Regular" font-size="24.3" fill="#000000" transform="matrix(1.00, 0.00, -0.00, -1.00, 53.2, 41.0)">а</text><text xml:space="preserve" font-family="AvenirNext-Regular" font-size="24.3" fill="#000000" transform="matrix(1.00, 0.00, -0.00, -1.00, 66.2, 41.0)"> </text><text xml:space="preserve" font-family="AvenirNext-Regular" font-size="24.3" fill="#000000" transform="matrix(1.00, 0.00, -0.00, -1.00, 72.3, 41.0)">д</text><text xml:space="preserve" font-family="AvenirNext-Regular" font-size="24.3" fill="#000000" transform="matrix(1.00, 0.00, -0.00, -1.00, 85.5, 41.0)">а</text><text xml:space="preserve" font-family="AvenirNext-Regular" font-size="24.3" fill="#000000" transform="matrix(1.00, 0.00, -0.00, -1.00, 98.5, 41.0)">в</text><text xml:space="preserve" font-family="AvenirNext-Regular" font-size="24.3" fill="#000000" transform="matrix(1.00, 0.00, -0.00, -1.00, 111.7, 41.0)">а</text><text xml:space="preserve" font-family="AvenirNext-Regular" font-size="24.3" fill="#000000" transform="matrix(1.00, 0.00, -0.00, -1.00, 124.7, 41.0)"> </text><text xml:space="preserve" font-family="AvenirNext-Regular" font-size="24.3" fill="#000000" transform="matrix(1.00, 0.00, -0.00, -1.00, 130.7, 41.0)">н</text><text xml:space="preserve" font-family="AvenirNext-Regular" font-size="24.3" fill="#000000" transform="matrix(1.00, 0.00, -0.00, -1.00, 144.7, 41.0)">я</text><text xml:space="preserve" font-family="AvenirNext-Regular" font-size="24.3" fill="#000000" transform="matrix(1.00, 0.00, -0.00, -1.00, 157.8, 41.0)">к</text><text xml:space="preserve" font-family="AvenirNext-Regular" font-size="24.3" fill="#000000" transform="matrix(1.00, 0.00, -0.00, -1.00, 171.0, 41.0)">а</text><text xml:space="preserve" font-family="AvenirNext-Regular" font-size="24.3" fill="#000000" transform="matrix(1.00, 0.00, -0.00, -1.00, 184.0, 41.0)">к</text><text xml:space="preserve" font-family="AvenirNext-Regular" font-size="24.3" fill="#000000" transform="matrix(1.00, 0.00, -0.00, -1.00, 197.2, 41.0)">в</text><text xml:space="preserve" font-family="AvenirNext-Regular" font-size="24.3" fill="#000000" transform="matrix(1.00, 0.00, -0.00, -1.00, 210.4, 41.0)">о</text><text xml:space="preserve" font-family="AvenirNext-Regular" font-size="24.3" fill="#000000" transform="matrix(1.00, 0.00, -0.00, -1.00, 225.2, 41.0)"> </text><text xml:space="preserve" font-family="AvenirNext-Regular" font-size="24.3" fill="#000000" transform="matrix(1.00, 0.00, -0.00, -1.00, 231.3, 41.0)">е</text><text xml:space="preserve" font-family="AvenirNext-Regular" font-size="24.3" fill="#000000" transform="matrix(1.00, 0.00, -0.00, -1.00, 245.2, 41.0)">л</text><text xml:space="preserve" font-family="AvenirNext-Regular" font-size="24.3" fill="#000000" transform="matrix(1.00, 0.00, -0.00, -1.00, 257.3, 41.0)">е</text><text xml:space="preserve" font-family="AvenirNext-Regular" font-size="24.3" fill="#000000" transform="matrix(1.00, 0.00, -0.00, -1.00, 271.2, 41.0)">м</text><text xml:space="preserve" font-family="AvenirNext-Regular" font-size="24.3" fill="#000000" transform="matrix(1.00, 0.00, -0.00, -1.00, 288.1, 41.0)">е</text><text xml:space="preserve" font-family="AvenirNext-Regular" font-size="24.3" fill="#000000" transform="matrix(1.00, 0.00, -0.00, -1.00, 302.0, 41.0)">н</text><text xml:space="preserve" font-family="AvenirNext-Regular" font-size="24.3" fill="#000000" transform="matrix(1.00, 0.00, -0.00, -1.00, 316.0, 41.0)">т</text><text xml:space="preserve" font-family="AvenirNext-Regular" font-size="24.3" fill="#000000" transform="matrix(1.00, 0.00, -0.00, -1.00, 326.5, 41.0)">а</text><text xml:space="preserve" font-family="AvenirNext-Regular" font-size="24.3" fill="#000000" transform="matrix(1.00, 0.00, -0.00, -1.00, 339.5, 41.0)">р</text><text xml:space="preserve" font-family="AvenirNext-Regular" font-size="24.3" fill="#000000" transform="matrix(1.00, 0.00, -0.00, -1.00, 354.9, 41.0)">н</text><text xml:space="preserve" font-family="AvenirNext-Regular" font-size="24.3" fill="#000000" transform="matrix(1.00, 0.00, -0.00, -1.00, 368.9, 41.0)">о</text><text xml:space="preserve" font-family="AvenirNext-Regular" font-size="24.3" fill="#000000" transform="matrix(1.00, 0.00, -0.00, -1.00, 383.8, 41.0)"> </text><text xml:space="preserve" font-family="AvenirNext-Regular" font-size="24.3" fill="#000000" transform="matrix(1.00, 0.00, -0.00, -1.00, 389.9, 41.0)">о</text><text xml:space="preserve" font-family="AvenirNext-Regular" font-size="24.3" fill="#000000" transform="matrix(1.00, 0.00, -0.00, -1.00, 404.7, 41.0)">ф</text><text xml:space="preserve" font-family="AvenirNext-Regular" font-size="24.3" fill="#000000" transform="matrix(1.00, 0.00, -0.00, -1.00, 420.9, 41.0)">о</text><text xml:space="preserve" font-family="AvenirNext-Regular" font-size="24.3" fill="#000000" transform="matrix(1.00, 0.00, -0.00, -1.00, 435.8, 41.0)">р</text><text xml:space="preserve" font-family="AvenirNext-Regular" font-size="24.3" fill="#000000" transform="matrix(1.00, 0.00, -0.00, -1.00, 451.3, 41.0)">м</text><text xml:space="preserve" font-family="AvenirNext-Regular" font-size="24.3" fill="#000000" transform="matrix(1.00, 0.00, -0.00, -1.00, 468.2, 41.0)">л</text><text xml:space="preserve" font-family="AvenirNext-Regular" font-size="24.3" fill="#000000" transform="matrix(1.00, 0.00, -0.00, -1.00, 480.2, 41.0)">е</text><text xml:space="preserve" font-family="AvenirNext-Regular" font-size="24.3" fill="#000000" transform="matrix(1.00, 0.00, -0.00, -1.00, 494.2, 41.0)">н</text><text xml:space="preserve" font-family="AvenirNext-Regular" font-size="24.3" fill="#000000" transform="matrix(1.00, 0.00, -0.00, -1.00, 508.1, 41.0)">и</text><text xml:space="preserve" font-family="AvenirNext-Regular" font-size="24.3" fill="#000000" transform="matrix(1.00, 0.00, -0.00, -1.00, 522.7, 41.0)">е</text><text xml:space="preserve" font-family="AvenirNext-Regular" font-size="24.3" fill="#000000" transform="matrix(1.00, 0.00, -0.00, -1.00, 536.6, 41.0)"> </text><text xml:space="preserve" font-family="AvenirNext-Regular" font-size="24.3" fill="#000000" transform="matrix(1.00, 0.00, -0.00, -1.00, 542.7, 41.0)">н</text><text xml:space="preserve" font-family="AvenirNext-Regular" font-size="24.3" fill="#000000" transform="matrix(1.00, 0.00, -0.00, -1.00, 556.7, 41.0)">а</text><text xml:space="preserve" font-family="AvenirNext-Regular" font-size="24.3" fill="#000000" transform="matrix(1.00, 0.00, -0.00, -1.00, 569.7, 41.0)"> </text><text xml:space="preserve" font-family="AvenirNext-Regular" font-size="24.3" fill="#000000" transform="matrix(1.00, 0.00, -0.00, -1.00, 575.7, 41.0)">т</text><text xml:space="preserve" font-family="AvenirNext-Regular" font-size="24.3" fill="#000000" transform="matrix(1.00, 0.00, -0.00, -1.00, 586.2, 41.0)">е</text><text xml:space="preserve" font-family="AvenirNext-Regular" font-size="24.3" fill="#000000" transform="matrix(1.00, 0.00, -0.00, -1.00, 600.1, 41.0)">к</text><text xml:space="preserve" font-family="AvenirNext-Regular" font-size="24.3" fill="#000000" transform="matrix(1.00, 0.00, -0.00, -1.00, 613.3, 41.0)">с</text><text xml:space="preserve" font-family="AvenirNext-Regular" font-size="24.3" fill="#000000" transform="matrix(1.00, 0.00, -0.00, -1.00, 625.5, 41.0)">т</text><text xml:space="preserve" font-family="AvenirNext-Regular" font-size="24.3" fill="#000000" transform="matrix(1.00, 0.00, -0.00, -1.00, 636.0, 41.0)">а</text><text xml:space="preserve" font-family="AvenirNext-Regular" font-size="24.3" fill="#000000" transform="matrix(1.00, 0.00, -0.00, -1.00, 649.0, 41.0)"> </text><text xml:space="preserve" font-family="AvenirNext-Regular" font-size="24.3" fill="#000000" transform="matrix(1.00, 0.00, -0.00, -1.00, 655.1, 41.0)">(</text><text xml:space="preserve" font-family="AvenirNext-Regular" font-size="24.3" fill="#000000" transform="matrix(1.00, 0.00, -0.00, -1.00, 662.3, 41.0)">з</text><text xml:space="preserve" font-family="AvenirNext-Regular" font-size="24.3" fill="#000000" transform="matrix(1.00, 0.00, -0.00, -1.00, 673.6, 41.0)">а</text><text xml:space="preserve" font-family="AvenirNext-Regular" font-size="24.3" fill="#000000" transform="matrix(1.00, 0.00, -0.00, -1.00, 686.6, 41.0)">г</text><text xml:space="preserve" font-family="AvenirNext-Regular" font-size="24.3" fill="#000000" transform="matrix(1.00, 0.00, -0.00, -1.00, 696.0, 41.0)">л</text><text xml:space="preserve" font-family="AvenirNext-Regular" font-size="24.3" fill="#000000" transform="matrix(1.00, 0.00, -0.00, -1.00, 708.1, 41.0)">а</text><text xml:space="preserve" font-family="AvenirNext-Regular" font-size="24.3" fill="#000000" transform="matrix(1.00, 0.00, -0.00, -1.00, 721.1, 41.0)">в</text><text xml:space="preserve" font-family="AvenirNext-Regular" font-size="24.3" fill="#000000" transform="matrix(1.00, 0.00, -0.00, -1.00, 734.3, 41.0)">и</text><text xml:space="preserve" font-family="AvenirNext-Regular" font-size="24.3" fill="#000000" transform="matrix(1.00, 0.00, -0.00, -1.00, 748.8, 41.0)">я</text><text xml:space="preserve" font-family="AvenirNext-Regular" font-size="24.3" fill="#000000" transform="matrix(1.00, 0.00, -0.00, -1.00, 761.9, 41.0)">,</text><text xml:space="preserve" font-family="AvenirNext-Regular" font-size="24.3" fill="#000000" transform="matrix(1.00, 0.00, -0.00, -1.00, 767.5, 41.0)"> </text><text xml:space="preserve" font-family="AvenirNext-Regular" font-size="24.3" fill="#000000" transform="matrix(1.00, 0.00, -0.00, -1.00, 40.0, 8.0)">п</text><text xml:space="preserve" font-family="AvenirNext-Regular" font-size="24.3" fill="#000000" transform="matrix(1.00, 0.00, -0.00, -1.00, 53.8, 8.0)">о</text><text xml:space="preserve" font-family="AvenirNext-Regular" font-size="24.3" fill="#000000" transform="matrix(1.00, 0.00, -0.00, -1.00, 68.6, 8.0)">д</text><text xml:space="preserve" font-family="AvenirNext-Regular" font-size="24.3" fill="#000000" transform="matrix(1.00, 0.00, -0.00, -1.00, 81.9, 8.0)">з</text><text xml:space="preserve" font-family="AvenirNext-Regular" font-size="24.3" fill="#000000" transform="matrix(1.00, 0.00, -0.00, -1.00, 93.1, 8.0)">а</text><text xml:space="preserve" font-family="AvenirNext-Regular" font-size="24.3" fill="#000000" transform="matrix(1.00, 0.00, -0.00, -1.00, 106.1, 8.0)">г</text><text xml:space="preserve" font-family="AvenirNext-Regular" font-size="24.3" fill="#000000" transform="matrix(1.00, 0.00, -0.00, -1.00, 115.6, 8.0)">л</text><text xml:space="preserve" font-family="AvenirNext-Regular" font-size="24.3" fill="#000000" transform="matrix(1.00, 0.00, -0.00, -1.00, 127.6, 8.0)">а</text><text xml:space="preserve" font-family="AvenirNext-Regular" font-size="24.3" fill="#000000" transform="matrix(1.00, 0.00, -0.00, -1.00, 140.6, 8.0)">в</text><text xml:space="preserve" font-family="AvenirNext-Regular" font-size="24.3" fill="#000000" transform="matrix(1.00, 0.00, -0.00, -1.00, 153.8, 8.0)">и</text><text xml:space="preserve" font-family="AvenirNext-Regular" font-size="24.3" fill="#000000" transform="matrix(1.00, 0.00, -0.00, -1.00, 168.4, 8.0)">я</text><text xml:space="preserve" font-family="AvenirNext-Regular" font-size="24.3" fill="#000000" transform="matrix(1.00, 0.00, -0.00, -1.00, 181.5, 8.0)">,</text><text xml:space="preserve" font-family="AvenirNext-Regular" font-size="24.3" fill="#000000" transform="matrix(1.00, 0.00, -0.00, -1.00, 187.1, 8.0)"> </text><text xml:space="preserve" font-family="AvenirNext-Regular" font-size="24.3" fill="#000000" transform="matrix(1.00, 0.00, -0.00, -1.00, 193.1, 8.0)">п</text><text xml:space="preserve" font-family="AvenirNext-Regular" font-size="24.3" fill="#000000" transform="matrix(1.00, 0.00, -0.00, -1.00, 206.9, 8.0)">а</text><text xml:space="preserve" font-family="AvenirNext-Regular" font-size="24.3" fill="#000000" transform="matrix(1.00, 0.00, -0.00, -1.00, 219.9, 8.0)">р</text><text xml:space="preserve" font-family="AvenirNext-Regular" font-size="24.3" fill="#000000" transform="matrix(1.00, 0.00, -0.00, -1.00, 235.4, 8.0)">а</text><text xml:space="preserve" font-family="AvenirNext-Regular" font-size="24.3" fill="#000000" transform="matrix(1.00, 0.00, -0.00, -1.00, 248.3, 8.0)">г</text><text xml:space="preserve" font-family="AvenirNext-Regular" font-size="24.3" fill="#000000" transform="matrix(1.00, 0.00, -0.00, -1.00, 257.8, 8.0)">р</text><text xml:space="preserve" font-family="AvenirNext-Regular" font-size="24.3" fill="#000000" transform="matrix(1.00, 0.00, -0.00, -1.00, 273.2, 8.0)">а</text><text xml:space="preserve" font-family="AvenirNext-Regular" font-size="24.3" fill="#000000" transform="matrix(1.00, 0.00, -0.00, -1.00, 286.2, 8.0)">ф</text><text xml:space="preserve" font-family="AvenirNext-Regular" font-size="24.3" fill="#000000" transform="matrix(1.00, 0.00, -0.00, -1.00, 302.4, 8.0)">и</text><text xml:space="preserve" font-family="AvenirNext-Regular" font-size="24.3" fill="#000000" transform="matrix(1.00, 0.00, -0.00, -1.00, 317.0, 8.0)">,</text><text xml:space="preserve" font-family="AvenirNext-Regular" font-size="24.3" fill="#000000" transform="matrix(1.00, 0.00, -0.00, -1.00, 322.6, 8.0)"> </text><text xml:space="preserve" font-family="AvenirNext-Regular" font-size="24.3" fill="#000000" transform="matrix(1.00, 0.00, -0.00, -1.00, 328.7, 8.0)">с</text><text xml:space="preserve" font-family="AvenirNext-Regular" font-size="24.3" fill="#000000" transform="matrix(1.00, 0.00, -0.00, -1.00, 340.8, 8.0)">п</text><text xml:space="preserve" font-family="AvenirNext-Regular" font-size="24.3" fill="#000000" transform="matrix(1.00, 0.00, -0.00, -1.00, 354.6, 8.0)">и</text><text xml:space="preserve" font-family="AvenirNext-Regular" font-size="24.3" fill="#000000" transform="matrix(1.00, 0.00, -0.00, -1.00, 369.2, 8.0)">с</text><text xml:space="preserve" font-family="AvenirNext-Regular" font-size="24.3" fill="#000000" transform="matrix(1.00, 0.00, -0.00, -1.00, 381.4, 8.0)">ъ</text><text xml:space="preserve" font-family="AvenirNext-Regular" font-size="24.3" fill="#000000" transform="matrix(1.00, 0.00, -0.00, -1.00, 394.8, 8.0)">ц</text><text xml:space="preserve" font-family="AvenirNext-Regular" font-size="24.3" fill="#000000" transform="matrix(1.00, 0.00, -0.00, -1.00, 408.7, 8.0)">и</text><text xml:space="preserve" font-family="AvenirNext-Regular" font-size="24.3" fill="#000000" transform="matrix(1.00, 0.00, -0.00, -1.00, 423.2, 8.0)">,</text><text xml:space="preserve" font-family="AvenirNext-Regular" font-size="24.3" fill="#000000" transform="matrix(1.00, 0.00, -0.00, -1.00, 428.8, 8.0)"> </text><text xml:space="preserve" font-family="AvenirNext-Regular" font-size="24.3" fill="#000000" transform="matrix(1.00, 0.00, -0.00, -1.00, 434.9, 8.0)">ц</text><text xml:space="preserve" font-family="AvenirNext-Regular" font-size="24.3" fill="#000000" transform="matrix(1.00, 0.00, -0.00, -1.00, 448.8, 8.0)">и</text><text xml:space="preserve" font-family="AvenirNext-Regular" font-size="24.3" fill="#000000" transform="matrix(1.00, 0.00, -0.00, -1.00, 463.4, 8.0)">т</text><text xml:space="preserve" font-family="AvenirNext-Regular" font-size="24.3" fill="#000000" transform="matrix(1.00, 0.00, -0.00, -1.00, 473.8, 8.0)">а</text><text xml:space="preserve" font-family="AvenirNext-Regular" font-size="24.3" fill="#000000" transform="matrix(1.00, 0.00, -0.00, -1.00, 486.8, 8.0)">т</text><text xml:space="preserve" font-family="AvenirNext-Regular" font-size="24.3" fill="#000000" transform="matrix(1.00, 0.00, -0.00, -1.00, 497.3, 8.0)">и</text><text xml:space="preserve" font-family="AvenirNext-Regular" font-size="24.3" fill="#000000" transform="matrix(1.00, 0.00, -0.00, -1.00, 511.9, 8.0)"> </text><text xml:space="preserve" font-family="AvenirNext-Regular" font-size="24.3" fill="#000000" transform="matrix(1.00, 0.00, -0.00, -1.00, 518.0, 8.0)">и</text><text xml:space="preserve" font-family="AvenirNext-Regular" font-size="24.3" fill="#000000" transform="matrix(1.00, 0.00, -0.00, -1.00, 532.5, 8.0)"> </text><text xml:space="preserve" font-family="AvenirNext-Regular" font-size="24.3" fill="#000000" transform="matrix(1.00, 0.00, -0.00, -1.00, 538.6, 8.0)">т</text><text xml:space="preserve" font-family="AvenirNext-Regular" font-size="24.3" fill="#000000" transform="matrix(1.00, 0.00, -0.00, -1.00, 549.1, 8.0)">.</text><text xml:space="preserve" font-family="AvenirNext-Regular" font-size="24.3" fill="#000000" transform="matrix(1.00, 0.00, -0.00, -1.00, 555.4, 8.0)">н</text><text xml:space="preserve" font-family="AvenirNext-Regular" font-size="24.3" fill="#000000" transform="matrix(1.00, 0.00, -0.00, -1.00, 569.4, 8.0)">…</text><text xml:space="preserve" font-family="AvenirNext-Regular" font-size="24.3" fill="#000000" transform="matrix(1.00, 0.00, -0.00, -1.00, 593.7, 8.0)">)</text></g></svg>