<?xml version="1.0" encoding="UTF-8" standalone="no"?><svg xmlns="http://www.w3.org/2000/svg" xmlns:xlink="http://www.w3.org/1999/xlink" clip-rule="evenodd" stroke-miterlimit="4.00" viewBox="0 0 575 64"><desc>SVG generated by Keynote</desc><defs></defs><g transform="matrix(1.00, 0.00, -0.00, -1.00, 0.0, 64.0)"><text xml:space="preserve" font-family="AvenirNext-Regular" font-size="60.0" fill="#000000" transform="matrix(1.00, 0.00, -0.00, -1.00, 0.0, 16.0)">W</text><text xml:space="preserve" font-family="AvenirNext-Regular" font-size="60.0" fill="#000000" transform="matrix(1.00, 0.00, -0.00, -1.00, 58.3, 16.0)">h</text><text xml:space="preserve" font-family="AvenirNext-Regular" font-size="60.0" fill="#000000" transform="matrix(1.00, 0.00, -0.00, -1.00, 93.3, 16.0)">a</text><text xml:space="preserve" font-family="AvenirNext-Regular" font-size="60.0" fill="#000000" transform="matrix(1.00, 0.00, -0.00, -1.00, 124.7, 16.0)">t</text><text xml:space="preserve" font-family="AvenirNext-Regular" font-size="60.0" fill="#000000" transform="matrix(1.00, 0.00, -0.00, -1.00, 143.8, 16.0)"> </text><text xml:space="preserve" font-family="AvenirNext-Regular" font-size="60.0" fill="#000000" transform="matrix(1.00, 0.00, -0.00, -1.00, 157.7, 16.0)">A</text><text xml:space="preserve" font-family="AvenirNext-Regular" font-size="60.0" fill="#000000" transform="matrix(1.00, 0.00, -0.00, -1.00, 199.7, 16.0)">r</text><text xml:space="preserve" font-family="AvenirNext-Regular" font-size="60.0" fill="#000000" transform="matrix(1.00, 0.00, -0.00, -1.00, 220.2, 16.0)">e</text><text xml:space="preserve" font-family="AvenirNext-Regular" font-size="60.0" fill="#000000" transform="matrix(1.00, 0.00, -0.00, -1.00, 254.5, 16.0)"> </text><text xml:space="preserve" font-family="AvenirNext-Regular" font-size="60.0" fill="#000000" transform="matrix(1.00, 0.00, -0.00, -1.00, 269.5, 16.0)">M</text><text xml:space="preserve" font-family="AvenirNext-Regular" font-size="60.0" fill="#000000" transform="matrix(1.00, 0.00, -0.00, -1.00, 322.7, 16.0)">e</text><text xml:space="preserve" font-family="AvenirNext-Regular" font-size="60.0" fill="#000000" transform="matrix(1.00, 0.00, -0.00, -1.00, 357.0, 16.0)">t</text><text xml:space="preserve" font-family="AvenirNext-Regular" font-size="60.0" fill="#000000" transform="matrix(1.00, 0.00, -0.00, -1.00, 376.0, 16.0)">a</text><text xml:space="preserve" font-family="AvenirNext-Regular" font-size="60.0" fill="#000000" transform="matrix(1.00, 0.00, -0.00, -1.00, 408.1, 16.0)"> </text><text xml:space="preserve" font-family="AvenirNext-Regular" font-size="60.0" fill="#000000" transform="matrix(1.00, 0.00, -0.00, -1.00, 421.6, 16.0)">T</text><text xml:space="preserve" font-family="AvenirNext-Regular" font-size="60.0" fill="#000000" transform="matrix(1.00, 0.00, -0.00, -1.00, 450.1, 16.0)">a</text><text xml:space="preserve" font-family="AvenirNext-Regular" font-size="60.0" fill="#000000" transform="matrix(1.00, 0.00, -0.00, -1.00, 482.1, 16.0)">g</text><text xml:space="preserve" font-family="AvenirNext-Regular" font-size="60.0" fill="#000000" transform="matrix(1.00, 0.00, -0.00, -1.00, 520.0, 16.0)">s</text><text xml:space="preserve" font-family="AvenirNext-Regular" font-size="60.0" fill="#000000" transform="matrix(1.00, 0.00, -0.00, -1.00, 546.7, 16.0)">?</text></g></svg>