<?xml version="1.0" encoding="UTF-8" standalone="no"?><svg xmlns="http://www.w3.org/2000/svg" xmlns:xlink="http://www.w3.org/1999/xlink" clip-rule="evenodd" stroke-miterlimit="4.00" viewBox="0 0 508 59"><desc>SVG generated by Keynote</desc><defs></defs><g transform="matrix(1.00, 0.00, -0.00, -1.00, 0.0, 59.0)"><text xml:space="preserve" font-family="AvenirNext-Regular" font-size="54.0" fill="#000000" transform="matrix(1.00, 0.00, -0.00, -1.00, 1.0, 16.0)">f</text><text xml:space="preserve" font-family="AvenirNext-Regular" font-size="54.0" fill="#000000" transform="matrix(1.00, 0.00, -0.00, -1.00, 16.9, 16.0)">u</text><text xml:space="preserve" font-family="AvenirNext-Regular" font-size="54.0" fill="#000000" transform="matrix(1.00, 0.00, -0.00, -1.00, 48.3, 16.0)">l</text><text xml:space="preserve" font-family="AvenirNext-Regular" font-size="54.0" fill="#000000" transform="matrix(1.00, 0.00, -0.00, -1.00, 61.9, 16.0)">l</text><text xml:space="preserve" font-family="AvenirNext-Regular" font-size="54.0" fill="#000000" transform="matrix(1.00, 0.00, -0.00, -1.00, 75.5, 16.0)">-</text><text xml:space="preserve" font-family="AvenirNext-Regular" font-size="54.0" fill="#000000" transform="matrix(1.00, 0.00, -0.00, -1.00, 92.8, 16.0)">s</text><text xml:space="preserve" font-family="AvenirNext-Regular" font-size="54.0" fill="#000000" transform="matrix(1.00, 0.00, -0.00, -1.00, 116.8, 16.0)">t</text><text xml:space="preserve" font-family="AvenirNext-Regular" font-size="54.0" fill="#000000" transform="matrix(1.00, 0.00, -0.00, -1.00, 133.9, 16.0)">a</text><text xml:space="preserve" font-family="AvenirNext-Regular" font-size="54.0" fill="#000000" transform="matrix(1.00, 0.00, -0.00, -1.00, 162.7, 16.0)">c</text><text xml:space="preserve" font-family="AvenirNext-Regular" font-size="54.0" fill="#000000" transform="matrix(1.00, 0.00, -0.00, -1.00, 189.7, 16.0)">k</text><text xml:space="preserve" font-family="AvenirNext-Regular" font-size="54.0" fill="#000000" transform="matrix(1.00, 0.00, -0.00, -1.00, 217.3, 16.0)"> </text><text xml:space="preserve" font-family="AvenirNext-Regular" font-size="54.0" fill="#000000" transform="matrix(1.00, 0.00, -0.00, -1.00, 230.8, 16.0)">d</text><text xml:space="preserve" font-family="AvenirNext-Regular" font-size="54.0" fill="#000000" transform="matrix(1.00, 0.00, -0.00, -1.00, 265.2, 16.0)">e</text><text xml:space="preserve" font-family="AvenirNext-Regular" font-size="54.0" fill="#000000" transform="matrix(1.00, 0.00, -0.00, -1.00, 296.1, 16.0)">v</text><text xml:space="preserve" font-family="AvenirNext-Regular" font-size="54.0" fill="#000000" transform="matrix(1.00, 0.00, -0.00, -1.00, 322.4, 16.0)">e</text><text xml:space="preserve" font-family="AvenirNext-Regular" font-size="54.0" fill="#000000" transform="matrix(1.00, 0.00, -0.00, -1.00, 353.3, 16.0)">l</text><text xml:space="preserve" font-family="AvenirNext-Regular" font-size="54.0" fill="#000000" transform="matrix(1.00, 0.00, -0.00, -1.00, 366.9, 16.0)">o</text><text xml:space="preserve" font-family="AvenirNext-Regular" font-size="54.0" fill="#000000" transform="matrix(1.00, 0.00, -0.00, -1.00, 399.9, 16.0)">p</text><text xml:space="preserve" font-family="AvenirNext-Regular" font-size="54.0" fill="#000000" transform="matrix(1.00, 0.00, -0.00, -1.00, 434.2, 16.0)">e</text><text xml:space="preserve" font-family="AvenirNext-Regular" font-size="54.0" fill="#000000" transform="matrix(1.00, 0.00, -0.00, -1.00, 465.1, 16.0)">r</text><text xml:space="preserve" font-family="AvenirNext-Regular" font-size="54.0" fill="#000000" transform="matrix(1.00, 0.00, -0.00, -1.00, 484.5, 16.0)">s</text></g></svg>