<?xml version="1.0" encoding="UTF-8" standalone="no"?><svg xmlns="http://www.w3.org/2000/svg" xmlns:xlink="http://www.w3.org/1999/xlink" clip-rule="evenodd" stroke-miterlimit="4.00" viewBox="0 0 870 143"><desc>SVG generated by Keynote</desc><defs></defs><g transform="matrix(1.00, 0.00, -0.00, -1.00, 0.0, 143.0)"><text xml:space="preserve" font-family="AvenirNext-Regular" font-size="20.5" fill="#000000" transform="matrix(1.00, 0.00, -0.00, -1.00, 0.3, 121.3)">•</text><text xml:space="preserve" font-family="AvenirNext-Regular" font-size="27.4" fill="#000000" transform="matrix(1.00, 0.00, -0.00, -1.00, 27.0, 120.0)">Ч</text><text xml:space="preserve" font-family="AvenirNext-Regular" font-size="27.4" fill="#000000" transform="matrix(1.00, 0.00, -0.00, -1.00, 44.0, 120.0)">е</text><text xml:space="preserve" font-family="AvenirNext-Regular" font-size="27.4" fill="#000000" transform="matrix(1.00, 0.00, -0.00, -1.00, 59.7, 120.0)">с</text><text xml:space="preserve" font-family="AvenirNext-Regular" font-size="27.4" fill="#000000" transform="matrix(1.00, 0.00, -0.00, -1.00, 73.4, 120.0)">т</text><text xml:space="preserve" font-family="AvenirNext-Regular" font-size="27.4" fill="#000000" transform="matrix(1.00, 0.00, -0.00, -1.00, 85.2, 120.0)">о</text><text xml:space="preserve" font-family="AvenirNext-Regular" font-size="27.4" fill="#000000" transform="matrix(1.00, 0.00, -0.00, -1.00, 101.9, 120.0)"> </text><text xml:space="preserve" font-family="AvenirNext-Regular" font-size="27.4" fill="#000000" transform="matrix(1.00, 0.00, -0.00, -1.00, 108.7, 120.0)">ф</text><text xml:space="preserve" font-family="AvenirNext-Regular" font-size="27.4" fill="#000000" transform="matrix(1.00, 0.00, -0.00, -1.00, 127.0, 120.0)">у</text><text xml:space="preserve" font-family="AvenirNext-Regular" font-size="27.4" fill="#000000" transform="matrix(1.00, 0.00, -0.00, -1.00, 140.3, 120.0)">н</text><text xml:space="preserve" font-family="AvenirNext-Regular" font-size="27.4" fill="#000000" transform="matrix(1.00, 0.00, -0.00, -1.00, 156.1, 120.0)">к</text><text xml:space="preserve" font-family="AvenirNext-Regular" font-size="27.4" fill="#000000" transform="matrix(1.00, 0.00, -0.00, -1.00, 170.9, 120.0)">ц</text><text xml:space="preserve" font-family="AvenirNext-Regular" font-size="27.4" fill="#000000" transform="matrix(1.00, 0.00, -0.00, -1.00, 186.5, 120.0)">и</text><text xml:space="preserve" font-family="AvenirNext-Regular" font-size="27.4" fill="#000000" transform="matrix(1.00, 0.00, -0.00, -1.00, 202.9, 120.0)">и</text><text xml:space="preserve" font-family="AvenirNext-Regular" font-size="27.4" fill="#000000" transform="matrix(1.00, 0.00, -0.00, -1.00, 219.3, 120.0)">т</text><text xml:space="preserve" font-family="AvenirNext-Regular" font-size="27.4" fill="#000000" transform="matrix(1.00, 0.00, -0.00, -1.00, 231.1, 120.0)">е</text><text xml:space="preserve" font-family="AvenirNext-Regular" font-size="27.4" fill="#000000" transform="matrix(1.00, 0.00, -0.00, -1.00, 246.8, 120.0)"> </text><text xml:space="preserve" font-family="AvenirNext-Regular" font-size="27.4" fill="#000000" transform="matrix(1.00, 0.00, -0.00, -1.00, 253.6, 120.0)">н</text><text xml:space="preserve" font-family="AvenirNext-Regular" font-size="27.4" fill="#000000" transform="matrix(1.00, 0.00, -0.00, -1.00, 269.3, 120.0)">и</text><text xml:space="preserve" font-family="AvenirNext-Regular" font-size="27.4" fill="#000000" transform="matrix(1.00, 0.00, -0.00, -1.00, 285.7, 120.0)"> </text><text xml:space="preserve" font-family="AvenirNext-Regular" font-size="27.4" fill="#000000" transform="matrix(1.00, 0.00, -0.00, -1.00, 292.6, 120.0)">о</text><text xml:space="preserve" font-family="AvenirNext-Regular" font-size="27.4" fill="#000000" transform="matrix(1.00, 0.00, -0.00, -1.00, 309.3, 120.0)">ч</text><text xml:space="preserve" font-family="AvenirNext-Regular" font-size="27.4" fill="#000000" transform="matrix(1.00, 0.00, -0.00, -1.00, 323.4, 120.0)">а</text><text xml:space="preserve" font-family="AvenirNext-Regular" font-size="27.4" fill="#000000" transform="matrix(1.00, 0.00, -0.00, -1.00, 338.0, 120.0)">к</text><text xml:space="preserve" font-family="AvenirNext-Regular" font-size="27.4" fill="#000000" transform="matrix(1.00, 0.00, -0.00, -1.00, 352.9, 120.0)">в</text><text xml:space="preserve" font-family="AvenirNext-Regular" font-size="27.4" fill="#000000" transform="matrix(1.00, 0.00, -0.00, -1.00, 367.7, 120.0)">а</text><text xml:space="preserve" font-family="AvenirNext-Regular" font-size="27.4" fill="#000000" transform="matrix(1.00, 0.00, -0.00, -1.00, 382.3, 120.0)">т</text><text xml:space="preserve" font-family="AvenirNext-Regular" font-size="27.4" fill="#000000" transform="matrix(1.00, 0.00, -0.00, -1.00, 394.1, 120.0)"> </text><text xml:space="preserve" font-family="AvenirNext-Regular" font-size="27.4" fill="#000000" transform="matrix(1.00, 0.00, -0.00, -1.00, 400.9, 120.0)">д</text><text xml:space="preserve" font-family="AvenirNext-Regular" font-size="27.4" fill="#000000" transform="matrix(1.00, 0.00, -0.00, -1.00, 415.8, 120.0)">а</text><text xml:space="preserve" font-family="AvenirNext-Regular" font-size="27.4" fill="#000000" transform="matrix(1.00, 0.00, -0.00, -1.00, 430.4, 120.0)"> </text><text xml:space="preserve" font-family="AvenirNext-Regular" font-size="27.4" fill="#000000" transform="matrix(1.00, 0.00, -0.00, -1.00, 437.2, 120.0)">п</text><text xml:space="preserve" font-family="AvenirNext-Regular" font-size="27.4" fill="#000000" transform="matrix(1.00, 0.00, -0.00, -1.00, 452.7, 120.0)">о</text><text xml:space="preserve" font-family="AvenirNext-Regular" font-size="27.4" fill="#000000" transform="matrix(1.00, 0.00, -0.00, -1.00, 469.5, 120.0)">л</text><text xml:space="preserve" font-family="AvenirNext-Regular" font-size="27.4" fill="#000000" transform="matrix(1.00, 0.00, -0.00, -1.00, 483.1, 120.0)">у</text><text xml:space="preserve" font-family="AvenirNext-Regular" font-size="27.4" fill="#000000" transform="matrix(1.00, 0.00, -0.00, -1.00, 496.4, 120.0)">ч</text><text xml:space="preserve" font-family="AvenirNext-Regular" font-size="27.4" fill="#000000" transform="matrix(1.00, 0.00, -0.00, -1.00, 510.5, 120.0)">а</text><text xml:space="preserve" font-family="AvenirNext-Regular" font-size="27.4" fill="#000000" transform="matrix(1.00, 0.00, -0.00, -1.00, 525.1, 120.0)">т</text><text xml:space="preserve" font-family="AvenirNext-Regular" font-size="27.4" fill="#000000" transform="matrix(1.00, 0.00, -0.00, -1.00, 536.9, 120.0)"> </text><text xml:space="preserve" font-family="AvenirNext-Regular" font-size="27.4" fill="#000000" transform="matrix(1.00, 0.00, -0.00, -1.00, 543.8, 120.0)">п</text><text xml:space="preserve" font-family="AvenirNext-Regular" font-size="27.4" fill="#000000" transform="matrix(1.00, 0.00, -0.00, -1.00, 559.3, 120.0)">а</text><text xml:space="preserve" font-family="AvenirNext-Regular" font-size="27.4" fill="#000000" transform="matrix(1.00, 0.00, -0.00, -1.00, 573.9, 120.0)">р</text><text xml:space="preserve" font-family="AvenirNext-Regular" font-size="27.4" fill="#000000" transform="matrix(1.00, 0.00, -0.00, -1.00, 591.3, 120.0)">а</text><text xml:space="preserve" font-family="AvenirNext-Regular" font-size="27.4" fill="#000000" transform="matrix(1.00, 0.00, -0.00, -1.00, 605.9, 120.0)">м</text><text xml:space="preserve" font-family="AvenirNext-Regular" font-size="27.4" fill="#000000" transform="matrix(1.00, 0.00, -0.00, -1.00, 624.9, 120.0)">е</text><text xml:space="preserve" font-family="AvenirNext-Regular" font-size="27.4" fill="#000000" transform="matrix(1.00, 0.00, -0.00, -1.00, 640.5, 120.0)">т</text><text xml:space="preserve" font-family="AvenirNext-Regular" font-size="27.4" fill="#000000" transform="matrix(1.00, 0.00, -0.00, -1.00, 652.3, 120.0)">ъ</text><text xml:space="preserve" font-family="AvenirNext-Regular" font-size="27.4" fill="#000000" transform="matrix(1.00, 0.00, -0.00, -1.00, 667.4, 120.0)">р</text><text xml:space="preserve" font-family="AvenirNext-Regular" font-size="27.4" fill="#000000" transform="matrix(1.00, 0.00, -0.00, -1.00, 684.8, 120.0)"> </text><text xml:space="preserve" font-family="AvenirNext-Regular" font-size="27.4" fill="#000000" transform="matrix(1.00, 0.00, -0.00, -1.00, 691.7, 120.0)">о</text><text xml:space="preserve" font-family="AvenirNext-Regular" font-size="27.4" fill="#000000" transform="matrix(1.00, 0.00, -0.00, -1.00, 708.4, 120.0)">т</text><text xml:space="preserve" font-family="AvenirNext-Regular" font-size="27.4" fill="#000000" transform="matrix(1.00, 0.00, -0.00, -1.00, 720.2, 120.0)"> </text><text xml:space="preserve" font-family="AvenirNext-Regular" font-size="27.4" fill="#000000" transform="matrix(1.00, 0.00, -0.00, -1.00, 727.0, 120.0)">о</text><text xml:space="preserve" font-family="AvenirNext-Regular" font-size="27.4" fill="#000000" transform="matrix(1.00, 0.00, -0.00, -1.00, 743.7, 120.0)">п</text><text xml:space="preserve" font-family="AvenirNext-Regular" font-size="27.4" fill="#000000" transform="matrix(1.00, 0.00, -0.00, -1.00, 759.2, 120.0)">р</text><text xml:space="preserve" font-family="AvenirNext-Regular" font-size="27.4" fill="#000000" transform="matrix(1.00, 0.00, -0.00, -1.00, 776.6, 120.0)">е</text><text xml:space="preserve" font-family="AvenirNext-Regular" font-size="27.4" fill="#000000" transform="matrix(1.00, 0.00, -0.00, -1.00, 792.3, 120.0)">д</text><text xml:space="preserve" font-family="AvenirNext-Regular" font-size="27.4" fill="#000000" transform="matrix(1.00, 0.00, -0.00, -1.00, 807.1, 120.0)">е</text><text xml:space="preserve" font-family="AvenirNext-Regular" font-size="27.4" fill="#000000" transform="matrix(1.00, 0.00, -0.00, -1.00, 822.8, 120.0)">л</text><text xml:space="preserve" font-family="AvenirNext-Regular" font-size="27.4" fill="#000000" transform="matrix(1.00, 0.00, -0.00, -1.00, 836.4, 120.0)">е</text><text xml:space="preserve" font-family="AvenirNext-Regular" font-size="27.4" fill="#000000" transform="matrix(1.00, 0.00, -0.00, -1.00, 852.0, 120.0)">н</text><text xml:space="preserve" font-family="AvenirNext-Regular" font-size="27.4" fill="#000000" transform="matrix(1.00, 0.00, -0.00, -1.00, 867.8, 120.0)"> </text><text xml:space="preserve" font-family="AvenirNext-Regular" font-size="27.4" fill="#000000" transform="matrix(1.00, 0.00, -0.00, -1.00, 27.0, 83.0)">т</text><text xml:space="preserve" font-family="AvenirNext-Regular" font-size="27.4" fill="#000000" transform="matrix(1.00, 0.00, -0.00, -1.00, 38.8, 83.0)">и</text><text xml:space="preserve" font-family="AvenirNext-Regular" font-size="27.4" fill="#000000" transform="matrix(1.00, 0.00, -0.00, -1.00, 55.2, 83.0)">п</text><text xml:space="preserve" font-family="AvenirNext-Regular" font-size="27.4" fill="#000000" transform="matrix(1.00, 0.00, -0.00, -1.00, 70.7, 83.0)">,</text><text xml:space="preserve" font-family="AvenirNext-Regular" font-size="27.4" fill="#000000" transform="matrix(1.00, 0.00, -0.00, -1.00, 77.0, 83.0)"> </text><text xml:space="preserve" font-family="AvenirNext-Regular" font-size="27.4" fill="#000000" transform="matrix(1.00, 0.00, -0.00, -1.00, 83.8, 83.0)">н</text><text xml:space="preserve" font-family="AvenirNext-Regular" font-size="27.4" fill="#000000" transform="matrix(1.00, 0.00, -0.00, -1.00, 99.6, 83.0)">а</text><text xml:space="preserve" font-family="AvenirNext-Regular" font-size="27.4" fill="#000000" transform="matrix(1.00, 0.00, -0.00, -1.00, 114.2, 83.0)">п</text><text xml:space="preserve" font-family="AvenirNext-Regular" font-size="27.4" fill="#000000" transform="matrix(1.00, 0.00, -0.00, -1.00, 129.7, 83.0)">р</text><text xml:space="preserve" font-family="AvenirNext-Regular" font-size="27.4" fill="#000000" transform="matrix(1.00, 0.00, -0.00, -1.00, 147.1, 83.0)">и</text><text xml:space="preserve" font-family="AvenirNext-Regular" font-size="27.4" fill="#000000" transform="matrix(1.00, 0.00, -0.00, -1.00, 163.4, 83.0)">м</text><text xml:space="preserve" font-family="AvenirNext-Regular" font-size="27.4" fill="#000000" transform="matrix(1.00, 0.00, -0.00, -1.00, 182.5, 83.0)">е</text><text xml:space="preserve" font-family="AvenirNext-Regular" font-size="27.4" fill="#000000" transform="matrix(1.00, 0.00, -0.00, -1.00, 198.1, 83.0)">р</text><text xml:space="preserve" font-family="AvenirNext-Regular" font-size="27.4" fill="#000000" transform="matrix(1.00, 0.00, -0.00, -1.00, 215.5, 83.0)"> </text><text xml:space="preserve" font-family="AvenirNext-Regular" font-size="27.4" fill="#000000" transform="matrix(1.00, 0.00, -0.00, -1.00, 222.3, 83.0)">о</text><text xml:space="preserve" font-family="AvenirNext-Regular" font-size="27.4" fill="#000000" transform="matrix(1.00, 0.00, -0.00, -1.00, 239.0, 83.0)">б</text><text xml:space="preserve" font-family="AvenirNext-Regular" font-size="27.4" fill="#000000" transform="matrix(1.00, 0.00, -0.00, -1.00, 255.4, 83.0)">е</text><text xml:space="preserve" font-family="AvenirNext-Regular" font-size="27.4" fill="#000000" transform="matrix(1.00, 0.00, -0.00, -1.00, 271.1, 83.0)">к</text><text xml:space="preserve" font-family="AvenirNext-Regular" font-size="27.4" fill="#000000" transform="matrix(1.00, 0.00, -0.00, -1.00, 285.9, 83.0)">т</text><text xml:space="preserve" font-family="AvenirNext-Regular" font-size="27.4" fill="#000000" transform="matrix(1.00, 0.00, -0.00, -1.00, 297.7, 83.0)"> </text><text xml:space="preserve" font-family="AvenirNext-Regular" font-size="27.4" fill="#000000" transform="matrix(1.00, 0.00, -0.00, -1.00, 304.6, 83.0)">и</text><text xml:space="preserve" font-family="AvenirNext-Regular" font-size="27.4" fill="#000000" transform="matrix(1.00, 0.00, -0.00, -1.00, 321.0, 83.0)">л</text><text xml:space="preserve" font-family="AvenirNext-Regular" font-size="27.4" fill="#000000" transform="matrix(1.00, 0.00, -0.00, -1.00, 334.6, 83.0)">и</text><text xml:space="preserve" font-family="AvenirNext-Regular" font-size="27.4" fill="#000000" transform="matrix(1.00, 0.00, -0.00, -1.00, 350.9, 83.0)"> </text><text xml:space="preserve" font-family="AvenirNext-Regular" font-size="27.4" fill="#000000" transform="matrix(1.00, 0.00, -0.00, -1.00, 357.8, 83.0)">A</text><text xml:space="preserve" font-family="AvenirNext-Regular" font-size="27.4" fill="#000000" transform="matrix(1.00, 0.00, -0.00, -1.00, 376.9, 83.0)">r</text><text xml:space="preserve" font-family="AvenirNext-Regular" font-size="27.4" fill="#000000" transform="matrix(1.00, 0.00, -0.00, -1.00, 386.8, 83.0)">r</text><text xml:space="preserve" font-family="AvenirNext-Regular" font-size="27.4" fill="#000000" transform="matrix(1.00, 0.00, -0.00, -1.00, 396.3, 83.0)">a</text><text xml:space="preserve" font-family="AvenirNext-Regular" font-size="27.4" fill="#000000" transform="matrix(1.00, 0.00, -0.00, -1.00, 410.9, 83.0)">y</text><text xml:space="preserve" font-family="AvenirNext-Regular" font-size="27.4" fill="#000000" transform="matrix(1.00, 0.00, -0.00, -1.00, 423.3, 83.0)">,</text><text xml:space="preserve" font-family="AvenirNext-Regular" font-size="27.4" fill="#000000" transform="matrix(1.00, 0.00, -0.00, -1.00, 429.6, 83.0)"> </text><text xml:space="preserve" font-family="AvenirNext-Regular" font-size="27.4" fill="#000000" transform="matrix(1.00, 0.00, -0.00, -1.00, 436.4, 83.0)">н</text><text xml:space="preserve" font-family="AvenirNext-Regular" font-size="27.4" fill="#000000" transform="matrix(1.00, 0.00, -0.00, -1.00, 452.1, 83.0)">о</text><text xml:space="preserve" font-family="AvenirNext-Regular" font-size="27.4" fill="#000000" transform="matrix(1.00, 0.00, -0.00, -1.00, 468.9, 83.0)"> </text><text xml:space="preserve" font-family="AvenirNext-Regular" font-size="27.4" fill="#000000" transform="matrix(1.00, 0.00, -0.00, -1.00, 475.7, 83.0)">а</text><text xml:space="preserve" font-family="AvenirNext-Regular" font-size="27.4" fill="#000000" transform="matrix(1.00, 0.00, -0.00, -1.00, 490.3, 83.0)">к</text><text xml:space="preserve" font-family="AvenirNext-Regular" font-size="27.4" fill="#000000" transform="matrix(1.00, 0.00, -0.00, -1.00, 505.2, 83.0)">о</text><text xml:space="preserve" font-family="AvenirNext-Regular" font-size="27.4" fill="#000000" transform="matrix(1.00, 0.00, -0.00, -1.00, 521.9, 83.0)"> </text><text xml:space="preserve" font-family="AvenirNext-Regular" font-size="27.4" fill="#000000" transform="matrix(1.00, 0.00, -0.00, -1.00, 528.7, 83.0)">в</text><text xml:space="preserve" font-family="AvenirNext-Regular" font-size="27.4" fill="#000000" transform="matrix(1.00, 0.00, -0.00, -1.00, 543.5, 83.0)">м</text><text xml:space="preserve" font-family="AvenirNext-Regular" font-size="27.4" fill="#000000" transform="matrix(1.00, 0.00, -0.00, -1.00, 562.5, 83.0)">е</text><text xml:space="preserve" font-family="AvenirNext-Regular" font-size="27.4" fill="#000000" transform="matrix(1.00, 0.00, -0.00, -1.00, 578.2, 83.0)">с</text><text xml:space="preserve" font-family="AvenirNext-Regular" font-size="27.4" fill="#000000" transform="matrix(1.00, 0.00, -0.00, -1.00, 591.9, 83.0)">т</text><text xml:space="preserve" font-family="AvenirNext-Regular" font-size="27.4" fill="#000000" transform="matrix(1.00, 0.00, -0.00, -1.00, 603.7, 83.0)">о</text><text xml:space="preserve" font-family="AvenirNext-Regular" font-size="27.4" fill="#000000" transform="matrix(1.00, 0.00, -0.00, -1.00, 620.4, 83.0)"> </text><text xml:space="preserve" font-family="AvenirNext-Regular" font-size="27.4" fill="#000000" transform="matrix(1.00, 0.00, -0.00, -1.00, 627.2, 83.0)">т</text><text xml:space="preserve" font-family="AvenirNext-Regular" font-size="27.4" fill="#000000" transform="matrix(1.00, 0.00, -0.00, -1.00, 639.0, 83.0)">о</text><text xml:space="preserve" font-family="AvenirNext-Regular" font-size="27.4" fill="#000000" transform="matrix(1.00, 0.00, -0.00, -1.00, 655.7, 83.0)">в</text><text xml:space="preserve" font-family="AvenirNext-Regular" font-size="27.4" fill="#000000" transform="matrix(1.00, 0.00, -0.00, -1.00, 670.5, 83.0)">а</text><text xml:space="preserve" font-family="AvenirNext-Regular" font-size="27.4" fill="#000000" transform="matrix(1.00, 0.00, -0.00, -1.00, 685.1, 83.0)"> </text><text xml:space="preserve" font-family="AvenirNext-Regular" font-size="27.4" fill="#000000" transform="matrix(1.00, 0.00, -0.00, -1.00, 692.0, 83.0)">п</text><text xml:space="preserve" font-family="AvenirNext-Regular" font-size="27.4" fill="#000000" transform="matrix(1.00, 0.00, -0.00, -1.00, 707.5, 83.0)">о</text><text xml:space="preserve" font-family="AvenirNext-Regular" font-size="27.4" fill="#000000" transform="matrix(1.00, 0.00, -0.00, -1.00, 724.2, 83.0)">д</text><text xml:space="preserve" font-family="AvenirNext-Regular" font-size="27.4" fill="#000000" transform="matrix(1.00, 0.00, -0.00, -1.00, 739.1, 83.0)">а</text><text xml:space="preserve" font-family="AvenirNext-Regular" font-size="27.4" fill="#000000" transform="matrix(1.00, 0.00, -0.00, -1.00, 753.7, 83.0)">д</text><text xml:space="preserve" font-family="AvenirNext-Regular" font-size="27.4" fill="#000000" transform="matrix(1.00, 0.00, -0.00, -1.00, 768.6, 83.0)">е</text><text xml:space="preserve" font-family="AvenirNext-Regular" font-size="27.4" fill="#000000" transform="matrix(1.00, 0.00, -0.00, -1.00, 784.2, 83.0)">м</text><text xml:space="preserve" font-family="AvenirNext-Regular" font-size="27.4" fill="#000000" transform="matrix(1.00, 0.00, -0.00, -1.00, 803.3, 83.0)"> </text><text xml:space="preserve" font-family="AvenirNext-Regular" font-size="27.4" fill="#000000" transform="matrix(1.00, 0.00, -0.00, -1.00, 27.0, 46.0)">ч</text><text xml:space="preserve" font-family="AvenirNext-Regular" font-size="27.4" fill="#000000" transform="matrix(1.00, 0.00, -0.00, -1.00, 41.1, 46.0)">и</text><text xml:space="preserve" font-family="AvenirNext-Regular" font-size="27.4" fill="#000000" transform="matrix(1.00, 0.00, -0.00, -1.00, 57.5, 46.0)">с</text><text xml:space="preserve" font-family="AvenirNext-Regular" font-size="27.4" fill="#000000" transform="matrix(1.00, 0.00, -0.00, -1.00, 71.2, 46.0)">л</text><text xml:space="preserve" font-family="AvenirNext-Regular" font-size="27.4" fill="#000000" transform="matrix(1.00, 0.00, -0.00, -1.00, 84.8, 46.0)">о</text><text xml:space="preserve" font-family="AvenirNext-Regular" font-size="27.4" fill="#000000" transform="matrix(1.00, 0.00, -0.00, -1.00, 101.5, 46.0)">,</text><text xml:space="preserve" font-family="AvenirNext-Regular" font-size="27.4" fill="#000000" transform="matrix(1.00, 0.00, -0.00, -1.00, 107.8, 46.0)"> </text><text xml:space="preserve" font-family="AvenirNext-Regular" font-size="27.4" fill="#000000" transform="matrix(1.00, 0.00, -0.00, -1.00, 114.6, 46.0)">м</text><text xml:space="preserve" font-family="AvenirNext-Regular" font-size="27.4" fill="#000000" transform="matrix(1.00, 0.00, -0.00, -1.00, 133.6, 46.0)">о</text><text xml:space="preserve" font-family="AvenirNext-Regular" font-size="27.4" fill="#000000" transform="matrix(1.00, 0.00, -0.00, -1.00, 150.4, 46.0)">ж</text><text xml:space="preserve" font-family="AvenirNext-Regular" font-size="27.4" fill="#000000" transform="matrix(1.00, 0.00, -0.00, -1.00, 172.7, 46.0)">е</text><text xml:space="preserve" font-family="AvenirNext-Regular" font-size="27.4" fill="#000000" transform="matrix(1.00, 0.00, -0.00, -1.00, 188.3, 46.0)"> </text><text xml:space="preserve" font-family="AvenirNext-Regular" font-size="27.4" fill="#000000" transform="matrix(1.00, 0.00, -0.00, -1.00, 195.2, 46.0)">в</text><text xml:space="preserve" font-family="AvenirNext-Regular" font-size="27.4" fill="#000000" transform="matrix(1.00, 0.00, -0.00, -1.00, 210.0, 46.0)">з</text><text xml:space="preserve" font-family="AvenirNext-Regular" font-size="27.4" fill="#000000" transform="matrix(1.00, 0.00, -0.00, -1.00, 222.7, 46.0)">и</text><text xml:space="preserve" font-family="AvenirNext-Regular" font-size="27.4" fill="#000000" transform="matrix(1.00, 0.00, -0.00, -1.00, 239.0, 46.0)">ч</text><text xml:space="preserve" font-family="AvenirNext-Regular" font-size="27.4" fill="#000000" transform="matrix(1.00, 0.00, -0.00, -1.00, 253.2, 46.0)">к</text><text xml:space="preserve" font-family="AvenirNext-Regular" font-size="27.4" fill="#000000" transform="matrix(1.00, 0.00, -0.00, -1.00, 268.0, 46.0)">о</text><text xml:space="preserve" font-family="AvenirNext-Regular" font-size="27.4" fill="#000000" transform="matrix(1.00, 0.00, -0.00, -1.00, 284.7, 46.0)"> </text><text xml:space="preserve" font-family="AvenirNext-Regular" font-size="27.4" fill="#000000" transform="matrix(1.00, 0.00, -0.00, -1.00, 291.6, 46.0)">д</text><text xml:space="preserve" font-family="AvenirNext-Regular" font-size="27.4" fill="#000000" transform="matrix(1.00, 0.00, -0.00, -1.00, 306.5, 46.0)">а</text><text xml:space="preserve" font-family="AvenirNext-Regular" font-size="27.4" fill="#000000" transform="matrix(1.00, 0.00, -0.00, -1.00, 321.1, 46.0)"> </text><text xml:space="preserve" font-family="AvenirNext-Regular" font-size="27.4" fill="#000000" transform="matrix(1.00, 0.00, -0.00, -1.00, 327.9, 46.0)">с</text><text xml:space="preserve" font-family="AvenirNext-Regular" font-size="27.4" fill="#000000" transform="matrix(1.00, 0.00, -0.00, -1.00, 341.6, 46.0)">е</text><text xml:space="preserve" font-family="AvenirNext-Regular" font-size="27.4" fill="#000000" transform="matrix(1.00, 0.00, -0.00, -1.00, 357.2, 46.0)"> </text><text xml:space="preserve" font-family="AvenirNext-Regular" font-size="27.4" fill="#000000" transform="matrix(1.00, 0.00, -0.00, -1.00, 364.1, 46.0)">о</text><text xml:space="preserve" font-family="AvenirNext-Regular" font-size="27.4" fill="#000000" transform="matrix(1.00, 0.00, -0.00, -1.00, 380.8, 46.0)">б</text><text xml:space="preserve" font-family="AvenirNext-Regular" font-size="27.4" fill="#000000" transform="matrix(1.00, 0.00, -0.00, -1.00, 397.2, 46.0)">ъ</text><text xml:space="preserve" font-family="AvenirNext-Regular" font-size="27.4" fill="#000000" transform="matrix(1.00, 0.00, -0.00, -1.00, 412.3, 46.0)">р</text><text xml:space="preserve" font-family="AvenirNext-Regular" font-size="27.4" fill="#000000" transform="matrix(1.00, 0.00, -0.00, -1.00, 429.7, 46.0)">к</text><text xml:space="preserve" font-family="AvenirNext-Regular" font-size="27.4" fill="#000000" transform="matrix(1.00, 0.00, -0.00, -1.00, 444.5, 46.0)">а</text><text xml:space="preserve" font-family="AvenirNext-Regular" font-size="27.4" fill="#000000" transform="matrix(1.00, 0.00, -0.00, -1.00, 459.1, 46.0)"> </text><text xml:space="preserve" font-family="AvenirNext-Regular" font-size="27.4" fill="#000000" transform="matrix(1.00, 0.00, -0.00, -1.00, 466.0, 46.0)">и</text><text xml:space="preserve" font-family="AvenirNext-Regular" font-size="27.4" fill="#000000" transform="matrix(1.00, 0.00, -0.00, -1.00, 482.4, 46.0)"> </text><text xml:space="preserve" font-family="AvenirNext-Regular" font-size="27.4" fill="#000000" transform="matrix(1.00, 0.00, -0.00, -1.00, 489.2, 46.0)">н</text><text xml:space="preserve" font-family="AvenirNext-Regular" font-size="27.4" fill="#000000" transform="matrix(1.00, 0.00, -0.00, -1.00, 504.9, 46.0)">а</text><text xml:space="preserve" font-family="AvenirNext-Regular" font-size="27.4" fill="#000000" transform="matrix(1.00, 0.00, -0.00, -1.00, 519.5, 46.0)">к</text><text xml:space="preserve" font-family="AvenirNext-Regular" font-size="27.4" fill="#000000" transform="matrix(1.00, 0.00, -0.00, -1.00, 534.4, 46.0)">р</text><text xml:space="preserve" font-family="AvenirNext-Regular" font-size="27.4" fill="#000000" transform="matrix(1.00, 0.00, -0.00, -1.00, 551.8, 46.0)">а</text><text xml:space="preserve" font-family="AvenirNext-Regular" font-size="27.4" fill="#000000" transform="matrix(1.00, 0.00, -0.00, -1.00, 566.4, 46.0)">я</text><text xml:space="preserve" font-family="AvenirNext-Regular" font-size="27.4" fill="#000000" transform="matrix(1.00, 0.00, -0.00, -1.00, 581.1, 46.0)"> </text><text xml:space="preserve" font-family="AvenirNext-Regular" font-size="27.4" fill="#000000" transform="matrix(1.00, 0.00, -0.00, -1.00, 588.0, 46.0)">д</text><text xml:space="preserve" font-family="AvenirNext-Regular" font-size="27.4" fill="#000000" transform="matrix(1.00, 0.00, -0.00, -1.00, 602.8, 46.0)">а</text><text xml:space="preserve" font-family="AvenirNext-Regular" font-size="27.4" fill="#000000" transform="matrix(1.00, 0.00, -0.00, -1.00, 617.5, 46.0)"> </text><text xml:space="preserve" font-family="AvenirNext-Regular" font-size="27.4" fill="#000000" transform="matrix(1.00, 0.00, -0.00, -1.00, 624.3, 46.0)">п</text><text xml:space="preserve" font-family="AvenirNext-Regular" font-size="27.4" fill="#000000" transform="matrix(1.00, 0.00, -0.00, -1.00, 639.8, 46.0)">о</text><text xml:space="preserve" font-family="AvenirNext-Regular" font-size="27.4" fill="#000000" transform="matrix(1.00, 0.00, -0.00, -1.00, 656.5, 46.0)">л</text><text xml:space="preserve" font-family="AvenirNext-Regular" font-size="27.4" fill="#000000" transform="matrix(1.00, 0.00, -0.00, -1.00, 670.1, 46.0)">у</text><text xml:space="preserve" font-family="AvenirNext-Regular" font-size="27.4" fill="#000000" transform="matrix(1.00, 0.00, -0.00, -1.00, 683.5, 46.0)">ч</text><text xml:space="preserve" font-family="AvenirNext-Regular" font-size="27.4" fill="#000000" transform="matrix(1.00, 0.00, -0.00, -1.00, 697.6, 46.0)">и</text><text xml:space="preserve" font-family="AvenirNext-Regular" font-size="27.4" fill="#000000" transform="matrix(1.00, 0.00, -0.00, -1.00, 714.0, 46.0)">м</text><text xml:space="preserve" font-family="AvenirNext-Regular" font-size="27.4" fill="#000000" transform="matrix(1.00, 0.00, -0.00, -1.00, 733.0, 46.0)"> </text><text xml:space="preserve" font-family="AvenirNext-Regular" font-size="27.4" fill="#000000" transform="matrix(1.00, 0.00, -0.00, -1.00, 739.8, 46.0)">г</text><text xml:space="preserve" font-family="AvenirNext-Regular" font-size="27.4" fill="#000000" transform="matrix(1.00, 0.00, -0.00, -1.00, 750.5, 46.0)">р</text><text xml:space="preserve" font-family="AvenirNext-Regular" font-size="27.4" fill="#000000" transform="matrix(1.00, 0.00, -0.00, -1.00, 767.8, 46.0)">е</text><text xml:space="preserve" font-family="AvenirNext-Regular" font-size="27.4" fill="#000000" transform="matrix(1.00, 0.00, -0.00, -1.00, 783.5, 46.0)">ш</text><text xml:space="preserve" font-family="AvenirNext-Regular" font-size="27.4" fill="#000000" transform="matrix(1.00, 0.00, -0.00, -1.00, 805.3, 46.0)">е</text><text xml:space="preserve" font-family="AvenirNext-Regular" font-size="27.4" fill="#000000" transform="matrix(1.00, 0.00, -0.00, -1.00, 820.9, 46.0)">н</text><text xml:space="preserve" font-family="AvenirNext-Regular" font-size="27.4" fill="#000000" transform="matrix(1.00, 0.00, -0.00, -1.00, 836.7, 46.0)"> </text><text xml:space="preserve" font-family="AvenirNext-Regular" font-size="27.4" fill="#000000" transform="matrix(1.00, 0.00, -0.00, -1.00, 27.0, 9.0)">р</text><text xml:space="preserve" font-family="AvenirNext-Regular" font-size="27.4" fill="#000000" transform="matrix(1.00, 0.00, -0.00, -1.00, 44.4, 9.0)">е</text><text xml:space="preserve" font-family="AvenirNext-Regular" font-size="27.4" fill="#000000" transform="matrix(1.00, 0.00, -0.00, -1.00, 60.0, 9.0)">з</text><text xml:space="preserve" font-family="AvenirNext-Regular" font-size="27.4" fill="#000000" transform="matrix(1.00, 0.00, -0.00, -1.00, 72.7, 9.0)">у</text><text xml:space="preserve" font-family="AvenirNext-Regular" font-size="27.4" fill="#000000" transform="matrix(1.00, 0.00, -0.00, -1.00, 86.0, 9.0)">л</text><text xml:space="preserve" font-family="AvenirNext-Regular" font-size="27.4" fill="#000000" transform="matrix(1.00, 0.00, -0.00, -1.00, 99.6, 9.0)">т</text><text xml:space="preserve" font-family="AvenirNext-Regular" font-size="27.4" fill="#000000" transform="matrix(1.00, 0.00, -0.00, -1.00, 111.4, 9.0)">а</text><text xml:space="preserve" font-family="AvenirNext-Regular" font-size="27.4" fill="#000000" transform="matrix(1.00, 0.00, -0.00, -1.00, 126.0, 9.0)">т</text></g></svg>