<?xml version="1.0" encoding="UTF-8" standalone="no"?><svg xmlns="http://www.w3.org/2000/svg" xmlns:xlink="http://www.w3.org/1999/xlink" clip-rule="evenodd" stroke-miterlimit="4.00" viewBox="0 0 1024 768"><desc>SVG generated by Keynote</desc><defs></defs><g transform="matrix(1.00, 0.00, -0.00, -1.00, 0.0, 768.0)"><g><clipPath id="clip-349"><path d="M 0.0 768.0 L 1024.0 768.0 L 1024.0 0.0 L 0.0 0.0 Z M 0.0 768.0 "></path></clipPath><g clip-path="url(#clip-349)"><image xlink:href="../../8F6754E5-F402-453C-8A28-A81B776A4759/assets/370422EB796A13E2672D714038217573.png" width="720.00" height="450.00" transform="matrix(1.42, 0.00, -0.00, -1.71, 0.0, 768.0)"></image></g></g><image xlink:href="../../B726A5D4-F80C-430A-A380-8E673CF80F5E/assets/DADFBCD29C9A420D83DE691FEC02890E.png" width="271.00" height="106.00" transform="matrix(1.00, 0.00, -0.00, -1.00, 376.6, 183.8)" opacity="0.50"></image><path d="M 402.5 182.8 L 621.5 182.8 C 628.1 182.8 631.4 182.8 634.9 181.7 C 638.8 180.3 641.9 177.2 643.3 173.3 C 644.4 169.8 644.4 166.5 644.4 159.8 L 644.4 105.7 C 644.4 99.2 644.4 95.8 643.3 92.3 C 641.9 88.4 638.8 85.3 634.9 83.9 C 631.4 82.8 628.1 82.8 621.4 82.8 L 402.5 82.8 C 395.9 82.8 392.6 82.8 389.1 83.9 C 385.2 85.3 382.1 88.4 380.7 92.3 C 379.6 95.8 379.6 99.2 379.6 105.8 L 379.6 159.9 C 379.6 166.5 379.6 169.8 380.7 173.3 C 382.1 177.2 385.2 180.3 389.1 181.7 C 392.6 182.8 395.9 182.8 402.6 182.8 Z M 402.5 182.8 " fill="#000000"></path><image xlink:href="../../B726A5D4-F80C-430A-A380-8E673CF80F5E/assets/2A656165A07716E004F54276EC5D437E.png" width="500.00" height="500.00" transform="matrix(1.00, 0.00, -0.00, -1.00, 262.0, 634.0)"></image><image xlink:href="../../B726A5D4-F80C-430A-A380-8E673CF80F5E/assets/FB1DC0ED2EEC161CDC4CB84DE4A6FCDE.png" width="340.00" height="90.00" transform="matrix(1.00, 0.00, -0.00, -1.00, 342.0, 167.8)" opacity="0.70"></image><image xlink:href="../../B726A5D4-F80C-430A-A380-8E673CF80F5E/assets/1188404FF2670DCF17DF09DBAD95F93E.png" width="300.00" height="50.00" transform="matrix(1.00, 0.00, -0.00, -1.00, 362.0, 158.0)"></image></g></svg>